<?xml version="1.0" encoding="UTF-8" standalone="no"?>
<!DOCTYPE svg PUBLIC "-//W3C//DTD SVG 1.1//EN"
 "http://www.w3.org/Graphics/SVG/1.1/DTD/svg11.dtd">
<!-- Generated by graphviz version 9.0.0 (20230911.1827)
 -->
<!-- Title: G Pages: 1 -->
<svg width="2797pt" height="304pt"
 viewBox="0.00 0.00 2797.25 304.00" xmlns="http://www.w3.org/2000/svg" xmlns:xlink="http://www.w3.org/1999/xlink">
<g id="graph0" class="graph" transform="scale(1 1) rotate(0) translate(4 300)">
<title>G</title>
<polygon fill="white" stroke="none" points="-4,4 -4,-300 2793.25,-300 2793.25,4 -4,4"/>
<text text-anchor="middle" x="1394.62" y="-278.7" font-family="Helvetica,sans-Serif" font-size="14.00">Architecture</text>
<!-- SERVICE:orders_split&#45;2 -->
<g id="node1" class="node">
<title>SERVICE:orders_split&#45;2</title>
<path fill="#eef6ff" stroke="black" d="M2024.5,-111C2024.5,-111 1943.25,-111 1943.25,-111 1937.25,-111 1931.25,-105 1931.25,-99 1931.25,-99 1931.25,-87 1931.25,-87 1931.25,-81 1937.25,-75 1943.25,-75 1943.25,-75 2024.5,-75 2024.5,-75 2030.5,-75 2036.5,-81 2036.5,-87 2036.5,-87 2036.5,-99 2036.5,-99 2036.5,-105 2030.5,-111 2024.5,-111"/>
<text text-anchor="middle" x="1983.88" y="-88.7" font-family="Times,serif" font-size="14.00">orders_split&#45;2</text>
</g>
<!-- SERVICE:orders_split&#45;1 -->
<g id="node4" class="node">
<title>SERVICE:orders_split&#45;1</title>
<path fill="#eef6ff" stroke="black" d="M2289,-111C2289,-111 2209.25,-111 2209.25,-111 2203.25,-111 2197.25,-105 2197.25,-99 2197.25,-99 2197.25,-87 2197.25,-87 2197.25,-81 2203.25,-75 2209.25,-75 2209.25,-75 2289,-75 2289,-75 2295,-75 2301,-81 2301,-87 2301,-87 2301,-99 2301,-99 2301,-105 2295,-111 2289,-111"/>
<text text-anchor="middle" x="2249.12" y="-88.7" font-family="Times,serif" font-size="14.00">orders_split&#45;1</text>
</g>
<!-- SERVICE:orders_split&#45;2&#45;&gt;SERVICE:orders_split&#45;1 -->
<g id="edge14" class="edge">
<title>SERVICE:orders_split&#45;2&#45;&gt;SERVICE:orders_split&#45;1</title>
<g id="a_edge14"><a xlink:title="edge#13">
<path fill="none" stroke="black" d="M2036.88,-93C2079.62,-93 2140.28,-93 2185.64,-93"/>
<polygon fill="black" stroke="black" points="2185.61,-96.5 2195.61,-93 2185.61,-89.5 2185.61,-96.5"/>
</a>
</g>
<text text-anchor="middle" x="2113.38" y="-97.7" font-family="Times,serif" font-size="14.00">CALLS [rest] (sync)</text>
</g>
<!-- SERVICE:cart -->
<g id="node2" class="node">
<title>SERVICE:cart</title>
<path fill="#eef6ff" stroke="black" d="M1504.88,-221C1504.88,-221 1474.88,-221 1474.88,-221 1468.88,-221 1462.88,-215 1462.88,-209 1462.88,-209 1462.88,-197 1462.88,-197 1462.88,-191 1468.88,-185 1474.88,-185 1474.88,-185 1504.88,-185 1504.88,-185 1510.88,-185 1516.88,-191 1516.88,-197 1516.88,-197 1516.88,-209 1516.88,-209 1516.88,-215 1510.88,-221 1504.88,-221"/>
<text text-anchor="middle" x="1489.88" y="-198.7" font-family="Times,serif" font-size="14.00">cart</text>
</g>
<!-- DATABASE:shared&#45;db -->
<g id="node3" class="node">
<title>DATABASE:shared&#45;db</title>
<path fill="#fff3cd" stroke="black" d="M2789.25,-184.73C2789.25,-186.53 2770.87,-188 2748.25,-188 2725.63,-188 2707.25,-186.53 2707.25,-184.73 2707.25,-184.73 2707.25,-155.27 2707.25,-155.27 2707.25,-153.47 2725.63,-152 2748.25,-152 2770.87,-152 2789.25,-153.47 2789.25,-155.27 2789.25,-155.27 2789.25,-184.73 2789.25,-184.73"/>
<path fill="none" stroke="black" d="M2789.25,-184.73C2789.25,-182.92 2770.87,-181.45 2748.25,-181.45 2725.63,-181.45 2707.25,-182.92 2707.25,-184.73"/>
<text text-anchor="middle" x="2748.25" y="-165.7" font-family="Times,serif" font-size="14.00">shared&#45;db</text>
</g>
<!-- SERVICE:cart&#45;&gt;DATABASE:shared&#45;db -->
<g id="edge5" class="edge">
<title>SERVICE:cart&#45;&gt;DATABASE:shared&#45;db</title>
<g id="a_edge5"><a xlink:title="edge#4">
<path fill="none" stroke="black" d="M1517.07,-201.14C1560.17,-198.25 1648.77,-193 1723.88,-193 1723.88,-193 1723.88,-193 2508.62,-193 2573.22,-193 2647.2,-184.55 2695.44,-177.89"/>
<polygon fill="black" stroke="black" points="2695.92,-181.36 2705.33,-176.5 2694.94,-174.43 2695.92,-181.36"/>
</a>
</g>
<text text-anchor="middle" x="2113.38" y="-197.7" font-family="Times,serif" font-size="14.00">CALLS [rest] (sync)</text>
</g>
<!-- SERVICE:catalog -->
<g id="node8" class="node">
<title>SERVICE:catalog</title>
<path fill="#eef6ff" stroke="black" d="M1744.5,-257C1744.5,-257 1705.25,-257 1705.25,-257 1699.25,-257 1693.25,-251 1693.25,-245 1693.25,-245 1693.25,-233 1693.25,-233 1693.25,-227 1699.25,-221 1705.25,-221 1705.25,-221 1744.5,-221 1744.5,-221 1750.5,-221 1756.5,-227 1756.5,-233 1756.5,-233 1756.5,-245 1756.5,-245 1756.5,-251 1750.5,-257 1744.5,-257"/>
<text text-anchor="middle" x="1724.88" y="-234.7" font-family="Times,serif" font-size="14.00">catalog</text>
</g>
<!-- SERVICE:cart&#45;&gt;SERVICE:catalog -->
<g id="edge1" class="edge">
<title>SERVICE:cart&#45;&gt;SERVICE:catalog</title>
<g id="a_edge1"><a xlink:title="edge#0">
<path fill="none" stroke="black" d="M1517.22,-206.67C1549.54,-211.21 1605.98,-219.3 1654.25,-227 1663.19,-228.43 1672.77,-230.03 1681.87,-231.59"/>
<polygon fill="black" stroke="black" points="1681.11,-235.01 1691.56,-233.26 1682.31,-228.11 1681.11,-235.01"/>
</a>
</g>
<text text-anchor="middle" x="1595.38" y="-231.7" font-family="Times,serif" font-size="14.00">CALLS [rest] (sync)</text>
</g>
<!-- SERVICE:orders_split -->
<g id="node16" class="node">
<title>SERVICE:orders_split</title>
<path fill="#eef6ff" stroke="black" d="M2541.5,-117C2541.5,-117 2473.75,-117 2473.75,-117 2467.75,-117 2461.75,-111 2461.75,-105 2461.75,-105 2461.75,-93 2461.75,-93 2461.75,-87 2467.75,-81 2473.75,-81 2473.75,-81 2541.5,-81 2541.5,-81 2547.5,-81 2553.5,-87 2553.5,-93 2553.5,-93 2553.5,-105 2553.5,-105 2553.5,-111 2547.5,-117 2541.5,-117"/>
<text text-anchor="middle" x="2507.62" y="-94.7" font-family="Times,serif" font-size="14.00">orders_split</text>
</g>
<!-- SERVICE:orders_split&#45;1&#45;&gt;SERVICE:orders_split -->
<g id="edge8" class="edge">
<title>SERVICE:orders_split&#45;1&#45;&gt;SERVICE:orders_split</title>
<g id="a_edge8"><a xlink:title="edge#7">
<path fill="none" stroke="black" d="M2301.42,-94.2C2344.36,-95.2 2405.58,-96.64 2449.96,-97.67"/>
<polygon fill="black" stroke="black" points="2449.84,-101.17 2459.92,-97.91 2450,-94.17 2449.84,-101.17"/>
</a>
</g>
<text text-anchor="middle" x="2384.88" y="-101.7" font-family="Times,serif" font-size="14.00">CALLS [rest] (sync)</text>
</g>
<!-- SERVICE:web&#45;ui_split_split -->
<g id="node5" class="node">
<title>SERVICE:web&#45;ui_split_split</title>
<path fill="#eef6ff" stroke="black" d="M787.5,-36C787.5,-36 682.25,-36 682.25,-36 676.25,-36 670.25,-30 670.25,-24 670.25,-24 670.25,-12 670.25,-12 670.25,-6 676.25,0 682.25,0 682.25,0 787.5,0 787.5,0 793.5,0 799.5,-6 799.5,-12 799.5,-12 799.5,-24 799.5,-24 799.5,-30 793.5,-36 787.5,-36"/>
<text text-anchor="middle" x="734.88" y="-13.7" font-family="Times,serif" font-size="14.00">web&#45;ui_split_split</text>
</g>
<!-- SERVICE:bff&#45;4 -->
<g id="node19" class="node">
<title>SERVICE:bff&#45;4</title>
<path fill="#eef6ff" stroke="black" d="M1002.12,-36C1002.12,-36 972.12,-36 972.12,-36 966.12,-36 960.12,-30 960.12,-24 960.12,-24 960.12,-12 960.12,-12 960.12,-6 966.12,0 972.12,0 972.12,0 1002.12,0 1002.12,0 1008.12,0 1014.12,-6 1014.12,-12 1014.12,-12 1014.12,-24 1014.12,-24 1014.12,-30 1008.12,-36 1002.12,-36"/>
<text text-anchor="middle" x="987.12" y="-13.7" font-family="Times,serif" font-size="14.00">bff&#45;4</text>
</g>
<!-- SERVICE:web&#45;ui_split_split&#45;&gt;SERVICE:bff&#45;4 -->
<g id="edge27" class="edge">
<title>SERVICE:web&#45;ui_split_split&#45;&gt;SERVICE:bff&#45;4</title>
<g id="a_edge27"><a xlink:title="edge#26">
<path fill="none" stroke="black" d="M800,-18C846.98,-18 909.16,-18 948.41,-18"/>
<polygon fill="black" stroke="black" points="948.3,-21.5 958.3,-18 948.29,-14.5 948.3,-21.5"/>
</a>
</g>
<text text-anchor="middle" x="876.38" y="-22.7" font-family="Times,serif" font-size="14.00">CALLS [rest] (sync)</text>
</g>
<!-- SERVICE:orders_split&#45;3 -->
<g id="node6" class="node">
<title>SERVICE:orders_split&#45;3</title>
<path fill="#eef6ff" stroke="black" d="M1765.5,-111C1765.5,-111 1684.25,-111 1684.25,-111 1678.25,-111 1672.25,-105 1672.25,-99 1672.25,-99 1672.25,-87 1672.25,-87 1672.25,-81 1678.25,-75 1684.25,-75 1684.25,-75 1765.5,-75 1765.5,-75 1771.5,-75 1777.5,-81 1777.5,-87 1777.5,-87 1777.5,-99 1777.5,-99 1777.5,-105 1771.5,-111 1765.5,-111"/>
<text text-anchor="middle" x="1724.88" y="-88.7" font-family="Times,serif" font-size="14.00">orders_split&#45;3</text>
</g>
<!-- SERVICE:orders_split&#45;3&#45;&gt;SERVICE:orders_split&#45;2 -->
<g id="edge23" class="edge">
<title>SERVICE:orders_split&#45;3&#45;&gt;SERVICE:orders_split&#45;2</title>
<g id="a_edge23"><a xlink:title="edge#22">
<path fill="none" stroke="black" d="M1777.88,-93C1818.81,-93 1876.02,-93 1919.61,-93"/>
<polygon fill="black" stroke="black" points="1919.43,-96.5 1929.43,-93 1919.43,-89.5 1919.43,-96.5"/>
</a>
</g>
<text text-anchor="middle" x="1854.38" y="-97.7" font-family="Times,serif" font-size="14.00">CALLS [rest] (sync)</text>
</g>
<!-- SERVICE:auth -->
<g id="node7" class="node">
<title>SERVICE:auth</title>
<path fill="#eef6ff" stroke="black" d="M1002.12,-214C1002.12,-214 972.12,-214 972.12,-214 966.12,-214 960.12,-208 960.12,-202 960.12,-202 960.12,-190 960.12,-190 960.12,-184 966.12,-178 972.12,-178 972.12,-178 1002.12,-178 1002.12,-178 1008.12,-178 1014.12,-184 1014.12,-190 1014.12,-190 1014.12,-202 1014.12,-202 1014.12,-208 1008.12,-214 1002.12,-214"/>
<text text-anchor="middle" x="987.12" y="-191.7" font-family="Times,serif" font-size="14.00">auth</text>
</g>
<!-- SERVICE:catalog&#45;&gt;DATABASE:shared&#45;db -->
<g id="edge4" class="edge">
<title>SERVICE:catalog&#45;&gt;DATABASE:shared&#45;db</title>
<g id="a_edge4"><a xlink:title="edge#3">
<path fill="none" stroke="black" d="M1756.73,-239C1804.98,-239 1901.22,-239 1982.88,-239 1982.88,-239 1982.88,-239 2508.62,-239 2590.15,-239 2613.29,-236.6 2689.25,-207 2697.62,-203.74 2706.08,-199.2 2713.86,-194.41"/>
<polygon fill="black" stroke="black" points="2715.53,-197.5 2722.01,-189.12 2711.72,-191.63 2715.53,-197.5"/>
</a>
</g>
<text text-anchor="middle" x="2249.12" y="-243.7" font-family="Times,serif" font-size="14.00">CALLS [rest] (sync)</text>
</g>
<!-- SERVICE:orders -->
<g id="node9" class="node">
<title>SERVICE:orders</title>
<path fill="#eef6ff" stroke="black" d="M1506.5,-112C1506.5,-112 1473.25,-112 1473.25,-112 1467.25,-112 1461.25,-106 1461.25,-100 1461.25,-100 1461.25,-88 1461.25,-88 1461.25,-82 1467.25,-76 1473.25,-76 1473.25,-76 1506.5,-76 1506.5,-76 1512.5,-76 1518.5,-82 1518.5,-88 1518.5,-88 1518.5,-100 1518.5,-100 1518.5,-106 1512.5,-112 1506.5,-112"/>
<text text-anchor="middle" x="1489.88" y="-89.7" font-family="Times,serif" font-size="14.00">orders</text>
</g>
<!-- SERVICE:orders&#45;&gt;SERVICE:orders_split&#45;3 -->
<g id="edge30" class="edge">
<title>SERVICE:orders&#45;&gt;SERVICE:orders_split&#45;3</title>
<g id="a_edge30"><a xlink:title="edge#29">
<path fill="none" stroke="black" d="M1518.98,-93.88C1553.79,-93.73 1614.15,-93.47 1660.37,-93.27"/>
<polygon fill="black" stroke="black" points="1660.3,-96.77 1670.28,-93.23 1660.27,-89.77 1660.3,-96.77"/>
</a>
</g>
<text text-anchor="middle" x="1595.38" y="-97.7" font-family="Times,serif" font-size="14.00">CALLS [rest] (sync)</text>
</g>
<!-- SERVICE:inventory -->
<g id="node11" class="node">
<title>SERVICE:inventory</title>
<path fill="#eef6ff" stroke="black" d="M1880.38,-163C1880.38,-163 1828.38,-163 1828.38,-163 1822.38,-163 1816.38,-157 1816.38,-151 1816.38,-151 1816.38,-139 1816.38,-139 1816.38,-133 1822.38,-127 1828.38,-127 1828.38,-127 1880.38,-127 1880.38,-127 1886.38,-127 1892.38,-133 1892.38,-139 1892.38,-139 1892.38,-151 1892.38,-151 1892.38,-157 1886.38,-163 1880.38,-163"/>
<text text-anchor="middle" x="1854.38" y="-140.7" font-family="Times,serif" font-size="14.00">inventory</text>
</g>
<!-- SERVICE:orders&#45;&gt;SERVICE:inventory -->
<g id="edge2" class="edge">
<title>SERVICE:orders&#45;&gt;SERVICE:inventory</title>
<g id="a_edge2"><a xlink:title="edge#1">
<path fill="none" stroke="black" d="M1518.8,-108.64C1524.52,-111.12 1530.61,-113.41 1536.5,-115 1629.18,-139.94 1741.97,-144.85 1804.91,-145.43"/>
<polygon fill="black" stroke="black" points="1804.53,-148.92 1814.55,-145.48 1804.57,-141.92 1804.53,-148.92"/>
</a>
</g>
<text text-anchor="middle" x="1595.38" y="-140.7" font-family="Times,serif" font-size="14.00">CALLS [rest] (sync)</text>
</g>
<!-- SERVICE:payments -->
<g id="node10" class="node">
<title>SERVICE:payments</title>
<path fill="#eef6ff" stroke="black" d="M1268.62,-78C1268.62,-78 1213.62,-78 1213.62,-78 1207.62,-78 1201.62,-72 1201.62,-66 1201.62,-66 1201.62,-54 1201.62,-54 1201.62,-48 1207.62,-42 1213.62,-42 1213.62,-42 1268.62,-42 1268.62,-42 1274.62,-42 1280.62,-48 1280.62,-54 1280.62,-54 1280.62,-66 1280.62,-66 1280.62,-72 1274.62,-78 1268.62,-78"/>
<text text-anchor="middle" x="1241.12" y="-55.7" font-family="Times,serif" font-size="14.00">payments</text>
</g>
<!-- SERVICE:payments&#45;&gt;SERVICE:orders -->
<g id="edge3" class="edge">
<title>SERVICE:payments&#45;&gt;SERVICE:orders</title>
<g id="a_edge3"><a xlink:title="edge#2">
<path fill="none" stroke="black" d="M1280.79,-56.19C1321.93,-53.36 1388.49,-52.32 1443.25,-68 1445.84,-68.74 1448.44,-69.66 1451.01,-70.7"/>
<polygon fill="black" stroke="black" points="1449.43,-73.82 1459.96,-74.91 1452.4,-67.49 1449.43,-73.82"/>
</a>
</g>
<text text-anchor="middle" x="1380.62" y="-72.7" font-family="Times,serif" font-size="14.00">CALLS [rest] (async)</text>
</g>
<!-- SERVICE:inventory&#45;&gt;DATABASE:shared&#45;db -->
<g id="edge7" class="edge">
<title>SERVICE:inventory&#45;&gt;DATABASE:shared&#45;db</title>
<g id="a_edge7"><a xlink:title="edge#6">
<path fill="none" stroke="black" d="M1892.83,-145.47C1942.87,-146.07 2034.29,-147 2112.38,-147 2112.38,-147 2112.38,-147 2508.62,-147 2573.22,-147 2647.2,-155.45 2695.44,-162.11"/>
<polygon fill="black" stroke="black" points="2694.94,-165.57 2705.33,-163.5 2695.92,-158.64 2694.94,-165.57"/>
</a>
</g>
<text text-anchor="middle" x="2249.12" y="-151.7" font-family="Times,serif" font-size="14.00">CALLS [rest] (sync)</text>
</g>
<!-- SERVICE:bff_split_split -->
<g id="node12" class="node">
<title>SERVICE:bff_split_split</title>
<path fill="#eef6ff" stroke="black" d="M1280.25,-231C1280.25,-231 1202,-231 1202,-231 1196,-231 1190,-225 1190,-219 1190,-219 1190,-207 1190,-207 1190,-201 1196,-195 1202,-195 1202,-195 1280.25,-195 1280.25,-195 1286.25,-195 1292.25,-201 1292.25,-207 1292.25,-207 1292.25,-219 1292.25,-219 1292.25,-225 1286.25,-231 1280.25,-231"/>
<text text-anchor="middle" x="1241.12" y="-208.7" font-family="Times,serif" font-size="14.00">bff_split_split</text>
</g>
<!-- SERVICE:bff_split_split&#45;&gt;SERVICE:cart -->
<g id="edge12" class="edge">
<title>SERVICE:bff_split_split&#45;&gt;SERVICE:cart</title>
<g id="a_edge12"><a xlink:title="edge#11">
<path fill="none" stroke="black" d="M1292.65,-210.95C1339.72,-209.04 1408.83,-206.24 1451.23,-204.53"/>
<polygon fill="black" stroke="black" points="1451.33,-208.02 1461.18,-204.12 1451.05,-201.03 1451.33,-208.02"/>
</a>
</g>
<text text-anchor="middle" x="1380.62" y="-213.7" font-family="Times,serif" font-size="14.00">CALLS [rest] (sync)</text>
</g>
<!-- SERVICE:bff_split_split&#45;&gt;SERVICE:orders -->
<g id="edge13" class="edge">
<title>SERVICE:bff_split_split&#45;&gt;SERVICE:orders</title>
<g id="a_edge13"><a xlink:title="edge#12">
<path fill="none" stroke="black" d="M1283.39,-194.61C1294.49,-190.09 1306.58,-185.53 1318,-182 1372.4,-165.17 1395.32,-185.75 1443.25,-155 1455.95,-146.85 1466.39,-133.86 1474.06,-121.95"/>
<polygon fill="black" stroke="black" points="1476.91,-124 1479.06,-113.63 1470.91,-120.4 1476.91,-124"/>
</a>
</g>
<text text-anchor="middle" x="1380.62" y="-186.7" font-family="Times,serif" font-size="14.00">CALLS [rest] (sync)</text>
</g>
<!-- SERVICE:bff&#45;2_split -->
<g id="node13" class="node">
<title>SERVICE:bff&#45;2_split</title>
<path fill="#eef6ff" stroke="black" d="M1269.75,-135C1269.75,-135 1212.5,-135 1212.5,-135 1206.5,-135 1200.5,-129 1200.5,-123 1200.5,-123 1200.5,-111 1200.5,-111 1200.5,-105 1206.5,-99 1212.5,-99 1212.5,-99 1269.75,-99 1269.75,-99 1275.75,-99 1281.75,-105 1281.75,-111 1281.75,-111 1281.75,-123 1281.75,-123 1281.75,-129 1275.75,-135 1269.75,-135"/>
<text text-anchor="middle" x="1241.12" y="-112.7" font-family="Times,serif" font-size="14.00">bff&#45;2_split</text>
</g>
<!-- SERVICE:bff&#45;2_split&#45;&gt;SERVICE:cart -->
<g id="edge19" class="edge">
<title>SERVICE:bff&#45;2_split&#45;&gt;SERVICE:cart</title>
<g id="a_edge19"><a xlink:title="edge#18">
<path fill="none" stroke="black" d="M1281.84,-117.06C1332.53,-117.79 1416.8,-121.41 1443.25,-137 1457.88,-145.62 1468.93,-161 1476.48,-174.75"/>
<polygon fill="black" stroke="black" points="1473.25,-176.11 1480.89,-183.45 1479.49,-172.95 1473.25,-176.11"/>
</a>
</g>
<text text-anchor="middle" x="1380.62" y="-141.7" font-family="Times,serif" font-size="14.00">CALLS [rest] (sync)</text>
</g>
<!-- SERVICE:bff&#45;2_split&#45;&gt;SERVICE:orders -->
<g id="edge20" class="edge">
<title>SERVICE:bff&#45;2_split&#45;&gt;SERVICE:orders</title>
<g id="a_edge20"><a xlink:title="edge#19">
<path fill="none" stroke="black" d="M1281.88,-103.92C1293.4,-100.7 1306.09,-97.69 1318,-96 1362.86,-89.64 1415.02,-90.16 1449.79,-91.61"/>
<polygon fill="black" stroke="black" points="1449.22,-95.09 1459.37,-92.06 1449.55,-88.09 1449.22,-95.09"/>
</a>
</g>
<text text-anchor="middle" x="1380.62" y="-100.7" font-family="Times,serif" font-size="14.00">CALLS [rest] (sync)</text>
</g>
<!-- SERVICE:bff&#45;3 -->
<g id="node14" class="node">
<title>SERVICE:bff&#45;3</title>
<path fill="#eef6ff" stroke="black" d="M749.88,-118C749.88,-118 719.88,-118 719.88,-118 713.88,-118 707.88,-112 707.88,-106 707.88,-106 707.88,-94 707.88,-94 707.88,-88 713.88,-82 719.88,-82 719.88,-82 749.88,-82 749.88,-82 755.88,-82 761.88,-88 761.88,-94 761.88,-94 761.88,-106 761.88,-106 761.88,-112 755.88,-118 749.88,-118"/>
<text text-anchor="middle" x="734.88" y="-95.7" font-family="Times,serif" font-size="14.00">bff&#45;3</text>
</g>
<!-- SERVICE:bff&#45;2 -->
<g id="node18" class="node">
<title>SERVICE:bff&#45;2</title>
<path fill="#eef6ff" stroke="black" d="M1002.12,-118C1002.12,-118 972.12,-118 972.12,-118 966.12,-118 960.12,-112 960.12,-106 960.12,-106 960.12,-94 960.12,-94 960.12,-88 966.12,-82 972.12,-82 972.12,-82 1002.12,-82 1002.12,-82 1008.12,-82 1014.12,-88 1014.12,-94 1014.12,-94 1014.12,-106 1014.12,-106 1014.12,-112 1008.12,-118 1002.12,-118"/>
<text text-anchor="middle" x="987.12" y="-95.7" font-family="Times,serif" font-size="14.00">bff&#45;2</text>
</g>
<!-- SERVICE:bff&#45;3&#45;&gt;SERVICE:bff&#45;2 -->
<g id="edge26" class="edge">
<title>SERVICE:bff&#45;3&#45;&gt;SERVICE:bff&#45;2</title>
<g id="a_edge26"><a xlink:title="edge#25">
<path fill="none" stroke="black" d="M762.18,-100C806.77,-100 897.33,-100 948.57,-100"/>
<polygon fill="black" stroke="black" points="948.28,-103.5 958.28,-100 948.28,-96.5 948.28,-103.5"/>
</a>
</g>
<text text-anchor="middle" x="876.38" y="-104.7" font-family="Times,serif" font-size="14.00">CALLS [rest] (sync)</text>
</g>
<!-- SERVICE:web&#45;ui_split -->
<g id="node15" class="node">
<title>SERVICE:web&#45;ui_split</title>
<path fill="#eef6ff" stroke="black" d="M504.5,-118C504.5,-118 433.75,-118 433.75,-118 427.75,-118 421.75,-112 421.75,-106 421.75,-106 421.75,-94 421.75,-94 421.75,-88 427.75,-82 433.75,-82 433.75,-82 504.5,-82 504.5,-82 510.5,-82 516.5,-88 516.5,-94 516.5,-94 516.5,-106 516.5,-106 516.5,-112 510.5,-118 504.5,-118"/>
<text text-anchor="middle" x="469.12" y="-95.7" font-family="Times,serif" font-size="14.00">web&#45;ui_split</text>
</g>
<!-- SERVICE:web&#45;ui_split&#45;&gt;SERVICE:bff&#45;3 -->
<g id="edge25" class="edge">
<title>SERVICE:web&#45;ui_split&#45;&gt;SERVICE:bff&#45;3</title>
<g id="a_edge25"><a xlink:title="edge#24">
<path fill="none" stroke="black" d="M516.97,-100C568.15,-100 649.1,-100 696.29,-100"/>
<polygon fill="black" stroke="black" points="696.01,-103.5 706.01,-100 696.01,-96.5 696.01,-103.5"/>
</a>
</g>
<text text-anchor="middle" x="593.38" y="-104.7" font-family="Times,serif" font-size="14.00">CALLS [rest] (sync)</text>
</g>
<!-- SERVICE:orders_split&#45;&gt;DATABASE:shared&#45;db -->
<g id="edge6" class="edge">
<title>SERVICE:orders_split&#45;&gt;DATABASE:shared&#45;db</title>
<g id="a_edge6"><a xlink:title="edge#5">
<path fill="none" stroke="black" d="M2553.74,-94.97C2591.59,-93.43 2646.2,-95.59 2689.25,-115 2703.32,-121.35 2716.12,-132.56 2726.09,-143.22"/>
<polygon fill="black" stroke="black" points="2723.2,-145.24 2732.45,-150.41 2728.45,-140.6 2723.2,-145.24"/>
</a>
</g>
<text text-anchor="middle" x="2630.38" y="-119.7" font-family="Times,serif" font-size="14.00">CALLS [rest] (sync)</text>
</g>
<!-- SERVICE:bff -->
<g id="node17" class="node">
<title>SERVICE:bff</title>
<path fill="#eef6ff" stroke="black" d="M484.12,-186C484.12,-186 454.12,-186 454.12,-186 448.12,-186 442.12,-180 442.12,-174 442.12,-174 442.12,-162 442.12,-162 442.12,-156 448.12,-150 454.12,-150 454.12,-150 484.12,-150 484.12,-150 490.12,-150 496.12,-156 496.12,-162 496.12,-162 496.12,-174 496.12,-174 496.12,-180 490.12,-186 484.12,-186"/>
<text text-anchor="middle" x="469.12" y="-163.7" font-family="Times,serif" font-size="14.00">bff</text>
</g>
<!-- SERVICE:bff&#45;&gt;SERVICE:payments -->
<g id="edge9" class="edge">
<title>SERVICE:bff&#45;&gt;SERVICE:payments</title>
<g id="a_edge9"><a xlink:title="edge#8">
<path fill="none" stroke="black" d="M496.55,-168.31C616.8,-169.5 1108.83,-171.93 1164.25,-133 1181.2,-121.09 1168.21,-105.24 1182.25,-90 1185.1,-86.9 1188.35,-84.08 1191.81,-81.5"/>
<polygon fill="black" stroke="black" points="1193.63,-84.49 1200.1,-76.1 1189.81,-78.63 1193.63,-84.49"/>
</a>
</g>
<text text-anchor="middle" x="876.38" y="-170.7" font-family="Times,serif" font-size="14.00">CALLS [rest] (sync)</text>
</g>
<!-- SERVICE:bff_split&#45;1 -->
<g id="node23" class="node">
<title>SERVICE:bff_split&#45;1</title>
<path fill="#eef6ff" stroke="black" d="M762.75,-214C762.75,-214 707,-214 707,-214 701,-214 695,-208 695,-202 695,-202 695,-190 695,-190 695,-184 701,-178 707,-178 707,-178 762.75,-178 762.75,-178 768.75,-178 774.75,-184 774.75,-190 774.75,-190 774.75,-202 774.75,-202 774.75,-208 768.75,-214 762.75,-214"/>
<text text-anchor="middle" x="734.88" y="-191.7" font-family="Times,serif" font-size="14.00">bff_split&#45;1</text>
</g>
<!-- SERVICE:bff&#45;&gt;SERVICE:bff_split&#45;1 -->
<g id="edge21" class="edge">
<title>SERVICE:bff&#45;&gt;SERVICE:bff_split&#45;1</title>
<g id="a_edge21"><a xlink:title="edge#20">
<path fill="none" stroke="black" d="M496.38,-170.79C539.81,-175.4 627.33,-184.69 683.14,-190.61"/>
<polygon fill="black" stroke="black" points="682.73,-194.09 693.04,-191.66 683.47,-187.13 682.73,-194.09"/>
</a>
</g>
<text text-anchor="middle" x="593.38" y="-190.7" font-family="Times,serif" font-size="14.00">CALLS [rest] (sync)</text>
</g>
<!-- SERVICE:bff&#45;2&#45;&gt;SERVICE:payments -->
<g id="edge18" class="edge">
<title>SERVICE:bff&#45;2&#45;&gt;SERVICE:payments</title>
<g id="a_edge18"><a xlink:title="edge#17">
<path fill="none" stroke="black" d="M1014.4,-88.74C1022.19,-85.8 1030.83,-82.92 1039,-81 1089.66,-69.1 1149.07,-63.94 1190.13,-61.7"/>
<polygon fill="black" stroke="black" points="1190.14,-65.21 1199.95,-61.21 1189.79,-58.22 1190.14,-65.21"/>
</a>
</g>
<text text-anchor="middle" x="1101.62" y="-85.7" font-family="Times,serif" font-size="14.00">CALLS [rest] (sync)</text>
</g>
<!-- SERVICE:bff&#45;2&#45;&gt;SERVICE:bff&#45;2_split -->
<g id="edge24" class="edge">
<title>SERVICE:bff&#45;2&#45;&gt;SERVICE:bff&#45;2_split</title>
<g id="a_edge24"><a xlink:title="edge#23">
<path fill="none" stroke="black" d="M1014.62,-101.79C1055.85,-104.57 1136.13,-109.98 1188.93,-113.55"/>
<polygon fill="black" stroke="black" points="1188.69,-117.04 1198.9,-114.22 1189.16,-110.05 1188.69,-117.04"/>
</a>
</g>
<text text-anchor="middle" x="1101.62" y="-115.7" font-family="Times,serif" font-size="14.00">CALLS [rest] (sync)</text>
</g>
<!-- SERVICE:bff&#45;4&#45;&gt;SERVICE:orders -->
<g id="edge28" class="edge">
<title>SERVICE:bff&#45;4&#45;&gt;SERVICE:orders</title>
<g id="a_edge28"><a xlink:title="edge#27">
<path fill="none" stroke="black" d="M1014.54,-15.4C1068.46,-10.61 1194.94,-2 1300,-15 1365.15,-23.06 1385.67,-19.47 1443.25,-51 1451.31,-55.41 1459.01,-61.59 1465.71,-67.88"/>
<polygon fill="black" stroke="black" points="1463.01,-70.13 1472.56,-74.73 1467.96,-65.18 1463.01,-70.13"/>
</a>
</g>
<text text-anchor="middle" x="1241.12" y="-19.7" font-family="Times,serif" font-size="14.00">CALLS [rest] (sync)</text>
</g>
<!-- SERVICE:bff&#45;4&#45;&gt;SERVICE:payments -->
<g id="edge29" class="edge">
<title>SERVICE:bff&#45;4&#45;&gt;SERVICE:payments</title>
<g id="a_edge29"><a xlink:title="edge#28">
<path fill="none" stroke="black" d="M1014.51,-20.78C1049.07,-24.61 1111.46,-32.17 1164.25,-42 1172.67,-43.57 1181.56,-45.46 1190.18,-47.42"/>
<polygon fill="black" stroke="black" points="1189.28,-50.81 1199.82,-49.67 1190.88,-43.99 1189.28,-50.81"/>
</a>
</g>
<text text-anchor="middle" x="1101.62" y="-46.7" font-family="Times,serif" font-size="14.00">CALLS [rest] (sync)</text>
</g>
<!-- SERVICE:web&#45;ui -->
<g id="node20" class="node">
<title>SERVICE:web&#45;ui</title>
<path fill="#eef6ff" stroke="black" d="M48.25,-186C48.25,-186 12,-186 12,-186 6,-186 0,-180 0,-174 0,-174 0,-162 0,-162 0,-156 6,-150 12,-150 12,-150 48.25,-150 48.25,-150 54.25,-150 60.25,-156 60.25,-162 60.25,-162 60.25,-174 60.25,-174 60.25,-180 54.25,-186 48.25,-186"/>
<text text-anchor="middle" x="30.12" y="-163.7" font-family="Times,serif" font-size="14.00">web&#45;ui</text>
</g>
<!-- SERVICE:bff&#45;1 -->
<g id="node22" class="node">
<title>SERVICE:bff&#45;1</title>
<path fill="#eef6ff" stroke="black" d="M256,-186C256,-186 226,-186 226,-186 220,-186 214,-180 214,-174 214,-174 214,-162 214,-162 214,-156 220,-150 226,-150 226,-150 256,-150 256,-150 262,-150 268,-156 268,-162 268,-162 268,-174 268,-174 268,-180 262,-186 256,-186"/>
<text text-anchor="middle" x="241" y="-163.7" font-family="Times,serif" font-size="14.00">bff&#45;1</text>
</g>
<!-- SERVICE:web&#45;ui&#45;&gt;SERVICE:bff&#45;1 -->
<g id="edge16" class="edge">
<title>SERVICE:web&#45;ui&#45;&gt;SERVICE:bff&#45;1</title>
<g id="a_edge16"><a xlink:title="edge#15">
<path fill="none" stroke="black" d="M60.61,-168C97.76,-168 161.66,-168 202.32,-168"/>
<polygon fill="black" stroke="black" points="202.12,-171.5 212.12,-168 202.12,-164.5 202.12,-171.5"/>
</a>
</g>
<text text-anchor="middle" x="137.12" y="-172.7" font-family="Times,serif" font-size="14.00">CALLS [rest] (sync)</text>
</g>
<!-- SERVICE:bff_split -->
<g id="node21" class="node">
<title>SERVICE:bff_split</title>
<path fill="#eef6ff" stroke="black" d="M1009,-268C1009,-268 965.25,-268 965.25,-268 959.25,-268 953.25,-262 953.25,-256 953.25,-256 953.25,-244 953.25,-244 953.25,-238 959.25,-232 965.25,-232 965.25,-232 1009,-232 1009,-232 1015,-232 1021,-238 1021,-244 1021,-244 1021,-256 1021,-256 1021,-262 1015,-268 1009,-268"/>
<text text-anchor="middle" x="987.12" y="-245.7" font-family="Times,serif" font-size="14.00">bff_split</text>
</g>
<!-- SERVICE:bff_split&#45;&gt;SERVICE:catalog -->
<g id="edge11" class="edge">
<title>SERVICE:bff_split&#45;&gt;SERVICE:catalog</title>
<g id="a_edge11"><a xlink:title="edge#10">
<path fill="none" stroke="black" d="M1021.42,-250.67C1118.82,-252.44 1411.65,-256.35 1654.25,-245 1663.2,-244.58 1672.77,-243.91 1681.87,-243.16"/>
<polygon fill="black" stroke="black" points="1681.9,-246.67 1691.55,-242.31 1681.29,-239.69 1681.9,-246.67"/>
</a>
</g>
<text text-anchor="middle" x="1380.62" y="-256.7" font-family="Times,serif" font-size="14.00">CALLS [rest] (sync)</text>
</g>
<!-- SERVICE:bff_split&#45;&gt;SERVICE:bff_split_split -->
<g id="edge22" class="edge">
<title>SERVICE:bff_split&#45;&gt;SERVICE:bff_split_split</title>
<g id="a_edge22"><a xlink:title="edge#21">
<path fill="none" stroke="black" d="M1021.45,-232.93C1027.18,-230.58 1033.17,-228.47 1039,-227 1084.82,-215.45 1138.24,-212.18 1178.5,-211.68"/>
<polygon fill="black" stroke="black" points="1178.27,-215.18 1188.25,-211.62 1178.22,-208.18 1178.27,-215.18"/>
</a>
</g>
<text text-anchor="middle" x="1101.62" y="-231.7" font-family="Times,serif" font-size="14.00">CALLS [rest] (async)</text>
</g>
<!-- SERVICE:bff&#45;1&#45;&gt;SERVICE:bff -->
<g id="edge17" class="edge">
<title>SERVICE:bff&#45;1&#45;&gt;SERVICE:bff</title>
<g id="a_edge17"><a xlink:title="edge#16">
<path fill="none" stroke="black" d="M268.38,-168C308.46,-168 384.87,-168 430.69,-168"/>
<polygon fill="black" stroke="black" points="430.4,-171.5 440.4,-168 430.4,-164.5 430.4,-171.5"/>
</a>
</g>
<text text-anchor="middle" x="344.88" y="-172.7" font-family="Times,serif" font-size="14.00">CALLS [rest] (sync)</text>
</g>
<!-- SERVICE:bff_split&#45;1&#45;&gt;SERVICE:auth -->
<g id="edge10" class="edge">
<title>SERVICE:bff_split&#45;1&#45;&gt;SERVICE:auth</title>
<g id="a_edge10"><a xlink:title="edge#9">
<path fill="none" stroke="black" d="M774.98,-196C822.4,-196 901.77,-196 948.51,-196"/>
<polygon fill="black" stroke="black" points="948.42,-199.5 958.42,-196 948.42,-192.5 948.42,-199.5"/>
</a>
</g>
<text text-anchor="middle" x="876.38" y="-200.7" font-family="Times,serif" font-size="14.00">CALLS [rest] (sync)</text>
</g>
<!-- SERVICE:bff_split&#45;1&#45;&gt;SERVICE:bff_split -->
<g id="edge15" class="edge">
<title>SERVICE:bff_split&#45;1&#45;&gt;SERVICE:bff_split</title>
<g id="a_edge15"><a xlink:title="edge#14">
<path fill="none" stroke="black" d="M775.17,-207.24C788.54,-210.89 803.62,-214.82 817.5,-218 859.51,-227.63 907.88,-236.6 942.01,-242.57"/>
<polygon fill="black" stroke="black" points="941.07,-245.96 951.52,-244.22 942.27,-239.06 941.07,-245.96"/>
</a>
</g>
<text text-anchor="middle" x="876.38" y="-245.7" font-family="Times,serif" font-size="14.00">CALLS [rest] (sync)</text>
</g>
</g>
</svg>
