<?xml version="1.0" encoding="UTF-8" standalone="no"?>
<!DOCTYPE svg PUBLIC "-//W3C//DTD SVG 1.1//EN"
 "http://www.w3.org/Graphics/SVG/1.1/DTD/svg11.dtd">
<!-- Generated by graphviz version 9.0.0 (20230911.1827)
 -->
<!-- Title: G Pages: 1 -->
<svg width="3056pt" height="306pt"
 viewBox="0.00 0.00 3055.50 306.00" xmlns="http://www.w3.org/2000/svg" xmlns:xlink="http://www.w3.org/1999/xlink">
<g id="graph0" class="graph" transform="scale(1 1) rotate(0) translate(4 302)">
<title>G</title>
<polygon fill="white" stroke="none" points="-4,4 -4,-302 3051.5,-302 3051.5,4 -4,4"/>
<text text-anchor="middle" x="1523.75" y="-280.7" font-family="Helvetica,sans-Serif" font-size="14.00">Architecture</text>
<!-- SERVICE:bff_split -->
<g id="node1" class="node">
<title>SERVICE:bff_split</title>
<path fill="#eef6ff" stroke="black" d="M1009,-267C1009,-267 965.25,-267 965.25,-267 959.25,-267 953.25,-261 953.25,-255 953.25,-255 953.25,-243 953.25,-243 953.25,-237 959.25,-231 965.25,-231 965.25,-231 1009,-231 1009,-231 1015,-231 1021,-237 1021,-243 1021,-243 1021,-255 1021,-255 1021,-261 1015,-267 1009,-267"/>
<text text-anchor="middle" x="987.12" y="-244.7" font-family="Times,serif" font-size="14.00">bff_split</text>
</g>
<!-- SERVICE:catalog -->
<g id="node8" class="node">
<title>SERVICE:catalog</title>
<path fill="#eef6ff" stroke="black" d="M1744.88,-248C1744.88,-248 1705.62,-248 1705.62,-248 1699.62,-248 1693.62,-242 1693.62,-236 1693.62,-236 1693.62,-224 1693.62,-224 1693.62,-218 1699.62,-212 1705.62,-212 1705.62,-212 1744.88,-212 1744.88,-212 1750.88,-212 1756.88,-218 1756.88,-224 1756.88,-224 1756.88,-236 1756.88,-236 1756.88,-242 1750.88,-248 1744.88,-248"/>
<text text-anchor="middle" x="1725.25" y="-225.7" font-family="Times,serif" font-size="14.00">catalog</text>
</g>
<!-- SERVICE:bff_split&#45;&gt;SERVICE:catalog -->
<g id="edge11" class="edge">
<title>SERVICE:bff_split&#45;&gt;SERVICE:catalog</title>
<g id="a_edge11"><a xlink:title="edge#10">
<path fill="none" stroke="black" d="M1021.48,-250.29C1119.03,-253.7 1412.23,-261.36 1654.25,-241 1663.3,-240.24 1672.95,-239 1682.11,-237.63"/>
<polygon fill="black" stroke="black" points="1682.53,-241.1 1691.86,-236.07 1681.43,-234.19 1682.53,-241.1"/>
</a>
</g>
<text text-anchor="middle" x="1380.62" y="-258.7" font-family="Times,serif" font-size="14.00">CALLS [rest] (sync)</text>
</g>
<!-- SERVICE:bff_split_split -->
<g id="node19" class="node">
<title>SERVICE:bff_split_split</title>
<path fill="#eef6ff" stroke="black" d="M1280.25,-228C1280.25,-228 1202,-228 1202,-228 1196,-228 1190,-222 1190,-216 1190,-216 1190,-204 1190,-204 1190,-198 1196,-192 1202,-192 1202,-192 1280.25,-192 1280.25,-192 1286.25,-192 1292.25,-198 1292.25,-204 1292.25,-204 1292.25,-216 1292.25,-216 1292.25,-222 1286.25,-228 1280.25,-228"/>
<text text-anchor="middle" x="1241.12" y="-205.7" font-family="Times,serif" font-size="14.00">bff_split_split</text>
</g>
<!-- SERVICE:bff_split&#45;&gt;SERVICE:bff_split_split -->
<g id="edge22" class="edge">
<title>SERVICE:bff_split&#45;&gt;SERVICE:bff_split_split</title>
<g id="a_edge22"><a xlink:title="edge#21">
<path fill="none" stroke="black" d="M1021.07,-230.55C1026.89,-227.95 1033.01,-225.61 1039,-224 1084.62,-211.71 1138.06,-208.49 1178.38,-208.19"/>
<polygon fill="black" stroke="black" points="1178.14,-211.69 1188.13,-208.18 1178.13,-204.69 1178.14,-211.69"/>
</a>
</g>
<text text-anchor="middle" x="1101.62" y="-228.7" font-family="Times,serif" font-size="14.00">CALLS [rest] (async)</text>
</g>
<!-- SERVICE:bff&#45;2_split -->
<g id="node2" class="node">
<title>SERVICE:bff&#45;2_split</title>
<path fill="#eef6ff" stroke="black" d="M1269.75,-134C1269.75,-134 1212.5,-134 1212.5,-134 1206.5,-134 1200.5,-128 1200.5,-122 1200.5,-122 1200.5,-110 1200.5,-110 1200.5,-104 1206.5,-98 1212.5,-98 1212.5,-98 1269.75,-98 1269.75,-98 1275.75,-98 1281.75,-104 1281.75,-110 1281.75,-110 1281.75,-122 1281.75,-122 1281.75,-128 1275.75,-134 1269.75,-134"/>
<text text-anchor="middle" x="1241.12" y="-111.7" font-family="Times,serif" font-size="14.00">bff&#45;2_split</text>
</g>
<!-- SERVICE:orders -->
<g id="node9" class="node">
<title>SERVICE:orders</title>
<path fill="#eef6ff" stroke="black" d="M1506.5,-110C1506.5,-110 1473.25,-110 1473.25,-110 1467.25,-110 1461.25,-104 1461.25,-98 1461.25,-98 1461.25,-86 1461.25,-86 1461.25,-80 1467.25,-74 1473.25,-74 1473.25,-74 1506.5,-74 1506.5,-74 1512.5,-74 1518.5,-80 1518.5,-86 1518.5,-86 1518.5,-98 1518.5,-98 1518.5,-104 1512.5,-110 1506.5,-110"/>
<text text-anchor="middle" x="1489.88" y="-87.7" font-family="Times,serif" font-size="14.00">orders</text>
</g>
<!-- SERVICE:bff&#45;2_split&#45;&gt;SERVICE:orders -->
<g id="edge20" class="edge">
<title>SERVICE:bff&#45;2_split&#45;&gt;SERVICE:orders</title>
<g id="a_edge20"><a xlink:title="edge#19">
<path fill="none" stroke="black" d="M1282.19,-101.5C1293.6,-98.02 1306.16,-94.79 1318,-93 1362.8,-86.22 1414.97,-87.18 1449.76,-89.05"/>
<polygon fill="black" stroke="black" points="1449.16,-92.52 1459.35,-89.62 1449.58,-85.53 1449.16,-92.52"/>
</a>
</g>
<text text-anchor="middle" x="1380.62" y="-97.7" font-family="Times,serif" font-size="14.00">CALLS [rest] (async)</text>
</g>
<!-- SERVICE:cart -->
<g id="node16" class="node">
<title>SERVICE:cart</title>
<path fill="#eef6ff" stroke="black" d="M1504.88,-215C1504.88,-215 1474.88,-215 1474.88,-215 1468.88,-215 1462.88,-209 1462.88,-203 1462.88,-203 1462.88,-191 1462.88,-191 1462.88,-185 1468.88,-179 1474.88,-179 1474.88,-179 1504.88,-179 1504.88,-179 1510.88,-179 1516.88,-185 1516.88,-191 1516.88,-191 1516.88,-203 1516.88,-203 1516.88,-209 1510.88,-215 1504.88,-215"/>
<text text-anchor="middle" x="1489.88" y="-192.7" font-family="Times,serif" font-size="14.00">cart</text>
</g>
<!-- SERVICE:bff&#45;2_split&#45;&gt;SERVICE:cart -->
<g id="edge19" class="edge">
<title>SERVICE:bff&#45;2_split&#45;&gt;SERVICE:cart</title>
<g id="a_edge19"><a xlink:title="edge#18">
<path fill="none" stroke="black" d="M1282.21,-115.72C1332.87,-116.02 1416.65,-118.89 1443.25,-134 1457.15,-141.9 1467.95,-155.96 1475.54,-168.8"/>
<polygon fill="black" stroke="black" points="1472.35,-170.26 1480.22,-177.36 1478.5,-166.91 1472.35,-170.26"/>
</a>
</g>
<text text-anchor="middle" x="1380.62" y="-138.7" font-family="Times,serif" font-size="14.00">CALLS [rest] (sync)</text>
</g>
<!-- SERVICE:bff&#45;3 -->
<g id="node3" class="node">
<title>SERVICE:bff&#45;3</title>
<path fill="#eef6ff" stroke="black" d="M749.88,-117C749.88,-117 719.88,-117 719.88,-117 713.88,-117 707.88,-111 707.88,-105 707.88,-105 707.88,-93 707.88,-93 707.88,-87 713.88,-81 719.88,-81 719.88,-81 749.88,-81 749.88,-81 755.88,-81 761.88,-87 761.88,-93 761.88,-93 761.88,-105 761.88,-105 761.88,-111 755.88,-117 749.88,-117"/>
<text text-anchor="middle" x="734.88" y="-94.7" font-family="Times,serif" font-size="14.00">bff&#45;3</text>
</g>
<!-- SERVICE:bff&#45;2 -->
<g id="node14" class="node">
<title>SERVICE:bff&#45;2</title>
<path fill="#eef6ff" stroke="black" d="M1002.12,-117C1002.12,-117 972.12,-117 972.12,-117 966.12,-117 960.12,-111 960.12,-105 960.12,-105 960.12,-93 960.12,-93 960.12,-87 966.12,-81 972.12,-81 972.12,-81 1002.12,-81 1002.12,-81 1008.12,-81 1014.12,-87 1014.12,-93 1014.12,-93 1014.12,-105 1014.12,-105 1014.12,-111 1008.12,-117 1002.12,-117"/>
<text text-anchor="middle" x="987.12" y="-94.7" font-family="Times,serif" font-size="14.00">bff&#45;2</text>
</g>
<!-- SERVICE:bff&#45;3&#45;&gt;SERVICE:bff&#45;2 -->
<g id="edge26" class="edge">
<title>SERVICE:bff&#45;3&#45;&gt;SERVICE:bff&#45;2</title>
<g id="a_edge26"><a xlink:title="edge#25">
<path fill="none" stroke="black" d="M762.18,-99C806.77,-99 897.33,-99 948.57,-99"/>
<polygon fill="black" stroke="black" points="948.28,-102.5 958.28,-99 948.28,-95.5 948.28,-102.5"/>
</a>
</g>
<text text-anchor="middle" x="876.38" y="-103.7" font-family="Times,serif" font-size="14.00">CALLS [rest] (sync)</text>
</g>
<!-- SERVICE:orders_split&#45;4 -->
<g id="node4" class="node">
<title>SERVICE:orders_split&#45;4</title>
<path fill="#eef6ff" stroke="black" d="M1766.25,-110C1766.25,-110 1684.25,-110 1684.25,-110 1678.25,-110 1672.25,-104 1672.25,-98 1672.25,-98 1672.25,-86 1672.25,-86 1672.25,-80 1678.25,-74 1684.25,-74 1684.25,-74 1766.25,-74 1766.25,-74 1772.25,-74 1778.25,-80 1778.25,-86 1778.25,-86 1778.25,-98 1778.25,-98 1778.25,-104 1772.25,-110 1766.25,-110"/>
<text text-anchor="middle" x="1725.25" y="-87.7" font-family="Times,serif" font-size="14.00">orders_split&#45;4</text>
</g>
<!-- SERVICE:orders_split&#45;3 -->
<g id="node15" class="node">
<title>SERVICE:orders_split&#45;3</title>
<path fill="#eef6ff" stroke="black" d="M2025.25,-110C2025.25,-110 1944,-110 1944,-110 1938,-110 1932,-104 1932,-98 1932,-98 1932,-86 1932,-86 1932,-80 1938,-74 1944,-74 1944,-74 2025.25,-74 2025.25,-74 2031.25,-74 2037.25,-80 2037.25,-86 2037.25,-86 2037.25,-98 2037.25,-98 2037.25,-104 2031.25,-110 2025.25,-110"/>
<text text-anchor="middle" x="1984.62" y="-87.7" font-family="Times,serif" font-size="14.00">orders_split&#45;3</text>
</g>
<!-- SERVICE:orders_split&#45;4&#45;&gt;SERVICE:orders_split&#45;3 -->
<g id="edge30" class="edge">
<title>SERVICE:orders_split&#45;4&#45;&gt;SERVICE:orders_split&#45;3</title>
<g id="a_edge30"><a xlink:title="edge#29">
<path fill="none" stroke="black" d="M1778.64,-92C1819.66,-92 1876.86,-92 1920.42,-92"/>
<polygon fill="black" stroke="black" points="1920.23,-95.5 1930.23,-92 1920.23,-88.5 1920.23,-95.5"/>
</a>
</g>
<text text-anchor="middle" x="1855.12" y="-96.7" font-family="Times,serif" font-size="14.00">CALLS [rest] (sync)</text>
</g>
<!-- SERVICE:payments -->
<g id="node5" class="node">
<title>SERVICE:payments</title>
<path fill="#eef6ff" stroke="black" d="M1268.62,-76C1268.62,-76 1213.62,-76 1213.62,-76 1207.62,-76 1201.62,-70 1201.62,-64 1201.62,-64 1201.62,-52 1201.62,-52 1201.62,-46 1207.62,-40 1213.62,-40 1213.62,-40 1268.62,-40 1268.62,-40 1274.62,-40 1280.62,-46 1280.62,-52 1280.62,-52 1280.62,-64 1280.62,-64 1280.62,-70 1274.62,-76 1268.62,-76"/>
<text text-anchor="middle" x="1241.12" y="-53.7" font-family="Times,serif" font-size="14.00">payments</text>
</g>
<!-- SERVICE:payments&#45;&gt;SERVICE:orders -->
<g id="edge3" class="edge">
<title>SERVICE:payments&#45;&gt;SERVICE:orders</title>
<g id="a_edge3"><a xlink:title="edge#2">
<path fill="none" stroke="black" d="M1280.79,-54.19C1321.93,-51.36 1388.49,-50.32 1443.25,-66 1445.84,-66.74 1448.44,-67.66 1451.01,-68.7"/>
<polygon fill="black" stroke="black" points="1449.43,-71.82 1459.96,-72.91 1452.4,-65.49 1449.43,-71.82"/>
</a>
</g>
<text text-anchor="middle" x="1380.62" y="-70.7" font-family="Times,serif" font-size="14.00">CALLS [rest] (async)</text>
</g>
<!-- SERVICE:bff&#45;1 -->
<g id="node6" class="node">
<title>SERVICE:bff&#45;1</title>
<path fill="#eef6ff" stroke="black" d="M256,-185C256,-185 226,-185 226,-185 220,-185 214,-179 214,-173 214,-173 214,-161 214,-161 214,-155 220,-149 226,-149 226,-149 256,-149 256,-149 262,-149 268,-155 268,-161 268,-161 268,-173 268,-173 268,-179 262,-185 256,-185"/>
<text text-anchor="middle" x="241" y="-162.7" font-family="Times,serif" font-size="14.00">bff&#45;1</text>
</g>
<!-- SERVICE:bff -->
<g id="node11" class="node">
<title>SERVICE:bff</title>
<path fill="#eef6ff" stroke="black" d="M484.12,-185C484.12,-185 454.12,-185 454.12,-185 448.12,-185 442.12,-179 442.12,-173 442.12,-173 442.12,-161 442.12,-161 442.12,-155 448.12,-149 454.12,-149 454.12,-149 484.12,-149 484.12,-149 490.12,-149 496.12,-155 496.12,-161 496.12,-161 496.12,-173 496.12,-173 496.12,-179 490.12,-185 484.12,-185"/>
<text text-anchor="middle" x="469.12" y="-162.7" font-family="Times,serif" font-size="14.00">bff</text>
</g>
<!-- SERVICE:bff&#45;1&#45;&gt;SERVICE:bff -->
<g id="edge17" class="edge">
<title>SERVICE:bff&#45;1&#45;&gt;SERVICE:bff</title>
<g id="a_edge17"><a xlink:title="edge#16">
<path fill="none" stroke="black" d="M268.38,-167C308.46,-167 384.87,-167 430.69,-167"/>
<polygon fill="black" stroke="black" points="430.4,-170.5 440.4,-167 430.4,-163.5 430.4,-170.5"/>
</a>
</g>
<text text-anchor="middle" x="344.88" y="-171.7" font-family="Times,serif" font-size="14.00">CALLS [rest] (sync)</text>
</g>
<!-- SERVICE:orders_split&#45;2 -->
<g id="node7" class="node">
<title>SERVICE:orders_split&#45;2</title>
<path fill="#eef6ff" stroke="black" d="M2290.5,-110C2290.5,-110 2209.25,-110 2209.25,-110 2203.25,-110 2197.25,-104 2197.25,-98 2197.25,-98 2197.25,-86 2197.25,-86 2197.25,-80 2203.25,-74 2209.25,-74 2209.25,-74 2290.5,-74 2290.5,-74 2296.5,-74 2302.5,-80 2302.5,-86 2302.5,-86 2302.5,-98 2302.5,-98 2302.5,-104 2296.5,-110 2290.5,-110"/>
<text text-anchor="middle" x="2249.88" y="-87.7" font-family="Times,serif" font-size="14.00">orders_split&#45;2</text>
</g>
<!-- SERVICE:orders_split&#45;1 -->
<g id="node12" class="node">
<title>SERVICE:orders_split&#45;1</title>
<path fill="#eef6ff" stroke="black" d="M2554.25,-110C2554.25,-110 2474.5,-110 2474.5,-110 2468.5,-110 2462.5,-104 2462.5,-98 2462.5,-98 2462.5,-86 2462.5,-86 2462.5,-80 2468.5,-74 2474.5,-74 2474.5,-74 2554.25,-74 2554.25,-74 2560.25,-74 2566.25,-80 2566.25,-86 2566.25,-86 2566.25,-98 2566.25,-98 2566.25,-104 2560.25,-110 2554.25,-110"/>
<text text-anchor="middle" x="2514.38" y="-87.7" font-family="Times,serif" font-size="14.00">orders_split&#45;1</text>
</g>
<!-- SERVICE:orders_split&#45;2&#45;&gt;SERVICE:orders_split&#45;1 -->
<g id="edge14" class="edge">
<title>SERVICE:orders_split&#45;2&#45;&gt;SERVICE:orders_split&#45;1</title>
<g id="a_edge14"><a xlink:title="edge#13">
<path fill="none" stroke="black" d="M2302.74,-92C2345.21,-92 2405.45,-92 2450.63,-92"/>
<polygon fill="black" stroke="black" points="2450.55,-95.5 2460.55,-92 2450.55,-88.5 2450.55,-95.5"/>
</a>
</g>
<text text-anchor="middle" x="2385.62" y="-96.7" font-family="Times,serif" font-size="14.00">CALLS [rest] (sync)</text>
</g>
<!-- DATABASE:shared&#45;db -->
<g id="node10" class="node">
<title>DATABASE:shared&#45;db</title>
<path fill="#fff3cd" stroke="black" d="M3047.5,-175.73C3047.5,-177.53 3029.12,-179 3006.5,-179 2983.88,-179 2965.5,-177.53 2965.5,-175.73 2965.5,-175.73 2965.5,-146.27 2965.5,-146.27 2965.5,-144.47 2983.88,-143 3006.5,-143 3029.12,-143 3047.5,-144.47 3047.5,-146.27 3047.5,-146.27 3047.5,-175.73 3047.5,-175.73"/>
<path fill="none" stroke="black" d="M3047.5,-175.73C3047.5,-173.92 3029.12,-172.45 3006.5,-172.45 2983.88,-172.45 2965.5,-173.92 2965.5,-175.73"/>
<text text-anchor="middle" x="3006.5" y="-156.7" font-family="Times,serif" font-size="14.00">shared&#45;db</text>
</g>
<!-- SERVICE:catalog&#45;&gt;DATABASE:shared&#45;db -->
<g id="edge4" class="edge">
<title>SERVICE:catalog&#45;&gt;DATABASE:shared&#45;db</title>
<g id="a_edge4"><a xlink:title="edge#3">
<path fill="none" stroke="black" d="M1757.15,-230C1805.47,-230 1901.85,-230 1983.62,-230 1983.62,-230 1983.62,-230 2766.88,-230 2848.4,-230 2871.54,-227.6 2947.5,-198 2955.87,-194.74 2964.33,-190.2 2972.11,-185.41"/>
<polygon fill="black" stroke="black" points="2973.78,-188.5 2980.26,-180.12 2969.97,-182.63 2973.78,-188.5"/>
</a>
</g>
<text text-anchor="middle" x="2385.62" y="-234.7" font-family="Times,serif" font-size="14.00">CALLS [rest] (sync)</text>
</g>
<!-- SERVICE:orders&#45;&gt;SERVICE:orders_split&#45;4 -->
<g id="edge31" class="edge">
<title>SERVICE:orders&#45;&gt;SERVICE:orders_split&#45;4</title>
<g id="a_edge31"><a xlink:title="edge#30">
<path fill="none" stroke="black" d="M1518.56,-92C1553.29,-92 1613.91,-92 1660.37,-92"/>
<polygon fill="black" stroke="black" points="1660.34,-95.5 1670.34,-92 1660.34,-88.5 1660.34,-95.5"/>
</a>
</g>
<text text-anchor="middle" x="1595.38" y="-96.7" font-family="Times,serif" font-size="14.00">CALLS [rest] (sync)</text>
</g>
<!-- SERVICE:inventory -->
<g id="node23" class="node">
<title>SERVICE:inventory</title>
<path fill="#eef6ff" stroke="black" d="M1881.12,-156C1881.12,-156 1829.12,-156 1829.12,-156 1823.12,-156 1817.12,-150 1817.12,-144 1817.12,-144 1817.12,-132 1817.12,-132 1817.12,-126 1823.12,-120 1829.12,-120 1829.12,-120 1881.12,-120 1881.12,-120 1887.12,-120 1893.12,-126 1893.12,-132 1893.12,-132 1893.12,-144 1893.12,-144 1893.12,-150 1887.12,-156 1881.12,-156"/>
<text text-anchor="middle" x="1855.12" y="-133.7" font-family="Times,serif" font-size="14.00">inventory</text>
</g>
<!-- SERVICE:orders&#45;&gt;SERVICE:inventory -->
<g id="edge2" class="edge">
<title>SERVICE:orders&#45;&gt;SERVICE:inventory</title>
<g id="a_edge2"><a xlink:title="edge#1">
<path fill="none" stroke="black" d="M1518.72,-107.44C1524.45,-110.04 1530.55,-112.4 1536.5,-114 1629.26,-138.91 1742.36,-141.07 1805.5,-139.88"/>
<polygon fill="black" stroke="black" points="1805.26,-143.38 1815.18,-139.66 1805.1,-136.39 1805.26,-143.38"/>
</a>
</g>
<text text-anchor="middle" x="1595.38" y="-138.7" font-family="Times,serif" font-size="14.00">CALLS [rest] (sync)</text>
</g>
<!-- SERVICE:bff&#45;&gt;SERVICE:payments -->
<g id="edge9" class="edge">
<title>SERVICE:bff&#45;&gt;SERVICE:payments</title>
<g id="a_edge9"><a xlink:title="edge#8">
<path fill="none" stroke="black" d="M496.55,-167.31C616.8,-168.5 1108.83,-170.93 1164.25,-132 1181.2,-120.09 1168.31,-104.33 1182.25,-89 1185.1,-85.86 1188.35,-82.98 1191.81,-80.35"/>
<polygon fill="black" stroke="black" points="1193.74,-83.27 1200.11,-74.8 1189.85,-77.45 1193.74,-83.27"/>
</a>
</g>
<text text-anchor="middle" x="876.38" y="-169.7" font-family="Times,serif" font-size="14.00">CALLS [rest] (sync)</text>
</g>
<!-- SERVICE:bff_split&#45;1 -->
<g id="node18" class="node">
<title>SERVICE:bff_split&#45;1</title>
<path fill="#eef6ff" stroke="black" d="M762.75,-213C762.75,-213 707,-213 707,-213 701,-213 695,-207 695,-201 695,-201 695,-189 695,-189 695,-183 701,-177 707,-177 707,-177 762.75,-177 762.75,-177 768.75,-177 774.75,-183 774.75,-189 774.75,-189 774.75,-201 774.75,-201 774.75,-207 768.75,-213 762.75,-213"/>
<text text-anchor="middle" x="734.88" y="-190.7" font-family="Times,serif" font-size="14.00">bff_split&#45;1</text>
</g>
<!-- SERVICE:bff&#45;&gt;SERVICE:bff_split&#45;1 -->
<g id="edge21" class="edge">
<title>SERVICE:bff&#45;&gt;SERVICE:bff_split&#45;1</title>
<g id="a_edge21"><a xlink:title="edge#20">
<path fill="none" stroke="black" d="M496.38,-169.79C539.81,-174.4 627.33,-183.69 683.14,-189.61"/>
<polygon fill="black" stroke="black" points="682.73,-193.09 693.04,-190.66 683.47,-186.13 682.73,-193.09"/>
</a>
</g>
<text text-anchor="middle" x="593.38" y="-189.7" font-family="Times,serif" font-size="14.00">CALLS [rest] (sync)</text>
</g>
<!-- SERVICE:orders_split -->
<g id="node17" class="node">
<title>SERVICE:orders_split</title>
<path fill="#eef6ff" stroke="black" d="M2799.75,-110C2799.75,-110 2732,-110 2732,-110 2726,-110 2720,-104 2720,-98 2720,-98 2720,-86 2720,-86 2720,-80 2726,-74 2732,-74 2732,-74 2799.75,-74 2799.75,-74 2805.75,-74 2811.75,-80 2811.75,-86 2811.75,-86 2811.75,-98 2811.75,-98 2811.75,-104 2805.75,-110 2799.75,-110"/>
<text text-anchor="middle" x="2765.88" y="-87.7" font-family="Times,serif" font-size="14.00">orders_split</text>
</g>
<!-- SERVICE:orders_split&#45;1&#45;&gt;SERVICE:orders_split -->
<g id="edge8" class="edge">
<title>SERVICE:orders_split&#45;1&#45;&gt;SERVICE:orders_split</title>
<g id="a_edge8"><a xlink:title="edge#7">
<path fill="none" stroke="black" d="M2566.47,-92C2607.73,-92 2665.76,-92 2708.4,-92"/>
<polygon fill="black" stroke="black" points="2708.2,-95.5 2718.2,-92 2708.2,-88.5 2708.2,-95.5"/>
</a>
</g>
<text text-anchor="middle" x="2643.12" y="-96.7" font-family="Times,serif" font-size="14.00">CALLS [rest] (sync)</text>
</g>
<!-- SERVICE:web&#45;ui_split_split -->
<g id="node13" class="node">
<title>SERVICE:web&#45;ui_split_split</title>
<path fill="#eef6ff" stroke="black" d="M787.5,-36C787.5,-36 682.25,-36 682.25,-36 676.25,-36 670.25,-30 670.25,-24 670.25,-24 670.25,-12 670.25,-12 670.25,-6 676.25,0 682.25,0 682.25,0 787.5,0 787.5,0 793.5,0 799.5,-6 799.5,-12 799.5,-12 799.5,-24 799.5,-24 799.5,-30 793.5,-36 787.5,-36"/>
<text text-anchor="middle" x="734.88" y="-13.7" font-family="Times,serif" font-size="14.00">web&#45;ui_split_split</text>
</g>
<!-- SERVICE:bff&#45;4 -->
<g id="node20" class="node">
<title>SERVICE:bff&#45;4</title>
<path fill="#eef6ff" stroke="black" d="M1002.12,-36C1002.12,-36 972.12,-36 972.12,-36 966.12,-36 960.12,-30 960.12,-24 960.12,-24 960.12,-12 960.12,-12 960.12,-6 966.12,0 972.12,0 972.12,0 1002.12,0 1002.12,0 1008.12,0 1014.12,-6 1014.12,-12 1014.12,-12 1014.12,-24 1014.12,-24 1014.12,-30 1008.12,-36 1002.12,-36"/>
<text text-anchor="middle" x="987.12" y="-13.7" font-family="Times,serif" font-size="14.00">bff&#45;4</text>
</g>
<!-- SERVICE:web&#45;ui_split_split&#45;&gt;SERVICE:bff&#45;4 -->
<g id="edge27" class="edge">
<title>SERVICE:web&#45;ui_split_split&#45;&gt;SERVICE:bff&#45;4</title>
<g id="a_edge27"><a xlink:title="edge#26">
<path fill="none" stroke="black" d="M800,-18C846.98,-18 909.16,-18 948.41,-18"/>
<polygon fill="black" stroke="black" points="948.3,-21.5 958.3,-18 948.29,-14.5 948.3,-21.5"/>
</a>
</g>
<text text-anchor="middle" x="876.38" y="-22.7" font-family="Times,serif" font-size="14.00">CALLS [rest] (sync)</text>
</g>
<!-- SERVICE:bff&#45;2&#45;&gt;SERVICE:bff&#45;2_split -->
<g id="edge24" class="edge">
<title>SERVICE:bff&#45;2&#45;&gt;SERVICE:bff&#45;2_split</title>
<g id="a_edge24"><a xlink:title="edge#23">
<path fill="none" stroke="black" d="M1014.62,-100.79C1055.85,-103.57 1136.13,-108.98 1188.93,-112.55"/>
<polygon fill="black" stroke="black" points="1188.69,-116.04 1198.9,-113.22 1189.16,-109.05 1188.69,-116.04"/>
</a>
</g>
<text text-anchor="middle" x="1101.62" y="-114.7" font-family="Times,serif" font-size="14.00">CALLS [rest] (sync)</text>
</g>
<!-- SERVICE:bff&#45;2&#45;&gt;SERVICE:payments -->
<g id="edge18" class="edge">
<title>SERVICE:bff&#45;2&#45;&gt;SERVICE:payments</title>
<g id="a_edge18"><a xlink:title="edge#17">
<path fill="none" stroke="black" d="M1014.41,-87.77C1022.2,-84.83 1030.84,-81.94 1039,-80 1089.65,-67.97 1149.07,-62.49 1190.13,-60.02"/>
<polygon fill="black" stroke="black" points="1190.16,-63.52 1199.95,-59.47 1189.77,-56.53 1190.16,-63.52"/>
</a>
</g>
<text text-anchor="middle" x="1101.62" y="-84.7" font-family="Times,serif" font-size="14.00">CALLS [rest] (sync)</text>
</g>
<!-- SERVICE:orders_split&#45;3&#45;&gt;SERVICE:orders_split&#45;2 -->
<g id="edge23" class="edge">
<title>SERVICE:orders_split&#45;3&#45;&gt;SERVICE:orders_split&#45;2</title>
<g id="a_edge23"><a xlink:title="edge#22">
<path fill="none" stroke="black" d="M2037.63,-92C2080.09,-92 2140.25,-92 2185.51,-92"/>
<polygon fill="black" stroke="black" points="2185.46,-95.5 2195.46,-92 2185.46,-88.5 2185.46,-95.5"/>
</a>
</g>
<text text-anchor="middle" x="2114.12" y="-96.7" font-family="Times,serif" font-size="14.00">CALLS [rest] (sync)</text>
</g>
<!-- SERVICE:cart&#45;&gt;SERVICE:catalog -->
<g id="edge1" class="edge">
<title>SERVICE:cart&#45;&gt;SERVICE:catalog</title>
<g id="a_edge1"><a xlink:title="edge#0">
<path fill="none" stroke="black" d="M1517.19,-200.72C1557.28,-206.39 1634.03,-217.24 1681.99,-224.02"/>
<polygon fill="black" stroke="black" points="1681.34,-227.47 1691.73,-225.4 1682.32,-220.54 1681.34,-227.47"/>
</a>
</g>
<text text-anchor="middle" x="1595.38" y="-223.7" font-family="Times,serif" font-size="14.00">CALLS [rest] (sync)</text>
</g>
<!-- SERVICE:cart&#45;&gt;DATABASE:shared&#45;db -->
<g id="edge5" class="edge">
<title>SERVICE:cart&#45;&gt;DATABASE:shared&#45;db</title>
<g id="a_edge5"><a xlink:title="edge#4">
<path fill="none" stroke="black" d="M1517.1,-194.59C1560.25,-190.83 1648.98,-184 1724.25,-184 1724.25,-184 1724.25,-184 2766.88,-184 2831.47,-184 2905.45,-175.55 2953.69,-168.89"/>
<polygon fill="black" stroke="black" points="2954.17,-172.36 2963.58,-167.5 2953.19,-165.43 2954.17,-172.36"/>
</a>
</g>
<text text-anchor="middle" x="2249.88" y="-188.7" font-family="Times,serif" font-size="14.00">CALLS [rest] (sync)</text>
</g>
<!-- SERVICE:orders_split&#45;&gt;DATABASE:shared&#45;db -->
<g id="edge6" class="edge">
<title>SERVICE:orders_split&#45;&gt;DATABASE:shared&#45;db</title>
<g id="a_edge6"><a xlink:title="edge#5">
<path fill="none" stroke="black" d="M2811.96,-87.36C2849.78,-85.33 2904.39,-86.84 2947.5,-106 2961.71,-112.31 2974.59,-123.64 2984.59,-134.37"/>
<polygon fill="black" stroke="black" points="2981.72,-136.42 2990.95,-141.62 2986.98,-131.8 2981.72,-136.42"/>
</a>
</g>
<text text-anchor="middle" x="2888.62" y="-110.7" font-family="Times,serif" font-size="14.00">CALLS [rest] (sync)</text>
</g>
<!-- SERVICE:bff_split&#45;1&#45;&gt;SERVICE:bff_split -->
<g id="edge15" class="edge">
<title>SERVICE:bff_split&#45;1&#45;&gt;SERVICE:bff_split</title>
<g id="a_edge15"><a xlink:title="edge#14">
<path fill="none" stroke="black" d="M775.17,-206.24C788.54,-209.89 803.62,-213.82 817.5,-217 859.51,-226.63 907.88,-235.6 942.01,-241.57"/>
<polygon fill="black" stroke="black" points="941.07,-244.96 951.52,-243.22 942.27,-238.06 941.07,-244.96"/>
</a>
</g>
<text text-anchor="middle" x="876.38" y="-244.7" font-family="Times,serif" font-size="14.00">CALLS [rest] (sync)</text>
</g>
<!-- SERVICE:auth -->
<g id="node22" class="node">
<title>SERVICE:auth</title>
<path fill="#eef6ff" stroke="black" d="M1002.12,-213C1002.12,-213 972.12,-213 972.12,-213 966.12,-213 960.12,-207 960.12,-201 960.12,-201 960.12,-189 960.12,-189 960.12,-183 966.12,-177 972.12,-177 972.12,-177 1002.12,-177 1002.12,-177 1008.12,-177 1014.12,-183 1014.12,-189 1014.12,-189 1014.12,-201 1014.12,-201 1014.12,-207 1008.12,-213 1002.12,-213"/>
<text text-anchor="middle" x="987.12" y="-190.7" font-family="Times,serif" font-size="14.00">auth</text>
</g>
<!-- SERVICE:bff_split&#45;1&#45;&gt;SERVICE:auth -->
<g id="edge10" class="edge">
<title>SERVICE:bff_split&#45;1&#45;&gt;SERVICE:auth</title>
<g id="a_edge10"><a xlink:title="edge#9">
<path fill="none" stroke="black" d="M774.98,-195C822.4,-195 901.77,-195 948.51,-195"/>
<polygon fill="black" stroke="black" points="948.42,-198.5 958.42,-195 948.42,-191.5 948.42,-198.5"/>
</a>
</g>
<text text-anchor="middle" x="876.38" y="-199.7" font-family="Times,serif" font-size="14.00">CALLS [rest] (sync)</text>
</g>
<!-- SERVICE:bff_split_split&#45;&gt;SERVICE:orders -->
<g id="edge13" class="edge">
<title>SERVICE:bff_split_split&#45;&gt;SERVICE:orders</title>
<g id="a_edge13"><a xlink:title="edge#12">
<path fill="none" stroke="black" d="M1280.12,-191.59C1292.04,-186.32 1305.39,-180.95 1318,-177 1372.17,-160.03 1395.12,-182.1 1443.25,-152 1455.69,-144.22 1465.99,-131.74 1473.63,-120.17"/>
<polygon fill="black" stroke="black" points="1476.6,-122.03 1478.86,-111.67 1470.64,-118.36 1476.6,-122.03"/>
</a>
</g>
<text text-anchor="middle" x="1380.62" y="-181.7" font-family="Times,serif" font-size="14.00">CALLS [rest] (sync)</text>
</g>
<!-- SERVICE:bff_split_split&#45;&gt;SERVICE:cart -->
<g id="edge12" class="edge">
<title>SERVICE:bff_split_split&#45;&gt;SERVICE:cart</title>
<g id="a_edge12"><a xlink:title="edge#11">
<path fill="none" stroke="black" d="M1292.65,-207.34C1339.72,-204.86 1408.83,-201.22 1451.23,-198.98"/>
<polygon fill="black" stroke="black" points="1451.38,-202.48 1461.19,-198.46 1451.01,-195.49 1451.38,-202.48"/>
</a>
</g>
<text text-anchor="middle" x="1380.62" y="-209.7" font-family="Times,serif" font-size="14.00">CALLS [rest] (sync)</text>
</g>
<!-- SERVICE:bff&#45;4&#45;&gt;SERVICE:payments -->
<g id="edge29" class="edge">
<title>SERVICE:bff&#45;4&#45;&gt;SERVICE:payments</title>
<g id="a_edge29"><a xlink:title="edge#28">
<path fill="none" stroke="black" d="M1014.62,-18.92C1049.29,-20.5 1111.81,-24.63 1164.25,-35 1172.89,-36.71 1181.95,-39 1190.68,-41.48"/>
<polygon fill="black" stroke="black" points="1189.48,-44.77 1200.06,-44.25 1191.46,-38.06 1189.48,-44.77"/>
</a>
</g>
<text text-anchor="middle" x="1101.62" y="-39.7" font-family="Times,serif" font-size="14.00">CALLS [rest] (sync)</text>
</g>
<!-- SERVICE:bff&#45;4&#45;&gt;SERVICE:orders -->
<g id="edge28" class="edge">
<title>SERVICE:bff&#45;4&#45;&gt;SERVICE:orders</title>
<g id="a_edge28"><a xlink:title="edge#27">
<path fill="none" stroke="black" d="M1014.54,-15.12C1068.46,-9.77 1194.93,0 1300,-13 1365.15,-21.06 1385.67,-17.47 1443.25,-49 1451.31,-53.41 1459.01,-59.59 1465.71,-65.88"/>
<polygon fill="black" stroke="black" points="1463.01,-68.13 1472.56,-72.73 1467.96,-63.18 1463.01,-68.13"/>
</a>
</g>
<text text-anchor="middle" x="1241.12" y="-17.7" font-family="Times,serif" font-size="14.00">CALLS [rest] (sync)</text>
</g>
<!-- SERVICE:web&#45;ui -->
<g id="node21" class="node">
<title>SERVICE:web&#45;ui</title>
<path fill="#eef6ff" stroke="black" d="M48.25,-185C48.25,-185 12,-185 12,-185 6,-185 0,-179 0,-173 0,-173 0,-161 0,-161 0,-155 6,-149 12,-149 12,-149 48.25,-149 48.25,-149 54.25,-149 60.25,-155 60.25,-161 60.25,-161 60.25,-173 60.25,-173 60.25,-179 54.25,-185 48.25,-185"/>
<text text-anchor="middle" x="30.12" y="-162.7" font-family="Times,serif" font-size="14.00">web&#45;ui</text>
</g>
<!-- SERVICE:web&#45;ui&#45;&gt;SERVICE:bff&#45;1 -->
<g id="edge16" class="edge">
<title>SERVICE:web&#45;ui&#45;&gt;SERVICE:bff&#45;1</title>
<g id="a_edge16"><a xlink:title="edge#15">
<path fill="none" stroke="black" d="M60.61,-167C97.76,-167 161.66,-167 202.32,-167"/>
<polygon fill="black" stroke="black" points="202.12,-170.5 212.12,-167 202.12,-163.5 202.12,-170.5"/>
</a>
</g>
<text text-anchor="middle" x="137.12" y="-171.7" font-family="Times,serif" font-size="14.00">CALLS [rest] (sync)</text>
</g>
<!-- SERVICE:inventory&#45;&gt;DATABASE:shared&#45;db -->
<g id="edge7" class="edge">
<title>SERVICE:inventory&#45;&gt;DATABASE:shared&#45;db</title>
<g id="a_edge7"><a xlink:title="edge#6">
<path fill="none" stroke="black" d="M1893.58,-138C1943.62,-138 2035.04,-138 2113.12,-138 2113.12,-138 2113.12,-138 2766.88,-138 2831.47,-138 2905.45,-146.45 2953.69,-153.11"/>
<polygon fill="black" stroke="black" points="2953.19,-156.57 2963.58,-154.5 2954.17,-149.64 2953.19,-156.57"/>
</a>
</g>
<text text-anchor="middle" x="2385.62" y="-142.7" font-family="Times,serif" font-size="14.00">CALLS [rest] (sync)</text>
</g>
<!-- SERVICE:web&#45;ui_split -->
<g id="node24" class="node">
<title>SERVICE:web&#45;ui_split</title>
<path fill="#eef6ff" stroke="black" d="M504.5,-117C504.5,-117 433.75,-117 433.75,-117 427.75,-117 421.75,-111 421.75,-105 421.75,-105 421.75,-93 421.75,-93 421.75,-87 427.75,-81 433.75,-81 433.75,-81 504.5,-81 504.5,-81 510.5,-81 516.5,-87 516.5,-93 516.5,-93 516.5,-105 516.5,-105 516.5,-111 510.5,-117 504.5,-117"/>
<text text-anchor="middle" x="469.12" y="-94.7" font-family="Times,serif" font-size="14.00">web&#45;ui_split</text>
</g>
<!-- SERVICE:web&#45;ui_split&#45;&gt;SERVICE:bff&#45;3 -->
<g id="edge25" class="edge">
<title>SERVICE:web&#45;ui_split&#45;&gt;SERVICE:bff&#45;3</title>
<g id="a_edge25"><a xlink:title="edge#24">
<path fill="none" stroke="black" d="M516.97,-99C568.15,-99 649.1,-99 696.29,-99"/>
<polygon fill="black" stroke="black" points="696.01,-102.5 706.01,-99 696.01,-95.5 696.01,-102.5"/>
</a>
</g>
<text text-anchor="middle" x="593.38" y="-103.7" font-family="Times,serif" font-size="14.00">CALLS [rest] (sync)</text>
</g>
</g>
</svg>
