<?xml version="1.0" encoding="UTF-8" standalone="no"?>
<!DOCTYPE svg PUBLIC "-//W3C//DTD SVG 1.1//EN"
 "http://www.w3.org/Graphics/SVG/1.1/DTD/svg11.dtd">
<!-- Generated by graphviz version 9.0.0 (20230911.1827)
 -->
<!-- Title: G Pages: 1 -->
<svg width="988pt" height="154pt"
 viewBox="0.00 0.00 988.00 153.66" xmlns="http://www.w3.org/2000/svg" xmlns:xlink="http://www.w3.org/1999/xlink">
<g id="graph0" class="graph" transform="scale(1 1) rotate(0) translate(4 149.66)">
<title>G</title>
<polygon fill="white" stroke="none" points="-4,4 -4,-149.66 984,-149.66 984,4 -4,4"/>
<text text-anchor="middle" x="490" y="-128.36" font-family="Helvetica,sans-Serif" font-size="14.00">Architecture</text>
<!-- SERVICE:web -->
<g id="node1" class="node">
<title>SERVICE:web</title>
<path fill="#eef6ff" stroke="black" d="M42,-92.66C42,-92.66 12,-92.66 12,-92.66 6,-92.66 0,-86.66 0,-80.66 0,-80.66 0,-68.66 0,-68.66 0,-62.66 6,-56.66 12,-56.66 12,-56.66 42,-56.66 42,-56.66 48,-56.66 54,-62.66 54,-68.66 54,-68.66 54,-80.66 54,-80.66 54,-86.66 48,-92.66 42,-92.66"/>
<text text-anchor="middle" x="27" y="-70.36" font-family="Times,serif" font-size="14.00">web</text>
</g>
<!-- SERVICE:bff -->
<g id="node6" class="node">
<title>SERVICE:bff</title>
<path fill="#eef6ff" stroke="black" d="M249.75,-92.66C249.75,-92.66 219.75,-92.66 219.75,-92.66 213.75,-92.66 207.75,-86.66 207.75,-80.66 207.75,-80.66 207.75,-68.66 207.75,-68.66 207.75,-62.66 213.75,-56.66 219.75,-56.66 219.75,-56.66 249.75,-56.66 249.75,-56.66 255.75,-56.66 261.75,-62.66 261.75,-68.66 261.75,-68.66 261.75,-80.66 261.75,-80.66 261.75,-86.66 255.75,-92.66 249.75,-92.66"/>
<text text-anchor="middle" x="234.75" y="-70.36" font-family="Times,serif" font-size="14.00">bff</text>
</g>
<!-- SERVICE:web&#45;&gt;SERVICE:bff -->
<g id="edge5" class="edge">
<title>SERVICE:web&#45;&gt;SERVICE:bff</title>
<g id="a_edge5"><a xlink:title="edge#4">
<path fill="none" stroke="black" d="M54.48,-74.66C90.43,-74.66 154.92,-74.66 195.96,-74.66"/>
<polygon fill="black" stroke="black" points="195.86,-78.16 205.86,-74.66 195.86,-71.16 195.86,-78.16"/>
</a>
</g>
<text text-anchor="middle" x="130.88" y="-79.36" font-family="Times,serif" font-size="14.00">CALLS [rest] (sync)</text>
</g>
<!-- SERVICE:auth -->
<g id="node2" class="node">
<title>SERVICE:auth</title>
<path fill="#eef6ff" stroke="black" d="M564.62,-119.66C564.62,-119.66 534.62,-119.66 534.62,-119.66 528.62,-119.66 522.62,-113.66 522.62,-107.66 522.62,-107.66 522.62,-95.66 522.62,-95.66 522.62,-89.66 528.62,-83.66 534.62,-83.66 534.62,-83.66 564.62,-83.66 564.62,-83.66 570.62,-83.66 576.62,-89.66 576.62,-95.66 576.62,-95.66 576.62,-107.66 576.62,-107.66 576.62,-113.66 570.62,-119.66 564.62,-119.66"/>
<text text-anchor="middle" x="549.62" y="-97.36" font-family="Times,serif" font-size="14.00">auth</text>
</g>
<!-- DATABASE:shared&#45;db -->
<g id="node5" class="node">
<title>DATABASE:shared&#45;db</title>
<path fill="#fff3cd" stroke="black" d="M980,-64.39C980,-66.2 961.62,-67.66 939,-67.66 916.38,-67.66 898,-66.2 898,-64.39 898,-64.39 898,-34.94 898,-34.94 898,-33.13 916.38,-31.66 939,-31.66 961.62,-31.66 980,-33.13 980,-34.94 980,-34.94 980,-64.39 980,-64.39"/>
<path fill="none" stroke="black" d="M980,-64.39C980,-62.59 961.62,-61.12 939,-61.12 916.38,-61.12 898,-62.59 898,-64.39"/>
<text text-anchor="middle" x="939" y="-45.36" font-family="Times,serif" font-size="14.00">shared&#45;db</text>
</g>
<!-- SERVICE:auth&#45;&gt;DATABASE:shared&#45;db -->
<g id="edge4" class="edge">
<title>SERVICE:auth&#45;&gt;DATABASE:shared&#45;db</title>
<g id="a_edge4"><a xlink:title="edge#3">
<path fill="none" stroke="black" d="M577.05,-101.67C633.46,-101.17 769.5,-97.15 880,-71.66 882.16,-71.16 884.36,-70.6 886.56,-69.99"/>
<polygon fill="black" stroke="black" points="887.59,-73.34 896.11,-67.04 885.52,-66.65 887.59,-73.34"/>
</a>
</g>
<text text-anchor="middle" x="685.38" y="-104.36" font-family="Times,serif" font-size="14.00">CALLS [rest] (sync)</text>
</g>
<!-- SERVICE:orders -->
<g id="node3" class="node">
<title>SERVICE:orders</title>
<path fill="#eef6ff" stroke="black" d="M460.75,-67.66C460.75,-67.66 427.5,-67.66 427.5,-67.66 421.5,-67.66 415.5,-61.66 415.5,-55.66 415.5,-55.66 415.5,-43.66 415.5,-43.66 415.5,-37.66 421.5,-31.66 427.5,-31.66 427.5,-31.66 460.75,-31.66 460.75,-31.66 466.75,-31.66 472.75,-37.66 472.75,-43.66 472.75,-43.66 472.75,-55.66 472.75,-55.66 472.75,-61.66 466.75,-67.66 460.75,-67.66"/>
<text text-anchor="middle" x="444.12" y="-45.36" font-family="Times,serif" font-size="14.00">orders</text>
</g>
<!-- SERVICE:inventory -->
<g id="node4" class="node">
<title>SERVICE:inventory</title>
<path fill="#eef6ff" stroke="black" d="M711.38,-67.66C711.38,-67.66 659.38,-67.66 659.38,-67.66 653.38,-67.66 647.38,-61.66 647.38,-55.66 647.38,-55.66 647.38,-43.66 647.38,-43.66 647.38,-37.66 653.38,-31.66 659.38,-31.66 659.38,-31.66 711.38,-31.66 711.38,-31.66 717.38,-31.66 723.38,-37.66 723.38,-43.66 723.38,-43.66 723.38,-55.66 723.38,-55.66 723.38,-61.66 717.38,-67.66 711.38,-67.66"/>
<text text-anchor="middle" x="685.38" y="-45.36" font-family="Times,serif" font-size="14.00">inventory</text>
</g>
<!-- SERVICE:orders&#45;&gt;SERVICE:inventory -->
<g id="edge1" class="edge">
<title>SERVICE:orders&#45;&gt;SERVICE:inventory</title>
<g id="a_edge1"><a xlink:title="edge#0">
<path fill="none" stroke="black" d="M473.04,-49.66C512.98,-49.66 587.01,-49.66 635.98,-49.66"/>
<polygon fill="black" stroke="black" points="635.74,-53.16 645.74,-49.66 635.73,-46.16 635.74,-53.16"/>
</a>
</g>
<text text-anchor="middle" x="549.62" y="-54.36" font-family="Times,serif" font-size="14.00">CALLS [rest] (sync)</text>
</g>
<!-- SERVICE:orders&#45;&gt;DATABASE:shared&#45;db -->
<g id="edge2" class="edge">
<title>SERVICE:orders&#45;&gt;DATABASE:shared&#45;db</title>
<g id="a_edge2"><a xlink:title="edge#1">
<path fill="none" stroke="black" d="M473,-40.49C508.27,-29.42 571.11,-11.43 626.5,-4.66 678.45,1.68 692.26,1.29 744.25,-4.66 793.27,-10.28 847.94,-23.65 886.67,-34.36"/>
<polygon fill="black" stroke="black" points="885.62,-37.7 896.19,-37.04 887.51,-30.97 885.62,-37.7"/>
</a>
</g>
<text text-anchor="middle" x="685.38" y="-9.36" font-family="Times,serif" font-size="14.00">CALLS [rest] (sync)</text>
</g>
<!-- SERVICE:inventory&#45;&gt;DATABASE:shared&#45;db -->
<g id="edge3" class="edge">
<title>SERVICE:inventory&#45;&gt;DATABASE:shared&#45;db</title>
<g id="a_edge3"><a xlink:title="edge#2">
<path fill="none" stroke="black" d="M723.77,-49.66C766.9,-49.66 838.06,-49.66 886.43,-49.66"/>
<polygon fill="black" stroke="black" points="886.38,-53.16 896.38,-49.66 886.38,-46.16 886.38,-53.16"/>
</a>
</g>
<text text-anchor="middle" x="821.12" y="-54.36" font-family="Times,serif" font-size="14.00">CALLS [rest] (sync)</text>
</g>
<!-- SERVICE:bff&#45;&gt;SERVICE:auth -->
<g id="edge6" class="edge">
<title>SERVICE:bff&#45;&gt;SERVICE:auth</title>
<g id="a_edge6"><a xlink:title="edge#5">
<path fill="none" stroke="black" d="M262.16,-76.94C317.77,-81.74 447.11,-92.9 511.22,-98.44"/>
<polygon fill="black" stroke="black" points="510.63,-101.9 520.89,-99.27 511.23,-94.92 510.63,-101.9"/>
</a>
</g>
<text text-anchor="middle" x="338.62" y="-92.36" font-family="Times,serif" font-size="14.00">CALLS [rest] (sync)</text>
</g>
<!-- SERVICE:bff&#45;&gt;SERVICE:orders -->
<g id="edge7" class="edge">
<title>SERVICE:bff&#45;&gt;SERVICE:orders</title>
<g id="a_edge7"><a xlink:title="edge#6">
<path fill="none" stroke="black" d="M261.86,-63.01C267.64,-60.87 273.82,-58.92 279.75,-57.66 321.5,-48.82 370.53,-47.6 403.91,-48.1"/>
<polygon fill="black" stroke="black" points="403.44,-51.59 413.51,-48.31 403.59,-44.6 403.44,-51.59"/>
</a>
</g>
<text text-anchor="middle" x="338.62" y="-62.36" font-family="Times,serif" font-size="14.00">CALLS [rest] (sync)</text>
</g>
</g>
</svg>
