<?xml version="1.0" encoding="UTF-8" standalone="no"?>
<!DOCTYPE svg PUBLIC "-//W3C//DTD SVG 1.1//EN"
 "http://www.w3.org/Graphics/SVG/1.1/DTD/svg11.dtd">
<!-- Generated by graphviz version 9.0.0 (20230911.1827)
 -->
<!-- Title: G Pages: 1 -->
<svg width="2146pt" height="335pt"
 viewBox="0.00 0.00 2145.75 335.00" xmlns="http://www.w3.org/2000/svg" xmlns:xlink="http://www.w3.org/1999/xlink">
<g id="graph0" class="graph" transform="scale(1 1) rotate(0) translate(4 331)">
<title>G</title>
<polygon fill="white" stroke="none" points="-4,4 -4,-331 2141.75,-331 2141.75,4 -4,4"/>
<text text-anchor="middle" x="1068.88" y="-309.7" font-family="Helvetica,sans-Serif" font-size="14.00">Architecture</text>
<!-- SERVICE:orders_split&#45;1 -->
<g id="node1" class="node">
<title>SERVICE:orders_split&#45;1</title>
<path fill="#eef6ff" stroke="black" d="M1618.5,-218C1618.5,-218 1538.75,-218 1538.75,-218 1532.75,-218 1526.75,-212 1526.75,-206 1526.75,-206 1526.75,-194 1526.75,-194 1526.75,-188 1532.75,-182 1538.75,-182 1538.75,-182 1618.5,-182 1618.5,-182 1624.5,-182 1630.5,-188 1630.5,-194 1630.5,-194 1630.5,-206 1630.5,-206 1630.5,-212 1624.5,-218 1618.5,-218"/>
<text text-anchor="middle" x="1578.62" y="-195.7" font-family="Times,serif" font-size="14.00">orders_split&#45;1</text>
</g>
<!-- SERVICE:orders_split -->
<g id="node16" class="node">
<title>SERVICE:orders_split</title>
<path fill="#eef6ff" stroke="black" d="M1877,-223C1877,-223 1809.25,-223 1809.25,-223 1803.25,-223 1797.25,-217 1797.25,-211 1797.25,-211 1797.25,-199 1797.25,-199 1797.25,-193 1803.25,-187 1809.25,-187 1809.25,-187 1877,-187 1877,-187 1883,-187 1889,-193 1889,-199 1889,-199 1889,-211 1889,-211 1889,-217 1883,-223 1877,-223"/>
<text text-anchor="middle" x="1843.12" y="-200.7" font-family="Times,serif" font-size="14.00">orders_split</text>
</g>
<!-- SERVICE:orders_split&#45;1&#45;&gt;SERVICE:orders_split -->
<g id="edge10" class="edge">
<title>SERVICE:orders_split&#45;1&#45;&gt;SERVICE:orders_split</title>
<g id="a_edge10"><a xlink:title="edge#9">
<path fill="none" stroke="black" d="M1630.86,-200.98C1675.43,-201.82 1739.89,-203.05 1785.88,-203.93"/>
<polygon fill="black" stroke="black" points="1785.57,-207.42 1795.63,-204.11 1785.7,-200.42 1785.57,-207.42"/>
</a>
</g>
<text text-anchor="middle" x="1707.38" y="-207.7" font-family="Times,serif" font-size="14.00">CALLS [rest] (sync)</text>
</g>
<!-- SERVICE:catalog -->
<g id="node2" class="node">
<title>SERVICE:catalog</title>
<path fill="#eef6ff" stroke="black" d="M1598.25,-77C1598.25,-77 1559,-77 1559,-77 1553,-77 1547,-71 1547,-65 1547,-65 1547,-53 1547,-53 1547,-47 1553,-41 1559,-41 1559,-41 1598.25,-41 1598.25,-41 1604.25,-41 1610.25,-47 1610.25,-53 1610.25,-53 1610.25,-65 1610.25,-65 1610.25,-71 1604.25,-77 1598.25,-77"/>
<text text-anchor="middle" x="1578.62" y="-54.7" font-family="Times,serif" font-size="14.00">catalog</text>
</g>
<!-- DATABASE:shared&#45;db -->
<g id="node11" class="node">
<title>DATABASE:shared&#45;db</title>
<path fill="#fff3cd" stroke="black" d="M2137.75,-142.73C2137.75,-144.53 2119.37,-146 2096.75,-146 2074.13,-146 2055.75,-144.53 2055.75,-142.73 2055.75,-142.73 2055.75,-113.27 2055.75,-113.27 2055.75,-111.47 2074.13,-110 2096.75,-110 2119.37,-110 2137.75,-111.47 2137.75,-113.27 2137.75,-113.27 2137.75,-142.73 2137.75,-142.73"/>
<path fill="none" stroke="black" d="M2137.75,-142.73C2137.75,-140.92 2119.37,-139.45 2096.75,-139.45 2074.13,-139.45 2055.75,-140.92 2055.75,-142.73"/>
<text text-anchor="middle" x="2096.75" y="-123.7" font-family="Times,serif" font-size="14.00">shared&#45;db</text>
</g>
<!-- SERVICE:catalog&#45;&gt;DATABASE:shared&#45;db -->
<g id="edge6" class="edge">
<title>SERVICE:catalog&#45;&gt;DATABASE:shared&#45;db</title>
<g id="a_edge6"><a xlink:title="edge#5">
<path fill="none" stroke="black" d="M1610.57,-55.44C1686.23,-47.94 1885.52,-35.46 2037.75,-91 2046.35,-94.14 2055,-98.71 2062.9,-103.58"/>
<polygon fill="black" stroke="black" points="2060.89,-106.45 2071.17,-109 2064.72,-100.59 2060.89,-106.45"/>
</a>
</g>
<text text-anchor="middle" x="1843.12" y="-61.7" font-family="Times,serif" font-size="14.00">CALLS [rest] (sync)</text>
</g>
<!-- SERVICE:cart -->
<g id="node3" class="node">
<title>SERVICE:cart</title>
<path fill="#eef6ff" stroke="black" d="M1329.12,-117C1329.12,-117 1299.12,-117 1299.12,-117 1293.12,-117 1287.12,-111 1287.12,-105 1287.12,-105 1287.12,-93 1287.12,-93 1287.12,-87 1293.12,-81 1299.12,-81 1299.12,-81 1329.12,-81 1329.12,-81 1335.12,-81 1341.12,-87 1341.12,-93 1341.12,-93 1341.12,-105 1341.12,-105 1341.12,-111 1335.12,-117 1329.12,-117"/>
<text text-anchor="middle" x="1314.12" y="-94.7" font-family="Times,serif" font-size="14.00">cart</text>
</g>
<!-- SERVICE:cart&#45;&gt;SERVICE:catalog -->
<g id="edge3" class="edge">
<title>SERVICE:cart&#45;&gt;SERVICE:catalog</title>
<g id="a_edge3"><a xlink:title="edge#2">
<path fill="none" stroke="black" d="M1341.35,-88.16C1355.76,-82.68 1374.09,-76.47 1391,-73 1439.89,-62.96 1497.3,-59.93 1535.41,-59.11"/>
<polygon fill="black" stroke="black" points="1535.13,-62.62 1545.07,-58.95 1535.01,-55.62 1535.13,-62.62"/>
</a>
</g>
<text text-anchor="middle" x="1449.88" y="-77.7" font-family="Times,serif" font-size="14.00">CALLS [rest] (sync)</text>
</g>
<!-- SERVICE:cart&#45;&gt;DATABASE:shared&#45;db -->
<g id="edge7" class="edge">
<title>SERVICE:cart&#45;&gt;DATABASE:shared&#45;db</title>
<g id="a_edge7"><a xlink:title="edge#6">
<path fill="none" stroke="black" d="M1341.58,-99.15C1411.15,-99.63 1605.01,-101.5 1766.25,-108 1864.7,-111.97 1979.53,-119.63 2044.33,-124.23"/>
<polygon fill="black" stroke="black" points="2043.72,-127.69 2053.94,-124.92 2044.22,-120.71 2043.72,-127.69"/>
</a>
</g>
<text text-anchor="middle" x="1707.38" y="-112.7" font-family="Times,serif" font-size="14.00">CALLS [rest] (sync)</text>
</g>
<!-- SERVICE:bff -->
<g id="node4" class="node">
<title>SERVICE:bff</title>
<path fill="#eef6ff" stroke="black" d="M772.88,-104C772.88,-104 742.88,-104 742.88,-104 736.88,-104 730.88,-98 730.88,-92 730.88,-92 730.88,-80 730.88,-80 730.88,-74 736.88,-68 742.88,-68 742.88,-68 772.88,-68 772.88,-68 778.88,-68 784.88,-74 784.88,-80 784.88,-80 784.88,-92 784.88,-92 784.88,-98 778.88,-104 772.88,-104"/>
<text text-anchor="middle" x="757.88" y="-81.7" font-family="Times,serif" font-size="14.00">bff</text>
</g>
<!-- SERVICE:payments -->
<g id="node9" class="node">
<title>SERVICE:payments</title>
<path fill="#eef6ff" stroke="black" d="M1062.62,-211C1062.62,-211 1007.62,-211 1007.62,-211 1001.62,-211 995.62,-205 995.62,-199 995.62,-199 995.62,-187 995.62,-187 995.62,-181 1001.62,-175 1007.62,-175 1007.62,-175 1062.62,-175 1062.62,-175 1068.62,-175 1074.62,-181 1074.62,-187 1074.62,-187 1074.62,-199 1074.62,-199 1074.62,-205 1068.62,-211 1062.62,-211"/>
<text text-anchor="middle" x="1035.12" y="-188.7" font-family="Times,serif" font-size="14.00">payments</text>
</g>
<!-- SERVICE:bff&#45;&gt;SERVICE:payments -->
<g id="edge11" class="edge">
<title>SERVICE:bff&#45;&gt;SERVICE:payments</title>
<g id="a_edge11"><a xlink:title="edge#10">
<path fill="none" stroke="black" d="M785.07,-89.2C824.83,-94.98 901.78,-109.77 958.25,-143 968,-148.74 967.21,-154.2 976.25,-161 979.76,-163.64 983.52,-166.21 987.37,-168.67"/>
<polygon fill="black" stroke="black" points="985.37,-171.55 995.74,-173.74 989,-165.57 985.37,-171.55"/>
</a>
</g>
<text text-anchor="middle" x="899.38" y="-147.7" font-family="Times,serif" font-size="14.00">CALLS [rest] (sync)</text>
</g>
<!-- SERVICE:bff_split -->
<g id="node13" class="node">
<title>SERVICE:bff_split</title>
<path fill="#eef6ff" stroke="black" d="M1057,-90C1057,-90 1013.25,-90 1013.25,-90 1007.25,-90 1001.25,-84 1001.25,-78 1001.25,-78 1001.25,-66 1001.25,-66 1001.25,-60 1007.25,-54 1013.25,-54 1013.25,-54 1057,-54 1057,-54 1063,-54 1069,-60 1069,-66 1069,-66 1069,-78 1069,-78 1069,-84 1063,-90 1057,-90"/>
<text text-anchor="middle" x="1035.12" y="-67.7" font-family="Times,serif" font-size="14.00">bff_split</text>
</g>
<!-- SERVICE:bff&#45;&gt;SERVICE:bff_split -->
<g id="edge17" class="edge">
<title>SERVICE:bff&#45;&gt;SERVICE:bff_split</title>
<g id="a_edge17"><a xlink:title="edge#16">
<path fill="none" stroke="black" d="M785.05,-77.89C800.91,-73.4 821.67,-68.27 840.5,-66 891.29,-59.87 950.09,-63.14 989.45,-66.81"/>
<polygon fill="black" stroke="black" points="988.95,-70.28 999.25,-67.78 989.64,-63.31 988.95,-70.28"/>
</a>
</g>
<text text-anchor="middle" x="899.38" y="-70.7" font-family="Times,serif" font-size="14.00">CALLS [rest] (sync)</text>
</g>
<!-- SERVICE:auth -->
<g id="node15" class="node">
<title>SERVICE:auth</title>
<path fill="#eef6ff" stroke="black" d="M1050.12,-36C1050.12,-36 1020.12,-36 1020.12,-36 1014.12,-36 1008.12,-30 1008.12,-24 1008.12,-24 1008.12,-12 1008.12,-12 1008.12,-6 1014.12,0 1020.12,0 1020.12,0 1050.12,0 1050.12,0 1056.12,0 1062.12,-6 1062.12,-12 1062.12,-12 1062.12,-24 1062.12,-24 1062.12,-30 1056.12,-36 1050.12,-36"/>
<text text-anchor="middle" x="1035.12" y="-13.7" font-family="Times,serif" font-size="14.00">auth</text>
</g>
<!-- SERVICE:bff&#45;&gt;SERVICE:auth -->
<g id="edge12" class="edge">
<title>SERVICE:bff&#45;&gt;SERVICE:auth</title>
<g id="a_edge12"><a xlink:title="edge#11">
<path fill="none" stroke="black" d="M785.19,-67.58C800.6,-57.73 820.85,-46.36 840.5,-40 892.82,-23.06 956.78,-18.76 996.49,-17.88"/>
<polygon fill="black" stroke="black" points="996.29,-21.39 1006.23,-17.73 996.18,-14.39 996.29,-21.39"/>
</a>
</g>
<text text-anchor="middle" x="899.38" y="-44.7" font-family="Times,serif" font-size="14.00">CALLS [rest] (sync)</text>
</g>
<!-- SERVICE:web&#45;ui_split_split -->
<g id="node5" class="node">
<title>SERVICE:web&#45;ui_split_split</title>
<path fill="#eef6ff" stroke="black" d="M810.5,-184C810.5,-184 705.25,-184 705.25,-184 699.25,-184 693.25,-178 693.25,-172 693.25,-172 693.25,-160 693.25,-160 693.25,-154 699.25,-148 705.25,-148 705.25,-148 810.5,-148 810.5,-148 816.5,-148 822.5,-154 822.5,-160 822.5,-160 822.5,-172 822.5,-172 822.5,-178 816.5,-184 810.5,-184"/>
<text text-anchor="middle" x="757.88" y="-161.7" font-family="Times,serif" font-size="14.00">web&#45;ui_split_split</text>
</g>
<!-- SERVICE:orders -->
<g id="node8" class="node">
<title>SERVICE:orders</title>
<path fill="#eef6ff" stroke="black" d="M1330.75,-202C1330.75,-202 1297.5,-202 1297.5,-202 1291.5,-202 1285.5,-196 1285.5,-190 1285.5,-190 1285.5,-178 1285.5,-178 1285.5,-172 1291.5,-166 1297.5,-166 1297.5,-166 1330.75,-166 1330.75,-166 1336.75,-166 1342.75,-172 1342.75,-178 1342.75,-178 1342.75,-190 1342.75,-190 1342.75,-196 1336.75,-202 1330.75,-202"/>
<text text-anchor="middle" x="1314.12" y="-179.7" font-family="Times,serif" font-size="14.00">orders</text>
</g>
<!-- SERVICE:web&#45;ui_split_split&#45;&gt;SERVICE:orders -->
<g id="edge1" class="edge">
<title>SERVICE:web&#45;ui_split_split&#45;&gt;SERVICE:orders</title>
<g id="a_edge1"><a xlink:title="edge#0">
<path fill="none" stroke="black" d="M822.83,-151.96C890.98,-139.44 1001.57,-126.18 1094,-148 1102.71,-150.05 1103.45,-154.37 1112,-157 1166.55,-173.79 1232.61,-180.14 1273.76,-182.54"/>
<polygon fill="black" stroke="black" points="1273.5,-186.03 1283.67,-183.07 1273.87,-179.04 1273.5,-186.03"/>
</a>
</g>
<text text-anchor="middle" x="1035.12" y="-152.7" font-family="Times,serif" font-size="14.00">CALLS [rest] (sync)</text>
</g>
<!-- SERVICE:web&#45;ui_split_split&#45;&gt;SERVICE:payments -->
<g id="edge2" class="edge">
<title>SERVICE:web&#45;ui_split_split&#45;&gt;SERVICE:payments</title>
<g id="a_edge2"><a xlink:title="edge#1">
<path fill="none" stroke="black" d="M822.93,-165.24C862.18,-165.6 913.33,-167.54 958.25,-174 966.75,-175.22 975.69,-177 984.32,-178.99"/>
<polygon fill="black" stroke="black" points="983.43,-182.37 993.97,-181.33 985.08,-175.57 983.43,-182.37"/>
</a>
</g>
<text text-anchor="middle" x="899.38" y="-178.7" font-family="Times,serif" font-size="14.00">CALLS [rest] (sync)</text>
</g>
<!-- SERVICE:bff&#45;2 -->
<g id="node6" class="node">
<title>SERVICE:bff&#45;2</title>
<path fill="#eef6ff" stroke="black" d="M772.88,-238C772.88,-238 742.88,-238 742.88,-238 736.88,-238 730.88,-232 730.88,-226 730.88,-226 730.88,-214 730.88,-214 730.88,-208 736.88,-202 742.88,-202 742.88,-202 772.88,-202 772.88,-202 778.88,-202 784.88,-208 784.88,-214 784.88,-214 784.88,-226 784.88,-226 784.88,-232 778.88,-238 772.88,-238"/>
<text text-anchor="middle" x="757.88" y="-215.7" font-family="Times,serif" font-size="14.00">bff&#45;2</text>
</g>
<!-- SERVICE:bff&#45;2&#45;&gt;SERVICE:cart -->
<g id="edge24" class="edge">
<title>SERVICE:bff&#45;2&#45;&gt;SERVICE:cart</title>
<g id="a_edge24"><a xlink:title="edge#23">
<path fill="none" stroke="black" d="M785.22,-225.28C801.15,-228.2 821.9,-231.53 840.5,-233 896.73,-237.45 1047.83,-252.4 1094,-220 1109.3,-209.26 1098.38,-194.79 1112,-182 1155.69,-140.96 1181.93,-155.07 1237.25,-132 1250.07,-126.66 1264.03,-120.64 1276.43,-115.23"/>
<polygon fill="black" stroke="black" points="1277.73,-118.48 1285.49,-111.26 1274.92,-112.07 1277.73,-118.48"/>
</a>
</g>
<text text-anchor="middle" x="1035.12" y="-244.7" font-family="Times,serif" font-size="14.00">CALLS [rest] (sync)</text>
</g>
<!-- SERVICE:bff&#45;2&#45;&gt;SERVICE:orders -->
<g id="edge25" class="edge">
<title>SERVICE:bff&#45;2&#45;&gt;SERVICE:orders</title>
<g id="a_edge25"><a xlink:title="edge#24">
<path fill="none" stroke="black" d="M785.35,-236.76C800.81,-245.65 821.05,-255.78 840.5,-261 949.37,-290.22 983.2,-289.74 1094,-269 1160.18,-256.61 1232.09,-224.88 1274.84,-203.88"/>
<polygon fill="black" stroke="black" points="1276.32,-207.06 1283.71,-199.47 1273.2,-200.79 1276.32,-207.06"/>
</a>
</g>
<text text-anchor="middle" x="1035.12" y="-287.7" font-family="Times,serif" font-size="14.00">CALLS [rest] (sync)</text>
</g>
<!-- SERVICE:bff&#45;2&#45;&gt;SERVICE:payments -->
<g id="edge23" class="edge">
<title>SERVICE:bff&#45;2&#45;&gt;SERVICE:payments</title>
<g id="a_edge23"><a xlink:title="edge#22">
<path fill="none" stroke="black" d="M785.27,-217.41C831.06,-212.92 925.92,-203.61 984.39,-197.88"/>
<polygon fill="black" stroke="black" points="984.46,-201.39 994.07,-196.93 983.77,-194.42 984.46,-201.39"/>
</a>
</g>
<text text-anchor="middle" x="899.38" y="-215.7" font-family="Times,serif" font-size="14.00">CALLS [rest] (sync)</text>
</g>
<!-- SERVICE:web&#45;ui -->
<g id="node7" class="node">
<title>SERVICE:web&#45;ui</title>
<path fill="#eef6ff" stroke="black" d="M48.25,-146C48.25,-146 12,-146 12,-146 6,-146 0,-140 0,-134 0,-134 0,-122 0,-122 0,-116 6,-110 12,-110 12,-110 48.25,-110 48.25,-110 54.25,-110 60.25,-116 60.25,-122 60.25,-122 60.25,-134 60.25,-134 60.25,-140 54.25,-146 48.25,-146"/>
<text text-anchor="middle" x="30.12" y="-123.7" font-family="Times,serif" font-size="14.00">web&#45;ui</text>
</g>
<!-- SERVICE:bff&#45;1 -->
<g id="node14" class="node">
<title>SERVICE:bff&#45;1</title>
<path fill="#eef6ff" stroke="black" d="M256,-146C256,-146 226,-146 226,-146 220,-146 214,-140 214,-134 214,-134 214,-122 214,-122 214,-116 220,-110 226,-110 226,-110 256,-110 256,-110 262,-110 268,-116 268,-122 268,-122 268,-134 268,-134 268,-140 262,-146 256,-146"/>
<text text-anchor="middle" x="241" y="-123.7" font-family="Times,serif" font-size="14.00">bff&#45;1</text>
</g>
<!-- SERVICE:web&#45;ui&#45;&gt;SERVICE:bff&#45;1 -->
<g id="edge19" class="edge">
<title>SERVICE:web&#45;ui&#45;&gt;SERVICE:bff&#45;1</title>
<g id="a_edge19"><a xlink:title="edge#18">
<path fill="none" stroke="black" d="M60.61,-128C97.76,-128 161.66,-128 202.32,-128"/>
<polygon fill="black" stroke="black" points="202.12,-131.5 212.12,-128 202.12,-124.5 202.12,-131.5"/>
</a>
</g>
<text text-anchor="middle" x="137.12" y="-132.7" font-family="Times,serif" font-size="14.00">CALLS [rest] (sync)</text>
</g>
<!-- SERVICE:orders&#45;&gt;SERVICE:orders_split&#45;1 -->
<g id="edge16" class="edge">
<title>SERVICE:orders&#45;&gt;SERVICE:orders_split&#45;1</title>
<g id="a_edge16"><a xlink:title="edge#15">
<path fill="none" stroke="black" d="M1343.22,-185.71C1383.96,-188.2 1460.55,-192.86 1515.09,-196.19"/>
<polygon fill="black" stroke="black" points="1514.66,-199.67 1524.86,-196.78 1515.09,-192.68 1514.66,-199.67"/>
</a>
</g>
<text text-anchor="middle" x="1449.88" y="-199.7" font-family="Times,serif" font-size="14.00">CALLS [rest] (sync)</text>
</g>
<!-- SERVICE:inventory -->
<g id="node10" class="node">
<title>SERVICE:inventory</title>
<path fill="#eef6ff" stroke="black" d="M1733.38,-171C1733.38,-171 1681.38,-171 1681.38,-171 1675.38,-171 1669.38,-165 1669.38,-159 1669.38,-159 1669.38,-147 1669.38,-147 1669.38,-141 1675.38,-135 1681.38,-135 1681.38,-135 1733.38,-135 1733.38,-135 1739.38,-135 1745.38,-141 1745.38,-147 1745.38,-147 1745.38,-159 1745.38,-159 1745.38,-165 1739.38,-171 1733.38,-171"/>
<text text-anchor="middle" x="1707.38" y="-148.7" font-family="Times,serif" font-size="14.00">inventory</text>
</g>
<!-- SERVICE:orders&#45;&gt;SERVICE:inventory -->
<g id="edge4" class="edge">
<title>SERVICE:orders&#45;&gt;SERVICE:inventory</title>
<g id="a_edge4"><a xlink:title="edge#3">
<path fill="none" stroke="black" d="M1342.99,-176.04C1357.23,-172.31 1374.91,-168.22 1391,-166 1484.84,-153.06 1595.74,-151.67 1657.88,-152.13"/>
<polygon fill="black" stroke="black" points="1657.72,-155.63 1667.76,-152.22 1657.79,-148.63 1657.72,-155.63"/>
</a>
</g>
<text text-anchor="middle" x="1449.88" y="-170.7" font-family="Times,serif" font-size="14.00">CALLS [rest] (sync)</text>
</g>
<!-- SERVICE:payments&#45;&gt;SERVICE:orders -->
<g id="edge5" class="edge">
<title>SERVICE:payments&#45;&gt;SERVICE:orders</title>
<g id="a_edge5"><a xlink:title="edge#4">
<path fill="none" stroke="black" d="M1074.93,-191.74C1127.53,-190.03 1220.95,-186.99 1273.81,-185.28"/>
<polygon fill="black" stroke="black" points="1273.68,-188.78 1283.56,-184.96 1273.45,-181.79 1273.68,-188.78"/>
</a>
</g>
<text text-anchor="middle" x="1174.62" y="-194.7" font-family="Times,serif" font-size="14.00">CALLS [rest] (async)</text>
</g>
<!-- SERVICE:inventory&#45;&gt;DATABASE:shared&#45;db -->
<g id="edge9" class="edge">
<title>SERVICE:inventory&#45;&gt;DATABASE:shared&#45;db</title>
<g id="a_edge9"><a xlink:title="edge#8">
<path fill="none" stroke="black" d="M1745.87,-150.58C1815.55,-146.08 1965.07,-136.43 2044.2,-131.33"/>
<polygon fill="black" stroke="black" points="2044.08,-134.84 2053.83,-130.71 2043.63,-127.86 2044.08,-134.84"/>
</a>
</g>
<text text-anchor="middle" x="1843.12" y="-152.7" font-family="Times,serif" font-size="14.00">CALLS [rest] (sync)</text>
</g>
<!-- SERVICE:web&#45;ui_split -->
<g id="node12" class="node">
<title>SERVICE:web&#45;ui_split</title>
<path fill="#eef6ff" stroke="black" d="M516,-184C516,-184 445.25,-184 445.25,-184 439.25,-184 433.25,-178 433.25,-172 433.25,-172 433.25,-160 433.25,-160 433.25,-154 439.25,-148 445.25,-148 445.25,-148 516,-148 516,-148 522,-148 528,-154 528,-160 528,-160 528,-172 528,-172 528,-178 522,-184 516,-184"/>
<text text-anchor="middle" x="480.62" y="-161.7" font-family="Times,serif" font-size="14.00">web&#45;ui_split</text>
</g>
<!-- SERVICE:web&#45;ui_split&#45;&gt;SERVICE:web&#45;ui_split_split -->
<g id="edge18" class="edge">
<title>SERVICE:web&#45;ui_split&#45;&gt;SERVICE:web&#45;ui_split_split</title>
<g id="a_edge18"><a xlink:title="edge#17">
<path fill="none" stroke="black" d="M528.32,-166C570.21,-166 632.44,-166 681.39,-166"/>
<polygon fill="black" stroke="black" points="681.38,-169.5 691.38,-166 681.38,-162.5 681.38,-169.5"/>
</a>
</g>
<text text-anchor="middle" x="616.38" y="-170.7" font-family="Times,serif" font-size="14.00">CALLS [rest] (sync)</text>
</g>
<!-- SERVICE:web&#45;ui_split&#45;&gt;SERVICE:bff&#45;2 -->
<g id="edge22" class="edge">
<title>SERVICE:web&#45;ui_split&#45;&gt;SERVICE:bff&#45;2</title>
<g id="a_edge22"><a xlink:title="edge#21">
<path fill="none" stroke="black" d="M528.34,-180.52C537.93,-183.23 548,-185.87 557.5,-188 613.26,-200.51 678.86,-210.06 719.15,-215.35"/>
<polygon fill="black" stroke="black" points="718.69,-218.82 729.05,-216.63 719.58,-211.88 718.69,-218.82"/>
</a>
</g>
<text text-anchor="middle" x="616.38" y="-212.7" font-family="Times,serif" font-size="14.00">CALLS [rest] (sync)</text>
</g>
<!-- SERVICE:bff_split&#45;&gt;SERVICE:catalog -->
<g id="edge13" class="edge">
<title>SERVICE:bff_split&#45;&gt;SERVICE:catalog</title>
<g id="a_edge13"><a xlink:title="edge#12">
<path fill="none" stroke="black" d="M1069.3,-67.08C1082.56,-65.25 1097.98,-63.31 1112,-62 1267.54,-47.43 1453.58,-53.15 1535.44,-56.83"/>
<polygon fill="black" stroke="black" points="1535.09,-60.31 1545.24,-57.28 1535.41,-53.32 1535.09,-60.31"/>
</a>
</g>
<text text-anchor="middle" x="1314.12" y="-57.7" font-family="Times,serif" font-size="14.00">CALLS [rest] (sync)</text>
</g>
<!-- SERVICE:bff_split&#45;&gt;SERVICE:cart -->
<g id="edge14" class="edge">
<title>SERVICE:bff_split&#45;&gt;SERVICE:cart</title>
<g id="a_edge14"><a xlink:title="edge#13">
<path fill="none" stroke="black" d="M1069.15,-68.91C1109.23,-65.91 1178.72,-63.1 1237.25,-73 1250.18,-75.19 1263.86,-79.28 1276,-83.59"/>
<polygon fill="black" stroke="black" points="1274.63,-86.81 1285.22,-87.02 1277.07,-80.25 1274.63,-86.81"/>
</a>
</g>
<text text-anchor="middle" x="1174.62" y="-77.7" font-family="Times,serif" font-size="14.00">CALLS [rest] (sync)</text>
</g>
<!-- SERVICE:bff_split&#45;&gt;SERVICE:orders -->
<g id="edge15" class="edge">
<title>SERVICE:bff_split&#45;&gt;SERVICE:orders</title>
<g id="a_edge15"><a xlink:title="edge#14">
<path fill="none" stroke="black" d="M1069.34,-80.7C1109.91,-91.87 1180.17,-112.93 1237.25,-139 1250.2,-144.92 1263.75,-152.47 1275.76,-159.69"/>
<polygon fill="black" stroke="black" points="1273.79,-162.59 1284.15,-164.84 1277.46,-156.63 1273.79,-162.59"/>
</a>
</g>
<text text-anchor="middle" x="1174.62" y="-143.7" font-family="Times,serif" font-size="14.00">CALLS [rest] (sync)</text>
</g>
<!-- SERVICE:bff&#45;1&#45;&gt;SERVICE:bff -->
<g id="edge20" class="edge">
<title>SERVICE:bff&#45;1&#45;&gt;SERVICE:bff</title>
<g id="a_edge20"><a xlink:title="edge#19">
<path fill="none" stroke="black" d="M268.24,-125.86C353.01,-118.94 619.79,-97.18 719.12,-89.08"/>
<polygon fill="black" stroke="black" points="719.19,-92.59 728.87,-88.28 718.62,-85.61 719.19,-92.59"/>
</a>
</g>
<text text-anchor="middle" x="480.62" y="-117.7" font-family="Times,serif" font-size="14.00">CALLS [rest] (sync)</text>
</g>
<!-- SERVICE:bff&#45;1&#45;&gt;SERVICE:web&#45;ui_split -->
<g id="edge21" class="edge">
<title>SERVICE:bff&#45;1&#45;&gt;SERVICE:web&#45;ui_split</title>
<g id="a_edge21"><a xlink:title="edge#20">
<path fill="none" stroke="black" d="M268.34,-132.21C305.14,-138.1 372.93,-148.94 421.81,-156.76"/>
<polygon fill="black" stroke="black" points="421.26,-160.21 431.69,-158.33 422.36,-153.3 421.26,-160.21"/>
</a>
</g>
<text text-anchor="middle" x="344.88" y="-157.7" font-family="Times,serif" font-size="14.00">CALLS [rest] (sync)</text>
</g>
<!-- SERVICE:orders_split&#45;&gt;DATABASE:shared&#45;db -->
<g id="edge8" class="edge">
<title>SERVICE:orders_split&#45;&gt;DATABASE:shared&#45;db</title>
<g id="a_edge8"><a xlink:title="edge#7">
<path fill="none" stroke="black" d="M1889.3,-200.38C1929.43,-195.19 1989.09,-184.76 2037.75,-165 2046.08,-161.62 2054.52,-157.03 2062.29,-152.23"/>
<polygon fill="black" stroke="black" points="2063.95,-155.32 2070.44,-146.95 2060.15,-149.45 2063.95,-155.32"/>
</a>
</g>
<text text-anchor="middle" x="1978.88" y="-199.7" font-family="Times,serif" font-size="14.00">CALLS [rest] (sync)</text>
</g>
</g>
</svg>
