<?xml version="1.0" encoding="UTF-8" standalone="no"?>
<!DOCTYPE svg PUBLIC "-//W3C//DTD SVG 1.1//EN"
 "http://www.w3.org/Graphics/SVG/1.1/DTD/svg11.dtd">
<!-- Generated by graphviz version 9.0.0 (20230911.1827)
 -->
<!-- Title: G Pages: 1 -->
<svg width="3322pt" height="303pt"
 viewBox="0.00 0.00 3322.00 303.00" xmlns="http://www.w3.org/2000/svg" xmlns:xlink="http://www.w3.org/1999/xlink">
<g id="graph0" class="graph" transform="scale(1 1) rotate(0) translate(4 299)">
<title>G</title>
<polygon fill="white" stroke="none" points="-4,4 -4,-299 3318,-299 3318,4 -4,4"/>
<text text-anchor="middle" x="1657" y="-277.7" font-family="Helvetica,sans-Serif" font-size="14.00">Architecture</text>
<!-- SERVICE:web&#45;ui -->
<g id="node1" class="node">
<title>SERVICE:web&#45;ui</title>
<path fill="#eef6ff" stroke="black" d="M48.25,-188C48.25,-188 12,-188 12,-188 6,-188 0,-182 0,-176 0,-176 0,-164 0,-164 0,-158 6,-152 12,-152 12,-152 48.25,-152 48.25,-152 54.25,-152 60.25,-158 60.25,-164 60.25,-164 60.25,-176 60.25,-176 60.25,-182 54.25,-188 48.25,-188"/>
<text text-anchor="middle" x="30.12" y="-165.7" font-family="Times,serif" font-size="14.00">web&#45;ui</text>
</g>
<!-- SERVICE:bff&#45;1 -->
<g id="node6" class="node">
<title>SERVICE:bff&#45;1</title>
<path fill="#eef6ff" stroke="black" d="M256,-188C256,-188 226,-188 226,-188 220,-188 214,-182 214,-176 214,-176 214,-164 214,-164 214,-158 220,-152 226,-152 226,-152 256,-152 256,-152 262,-152 268,-158 268,-164 268,-164 268,-176 268,-176 268,-182 262,-188 256,-188"/>
<text text-anchor="middle" x="241" y="-165.7" font-family="Times,serif" font-size="14.00">bff&#45;1</text>
</g>
<!-- SERVICE:web&#45;ui&#45;&gt;SERVICE:bff&#45;1 -->
<g id="edge16" class="edge">
<title>SERVICE:web&#45;ui&#45;&gt;SERVICE:bff&#45;1</title>
<g id="a_edge16"><a xlink:title="edge#15">
<path fill="none" stroke="black" d="M60.61,-170C97.76,-170 161.66,-170 202.32,-170"/>
<polygon fill="black" stroke="black" points="202.12,-173.5 212.12,-170 202.12,-166.5 202.12,-173.5"/>
</a>
</g>
<text text-anchor="middle" x="137.12" y="-174.7" font-family="Times,serif" font-size="14.00">CALLS [rest] (sync)</text>
</g>
<!-- SERVICE:orders_split&#45;3 -->
<g id="node2" class="node">
<title>SERVICE:orders_split&#45;3</title>
<path fill="#eef6ff" stroke="black" d="M2291.75,-110C2291.75,-110 2210.5,-110 2210.5,-110 2204.5,-110 2198.5,-104 2198.5,-98 2198.5,-98 2198.5,-86 2198.5,-86 2198.5,-80 2204.5,-74 2210.5,-74 2210.5,-74 2291.75,-74 2291.75,-74 2297.75,-74 2303.75,-80 2303.75,-86 2303.75,-86 2303.75,-98 2303.75,-98 2303.75,-104 2297.75,-110 2291.75,-110"/>
<text text-anchor="middle" x="2251.12" y="-87.7" font-family="Times,serif" font-size="14.00">orders_split&#45;3</text>
</g>
<!-- SERVICE:orders_split&#45;2 -->
<g id="node10" class="node">
<title>SERVICE:orders_split&#45;2</title>
<path fill="#eef6ff" stroke="black" d="M2557,-110C2557,-110 2475.75,-110 2475.75,-110 2469.75,-110 2463.75,-104 2463.75,-98 2463.75,-98 2463.75,-86 2463.75,-86 2463.75,-80 2469.75,-74 2475.75,-74 2475.75,-74 2557,-74 2557,-74 2563,-74 2569,-80 2569,-86 2569,-86 2569,-98 2569,-98 2569,-104 2563,-110 2557,-110"/>
<text text-anchor="middle" x="2516.38" y="-87.7" font-family="Times,serif" font-size="14.00">orders_split&#45;2</text>
</g>
<!-- SERVICE:orders_split&#45;3&#45;&gt;SERVICE:orders_split&#45;2 -->
<g id="edge23" class="edge">
<title>SERVICE:orders_split&#45;3&#45;&gt;SERVICE:orders_split&#45;2</title>
<g id="a_edge23"><a xlink:title="edge#22">
<path fill="none" stroke="black" d="M2304.13,-92C2346.59,-92 2406.75,-92 2452.01,-92"/>
<polygon fill="black" stroke="black" points="2451.96,-95.5 2461.96,-92 2451.96,-88.5 2451.96,-95.5"/>
</a>
</g>
<text text-anchor="middle" x="2380.62" y="-96.7" font-family="Times,serif" font-size="14.00">CALLS [rest] (sync)</text>
</g>
<!-- SERVICE:auth -->
<g id="node3" class="node">
<title>SERVICE:auth</title>
<path fill="#eef6ff" stroke="black" d="M1002.12,-213C1002.12,-213 972.12,-213 972.12,-213 966.12,-213 960.12,-207 960.12,-201 960.12,-201 960.12,-189 960.12,-189 960.12,-183 966.12,-177 972.12,-177 972.12,-177 1002.12,-177 1002.12,-177 1008.12,-177 1014.12,-183 1014.12,-189 1014.12,-189 1014.12,-201 1014.12,-201 1014.12,-207 1008.12,-213 1002.12,-213"/>
<text text-anchor="middle" x="987.12" y="-190.7" font-family="Times,serif" font-size="14.00">auth</text>
</g>
<!-- SERVICE:payments -->
<g id="node4" class="node">
<title>SERVICE:payments</title>
<path fill="#eef6ff" stroke="black" d="M1268.62,-77C1268.62,-77 1213.62,-77 1213.62,-77 1207.62,-77 1201.62,-71 1201.62,-65 1201.62,-65 1201.62,-53 1201.62,-53 1201.62,-47 1207.62,-41 1213.62,-41 1213.62,-41 1268.62,-41 1268.62,-41 1274.62,-41 1280.62,-47 1280.62,-53 1280.62,-53 1280.62,-65 1280.62,-65 1280.62,-71 1274.62,-77 1268.62,-77"/>
<text text-anchor="middle" x="1241.12" y="-54.7" font-family="Times,serif" font-size="14.00">payments</text>
</g>
<!-- SERVICE:orders -->
<g id="node20" class="node">
<title>SERVICE:orders</title>
<path fill="#eef6ff" stroke="black" d="M1506.5,-111C1506.5,-111 1473.25,-111 1473.25,-111 1467.25,-111 1461.25,-105 1461.25,-99 1461.25,-99 1461.25,-87 1461.25,-87 1461.25,-81 1467.25,-75 1473.25,-75 1473.25,-75 1506.5,-75 1506.5,-75 1512.5,-75 1518.5,-81 1518.5,-87 1518.5,-87 1518.5,-99 1518.5,-99 1518.5,-105 1512.5,-111 1506.5,-111"/>
<text text-anchor="middle" x="1489.88" y="-88.7" font-family="Times,serif" font-size="14.00">orders</text>
</g>
<!-- SERVICE:payments&#45;&gt;SERVICE:orders -->
<g id="edge3" class="edge">
<title>SERVICE:payments&#45;&gt;SERVICE:orders</title>
<g id="a_edge3"><a xlink:title="edge#2">
<path fill="none" stroke="black" d="M1280.79,-55.19C1321.93,-52.36 1388.49,-51.32 1443.25,-67 1445.84,-67.74 1448.44,-68.66 1451.01,-69.7"/>
<polygon fill="black" stroke="black" points="1449.43,-72.82 1459.96,-73.91 1452.4,-66.49 1449.43,-72.82"/>
</a>
</g>
<text text-anchor="middle" x="1380.62" y="-71.7" font-family="Times,serif" font-size="14.00">CALLS [rest] (async)</text>
</g>
<!-- SERVICE:orders_split -->
<g id="node5" class="node">
<title>SERVICE:orders_split</title>
<path fill="#eef6ff" stroke="black" d="M3066.25,-118C3066.25,-118 2998.5,-118 2998.5,-118 2992.5,-118 2986.5,-112 2986.5,-106 2986.5,-106 2986.5,-94 2986.5,-94 2986.5,-88 2992.5,-82 2998.5,-82 2998.5,-82 3066.25,-82 3066.25,-82 3072.25,-82 3078.25,-88 3078.25,-94 3078.25,-94 3078.25,-106 3078.25,-106 3078.25,-112 3072.25,-118 3066.25,-118"/>
<text text-anchor="middle" x="3032.38" y="-95.7" font-family="Times,serif" font-size="14.00">orders_split</text>
</g>
<!-- DATABASE:shared&#45;db -->
<g id="node21" class="node">
<title>DATABASE:shared&#45;db</title>
<path fill="#fff3cd" stroke="black" d="M3314,-183.73C3314,-185.53 3295.62,-187 3273,-187 3250.38,-187 3232,-185.53 3232,-183.73 3232,-183.73 3232,-154.27 3232,-154.27 3232,-152.47 3250.38,-151 3273,-151 3295.62,-151 3314,-152.47 3314,-154.27 3314,-154.27 3314,-183.73 3314,-183.73"/>
<path fill="none" stroke="black" d="M3314,-183.73C3314,-181.92 3295.62,-180.45 3273,-180.45 3250.38,-180.45 3232,-181.92 3232,-183.73"/>
<text text-anchor="middle" x="3273" y="-164.7" font-family="Times,serif" font-size="14.00">shared&#45;db</text>
</g>
<!-- SERVICE:orders_split&#45;&gt;DATABASE:shared&#45;db -->
<g id="edge6" class="edge">
<title>SERVICE:orders_split&#45;&gt;DATABASE:shared&#45;db</title>
<g id="a_edge6"><a xlink:title="edge#5">
<path fill="none" stroke="black" d="M3078.46,-95.36C3116.28,-93.33 3170.89,-94.84 3214,-114 3228.21,-120.31 3241.09,-131.64 3251.09,-142.37"/>
<polygon fill="black" stroke="black" points="3248.22,-144.42 3257.45,-149.62 3253.48,-139.8 3248.22,-144.42"/>
</a>
</g>
<text text-anchor="middle" x="3155.12" y="-118.7" font-family="Times,serif" font-size="14.00">CALLS [rest] (sync)</text>
</g>
<!-- SERVICE:bff -->
<g id="node14" class="node">
<title>SERVICE:bff</title>
<path fill="#eef6ff" stroke="black" d="M484.12,-188C484.12,-188 454.12,-188 454.12,-188 448.12,-188 442.12,-182 442.12,-176 442.12,-176 442.12,-164 442.12,-164 442.12,-158 448.12,-152 454.12,-152 454.12,-152 484.12,-152 484.12,-152 490.12,-152 496.12,-158 496.12,-164 496.12,-164 496.12,-176 496.12,-176 496.12,-182 490.12,-188 484.12,-188"/>
<text text-anchor="middle" x="469.12" y="-165.7" font-family="Times,serif" font-size="14.00">bff</text>
</g>
<!-- SERVICE:bff&#45;1&#45;&gt;SERVICE:bff -->
<g id="edge17" class="edge">
<title>SERVICE:bff&#45;1&#45;&gt;SERVICE:bff</title>
<g id="a_edge17"><a xlink:title="edge#16">
<path fill="none" stroke="black" d="M268.38,-170C308.46,-170 384.87,-170 430.69,-170"/>
<polygon fill="black" stroke="black" points="430.4,-173.5 440.4,-170 430.4,-166.5 430.4,-173.5"/>
</a>
</g>
<text text-anchor="middle" x="344.88" y="-174.7" font-family="Times,serif" font-size="14.00">CALLS [rest] (sync)</text>
</g>
<!-- SERVICE:bff&#45;2 -->
<g id="node7" class="node">
<title>SERVICE:bff&#45;2</title>
<path fill="#eef6ff" stroke="black" d="M1002.12,-117C1002.12,-117 972.12,-117 972.12,-117 966.12,-117 960.12,-111 960.12,-105 960.12,-105 960.12,-93 960.12,-93 960.12,-87 966.12,-81 972.12,-81 972.12,-81 1002.12,-81 1002.12,-81 1008.12,-81 1014.12,-87 1014.12,-93 1014.12,-93 1014.12,-105 1014.12,-105 1014.12,-111 1008.12,-117 1002.12,-117"/>
<text text-anchor="middle" x="987.12" y="-94.7" font-family="Times,serif" font-size="14.00">bff&#45;2</text>
</g>
<!-- SERVICE:bff&#45;2&#45;&gt;SERVICE:payments -->
<g id="edge18" class="edge">
<title>SERVICE:bff&#45;2&#45;&gt;SERVICE:payments</title>
<g id="a_edge18"><a xlink:title="edge#17">
<path fill="none" stroke="black" d="M1014.4,-87.74C1022.19,-84.8 1030.83,-81.92 1039,-80 1089.66,-68.1 1149.07,-62.94 1190.13,-60.7"/>
<polygon fill="black" stroke="black" points="1190.14,-64.21 1199.95,-60.21 1189.79,-57.22 1190.14,-64.21"/>
</a>
</g>
<text text-anchor="middle" x="1101.62" y="-84.7" font-family="Times,serif" font-size="14.00">CALLS [rest] (sync)</text>
</g>
<!-- SERVICE:bff&#45;2_split -->
<g id="node23" class="node">
<title>SERVICE:bff&#45;2_split</title>
<path fill="#eef6ff" stroke="black" d="M1269.75,-134C1269.75,-134 1212.5,-134 1212.5,-134 1206.5,-134 1200.5,-128 1200.5,-122 1200.5,-122 1200.5,-110 1200.5,-110 1200.5,-104 1206.5,-98 1212.5,-98 1212.5,-98 1269.75,-98 1269.75,-98 1275.75,-98 1281.75,-104 1281.75,-110 1281.75,-110 1281.75,-122 1281.75,-122 1281.75,-128 1275.75,-134 1269.75,-134"/>
<text text-anchor="middle" x="1241.12" y="-111.7" font-family="Times,serif" font-size="14.00">bff&#45;2_split</text>
</g>
<!-- SERVICE:bff&#45;2&#45;&gt;SERVICE:bff&#45;2_split -->
<g id="edge24" class="edge">
<title>SERVICE:bff&#45;2&#45;&gt;SERVICE:bff&#45;2_split</title>
<g id="a_edge24"><a xlink:title="edge#23">
<path fill="none" stroke="black" d="M1014.62,-100.79C1055.85,-103.57 1136.13,-108.98 1188.93,-112.55"/>
<polygon fill="black" stroke="black" points="1188.69,-116.04 1198.9,-113.22 1189.16,-109.05 1188.69,-116.04"/>
</a>
</g>
<text text-anchor="middle" x="1101.62" y="-114.7" font-family="Times,serif" font-size="14.00">CALLS [rest] (sync)</text>
</g>
<!-- SERVICE:bff_split&#45;1 -->
<g id="node8" class="node">
<title>SERVICE:bff_split&#45;1</title>
<path fill="#eef6ff" stroke="black" d="M762.75,-213C762.75,-213 707,-213 707,-213 701,-213 695,-207 695,-201 695,-201 695,-189 695,-189 695,-183 701,-177 707,-177 707,-177 762.75,-177 762.75,-177 768.75,-177 774.75,-183 774.75,-189 774.75,-189 774.75,-201 774.75,-201 774.75,-207 768.75,-213 762.75,-213"/>
<text text-anchor="middle" x="734.88" y="-190.7" font-family="Times,serif" font-size="14.00">bff_split&#45;1</text>
</g>
<!-- SERVICE:bff_split&#45;1&#45;&gt;SERVICE:auth -->
<g id="edge10" class="edge">
<title>SERVICE:bff_split&#45;1&#45;&gt;SERVICE:auth</title>
<g id="a_edge10"><a xlink:title="edge#9">
<path fill="none" stroke="black" d="M774.98,-195C822.4,-195 901.77,-195 948.51,-195"/>
<polygon fill="black" stroke="black" points="948.42,-198.5 958.42,-195 948.42,-191.5 948.42,-198.5"/>
</a>
</g>
<text text-anchor="middle" x="876.38" y="-199.7" font-family="Times,serif" font-size="14.00">CALLS [rest] (sync)</text>
</g>
<!-- SERVICE:bff_split -->
<g id="node16" class="node">
<title>SERVICE:bff_split</title>
<path fill="#eef6ff" stroke="black" d="M1009,-267C1009,-267 965.25,-267 965.25,-267 959.25,-267 953.25,-261 953.25,-255 953.25,-255 953.25,-243 953.25,-243 953.25,-237 959.25,-231 965.25,-231 965.25,-231 1009,-231 1009,-231 1015,-231 1021,-237 1021,-243 1021,-243 1021,-255 1021,-255 1021,-261 1015,-267 1009,-267"/>
<text text-anchor="middle" x="987.12" y="-244.7" font-family="Times,serif" font-size="14.00">bff_split</text>
</g>
<!-- SERVICE:bff_split&#45;1&#45;&gt;SERVICE:bff_split -->
<g id="edge15" class="edge">
<title>SERVICE:bff_split&#45;1&#45;&gt;SERVICE:bff_split</title>
<g id="a_edge15"><a xlink:title="edge#14">
<path fill="none" stroke="black" d="M775.17,-206.24C788.54,-209.89 803.62,-213.82 817.5,-217 859.51,-226.63 907.88,-235.6 942.01,-241.57"/>
<polygon fill="black" stroke="black" points="941.07,-244.96 951.52,-243.22 942.27,-238.06 941.07,-244.96"/>
</a>
</g>
<text text-anchor="middle" x="876.38" y="-244.7" font-family="Times,serif" font-size="14.00">CALLS [rest] (sync)</text>
</g>
<!-- SERVICE:bff_split_split -->
<g id="node9" class="node">
<title>SERVICE:bff_split_split</title>
<path fill="#eef6ff" stroke="black" d="M1280.25,-230C1280.25,-230 1202,-230 1202,-230 1196,-230 1190,-224 1190,-218 1190,-218 1190,-206 1190,-206 1190,-200 1196,-194 1202,-194 1202,-194 1280.25,-194 1280.25,-194 1286.25,-194 1292.25,-200 1292.25,-206 1292.25,-206 1292.25,-218 1292.25,-218 1292.25,-224 1286.25,-230 1280.25,-230"/>
<text text-anchor="middle" x="1241.12" y="-207.7" font-family="Times,serif" font-size="14.00">bff_split_split</text>
</g>
<!-- SERVICE:cart -->
<g id="node19" class="node">
<title>SERVICE:cart</title>
<path fill="#eef6ff" stroke="black" d="M1504.88,-220C1504.88,-220 1474.88,-220 1474.88,-220 1468.88,-220 1462.88,-214 1462.88,-208 1462.88,-208 1462.88,-196 1462.88,-196 1462.88,-190 1468.88,-184 1474.88,-184 1474.88,-184 1504.88,-184 1504.88,-184 1510.88,-184 1516.88,-190 1516.88,-196 1516.88,-196 1516.88,-208 1516.88,-208 1516.88,-214 1510.88,-220 1504.88,-220"/>
<text text-anchor="middle" x="1489.88" y="-197.7" font-family="Times,serif" font-size="14.00">cart</text>
</g>
<!-- SERVICE:bff_split_split&#45;&gt;SERVICE:cart -->
<g id="edge12" class="edge">
<title>SERVICE:bff_split_split&#45;&gt;SERVICE:cart</title>
<g id="a_edge12"><a xlink:title="edge#11">
<path fill="none" stroke="black" d="M1292.65,-209.95C1339.72,-208.04 1408.83,-205.24 1451.23,-203.53"/>
<polygon fill="black" stroke="black" points="1451.33,-207.02 1461.18,-203.12 1451.05,-200.03 1451.33,-207.02"/>
</a>
</g>
<text text-anchor="middle" x="1380.62" y="-212.7" font-family="Times,serif" font-size="14.00">CALLS [rest] (sync)</text>
</g>
<!-- SERVICE:bff_split_split&#45;&gt;SERVICE:orders -->
<g id="edge13" class="edge">
<title>SERVICE:bff_split_split&#45;&gt;SERVICE:orders</title>
<g id="a_edge13"><a xlink:title="edge#12">
<path fill="none" stroke="black" d="M1283.39,-193.61C1294.49,-189.09 1306.58,-184.53 1318,-181 1372.4,-164.17 1395.32,-184.75 1443.25,-154 1455.95,-145.85 1466.39,-132.86 1474.06,-120.95"/>
<polygon fill="black" stroke="black" points="1476.91,-123 1479.06,-112.63 1470.91,-119.4 1476.91,-123"/>
</a>
</g>
<text text-anchor="middle" x="1380.62" y="-185.7" font-family="Times,serif" font-size="14.00">CALLS [rest] (sync)</text>
</g>
<!-- SERVICE:orders_split&#45;1 -->
<g id="node15" class="node">
<title>SERVICE:orders_split&#45;1</title>
<path fill="#eef6ff" stroke="black" d="M2820.75,-116C2820.75,-116 2741,-116 2741,-116 2735,-116 2729,-110 2729,-104 2729,-104 2729,-92 2729,-92 2729,-86 2735,-80 2741,-80 2741,-80 2820.75,-80 2820.75,-80 2826.75,-80 2832.75,-86 2832.75,-92 2832.75,-92 2832.75,-104 2832.75,-104 2832.75,-110 2826.75,-116 2820.75,-116"/>
<text text-anchor="middle" x="2780.88" y="-93.7" font-family="Times,serif" font-size="14.00">orders_split&#45;1</text>
</g>
<!-- SERVICE:orders_split&#45;2&#45;&gt;SERVICE:orders_split&#45;1 -->
<g id="edge14" class="edge">
<title>SERVICE:orders_split&#45;2&#45;&gt;SERVICE:orders_split&#45;1</title>
<g id="a_edge14"><a xlink:title="edge#13">
<path fill="none" stroke="black" d="M2569.24,-93.19C2611.71,-94.16 2671.95,-95.53 2717.13,-96.57"/>
<polygon fill="black" stroke="black" points="2716.98,-100.06 2727.06,-96.79 2717.14,-93.06 2716.98,-100.06"/>
</a>
</g>
<text text-anchor="middle" x="2652.12" y="-100.7" font-family="Times,serif" font-size="14.00">CALLS [rest] (sync)</text>
</g>
<!-- SERVICE:catalog -->
<g id="node11" class="node">
<title>SERVICE:catalog</title>
<path fill="#eef6ff" stroke="black" d="M1744.5,-256C1744.5,-256 1705.25,-256 1705.25,-256 1699.25,-256 1693.25,-250 1693.25,-244 1693.25,-244 1693.25,-232 1693.25,-232 1693.25,-226 1699.25,-220 1705.25,-220 1705.25,-220 1744.5,-220 1744.5,-220 1750.5,-220 1756.5,-226 1756.5,-232 1756.5,-232 1756.5,-244 1756.5,-244 1756.5,-250 1750.5,-256 1744.5,-256"/>
<text text-anchor="middle" x="1724.88" y="-233.7" font-family="Times,serif" font-size="14.00">catalog</text>
</g>
<!-- SERVICE:catalog&#45;&gt;DATABASE:shared&#45;db -->
<g id="edge4" class="edge">
<title>SERVICE:catalog&#45;&gt;DATABASE:shared&#45;db</title>
<g id="a_edge4"><a xlink:title="edge#3">
<path fill="none" stroke="black" d="M1756.78,-238C1805.1,-238 1901.48,-238 1983.25,-238 1983.25,-238 1983.25,-238 3033.38,-238 3114.9,-238 3138.04,-235.6 3214,-206 3222.37,-202.74 3230.83,-198.2 3238.61,-193.41"/>
<polygon fill="black" stroke="black" points="3240.28,-196.5 3246.76,-188.12 3236.47,-190.63 3240.28,-196.5"/>
</a>
</g>
<text text-anchor="middle" x="2516.38" y="-242.7" font-family="Times,serif" font-size="14.00">CALLS [rest] (sync)</text>
</g>
<!-- SERVICE:inventory -->
<g id="node12" class="node">
<title>SERVICE:inventory</title>
<path fill="#eef6ff" stroke="black" d="M1880.38,-162C1880.38,-162 1828.38,-162 1828.38,-162 1822.38,-162 1816.38,-156 1816.38,-150 1816.38,-150 1816.38,-138 1816.38,-138 1816.38,-132 1822.38,-126 1828.38,-126 1828.38,-126 1880.38,-126 1880.38,-126 1886.38,-126 1892.38,-132 1892.38,-138 1892.38,-138 1892.38,-150 1892.38,-150 1892.38,-156 1886.38,-162 1880.38,-162"/>
<text text-anchor="middle" x="1854.38" y="-139.7" font-family="Times,serif" font-size="14.00">inventory</text>
</g>
<!-- SERVICE:inventory&#45;&gt;DATABASE:shared&#45;db -->
<g id="edge7" class="edge">
<title>SERVICE:inventory&#45;&gt;DATABASE:shared&#45;db</title>
<g id="a_edge7"><a xlink:title="edge#6">
<path fill="none" stroke="black" d="M1892.62,-144.46C1943.33,-145.05 2036.97,-146 2116.88,-146 2116.88,-146 2116.88,-146 3033.38,-146 3097.97,-146 3171.95,-154.45 3220.19,-161.11"/>
<polygon fill="black" stroke="black" points="3219.69,-164.57 3230.08,-162.5 3220.67,-157.64 3219.69,-164.57"/>
</a>
</g>
<text text-anchor="middle" x="2516.38" y="-150.7" font-family="Times,serif" font-size="14.00">CALLS [rest] (sync)</text>
</g>
<!-- SERVICE:web&#45;ui_split -->
<g id="node13" class="node">
<title>SERVICE:web&#45;ui_split</title>
<path fill="#eef6ff" stroke="black" d="M504.5,-117C504.5,-117 433.75,-117 433.75,-117 427.75,-117 421.75,-111 421.75,-105 421.75,-105 421.75,-93 421.75,-93 421.75,-87 427.75,-81 433.75,-81 433.75,-81 504.5,-81 504.5,-81 510.5,-81 516.5,-87 516.5,-93 516.5,-93 516.5,-105 516.5,-105 516.5,-111 510.5,-117 504.5,-117"/>
<text text-anchor="middle" x="469.12" y="-94.7" font-family="Times,serif" font-size="14.00">web&#45;ui_split</text>
</g>
<!-- SERVICE:bff&#45;3 -->
<g id="node24" class="node">
<title>SERVICE:bff&#45;3</title>
<path fill="#eef6ff" stroke="black" d="M749.88,-117C749.88,-117 719.88,-117 719.88,-117 713.88,-117 707.88,-111 707.88,-105 707.88,-105 707.88,-93 707.88,-93 707.88,-87 713.88,-81 719.88,-81 719.88,-81 749.88,-81 749.88,-81 755.88,-81 761.88,-87 761.88,-93 761.88,-93 761.88,-105 761.88,-105 761.88,-111 755.88,-117 749.88,-117"/>
<text text-anchor="middle" x="734.88" y="-94.7" font-family="Times,serif" font-size="14.00">bff&#45;3</text>
</g>
<!-- SERVICE:web&#45;ui_split&#45;&gt;SERVICE:bff&#45;3 -->
<g id="edge25" class="edge">
<title>SERVICE:web&#45;ui_split&#45;&gt;SERVICE:bff&#45;3</title>
<g id="a_edge25"><a xlink:title="edge#24">
<path fill="none" stroke="black" d="M516.97,-99C568.15,-99 649.1,-99 696.29,-99"/>
<polygon fill="black" stroke="black" points="696.01,-102.5 706.01,-99 696.01,-95.5 696.01,-102.5"/>
</a>
</g>
<text text-anchor="middle" x="593.38" y="-103.7" font-family="Times,serif" font-size="14.00">CALLS [rest] (sync)</text>
</g>
<!-- SERVICE:bff&#45;&gt;SERVICE:payments -->
<g id="edge9" class="edge">
<title>SERVICE:bff&#45;&gt;SERVICE:payments</title>
<g id="a_edge9"><a xlink:title="edge#8">
<path fill="none" stroke="black" d="M496.56,-169.33C620.19,-166.13 1136.49,-151.59 1164.25,-132 1181.18,-120.05 1168.21,-104.24 1182.25,-89 1185.1,-85.9 1188.35,-83.08 1191.81,-80.5"/>
<polygon fill="black" stroke="black" points="1193.63,-83.49 1200.1,-75.1 1189.81,-77.63 1193.63,-83.49"/>
</a>
</g>
<text text-anchor="middle" x="876.38" y="-162.7" font-family="Times,serif" font-size="14.00">CALLS [rest] (sync)</text>
</g>
<!-- SERVICE:bff&#45;&gt;SERVICE:bff_split&#45;1 -->
<g id="edge21" class="edge">
<title>SERVICE:bff&#45;&gt;SERVICE:bff_split&#45;1</title>
<g id="a_edge21"><a xlink:title="edge#20">
<path fill="none" stroke="black" d="M496.38,-172.49C539.81,-176.6 627.33,-184.9 683.14,-190.19"/>
<polygon fill="black" stroke="black" points="682.75,-193.67 693.04,-191.13 683.41,-186.7 682.75,-193.67"/>
</a>
</g>
<text text-anchor="middle" x="593.38" y="-190.7" font-family="Times,serif" font-size="14.00">CALLS [rest] (sync)</text>
</g>
<!-- SERVICE:orders_split&#45;1&#45;&gt;SERVICE:orders_split -->
<g id="edge8" class="edge">
<title>SERVICE:orders_split&#45;1&#45;&gt;SERVICE:orders_split</title>
<g id="a_edge8"><a xlink:title="edge#7">
<path fill="none" stroke="black" d="M2832.97,-98.41C2874.23,-98.74 2932.26,-99.21 2974.9,-99.55"/>
<polygon fill="black" stroke="black" points="2974.67,-103.05 2984.7,-99.63 2974.73,-96.05 2974.67,-103.05"/>
</a>
</g>
<text text-anchor="middle" x="2909.62" y="-103.7" font-family="Times,serif" font-size="14.00">CALLS [rest] (sync)</text>
</g>
<!-- SERVICE:bff_split&#45;&gt;SERVICE:bff_split_split -->
<g id="edge22" class="edge">
<title>SERVICE:bff_split&#45;&gt;SERVICE:bff_split_split</title>
<g id="a_edge22"><a xlink:title="edge#21">
<path fill="none" stroke="black" d="M1021.45,-231.93C1027.18,-229.58 1033.17,-227.47 1039,-226 1084.82,-214.45 1138.24,-211.18 1178.5,-210.68"/>
<polygon fill="black" stroke="black" points="1178.27,-214.18 1188.25,-210.62 1178.22,-207.18 1178.27,-214.18"/>
</a>
</g>
<text text-anchor="middle" x="1101.62" y="-230.7" font-family="Times,serif" font-size="14.00">CALLS [rest] (async)</text>
</g>
<!-- SERVICE:bff_split&#45;&gt;SERVICE:catalog -->
<g id="edge11" class="edge">
<title>SERVICE:bff_split&#45;&gt;SERVICE:catalog</title>
<g id="a_edge11"><a xlink:title="edge#10">
<path fill="none" stroke="black" d="M1021.42,-249.67C1118.82,-251.44 1411.65,-255.35 1654.25,-244 1663.2,-243.58 1672.77,-242.91 1681.87,-242.16"/>
<polygon fill="black" stroke="black" points="1681.9,-245.67 1691.55,-241.31 1681.29,-238.69 1681.9,-245.67"/>
</a>
</g>
<text text-anchor="middle" x="1380.62" y="-255.7" font-family="Times,serif" font-size="14.00">CALLS [rest] (sync)</text>
</g>
<!-- SERVICE:bff&#45;4 -->
<g id="node17" class="node">
<title>SERVICE:bff&#45;4</title>
<path fill="#eef6ff" stroke="black" d="M1002.12,-36C1002.12,-36 972.12,-36 972.12,-36 966.12,-36 960.12,-30 960.12,-24 960.12,-24 960.12,-12 960.12,-12 960.12,-6 966.12,0 972.12,0 972.12,0 1002.12,0 1002.12,0 1008.12,0 1014.12,-6 1014.12,-12 1014.12,-12 1014.12,-24 1014.12,-24 1014.12,-30 1008.12,-36 1002.12,-36"/>
<text text-anchor="middle" x="987.12" y="-13.7" font-family="Times,serif" font-size="14.00">bff&#45;4</text>
</g>
<!-- SERVICE:bff&#45;4&#45;&gt;SERVICE:payments -->
<g id="edge29" class="edge">
<title>SERVICE:bff&#45;4&#45;&gt;SERVICE:payments</title>
<g id="a_edge29"><a xlink:title="edge#28">
<path fill="none" stroke="black" d="M1014.52,-20.59C1049.08,-24.17 1111.47,-31.32 1164.25,-41 1172.68,-42.55 1181.57,-44.43 1190.19,-46.38"/>
<polygon fill="black" stroke="black" points="1189.29,-49.77 1199.82,-48.63 1190.88,-42.95 1189.29,-49.77"/>
</a>
</g>
<text text-anchor="middle" x="1101.62" y="-45.7" font-family="Times,serif" font-size="14.00">CALLS [rest] (sync)</text>
</g>
<!-- SERVICE:bff&#45;4&#45;&gt;SERVICE:orders -->
<g id="edge28" class="edge">
<title>SERVICE:bff&#45;4&#45;&gt;SERVICE:orders</title>
<g id="a_edge28"><a xlink:title="edge#27">
<path fill="none" stroke="black" d="M1014.54,-15.26C1068.46,-10.19 1194.94,-1 1300,-14 1365.15,-22.06 1385.67,-18.47 1443.25,-50 1451.31,-54.41 1459.01,-60.59 1465.71,-66.88"/>
<polygon fill="black" stroke="black" points="1463.01,-69.13 1472.56,-73.73 1467.96,-64.18 1463.01,-69.13"/>
</a>
</g>
<text text-anchor="middle" x="1241.12" y="-18.7" font-family="Times,serif" font-size="14.00">CALLS [rest] (sync)</text>
</g>
<!-- SERVICE:orders_split&#45;4 -->
<g id="node18" class="node">
<title>SERVICE:orders_split&#45;4</title>
<path fill="#eef6ff" stroke="black" d="M2025.25,-111C2025.25,-111 1943.25,-111 1943.25,-111 1937.25,-111 1931.25,-105 1931.25,-99 1931.25,-99 1931.25,-87 1931.25,-87 1931.25,-81 1937.25,-75 1943.25,-75 1943.25,-75 2025.25,-75 2025.25,-75 2031.25,-75 2037.25,-81 2037.25,-87 2037.25,-87 2037.25,-99 2037.25,-99 2037.25,-105 2031.25,-111 2025.25,-111"/>
<text text-anchor="middle" x="1984.25" y="-88.7" font-family="Times,serif" font-size="14.00">orders_split&#45;4</text>
</g>
<!-- SERVICE:orders_split&#45;4&#45;&gt;SERVICE:orders_split&#45;3 -->
<g id="edge30" class="edge">
<title>SERVICE:orders_split&#45;4&#45;&gt;SERVICE:orders_split&#45;3</title>
<g id="a_edge30"><a xlink:title="edge#29">
<path fill="none" stroke="black" d="M2037.58,-92.8C2080.53,-92.64 2141.48,-92.41 2187.1,-92.24"/>
<polygon fill="black" stroke="black" points="2186.85,-95.74 2196.84,-92.2 2186.83,-88.74 2186.85,-95.74"/>
</a>
</g>
<text text-anchor="middle" x="2117.88" y="-96.7" font-family="Times,serif" font-size="14.00">CALLS [rest] (async)</text>
</g>
<!-- SERVICE:cart&#45;&gt;SERVICE:catalog -->
<g id="edge1" class="edge">
<title>SERVICE:cart&#45;&gt;SERVICE:catalog</title>
<g id="a_edge1"><a xlink:title="edge#0">
<path fill="none" stroke="black" d="M1517.22,-205.67C1549.54,-210.21 1605.98,-218.3 1654.25,-226 1663.19,-227.43 1672.77,-229.03 1681.87,-230.59"/>
<polygon fill="black" stroke="black" points="1681.11,-234.01 1691.56,-232.26 1682.31,-227.11 1681.11,-234.01"/>
</a>
</g>
<text text-anchor="middle" x="1595.38" y="-230.7" font-family="Times,serif" font-size="14.00">CALLS [rest] (sync)</text>
</g>
<!-- SERVICE:cart&#45;&gt;DATABASE:shared&#45;db -->
<g id="edge5" class="edge">
<title>SERVICE:cart&#45;&gt;DATABASE:shared&#45;db</title>
<g id="a_edge5"><a xlink:title="edge#4">
<path fill="none" stroke="black" d="M1517.07,-200.14C1560.17,-197.25 1648.77,-192 1723.88,-192 1723.88,-192 1723.88,-192 3033.38,-192 3097.97,-192 3171.95,-183.55 3220.19,-176.89"/>
<polygon fill="black" stroke="black" points="3220.67,-180.36 3230.08,-175.5 3219.69,-173.43 3220.67,-180.36"/>
</a>
</g>
<text text-anchor="middle" x="2380.62" y="-196.7" font-family="Times,serif" font-size="14.00">CALLS [rest] (sync)</text>
</g>
<!-- SERVICE:orders&#45;&gt;SERVICE:inventory -->
<g id="edge2" class="edge">
<title>SERVICE:orders&#45;&gt;SERVICE:inventory</title>
<g id="a_edge2"><a xlink:title="edge#1">
<path fill="none" stroke="black" d="M1518.74,-108.36C1524.47,-110.97 1530.57,-113.36 1536.5,-115 1628.97,-140.62 1741.83,-144.82 1804.84,-144.88"/>
<polygon fill="black" stroke="black" points="1804.51,-148.38 1814.5,-144.85 1804.49,-141.38 1804.51,-148.38"/>
</a>
</g>
<text text-anchor="middle" x="1595.38" y="-140.7" font-family="Times,serif" font-size="14.00">CALLS [rest] (sync)</text>
</g>
<!-- SERVICE:orders_split&#45;5 -->
<g id="node25" class="node">
<title>SERVICE:orders_split&#45;5</title>
<path fill="#eef6ff" stroke="black" d="M1765.5,-111C1765.5,-111 1684.25,-111 1684.25,-111 1678.25,-111 1672.25,-105 1672.25,-99 1672.25,-99 1672.25,-87 1672.25,-87 1672.25,-81 1678.25,-75 1684.25,-75 1684.25,-75 1765.5,-75 1765.5,-75 1771.5,-75 1777.5,-81 1777.5,-87 1777.5,-87 1777.5,-99 1777.5,-99 1777.5,-105 1771.5,-111 1765.5,-111"/>
<text text-anchor="middle" x="1724.88" y="-88.7" font-family="Times,serif" font-size="14.00">orders_split&#45;5</text>
</g>
<!-- SERVICE:orders&#45;&gt;SERVICE:orders_split&#45;5 -->
<g id="edge32" class="edge">
<title>SERVICE:orders&#45;&gt;SERVICE:orders_split&#45;5</title>
<g id="a_edge32"><a xlink:title="edge#31">
<path fill="none" stroke="black" d="M1518.98,-93C1553.79,-93 1614.15,-93 1660.37,-93"/>
<polygon fill="black" stroke="black" points="1660.28,-96.5 1670.28,-93 1660.28,-89.5 1660.28,-96.5"/>
</a>
</g>
<text text-anchor="middle" x="1595.38" y="-97.7" font-family="Times,serif" font-size="14.00">CALLS [rest] (sync)</text>
</g>
<!-- SERVICE:web&#45;ui_split_split -->
<g id="node22" class="node">
<title>SERVICE:web&#45;ui_split_split</title>
<path fill="#eef6ff" stroke="black" d="M787.5,-36C787.5,-36 682.25,-36 682.25,-36 676.25,-36 670.25,-30 670.25,-24 670.25,-24 670.25,-12 670.25,-12 670.25,-6 676.25,0 682.25,0 682.25,0 787.5,0 787.5,0 793.5,0 799.5,-6 799.5,-12 799.5,-12 799.5,-24 799.5,-24 799.5,-30 793.5,-36 787.5,-36"/>
<text text-anchor="middle" x="734.88" y="-13.7" font-family="Times,serif" font-size="14.00">web&#45;ui_split_split</text>
</g>
<!-- SERVICE:web&#45;ui_split_split&#45;&gt;SERVICE:bff&#45;4 -->
<g id="edge27" class="edge">
<title>SERVICE:web&#45;ui_split_split&#45;&gt;SERVICE:bff&#45;4</title>
<g id="a_edge27"><a xlink:title="edge#26">
<path fill="none" stroke="black" d="M800,-18C846.98,-18 909.16,-18 948.41,-18"/>
<polygon fill="black" stroke="black" points="948.3,-21.5 958.3,-18 948.29,-14.5 948.3,-21.5"/>
</a>
</g>
<text text-anchor="middle" x="876.38" y="-22.7" font-family="Times,serif" font-size="14.00">CALLS [rest] (sync)</text>
</g>
<!-- SERVICE:bff&#45;2_split&#45;&gt;SERVICE:cart -->
<g id="edge19" class="edge">
<title>SERVICE:bff&#45;2_split&#45;&gt;SERVICE:cart</title>
<g id="a_edge19"><a xlink:title="edge#18">
<path fill="none" stroke="black" d="M1281.84,-116.06C1332.53,-116.79 1416.8,-120.41 1443.25,-136 1457.88,-144.62 1468.93,-160 1476.48,-173.75"/>
<polygon fill="black" stroke="black" points="1473.25,-175.11 1480.89,-182.45 1479.49,-171.95 1473.25,-175.11"/>
</a>
</g>
<text text-anchor="middle" x="1380.62" y="-140.7" font-family="Times,serif" font-size="14.00">CALLS [rest] (sync)</text>
</g>
<!-- SERVICE:bff&#45;2_split&#45;&gt;SERVICE:orders -->
<g id="edge20" class="edge">
<title>SERVICE:bff&#45;2_split&#45;&gt;SERVICE:orders</title>
<g id="a_edge20"><a xlink:title="edge#19">
<path fill="none" stroke="black" d="M1281.88,-102.92C1293.4,-99.7 1306.09,-96.69 1318,-95 1362.86,-88.64 1415.02,-89.16 1449.79,-90.61"/>
<polygon fill="black" stroke="black" points="1449.22,-94.09 1459.37,-91.06 1449.55,-87.09 1449.22,-94.09"/>
</a>
</g>
<text text-anchor="middle" x="1380.62" y="-99.7" font-family="Times,serif" font-size="14.00">CALLS [rest] (async)</text>
</g>
<!-- SERVICE:bff&#45;3&#45;&gt;SERVICE:bff&#45;2 -->
<g id="edge26" class="edge">
<title>SERVICE:bff&#45;3&#45;&gt;SERVICE:bff&#45;2</title>
<g id="a_edge26"><a xlink:title="edge#25">
<path fill="none" stroke="black" d="M762.18,-99C806.77,-99 897.33,-99 948.57,-99"/>
<polygon fill="black" stroke="black" points="948.28,-102.5 958.28,-99 948.28,-95.5 948.28,-102.5"/>
</a>
</g>
<text text-anchor="middle" x="876.38" y="-103.7" font-family="Times,serif" font-size="14.00">CALLS [rest] (sync)</text>
</g>
<!-- SERVICE:orders_split&#45;5&#45;&gt;SERVICE:orders_split&#45;4 -->
<g id="edge31" class="edge">
<title>SERVICE:orders_split&#45;5&#45;&gt;SERVICE:orders_split&#45;4</title>
<g id="a_edge31"><a xlink:title="edge#30">
<path fill="none" stroke="black" d="M1777.96,-93C1818.81,-93 1875.87,-93 1919.46,-93"/>
<polygon fill="black" stroke="black" points="1919.29,-96.5 1929.29,-93 1919.29,-89.5 1919.29,-96.5"/>
</a>
</g>
<text text-anchor="middle" x="1854.38" y="-97.7" font-family="Times,serif" font-size="14.00">CALLS [rest] (sync)</text>
</g>
</g>
</svg>
