<?xml version="1.0" encoding="UTF-8" standalone="no"?>
<!DOCTYPE svg PUBLIC "-//W3C//DTD SVG 1.1//EN"
 "http://www.w3.org/Graphics/SVG/1.1/DTD/svg11.dtd">
<!-- Generated by graphviz version 9.0.0 (20230911.1827)
 -->
<!-- Title: G Pages: 1 -->
<svg width="545pt" height="114pt"
 viewBox="0.00 0.00 544.50 114.00" xmlns="http://www.w3.org/2000/svg" xmlns:xlink="http://www.w3.org/1999/xlink">
<g id="graph0" class="graph" transform="scale(1 1) rotate(0) translate(4 110)">
<title>G</title>
<polygon fill="white" stroke="none" points="-4,4 -4,-110 540.5,-110 540.5,4 -4,4"/>
<text text-anchor="middle" x="268.25" y="-88.7" font-family="Helvetica,sans-Serif" font-size="14.00">Architecture</text>
<!-- SERVICE:payments -->
<g id="node1" class="node">
<title>SERVICE:payments</title>
<path fill="#eef6ff" stroke="black" d="M294.12,-74C294.12,-74 239.12,-74 239.12,-74 233.12,-74 227.12,-68 227.12,-62 227.12,-62 227.12,-50 227.12,-50 227.12,-44 233.12,-38 239.12,-38 239.12,-38 294.12,-38 294.12,-38 300.12,-38 306.12,-44 306.12,-50 306.12,-50 306.12,-62 306.12,-62 306.12,-68 300.12,-74 294.12,-74"/>
<text text-anchor="middle" x="266.62" y="-51.7" font-family="Times,serif" font-size="14.00">payments</text>
</g>
<!-- SERVICE:orders -->
<g id="node3" class="node">
<title>SERVICE:orders</title>
<path fill="#eef6ff" stroke="black" d="M524.5,-53C524.5,-53 491.25,-53 491.25,-53 485.25,-53 479.25,-47 479.25,-41 479.25,-41 479.25,-29 479.25,-29 479.25,-23 485.25,-17 491.25,-17 491.25,-17 524.5,-17 524.5,-17 530.5,-17 536.5,-23 536.5,-29 536.5,-29 536.5,-41 536.5,-41 536.5,-47 530.5,-53 524.5,-53"/>
<text text-anchor="middle" x="507.88" y="-30.7" font-family="Times,serif" font-size="14.00">orders</text>
</g>
<!-- SERVICE:payments&#45;&gt;SERVICE:orders -->
<g id="edge4" class="edge">
<title>SERVICE:payments&#45;&gt;SERVICE:orders</title>
<g id="a_edge4"><a xlink:title="edge#3">
<path fill="none" stroke="black" d="M306.29,-59.9C345.71,-62.88 408.4,-64.85 461.25,-54 463.55,-53.53 465.88,-52.94 468.2,-52.27"/>
<polygon fill="black" stroke="black" points="469.17,-55.63 477.5,-49.09 466.91,-49.01 469.17,-55.63"/>
</a>
</g>
<text text-anchor="middle" x="402.38" y="-66.7" font-family="Times,serif" font-size="14.00">CALLS [rest] (sync)</text>
</g>
<!-- SERVICE:ui -->
<g id="node2" class="node">
<title>SERVICE:ui</title>
<path fill="#eef6ff" stroke="black" d="M42,-36C42,-36 12,-36 12,-36 6,-36 0,-30 0,-24 0,-24 0,-12 0,-12 0,-6 6,0 12,0 12,0 42,0 42,0 48,0 54,-6 54,-12 54,-12 54,-24 54,-24 54,-30 48,-36 42,-36"/>
<text text-anchor="middle" x="27" y="-13.7" font-family="Times,serif" font-size="14.00">ui</text>
</g>
<!-- SERVICE:ui&#45;&gt;SERVICE:payments -->
<g id="edge2" class="edge">
<title>SERVICE:ui&#45;&gt;SERVICE:payments</title>
<g id="a_edge2"><a xlink:title="edge#1">
<path fill="none" stroke="black" d="M54.34,-22.21C93.16,-28.42 166.44,-40.14 215.66,-48.01"/>
<polygon fill="black" stroke="black" points="215.08,-51.46 225.51,-49.58 216.19,-44.55 215.08,-51.46"/>
</a>
</g>
<text text-anchor="middle" x="130.88" y="-47.7" font-family="Times,serif" font-size="14.00">CALLS [rest] (sync)</text>
</g>
<!-- SERVICE:ui&#45;&gt;SERVICE:orders -->
<g id="edge1" class="edge">
<title>SERVICE:ui&#45;&gt;SERVICE:orders</title>
<g id="a_edge1"><a xlink:title="edge#0">
<path fill="none" stroke="black" d="M54.49,-16.65C89.54,-14.93 153.26,-12.06 207.75,-11 260.07,-9.98 273.27,-7.74 325.5,-11 386.19,-14.79 401.03,-19.61 461.25,-28 463.3,-28.29 465.41,-28.59 467.53,-28.89"/>
<polygon fill="black" stroke="black" points="467,-32.35 477.41,-30.36 468.03,-25.43 467,-32.35"/>
</a>
</g>
<text text-anchor="middle" x="266.62" y="-15.7" font-family="Times,serif" font-size="14.00">CALLS [rest] (sync)</text>
</g>
<!-- SERVICE:orders&#45;&gt;SERVICE:payments -->
<g id="edge3" class="edge">
<title>SERVICE:orders&#45;&gt;SERVICE:payments</title>
<g id="a_edge3"><a xlink:title="edge#2">
<path fill="none" stroke="black" d="M478.98,-33.05C446.34,-31.26 390.74,-29.73 343.5,-36 334.96,-37.13 326,-38.93 317.36,-40.99"/>
<polygon fill="black" stroke="black" points="316.53,-37.59 307.71,-43.44 318.26,-44.37 316.53,-37.59"/>
</a>
</g>
<text text-anchor="middle" x="402.38" y="-40.7" font-family="Times,serif" font-size="14.00">CALLS [rest] (sync)</text>
</g>
</g>
</svg>
