<?xml version="1.0" encoding="UTF-8" standalone="no"?>
<!DOCTYPE svg PUBLIC "-//W3C//DTD SVG 1.1//EN"
 "http://www.w3.org/Graphics/SVG/1.1/DTD/svg11.dtd">
<!-- Generated by graphviz version 9.0.0 (20230911.1827)
 -->
<!-- Title: G Pages: 1 -->
<svg width="1141pt" height="326pt"
 viewBox="0.00 0.00 1141.25 326.00" xmlns="http://www.w3.org/2000/svg" xmlns:xlink="http://www.w3.org/1999/xlink">
<g id="graph0" class="graph" transform="scale(1 1) rotate(0) translate(4 322)">
<title>G</title>
<polygon fill="white" stroke="none" points="-4,4 -4,-322 1137.25,-322 1137.25,4 -4,4"/>
<text text-anchor="middle" x="566.62" y="-300.7" font-family="Helvetica,sans-Serif" font-size="14.00">Architecture</text>
<!-- SERVICE:database -->
<g id="node1" class="node">
<title>SERVICE:database</title>
<path fill="#eef6ff" stroke="black" d="M598.12,-138C598.12,-138 547.62,-138 547.62,-138 541.62,-138 535.62,-132 535.62,-126 535.62,-126 535.62,-114 535.62,-114 535.62,-108 541.62,-102 547.62,-102 547.62,-102 598.12,-102 598.12,-102 604.12,-102 610.12,-108 610.12,-114 610.12,-114 610.12,-126 610.12,-126 610.12,-132 604.12,-138 598.12,-138"/>
<text text-anchor="middle" x="572.88" y="-115.7" font-family="Times,serif" font-size="14.00">database</text>
</g>
<!-- SERVICE:payments -->
<g id="node3" class="node">
<title>SERVICE:payments</title>
<path fill="#eef6ff" stroke="black" d="M852.5,-161C852.5,-161 797.5,-161 797.5,-161 791.5,-161 785.5,-155 785.5,-149 785.5,-149 785.5,-137 785.5,-137 785.5,-131 791.5,-125 797.5,-125 797.5,-125 852.5,-125 852.5,-125 858.5,-125 864.5,-131 864.5,-137 864.5,-137 864.5,-149 864.5,-149 864.5,-155 858.5,-161 852.5,-161"/>
<text text-anchor="middle" x="825" y="-138.7" font-family="Times,serif" font-size="14.00">payments</text>
</g>
<!-- SERVICE:database&#45;&gt;SERVICE:payments -->
<g id="edge12" class="edge">
<title>SERVICE:database&#45;&gt;SERVICE:payments</title>
<g id="a_edge12"><a xlink:title="edge#11">
<path fill="none" stroke="black" d="M610.43,-109.33C650.02,-99.56 714.61,-88.87 767.5,-105 776.66,-107.8 785.69,-112.63 793.74,-117.93"/>
<polygon fill="black" stroke="black" points="791.62,-120.71 801.8,-123.65 795.67,-115.01 791.62,-120.71"/>
</a>
</g>
<text text-anchor="middle" x="708.62" y="-109.7" font-family="Times,serif" font-size="14.00">CALLS [rest] (sync)</text>
</g>
<!-- SERVICE:orders -->
<g id="node2" class="node">
<title>SERVICE:orders</title>
<path fill="#eef6ff" stroke="black" d="M318,-188C318,-188 284.75,-188 284.75,-188 278.75,-188 272.75,-182 272.75,-176 272.75,-176 272.75,-164 272.75,-164 272.75,-158 278.75,-152 284.75,-152 284.75,-152 318,-152 318,-152 324,-152 330,-158 330,-164 330,-164 330,-176 330,-176 330,-182 324,-188 318,-188"/>
<text text-anchor="middle" x="301.38" y="-165.7" font-family="Times,serif" font-size="14.00">orders</text>
</g>
<!-- SERVICE:orders&#45;&gt;SERVICE:database -->
<g id="edge5" class="edge">
<title>SERVICE:orders&#45;&gt;SERVICE:database</title>
<g id="a_edge5"><a xlink:title="edge#4">
<path fill="none" stroke="black" d="M330.43,-158.83C344.57,-153.6 362.1,-147.72 378.25,-144 427.26,-132.69 484.56,-126.43 524.04,-123.16"/>
<polygon fill="black" stroke="black" points="524.24,-126.66 533.93,-122.38 523.69,-119.68 524.24,-126.66"/>
</a>
</g>
<text text-anchor="middle" x="437.12" y="-148.7" font-family="Times,serif" font-size="14.00">CALLS [rest] (sync)</text>
</g>
<!-- SERVICE:orders&#45;&gt;SERVICE:payments -->
<g id="edge9" class="edge">
<title>SERVICE:orders&#45;&gt;SERVICE:payments</title>
<g id="a_edge9"><a xlink:title="edge#8">
<path fill="none" stroke="black" d="M330.37,-171.78C403.03,-175.86 603.37,-183.77 767.5,-159 769.65,-158.67 771.84,-158.29 774.05,-157.86"/>
<polygon fill="black" stroke="black" points="774.6,-161.33 783.59,-155.73 773.07,-154.5 774.6,-161.33"/>
</a>
</g>
<text text-anchor="middle" x="572.88" y="-180.7" font-family="Times,serif" font-size="14.00">CALLS [rest] (sync)</text>
</g>
<!-- SERVICE:web page -->
<g id="node6" class="node">
<title>SERVICE:web page</title>
<path fill="#eef6ff" stroke="black" d="M599.62,-258C599.62,-258 546.12,-258 546.12,-258 540.12,-258 534.12,-252 534.12,-246 534.12,-246 534.12,-234 534.12,-234 534.12,-228 540.12,-222 546.12,-222 546.12,-222 599.62,-222 599.62,-222 605.62,-222 611.62,-228 611.62,-234 611.62,-234 611.62,-246 611.62,-246 611.62,-252 605.62,-258 599.62,-258"/>
<text text-anchor="middle" x="572.88" y="-235.7" font-family="Times,serif" font-size="14.00">web page</text>
</g>
<!-- SERVICE:orders&#45;&gt;SERVICE:web page -->
<g id="edge2" class="edge">
<title>SERVICE:orders&#45;&gt;SERVICE:web page</title>
<g id="a_edge2"><a xlink:title="edge#1">
<path fill="none" stroke="black" d="M330.44,-176.48C344.73,-179.73 362.4,-183.68 378.25,-187 430.44,-197.94 444.82,-195.02 496,-210 504.89,-212.6 514.19,-215.83 523.11,-219.2"/>
<polygon fill="black" stroke="black" points="521.75,-222.43 532.34,-222.8 524.3,-215.91 521.75,-222.43"/>
</a>
</g>
<text text-anchor="middle" x="437.12" y="-214.7" font-family="Times,serif" font-size="14.00">CALLS [rest] (sync)</text>
</g>
<!-- SERVICE:payments&#45;&gt;SERVICE:database -->
<g id="edge7" class="edge">
<title>SERVICE:payments&#45;&gt;SERVICE:database</title>
<g id="a_edge7"><a xlink:title="edge#6">
<path fill="none" stroke="black" d="M785.21,-139.43C741.15,-135.38 669.24,-128.77 621.74,-124.4"/>
<polygon fill="black" stroke="black" points="622.3,-120.94 612.02,-123.51 621.66,-127.91 622.3,-120.94"/>
</a>
</g>
<text text-anchor="middle" x="708.62" y="-141.7" font-family="Times,serif" font-size="14.00">CALLS [rest] (sync)</text>
</g>
<!-- SERVICE:new&#45;database2 -->
<g id="node8" class="node">
<title>SERVICE:new&#45;database2</title>
<path fill="#eef6ff" stroke="black" d="M1121.25,-98C1121.25,-98 1030.25,-98 1030.25,-98 1024.25,-98 1018.25,-92 1018.25,-86 1018.25,-86 1018.25,-74 1018.25,-74 1018.25,-68 1024.25,-62 1030.25,-62 1030.25,-62 1121.25,-62 1121.25,-62 1127.25,-62 1133.25,-68 1133.25,-74 1133.25,-74 1133.25,-86 1133.25,-86 1133.25,-92 1127.25,-98 1121.25,-98"/>
<text text-anchor="middle" x="1075.75" y="-75.7" font-family="Times,serif" font-size="14.00">new&#45;database2</text>
</g>
<!-- SERVICE:payments&#45;&gt;SERVICE:new&#45;database2 -->
<g id="edge13" class="edge">
<title>SERVICE:payments&#45;&gt;SERVICE:new&#45;database2</title>
<g id="a_edge13"><a xlink:title="edge#12">
<path fill="none" stroke="black" d="M864.87,-133.16C902.86,-123.53 961.5,-108.68 1007.14,-97.12"/>
<polygon fill="black" stroke="black" points="1007.85,-100.55 1016.68,-94.71 1006.13,-93.77 1007.85,-100.55"/>
</a>
</g>
<text text-anchor="middle" x="941.38" y="-131.7" font-family="Times,serif" font-size="14.00">CALLS [rest] (sync)</text>
</g>
<!-- SERVICE:restaurants -->
<g id="node4" class="node">
<title>SERVICE:restaurants</title>
<path fill="#eef6ff" stroke="black" d="M76.75,-128C76.75,-128 12,-128 12,-128 6,-128 0,-122 0,-116 0,-116 0,-104 0,-104 0,-98 6,-92 12,-92 12,-92 76.75,-92 76.75,-92 82.75,-92 88.75,-98 88.75,-104 88.75,-104 88.75,-116 88.75,-116 88.75,-122 82.75,-128 76.75,-128"/>
<text text-anchor="middle" x="44.38" y="-105.7" font-family="Times,serif" font-size="14.00">restaurants</text>
</g>
<!-- SERVICE:restaurants&#45;&gt;SERVICE:database -->
<g id="edge6" class="edge">
<title>SERVICE:restaurants&#45;&gt;SERVICE:database</title>
<g id="a_edge6"><a xlink:title="edge#5">
<path fill="none" stroke="black" d="M88.91,-110.83C186.55,-112.68 422.4,-117.16 524,-119.09"/>
<polygon fill="black" stroke="black" points="523.84,-122.59 533.9,-119.28 523.97,-115.59 523.84,-122.59"/>
</a>
</g>
<text text-anchor="middle" x="301.38" y="-119.7" font-family="Times,serif" font-size="14.00">CALLS [rest] (sync)</text>
</g>
<!-- SERVICE:restaurants&#45;&gt;SERVICE:orders -->
<g id="edge8" class="edge">
<title>SERVICE:restaurants&#45;&gt;SERVICE:orders</title>
<g id="a_edge8"><a xlink:title="edge#7">
<path fill="none" stroke="black" d="M89.21,-120.31C137.65,-131.71 214.94,-149.9 261.36,-160.82"/>
<polygon fill="black" stroke="black" points="260.45,-164.2 270.98,-163.08 262.05,-157.39 260.45,-164.2"/>
</a>
</g>
<text text-anchor="middle" x="165.62" y="-154.7" font-family="Times,serif" font-size="14.00">CALLS [rest] (sync)</text>
</g>
<!-- SERVICE:new&#45;database -->
<g id="node7" class="node">
<title>SERVICE:new&#45;database</title>
<path fill="#eef6ff" stroke="black" d="M343.12,-36C343.12,-36 259.62,-36 259.62,-36 253.62,-36 247.62,-30 247.62,-24 247.62,-24 247.62,-12 247.62,-12 247.62,-6 253.62,0 259.62,0 259.62,0 343.12,0 343.12,0 349.12,0 355.12,-6 355.12,-12 355.12,-12 355.12,-24 355.12,-24 355.12,-30 349.12,-36 343.12,-36"/>
<text text-anchor="middle" x="301.38" y="-13.7" font-family="Times,serif" font-size="14.00">new&#45;database</text>
</g>
<!-- SERVICE:restaurants&#45;&gt;SERVICE:new&#45;database -->
<g id="edge10" class="edge">
<title>SERVICE:restaurants&#45;&gt;SERVICE:new&#45;database</title>
<g id="a_edge10"><a xlink:title="edge#9">
<path fill="none" stroke="black" d="M53.97,-91.81C63.84,-73.19 81.94,-45.17 106.75,-32 146.17,-11.07 196.62,-8.05 236.14,-10.01"/>
<polygon fill="black" stroke="black" points="235.79,-13.49 245.99,-10.62 236.23,-6.5 235.79,-13.49"/>
</a>
</g>
<text text-anchor="middle" x="165.62" y="-36.7" font-family="Times,serif" font-size="14.00">CALLS [rest] (sync)</text>
</g>
<!-- SERVICE:restaurants&#45;&gt;SERVICE:new&#45;database2 -->
<g id="edge11" class="edge">
<title>SERVICE:restaurants&#45;&gt;SERVICE:new&#45;database2</title>
<g id="a_edge11"><a xlink:title="edge#10">
<path fill="none" stroke="black" d="M89.17,-97.19C139.62,-83.58 225.25,-64 300.38,-64 300.38,-64 300.38,-64 826,-64 887.23,-64 956.75,-68.89 1006.71,-73.26"/>
<polygon fill="black" stroke="black" points="1006.23,-76.73 1016.5,-74.13 1006.85,-69.76 1006.23,-76.73"/>
</a>
</g>
<text text-anchor="middle" x="572.88" y="-68.7" font-family="Times,serif" font-size="14.00">CALLS [rest] (sync)</text>
</g>
<!-- SERVICE:user -->
<g id="node5" class="node">
<title>SERVICE:user</title>
<path fill="#eef6ff" stroke="black" d="M316.38,-247C316.38,-247 286.38,-247 286.38,-247 280.38,-247 274.38,-241 274.38,-235 274.38,-235 274.38,-223 274.38,-223 274.38,-217 280.38,-211 286.38,-211 286.38,-211 316.38,-211 316.38,-211 322.38,-211 328.38,-217 328.38,-223 328.38,-223 328.38,-235 328.38,-235 328.38,-241 322.38,-247 316.38,-247"/>
<text text-anchor="middle" x="301.38" y="-224.7" font-family="Times,serif" font-size="14.00">user</text>
</g>
<!-- SERVICE:user&#45;&gt;SERVICE:web page -->
<g id="edge1" class="edge">
<title>SERVICE:user&#45;&gt;SERVICE:web page</title>
<g id="a_edge1"><a xlink:title="edge#0">
<path fill="none" stroke="black" d="M328.71,-230.07C373.56,-231.91 465.47,-235.66 522.56,-237.99"/>
<polygon fill="black" stroke="black" points="522.19,-241.47 532.32,-238.39 522.47,-234.48 522.19,-241.47"/>
</a>
</g>
<text text-anchor="middle" x="437.12" y="-240.7" font-family="Times,serif" font-size="14.00">CALLS [rest] (sync)</text>
</g>
<!-- SERVICE:web page&#45;&gt;SERVICE:payments -->
<g id="edge4" class="edge">
<title>SERVICE:web page&#45;&gt;SERVICE:payments</title>
<g id="a_edge4"><a xlink:title="edge#3">
<path fill="none" stroke="black" d="M612.03,-235.21C652.41,-229.01 717.13,-215.79 767.5,-190 778.23,-184.5 788.74,-176.66 797.73,-168.95"/>
<polygon fill="black" stroke="black" points="799.93,-171.68 805.03,-162.39 795.25,-166.47 799.93,-171.68"/>
</a>
</g>
<text text-anchor="middle" x="708.62" y="-232.7" font-family="Times,serif" font-size="14.00">CALLS [rest] (sync)</text>
</g>
<!-- SERVICE:web page&#45;&gt;SERVICE:restaurants -->
<g id="edge3" class="edge">
<title>SERVICE:web page&#45;&gt;SERVICE:restaurants</title>
<g id="a_edge3"><a xlink:title="edge#2">
<path fill="none" stroke="black" d="M533.97,-250.82C521.94,-253.76 508.51,-256.54 496,-258 384.09,-271.09 350.64,-287.62 242.5,-256 169.65,-234.7 102.7,-172.3 68.74,-136.35"/>
<polygon fill="black" stroke="black" points="71.62,-134.31 62.25,-129.36 66.49,-139.07 71.62,-134.31"/>
</a>
</g>
<text text-anchor="middle" x="301.38" y="-278.7" font-family="Times,serif" font-size="14.00">CALLS [rest] (sync)</text>
</g>
</g>
</svg>
