<?xml version="1.0" encoding="UTF-8" standalone="no"?>
<!DOCTYPE svg PUBLIC "-//W3C//DTD SVG 1.1//EN"
 "http://www.w3.org/Graphics/SVG/1.1/DTD/svg11.dtd">
<!-- Generated by graphviz version 9.0.0 (20230911.1827)
 -->
<!-- Title: G Pages: 1 -->
<svg width="1141pt" height="348pt"
 viewBox="0.00 0.00 1141.25 348.00" xmlns="http://www.w3.org/2000/svg" xmlns:xlink="http://www.w3.org/1999/xlink">
<g id="graph0" class="graph" transform="scale(1 1) rotate(0) translate(4 344)">
<title>G</title>
<polygon fill="white" stroke="none" points="-4,4 -4,-344 1137.25,-344 1137.25,4 -4,4"/>
<text text-anchor="middle" x="566.62" y="-322.7" font-family="Helvetica,sans-Serif" font-size="14.00">Architecture</text>
<!-- SERVICE:restaurants -->
<g id="node1" class="node">
<title>SERVICE:restaurants</title>
<path fill="#eef6ff" stroke="black" d="M76.75,-222C76.75,-222 12,-222 12,-222 6,-222 0,-216 0,-210 0,-210 0,-198 0,-198 0,-192 6,-186 12,-186 12,-186 76.75,-186 76.75,-186 82.75,-186 88.75,-192 88.75,-198 88.75,-198 88.75,-210 88.75,-210 88.75,-216 82.75,-222 76.75,-222"/>
<text text-anchor="middle" x="44.38" y="-199.7" font-family="Times,serif" font-size="14.00">restaurants</text>
</g>
<!-- SERVICE:new&#45;database -->
<g id="node4" class="node">
<title>SERVICE:new&#45;database</title>
<path fill="#eef6ff" stroke="black" d="M343.12,-314C343.12,-314 259.62,-314 259.62,-314 253.62,-314 247.62,-308 247.62,-302 247.62,-302 247.62,-290 247.62,-290 247.62,-284 253.62,-278 259.62,-278 259.62,-278 343.12,-278 343.12,-278 349.12,-278 355.12,-284 355.12,-290 355.12,-290 355.12,-302 355.12,-302 355.12,-308 349.12,-314 343.12,-314"/>
<text text-anchor="middle" x="301.38" y="-291.7" font-family="Times,serif" font-size="14.00">new&#45;database</text>
</g>
<!-- SERVICE:restaurants&#45;&gt;SERVICE:new&#45;database -->
<g id="edge10" class="edge">
<title>SERVICE:restaurants&#45;&gt;SERVICE:new&#45;database</title>
<g id="a_edge10"><a xlink:title="edge#9">
<path fill="none" stroke="black" d="M58.88,-222.27C70.11,-236.04 87.34,-254.17 106.75,-264 146.72,-284.25 196.73,-292.14 235.91,-295.02"/>
<polygon fill="black" stroke="black" points="235.46,-298.5 245.66,-295.64 235.9,-291.52 235.46,-298.5"/>
</a>
</g>
<text text-anchor="middle" x="165.62" y="-297.7" font-family="Times,serif" font-size="14.00">CALLS [rest] (sync)</text>
</g>
<!-- SERVICE:new&#45;database2 -->
<g id="node5" class="node">
<title>SERVICE:new&#45;database2</title>
<path fill="#eef6ff" stroke="black" d="M1121.25,-228C1121.25,-228 1030.25,-228 1030.25,-228 1024.25,-228 1018.25,-222 1018.25,-216 1018.25,-216 1018.25,-204 1018.25,-204 1018.25,-198 1024.25,-192 1030.25,-192 1030.25,-192 1121.25,-192 1121.25,-192 1127.25,-192 1133.25,-198 1133.25,-204 1133.25,-204 1133.25,-216 1133.25,-216 1133.25,-222 1127.25,-228 1121.25,-228"/>
<text text-anchor="middle" x="1075.75" y="-205.7" font-family="Times,serif" font-size="14.00">new&#45;database2</text>
</g>
<!-- SERVICE:restaurants&#45;&gt;SERVICE:new&#45;database2 -->
<g id="edge11" class="edge">
<title>SERVICE:restaurants&#45;&gt;SERVICE:new&#45;database2</title>
<g id="a_edge11"><a xlink:title="edge#10">
<path fill="none" stroke="black" d="M89.17,-216.81C139.62,-230.42 225.25,-250 300.38,-250 300.38,-250 300.38,-250 826,-250 887.81,-250 957.18,-237.81 1006.93,-226.89"/>
<polygon fill="black" stroke="black" points="1007.39,-230.37 1016.39,-224.77 1005.86,-223.54 1007.39,-230.37"/>
</a>
</g>
<text text-anchor="middle" x="572.88" y="-254.7" font-family="Times,serif" font-size="14.00">CALLS [rest] (sync)</text>
</g>
<!-- SERVICE:database -->
<g id="node6" class="node">
<title>SERVICE:database</title>
<path fill="#eef6ff" stroke="black" d="M598.12,-212C598.12,-212 547.62,-212 547.62,-212 541.62,-212 535.62,-206 535.62,-200 535.62,-200 535.62,-188 535.62,-188 535.62,-182 541.62,-176 547.62,-176 547.62,-176 598.12,-176 598.12,-176 604.12,-176 610.12,-182 610.12,-188 610.12,-188 610.12,-200 610.12,-200 610.12,-206 604.12,-212 598.12,-212"/>
<text text-anchor="middle" x="572.88" y="-189.7" font-family="Times,serif" font-size="14.00">database</text>
</g>
<!-- SERVICE:restaurants&#45;&gt;SERVICE:database -->
<g id="edge6" class="edge">
<title>SERVICE:restaurants&#45;&gt;SERVICE:database</title>
<g id="a_edge6"><a xlink:title="edge#5">
<path fill="none" stroke="black" d="M88.91,-203.17C186.55,-201.32 422.4,-196.84 524,-194.91"/>
<polygon fill="black" stroke="black" points="523.97,-198.41 533.9,-194.72 523.84,-191.41 523.97,-198.41"/>
</a>
</g>
<text text-anchor="middle" x="301.38" y="-204.7" font-family="Times,serif" font-size="14.00">CALLS [rest] (sync)</text>
</g>
<!-- SERVICE:orders -->
<g id="node7" class="node">
<title>SERVICE:orders</title>
<path fill="#eef6ff" stroke="black" d="M318,-162C318,-162 284.75,-162 284.75,-162 278.75,-162 272.75,-156 272.75,-150 272.75,-150 272.75,-138 272.75,-138 272.75,-132 278.75,-126 284.75,-126 284.75,-126 318,-126 318,-126 324,-126 330,-132 330,-138 330,-138 330,-150 330,-150 330,-156 324,-162 318,-162"/>
<text text-anchor="middle" x="301.38" y="-139.7" font-family="Times,serif" font-size="14.00">orders</text>
</g>
<!-- SERVICE:restaurants&#45;&gt;SERVICE:orders -->
<g id="edge8" class="edge">
<title>SERVICE:restaurants&#45;&gt;SERVICE:orders</title>
<g id="a_edge8"><a xlink:title="edge#7">
<path fill="none" stroke="black" d="M75.71,-185.61C85.34,-180.48 96.23,-175.39 106.75,-172 158.56,-155.28 221.41,-148.52 261.15,-145.8"/>
<polygon fill="black" stroke="black" points="261.19,-149.31 270.95,-145.19 260.75,-142.32 261.19,-149.31"/>
</a>
</g>
<text text-anchor="middle" x="165.62" y="-176.7" font-family="Times,serif" font-size="14.00">CALLS [rest] (sync)</text>
</g>
<!-- SERVICE:user -->
<g id="node2" class="node">
<title>SERVICE:user</title>
<path fill="#eef6ff" stroke="black" d="M316.38,-36C316.38,-36 286.38,-36 286.38,-36 280.38,-36 274.38,-30 274.38,-24 274.38,-24 274.38,-12 274.38,-12 274.38,-6 280.38,0 286.38,0 286.38,0 316.38,0 316.38,0 322.38,0 328.38,-6 328.38,-12 328.38,-12 328.38,-24 328.38,-24 328.38,-30 322.38,-36 316.38,-36"/>
<text text-anchor="middle" x="301.38" y="-13.7" font-family="Times,serif" font-size="14.00">user</text>
</g>
<!-- SERVICE:web page -->
<g id="node3" class="node">
<title>SERVICE:web page</title>
<path fill="#eef6ff" stroke="black" d="M599.62,-96C599.62,-96 546.12,-96 546.12,-96 540.12,-96 534.12,-90 534.12,-84 534.12,-84 534.12,-72 534.12,-72 534.12,-66 540.12,-60 546.12,-60 546.12,-60 599.62,-60 599.62,-60 605.62,-60 611.62,-66 611.62,-72 611.62,-72 611.62,-84 611.62,-84 611.62,-90 605.62,-96 599.62,-96"/>
<text text-anchor="middle" x="572.88" y="-73.7" font-family="Times,serif" font-size="14.00">web page</text>
</g>
<!-- SERVICE:user&#45;&gt;SERVICE:web page -->
<g id="edge1" class="edge">
<title>SERVICE:user&#45;&gt;SERVICE:web page</title>
<g id="a_edge1"><a xlink:title="edge#0">
<path fill="none" stroke="black" d="M328.63,-18.09C366.41,-18.87 437.95,-22.76 496,-40 507.77,-43.5 519.92,-48.75 530.96,-54.23"/>
<polygon fill="black" stroke="black" points="529.31,-57.32 539.8,-58.82 532.54,-51.11 529.31,-57.32"/>
</a>
</g>
<text text-anchor="middle" x="437.12" y="-44.7" font-family="Times,serif" font-size="14.00">CALLS [rest] (sync)</text>
</g>
<!-- SERVICE:web page&#45;&gt;SERVICE:restaurants -->
<g id="edge3" class="edge">
<title>SERVICE:web page&#45;&gt;SERVICE:restaurants</title>
<g id="a_edge3"><a xlink:title="edge#2">
<path fill="none" stroke="black" d="M533.84,-76.82C472,-75.71 346.15,-76.79 242.5,-99 180.21,-112.35 161.18,-111.91 106.75,-145 92.56,-153.63 79,-166.05 68.26,-177.27"/>
<polygon fill="black" stroke="black" points="65.86,-174.7 61.65,-184.42 71.01,-179.45 65.86,-174.7"/>
</a>
</g>
<text text-anchor="middle" x="301.38" y="-103.7" font-family="Times,serif" font-size="14.00">CALLS [rest] (sync)</text>
</g>
<!-- SERVICE:payments -->
<g id="node8" class="node">
<title>SERVICE:payments</title>
<path fill="#eef6ff" stroke="black" d="M852.5,-189C852.5,-189 797.5,-189 797.5,-189 791.5,-189 785.5,-183 785.5,-177 785.5,-177 785.5,-165 785.5,-165 785.5,-159 791.5,-153 797.5,-153 797.5,-153 852.5,-153 852.5,-153 858.5,-153 864.5,-159 864.5,-165 864.5,-165 864.5,-177 864.5,-177 864.5,-183 858.5,-189 852.5,-189"/>
<text text-anchor="middle" x="825" y="-166.7" font-family="Times,serif" font-size="14.00">payments</text>
</g>
<!-- SERVICE:web page&#45;&gt;SERVICE:payments -->
<g id="edge4" class="edge">
<title>SERVICE:web page&#45;&gt;SERVICE:payments</title>
<g id="a_edge4"><a xlink:title="edge#3">
<path fill="none" stroke="black" d="M611.98,-75.91C652.89,-75.33 718.6,-79.32 767.5,-106 783.45,-114.7 796.99,-129.79 806.81,-143.23"/>
<polygon fill="black" stroke="black" points="803.87,-145.13 812.43,-151.38 809.63,-141.16 803.87,-145.13"/>
</a>
</g>
<text text-anchor="middle" x="708.62" y="-110.7" font-family="Times,serif" font-size="14.00">CALLS [rest] (sync)</text>
</g>
<!-- SERVICE:database&#45;&gt;SERVICE:payments -->
<g id="edge12" class="edge">
<title>SERVICE:database&#45;&gt;SERVICE:payments</title>
<g id="a_edge12"><a xlink:title="edge#11">
<path fill="none" stroke="black" d="M610.29,-178.8C622.6,-174.4 636.56,-170.2 649.75,-168 691.18,-161.1 738.91,-162.56 773.93,-165.35"/>
<polygon fill="black" stroke="black" points="773.52,-168.83 783.78,-166.21 774.12,-161.85 773.52,-168.83"/>
</a>
</g>
<text text-anchor="middle" x="708.62" y="-172.7" font-family="Times,serif" font-size="14.00">CALLS [rest] (sync)</text>
</g>
<!-- SERVICE:orders&#45;&gt;SERVICE:web page -->
<g id="edge2" class="edge">
<title>SERVICE:orders&#45;&gt;SERVICE:web page</title>
<g id="a_edge2"><a xlink:title="edge#1">
<path fill="none" stroke="black" d="M330.29,-127.31C344.25,-119.68 361.66,-111.2 378.25,-106 426.03,-91.01 483.01,-84 522.73,-80.75"/>
<polygon fill="black" stroke="black" points="522.75,-84.26 532.46,-80.01 522.22,-77.28 522.75,-84.26"/>
</a>
</g>
<text text-anchor="middle" x="437.12" y="-110.7" font-family="Times,serif" font-size="14.00">CALLS [rest] (sync)</text>
</g>
<!-- SERVICE:orders&#45;&gt;SERVICE:database -->
<g id="edge5" class="edge">
<title>SERVICE:orders&#45;&gt;SERVICE:database</title>
<g id="a_edge5"><a xlink:title="edge#4">
<path fill="none" stroke="black" d="M330.49,-146.83C368.36,-150.92 437.74,-159.4 496,-172 505.35,-174.02 515.23,-176.57 524.66,-179.22"/>
<polygon fill="black" stroke="black" points="523.44,-182.51 534.02,-181.92 525.38,-175.78 523.44,-182.51"/>
</a>
</g>
<text text-anchor="middle" x="437.12" y="-176.7" font-family="Times,serif" font-size="14.00">CALLS [rest] (sync)</text>
</g>
<!-- SERVICE:orders&#45;&gt;SERVICE:payments -->
<g id="edge9" class="edge">
<title>SERVICE:orders&#45;&gt;SERVICE:payments</title>
<g id="a_edge9"><a xlink:title="edge#8">
<path fill="none" stroke="black" d="M330.34,-142.79C402.93,-140.1 603.13,-135.6 767.5,-159 769.66,-159.31 771.86,-159.65 774.08,-160.02"/>
<polygon fill="black" stroke="black" points="773.27,-163.43 783.73,-161.77 774.52,-156.54 773.27,-163.43"/>
</a>
</g>
<text text-anchor="middle" x="572.88" y="-149.7" font-family="Times,serif" font-size="14.00">CALLS [rest] (sync)</text>
</g>
<!-- SERVICE:payments&#45;&gt;SERVICE:new&#45;database2 -->
<g id="edge13" class="edge">
<title>SERVICE:payments&#45;&gt;SERVICE:new&#45;database2</title>
<g id="a_edge13"><a xlink:title="edge#12">
<path fill="none" stroke="black" d="M864.87,-177.09C902.78,-183.04 961.25,-192.2 1006.85,-199.35"/>
<polygon fill="black" stroke="black" points="1006.23,-202.8 1016.65,-200.89 1007.32,-195.88 1006.23,-202.8"/>
</a>
</g>
<text text-anchor="middle" x="941.38" y="-201.7" font-family="Times,serif" font-size="14.00">CALLS [rest] (sync)</text>
</g>
<!-- SERVICE:payments&#45;&gt;SERVICE:database -->
<g id="edge7" class="edge">
<title>SERVICE:payments&#45;&gt;SERVICE:database</title>
<g id="a_edge7"><a xlink:title="edge#6">
<path fill="none" stroke="black" d="M785.19,-185.76C779.34,-187.48 773.31,-188.99 767.5,-190 718.46,-198.54 661.39,-198.54 621.98,-197.03"/>
<polygon fill="black" stroke="black" points="622.25,-193.53 612.1,-196.59 621.94,-200.53 622.25,-193.53"/>
</a>
</g>
<text text-anchor="middle" x="708.62" y="-201.7" font-family="Times,serif" font-size="14.00">CALLS [rest] (sync)</text>
</g>
</g>
</svg>
