<?xml version="1.0" encoding="UTF-8" standalone="no"?>
<!DOCTYPE svg PUBLIC "-//W3C//DTD SVG 1.1//EN"
 "http://www.w3.org/Graphics/SVG/1.1/DTD/svg11.dtd">
<!-- Generated by graphviz version 9.0.0 (20230911.1827)
 -->
<!-- Title: G Pages: 1 -->
<svg width="2797pt" height="310pt"
 viewBox="0.00 0.00 2797.25 310.00" xmlns="http://www.w3.org/2000/svg" xmlns:xlink="http://www.w3.org/1999/xlink">
<g id="graph0" class="graph" transform="scale(1 1) rotate(0) translate(4 306)">
<title>G</title>
<polygon fill="white" stroke="none" points="-4,4 -4,-306 2793.25,-306 2793.25,4 -4,4"/>
<text text-anchor="middle" x="1394.62" y="-284.7" font-family="Helvetica,sans-Serif" font-size="14.00">Architecture</text>
<!-- SERVICE:orders -->
<g id="node1" class="node">
<title>SERVICE:orders</title>
<path fill="#eef6ff" stroke="black" d="M1506.5,-181C1506.5,-181 1473.25,-181 1473.25,-181 1467.25,-181 1461.25,-175 1461.25,-169 1461.25,-169 1461.25,-157 1461.25,-157 1461.25,-151 1467.25,-145 1473.25,-145 1473.25,-145 1506.5,-145 1506.5,-145 1512.5,-145 1518.5,-151 1518.5,-157 1518.5,-157 1518.5,-169 1518.5,-169 1518.5,-175 1512.5,-181 1506.5,-181"/>
<text text-anchor="middle" x="1489.88" y="-158.7" font-family="Times,serif" font-size="14.00">orders</text>
</g>
<!-- SERVICE:inventory -->
<g id="node14" class="node">
<title>SERVICE:inventory</title>
<path fill="#eef6ff" stroke="black" d="M1880.38,-130C1880.38,-130 1828.38,-130 1828.38,-130 1822.38,-130 1816.38,-124 1816.38,-118 1816.38,-118 1816.38,-106 1816.38,-106 1816.38,-100 1822.38,-94 1828.38,-94 1828.38,-94 1880.38,-94 1880.38,-94 1886.38,-94 1892.38,-100 1892.38,-106 1892.38,-106 1892.38,-118 1892.38,-118 1892.38,-124 1886.38,-130 1880.38,-130"/>
<text text-anchor="middle" x="1854.38" y="-107.7" font-family="Times,serif" font-size="14.00">inventory</text>
</g>
<!-- SERVICE:orders&#45;&gt;SERVICE:inventory -->
<g id="edge2" class="edge">
<title>SERVICE:orders&#45;&gt;SERVICE:inventory</title>
<g id="a_edge2"><a xlink:title="edge#1">
<path fill="none" stroke="black" d="M1518.74,-147.64C1524.47,-145.03 1530.57,-142.64 1536.5,-141 1628.97,-115.38 1741.83,-111.18 1804.84,-111.12"/>
<polygon fill="black" stroke="black" points="1804.49,-114.62 1814.5,-111.15 1804.51,-107.62 1804.49,-114.62"/>
</a>
</g>
<text text-anchor="middle" x="1595.38" y="-145.7" font-family="Times,serif" font-size="14.00">CALLS [rest] (sync)</text>
</g>
<!-- SERVICE:orders_split&#45;3 -->
<g id="node23" class="node">
<title>SERVICE:orders_split&#45;3</title>
<path fill="#eef6ff" stroke="black" d="M1765.5,-182C1765.5,-182 1684.25,-182 1684.25,-182 1678.25,-182 1672.25,-176 1672.25,-170 1672.25,-170 1672.25,-158 1672.25,-158 1672.25,-152 1678.25,-146 1684.25,-146 1684.25,-146 1765.5,-146 1765.5,-146 1771.5,-146 1777.5,-152 1777.5,-158 1777.5,-158 1777.5,-170 1777.5,-170 1777.5,-176 1771.5,-182 1765.5,-182"/>
<text text-anchor="middle" x="1724.88" y="-159.7" font-family="Times,serif" font-size="14.00">orders_split&#45;3</text>
</g>
<!-- SERVICE:orders&#45;&gt;SERVICE:orders_split&#45;3 -->
<g id="edge30" class="edge">
<title>SERVICE:orders&#45;&gt;SERVICE:orders_split&#45;3</title>
<g id="a_edge30"><a xlink:title="edge#29">
<path fill="none" stroke="black" d="M1518.98,-163.12C1553.79,-163.27 1614.15,-163.53 1660.37,-163.73"/>
<polygon fill="black" stroke="black" points="1660.27,-167.23 1670.28,-163.77 1660.3,-160.23 1660.27,-167.23"/>
</a>
</g>
<text text-anchor="middle" x="1595.38" y="-167.7" font-family="Times,serif" font-size="14.00">CALLS [rest] (sync)</text>
</g>
<!-- SERVICE:payments -->
<g id="node2" class="node">
<title>SERVICE:payments</title>
<path fill="#eef6ff" stroke="black" d="M1268.62,-201C1268.62,-201 1213.62,-201 1213.62,-201 1207.62,-201 1201.62,-195 1201.62,-189 1201.62,-189 1201.62,-177 1201.62,-177 1201.62,-171 1207.62,-165 1213.62,-165 1213.62,-165 1268.62,-165 1268.62,-165 1274.62,-165 1280.62,-171 1280.62,-177 1280.62,-177 1280.62,-189 1280.62,-189 1280.62,-195 1274.62,-201 1268.62,-201"/>
<text text-anchor="middle" x="1241.12" y="-178.7" font-family="Times,serif" font-size="14.00">payments</text>
</g>
<!-- SERVICE:payments&#45;&gt;SERVICE:orders -->
<g id="edge3" class="edge">
<title>SERVICE:payments&#45;&gt;SERVICE:orders</title>
<g id="a_edge3"><a xlink:title="edge#2">
<path fill="none" stroke="black" d="M1280.76,-187.2C1321.59,-190.63 1387.64,-193.26 1443.25,-182 1445.55,-181.53 1447.88,-180.95 1450.2,-180.28"/>
<polygon fill="black" stroke="black" points="1451.17,-183.65 1459.51,-177.12 1448.91,-177.02 1451.17,-183.65"/>
</a>
</g>
<text text-anchor="middle" x="1380.62" y="-194.7" font-family="Times,serif" font-size="14.00">CALLS [rest] (async)</text>
</g>
<!-- DATABASE:shared&#45;db -->
<g id="node3" class="node">
<title>DATABASE:shared&#45;db</title>
<path fill="#fff3cd" stroke="black" d="M2789.25,-101.73C2789.25,-103.53 2770.87,-105 2748.25,-105 2725.63,-105 2707.25,-103.53 2707.25,-101.73 2707.25,-101.73 2707.25,-72.27 2707.25,-72.27 2707.25,-70.47 2725.63,-69 2748.25,-69 2770.87,-69 2789.25,-70.47 2789.25,-72.27 2789.25,-72.27 2789.25,-101.73 2789.25,-101.73"/>
<path fill="none" stroke="black" d="M2789.25,-101.73C2789.25,-99.92 2770.87,-98.45 2748.25,-98.45 2725.63,-98.45 2707.25,-99.92 2707.25,-101.73"/>
<text text-anchor="middle" x="2748.25" y="-82.7" font-family="Times,serif" font-size="14.00">shared&#45;db</text>
</g>
<!-- SERVICE:orders_split&#45;2 -->
<g id="node4" class="node">
<title>SERVICE:orders_split&#45;2</title>
<path fill="#eef6ff" stroke="black" d="M2024.5,-182C2024.5,-182 1943.25,-182 1943.25,-182 1937.25,-182 1931.25,-176 1931.25,-170 1931.25,-170 1931.25,-158 1931.25,-158 1931.25,-152 1937.25,-146 1943.25,-146 1943.25,-146 2024.5,-146 2024.5,-146 2030.5,-146 2036.5,-152 2036.5,-158 2036.5,-158 2036.5,-170 2036.5,-170 2036.5,-176 2030.5,-182 2024.5,-182"/>
<text text-anchor="middle" x="1983.88" y="-159.7" font-family="Times,serif" font-size="14.00">orders_split&#45;2</text>
</g>
<!-- SERVICE:orders_split&#45;1 -->
<g id="node16" class="node">
<title>SERVICE:orders_split&#45;1</title>
<path fill="#eef6ff" stroke="black" d="M2289,-182C2289,-182 2209.25,-182 2209.25,-182 2203.25,-182 2197.25,-176 2197.25,-170 2197.25,-170 2197.25,-158 2197.25,-158 2197.25,-152 2203.25,-146 2209.25,-146 2209.25,-146 2289,-146 2289,-146 2295,-146 2301,-152 2301,-158 2301,-158 2301,-170 2301,-170 2301,-176 2295,-182 2289,-182"/>
<text text-anchor="middle" x="2249.12" y="-159.7" font-family="Times,serif" font-size="14.00">orders_split&#45;1</text>
</g>
<!-- SERVICE:orders_split&#45;2&#45;&gt;SERVICE:orders_split&#45;1 -->
<g id="edge14" class="edge">
<title>SERVICE:orders_split&#45;2&#45;&gt;SERVICE:orders_split&#45;1</title>
<g id="a_edge14"><a xlink:title="edge#13">
<path fill="none" stroke="black" d="M2036.88,-164C2079.62,-164 2140.28,-164 2185.64,-164"/>
<polygon fill="black" stroke="black" points="2185.61,-167.5 2195.61,-164 2185.61,-160.5 2185.61,-167.5"/>
</a>
</g>
<text text-anchor="middle" x="2113.38" y="-168.7" font-family="Times,serif" font-size="14.00">CALLS [rest] (sync)</text>
</g>
<!-- SERVICE:bff&#45;4 -->
<g id="node5" class="node">
<title>SERVICE:bff&#45;4</title>
<path fill="#eef6ff" stroke="black" d="M1002.12,-255C1002.12,-255 972.12,-255 972.12,-255 966.12,-255 960.12,-249 960.12,-243 960.12,-243 960.12,-231 960.12,-231 960.12,-225 966.12,-219 972.12,-219 972.12,-219 1002.12,-219 1002.12,-219 1008.12,-219 1014.12,-225 1014.12,-231 1014.12,-231 1014.12,-243 1014.12,-243 1014.12,-249 1008.12,-255 1002.12,-255"/>
<text text-anchor="middle" x="987.12" y="-232.7" font-family="Times,serif" font-size="14.00">bff&#45;4</text>
</g>
<!-- SERVICE:bff&#45;4&#45;&gt;SERVICE:orders -->
<g id="edge28" class="edge">
<title>SERVICE:bff&#45;4&#45;&gt;SERVICE:orders</title>
<g id="a_edge28"><a xlink:title="edge#27">
<path fill="none" stroke="black" d="M1014.48,-242.21C1087.17,-255.25 1294.9,-283.31 1443.25,-212 1453.67,-206.99 1462.88,-198.48 1470.25,-189.94"/>
<polygon fill="black" stroke="black" points="1472.79,-192.37 1476.29,-182.36 1467.32,-188 1472.79,-192.37"/>
</a>
</g>
<text text-anchor="middle" x="1241.12" y="-262.7" font-family="Times,serif" font-size="14.00">CALLS [rest] (sync)</text>
</g>
<!-- SERVICE:bff&#45;4&#45;&gt;SERVICE:payments -->
<g id="edge29" class="edge">
<title>SERVICE:bff&#45;4&#45;&gt;SERVICE:payments</title>
<g id="a_edge29"><a xlink:title="edge#28">
<path fill="none" stroke="black" d="M1014.59,-224.07C1022.32,-220.7 1030.87,-217.36 1039,-215 1066.56,-206.99 1140.06,-196.27 1190.14,-189.5"/>
<polygon fill="black" stroke="black" points="1190.44,-192.99 1199.88,-188.19 1189.51,-186.05 1190.44,-192.99"/>
</a>
</g>
<text text-anchor="middle" x="1101.62" y="-219.7" font-family="Times,serif" font-size="14.00">CALLS [rest] (sync)</text>
</g>
<!-- SERVICE:auth -->
<g id="node6" class="node">
<title>SERVICE:auth</title>
<path fill="#eef6ff" stroke="black" d="M1002.12,-106C1002.12,-106 972.12,-106 972.12,-106 966.12,-106 960.12,-100 960.12,-94 960.12,-94 960.12,-82 960.12,-82 960.12,-76 966.12,-70 972.12,-70 972.12,-70 1002.12,-70 1002.12,-70 1008.12,-70 1014.12,-76 1014.12,-82 1014.12,-82 1014.12,-94 1014.12,-94 1014.12,-100 1008.12,-106 1002.12,-106"/>
<text text-anchor="middle" x="987.12" y="-83.7" font-family="Times,serif" font-size="14.00">auth</text>
</g>
<!-- SERVICE:cart -->
<g id="node7" class="node">
<title>SERVICE:cart</title>
<path fill="#eef6ff" stroke="black" d="M1504.88,-72C1504.88,-72 1474.88,-72 1474.88,-72 1468.88,-72 1462.88,-66 1462.88,-60 1462.88,-60 1462.88,-48 1462.88,-48 1462.88,-42 1468.88,-36 1474.88,-36 1474.88,-36 1504.88,-36 1504.88,-36 1510.88,-36 1516.88,-42 1516.88,-48 1516.88,-48 1516.88,-60 1516.88,-60 1516.88,-66 1510.88,-72 1504.88,-72"/>
<text text-anchor="middle" x="1489.88" y="-49.7" font-family="Times,serif" font-size="14.00">cart</text>
</g>
<!-- SERVICE:cart&#45;&gt;DATABASE:shared&#45;db -->
<g id="edge5" class="edge">
<title>SERVICE:cart&#45;&gt;DATABASE:shared&#45;db</title>
<g id="a_edge5"><a xlink:title="edge#4">
<path fill="none" stroke="black" d="M1517.07,-55.86C1560.17,-58.75 1648.77,-64 1723.88,-64 1723.88,-64 1723.88,-64 2508.62,-64 2573.22,-64 2647.2,-72.45 2695.44,-79.11"/>
<polygon fill="black" stroke="black" points="2694.94,-82.57 2705.33,-80.5 2695.92,-75.64 2694.94,-82.57"/>
</a>
</g>
<text text-anchor="middle" x="2113.38" y="-68.7" font-family="Times,serif" font-size="14.00">CALLS [rest] (sync)</text>
</g>
<!-- SERVICE:catalog -->
<g id="node13" class="node">
<title>SERVICE:catalog</title>
<path fill="#eef6ff" stroke="black" d="M1744.5,-36C1744.5,-36 1705.25,-36 1705.25,-36 1699.25,-36 1693.25,-30 1693.25,-24 1693.25,-24 1693.25,-12 1693.25,-12 1693.25,-6 1699.25,0 1705.25,0 1705.25,0 1744.5,0 1744.5,0 1750.5,0 1756.5,-6 1756.5,-12 1756.5,-12 1756.5,-24 1756.5,-24 1756.5,-30 1750.5,-36 1744.5,-36"/>
<text text-anchor="middle" x="1724.88" y="-13.7" font-family="Times,serif" font-size="14.00">catalog</text>
</g>
<!-- SERVICE:cart&#45;&gt;SERVICE:catalog -->
<g id="edge1" class="edge">
<title>SERVICE:cart&#45;&gt;SERVICE:catalog</title>
<g id="a_edge1"><a xlink:title="edge#0">
<path fill="none" stroke="black" d="M1517.25,-39.23C1523.4,-36.37 1530.04,-33.73 1536.5,-32 1585.04,-18.99 1643.02,-16.57 1681.5,-16.7"/>
<polygon fill="black" stroke="black" points="1681.23,-20.2 1691.27,-16.8 1681.3,-13.2 1681.23,-20.2"/>
</a>
</g>
<text text-anchor="middle" x="1595.38" y="-36.7" font-family="Times,serif" font-size="14.00">CALLS [rest] (sync)</text>
</g>
<!-- SERVICE:orders_split -->
<g id="node8" class="node">
<title>SERVICE:orders_split</title>
<path fill="#eef6ff" stroke="black" d="M2541.5,-178C2541.5,-178 2473.75,-178 2473.75,-178 2467.75,-178 2461.75,-172 2461.75,-166 2461.75,-166 2461.75,-154 2461.75,-154 2461.75,-148 2467.75,-142 2473.75,-142 2473.75,-142 2541.5,-142 2541.5,-142 2547.5,-142 2553.5,-148 2553.5,-154 2553.5,-154 2553.5,-166 2553.5,-166 2553.5,-172 2547.5,-178 2541.5,-178"/>
<text text-anchor="middle" x="2507.62" y="-155.7" font-family="Times,serif" font-size="14.00">orders_split</text>
</g>
<!-- SERVICE:orders_split&#45;&gt;DATABASE:shared&#45;db -->
<g id="edge6" class="edge">
<title>SERVICE:orders_split&#45;&gt;DATABASE:shared&#45;db</title>
<g id="a_edge6"><a xlink:title="edge#5">
<path fill="none" stroke="black" d="M2553.74,-155.7C2591.11,-151.05 2645.05,-141.77 2689.25,-124 2697.59,-120.65 2706.03,-116.07 2713.8,-111.28"/>
<polygon fill="black" stroke="black" points="2715.47,-114.37 2721.96,-105.99 2711.66,-108.49 2715.47,-114.37"/>
</a>
</g>
<text text-anchor="middle" x="2630.38" y="-156.7" font-family="Times,serif" font-size="14.00">CALLS [rest] (sync)</text>
</g>
<!-- SERVICE:bff -->
<g id="node9" class="node">
<title>SERVICE:bff</title>
<path fill="#eef6ff" stroke="black" d="M484.12,-132C484.12,-132 454.12,-132 454.12,-132 448.12,-132 442.12,-126 442.12,-120 442.12,-120 442.12,-108 442.12,-108 442.12,-102 448.12,-96 454.12,-96 454.12,-96 484.12,-96 484.12,-96 490.12,-96 496.12,-102 496.12,-108 496.12,-108 496.12,-120 496.12,-120 496.12,-126 490.12,-132 484.12,-132"/>
<text text-anchor="middle" x="469.12" y="-109.7" font-family="Times,serif" font-size="14.00">bff</text>
</g>
<!-- SERVICE:bff&#45;&gt;SERVICE:payments -->
<g id="edge9" class="edge">
<title>SERVICE:bff&#45;&gt;SERVICE:payments</title>
<g id="a_edge9"><a xlink:title="edge#8">
<path fill="none" stroke="black" d="M496.42,-116.6C508.08,-117.72 521.97,-118.99 534.5,-120 750.52,-137.39 805.02,-135.12 1021,-153 1084.75,-158.28 1101.02,-157.27 1164.25,-167 1172.67,-168.3 1181.56,-169.93 1190.18,-171.65"/>
<polygon fill="black" stroke="black" points="1189.3,-175.04 1199.8,-173.64 1190.72,-168.19 1189.3,-175.04"/>
</a>
</g>
<text text-anchor="middle" x="876.38" y="-150.7" font-family="Times,serif" font-size="14.00">CALLS [rest] (sync)</text>
</g>
<!-- SERVICE:bff_split&#45;1 -->
<g id="node11" class="node">
<title>SERVICE:bff_split&#45;1</title>
<path fill="#eef6ff" stroke="black" d="M762.75,-106C762.75,-106 707,-106 707,-106 701,-106 695,-100 695,-94 695,-94 695,-82 695,-82 695,-76 701,-70 707,-70 707,-70 762.75,-70 762.75,-70 768.75,-70 774.75,-76 774.75,-82 774.75,-82 774.75,-94 774.75,-94 774.75,-100 768.75,-106 762.75,-106"/>
<text text-anchor="middle" x="734.88" y="-83.7" font-family="Times,serif" font-size="14.00">bff_split&#45;1</text>
</g>
<!-- SERVICE:bff&#45;&gt;SERVICE:bff_split&#45;1 -->
<g id="edge21" class="edge">
<title>SERVICE:bff&#45;&gt;SERVICE:bff_split&#45;1</title>
<g id="a_edge21"><a xlink:title="edge#20">
<path fill="none" stroke="black" d="M496.33,-108.41C507.97,-106.11 521.87,-103.62 534.5,-102 584.94,-95.55 642.96,-91.9 683.35,-89.95"/>
<polygon fill="black" stroke="black" points="683.44,-93.45 693.27,-89.49 683.12,-86.46 683.44,-93.45"/>
</a>
</g>
<text text-anchor="middle" x="593.38" y="-106.7" font-family="Times,serif" font-size="14.00">CALLS [rest] (sync)</text>
</g>
<!-- SERVICE:bff&#45;1 -->
<g id="node10" class="node">
<title>SERVICE:bff&#45;1</title>
<path fill="#eef6ff" stroke="black" d="M256,-132C256,-132 226,-132 226,-132 220,-132 214,-126 214,-120 214,-120 214,-108 214,-108 214,-102 220,-96 226,-96 226,-96 256,-96 256,-96 262,-96 268,-102 268,-108 268,-108 268,-120 268,-120 268,-126 262,-132 256,-132"/>
<text text-anchor="middle" x="241" y="-109.7" font-family="Times,serif" font-size="14.00">bff&#45;1</text>
</g>
<!-- SERVICE:bff&#45;1&#45;&gt;SERVICE:bff -->
<g id="edge17" class="edge">
<title>SERVICE:bff&#45;1&#45;&gt;SERVICE:bff</title>
<g id="a_edge17"><a xlink:title="edge#16">
<path fill="none" stroke="black" d="M268.38,-114C308.46,-114 384.87,-114 430.69,-114"/>
<polygon fill="black" stroke="black" points="430.4,-117.5 440.4,-114 430.4,-110.5 430.4,-117.5"/>
</a>
</g>
<text text-anchor="middle" x="344.88" y="-118.7" font-family="Times,serif" font-size="14.00">CALLS [rest] (sync)</text>
</g>
<!-- SERVICE:bff_split&#45;1&#45;&gt;SERVICE:auth -->
<g id="edge10" class="edge">
<title>SERVICE:bff_split&#45;1&#45;&gt;SERVICE:auth</title>
<g id="a_edge10"><a xlink:title="edge#9">
<path fill="none" stroke="black" d="M774.98,-88C822.4,-88 901.77,-88 948.51,-88"/>
<polygon fill="black" stroke="black" points="948.42,-91.5 958.42,-88 948.42,-84.5 948.42,-91.5"/>
</a>
</g>
<text text-anchor="middle" x="876.38" y="-92.7" font-family="Times,serif" font-size="14.00">CALLS [rest] (sync)</text>
</g>
<!-- SERVICE:bff_split -->
<g id="node20" class="node">
<title>SERVICE:bff_split</title>
<path fill="#eef6ff" stroke="black" d="M1009,-52C1009,-52 965.25,-52 965.25,-52 959.25,-52 953.25,-46 953.25,-40 953.25,-40 953.25,-28 953.25,-28 953.25,-22 959.25,-16 965.25,-16 965.25,-16 1009,-16 1009,-16 1015,-16 1021,-22 1021,-28 1021,-28 1021,-40 1021,-40 1021,-46 1015,-52 1009,-52"/>
<text text-anchor="middle" x="987.12" y="-29.7" font-family="Times,serif" font-size="14.00">bff_split</text>
</g>
<!-- SERVICE:bff_split&#45;1&#45;&gt;SERVICE:bff_split -->
<g id="edge15" class="edge">
<title>SERVICE:bff_split&#45;1&#45;&gt;SERVICE:bff_split</title>
<g id="a_edge15"><a xlink:title="edge#14">
<path fill="none" stroke="black" d="M775.17,-76.76C788.54,-73.11 803.62,-69.18 817.5,-66 859.51,-56.37 907.88,-47.4 942.01,-41.43"/>
<polygon fill="black" stroke="black" points="942.27,-44.94 951.52,-39.78 941.07,-38.04 942.27,-44.94"/>
</a>
</g>
<text text-anchor="middle" x="876.38" y="-70.7" font-family="Times,serif" font-size="14.00">CALLS [rest] (sync)</text>
</g>
<!-- SERVICE:web&#45;ui -->
<g id="node12" class="node">
<title>SERVICE:web&#45;ui</title>
<path fill="#eef6ff" stroke="black" d="M48.25,-132C48.25,-132 12,-132 12,-132 6,-132 0,-126 0,-120 0,-120 0,-108 0,-108 0,-102 6,-96 12,-96 12,-96 48.25,-96 48.25,-96 54.25,-96 60.25,-102 60.25,-108 60.25,-108 60.25,-120 60.25,-120 60.25,-126 54.25,-132 48.25,-132"/>
<text text-anchor="middle" x="30.12" y="-109.7" font-family="Times,serif" font-size="14.00">web&#45;ui</text>
</g>
<!-- SERVICE:web&#45;ui&#45;&gt;SERVICE:bff&#45;1 -->
<g id="edge16" class="edge">
<title>SERVICE:web&#45;ui&#45;&gt;SERVICE:bff&#45;1</title>
<g id="a_edge16"><a xlink:title="edge#15">
<path fill="none" stroke="black" d="M60.61,-114C97.76,-114 161.66,-114 202.32,-114"/>
<polygon fill="black" stroke="black" points="202.12,-117.5 212.12,-114 202.12,-110.5 202.12,-117.5"/>
</a>
</g>
<text text-anchor="middle" x="137.12" y="-118.7" font-family="Times,serif" font-size="14.00">CALLS [rest] (sync)</text>
</g>
<!-- SERVICE:catalog&#45;&gt;DATABASE:shared&#45;db -->
<g id="edge4" class="edge">
<title>SERVICE:catalog&#45;&gt;DATABASE:shared&#45;db</title>
<g id="a_edge4"><a xlink:title="edge#3">
<path fill="none" stroke="black" d="M1756.73,-18C1804.98,-18 1901.22,-18 1982.88,-18 1982.88,-18 1982.88,-18 2508.62,-18 2590.15,-18 2613.29,-20.4 2689.25,-50 2697.62,-53.26 2706.08,-57.8 2713.86,-62.59"/>
<polygon fill="black" stroke="black" points="2711.72,-65.37 2722.01,-67.88 2715.53,-59.5 2711.72,-65.37"/>
</a>
</g>
<text text-anchor="middle" x="2249.12" y="-22.7" font-family="Times,serif" font-size="14.00">CALLS [rest] (sync)</text>
</g>
<!-- SERVICE:inventory&#45;&gt;DATABASE:shared&#45;db -->
<g id="edge7" class="edge">
<title>SERVICE:inventory&#45;&gt;DATABASE:shared&#45;db</title>
<g id="a_edge7"><a xlink:title="edge#6">
<path fill="none" stroke="black" d="M1892.83,-111.53C1942.87,-110.93 2034.29,-110 2112.38,-110 2112.38,-110 2112.38,-110 2508.62,-110 2573.22,-110 2647.2,-101.55 2695.44,-94.89"/>
<polygon fill="black" stroke="black" points="2695.92,-98.36 2705.33,-93.5 2694.94,-91.43 2695.92,-98.36"/>
</a>
</g>
<text text-anchor="middle" x="2249.12" y="-114.7" font-family="Times,serif" font-size="14.00">CALLS [rest] (sync)</text>
</g>
<!-- SERVICE:web&#45;ui_split -->
<g id="node15" class="node">
<title>SERVICE:web&#45;ui_split</title>
<path fill="#eef6ff" stroke="black" d="M504.5,-198C504.5,-198 433.75,-198 433.75,-198 427.75,-198 421.75,-192 421.75,-186 421.75,-186 421.75,-174 421.75,-174 421.75,-168 427.75,-162 433.75,-162 433.75,-162 504.5,-162 504.5,-162 510.5,-162 516.5,-168 516.5,-174 516.5,-174 516.5,-186 516.5,-186 516.5,-192 510.5,-198 504.5,-198"/>
<text text-anchor="middle" x="469.12" y="-175.7" font-family="Times,serif" font-size="14.00">web&#45;ui_split</text>
</g>
<!-- SERVICE:bff&#45;3 -->
<g id="node22" class="node">
<title>SERVICE:bff&#45;3</title>
<path fill="#eef6ff" stroke="black" d="M749.88,-198C749.88,-198 719.88,-198 719.88,-198 713.88,-198 707.88,-192 707.88,-186 707.88,-186 707.88,-174 707.88,-174 707.88,-168 713.88,-162 719.88,-162 719.88,-162 749.88,-162 749.88,-162 755.88,-162 761.88,-168 761.88,-174 761.88,-174 761.88,-186 761.88,-186 761.88,-192 755.88,-198 749.88,-198"/>
<text text-anchor="middle" x="734.88" y="-175.7" font-family="Times,serif" font-size="14.00">bff&#45;3</text>
</g>
<!-- SERVICE:web&#45;ui_split&#45;&gt;SERVICE:bff&#45;3 -->
<g id="edge25" class="edge">
<title>SERVICE:web&#45;ui_split&#45;&gt;SERVICE:bff&#45;3</title>
<g id="a_edge25"><a xlink:title="edge#24">
<path fill="none" stroke="black" d="M516.97,-180C568.15,-180 649.1,-180 696.29,-180"/>
<polygon fill="black" stroke="black" points="696.01,-183.5 706.01,-180 696.01,-176.5 696.01,-183.5"/>
</a>
</g>
<text text-anchor="middle" x="593.38" y="-184.7" font-family="Times,serif" font-size="14.00">CALLS [rest] (sync)</text>
</g>
<!-- SERVICE:orders_split&#45;1&#45;&gt;SERVICE:orders_split -->
<g id="edge8" class="edge">
<title>SERVICE:orders_split&#45;1&#45;&gt;SERVICE:orders_split</title>
<g id="a_edge8"><a xlink:title="edge#7">
<path fill="none" stroke="black" d="M2301.42,-163.2C2344.36,-162.53 2405.58,-161.58 2449.96,-160.88"/>
<polygon fill="black" stroke="black" points="2449.97,-164.38 2459.92,-160.73 2449.87,-157.38 2449.97,-164.38"/>
</a>
</g>
<text text-anchor="middle" x="2384.88" y="-166.7" font-family="Times,serif" font-size="14.00">CALLS [rest] (sync)</text>
</g>
<!-- SERVICE:bff&#45;2 -->
<g id="node17" class="node">
<title>SERVICE:bff&#45;2</title>
<path fill="#eef6ff" stroke="black" d="M1002.12,-198C1002.12,-198 972.12,-198 972.12,-198 966.12,-198 960.12,-192 960.12,-186 960.12,-186 960.12,-174 960.12,-174 960.12,-168 966.12,-162 972.12,-162 972.12,-162 1002.12,-162 1002.12,-162 1008.12,-162 1014.12,-168 1014.12,-174 1014.12,-174 1014.12,-186 1014.12,-186 1014.12,-192 1008.12,-198 1002.12,-198"/>
<text text-anchor="middle" x="987.12" y="-175.7" font-family="Times,serif" font-size="14.00">bff&#45;2</text>
</g>
<!-- SERVICE:bff&#45;2&#45;&gt;SERVICE:payments -->
<g id="edge18" class="edge">
<title>SERVICE:bff&#45;2&#45;&gt;SERVICE:payments</title>
<g id="a_edge18"><a xlink:title="edge#17">
<path fill="none" stroke="black" d="M1014.48,-176.3C1022.35,-175.35 1031.01,-174.47 1039,-174 1094.57,-170.73 1108.68,-170.72 1164.25,-174 1172.53,-174.49 1181.3,-175.28 1189.82,-176.19"/>
<polygon fill="black" stroke="black" points="1189.38,-179.66 1199.71,-177.32 1190.17,-172.71 1189.38,-179.66"/>
</a>
</g>
<text text-anchor="middle" x="1101.62" y="-178.7" font-family="Times,serif" font-size="14.00">CALLS [rest] (sync)</text>
</g>
<!-- SERVICE:bff&#45;2_split -->
<g id="node19" class="node">
<title>SERVICE:bff&#45;2_split</title>
<path fill="#eef6ff" stroke="black" d="M1269.75,-119C1269.75,-119 1212.5,-119 1212.5,-119 1206.5,-119 1200.5,-113 1200.5,-107 1200.5,-107 1200.5,-95 1200.5,-95 1200.5,-89 1206.5,-83 1212.5,-83 1212.5,-83 1269.75,-83 1269.75,-83 1275.75,-83 1281.75,-89 1281.75,-95 1281.75,-95 1281.75,-107 1281.75,-107 1281.75,-113 1275.75,-119 1269.75,-119"/>
<text text-anchor="middle" x="1241.12" y="-96.7" font-family="Times,serif" font-size="14.00">bff&#45;2_split</text>
</g>
<!-- SERVICE:bff&#45;2&#45;&gt;SERVICE:bff&#45;2_split -->
<g id="edge24" class="edge">
<title>SERVICE:bff&#45;2&#45;&gt;SERVICE:bff&#45;2_split</title>
<g id="a_edge24"><a xlink:title="edge#23">
<path fill="none" stroke="black" d="M1014.49,-161.79C1022.14,-157.11 1030.68,-152.43 1039,-149 1088,-128.82 1147.37,-115.95 1188.85,-108.67"/>
<polygon fill="black" stroke="black" points="1189.29,-112.15 1198.56,-107.02 1188.12,-105.25 1189.29,-112.15"/>
</a>
</g>
<text text-anchor="middle" x="1101.62" y="-153.7" font-family="Times,serif" font-size="14.00">CALLS [rest] (sync)</text>
</g>
<!-- SERVICE:bff_split_split -->
<g id="node18" class="node">
<title>SERVICE:bff_split_split</title>
<path fill="#eef6ff" stroke="black" d="M1280.25,-62C1280.25,-62 1202,-62 1202,-62 1196,-62 1190,-56 1190,-50 1190,-50 1190,-38 1190,-38 1190,-32 1196,-26 1202,-26 1202,-26 1280.25,-26 1280.25,-26 1286.25,-26 1292.25,-32 1292.25,-38 1292.25,-38 1292.25,-50 1292.25,-50 1292.25,-56 1286.25,-62 1280.25,-62"/>
<text text-anchor="middle" x="1241.12" y="-39.7" font-family="Times,serif" font-size="14.00">bff_split_split</text>
</g>
<!-- SERVICE:bff_split_split&#45;&gt;SERVICE:orders -->
<g id="edge13" class="edge">
<title>SERVICE:bff_split_split&#45;&gt;SERVICE:orders</title>
<g id="a_edge13"><a xlink:title="edge#12">
<path fill="none" stroke="black" d="M1283.89,-62.47C1289.6,-65.89 1295.16,-69.74 1300,-74 1310.55,-83.29 1306.08,-92.56 1318,-100 1365.77,-129.81 1392.77,-94.06 1443.25,-119 1452.04,-123.34 1460.24,-130 1467.2,-136.82"/>
<polygon fill="black" stroke="black" points="1464.29,-138.84 1473.71,-143.69 1469.37,-134.03 1464.29,-138.84"/>
</a>
</g>
<text text-anchor="middle" x="1380.62" y="-123.7" font-family="Times,serif" font-size="14.00">CALLS [rest] (sync)</text>
</g>
<!-- SERVICE:bff_split_split&#45;&gt;SERVICE:cart -->
<g id="edge12" class="edge">
<title>SERVICE:bff_split_split&#45;&gt;SERVICE:cart</title>
<g id="a_edge12"><a xlink:title="edge#11">
<path fill="none" stroke="black" d="M1292.39,-39C1333.24,-35.96 1392.24,-33.87 1443.25,-41 1445.93,-41.37 1448.68,-41.87 1451.43,-42.44"/>
<polygon fill="black" stroke="black" points="1450.59,-45.84 1461.13,-44.81 1452.25,-39.04 1450.59,-45.84"/>
</a>
</g>
<text text-anchor="middle" x="1380.62" y="-45.7" font-family="Times,serif" font-size="14.00">CALLS [rest] (sync)</text>
</g>
<!-- SERVICE:bff&#45;2_split&#45;&gt;SERVICE:orders -->
<g id="edge20" class="edge">
<title>SERVICE:bff&#45;2_split&#45;&gt;SERVICE:orders</title>
<g id="a_edge20"><a xlink:title="edge#19">
<path fill="none" stroke="black" d="M1270.96,-119.33C1284.7,-127.23 1301.67,-135.83 1318,-141 1341.72,-148.51 1406.77,-155.55 1449.42,-159.56"/>
<polygon fill="black" stroke="black" points="1449.01,-163.04 1459.29,-160.47 1449.66,-156.07 1449.01,-163.04"/>
</a>
</g>
<text text-anchor="middle" x="1380.62" y="-162.7" font-family="Times,serif" font-size="14.00">CALLS [rest] (sync)</text>
</g>
<!-- SERVICE:bff&#45;2_split&#45;&gt;SERVICE:cart -->
<g id="edge19" class="edge">
<title>SERVICE:bff&#45;2_split&#45;&gt;SERVICE:cart</title>
<g id="a_edge19"><a xlink:title="edge#18">
<path fill="none" stroke="black" d="M1282.15,-90.32C1293.67,-87.42 1306.3,-84.42 1318,-82 1363.62,-72.57 1416.63,-64.29 1451.36,-59.23"/>
<polygon fill="black" stroke="black" points="1451.51,-62.75 1460.91,-57.86 1450.51,-55.82 1451.51,-62.75"/>
</a>
</g>
<text text-anchor="middle" x="1380.62" y="-86.7" font-family="Times,serif" font-size="14.00">CALLS [rest] (sync)</text>
</g>
<!-- SERVICE:bff_split&#45;&gt;SERVICE:catalog -->
<g id="edge11" class="edge">
<title>SERVICE:bff_split&#45;&gt;SERVICE:catalog</title>
<g id="a_edge11"><a xlink:title="edge#10">
<path fill="none" stroke="black" d="M1021.4,-30.42C1060.02,-26.42 1125.67,-20.1 1182.25,-17 1391.72,-5.53 1444.55,-7.98 1654.25,-14 1663.09,-14.25 1672.54,-14.69 1681.55,-15.18"/>
<polygon fill="black" stroke="black" points="1681.35,-18.67 1691.53,-15.76 1681.75,-11.68 1681.35,-18.67"/>
</a>
</g>
<text text-anchor="middle" x="1380.62" y="-15.7" font-family="Times,serif" font-size="14.00">CALLS [rest] (sync)</text>
</g>
<!-- SERVICE:bff_split&#45;&gt;SERVICE:bff_split_split -->
<g id="edge22" class="edge">
<title>SERVICE:bff_split&#45;&gt;SERVICE:bff_split_split</title>
<g id="a_edge22"><a xlink:title="edge#21">
<path fill="none" stroke="black" d="M1021.33,-35.32C1061.25,-36.9 1129.07,-39.59 1178.64,-41.56"/>
<polygon fill="black" stroke="black" points="1178.23,-45.05 1188.36,-41.95 1178.51,-38.05 1178.23,-45.05"/>
</a>
</g>
<text text-anchor="middle" x="1101.62" y="-44.7" font-family="Times,serif" font-size="14.00">CALLS [rest] (async)</text>
</g>
<!-- SERVICE:web&#45;ui_split_split -->
<g id="node21" class="node">
<title>SERVICE:web&#45;ui_split_split</title>
<path fill="#eef6ff" stroke="black" d="M787.5,-255C787.5,-255 682.25,-255 682.25,-255 676.25,-255 670.25,-249 670.25,-243 670.25,-243 670.25,-231 670.25,-231 670.25,-225 676.25,-219 682.25,-219 682.25,-219 787.5,-219 787.5,-219 793.5,-219 799.5,-225 799.5,-231 799.5,-231 799.5,-243 799.5,-243 799.5,-249 793.5,-255 787.5,-255"/>
<text text-anchor="middle" x="734.88" y="-232.7" font-family="Times,serif" font-size="14.00">web&#45;ui_split_split</text>
</g>
<!-- SERVICE:web&#45;ui_split_split&#45;&gt;SERVICE:bff&#45;4 -->
<g id="edge27" class="edge">
<title>SERVICE:web&#45;ui_split_split&#45;&gt;SERVICE:bff&#45;4</title>
<g id="a_edge27"><a xlink:title="edge#26">
<path fill="none" stroke="black" d="M800,-237C846.98,-237 909.16,-237 948.41,-237"/>
<polygon fill="black" stroke="black" points="948.3,-240.5 958.3,-237 948.29,-233.5 948.3,-240.5"/>
</a>
</g>
<text text-anchor="middle" x="876.38" y="-241.7" font-family="Times,serif" font-size="14.00">CALLS [rest] (sync)</text>
</g>
<!-- SERVICE:bff&#45;3&#45;&gt;SERVICE:bff&#45;2 -->
<g id="edge26" class="edge">
<title>SERVICE:bff&#45;3&#45;&gt;SERVICE:bff&#45;2</title>
<g id="a_edge26"><a xlink:title="edge#25">
<path fill="none" stroke="black" d="M762.18,-180C806.77,-180 897.33,-180 948.57,-180"/>
<polygon fill="black" stroke="black" points="948.28,-183.5 958.28,-180 948.28,-176.5 948.28,-183.5"/>
</a>
</g>
<text text-anchor="middle" x="876.38" y="-184.7" font-family="Times,serif" font-size="14.00">CALLS [rest] (sync)</text>
</g>
<!-- SERVICE:orders_split&#45;3&#45;&gt;SERVICE:orders_split&#45;2 -->
<g id="edge23" class="edge">
<title>SERVICE:orders_split&#45;3&#45;&gt;SERVICE:orders_split&#45;2</title>
<g id="a_edge23"><a xlink:title="edge#22">
<path fill="none" stroke="black" d="M1777.88,-164C1818.81,-164 1876.02,-164 1919.61,-164"/>
<polygon fill="black" stroke="black" points="1919.43,-167.5 1929.43,-164 1919.43,-160.5 1919.43,-167.5"/>
</a>
</g>
<text text-anchor="middle" x="1854.38" y="-168.7" font-family="Times,serif" font-size="14.00">CALLS [rest] (sync)</text>
</g>
</g>
</svg>
