<?xml version="1.0" encoding="UTF-8" standalone="no"?>
<!DOCTYPE svg PUBLIC "-//W3C//DTD SVG 1.1//EN"
 "http://www.w3.org/Graphics/SVG/1.1/DTD/svg11.dtd">
<!-- Generated by graphviz version 9.0.0 (20230911.1827)
 -->
<!-- Title: G Pages: 1 -->
<svg width="601pt" height="245pt"
 viewBox="0.00 0.00 600.50 245.00" xmlns="http://www.w3.org/2000/svg" xmlns:xlink="http://www.w3.org/1999/xlink">
<g id="graph0" class="graph" transform="scale(1 1) rotate(0) translate(4 241)">
<title>G</title>
<polygon fill="white" stroke="none" points="-4,4 -4,-241 596.5,-241 596.5,4 -4,4"/>
<text text-anchor="middle" x="296.25" y="-219.7" font-family="Helvetica,sans-Serif" font-size="14.00">Architecture</text>
<!-- SERVICE:service:auth -->
<g id="node1" class="node">
<title>SERVICE:service:auth</title>
<path fill="#eef6ff" stroke="black" d="M571.12,-90C571.12,-90 492.88,-90 492.88,-90 486.88,-90 480.88,-84 480.88,-78 480.88,-78 480.88,-66 480.88,-66 480.88,-60 486.88,-54 492.88,-54 492.88,-54 571.12,-54 571.12,-54 577.12,-54 583.12,-60 583.12,-66 583.12,-66 583.12,-78 583.12,-78 583.12,-84 577.12,-90 571.12,-90"/>
<text text-anchor="middle" x="532" y="-67.7" font-family="Times,serif" font-size="14.00">SERVICE:auth</text>
</g>
<!-- SERVICE:service:catalog -->
<g id="node2" class="node">
<title>SERVICE:service:catalog</title>
<path fill="#eef6ff" stroke="black" d="M580.5,-36C580.5,-36 483.5,-36 483.5,-36 477.5,-36 471.5,-30 471.5,-24 471.5,-24 471.5,-12 471.5,-12 471.5,-6 477.5,0 483.5,0 483.5,0 580.5,0 580.5,0 586.5,0 592.5,-6 592.5,-12 592.5,-12 592.5,-24 592.5,-24 592.5,-30 586.5,-36 580.5,-36"/>
<text text-anchor="middle" x="532" y="-13.7" font-family="Times,serif" font-size="14.00">SERVICE:catalog</text>
</g>
<!-- SERVICE:web -->
<g id="node3" class="node">
<title>SERVICE:web</title>
<path fill="#eef6ff" stroke="black" d="M65.38,-184C65.38,-184 35.38,-184 35.38,-184 29.38,-184 23.38,-178 23.38,-172 23.38,-172 23.38,-160 23.38,-160 23.38,-154 29.38,-148 35.38,-148 35.38,-148 65.38,-148 65.38,-148 71.38,-148 77.38,-154 77.38,-160 77.38,-160 77.38,-172 77.38,-172 77.38,-178 71.38,-184 65.38,-184"/>
<text text-anchor="middle" x="50.38" y="-161.7" font-family="Times,serif" font-size="14.00">web</text>
</g>
<!-- SERVICE:auth -->
<g id="node4" class="node">
<title>SERVICE:auth</title>
<path fill="#eef6ff" stroke="black" d="M301.12,-211C301.12,-211 271.12,-211 271.12,-211 265.12,-211 259.12,-205 259.12,-199 259.12,-199 259.12,-187 259.12,-187 259.12,-181 265.12,-175 271.12,-175 271.12,-175 301.12,-175 301.12,-175 307.12,-175 313.12,-181 313.12,-187 313.12,-187 313.12,-199 313.12,-199 313.12,-205 307.12,-211 301.12,-211"/>
<text text-anchor="middle" x="286.12" y="-188.7" font-family="Times,serif" font-size="14.00">auth</text>
</g>
<!-- SERVICE:web&#45;&gt;SERVICE:auth -->
<g id="edge1" class="edge">
<title>SERVICE:web&#45;&gt;SERVICE:auth</title>
<g id="a_edge1"><a xlink:title="edge#0">
<path fill="none" stroke="black" d="M77.73,-169.04C119.23,-173.84 199.95,-183.16 247.52,-188.66"/>
<polygon fill="black" stroke="black" points="247.02,-192.12 257.36,-189.79 247.83,-185.17 247.02,-192.12"/>
</a>
</g>
<text text-anchor="middle" x="177.62" y="-191.7" font-family="Times,serif" font-size="14.00">CALLS [rest] (sync)</text>
</g>
<!-- SERVICE:catalog -->
<g id="node5" class="node">
<title>SERVICE:catalog</title>
<path fill="#eef6ff" stroke="black" d="M305.75,-157C305.75,-157 266.5,-157 266.5,-157 260.5,-157 254.5,-151 254.5,-145 254.5,-145 254.5,-133 254.5,-133 254.5,-127 260.5,-121 266.5,-121 266.5,-121 305.75,-121 305.75,-121 311.75,-121 317.75,-127 317.75,-133 317.75,-133 317.75,-145 317.75,-145 317.75,-151 311.75,-157 305.75,-157"/>
<text text-anchor="middle" x="286.12" y="-134.7" font-family="Times,serif" font-size="14.00">catalog</text>
</g>
<!-- SERVICE:web&#45;&gt;SERVICE:catalog -->
<g id="edge2" class="edge">
<title>SERVICE:web&#45;&gt;SERVICE:catalog</title>
<g id="a_edge2"><a xlink:title="edge#1">
<path fill="none" stroke="black" d="M77.77,-159.18C90.13,-156.23 105.11,-153 118.75,-151 160.66,-144.86 208.98,-141.82 242.72,-140.34"/>
<polygon fill="black" stroke="black" points="242.65,-143.84 252.49,-139.94 242.36,-136.85 242.65,-143.84"/>
</a>
</g>
<text text-anchor="middle" x="177.62" y="-155.7" font-family="Times,serif" font-size="14.00">CALLS [rest] (sync)</text>
</g>
<!-- SERVICE:database -->
<g id="node6" class="node">
<title>SERVICE:database</title>
<path fill="#eef6ff" stroke="black" d="M557.25,-157C557.25,-157 506.75,-157 506.75,-157 500.75,-157 494.75,-151 494.75,-145 494.75,-145 494.75,-133 494.75,-133 494.75,-127 500.75,-121 506.75,-121 506.75,-121 557.25,-121 557.25,-121 563.25,-121 569.25,-127 569.25,-133 569.25,-133 569.25,-145 569.25,-145 569.25,-151 563.25,-157 557.25,-157"/>
<text text-anchor="middle" x="532" y="-134.7" font-family="Times,serif" font-size="14.00">database</text>
</g>
<!-- SERVICE:catalog&#45;&gt;SERVICE:database -->
<g id="edge3" class="edge">
<title>SERVICE:catalog&#45;&gt;SERVICE:database</title>
<g id="a_edge3"><a xlink:title="edge#2">
<path fill="none" stroke="black" d="M318.01,-139C359.66,-139 434.24,-139 483.17,-139"/>
<polygon fill="black" stroke="black" points="482.9,-142.5 492.9,-139 482.9,-135.5 482.9,-142.5"/>
</a>
</g>
<text text-anchor="middle" x="394.62" y="-143.7" font-family="Times,serif" font-size="14.00">CALLS [rest] (sync)</text>
</g>
<!-- SERVICE:bff -->
<g id="node7" class="node">
<title>SERVICE:bff</title>
<path fill="#eef6ff" stroke="black" d="M301.12,-76C301.12,-76 271.12,-76 271.12,-76 265.12,-76 259.12,-70 259.12,-64 259.12,-64 259.12,-52 259.12,-52 259.12,-46 265.12,-40 271.12,-40 271.12,-40 301.12,-40 301.12,-40 307.12,-40 313.12,-46 313.12,-52 313.12,-52 313.12,-64 313.12,-64 313.12,-70 307.12,-76 301.12,-76"/>
<text text-anchor="middle" x="286.12" y="-53.7" font-family="Times,serif" font-size="14.00">bff</text>
</g>
<!-- SERVICE:bff&#45;&gt;SERVICE:service:auth -->
<g id="edge5" class="edge">
<title>SERVICE:bff&#45;&gt;SERVICE:service:auth</title>
<g id="a_edge5"><a xlink:title="edge#4">
<path fill="none" stroke="black" d="M313.22,-59.5C350.16,-61.62 418.79,-65.56 469.16,-68.45"/>
<polygon fill="black" stroke="black" points="468.88,-71.94 479.07,-69.02 469.29,-64.95 468.88,-71.94"/>
</a>
</g>
<text text-anchor="middle" x="394.62" y="-71.7" font-family="Times,serif" font-size="14.00">CALLS [rest] (sync)</text>
</g>
<!-- SERVICE:bff&#45;&gt;SERVICE:service:catalog -->
<g id="edge6" class="edge">
<title>SERVICE:bff&#45;&gt;SERVICE:service:catalog</title>
<g id="a_edge6"><a xlink:title="edge#5">
<path fill="none" stroke="black" d="M313.46,-46.24C320.58,-43.48 328.35,-40.81 335.75,-39 376.27,-29.09 422.65,-23.86 460.04,-21.09"/>
<polygon fill="black" stroke="black" points="460.09,-24.6 469.83,-20.42 459.61,-17.62 460.09,-24.6"/>
</a>
</g>
<text text-anchor="middle" x="394.62" y="-43.7" font-family="Times,serif" font-size="14.00">CALLS [rest] (sync)</text>
</g>
<!-- SERVICE:service:web -->
<g id="node8" class="node">
<title>SERVICE:service:web</title>
<path fill="#eef6ff" stroke="black" d="M88.75,-76C88.75,-76 12,-76 12,-76 6,-76 0,-70 0,-64 0,-64 0,-52 0,-52 0,-46 6,-40 12,-40 12,-40 88.75,-40 88.75,-40 94.75,-40 100.75,-46 100.75,-52 100.75,-52 100.75,-64 100.75,-64 100.75,-70 94.75,-76 88.75,-76"/>
<text text-anchor="middle" x="50.38" y="-53.7" font-family="Times,serif" font-size="14.00">SERVICE:web</text>
</g>
<!-- SERVICE:service:web&#45;&gt;SERVICE:bff -->
<g id="edge4" class="edge">
<title>SERVICE:service:web&#45;&gt;SERVICE:bff</title>
<g id="a_edge4"><a xlink:title="edge#3">
<path fill="none" stroke="black" d="M101.23,-58C145.07,-58 207.91,-58 247.61,-58"/>
<polygon fill="black" stroke="black" points="247.38,-61.5 257.38,-58 247.38,-54.5 247.38,-61.5"/>
</a>
</g>
<text text-anchor="middle" x="177.62" y="-62.7" font-family="Times,serif" font-size="14.00">CALLS [rest] (sync)</text>
</g>
</g>
</svg>
