<?xml version="1.0" encoding="UTF-8" standalone="no"?>
<!DOCTYPE svg PUBLIC "-//W3C//DTD SVG 1.1//EN"
 "http://www.w3.org/Graphics/SVG/1.1/DTD/svg11.dtd">
<!-- Generated by graphviz version 9.0.0 (20230911.1827)
 -->
<!-- Title: G Pages: 1 -->
<svg width="1386pt" height="270pt"
 viewBox="0.00 0.00 1385.50 270.00" xmlns="http://www.w3.org/2000/svg" xmlns:xlink="http://www.w3.org/1999/xlink">
<g id="graph0" class="graph" transform="scale(1 1) rotate(0) translate(4 266)">
<title>G</title>
<polygon fill="white" stroke="none" points="-4,4 -4,-266 1381.5,-266 1381.5,4 -4,4"/>
<text text-anchor="middle" x="688.75" y="-244.7" font-family="Helvetica,sans-Serif" font-size="14.00">Architecture</text>
<!-- SERVICE:web page -->
<g id="node1" class="node">
<title>SERVICE:web page</title>
<path fill="#eef6ff" stroke="black" d="M354.5,-90C354.5,-90 301,-90 301,-90 295,-90 289,-84 289,-78 289,-78 289,-66 289,-66 289,-60 295,-54 301,-54 301,-54 354.5,-54 354.5,-54 360.5,-54 366.5,-60 366.5,-66 366.5,-66 366.5,-78 366.5,-78 366.5,-84 360.5,-90 354.5,-90"/>
<text text-anchor="middle" x="327.75" y="-67.7" font-family="Times,serif" font-size="14.00">web page</text>
</g>
<!-- SERVICE:payments -->
<g id="node2" class="node">
<title>SERVICE:payments</title>
<path fill="#eef6ff" stroke="black" d="M1117.88,-124C1117.88,-124 1062.88,-124 1062.88,-124 1056.88,-124 1050.88,-118 1050.88,-112 1050.88,-112 1050.88,-100 1050.88,-100 1050.88,-94 1056.88,-88 1062.88,-88 1062.88,-88 1117.88,-88 1117.88,-88 1123.88,-88 1129.88,-94 1129.88,-100 1129.88,-100 1129.88,-112 1129.88,-112 1129.88,-118 1123.88,-124 1117.88,-124"/>
<text text-anchor="middle" x="1090.38" y="-101.7" font-family="Times,serif" font-size="14.00">payments</text>
</g>
<!-- SERVICE:web page&#45;&gt;SERVICE:payments -->
<g id="edge4" class="edge">
<title>SERVICE:web page&#45;&gt;SERVICE:payments</title>
<g id="a_edge4"><a xlink:title="edge#3">
<path fill="none" stroke="black" d="M367,-81.08C372.83,-82.22 378.81,-83.25 384.5,-84 444.39,-91.94 459.89,-88.4 520.25,-91 687.08,-98.19 728.8,-100.25 895.75,-104 944.44,-105.09 1000.02,-105.59 1039.11,-105.82"/>
<polygon fill="black" stroke="black" points="1038.9,-109.31 1048.92,-105.87 1038.93,-102.31 1038.9,-109.31"/>
</a>
</g>
<text text-anchor="middle" x="743.62" y="-105.7" font-family="Times,serif" font-size="14.00">CALLS [rest] (sync)</text>
</g>
<!-- SERVICE:restaurants -->
<g id="node8" class="node">
<title>SERVICE:restaurants</title>
<path fill="#eef6ff" stroke="black" d="M625.88,-36C625.88,-36 561.12,-36 561.12,-36 555.12,-36 549.12,-30 549.12,-24 549.12,-24 549.12,-12 549.12,-12 549.12,-6 555.12,0 561.12,0 561.12,0 625.88,0 625.88,0 631.88,0 637.88,-6 637.88,-12 637.88,-12 637.88,-24 637.88,-24 637.88,-30 631.88,-36 625.88,-36"/>
<text text-anchor="middle" x="593.5" y="-13.7" font-family="Times,serif" font-size="14.00">restaurants</text>
</g>
<!-- SERVICE:web page&#45;&gt;SERVICE:restaurants -->
<g id="edge3" class="edge">
<title>SERVICE:web page&#45;&gt;SERVICE:restaurants</title>
<g id="a_edge3"><a xlink:title="edge#2">
<path fill="none" stroke="black" d="M355.48,-53.66C364.35,-48.41 374.52,-43.23 384.5,-40 434.66,-23.75 494.82,-18.86 537.52,-17.67"/>
<polygon fill="black" stroke="black" points="537.36,-21.17 547.28,-17.46 537.21,-14.17 537.36,-21.17"/>
</a>
</g>
<text text-anchor="middle" x="443.38" y="-44.7" font-family="Times,serif" font-size="14.00">CALLS [rest] (sync)</text>
</g>
<!-- SERVICE:database -->
<g id="node9" class="node">
<title>SERVICE:database</title>
<path fill="#eef6ff" stroke="black" d="M1365.5,-70C1365.5,-70 1315,-70 1315,-70 1309,-70 1303,-64 1303,-58 1303,-58 1303,-46 1303,-46 1303,-40 1309,-34 1315,-34 1315,-34 1365.5,-34 1365.5,-34 1371.5,-34 1377.5,-40 1377.5,-46 1377.5,-46 1377.5,-58 1377.5,-58 1377.5,-64 1371.5,-70 1365.5,-70"/>
<text text-anchor="middle" x="1340.25" y="-47.7" font-family="Times,serif" font-size="14.00">database</text>
</g>
<!-- SERVICE:payments&#45;&gt;SERVICE:database -->
<g id="edge7" class="edge">
<title>SERVICE:payments&#45;&gt;SERVICE:database</title>
<g id="a_edge7"><a xlink:title="edge#6">
<path fill="none" stroke="black" d="M1130.07,-98.58C1169.24,-90.94 1231.5,-78.42 1285,-66 1287.13,-65.51 1289.31,-64.99 1291.5,-64.46"/>
<polygon fill="black" stroke="black" points="1292.2,-67.89 1301.07,-62.1 1290.52,-61.1 1292.2,-67.89"/>
</a>
</g>
<text text-anchor="middle" x="1226.12" y="-94.7" font-family="Times,serif" font-size="14.00">CALLS [rest] (sync)</text>
</g>
<!-- SERVICE:service:web page -->
<g id="node3" class="node">
<title>SERVICE:service:web page</title>
<path fill="#eef6ff" stroke="black" d="M123.25,-209C123.25,-209 12,-209 12,-209 6,-209 0,-203 0,-197 0,-197 0,-185 0,-185 0,-179 6,-173 12,-173 12,-173 123.25,-173 123.25,-173 129.25,-173 135.25,-179 135.25,-185 135.25,-185 135.25,-197 135.25,-197 135.25,-203 129.25,-209 123.25,-209"/>
<text text-anchor="middle" x="67.62" y="-186.7" font-family="Times,serif" font-size="14.00">SERVICE:web page</text>
</g>
<!-- SERVICE:bff -->
<g id="node10" class="node">
<title>SERVICE:bff</title>
<path fill="#eef6ff" stroke="black" d="M342.75,-209C342.75,-209 312.75,-209 312.75,-209 306.75,-209 300.75,-203 300.75,-197 300.75,-197 300.75,-185 300.75,-185 300.75,-179 306.75,-173 312.75,-173 312.75,-173 342.75,-173 342.75,-173 348.75,-173 354.75,-179 354.75,-185 354.75,-185 354.75,-197 354.75,-197 354.75,-203 348.75,-209 342.75,-209"/>
<text text-anchor="middle" x="327.75" y="-186.7" font-family="Times,serif" font-size="14.00">bff</text>
</g>
<!-- SERVICE:service:web page&#45;&gt;SERVICE:bff -->
<g id="edge10" class="edge">
<title>SERVICE:service:web page&#45;&gt;SERVICE:bff</title>
<g id="a_edge10"><a xlink:title="edge#9">
<path fill="none" stroke="black" d="M135.43,-191C184.27,-191 248.75,-191 288.98,-191"/>
<polygon fill="black" stroke="black" points="288.88,-194.5 298.88,-191 288.88,-187.5 288.88,-194.5"/>
</a>
</g>
<text text-anchor="middle" x="212.12" y="-195.7" font-family="Times,serif" font-size="14.00">CALLS [rest] (sync)</text>
</g>
<!-- SERVICE:service:restaurants -->
<g id="node4" class="node">
<title>SERVICE:service:restaurants</title>
<path fill="#eef6ff" stroke="black" d="M654.75,-236C654.75,-236 532.25,-236 532.25,-236 526.25,-236 520.25,-230 520.25,-224 520.25,-224 520.25,-212 520.25,-212 520.25,-206 526.25,-200 532.25,-200 532.25,-200 654.75,-200 654.75,-200 660.75,-200 666.75,-206 666.75,-212 666.75,-212 666.75,-224 666.75,-224 666.75,-230 660.75,-236 654.75,-236"/>
<text text-anchor="middle" x="593.5" y="-213.7" font-family="Times,serif" font-size="14.00">SERVICE:restaurants</text>
</g>
<!-- SERVICE:service:payments -->
<g id="node5" class="node">
<title>SERVICE:service:payments</title>
<path fill="#eef6ff" stroke="black" d="M649.88,-182C649.88,-182 537.12,-182 537.12,-182 531.12,-182 525.12,-176 525.12,-170 525.12,-170 525.12,-158 525.12,-158 525.12,-152 531.12,-146 537.12,-146 537.12,-146 649.88,-146 649.88,-146 655.88,-146 661.88,-152 661.88,-158 661.88,-158 661.88,-170 661.88,-170 661.88,-176 655.88,-182 649.88,-182"/>
<text text-anchor="middle" x="593.5" y="-159.7" font-family="Times,serif" font-size="14.00">SERVICE:payments</text>
</g>
<!-- SERVICE:user -->
<g id="node6" class="node">
<title>SERVICE:user</title>
<path fill="#eef6ff" stroke="black" d="M82.62,-90C82.62,-90 52.62,-90 52.62,-90 46.62,-90 40.62,-84 40.62,-78 40.62,-78 40.62,-66 40.62,-66 40.62,-60 46.62,-54 52.62,-54 52.62,-54 82.62,-54 82.62,-54 88.62,-54 94.62,-60 94.62,-66 94.62,-66 94.62,-78 94.62,-78 94.62,-84 88.62,-90 82.62,-90"/>
<text text-anchor="middle" x="67.62" y="-67.7" font-family="Times,serif" font-size="14.00">user</text>
</g>
<!-- SERVICE:user&#45;&gt;SERVICE:web page -->
<g id="edge1" class="edge">
<title>SERVICE:user&#45;&gt;SERVICE:web page</title>
<g id="a_edge1"><a xlink:title="edge#0">
<path fill="none" stroke="black" d="M94.8,-72C137.54,-72 223.03,-72 277.43,-72"/>
<polygon fill="black" stroke="black" points="277.36,-75.5 287.36,-72 277.36,-68.5 277.36,-75.5"/>
</a>
</g>
<text text-anchor="middle" x="212.12" y="-76.7" font-family="Times,serif" font-size="14.00">CALLS [rest] (sync)</text>
</g>
<!-- SERVICE:orders -->
<g id="node7" class="node">
<title>SERVICE:orders</title>
<path fill="#eef6ff" stroke="black" d="M865.75,-80C865.75,-80 832.5,-80 832.5,-80 826.5,-80 820.5,-74 820.5,-68 820.5,-68 820.5,-56 820.5,-56 820.5,-50 826.5,-44 832.5,-44 832.5,-44 865.75,-44 865.75,-44 871.75,-44 877.75,-50 877.75,-56 877.75,-56 877.75,-68 877.75,-68 877.75,-74 871.75,-80 865.75,-80"/>
<text text-anchor="middle" x="849.12" y="-57.7" font-family="Times,serif" font-size="14.00">orders</text>
</g>
<!-- SERVICE:orders&#45;&gt;SERVICE:web page -->
<g id="edge2" class="edge">
<title>SERVICE:orders&#45;&gt;SERVICE:web page</title>
<g id="a_edge2"><a xlink:title="edge#1">
<path fill="none" stroke="black" d="M820.1,-62.54C736.1,-64.16 485.63,-68.98 378.38,-71.04"/>
<polygon fill="black" stroke="black" points="378.38,-67.54 368.45,-71.24 378.52,-74.54 378.38,-67.54"/>
</a>
</g>
<text text-anchor="middle" x="593.5" y="-73.7" font-family="Times,serif" font-size="14.00">CALLS [rest] (sync)</text>
</g>
<!-- SERVICE:orders&#45;&gt;SERVICE:payments -->
<g id="edge9" class="edge">
<title>SERVICE:orders&#45;&gt;SERVICE:payments</title>
<g id="a_edge9"><a xlink:title="edge#8">
<path fill="none" stroke="black" d="M878.04,-65.14C910.7,-69.03 966.31,-76.35 1013.5,-86 1021.94,-87.73 1030.85,-89.82 1039.47,-92"/>
<polygon fill="black" stroke="black" points="1038.56,-95.38 1049.12,-94.5 1040.32,-88.6 1038.56,-95.38"/>
</a>
</g>
<text text-anchor="middle" x="954.62" y="-90.7" font-family="Times,serif" font-size="14.00">CALLS [rest] (sync)</text>
</g>
<!-- SERVICE:orders&#45;&gt;SERVICE:database -->
<g id="edge5" class="edge">
<title>SERVICE:orders&#45;&gt;SERVICE:database</title>
<g id="a_edge5"><a xlink:title="edge#4">
<path fill="none" stroke="black" d="M878.18,-61.43C958.53,-59.78 1190.22,-55.05 1291.22,-52.98"/>
<polygon fill="black" stroke="black" points="1291.15,-56.48 1301.07,-52.78 1291,-49.49 1291.15,-56.48"/>
</a>
</g>
<text text-anchor="middle" x="1090.38" y="-63.7" font-family="Times,serif" font-size="14.00">CALLS [rest] (sync)</text>
</g>
<!-- SERVICE:restaurants&#45;&gt;SERVICE:orders -->
<g id="edge8" class="edge">
<title>SERVICE:restaurants&#45;&gt;SERVICE:orders</title>
<g id="a_edge8"><a xlink:title="edge#7">
<path fill="none" stroke="black" d="M638.35,-18.3C681.02,-19.59 747.32,-24.29 802.5,-40 804.91,-40.68 807.34,-41.49 809.77,-42.38"/>
<polygon fill="black" stroke="black" points="808.27,-45.54 818.85,-46.13 810.94,-39.07 808.27,-45.54"/>
</a>
</g>
<text text-anchor="middle" x="743.62" y="-44.7" font-family="Times,serif" font-size="14.00">CALLS [rest] (sync)</text>
</g>
<!-- SERVICE:restaurants&#45;&gt;SERVICE:database -->
<g id="edge6" class="edge">
<title>SERVICE:restaurants&#45;&gt;SERVICE:database</title>
<g id="a_edge6"><a xlink:title="edge#5">
<path fill="none" stroke="black" d="M638.34,-17.79C680.44,-17.73 745.84,-18.04 802.5,-20 983,-26.24 1197.25,-41.33 1291.14,-48.32"/>
<polygon fill="black" stroke="black" points="1290.77,-51.81 1301,-49.06 1291.29,-44.82 1290.77,-51.81"/>
</a>
</g>
<text text-anchor="middle" x="954.62" y="-34.7" font-family="Times,serif" font-size="14.00">CALLS [rest] (sync)</text>
</g>
<!-- SERVICE:bff&#45;&gt;SERVICE:service:restaurants -->
<g id="edge11" class="edge">
<title>SERVICE:bff&#45;&gt;SERVICE:service:restaurants</title>
<g id="a_edge11"><a xlink:title="edge#10">
<path fill="none" stroke="black" d="M355,-193.69C390.58,-197.33 455.77,-204 508.86,-209.44"/>
<polygon fill="black" stroke="black" points="508.18,-212.89 518.48,-210.42 508.89,-205.92 508.18,-212.89"/>
</a>
</g>
<text text-anchor="middle" x="443.38" y="-212.7" font-family="Times,serif" font-size="14.00">CALLS [rest] (sync)</text>
</g>
<!-- SERVICE:bff&#45;&gt;SERVICE:service:payments -->
<g id="edge12" class="edge">
<title>SERVICE:bff&#45;&gt;SERVICE:service:payments</title>
<g id="a_edge12"><a xlink:title="edge#11">
<path fill="none" stroke="black" d="M355.08,-181.51C364.27,-178.59 374.73,-175.7 384.5,-174 426.81,-166.65 474.63,-163.97 513.75,-163.2"/>
<polygon fill="black" stroke="black" points="513.6,-166.71 523.55,-163.05 513.49,-159.71 513.6,-166.71"/>
</a>
</g>
<text text-anchor="middle" x="443.38" y="-178.7" font-family="Times,serif" font-size="14.00">CALLS [rest] (sync)</text>
</g>
</g>
</svg>
