<?xml version="1.0" encoding="UTF-8" standalone="no"?>
<!DOCTYPE svg PUBLIC "-//W3C//DTD SVG 1.1//EN"
 "http://www.w3.org/Graphics/SVG/1.1/DTD/svg11.dtd">
<!-- Generated by graphviz version 9.0.0 (20230911.1827)
 -->
<!-- Title: G Pages: 1 -->
<svg width="1974pt" height="361pt"
 viewBox="0.00 0.00 1973.50 361.00" xmlns="http://www.w3.org/2000/svg" xmlns:xlink="http://www.w3.org/1999/xlink">
<g id="graph0" class="graph" transform="scale(1 1) rotate(0) translate(4 357)">
<title>G</title>
<polygon fill="white" stroke="none" points="-4,4 -4,-357 1969.5,-357 1969.5,4 -4,4"/>
<text text-anchor="middle" x="982.75" y="-335.7" font-family="Helvetica,sans-Serif" font-size="14.00">Architecture</text>
<!-- SERVICE:ops&#45;hub_split&#45;3 -->
<g id="node1" class="node">
<title>SERVICE:ops&#45;hub_split&#45;3</title>
<path fill="#eef6ff" stroke="black" d="M595.5,-99C595.5,-99 502.25,-99 502.25,-99 496.25,-99 490.25,-93 490.25,-87 490.25,-87 490.25,-75 490.25,-75 490.25,-69 496.25,-63 502.25,-63 502.25,-63 595.5,-63 595.5,-63 601.5,-63 607.5,-69 607.5,-75 607.5,-75 607.5,-87 607.5,-87 607.5,-93 601.5,-99 595.5,-99"/>
<text text-anchor="middle" x="548.88" y="-76.7" font-family="Times,serif" font-size="14.00">ops&#45;hub_split&#45;3</text>
</g>
<!-- SERVICE:ops&#45;hub_split&#45;2 -->
<g id="node15" class="node">
<title>SERVICE:ops&#45;hub_split&#45;2</title>
<path fill="#eef6ff" stroke="black" d="M866.5,-99C866.5,-99 773.25,-99 773.25,-99 767.25,-99 761.25,-93 761.25,-87 761.25,-87 761.25,-75 761.25,-75 761.25,-69 767.25,-63 773.25,-63 773.25,-63 866.5,-63 866.5,-63 872.5,-63 878.5,-69 878.5,-75 878.5,-75 878.5,-87 878.5,-87 878.5,-93 872.5,-99 866.5,-99"/>
<text text-anchor="middle" x="819.88" y="-76.7" font-family="Times,serif" font-size="14.00">ops&#45;hub_split&#45;2</text>
</g>
<!-- SERVICE:ops&#45;hub_split&#45;3&#45;&gt;SERVICE:ops&#45;hub_split&#45;2 -->
<g id="edge17" class="edge">
<title>SERVICE:ops&#45;hub_split&#45;3&#45;&gt;SERVICE:ops&#45;hub_split&#45;2</title>
<g id="a_edge17"><a xlink:title="edge#16">
<path fill="none" stroke="black" d="M607.91,-81C649.45,-81 705.57,-81 749.48,-81"/>
<polygon fill="black" stroke="black" points="749.43,-84.5 759.43,-81 749.43,-77.5 749.43,-84.5"/>
</a>
</g>
<text text-anchor="middle" x="684.38" y="-85.7" font-family="Times,serif" font-size="14.00">CALLS [rest] (sync)</text>
</g>
<!-- SERVICE:admin&#45;console -->
<g id="node2" class="node">
<title>SERVICE:admin&#45;console</title>
<path fill="#eef6ff" stroke="black" d="M100,-90C100,-90 12,-90 12,-90 6,-90 0,-84 0,-78 0,-78 0,-66 0,-66 0,-60 6,-54 12,-54 12,-54 100,-54 100,-54 106,-54 112,-60 112,-66 112,-66 112,-78 112,-78 112,-84 106,-90 100,-90"/>
<text text-anchor="middle" x="56" y="-67.7" font-family="Times,serif" font-size="14.00">admin&#45;console</text>
</g>
<!-- SERVICE:ops&#45;hub -->
<g id="node18" class="node">
<title>SERVICE:ops&#45;hub</title>
<path fill="#eef6ff" stroke="black" d="M323.75,-69C323.75,-69 278.5,-69 278.5,-69 272.5,-69 266.5,-63 266.5,-57 266.5,-57 266.5,-45 266.5,-45 266.5,-39 272.5,-33 278.5,-33 278.5,-33 323.75,-33 323.75,-33 329.75,-33 335.75,-39 335.75,-45 335.75,-45 335.75,-57 335.75,-57 335.75,-63 329.75,-69 323.75,-69"/>
<text text-anchor="middle" x="301.12" y="-46.7" font-family="Times,serif" font-size="14.00">ops&#45;hub</text>
</g>
<!-- SERVICE:admin&#45;console&#45;&gt;SERVICE:ops&#45;hub -->
<g id="edge4" class="edge">
<title>SERVICE:admin&#45;console&#45;&gt;SERVICE:ops&#45;hub</title>
<g id="a_edge4"><a xlink:title="edge#3">
<path fill="none" stroke="black" d="M112.47,-67.21C155.59,-63.48 214.64,-58.38 254.91,-54.91"/>
<polygon fill="black" stroke="black" points="255.08,-58.4 264.74,-54.06 254.48,-51.43 255.08,-58.4"/>
</a>
</g>
<text text-anchor="middle" x="188.88" y="-70.7" font-family="Times,serif" font-size="14.00">CALLS [rest] (sync)</text>
</g>
<!-- SERVICE:cache&#45;proxy -->
<g id="node3" class="node">
<title>SERVICE:cache&#45;proxy</title>
<path fill="#eef6ff" stroke="black" d="M1670.88,-129C1670.88,-129 1600.88,-129 1600.88,-129 1594.88,-129 1588.88,-123 1588.88,-117 1588.88,-117 1588.88,-105 1588.88,-105 1588.88,-99 1594.88,-93 1600.88,-93 1600.88,-93 1670.88,-93 1670.88,-93 1676.88,-93 1682.88,-99 1682.88,-105 1682.88,-105 1682.88,-117 1682.88,-117 1682.88,-123 1676.88,-129 1670.88,-129"/>
<text text-anchor="middle" x="1635.88" y="-106.7" font-family="Times,serif" font-size="14.00">cache&#45;proxy</text>
</g>
<!-- SERVICE:pricing -->
<g id="node4" class="node">
<title>SERVICE:pricing</title>
<path fill="#eef6ff" stroke="black" d="M74.12,-165C74.12,-165 37.88,-165 37.88,-165 31.88,-165 25.88,-159 25.88,-153 25.88,-153 25.88,-141 25.88,-141 25.88,-135 31.88,-129 37.88,-129 37.88,-129 74.12,-129 74.12,-129 80.12,-129 86.12,-135 86.12,-141 86.12,-141 86.12,-153 86.12,-153 86.12,-159 80.12,-165 74.12,-165"/>
<text text-anchor="middle" x="56" y="-142.7" font-family="Times,serif" font-size="14.00">pricing</text>
</g>
<!-- SERVICE:discount -->
<g id="node5" class="node">
<title>SERVICE:discount</title>
<path fill="#eef6ff" stroke="black" d="M324.5,-165C324.5,-165 277.75,-165 277.75,-165 271.75,-165 265.75,-159 265.75,-153 265.75,-153 265.75,-141 265.75,-141 265.75,-135 271.75,-129 277.75,-129 277.75,-129 324.5,-129 324.5,-129 330.5,-129 336.5,-135 336.5,-141 336.5,-141 336.5,-153 336.5,-153 336.5,-159 330.5,-165 324.5,-165"/>
<text text-anchor="middle" x="301.12" y="-142.7" font-family="Times,serif" font-size="14.00">discount</text>
</g>
<!-- SERVICE:pricing&#45;&gt;SERVICE:discount -->
<g id="edge1" class="edge">
<title>SERVICE:pricing&#45;&gt;SERVICE:discount</title>
<g id="a_edge1"><a xlink:title="edge#0">
<path fill="none" stroke="black" d="M86.33,-147C128.07,-147 205.01,-147 254.31,-147"/>
<polygon fill="black" stroke="black" points="254.09,-150.5 264.09,-147 254.09,-143.5 254.09,-150.5"/>
</a>
</g>
<text text-anchor="middle" x="188.88" y="-151.7" font-family="Times,serif" font-size="14.00">CALLS [rest] (sync)</text>
</g>
<!-- SERVICE:tax -->
<g id="node16" class="node">
<title>SERVICE:tax</title>
<path fill="#eef6ff" stroke="black" d="M563.88,-165C563.88,-165 533.88,-165 533.88,-165 527.88,-165 521.88,-159 521.88,-153 521.88,-153 521.88,-141 521.88,-141 521.88,-135 527.88,-129 533.88,-129 533.88,-129 563.88,-129 563.88,-129 569.88,-129 575.88,-135 575.88,-141 575.88,-141 575.88,-153 575.88,-153 575.88,-159 569.88,-165 563.88,-165"/>
<text text-anchor="middle" x="548.88" y="-142.7" font-family="Times,serif" font-size="14.00">tax</text>
</g>
<!-- SERVICE:discount&#45;&gt;SERVICE:tax -->
<g id="edge2" class="edge">
<title>SERVICE:discount&#45;&gt;SERVICE:tax</title>
<g id="a_edge2"><a xlink:title="edge#1">
<path fill="none" stroke="black" d="M336.81,-147C382.67,-147 463.18,-147 510.39,-147"/>
<polygon fill="black" stroke="black" points="510.13,-150.5 520.13,-147 510.13,-143.5 510.13,-150.5"/>
</a>
</g>
<text text-anchor="middle" x="413.38" y="-151.7" font-family="Times,serif" font-size="14.00">CALLS [rest] (sync)</text>
</g>
<!-- SERVICE:emailer -->
<g id="node6" class="node">
<title>SERVICE:emailer</title>
<path fill="#eef6ff" stroke="black" d="M568.88,-45C568.88,-45 528.88,-45 528.88,-45 522.88,-45 516.88,-39 516.88,-33 516.88,-33 516.88,-21 516.88,-21 516.88,-15 522.88,-9 528.88,-9 528.88,-9 568.88,-9 568.88,-9 574.88,-9 580.88,-15 580.88,-21 580.88,-21 580.88,-33 580.88,-33 580.88,-39 574.88,-45 568.88,-45"/>
<text text-anchor="middle" x="548.88" y="-22.7" font-family="Times,serif" font-size="14.00">emailer</text>
</g>
<!-- SERVICE:sms&#45;gateway -->
<g id="node7" class="node">
<title>SERVICE:sms&#45;gateway</title>
<path fill="#eef6ff" stroke="black" d="M1129.25,-126C1129.25,-126 1051,-126 1051,-126 1045,-126 1039,-120 1039,-114 1039,-114 1039,-102 1039,-102 1039,-96 1045,-90 1051,-90 1051,-90 1129.25,-90 1129.25,-90 1135.25,-90 1141.25,-96 1141.25,-102 1141.25,-102 1141.25,-114 1141.25,-114 1141.25,-120 1135.25,-126 1129.25,-126"/>
<text text-anchor="middle" x="1090.12" y="-103.7" font-family="Times,serif" font-size="14.00">sms&#45;gateway</text>
</g>
<!-- SERVICE:metrics&#45;agent -->
<g id="node8" class="node">
<title>SERVICE:metrics&#45;agent</title>
<path fill="#eef6ff" stroke="black" d="M1953.5,-102C1953.5,-102 1870.75,-102 1870.75,-102 1864.75,-102 1858.75,-96 1858.75,-90 1858.75,-90 1858.75,-78 1858.75,-78 1858.75,-72 1864.75,-66 1870.75,-66 1870.75,-66 1953.5,-66 1953.5,-66 1959.5,-66 1965.5,-72 1965.5,-78 1965.5,-78 1965.5,-90 1965.5,-90 1965.5,-96 1959.5,-102 1953.5,-102"/>
<text text-anchor="middle" x="1912.12" y="-79.7" font-family="Times,serif" font-size="14.00">metrics&#45;agent</text>
</g>
<!-- SERVICE:user&#45;profile -->
<g id="node9" class="node">
<title>SERVICE:user&#45;profile</title>
<path fill="#eef6ff" stroke="black" d="M89.12,-327C89.12,-327 22.88,-327 22.88,-327 16.88,-327 10.88,-321 10.88,-315 10.88,-315 10.88,-303 10.88,-303 10.88,-297 16.88,-291 22.88,-291 22.88,-291 89.12,-291 89.12,-291 95.12,-291 101.12,-297 101.12,-303 101.12,-303 101.12,-315 101.12,-315 101.12,-321 95.12,-327 89.12,-327"/>
<text text-anchor="middle" x="56" y="-304.7" font-family="Times,serif" font-size="14.00">user&#45;profile</text>
</g>
<!-- DATABASE:user&#45;db -->
<g id="node21" class="node">
<title>DATABASE:user&#45;db</title>
<path fill="#fff3cd" stroke="black" d="M333.88,-269.73C333.88,-271.53 319.2,-273 301.12,-273 283.05,-273 268.38,-271.53 268.38,-269.73 268.38,-269.73 268.38,-240.27 268.38,-240.27 268.38,-238.47 283.05,-237 301.12,-237 319.2,-237 333.88,-238.47 333.88,-240.27 333.88,-240.27 333.88,-269.73 333.88,-269.73"/>
<path fill="none" stroke="black" d="M333.88,-269.73C333.88,-267.92 319.2,-266.45 301.12,-266.45 283.05,-266.45 268.38,-267.92 268.38,-269.73"/>
<text text-anchor="middle" x="301.12" y="-250.7" font-family="Times,serif" font-size="14.00">user&#45;db</text>
</g>
<!-- SERVICE:user&#45;profile&#45;&gt;DATABASE:user&#45;db -->
<g id="edge11" class="edge">
<title>SERVICE:user&#45;profile&#45;&gt;DATABASE:user&#45;db</title>
<g id="a_edge11"><a xlink:title="edge#10">
<path fill="none" stroke="black" d="M101.59,-304.48C140.67,-299.82 198.72,-291.2 247.75,-277 251.01,-276.06 254.34,-274.97 257.66,-273.79"/>
<polygon fill="black" stroke="black" points="258.62,-277.17 266.72,-270.35 256.13,-270.63 258.62,-277.17"/>
</a>
</g>
<text text-anchor="middle" x="188.88" y="-304.7" font-family="Times,serif" font-size="14.00">CALLS [rest] (sync)</text>
</g>
<!-- SERVICE:notifications -->
<g id="node10" class="node">
<title>SERVICE:notifications</title>
<path fill="#eef6ff" stroke="black" d="M92.12,-273C92.12,-273 19.88,-273 19.88,-273 13.88,-273 7.88,-267 7.88,-261 7.88,-261 7.88,-249 7.88,-249 7.88,-243 13.88,-237 19.88,-237 19.88,-237 92.12,-237 92.12,-237 98.12,-237 104.12,-243 104.12,-249 104.12,-249 104.12,-261 104.12,-261 104.12,-267 98.12,-273 92.12,-273"/>
<text text-anchor="middle" x="56" y="-250.7" font-family="Times,serif" font-size="14.00">notifications</text>
</g>
<!-- SERVICE:notifications&#45;&gt;DATABASE:user&#45;db -->
<g id="edge13" class="edge">
<title>SERVICE:notifications&#45;&gt;DATABASE:user&#45;db</title>
<g id="a_edge13"><a xlink:title="edge#12">
<path fill="none" stroke="black" d="M104.45,-255C148.54,-255 213.65,-255 256.47,-255"/>
<polygon fill="black" stroke="black" points="256.41,-258.5 266.41,-255 256.41,-251.5 256.41,-258.5"/>
</a>
</g>
<text text-anchor="middle" x="188.88" y="-259.7" font-family="Times,serif" font-size="14.00">CALLS [rest] (sync)</text>
</g>
<!-- SERVICE:ops&#45;hub_split_split -->
<g id="node11" class="node">
<title>SERVICE:ops&#45;hub_split_split</title>
<path fill="#eef6ff" stroke="black" d="M1693,-75C1693,-75 1578.75,-75 1578.75,-75 1572.75,-75 1566.75,-69 1566.75,-63 1566.75,-63 1566.75,-51 1566.75,-51 1566.75,-45 1572.75,-39 1578.75,-39 1578.75,-39 1693,-39 1693,-39 1699,-39 1705,-45 1705,-51 1705,-51 1705,-63 1705,-63 1705,-69 1699,-75 1693,-75"/>
<text text-anchor="middle" x="1635.88" y="-52.7" font-family="Times,serif" font-size="14.00">ops&#45;hub_split_split</text>
</g>
<!-- SERVICE:ops&#45;hub_split_split&#45;&gt;SERVICE:metrics&#45;agent -->
<g id="edge9" class="edge">
<title>SERVICE:ops&#45;hub_split_split&#45;&gt;SERVICE:metrics&#45;agent</title>
<g id="a_edge9"><a xlink:title="edge#8">
<path fill="none" stroke="black" d="M1705.37,-63.74C1748.83,-68.02 1804.67,-73.52 1847.21,-77.71"/>
<polygon fill="black" stroke="black" points="1846.75,-81.18 1857.05,-78.68 1847.44,-74.21 1846.75,-81.18"/>
</a>
</g>
<text text-anchor="middle" x="1781.88" y="-81.7" font-family="Times,serif" font-size="14.00">CALLS [rest] (sync)</text>
</g>
<!-- SERVICE:report&#45;export -->
<g id="node12" class="node">
<title>SERVICE:report&#45;export</title>
<path fill="#eef6ff" stroke="black" d="M1951.62,-48C1951.62,-48 1872.62,-48 1872.62,-48 1866.62,-48 1860.62,-42 1860.62,-36 1860.62,-36 1860.62,-24 1860.62,-24 1860.62,-18 1866.62,-12 1872.62,-12 1872.62,-12 1951.62,-12 1951.62,-12 1957.62,-12 1963.62,-18 1963.62,-24 1963.62,-24 1963.62,-36 1963.62,-36 1963.62,-42 1957.62,-48 1951.62,-48"/>
<text text-anchor="middle" x="1912.12" y="-25.7" font-family="Times,serif" font-size="14.00">report&#45;export</text>
</g>
<!-- SERVICE:ops&#45;hub_split_split&#45;&gt;SERVICE:report&#45;export -->
<g id="edge10" class="edge">
<title>SERVICE:ops&#45;hub_split_split&#45;&gt;SERVICE:report&#45;export</title>
<g id="a_edge10"><a xlink:title="edge#9">
<path fill="none" stroke="black" d="M1705.45,-46.17C1711.38,-45.38 1717.29,-44.64 1723,-44 1765.03,-39.27 1812.53,-35.75 1849.28,-33.42"/>
<polygon fill="black" stroke="black" points="1849.05,-36.94 1858.82,-32.83 1848.62,-29.96 1849.05,-36.94"/>
</a>
</g>
<text text-anchor="middle" x="1781.88" y="-48.7" font-family="Times,serif" font-size="14.00">CALLS [rest] (sync)</text>
</g>
<!-- SERVICE:ops&#45;hub_split -->
<g id="node13" class="node">
<title>SERVICE:ops&#45;hub_split</title>
<path fill="#eef6ff" stroke="black" d="M1401,-106C1401,-106 1321.25,-106 1321.25,-106 1315.25,-106 1309.25,-100 1309.25,-94 1309.25,-94 1309.25,-82 1309.25,-82 1309.25,-76 1315.25,-70 1321.25,-70 1321.25,-70 1401,-70 1401,-70 1407,-70 1413,-76 1413,-82 1413,-82 1413,-94 1413,-94 1413,-100 1407,-106 1401,-106"/>
<text text-anchor="middle" x="1361.12" y="-83.7" font-family="Times,serif" font-size="14.00">ops&#45;hub_split</text>
</g>
<!-- SERVICE:ops&#45;hub_split&#45;&gt;SERVICE:cache&#45;proxy -->
<g id="edge8" class="edge">
<title>SERVICE:ops&#45;hub_split&#45;&gt;SERVICE:cache&#45;proxy</title>
<g id="a_edge8"><a xlink:title="edge#7">
<path fill="none" stroke="black" d="M1413.43,-92.33C1460.14,-96.27 1529.03,-102.07 1577.54,-106.17"/>
<polygon fill="black" stroke="black" points="1577.03,-109.63 1587.29,-106.99 1577.62,-102.66 1577.03,-109.63"/>
</a>
</g>
<text text-anchor="middle" x="1489.88" y="-108.7" font-family="Times,serif" font-size="14.00">CALLS [rest] (sync)</text>
</g>
<!-- SERVICE:ops&#45;hub_split&#45;&gt;SERVICE:ops&#45;hub_split_split -->
<g id="edge16" class="edge">
<title>SERVICE:ops&#45;hub_split&#45;&gt;SERVICE:ops&#45;hub_split_split</title>
<g id="a_edge16"><a xlink:title="edge#15">
<path fill="none" stroke="black" d="M1413.13,-76.08C1419.14,-74.92 1425.19,-73.86 1431,-73 1471.74,-66.99 1517.42,-63.14 1555.2,-60.73"/>
<polygon fill="black" stroke="black" points="1555.38,-64.23 1565.15,-60.12 1554.95,-57.24 1555.38,-64.23"/>
</a>
</g>
<text text-anchor="middle" x="1489.88" y="-77.7" font-family="Times,serif" font-size="14.00">CALLS [rest] (sync)</text>
</g>
<!-- SERVICE:ops&#45;hub_split&#45;1 -->
<g id="node14" class="node">
<title>SERVICE:ops&#45;hub_split&#45;1</title>
<path fill="#eef6ff" stroke="black" d="M1136,-72C1136,-72 1044.25,-72 1044.25,-72 1038.25,-72 1032.25,-66 1032.25,-60 1032.25,-60 1032.25,-48 1032.25,-48 1032.25,-42 1038.25,-36 1044.25,-36 1044.25,-36 1136,-36 1136,-36 1142,-36 1148,-42 1148,-48 1148,-48 1148,-60 1148,-60 1148,-66 1142,-72 1136,-72"/>
<text text-anchor="middle" x="1090.12" y="-49.7" font-family="Times,serif" font-size="14.00">ops&#45;hub_split&#45;1</text>
</g>
<!-- SERVICE:ops&#45;hub_split&#45;1&#45;&gt;SERVICE:ops&#45;hub_split -->
<g id="edge14" class="edge">
<title>SERVICE:ops&#45;hub_split&#45;1&#45;&gt;SERVICE:ops&#45;hub_split</title>
<g id="a_edge14"><a xlink:title="edge#13">
<path fill="none" stroke="black" d="M1148.17,-61.21C1192.01,-66.75 1252.5,-74.4 1297.65,-80.1"/>
<polygon fill="black" stroke="black" points="1297.2,-83.57 1307.56,-81.36 1298.08,-76.63 1297.2,-83.57"/>
</a>
</g>
<text text-anchor="middle" x="1228.62" y="-83.7" font-family="Times,serif" font-size="14.00">CALLS [rest] (async)</text>
</g>
<!-- SERVICE:audit&#45;log -->
<g id="node19" class="node">
<title>SERVICE:audit&#45;log</title>
<path fill="#eef6ff" stroke="black" d="M1386.38,-52C1386.38,-52 1335.88,-52 1335.88,-52 1329.88,-52 1323.88,-46 1323.88,-40 1323.88,-40 1323.88,-28 1323.88,-28 1323.88,-22 1329.88,-16 1335.88,-16 1335.88,-16 1386.38,-16 1386.38,-16 1392.38,-16 1398.38,-22 1398.38,-28 1398.38,-28 1398.38,-40 1398.38,-40 1398.38,-46 1392.38,-52 1386.38,-52"/>
<text text-anchor="middle" x="1361.12" y="-29.7" font-family="Times,serif" font-size="14.00">audit&#45;log</text>
</g>
<!-- SERVICE:ops&#45;hub_split&#45;1&#45;&gt;SERVICE:audit&#45;log -->
<g id="edge7" class="edge">
<title>SERVICE:ops&#45;hub_split&#45;1&#45;&gt;SERVICE:audit&#45;log</title>
<g id="a_edge7"><a xlink:title="edge#6">
<path fill="none" stroke="black" d="M1148.25,-43.26C1154.23,-42.38 1160.23,-41.6 1166,-41 1215.65,-35.82 1272.8,-34.29 1312.16,-33.92"/>
<polygon fill="black" stroke="black" points="1312.04,-37.42 1322.01,-33.85 1311.99,-30.42 1312.04,-37.42"/>
</a>
</g>
<text text-anchor="middle" x="1228.62" y="-45.7" font-family="Times,serif" font-size="14.00">CALLS [rest] (sync)</text>
</g>
<!-- SERVICE:ops&#45;hub_split&#45;2&#45;&gt;SERVICE:sms&#45;gateway -->
<g id="edge6" class="edge">
<title>SERVICE:ops&#45;hub_split&#45;2&#45;&gt;SERVICE:sms&#45;gateway</title>
<g id="a_edge6"><a xlink:title="edge#5">
<path fill="none" stroke="black" d="M878.75,-86.83C922.53,-91.23 982.54,-97.27 1027.27,-101.77"/>
<polygon fill="black" stroke="black" points="1026.78,-105.24 1037.08,-102.76 1027.48,-98.28 1026.78,-105.24"/>
</a>
</g>
<text text-anchor="middle" x="955.38" y="-105.7" font-family="Times,serif" font-size="14.00">CALLS [rest] (sync)</text>
</g>
<!-- SERVICE:ops&#45;hub_split&#45;2&#45;&gt;SERVICE:ops&#45;hub_split&#45;1 -->
<g id="edge15" class="edge">
<title>SERVICE:ops&#45;hub_split&#45;2&#45;&gt;SERVICE:ops&#45;hub_split&#45;1</title>
<g id="a_edge15"><a xlink:title="edge#14">
<path fill="none" stroke="black" d="M878.99,-69.54C884.89,-68.59 890.8,-67.72 896.5,-67 937.64,-61.82 984,-58.61 1020.92,-56.68"/>
<polygon fill="black" stroke="black" points="1020.74,-60.19 1030.55,-56.19 1020.39,-53.2 1020.74,-60.19"/>
</a>
</g>
<text text-anchor="middle" x="955.38" y="-71.7" font-family="Times,serif" font-size="14.00">CALLS [rest] (sync)</text>
</g>
<!-- SERVICE:scheduler -->
<g id="node17" class="node">
<title>SERVICE:scheduler</title>
<path fill="#eef6ff" stroke="black" d="M82.75,-36C82.75,-36 29.25,-36 29.25,-36 23.25,-36 17.25,-30 17.25,-24 17.25,-24 17.25,-12 17.25,-12 17.25,-6 23.25,0 29.25,0 29.25,0 82.75,0 82.75,0 88.75,0 94.75,-6 94.75,-12 94.75,-12 94.75,-24 94.75,-24 94.75,-30 88.75,-36 82.75,-36"/>
<text text-anchor="middle" x="56" y="-13.7" font-family="Times,serif" font-size="14.00">scheduler</text>
</g>
<!-- SERVICE:scheduler&#45;&gt;SERVICE:ops&#45;hub -->
<g id="edge3" class="edge">
<title>SERVICE:scheduler&#45;&gt;SERVICE:ops&#45;hub</title>
<g id="a_edge3"><a xlink:title="edge#2">
<path fill="none" stroke="black" d="M95,-18.62C133.76,-19.85 195.46,-23.47 247.75,-34 250.19,-34.49 252.67,-35.06 255.16,-35.68"/>
<polygon fill="black" stroke="black" points="254.02,-39 264.6,-38.29 255.89,-32.25 254.02,-39"/>
</a>
</g>
<text text-anchor="middle" x="188.88" y="-38.7" font-family="Times,serif" font-size="14.00">CALLS [rest] (sync)</text>
</g>
<!-- SERVICE:ops&#45;hub&#45;&gt;SERVICE:ops&#45;hub_split&#45;3 -->
<g id="edge18" class="edge">
<title>SERVICE:ops&#45;hub&#45;&gt;SERVICE:ops&#45;hub_split&#45;3</title>
<g id="a_edge18"><a xlink:title="edge#17">
<path fill="none" stroke="black" d="M336.04,-55.14C372.65,-59.61 431.98,-66.85 478.55,-72.54"/>
<polygon fill="black" stroke="black" points="477.94,-75.99 488.29,-73.73 478.78,-69.04 477.94,-75.99"/>
</a>
</g>
<text text-anchor="middle" x="413.38" y="-76.7" font-family="Times,serif" font-size="14.00">CALLS [rest] (sync)</text>
</g>
<!-- SERVICE:ops&#45;hub&#45;&gt;SERVICE:emailer -->
<g id="edge5" class="edge">
<title>SERVICE:ops&#45;hub&#45;&gt;SERVICE:emailer</title>
<g id="a_edge5"><a xlink:title="edge#4">
<path fill="none" stroke="black" d="M336.19,-39.23C342.23,-37.53 348.5,-36.02 354.5,-35 405.79,-26.25 465.78,-25.16 505.18,-25.66"/>
<polygon fill="black" stroke="black" points="504.9,-29.16 514.96,-25.83 505.02,-22.16 504.9,-29.16"/>
</a>
</g>
<text text-anchor="middle" x="413.38" y="-39.7" font-family="Times,serif" font-size="14.00">CALLS [rest] (sync)</text>
</g>
<!-- SERVICE:preferences -->
<g id="node20" class="node">
<title>SERVICE:preferences</title>
<path fill="#eef6ff" stroke="black" d="M89.5,-219C89.5,-219 22.5,-219 22.5,-219 16.5,-219 10.5,-213 10.5,-207 10.5,-207 10.5,-195 10.5,-195 10.5,-189 16.5,-183 22.5,-183 22.5,-183 89.5,-183 89.5,-183 95.5,-183 101.5,-189 101.5,-195 101.5,-195 101.5,-207 101.5,-207 101.5,-213 95.5,-219 89.5,-219"/>
<text text-anchor="middle" x="56" y="-196.7" font-family="Times,serif" font-size="14.00">preferences</text>
</g>
<!-- SERVICE:preferences&#45;&gt;DATABASE:user&#45;db -->
<g id="edge12" class="edge">
<title>SERVICE:preferences&#45;&gt;DATABASE:user&#45;db</title>
<g id="a_edge12"><a xlink:title="edge#11">
<path fill="none" stroke="black" d="M101.98,-205.57C141.05,-210.24 198.89,-218.85 247.75,-233 251.01,-233.94 254.34,-235.03 257.66,-236.21"/>
<polygon fill="black" stroke="black" points="256.13,-239.37 266.72,-239.65 258.62,-232.83 256.13,-239.37"/>
</a>
</g>
<text text-anchor="middle" x="188.88" y="-237.7" font-family="Times,serif" font-size="14.00">CALLS [rest] (sync)</text>
</g>
</g>
</svg>
