<?xml version="1.0" encoding="UTF-8" standalone="no"?>
<!DOCTYPE svg PUBLIC "-//W3C//DTD SVG 1.1//EN"
 "http://www.w3.org/Graphics/SVG/1.1/DTD/svg11.dtd">
<!-- Generated by graphviz version 9.0.0 (20230911.1827)
 -->
<!-- Title: G Pages: 1 -->
<svg width="1366pt" height="278pt"
 viewBox="0.00 0.00 1366.25 278.46" xmlns="http://www.w3.org/2000/svg" xmlns:xlink="http://www.w3.org/1999/xlink">
<g id="graph0" class="graph" transform="scale(1 1) rotate(0) translate(4 274.46)">
<title>G</title>
<polygon fill="white" stroke="none" points="-4,4 -4,-274.46 1362.25,-274.46 1362.25,4 -4,4"/>
<text text-anchor="middle" x="679.12" y="-253.16" font-family="Helvetica,sans-Serif" font-size="14.00">Architecture</text>
<!-- SERVICE:user -->
<g id="node1" class="node">
<title>SERVICE:user</title>
<path fill="#eef6ff" stroke="black" d="M42,-100.46C42,-100.46 12,-100.46 12,-100.46 6,-100.46 0,-94.46 0,-88.46 0,-88.46 0,-76.46 0,-76.46 0,-70.46 6,-64.46 12,-64.46 12,-64.46 42,-64.46 42,-64.46 48,-64.46 54,-70.46 54,-76.46 54,-76.46 54,-88.46 54,-88.46 54,-94.46 48,-100.46 42,-100.46"/>
<text text-anchor="middle" x="27" y="-78.16" font-family="Times,serif" font-size="14.00">user</text>
</g>
<!-- SERVICE:web page -->
<g id="node2" class="node">
<title>SERVICE:web page</title>
<path fill="#eef6ff" stroke="black" d="M273.25,-100.46C273.25,-100.46 219.75,-100.46 219.75,-100.46 213.75,-100.46 207.75,-94.46 207.75,-88.46 207.75,-88.46 207.75,-76.46 207.75,-76.46 207.75,-70.46 213.75,-64.46 219.75,-64.46 219.75,-64.46 273.25,-64.46 273.25,-64.46 279.25,-64.46 285.25,-70.46 285.25,-76.46 285.25,-76.46 285.25,-88.46 285.25,-88.46 285.25,-94.46 279.25,-100.46 273.25,-100.46"/>
<text text-anchor="middle" x="246.5" y="-78.16" font-family="Times,serif" font-size="14.00">web page</text>
</g>
<!-- SERVICE:user&#45;&gt;SERVICE:web page -->
<g id="edge1" class="edge">
<title>SERVICE:user&#45;&gt;SERVICE:web page</title>
<g id="a_edge1"><a xlink:title="edge#0">
<path fill="none" stroke="black" d="M54.24,-82.46C89.29,-82.46 152.1,-82.46 196.15,-82.46"/>
<polygon fill="black" stroke="black" points="195.96,-85.96 205.96,-82.46 195.96,-78.96 195.96,-85.96"/>
</a>
</g>
<text text-anchor="middle" x="130.88" y="-87.16" font-family="Times,serif" font-size="14.00">CALLS [rest] (sync)</text>
</g>
<!-- SERVICE:payments -->
<g id="node7" class="node">
<title>SERVICE:payments</title>
<path fill="#eef6ff" stroke="black" d="M1058.12,-46.46C1058.12,-46.46 1003.12,-46.46 1003.12,-46.46 997.12,-46.46 991.12,-40.46 991.12,-34.46 991.12,-34.46 991.12,-22.46 991.12,-22.46 991.12,-16.46 997.12,-10.46 1003.12,-10.46 1003.12,-10.46 1058.12,-10.46 1058.12,-10.46 1064.12,-10.46 1070.12,-16.46 1070.12,-22.46 1070.12,-22.46 1070.12,-34.46 1070.12,-34.46 1070.12,-40.46 1064.12,-46.46 1058.12,-46.46"/>
<text text-anchor="middle" x="1030.62" y="-24.16" font-family="Times,serif" font-size="14.00">payments</text>
</g>
<!-- SERVICE:web page&#45;&gt;SERVICE:payments -->
<g id="edge4" class="edge">
<title>SERVICE:web page&#45;&gt;SERVICE:payments</title>
<g id="a_edge4"><a xlink:title="edge#3">
<path fill="none" stroke="black" d="M285.64,-78.05C379.23,-67.46 627.78,-40.72 836,-30.46 884.64,-28.06 940.23,-27.74 979.33,-27.91"/>
<polygon fill="black" stroke="black" points="979.12,-31.41 989.14,-27.96 979.16,-24.41 979.12,-31.41"/>
</a>
</g>
<text text-anchor="middle" x="633.62" y="-54.16" font-family="Times,serif" font-size="14.00">CALLS [rest] (sync)</text>
</g>
<!-- SERVICE:restaurants -->
<g id="node8" class="node">
<title>SERVICE:restaurants</title>
<path fill="#eef6ff" stroke="black" d="M530.25,-166.46C530.25,-166.46 465.5,-166.46 465.5,-166.46 459.5,-166.46 453.5,-160.46 453.5,-154.46 453.5,-154.46 453.5,-142.46 453.5,-142.46 453.5,-136.46 459.5,-130.46 465.5,-130.46 465.5,-130.46 530.25,-130.46 530.25,-130.46 536.25,-130.46 542.25,-136.46 542.25,-142.46 542.25,-142.46 542.25,-154.46 542.25,-154.46 542.25,-160.46 536.25,-166.46 530.25,-166.46"/>
<text text-anchor="middle" x="497.88" y="-144.16" font-family="Times,serif" font-size="14.00">restaurants</text>
</g>
<!-- SERVICE:web page&#45;&gt;SERVICE:restaurants -->
<g id="edge3" class="edge">
<title>SERVICE:web page&#45;&gt;SERVICE:restaurants</title>
<g id="a_edge3"><a xlink:title="edge#2">
<path fill="none" stroke="black" d="M285.65,-92.55C327.46,-103.62 394.88,-121.46 442.29,-134.01"/>
<polygon fill="black" stroke="black" points="441.25,-137.36 451.81,-136.53 443.04,-130.59 441.25,-137.36"/>
</a>
</g>
<text text-anchor="middle" x="362.12" y="-131.16" font-family="Times,serif" font-size="14.00">CALLS [rest] (sync)</text>
</g>
<!-- SERVICE:new&#45;database -->
<g id="node3" class="node">
<title>SERVICE:new&#45;database</title>
<path fill="#eef6ff" stroke="black" d="M806,-212.46C806,-212.46 722.5,-212.46 722.5,-212.46 716.5,-212.46 710.5,-206.46 710.5,-200.46 710.5,-200.46 710.5,-188.46 710.5,-188.46 710.5,-182.46 716.5,-176.46 722.5,-176.46 722.5,-176.46 806,-176.46 806,-176.46 812,-176.46 818,-182.46 818,-188.46 818,-188.46 818,-200.46 818,-200.46 818,-206.46 812,-212.46 806,-212.46"/>
<text text-anchor="middle" x="764.25" y="-190.16" font-family="Times,serif" font-size="14.00">new&#45;database</text>
</g>
<!-- SERVICE:new&#45;database2 -->
<g id="node4" class="node">
<title>SERVICE:new&#45;database2</title>
<path fill="#eef6ff" stroke="black" d="M1346.25,-146.46C1346.25,-146.46 1255.25,-146.46 1255.25,-146.46 1249.25,-146.46 1243.25,-140.46 1243.25,-134.46 1243.25,-134.46 1243.25,-122.46 1243.25,-122.46 1243.25,-116.46 1249.25,-110.46 1255.25,-110.46 1255.25,-110.46 1346.25,-110.46 1346.25,-110.46 1352.25,-110.46 1358.25,-116.46 1358.25,-122.46 1358.25,-122.46 1358.25,-134.46 1358.25,-134.46 1358.25,-140.46 1352.25,-146.46 1346.25,-146.46"/>
<text text-anchor="middle" x="1300.75" y="-124.16" font-family="Times,serif" font-size="14.00">new&#45;database2</text>
</g>
<!-- SERVICE:database -->
<g id="node5" class="node">
<title>SERVICE:database</title>
<path fill="#eef6ff" stroke="black" d="M1326,-86.46C1326,-86.46 1275.5,-86.46 1275.5,-86.46 1269.5,-86.46 1263.5,-80.46 1263.5,-74.46 1263.5,-74.46 1263.5,-62.46 1263.5,-62.46 1263.5,-56.46 1269.5,-50.46 1275.5,-50.46 1275.5,-50.46 1326,-50.46 1326,-50.46 1332,-50.46 1338,-56.46 1338,-62.46 1338,-62.46 1338,-74.46 1338,-74.46 1338,-80.46 1332,-86.46 1326,-86.46"/>
<text text-anchor="middle" x="1300.75" y="-64.16" font-family="Times,serif" font-size="14.00">database</text>
</g>
<!-- SERVICE:database&#45;&gt;SERVICE:payments -->
<g id="edge12" class="edge">
<title>SERVICE:database&#45;&gt;SERVICE:payments</title>
<g id="a_edge12"><a xlink:title="edge#11">
<path fill="none" stroke="black" d="M1263.18,-58.67C1251.17,-55.71 1237.7,-52.66 1225.25,-50.46 1176.84,-41.89 1121,-35.96 1081.77,-32.44"/>
<polygon fill="black" stroke="black" points="1082.18,-28.96 1071.91,-31.57 1081.57,-35.93 1082.18,-28.96"/>
</a>
</g>
<text text-anchor="middle" x="1166.38" y="-55.16" font-family="Times,serif" font-size="14.00">CALLS [rest] (sync)</text>
</g>
<!-- SERVICE:orders -->
<g id="node6" class="node">
<title>SERVICE:orders</title>
<path fill="#eef6ff" stroke="black" d="M780.88,-100.46C780.88,-100.46 747.62,-100.46 747.62,-100.46 741.62,-100.46 735.62,-94.46 735.62,-88.46 735.62,-88.46 735.62,-76.46 735.62,-76.46 735.62,-70.46 741.62,-64.46 747.62,-64.46 747.62,-64.46 780.88,-64.46 780.88,-64.46 786.88,-64.46 792.88,-70.46 792.88,-76.46 792.88,-76.46 792.88,-88.46 792.88,-88.46 792.88,-94.46 786.88,-100.46 780.88,-100.46"/>
<text text-anchor="middle" x="764.25" y="-78.16" font-family="Times,serif" font-size="14.00">orders</text>
</g>
<!-- SERVICE:orders&#45;&gt;SERVICE:web page -->
<g id="edge2" class="edge">
<title>SERVICE:orders&#45;&gt;SERVICE:web page</title>
<g id="a_edge2"><a xlink:title="edge#1">
<path fill="none" stroke="black" d="M735.42,-82.46C652.01,-82.46 403.29,-82.46 296.79,-82.46"/>
<polygon fill="black" stroke="black" points="296.94,-78.96 286.94,-82.46 296.94,-85.96 296.94,-78.96"/>
</a>
</g>
<text text-anchor="middle" x="497.88" y="-87.16" font-family="Times,serif" font-size="14.00">CALLS [rest] (sync)</text>
</g>
<!-- SERVICE:orders&#45;&gt;SERVICE:database -->
<g id="edge5" class="edge">
<title>SERVICE:orders&#45;&gt;SERVICE:database</title>
<g id="a_edge5"><a xlink:title="edge#4">
<path fill="none" stroke="black" d="M793.23,-81.73C879.66,-79.46 1143.03,-72.56 1251.89,-69.71"/>
<polygon fill="black" stroke="black" points="1251.74,-73.22 1261.64,-69.46 1251.56,-66.22 1251.74,-73.22"/>
</a>
</g>
<text text-anchor="middle" x="1030.62" y="-81.16" font-family="Times,serif" font-size="14.00">CALLS [rest] (sync)</text>
</g>
<!-- SERVICE:orders&#45;&gt;SERVICE:payments -->
<g id="edge9" class="edge">
<title>SERVICE:orders&#45;&gt;SERVICE:payments</title>
<g id="a_edge9"><a xlink:title="edge#8">
<path fill="none" stroke="black" d="M793.07,-67.45C805.81,-61.22 821.31,-54.51 836,-50.46 883.54,-37.35 939.72,-32.04 979.29,-29.89"/>
<polygon fill="black" stroke="black" points="979.42,-33.39 989.24,-29.41 979.08,-26.4 979.42,-33.39"/>
</a>
</g>
<text text-anchor="middle" x="894.88" y="-55.16" font-family="Times,serif" font-size="14.00">CALLS [rest] (sync)</text>
</g>
<!-- SERVICE:payments&#45;&gt;SERVICE:new&#45;database2 -->
<g id="edge13" class="edge">
<title>SERVICE:payments&#45;&gt;SERVICE:new&#45;database2</title>
<g id="a_edge13"><a xlink:title="edge#12">
<path fill="none" stroke="black" d="M1066.17,-46.95C1073.92,-51.26 1082.05,-55.92 1089.5,-60.46 1097.71,-65.46 1098.78,-68.4 1107.5,-72.46 1147.23,-90.95 1194.44,-104.81 1232.14,-114.12"/>
<polygon fill="black" stroke="black" points="1231,-117.44 1241.54,-116.38 1232.64,-110.64 1231,-117.44"/>
</a>
</g>
<text text-anchor="middle" x="1166.38" y="-116.16" font-family="Times,serif" font-size="14.00">CALLS [rest] (sync)</text>
</g>
<!-- SERVICE:payments&#45;&gt;SERVICE:database -->
<g id="edge7" class="edge">
<title>SERVICE:payments&#45;&gt;SERVICE:database</title>
<g id="a_edge7"><a xlink:title="edge#6">
<path fill="none" stroke="black" d="M1070.61,-15.17C1110.55,-3.71 1173.89,8.42 1225.25,-9.46 1244.17,-16.04 1261.9,-29.65 1275.31,-42.14"/>
<polygon fill="black" stroke="black" points="1272.79,-44.57 1282.39,-49.04 1277.68,-39.56 1272.79,-44.57"/>
</a>
</g>
<text text-anchor="middle" x="1166.38" y="-14.16" font-family="Times,serif" font-size="14.00">CALLS [rest] (sync)</text>
</g>
<!-- SERVICE:restaurants&#45;&gt;SERVICE:new&#45;database -->
<g id="edge10" class="edge">
<title>SERVICE:restaurants&#45;&gt;SERVICE:new&#45;database</title>
<g id="a_edge10"><a xlink:title="edge#9">
<path fill="none" stroke="black" d="M542.59,-156.63C553.12,-158.57 564.33,-160.61 574.75,-162.46 616.22,-169.8 662.88,-177.73 699.41,-183.85"/>
<polygon fill="black" stroke="black" points="698.47,-187.24 708.91,-185.44 699.62,-180.34 698.47,-187.24"/>
</a>
</g>
<text text-anchor="middle" x="633.62" y="-187.16" font-family="Times,serif" font-size="14.00">CALLS [rest] (sync)</text>
</g>
<!-- SERVICE:restaurants&#45;&gt;SERVICE:new&#45;database2 -->
<g id="edge11" class="edge">
<title>SERVICE:restaurants&#45;&gt;SERVICE:new&#45;database2</title>
<g id="a_edge11"><a xlink:title="edge#10">
<path fill="none" stroke="black" d="M517.77,-166.75C532.18,-179.54 553.16,-195.83 574.75,-204.46 631.21,-227.02 649.81,-217.67 710.5,-221.46 940.33,-235.79 1004.33,-227.42 1225.25,-162.46 1234.96,-159.6 1245.03,-155.7 1254.52,-151.57"/>
<polygon fill="black" stroke="black" points="1255.89,-154.79 1263.54,-147.46 1252.99,-148.41 1255.89,-154.79"/>
</a>
</g>
<text text-anchor="middle" x="894.88" y="-231.16" font-family="Times,serif" font-size="14.00">CALLS [rest] (sync)</text>
</g>
<!-- SERVICE:restaurants&#45;&gt;SERVICE:database -->
<g id="edge6" class="edge">
<title>SERVICE:restaurants&#45;&gt;SERVICE:database</title>
<g id="a_edge6"><a xlink:title="edge#5">
<path fill="none" stroke="black" d="M542.51,-150.05C690.42,-155.09 1166.85,-168.43 1225.25,-133.46 1239.25,-125.08 1231.81,-113.09 1243.25,-101.46 1246.39,-98.27 1249.9,-95.28 1253.59,-92.51"/>
<polygon fill="black" stroke="black" points="1255.5,-95.44 1261.78,-86.91 1251.55,-89.66 1255.5,-95.44"/>
</a>
</g>
<text text-anchor="middle" x="894.88" y="-161.16" font-family="Times,serif" font-size="14.00">CALLS [rest] (sync)</text>
</g>
<!-- SERVICE:restaurants&#45;&gt;SERVICE:orders -->
<g id="edge8" class="edge">
<title>SERVICE:restaurants&#45;&gt;SERVICE:orders</title>
<g id="a_edge8"><a xlink:title="edge#7">
<path fill="none" stroke="black" d="M538.04,-130C549.67,-125.05 562.55,-120.08 574.75,-116.46 602.08,-108.34 677.37,-95.84 724.1,-88.48"/>
<polygon fill="black" stroke="black" points="724.49,-91.96 733.83,-86.95 723.41,-85.04 724.49,-91.96"/>
</a>
</g>
<text text-anchor="middle" x="633.62" y="-121.16" font-family="Times,serif" font-size="14.00">CALLS [rest] (sync)</text>
</g>
</g>
</svg>
