<?xml version="1.0" encoding="UTF-8" standalone="no"?>
<!DOCTYPE svg PUBLIC "-//W3C//DTD SVG 1.1//EN"
 "http://www.w3.org/Graphics/SVG/1.1/DTD/svg11.dtd">
<!-- Generated by graphviz version 9.0.0 (20230911.1827)
 -->
<!-- Title: G Pages: 1 -->
<svg width="3056pt" height="303pt"
 viewBox="0.00 0.00 3055.50 303.00" xmlns="http://www.w3.org/2000/svg" xmlns:xlink="http://www.w3.org/1999/xlink">
<g id="graph0" class="graph" transform="scale(1 1) rotate(0) translate(4 299)">
<title>G</title>
<polygon fill="white" stroke="none" points="-4,4 -4,-299 3051.5,-299 3051.5,4 -4,4"/>
<text text-anchor="middle" x="1523.75" y="-277.7" font-family="Helvetica,sans-Serif" font-size="14.00">Architecture</text>
<!-- SERVICE:payments -->
<g id="node1" class="node">
<title>SERVICE:payments</title>
<path fill="#eef6ff" stroke="black" d="M1268.62,-77C1268.62,-77 1213.62,-77 1213.62,-77 1207.62,-77 1201.62,-71 1201.62,-65 1201.62,-65 1201.62,-53 1201.62,-53 1201.62,-47 1207.62,-41 1213.62,-41 1213.62,-41 1268.62,-41 1268.62,-41 1274.62,-41 1280.62,-47 1280.62,-53 1280.62,-53 1280.62,-65 1280.62,-65 1280.62,-71 1274.62,-77 1268.62,-77"/>
<text text-anchor="middle" x="1241.12" y="-54.7" font-family="Times,serif" font-size="14.00">payments</text>
</g>
<!-- SERVICE:orders -->
<g id="node10" class="node">
<title>SERVICE:orders</title>
<path fill="#eef6ff" stroke="black" d="M1506.5,-111C1506.5,-111 1473.25,-111 1473.25,-111 1467.25,-111 1461.25,-105 1461.25,-99 1461.25,-99 1461.25,-87 1461.25,-87 1461.25,-81 1467.25,-75 1473.25,-75 1473.25,-75 1506.5,-75 1506.5,-75 1512.5,-75 1518.5,-81 1518.5,-87 1518.5,-87 1518.5,-99 1518.5,-99 1518.5,-105 1512.5,-111 1506.5,-111"/>
<text text-anchor="middle" x="1489.88" y="-88.7" font-family="Times,serif" font-size="14.00">orders</text>
</g>
<!-- SERVICE:payments&#45;&gt;SERVICE:orders -->
<g id="edge3" class="edge">
<title>SERVICE:payments&#45;&gt;SERVICE:orders</title>
<g id="a_edge3"><a xlink:title="edge#2">
<path fill="none" stroke="black" d="M1280.79,-55.19C1321.93,-52.36 1388.49,-51.32 1443.25,-67 1445.84,-67.74 1448.44,-68.66 1451.01,-69.7"/>
<polygon fill="black" stroke="black" points="1449.43,-72.82 1459.96,-73.91 1452.4,-66.49 1449.43,-72.82"/>
</a>
</g>
<text text-anchor="middle" x="1380.62" y="-71.7" font-family="Times,serif" font-size="14.00">CALLS [rest] (async)</text>
</g>
<!-- DATABASE:shared&#45;db -->
<g id="node2" class="node">
<title>DATABASE:shared&#45;db</title>
<path fill="#fff3cd" stroke="black" d="M3047.5,-196.73C3047.5,-198.53 3029.12,-200 3006.5,-200 2983.88,-200 2965.5,-198.53 2965.5,-196.73 2965.5,-196.73 2965.5,-167.27 2965.5,-167.27 2965.5,-165.47 2983.88,-164 3006.5,-164 3029.12,-164 3047.5,-165.47 3047.5,-167.27 3047.5,-167.27 3047.5,-196.73 3047.5,-196.73"/>
<path fill="none" stroke="black" d="M3047.5,-196.73C3047.5,-194.92 3029.12,-193.45 3006.5,-193.45 2983.88,-193.45 2965.5,-194.92 2965.5,-196.73"/>
<text text-anchor="middle" x="3006.5" y="-177.7" font-family="Times,serif" font-size="14.00">shared&#45;db</text>
</g>
<!-- SERVICE:orders_split -->
<g id="node3" class="node">
<title>SERVICE:orders_split</title>
<path fill="#eef6ff" stroke="black" d="M2799.75,-163C2799.75,-163 2732,-163 2732,-163 2726,-163 2720,-157 2720,-151 2720,-151 2720,-139 2720,-139 2720,-133 2726,-127 2732,-127 2732,-127 2799.75,-127 2799.75,-127 2805.75,-127 2811.75,-133 2811.75,-139 2811.75,-139 2811.75,-151 2811.75,-151 2811.75,-157 2805.75,-163 2799.75,-163"/>
<text text-anchor="middle" x="2765.88" y="-140.7" font-family="Times,serif" font-size="14.00">orders_split</text>
</g>
<!-- SERVICE:orders_split&#45;&gt;DATABASE:shared&#45;db -->
<g id="edge6" class="edge">
<title>SERVICE:orders_split&#45;&gt;DATABASE:shared&#45;db</title>
<g id="a_edge6"><a xlink:title="edge#5">
<path fill="none" stroke="black" d="M2811.94,-145.26C2848.81,-146.31 2902.08,-149.71 2947.5,-160 2949.67,-160.49 2951.86,-161.04 2954.06,-161.65"/>
<polygon fill="black" stroke="black" points="2953.03,-164.99 2963.62,-164.59 2955.09,-158.3 2953.03,-164.99"/>
</a>
</g>
<text text-anchor="middle" x="2888.62" y="-164.7" font-family="Times,serif" font-size="14.00">CALLS [rest] (sync)</text>
</g>
<!-- SERVICE:bff -->
<g id="node4" class="node">
<title>SERVICE:bff</title>
<path fill="#eef6ff" stroke="black" d="M484.12,-185C484.12,-185 454.12,-185 454.12,-185 448.12,-185 442.12,-179 442.12,-173 442.12,-173 442.12,-161 442.12,-161 442.12,-155 448.12,-149 454.12,-149 454.12,-149 484.12,-149 484.12,-149 490.12,-149 496.12,-155 496.12,-161 496.12,-161 496.12,-173 496.12,-173 496.12,-179 490.12,-185 484.12,-185"/>
<text text-anchor="middle" x="469.12" y="-162.7" font-family="Times,serif" font-size="14.00">bff</text>
</g>
<!-- SERVICE:bff&#45;&gt;SERVICE:payments -->
<g id="edge9" class="edge">
<title>SERVICE:bff&#45;&gt;SERVICE:payments</title>
<g id="a_edge9"><a xlink:title="edge#8">
<path fill="none" stroke="black" d="M496.55,-167.31C616.8,-168.5 1108.83,-170.93 1164.25,-132 1181.2,-120.09 1168.21,-104.24 1182.25,-89 1185.1,-85.9 1188.35,-83.08 1191.81,-80.5"/>
<polygon fill="black" stroke="black" points="1193.63,-83.49 1200.1,-75.1 1189.81,-77.63 1193.63,-83.49"/>
</a>
</g>
<text text-anchor="middle" x="876.38" y="-169.7" font-family="Times,serif" font-size="14.00">CALLS [rest] (sync)</text>
</g>
<!-- SERVICE:bff_split&#45;1 -->
<g id="node20" class="node">
<title>SERVICE:bff_split&#45;1</title>
<path fill="#eef6ff" stroke="black" d="M762.75,-213C762.75,-213 707,-213 707,-213 701,-213 695,-207 695,-201 695,-201 695,-189 695,-189 695,-183 701,-177 707,-177 707,-177 762.75,-177 762.75,-177 768.75,-177 774.75,-183 774.75,-189 774.75,-189 774.75,-201 774.75,-201 774.75,-207 768.75,-213 762.75,-213"/>
<text text-anchor="middle" x="734.88" y="-190.7" font-family="Times,serif" font-size="14.00">bff_split&#45;1</text>
</g>
<!-- SERVICE:bff&#45;&gt;SERVICE:bff_split&#45;1 -->
<g id="edge21" class="edge">
<title>SERVICE:bff&#45;&gt;SERVICE:bff_split&#45;1</title>
<g id="a_edge21"><a xlink:title="edge#20">
<path fill="none" stroke="black" d="M496.38,-169.79C539.81,-174.4 627.33,-183.69 683.14,-189.61"/>
<polygon fill="black" stroke="black" points="682.73,-193.09 693.04,-190.66 683.47,-186.13 682.73,-193.09"/>
</a>
</g>
<text text-anchor="middle" x="593.38" y="-189.7" font-family="Times,serif" font-size="14.00">CALLS [rest] (sync)</text>
</g>
<!-- SERVICE:web&#45;ui_split_split -->
<g id="node5" class="node">
<title>SERVICE:web&#45;ui_split_split</title>
<path fill="#eef6ff" stroke="black" d="M787.5,-36C787.5,-36 682.25,-36 682.25,-36 676.25,-36 670.25,-30 670.25,-24 670.25,-24 670.25,-12 670.25,-12 670.25,-6 676.25,0 682.25,0 682.25,0 787.5,0 787.5,0 793.5,0 799.5,-6 799.5,-12 799.5,-12 799.5,-24 799.5,-24 799.5,-30 793.5,-36 787.5,-36"/>
<text text-anchor="middle" x="734.88" y="-13.7" font-family="Times,serif" font-size="14.00">web&#45;ui_split_split</text>
</g>
<!-- SERVICE:bff&#45;4 -->
<g id="node16" class="node">
<title>SERVICE:bff&#45;4</title>
<path fill="#eef6ff" stroke="black" d="M1002.12,-36C1002.12,-36 972.12,-36 972.12,-36 966.12,-36 960.12,-30 960.12,-24 960.12,-24 960.12,-12 960.12,-12 960.12,-6 966.12,0 972.12,0 972.12,0 1002.12,0 1002.12,0 1008.12,0 1014.12,-6 1014.12,-12 1014.12,-12 1014.12,-24 1014.12,-24 1014.12,-30 1008.12,-36 1002.12,-36"/>
<text text-anchor="middle" x="987.12" y="-13.7" font-family="Times,serif" font-size="14.00">bff&#45;4</text>
</g>
<!-- SERVICE:web&#45;ui_split_split&#45;&gt;SERVICE:bff&#45;4 -->
<g id="edge27" class="edge">
<title>SERVICE:web&#45;ui_split_split&#45;&gt;SERVICE:bff&#45;4</title>
<g id="a_edge27"><a xlink:title="edge#26">
<path fill="none" stroke="black" d="M800,-18C846.98,-18 909.16,-18 948.41,-18"/>
<polygon fill="black" stroke="black" points="948.3,-21.5 958.3,-18 948.29,-14.5 948.3,-21.5"/>
</a>
</g>
<text text-anchor="middle" x="876.38" y="-22.7" font-family="Times,serif" font-size="14.00">CALLS [rest] (sync)</text>
</g>
<!-- SERVICE:bff&#45;1 -->
<g id="node6" class="node">
<title>SERVICE:bff&#45;1</title>
<path fill="#eef6ff" stroke="black" d="M256,-185C256,-185 226,-185 226,-185 220,-185 214,-179 214,-173 214,-173 214,-161 214,-161 214,-155 220,-149 226,-149 226,-149 256,-149 256,-149 262,-149 268,-155 268,-161 268,-161 268,-173 268,-173 268,-179 262,-185 256,-185"/>
<text text-anchor="middle" x="241" y="-162.7" font-family="Times,serif" font-size="14.00">bff&#45;1</text>
</g>
<!-- SERVICE:bff&#45;1&#45;&gt;SERVICE:bff -->
<g id="edge17" class="edge">
<title>SERVICE:bff&#45;1&#45;&gt;SERVICE:bff</title>
<g id="a_edge17"><a xlink:title="edge#16">
<path fill="none" stroke="black" d="M268.38,-167C308.46,-167 384.87,-167 430.69,-167"/>
<polygon fill="black" stroke="black" points="430.4,-170.5 440.4,-167 430.4,-163.5 430.4,-170.5"/>
</a>
</g>
<text text-anchor="middle" x="344.88" y="-171.7" font-family="Times,serif" font-size="14.00">CALLS [rest] (sync)</text>
</g>
<!-- SERVICE:orders_split&#45;2 -->
<g id="node7" class="node">
<title>SERVICE:orders_split&#45;2</title>
<path fill="#eef6ff" stroke="black" d="M2290.5,-156C2290.5,-156 2209.25,-156 2209.25,-156 2203.25,-156 2197.25,-150 2197.25,-144 2197.25,-144 2197.25,-132 2197.25,-132 2197.25,-126 2203.25,-120 2209.25,-120 2209.25,-120 2290.5,-120 2290.5,-120 2296.5,-120 2302.5,-126 2302.5,-132 2302.5,-132 2302.5,-144 2302.5,-144 2302.5,-150 2296.5,-156 2290.5,-156"/>
<text text-anchor="middle" x="2249.88" y="-133.7" font-family="Times,serif" font-size="14.00">orders_split&#45;2</text>
</g>
<!-- SERVICE:orders_split&#45;1 -->
<g id="node12" class="node">
<title>SERVICE:orders_split&#45;1</title>
<path fill="#eef6ff" stroke="black" d="M2554.25,-157C2554.25,-157 2474.5,-157 2474.5,-157 2468.5,-157 2462.5,-151 2462.5,-145 2462.5,-145 2462.5,-133 2462.5,-133 2462.5,-127 2468.5,-121 2474.5,-121 2474.5,-121 2554.25,-121 2554.25,-121 2560.25,-121 2566.25,-127 2566.25,-133 2566.25,-133 2566.25,-145 2566.25,-145 2566.25,-151 2560.25,-157 2554.25,-157"/>
<text text-anchor="middle" x="2514.38" y="-134.7" font-family="Times,serif" font-size="14.00">orders_split&#45;1</text>
</g>
<!-- SERVICE:orders_split&#45;2&#45;&gt;SERVICE:orders_split&#45;1 -->
<g id="edge14" class="edge">
<title>SERVICE:orders_split&#45;2&#45;&gt;SERVICE:orders_split&#45;1</title>
<g id="a_edge14"><a xlink:title="edge#13">
<path fill="none" stroke="black" d="M2302.74,-138.2C2345.21,-138.36 2405.45,-138.59 2450.63,-138.76"/>
<polygon fill="black" stroke="black" points="2450.54,-142.26 2460.55,-138.8 2450.57,-135.26 2450.54,-142.26"/>
</a>
</g>
<text text-anchor="middle" x="2385.62" y="-142.7" font-family="Times,serif" font-size="14.00">CALLS [rest] (sync)</text>
</g>
<!-- SERVICE:bff&#45;3 -->
<g id="node8" class="node">
<title>SERVICE:bff&#45;3</title>
<path fill="#eef6ff" stroke="black" d="M749.88,-117C749.88,-117 719.88,-117 719.88,-117 713.88,-117 707.88,-111 707.88,-105 707.88,-105 707.88,-93 707.88,-93 707.88,-87 713.88,-81 719.88,-81 719.88,-81 749.88,-81 749.88,-81 755.88,-81 761.88,-87 761.88,-93 761.88,-93 761.88,-105 761.88,-105 761.88,-111 755.88,-117 749.88,-117"/>
<text text-anchor="middle" x="734.88" y="-94.7" font-family="Times,serif" font-size="14.00">bff&#45;3</text>
</g>
<!-- SERVICE:bff&#45;2 -->
<g id="node19" class="node">
<title>SERVICE:bff&#45;2</title>
<path fill="#eef6ff" stroke="black" d="M1002.12,-117C1002.12,-117 972.12,-117 972.12,-117 966.12,-117 960.12,-111 960.12,-105 960.12,-105 960.12,-93 960.12,-93 960.12,-87 966.12,-81 972.12,-81 972.12,-81 1002.12,-81 1002.12,-81 1008.12,-81 1014.12,-87 1014.12,-93 1014.12,-93 1014.12,-105 1014.12,-105 1014.12,-111 1008.12,-117 1002.12,-117"/>
<text text-anchor="middle" x="987.12" y="-94.7" font-family="Times,serif" font-size="14.00">bff&#45;2</text>
</g>
<!-- SERVICE:bff&#45;3&#45;&gt;SERVICE:bff&#45;2 -->
<g id="edge26" class="edge">
<title>SERVICE:bff&#45;3&#45;&gt;SERVICE:bff&#45;2</title>
<g id="a_edge26"><a xlink:title="edge#25">
<path fill="none" stroke="black" d="M762.18,-99C806.77,-99 897.33,-99 948.57,-99"/>
<polygon fill="black" stroke="black" points="948.28,-102.5 958.28,-99 948.28,-95.5 948.28,-102.5"/>
</a>
</g>
<text text-anchor="middle" x="876.38" y="-103.7" font-family="Times,serif" font-size="14.00">CALLS [rest] (sync)</text>
</g>
<!-- SERVICE:web&#45;ui -->
<g id="node9" class="node">
<title>SERVICE:web&#45;ui</title>
<path fill="#eef6ff" stroke="black" d="M48.25,-185C48.25,-185 12,-185 12,-185 6,-185 0,-179 0,-173 0,-173 0,-161 0,-161 0,-155 6,-149 12,-149 12,-149 48.25,-149 48.25,-149 54.25,-149 60.25,-155 60.25,-161 60.25,-161 60.25,-173 60.25,-173 60.25,-179 54.25,-185 48.25,-185"/>
<text text-anchor="middle" x="30.12" y="-162.7" font-family="Times,serif" font-size="14.00">web&#45;ui</text>
</g>
<!-- SERVICE:web&#45;ui&#45;&gt;SERVICE:bff&#45;1 -->
<g id="edge16" class="edge">
<title>SERVICE:web&#45;ui&#45;&gt;SERVICE:bff&#45;1</title>
<g id="a_edge16"><a xlink:title="edge#15">
<path fill="none" stroke="black" d="M60.61,-167C97.76,-167 161.66,-167 202.32,-167"/>
<polygon fill="black" stroke="black" points="202.12,-170.5 212.12,-167 202.12,-163.5 202.12,-170.5"/>
</a>
</g>
<text text-anchor="middle" x="137.12" y="-171.7" font-family="Times,serif" font-size="14.00">CALLS [rest] (sync)</text>
</g>
<!-- SERVICE:inventory -->
<g id="node11" class="node">
<title>SERVICE:inventory</title>
<path fill="#eef6ff" stroke="black" d="M1881.12,-110C1881.12,-110 1829.12,-110 1829.12,-110 1823.12,-110 1817.12,-104 1817.12,-98 1817.12,-98 1817.12,-86 1817.12,-86 1817.12,-80 1823.12,-74 1829.12,-74 1829.12,-74 1881.12,-74 1881.12,-74 1887.12,-74 1893.12,-80 1893.12,-86 1893.12,-86 1893.12,-98 1893.12,-98 1893.12,-104 1887.12,-110 1881.12,-110"/>
<text text-anchor="middle" x="1855.12" y="-87.7" font-family="Times,serif" font-size="14.00">inventory</text>
</g>
<!-- SERVICE:orders&#45;&gt;SERVICE:inventory -->
<g id="edge2" class="edge">
<title>SERVICE:orders&#45;&gt;SERVICE:inventory</title>
<g id="a_edge2"><a xlink:title="edge#1">
<path fill="none" stroke="black" d="M1518.86,-92.29C1524.69,-92.17 1530.8,-92.06 1536.5,-92 1631.81,-90.96 1743.23,-91.32 1805.54,-91.67"/>
<polygon fill="black" stroke="black" points="1805.43,-95.17 1815.45,-91.73 1805.47,-88.17 1805.43,-95.17"/>
</a>
</g>
<text text-anchor="middle" x="1595.38" y="-96.7" font-family="Times,serif" font-size="14.00">CALLS [rest] (sync)</text>
</g>
<!-- SERVICE:orders_split&#45;4 -->
<g id="node21" class="node">
<title>SERVICE:orders_split&#45;4</title>
<path fill="#eef6ff" stroke="black" d="M1766.25,-156C1766.25,-156 1684.25,-156 1684.25,-156 1678.25,-156 1672.25,-150 1672.25,-144 1672.25,-144 1672.25,-132 1672.25,-132 1672.25,-126 1678.25,-120 1684.25,-120 1684.25,-120 1766.25,-120 1766.25,-120 1772.25,-120 1778.25,-126 1778.25,-132 1778.25,-132 1778.25,-144 1778.25,-144 1778.25,-150 1772.25,-156 1766.25,-156"/>
<text text-anchor="middle" x="1725.25" y="-133.7" font-family="Times,serif" font-size="14.00">orders_split&#45;4</text>
</g>
<!-- SERVICE:orders&#45;&gt;SERVICE:orders_split&#45;4 -->
<g id="edge31" class="edge">
<title>SERVICE:orders&#45;&gt;SERVICE:orders_split&#45;4</title>
<g id="a_edge31"><a xlink:title="edge#30">
<path fill="none" stroke="black" d="M1518.84,-107.48C1524.56,-109.99 1530.63,-112.32 1536.5,-114 1577.01,-125.62 1624.04,-131.62 1660.9,-134.71"/>
<polygon fill="black" stroke="black" points="1660.24,-138.17 1670.49,-135.46 1660.79,-131.19 1660.24,-138.17"/>
</a>
</g>
<text text-anchor="middle" x="1595.38" y="-137.7" font-family="Times,serif" font-size="14.00">CALLS [rest] (sync)</text>
</g>
<!-- SERVICE:inventory&#45;&gt;DATABASE:shared&#45;db -->
<g id="edge7" class="edge">
<title>SERVICE:inventory&#45;&gt;DATABASE:shared&#45;db</title>
<g id="a_edge7"><a xlink:title="edge#6">
<path fill="none" stroke="black" d="M1893.58,-92C1943.62,-92 2035.04,-92 2113.12,-92 2113.12,-92 2113.12,-92 2766.88,-92 2850.17,-92 2872.03,-106.75 2947.5,-142 2956.42,-146.17 2965.47,-151.67 2973.68,-157.25"/>
<polygon fill="black" stroke="black" points="2971.46,-159.97 2981.64,-162.9 2975.5,-154.26 2971.46,-159.97"/>
</a>
</g>
<text text-anchor="middle" x="2385.62" y="-96.7" font-family="Times,serif" font-size="14.00">CALLS [rest] (sync)</text>
</g>
<!-- SERVICE:orders_split&#45;1&#45;&gt;SERVICE:orders_split -->
<g id="edge8" class="edge">
<title>SERVICE:orders_split&#45;1&#45;&gt;SERVICE:orders_split</title>
<g id="a_edge8"><a xlink:title="edge#7">
<path fill="none" stroke="black" d="M2566.47,-140.23C2607.73,-141.22 2665.76,-142.62 2708.4,-143.64"/>
<polygon fill="black" stroke="black" points="2708.12,-147.14 2718.2,-143.88 2708.29,-140.14 2708.12,-147.14"/>
</a>
</g>
<text text-anchor="middle" x="2643.12" y="-147.7" font-family="Times,serif" font-size="14.00">CALLS [rest] (sync)</text>
</g>
<!-- SERVICE:bff_split -->
<g id="node13" class="node">
<title>SERVICE:bff_split</title>
<path fill="#eef6ff" stroke="black" d="M1009,-267C1009,-267 965.25,-267 965.25,-267 959.25,-267 953.25,-261 953.25,-255 953.25,-255 953.25,-243 953.25,-243 953.25,-237 959.25,-231 965.25,-231 965.25,-231 1009,-231 1009,-231 1015,-231 1021,-237 1021,-243 1021,-243 1021,-255 1021,-255 1021,-261 1015,-267 1009,-267"/>
<text text-anchor="middle" x="987.12" y="-244.7" font-family="Times,serif" font-size="14.00">bff_split</text>
</g>
<!-- SERVICE:bff_split_split -->
<g id="node14" class="node">
<title>SERVICE:bff_split_split</title>
<path fill="#eef6ff" stroke="black" d="M1280.25,-230C1280.25,-230 1202,-230 1202,-230 1196,-230 1190,-224 1190,-218 1190,-218 1190,-206 1190,-206 1190,-200 1196,-194 1202,-194 1202,-194 1280.25,-194 1280.25,-194 1286.25,-194 1292.25,-200 1292.25,-206 1292.25,-206 1292.25,-218 1292.25,-218 1292.25,-224 1286.25,-230 1280.25,-230"/>
<text text-anchor="middle" x="1241.12" y="-207.7" font-family="Times,serif" font-size="14.00">bff_split_split</text>
</g>
<!-- SERVICE:bff_split&#45;&gt;SERVICE:bff_split_split -->
<g id="edge22" class="edge">
<title>SERVICE:bff_split&#45;&gt;SERVICE:bff_split_split</title>
<g id="a_edge22"><a xlink:title="edge#21">
<path fill="none" stroke="black" d="M1021.45,-231.93C1027.18,-229.58 1033.17,-227.47 1039,-226 1084.82,-214.45 1138.24,-211.18 1178.5,-210.68"/>
<polygon fill="black" stroke="black" points="1178.27,-214.18 1188.25,-210.62 1178.22,-207.18 1178.27,-214.18"/>
</a>
</g>
<text text-anchor="middle" x="1101.62" y="-230.7" font-family="Times,serif" font-size="14.00">CALLS [rest] (async)</text>
</g>
<!-- SERVICE:catalog -->
<g id="node22" class="node">
<title>SERVICE:catalog</title>
<path fill="#eef6ff" stroke="black" d="M1744.88,-256C1744.88,-256 1705.62,-256 1705.62,-256 1699.62,-256 1693.62,-250 1693.62,-244 1693.62,-244 1693.62,-232 1693.62,-232 1693.62,-226 1699.62,-220 1705.62,-220 1705.62,-220 1744.88,-220 1744.88,-220 1750.88,-220 1756.88,-226 1756.88,-232 1756.88,-232 1756.88,-244 1756.88,-244 1756.88,-250 1750.88,-256 1744.88,-256"/>
<text text-anchor="middle" x="1725.25" y="-233.7" font-family="Times,serif" font-size="14.00">catalog</text>
</g>
<!-- SERVICE:bff_split&#45;&gt;SERVICE:catalog -->
<g id="edge11" class="edge">
<title>SERVICE:bff_split&#45;&gt;SERVICE:catalog</title>
<g id="a_edge11"><a xlink:title="edge#10">
<path fill="none" stroke="black" d="M1021.42,-249.67C1118.82,-251.42 1411.65,-255.29 1654.25,-244 1663.25,-243.58 1672.87,-242.91 1682.02,-242.15"/>
<polygon fill="black" stroke="black" points="1682.1,-245.66 1691.76,-241.31 1681.5,-238.69 1682.1,-245.66"/>
</a>
</g>
<text text-anchor="middle" x="1380.62" y="-255.7" font-family="Times,serif" font-size="14.00">CALLS [rest] (sync)</text>
</g>
<!-- SERVICE:bff_split_split&#45;&gt;SERVICE:orders -->
<g id="edge13" class="edge">
<title>SERVICE:bff_split_split&#45;&gt;SERVICE:orders</title>
<g id="a_edge13"><a xlink:title="edge#12">
<path fill="none" stroke="black" d="M1283.39,-193.61C1294.49,-189.09 1306.58,-184.53 1318,-181 1372.4,-164.17 1395.32,-184.75 1443.25,-154 1455.95,-145.85 1466.39,-132.86 1474.06,-120.95"/>
<polygon fill="black" stroke="black" points="1476.91,-123 1479.06,-112.63 1470.91,-119.4 1476.91,-123"/>
</a>
</g>
<text text-anchor="middle" x="1380.62" y="-185.7" font-family="Times,serif" font-size="14.00">CALLS [rest] (sync)</text>
</g>
<!-- SERVICE:cart -->
<g id="node18" class="node">
<title>SERVICE:cart</title>
<path fill="#eef6ff" stroke="black" d="M1504.88,-220C1504.88,-220 1474.88,-220 1474.88,-220 1468.88,-220 1462.88,-214 1462.88,-208 1462.88,-208 1462.88,-196 1462.88,-196 1462.88,-190 1468.88,-184 1474.88,-184 1474.88,-184 1504.88,-184 1504.88,-184 1510.88,-184 1516.88,-190 1516.88,-196 1516.88,-196 1516.88,-208 1516.88,-208 1516.88,-214 1510.88,-220 1504.88,-220"/>
<text text-anchor="middle" x="1489.88" y="-197.7" font-family="Times,serif" font-size="14.00">cart</text>
</g>
<!-- SERVICE:bff_split_split&#45;&gt;SERVICE:cart -->
<g id="edge12" class="edge">
<title>SERVICE:bff_split_split&#45;&gt;SERVICE:cart</title>
<g id="a_edge12"><a xlink:title="edge#11">
<path fill="none" stroke="black" d="M1292.65,-209.95C1339.72,-208.04 1408.83,-205.24 1451.23,-203.53"/>
<polygon fill="black" stroke="black" points="1451.33,-207.02 1461.18,-203.12 1451.05,-200.03 1451.33,-207.02"/>
</a>
</g>
<text text-anchor="middle" x="1380.62" y="-212.7" font-family="Times,serif" font-size="14.00">CALLS [rest] (sync)</text>
</g>
<!-- SERVICE:bff&#45;2_split -->
<g id="node15" class="node">
<title>SERVICE:bff&#45;2_split</title>
<path fill="#eef6ff" stroke="black" d="M1269.75,-134C1269.75,-134 1212.5,-134 1212.5,-134 1206.5,-134 1200.5,-128 1200.5,-122 1200.5,-122 1200.5,-110 1200.5,-110 1200.5,-104 1206.5,-98 1212.5,-98 1212.5,-98 1269.75,-98 1269.75,-98 1275.75,-98 1281.75,-104 1281.75,-110 1281.75,-110 1281.75,-122 1281.75,-122 1281.75,-128 1275.75,-134 1269.75,-134"/>
<text text-anchor="middle" x="1241.12" y="-111.7" font-family="Times,serif" font-size="14.00">bff&#45;2_split</text>
</g>
<!-- SERVICE:bff&#45;2_split&#45;&gt;SERVICE:orders -->
<g id="edge20" class="edge">
<title>SERVICE:bff&#45;2_split&#45;&gt;SERVICE:orders</title>
<g id="a_edge20"><a xlink:title="edge#19">
<path fill="none" stroke="black" d="M1281.88,-102.92C1293.4,-99.7 1306.09,-96.69 1318,-95 1362.86,-88.64 1415.02,-89.16 1449.79,-90.61"/>
<polygon fill="black" stroke="black" points="1449.22,-94.09 1459.37,-91.06 1449.55,-87.09 1449.22,-94.09"/>
</a>
</g>
<text text-anchor="middle" x="1380.62" y="-99.7" font-family="Times,serif" font-size="14.00">CALLS [rest] (async)</text>
</g>
<!-- SERVICE:bff&#45;2_split&#45;&gt;SERVICE:cart -->
<g id="edge19" class="edge">
<title>SERVICE:bff&#45;2_split&#45;&gt;SERVICE:cart</title>
<g id="a_edge19"><a xlink:title="edge#18">
<path fill="none" stroke="black" d="M1281.84,-116.06C1332.53,-116.79 1416.8,-120.41 1443.25,-136 1457.88,-144.62 1468.93,-160 1476.48,-173.75"/>
<polygon fill="black" stroke="black" points="1473.25,-175.11 1480.89,-182.45 1479.49,-171.95 1473.25,-175.11"/>
</a>
</g>
<text text-anchor="middle" x="1380.62" y="-140.7" font-family="Times,serif" font-size="14.00">CALLS [rest] (sync)</text>
</g>
<!-- SERVICE:bff&#45;4&#45;&gt;SERVICE:payments -->
<g id="edge29" class="edge">
<title>SERVICE:bff&#45;4&#45;&gt;SERVICE:payments</title>
<g id="a_edge29"><a xlink:title="edge#28">
<path fill="none" stroke="black" d="M1014.52,-20.59C1049.08,-24.17 1111.47,-31.32 1164.25,-41 1172.68,-42.55 1181.57,-44.43 1190.19,-46.38"/>
<polygon fill="black" stroke="black" points="1189.29,-49.77 1199.82,-48.63 1190.88,-42.95 1189.29,-49.77"/>
</a>
</g>
<text text-anchor="middle" x="1101.62" y="-45.7" font-family="Times,serif" font-size="14.00">CALLS [rest] (sync)</text>
</g>
<!-- SERVICE:bff&#45;4&#45;&gt;SERVICE:orders -->
<g id="edge28" class="edge">
<title>SERVICE:bff&#45;4&#45;&gt;SERVICE:orders</title>
<g id="a_edge28"><a xlink:title="edge#27">
<path fill="none" stroke="black" d="M1014.54,-15.26C1068.46,-10.19 1194.94,-1 1300,-14 1365.15,-22.06 1385.67,-18.47 1443.25,-50 1451.31,-54.41 1459.01,-60.59 1465.71,-66.88"/>
<polygon fill="black" stroke="black" points="1463.01,-69.13 1472.56,-73.73 1467.96,-64.18 1463.01,-69.13"/>
</a>
</g>
<text text-anchor="middle" x="1241.12" y="-18.7" font-family="Times,serif" font-size="14.00">CALLS [rest] (sync)</text>
</g>
<!-- SERVICE:auth -->
<g id="node17" class="node">
<title>SERVICE:auth</title>
<path fill="#eef6ff" stroke="black" d="M1002.12,-213C1002.12,-213 972.12,-213 972.12,-213 966.12,-213 960.12,-207 960.12,-201 960.12,-201 960.12,-189 960.12,-189 960.12,-183 966.12,-177 972.12,-177 972.12,-177 1002.12,-177 1002.12,-177 1008.12,-177 1014.12,-183 1014.12,-189 1014.12,-189 1014.12,-201 1014.12,-201 1014.12,-207 1008.12,-213 1002.12,-213"/>
<text text-anchor="middle" x="987.12" y="-190.7" font-family="Times,serif" font-size="14.00">auth</text>
</g>
<!-- SERVICE:cart&#45;&gt;DATABASE:shared&#45;db -->
<g id="edge5" class="edge">
<title>SERVICE:cart&#45;&gt;DATABASE:shared&#45;db</title>
<g id="a_edge5"><a xlink:title="edge#4">
<path fill="none" stroke="black" d="M1517.11,-200.14C1560.28,-197.25 1649.02,-192 1724.25,-192 1724.25,-192 1724.25,-192 2766.88,-192 2831.42,-192 2905.7,-188.3 2954.01,-185.4"/>
<polygon fill="black" stroke="black" points="2954.13,-188.9 2963.9,-184.8 2953.71,-181.92 2954.13,-188.9"/>
</a>
</g>
<text text-anchor="middle" x="2249.88" y="-196.7" font-family="Times,serif" font-size="14.00">CALLS [rest] (sync)</text>
</g>
<!-- SERVICE:cart&#45;&gt;SERVICE:catalog -->
<g id="edge1" class="edge">
<title>SERVICE:cart&#45;&gt;SERVICE:catalog</title>
<g id="a_edge1"><a xlink:title="edge#0">
<path fill="none" stroke="black" d="M1517.22,-205.67C1549.54,-210.22 1605.98,-218.32 1654.25,-226 1663.24,-227.43 1672.87,-229.03 1682.01,-230.59"/>
<polygon fill="black" stroke="black" points="1681.32,-234.02 1691.77,-232.27 1682.51,-227.13 1681.32,-234.02"/>
</a>
</g>
<text text-anchor="middle" x="1595.38" y="-230.7" font-family="Times,serif" font-size="14.00">CALLS [rest] (sync)</text>
</g>
<!-- SERVICE:bff&#45;2&#45;&gt;SERVICE:payments -->
<g id="edge18" class="edge">
<title>SERVICE:bff&#45;2&#45;&gt;SERVICE:payments</title>
<g id="a_edge18"><a xlink:title="edge#17">
<path fill="none" stroke="black" d="M1014.4,-87.74C1022.19,-84.8 1030.83,-81.92 1039,-80 1089.66,-68.1 1149.07,-62.94 1190.13,-60.7"/>
<polygon fill="black" stroke="black" points="1190.14,-64.21 1199.95,-60.21 1189.79,-57.22 1190.14,-64.21"/>
</a>
</g>
<text text-anchor="middle" x="1101.62" y="-84.7" font-family="Times,serif" font-size="14.00">CALLS [rest] (sync)</text>
</g>
<!-- SERVICE:bff&#45;2&#45;&gt;SERVICE:bff&#45;2_split -->
<g id="edge24" class="edge">
<title>SERVICE:bff&#45;2&#45;&gt;SERVICE:bff&#45;2_split</title>
<g id="a_edge24"><a xlink:title="edge#23">
<path fill="none" stroke="black" d="M1014.62,-100.79C1055.85,-103.57 1136.13,-108.98 1188.93,-112.55"/>
<polygon fill="black" stroke="black" points="1188.69,-116.04 1198.9,-113.22 1189.16,-109.05 1188.69,-116.04"/>
</a>
</g>
<text text-anchor="middle" x="1101.62" y="-114.7" font-family="Times,serif" font-size="14.00">CALLS [rest] (sync)</text>
</g>
<!-- SERVICE:bff_split&#45;1&#45;&gt;SERVICE:bff_split -->
<g id="edge15" class="edge">
<title>SERVICE:bff_split&#45;1&#45;&gt;SERVICE:bff_split</title>
<g id="a_edge15"><a xlink:title="edge#14">
<path fill="none" stroke="black" d="M775.17,-206.24C788.54,-209.89 803.62,-213.82 817.5,-217 859.51,-226.63 907.88,-235.6 942.01,-241.57"/>
<polygon fill="black" stroke="black" points="941.07,-244.96 951.52,-243.22 942.27,-238.06 941.07,-244.96"/>
</a>
</g>
<text text-anchor="middle" x="876.38" y="-244.7" font-family="Times,serif" font-size="14.00">CALLS [rest] (sync)</text>
</g>
<!-- SERVICE:bff_split&#45;1&#45;&gt;SERVICE:auth -->
<g id="edge10" class="edge">
<title>SERVICE:bff_split&#45;1&#45;&gt;SERVICE:auth</title>
<g id="a_edge10"><a xlink:title="edge#9">
<path fill="none" stroke="black" d="M774.98,-195C822.4,-195 901.77,-195 948.51,-195"/>
<polygon fill="black" stroke="black" points="948.42,-198.5 958.42,-195 948.42,-191.5 948.42,-198.5"/>
</a>
</g>
<text text-anchor="middle" x="876.38" y="-199.7" font-family="Times,serif" font-size="14.00">CALLS [rest] (sync)</text>
</g>
<!-- SERVICE:orders_split&#45;3 -->
<g id="node24" class="node">
<title>SERVICE:orders_split&#45;3</title>
<path fill="#eef6ff" stroke="black" d="M2025.25,-156C2025.25,-156 1944,-156 1944,-156 1938,-156 1932,-150 1932,-144 1932,-144 1932,-132 1932,-132 1932,-126 1938,-120 1944,-120 1944,-120 2025.25,-120 2025.25,-120 2031.25,-120 2037.25,-126 2037.25,-132 2037.25,-132 2037.25,-144 2037.25,-144 2037.25,-150 2031.25,-156 2025.25,-156"/>
<text text-anchor="middle" x="1984.62" y="-133.7" font-family="Times,serif" font-size="14.00">orders_split&#45;3</text>
</g>
<!-- SERVICE:orders_split&#45;4&#45;&gt;SERVICE:orders_split&#45;3 -->
<g id="edge30" class="edge">
<title>SERVICE:orders_split&#45;4&#45;&gt;SERVICE:orders_split&#45;3</title>
<g id="a_edge30"><a xlink:title="edge#29">
<path fill="none" stroke="black" d="M1778.64,-138C1819.66,-138 1876.86,-138 1920.42,-138"/>
<polygon fill="black" stroke="black" points="1920.23,-141.5 1930.23,-138 1920.23,-134.5 1920.23,-141.5"/>
</a>
</g>
<text text-anchor="middle" x="1855.12" y="-142.7" font-family="Times,serif" font-size="14.00">CALLS [rest] (sync)</text>
</g>
<!-- SERVICE:catalog&#45;&gt;DATABASE:shared&#45;db -->
<g id="edge4" class="edge">
<title>SERVICE:catalog&#45;&gt;DATABASE:shared&#45;db</title>
<g id="a_edge4"><a xlink:title="edge#3">
<path fill="none" stroke="black" d="M1757.15,-238C1805.47,-238 1901.85,-238 1983.62,-238 1983.62,-238 1983.62,-238 2766.88,-238 2848.4,-238 2869.23,-228.83 2947.5,-206 2950.59,-205.1 2953.74,-204.09 2956.89,-203"/>
<polygon fill="black" stroke="black" points="2957.95,-206.34 2966.13,-199.6 2955.53,-199.77 2957.95,-206.34"/>
</a>
</g>
<text text-anchor="middle" x="2385.62" y="-242.7" font-family="Times,serif" font-size="14.00">CALLS [rest] (sync)</text>
</g>
<!-- SERVICE:web&#45;ui_split -->
<g id="node23" class="node">
<title>SERVICE:web&#45;ui_split</title>
<path fill="#eef6ff" stroke="black" d="M504.5,-117C504.5,-117 433.75,-117 433.75,-117 427.75,-117 421.75,-111 421.75,-105 421.75,-105 421.75,-93 421.75,-93 421.75,-87 427.75,-81 433.75,-81 433.75,-81 504.5,-81 504.5,-81 510.5,-81 516.5,-87 516.5,-93 516.5,-93 516.5,-105 516.5,-105 516.5,-111 510.5,-117 504.5,-117"/>
<text text-anchor="middle" x="469.12" y="-94.7" font-family="Times,serif" font-size="14.00">web&#45;ui_split</text>
</g>
<!-- SERVICE:web&#45;ui_split&#45;&gt;SERVICE:bff&#45;3 -->
<g id="edge25" class="edge">
<title>SERVICE:web&#45;ui_split&#45;&gt;SERVICE:bff&#45;3</title>
<g id="a_edge25"><a xlink:title="edge#24">
<path fill="none" stroke="black" d="M516.97,-99C568.15,-99 649.1,-99 696.29,-99"/>
<polygon fill="black" stroke="black" points="696.01,-102.5 706.01,-99 696.01,-95.5 696.01,-102.5"/>
</a>
</g>
<text text-anchor="middle" x="593.38" y="-103.7" font-family="Times,serif" font-size="14.00">CALLS [rest] (sync)</text>
</g>
<!-- SERVICE:orders_split&#45;3&#45;&gt;SERVICE:orders_split&#45;2 -->
<g id="edge23" class="edge">
<title>SERVICE:orders_split&#45;3&#45;&gt;SERVICE:orders_split&#45;2</title>
<g id="a_edge23"><a xlink:title="edge#22">
<path fill="none" stroke="black" d="M2037.63,-138C2080.09,-138 2140.25,-138 2185.51,-138"/>
<polygon fill="black" stroke="black" points="2185.46,-141.5 2195.46,-138 2185.46,-134.5 2185.46,-141.5"/>
</a>
</g>
<text text-anchor="middle" x="2114.12" y="-142.7" font-family="Times,serif" font-size="14.00">CALLS [rest] (sync)</text>
</g>
</g>
</svg>
