<?xml version="1.0" encoding="UTF-8" standalone="no"?>
<!DOCTYPE svg PUBLIC "-//W3C//DTD SVG 1.1//EN"
 "http://www.w3.org/Graphics/SVG/1.1/DTD/svg11.dtd">
<!-- Generated by graphviz version 9.0.0 (20230911.1827)
 -->
<!-- Title: G Pages: 1 -->
<svg width="1096pt" height="391pt"
 viewBox="0.00 0.00 1095.50 390.80" xmlns="http://www.w3.org/2000/svg" xmlns:xlink="http://www.w3.org/1999/xlink">
<g id="graph0" class="graph" transform="scale(1 1) rotate(0) translate(4 386.8)">
<title>G</title>
<polygon fill="white" stroke="none" points="-4,4 -4,-386.8 1091.5,-386.8 1091.5,4 -4,4"/>
<text text-anchor="middle" x="543.75" y="-365.5" font-family="Helvetica,sans-Serif" font-size="14.00">Architecture</text>
<!-- SERVICE:bff -->
<g id="node1" class="node">
<title>SERVICE:bff</title>
<path fill="#eef6ff" stroke="black" d="M276.38,-208.8C276.38,-208.8 246.38,-208.8 246.38,-208.8 240.38,-208.8 234.38,-202.8 234.38,-196.8 234.38,-196.8 234.38,-184.8 234.38,-184.8 234.38,-178.8 240.38,-172.8 246.38,-172.8 246.38,-172.8 276.38,-172.8 276.38,-172.8 282.38,-172.8 288.38,-178.8 288.38,-184.8 288.38,-184.8 288.38,-196.8 288.38,-196.8 288.38,-202.8 282.38,-208.8 276.38,-208.8"/>
<text text-anchor="middle" x="261.38" y="-186.5" font-family="Times,serif" font-size="14.00">bff</text>
</g>
<!-- SERVICE:auth -->
<g id="node6" class="node">
<title>SERVICE:auth</title>
<path fill="#eef6ff" stroke="black" d="M536.38,-356.8C536.38,-356.8 506.38,-356.8 506.38,-356.8 500.38,-356.8 494.38,-350.8 494.38,-344.8 494.38,-344.8 494.38,-332.8 494.38,-332.8 494.38,-326.8 500.38,-320.8 506.38,-320.8 506.38,-320.8 536.38,-320.8 536.38,-320.8 542.38,-320.8 548.38,-326.8 548.38,-332.8 548.38,-332.8 548.38,-344.8 548.38,-344.8 548.38,-350.8 542.38,-356.8 536.38,-356.8"/>
<text text-anchor="middle" x="521.38" y="-334.5" font-family="Times,serif" font-size="14.00">auth</text>
</g>
<!-- SERVICE:bff&#45;&gt;SERVICE:auth -->
<g id="edge14" class="edge">
<title>SERVICE:bff&#45;&gt;SERVICE:auth</title>
<g id="a_edge14"><a xlink:title="edge#13">
<path fill="none" stroke="black" d="M267.99,-208.91C276.55,-233.34 295.27,-276.4 326.75,-298.8 373.18,-331.84 440.81,-338.85 482.62,-339.69"/>
<polygon fill="black" stroke="black" points="482.41,-343.19 492.44,-339.77 482.47,-336.19 482.41,-343.19"/>
</a>
</g>
<text text-anchor="middle" x="385.62" y="-341.5" font-family="Times,serif" font-size="14.00">CALLS [rest] (sync)</text>
</g>
<!-- SERVICE:catalog -->
<g id="node7" class="node">
<title>SERVICE:catalog</title>
<path fill="#eef6ff" stroke="black" d="M812.5,-291.8C812.5,-291.8 773.25,-291.8 773.25,-291.8 767.25,-291.8 761.25,-285.8 761.25,-279.8 761.25,-279.8 761.25,-267.8 761.25,-267.8 761.25,-261.8 767.25,-255.8 773.25,-255.8 773.25,-255.8 812.5,-255.8 812.5,-255.8 818.5,-255.8 824.5,-261.8 824.5,-267.8 824.5,-267.8 824.5,-279.8 824.5,-279.8 824.5,-285.8 818.5,-291.8 812.5,-291.8"/>
<text text-anchor="middle" x="792.88" y="-269.5" font-family="Times,serif" font-size="14.00">catalog</text>
</g>
<!-- SERVICE:bff&#45;&gt;SERVICE:catalog -->
<g id="edge15" class="edge">
<title>SERVICE:bff&#45;&gt;SERVICE:catalog</title>
<g id="a_edge15"><a xlink:title="edge#14">
<path fill="none" stroke="black" d="M288.5,-209.29C299.78,-216.44 313.43,-224.04 326.75,-228.8 475.07,-281.83 665.96,-280.3 749.53,-276.47"/>
<polygon fill="black" stroke="black" points="749.5,-279.98 759.32,-275.99 749.15,-272.99 749.5,-279.98"/>
</a>
</g>
<text text-anchor="middle" x="521.38" y="-279.5" font-family="Times,serif" font-size="14.00">CALLS [rest] (sync)</text>
</g>
<!-- SERVICE:cart -->
<g id="node8" class="node">
<title>SERVICE:cart</title>
<path fill="#eef6ff" stroke="black" d="M536.38,-231.8C536.38,-231.8 506.38,-231.8 506.38,-231.8 500.38,-231.8 494.38,-225.8 494.38,-219.8 494.38,-219.8 494.38,-207.8 494.38,-207.8 494.38,-201.8 500.38,-195.8 506.38,-195.8 506.38,-195.8 536.38,-195.8 536.38,-195.8 542.38,-195.8 548.38,-201.8 548.38,-207.8 548.38,-207.8 548.38,-219.8 548.38,-219.8 548.38,-225.8 542.38,-231.8 536.38,-231.8"/>
<text text-anchor="middle" x="521.38" y="-209.5" font-family="Times,serif" font-size="14.00">cart</text>
</g>
<!-- SERVICE:bff&#45;&gt;SERVICE:cart -->
<g id="edge16" class="edge">
<title>SERVICE:bff&#45;&gt;SERVICE:cart</title>
<g id="a_edge16"><a xlink:title="edge#15">
<path fill="none" stroke="black" d="M288.53,-193.13C334.51,-197.23 429.93,-205.74 482.9,-210.46"/>
<polygon fill="black" stroke="black" points="482.37,-213.92 492.64,-211.33 482.99,-206.95 482.37,-213.92"/>
</a>
</g>
<text text-anchor="middle" x="385.62" y="-211.5" font-family="Times,serif" font-size="14.00">CALLS [rest] (sync)</text>
</g>
<!-- SERVICE:orders -->
<g id="node9" class="node">
<title>SERVICE:orders</title>
<path fill="#eef6ff" stroke="black" d="M538,-167.8C538,-167.8 504.75,-167.8 504.75,-167.8 498.75,-167.8 492.75,-161.8 492.75,-155.8 492.75,-155.8 492.75,-143.8 492.75,-143.8 492.75,-137.8 498.75,-131.8 504.75,-131.8 504.75,-131.8 538,-131.8 538,-131.8 544,-131.8 550,-137.8 550,-143.8 550,-143.8 550,-155.8 550,-155.8 550,-161.8 544,-167.8 538,-167.8"/>
<text text-anchor="middle" x="521.38" y="-145.5" font-family="Times,serif" font-size="14.00">orders</text>
</g>
<!-- SERVICE:bff&#45;&gt;SERVICE:orders -->
<g id="edge17" class="edge">
<title>SERVICE:bff&#45;&gt;SERVICE:orders</title>
<g id="a_edge17"><a xlink:title="edge#16">
<path fill="none" stroke="black" d="M288.85,-183.49C300.42,-180.49 314.19,-177.16 326.75,-174.8 379.73,-164.83 441.61,-157.6 480.89,-153.55"/>
<polygon fill="black" stroke="black" points="481.22,-157.04 490.81,-152.55 480.51,-150.07 481.22,-157.04"/>
</a>
</g>
<text text-anchor="middle" x="385.62" y="-179.5" font-family="Times,serif" font-size="14.00">CALLS [rest] (sync)</text>
</g>
<!-- SERVICE:payments -->
<g id="node10" class="node">
<title>SERVICE:payments</title>
<path fill="#eef6ff" stroke="black" d="M1074,-83.8C1074,-83.8 1019,-83.8 1019,-83.8 1013,-83.8 1007,-77.8 1007,-71.8 1007,-71.8 1007,-59.8 1007,-59.8 1007,-53.8 1013,-47.8 1019,-47.8 1019,-47.8 1074,-47.8 1074,-47.8 1080,-47.8 1086,-53.8 1086,-59.8 1086,-59.8 1086,-71.8 1086,-71.8 1086,-77.8 1080,-83.8 1074,-83.8"/>
<text text-anchor="middle" x="1046.5" y="-61.5" font-family="Times,serif" font-size="14.00">payments</text>
</g>
<!-- SERVICE:bff&#45;&gt;SERVICE:payments -->
<g id="edge18" class="edge">
<title>SERVICE:bff&#45;&gt;SERVICE:payments</title>
<g id="a_edge18"><a xlink:title="edge#17">
<path fill="none" stroke="black" d="M288.73,-173.28C300.05,-166.39 313.67,-158.92 326.75,-153.8 384.38,-131.24 402.02,-135.94 462.5,-122.8 522.7,-109.72 537.24,-103.3 598.25,-94.8 741.45,-74.84 912.39,-68.58 995.37,-66.64"/>
<polygon fill="black" stroke="black" points="995.28,-70.15 1005.21,-66.43 995.13,-63.15 995.28,-70.15"/>
</a>
</g>
<text text-anchor="middle" x="657.12" y="-99.5" font-family="Times,serif" font-size="14.00">CALLS [rest] (sync)</text>
</g>
<!-- SERVICE:inventory -->
<g id="node2" class="node">
<title>SERVICE:inventory</title>
<path fill="#eef6ff" stroke="black" d="M818.88,-183.8C818.88,-183.8 766.88,-183.8 766.88,-183.8 760.88,-183.8 754.88,-177.8 754.88,-171.8 754.88,-171.8 754.88,-159.8 754.88,-159.8 754.88,-153.8 760.88,-147.8 766.88,-147.8 766.88,-147.8 818.88,-147.8 818.88,-147.8 824.88,-147.8 830.88,-153.8 830.88,-159.8 830.88,-159.8 830.88,-171.8 830.88,-171.8 830.88,-177.8 824.88,-183.8 818.88,-183.8"/>
<text text-anchor="middle" x="792.88" y="-161.5" font-family="Times,serif" font-size="14.00">inventory</text>
</g>
<!-- DATABASE:shared&#45;db -->
<g id="node3" class="node">
<title>DATABASE:shared&#45;db</title>
<path fill="#fff3cd" stroke="black" d="M1087.5,-216.53C1087.5,-218.33 1069.12,-219.8 1046.5,-219.8 1023.88,-219.8 1005.5,-218.33 1005.5,-216.53 1005.5,-216.53 1005.5,-187.07 1005.5,-187.07 1005.5,-185.27 1023.88,-183.8 1046.5,-183.8 1069.12,-183.8 1087.5,-185.27 1087.5,-187.07 1087.5,-187.07 1087.5,-216.53 1087.5,-216.53"/>
<path fill="none" stroke="black" d="M1087.5,-216.53C1087.5,-214.72 1069.12,-213.25 1046.5,-213.25 1023.88,-213.25 1005.5,-214.72 1005.5,-216.53"/>
<text text-anchor="middle" x="1046.5" y="-197.5" font-family="Times,serif" font-size="14.00">shared&#45;db</text>
</g>
<!-- SERVICE:inventory&#45;&gt;DATABASE:shared&#45;db -->
<g id="edge10" class="edge">
<title>SERVICE:inventory&#45;&gt;DATABASE:shared&#45;db</title>
<g id="a_edge10"><a xlink:title="edge#9">
<path fill="none" stroke="black" d="M831.19,-168.66C870.33,-171.98 933.53,-178.26 987.5,-187.8 989.64,-188.18 991.82,-188.59 994.02,-189.02"/>
<polygon fill="black" stroke="black" points="993.08,-192.4 1003.59,-191.05 994.53,-185.55 993.08,-192.4"/>
</a>
</g>
<text text-anchor="middle" x="928.62" y="-192.5" font-family="Times,serif" font-size="14.00">CALLS [rest] (sync)</text>
</g>
<!-- SERVICE:web&#45;ui_split -->
<g id="node4" class="node">
<title>SERVICE:web&#45;ui_split</title>
<path fill="#eef6ff" stroke="black" d="M296.75,-99.8C296.75,-99.8 226,-99.8 226,-99.8 220,-99.8 214,-93.8 214,-87.8 214,-87.8 214,-75.8 214,-75.8 214,-69.8 220,-63.8 226,-63.8 226,-63.8 296.75,-63.8 296.75,-63.8 302.75,-63.8 308.75,-69.8 308.75,-75.8 308.75,-75.8 308.75,-87.8 308.75,-87.8 308.75,-93.8 302.75,-99.8 296.75,-99.8"/>
<text text-anchor="middle" x="261.38" y="-77.5" font-family="Times,serif" font-size="14.00">web&#45;ui_split</text>
</g>
<!-- SERVICE:web&#45;ui_split&#45;&gt;SERVICE:cart -->
<g id="edge1" class="edge">
<title>SERVICE:web&#45;ui_split&#45;&gt;SERVICE:cart</title>
<g id="a_edge1"><a xlink:title="edge#0">
<path fill="none" stroke="black" d="M309.11,-84.83C349.37,-89.74 406.78,-102.54 444.5,-135.8 459.43,-148.96 449.56,-161.68 462.5,-176.8 468.62,-183.95 476.46,-190.21 484.39,-195.44"/>
<polygon fill="black" stroke="black" points="482.34,-198.29 492.7,-200.53 485.99,-192.32 482.34,-198.29"/>
</a>
</g>
<text text-anchor="middle" x="385.62" y="-140.5" font-family="Times,serif" font-size="14.00">CALLS [rest] (sync)</text>
</g>
<!-- SERVICE:web&#45;ui_split&#45;&gt;SERVICE:orders -->
<g id="edge2" class="edge">
<title>SERVICE:web&#45;ui_split&#45;&gt;SERVICE:orders</title>
<g id="a_edge2"><a xlink:title="edge#1">
<path fill="none" stroke="black" d="M309.03,-63.77C347.15,-52 401.56,-42.12 444.5,-61.8 471.29,-74.07 492.22,-101 505.24,-121.85"/>
<polygon fill="black" stroke="black" points="502.1,-123.41 510.22,-130.21 508.11,-119.83 502.1,-123.41"/>
</a>
</g>
<text text-anchor="middle" x="385.62" y="-66.5" font-family="Times,serif" font-size="14.00">CALLS [rest] (sync)</text>
</g>
<!-- SERVICE:web&#45;ui_split&#45;&gt;SERVICE:payments -->
<g id="edge3" class="edge">
<title>SERVICE:web&#45;ui_split&#45;&gt;SERVICE:payments</title>
<g id="a_edge3"><a xlink:title="edge#2">
<path fill="none" stroke="black" d="M289.74,-63.46C300.77,-57.02 313.91,-50.47 326.75,-46.8 609.12,33.91 697.44,-5.88 987.5,-51.8 990.13,-52.22 992.82,-52.69 995.53,-53.21"/>
<polygon fill="black" stroke="black" points="994.69,-56.61 1005.19,-55.22 996.11,-49.75 994.69,-56.61"/>
</a>
</g>
<text text-anchor="middle" x="657.12" y="-12.5" font-family="Times,serif" font-size="14.00">CALLS [rest] (sync)</text>
</g>
<!-- SERVICE:web&#45;ui -->
<g id="node5" class="node">
<title>SERVICE:web&#45;ui</title>
<path fill="#eef6ff" stroke="black" d="M48.25,-131.8C48.25,-131.8 12,-131.8 12,-131.8 6,-131.8 0,-125.8 0,-119.8 0,-119.8 0,-107.8 0,-107.8 0,-101.8 6,-95.8 12,-95.8 12,-95.8 48.25,-95.8 48.25,-95.8 54.25,-95.8 60.25,-101.8 60.25,-107.8 60.25,-107.8 60.25,-119.8 60.25,-119.8 60.25,-125.8 54.25,-131.8 48.25,-131.8"/>
<text text-anchor="middle" x="30.12" y="-109.5" font-family="Times,serif" font-size="14.00">web&#45;ui</text>
</g>
<!-- SERVICE:web&#45;ui&#45;&gt;SERVICE:bff -->
<g id="edge13" class="edge">
<title>SERVICE:web&#45;ui&#45;&gt;SERVICE:bff</title>
<g id="a_edge13"><a xlink:title="edge#12">
<path fill="none" stroke="black" d="M60.63,-123.71C102.21,-137.67 178.03,-163.14 223.35,-178.36"/>
<polygon fill="black" stroke="black" points="222.15,-181.65 232.74,-181.52 224.38,-175.02 222.15,-181.65"/>
</a>
</g>
<text text-anchor="middle" x="137.12" y="-172.5" font-family="Times,serif" font-size="14.00">CALLS [rest] (sync)</text>
</g>
<!-- SERVICE:web&#45;ui&#45;&gt;SERVICE:web&#45;ui_split -->
<g id="edge11" class="edge">
<title>SERVICE:web&#45;ui&#45;&gt;SERVICE:web&#45;ui_split</title>
<g id="a_edge11"><a xlink:title="edge#10">
<path fill="none" stroke="black" d="M60.61,-104.86C66.42,-103.33 72.5,-101.89 78.25,-100.8 119.4,-93.03 166.43,-88.23 202.39,-85.39"/>
<polygon fill="black" stroke="black" points="202.44,-88.9 212.15,-84.65 201.91,-81.92 202.44,-88.9"/>
</a>
</g>
<text text-anchor="middle" x="137.12" y="-105.5" font-family="Times,serif" font-size="14.00">CALLS [rest] (sync)</text>
</g>
<!-- SERVICE:catalog&#45;&gt;DATABASE:shared&#45;db -->
<g id="edge7" class="edge">
<title>SERVICE:catalog&#45;&gt;DATABASE:shared&#45;db</title>
<g id="a_edge7"><a xlink:title="edge#6">
<path fill="none" stroke="black" d="M824.85,-270.32C863.75,-265.28 932.12,-254.26 987.5,-233.8 994.08,-231.37 1000.82,-228.28 1007.27,-224.98"/>
<polygon fill="black" stroke="black" points="1008.62,-228.23 1015.77,-220.41 1005.31,-222.06 1008.62,-228.23"/>
</a>
</g>
<text text-anchor="middle" x="928.62" y="-267.5" font-family="Times,serif" font-size="14.00">CALLS [rest] (sync)</text>
</g>
<!-- SERVICE:cart&#45;&gt;DATABASE:shared&#45;db -->
<g id="edge8" class="edge">
<title>SERVICE:cart&#45;&gt;DATABASE:shared&#45;db</title>
<g id="a_edge8"><a xlink:title="edge#7">
<path fill="none" stroke="black" d="M548.87,-213.82C619.94,-213.78 820.68,-212.98 987.5,-205.8 989.57,-205.71 991.67,-205.61 993.8,-205.5"/>
<polygon fill="black" stroke="black" points="993.97,-209 1003.75,-204.93 993.57,-202.01 993.97,-209"/>
</a>
</g>
<text text-anchor="middle" x="792.88" y="-216.5" font-family="Times,serif" font-size="14.00">CALLS [rest] (sync)</text>
</g>
<!-- SERVICE:cart&#45;&gt;SERVICE:catalog -->
<g id="edge4" class="edge">
<title>SERVICE:cart&#45;&gt;SERVICE:catalog</title>
<g id="a_edge4"><a xlink:title="edge#3">
<path fill="none" stroke="black" d="M548.69,-219.45C563.28,-222.56 581.76,-226.45 598.25,-229.8 650.51,-240.41 664.1,-240.57 716,-252.8 727.06,-255.41 738.94,-258.53 749.93,-261.57"/>
<polygon fill="black" stroke="black" points="748.97,-264.94 759.55,-264.27 750.86,-258.2 748.97,-264.94"/>
</a>
</g>
<text text-anchor="middle" x="657.12" y="-257.5" font-family="Times,serif" font-size="14.00">CALLS [rest] (sync)</text>
</g>
<!-- SERVICE:orders&#45;&gt;SERVICE:inventory -->
<g id="edge5" class="edge">
<title>SERVICE:orders&#45;&gt;SERVICE:inventory</title>
<g id="a_edge5"><a xlink:title="edge#4">
<path fill="none" stroke="black" d="M550.45,-151.47C596.02,-154.17 686.62,-159.55 742.95,-162.89"/>
<polygon fill="black" stroke="black" points="742.72,-166.39 752.91,-163.49 743.13,-159.4 742.72,-166.39"/>
</a>
</g>
<text text-anchor="middle" x="657.12" y="-165.5" font-family="Times,serif" font-size="14.00">CALLS [rest] (sync)</text>
</g>
<!-- SERVICE:orders_split -->
<g id="node11" class="node">
<title>SERVICE:orders_split</title>
<path fill="#eef6ff" stroke="black" d="M826.75,-129.8C826.75,-129.8 759,-129.8 759,-129.8 753,-129.8 747,-123.8 747,-117.8 747,-117.8 747,-105.8 747,-105.8 747,-99.8 753,-93.8 759,-93.8 759,-93.8 826.75,-93.8 826.75,-93.8 832.75,-93.8 838.75,-99.8 838.75,-105.8 838.75,-105.8 838.75,-117.8 838.75,-117.8 838.75,-123.8 832.75,-129.8 826.75,-129.8"/>
<text text-anchor="middle" x="792.88" y="-107.5" font-family="Times,serif" font-size="14.00">orders_split</text>
</g>
<!-- SERVICE:orders&#45;&gt;SERVICE:orders_split -->
<g id="edge12" class="edge">
<title>SERVICE:orders&#45;&gt;SERVICE:orders_split</title>
<g id="a_edge12"><a xlink:title="edge#11">
<path fill="none" stroke="black" d="M550.3,-142.26C564.56,-138.64 582.23,-134.51 598.25,-131.8 644.19,-124.01 696.82,-118.81 735.6,-115.67"/>
<polygon fill="black" stroke="black" points="735.45,-119.19 745.15,-114.92 734.91,-112.21 735.45,-119.19"/>
</a>
</g>
<text text-anchor="middle" x="657.12" y="-136.5" font-family="Times,serif" font-size="14.00">CALLS [rest] (sync)</text>
</g>
<!-- SERVICE:orders_split&#45;&gt;DATABASE:shared&#45;db -->
<g id="edge9" class="edge">
<title>SERVICE:orders_split&#45;&gt;DATABASE:shared&#45;db</title>
<g id="a_edge9"><a xlink:title="edge#8">
<path fill="none" stroke="black" d="M838.97,-117.82C887.75,-124.83 961.98,-137.08 987.5,-149.8 1000.14,-156.1 1012.12,-165.91 1021.87,-175.32"/>
<polygon fill="black" stroke="black" points="1019.25,-177.65 1028.77,-182.31 1024.23,-172.73 1019.25,-177.65"/>
</a>
</g>
<text text-anchor="middle" x="928.62" y="-154.5" font-family="Times,serif" font-size="14.00">CALLS [rest] (sync)</text>
</g>
<!-- SERVICE:orders_split&#45;&gt;SERVICE:payments -->
<g id="edge6" class="edge">
<title>SERVICE:orders_split&#45;&gt;SERVICE:payments</title>
<g id="a_edge6"><a xlink:title="edge#5">
<path fill="none" stroke="black" d="M838.94,-104.28C878.23,-97.63 936.71,-87.51 987.5,-77.8 990.1,-77.3 992.76,-76.78 995.45,-76.25"/>
<polygon fill="black" stroke="black" points="995.93,-79.73 1005.05,-74.33 994.56,-72.86 995.93,-79.73"/>
</a>
</g>
<text text-anchor="middle" x="928.62" y="-102.5" font-family="Times,serif" font-size="14.00">CALLS [rest] (sync)</text>
</g>
</g>
</svg>
