<?xml version="1.0" encoding="UTF-8" standalone="no"?>
<!DOCTYPE svg PUBLIC "-//W3C//DTD SVG 1.1//EN"
 "http://www.w3.org/Graphics/SVG/1.1/DTD/svg11.dtd">
<!-- Generated by graphviz version 9.0.0 (20230911.1827)
 -->
<!-- Title: G Pages: 1 -->
<svg width="1096pt" height="364pt"
 viewBox="0.00 0.00 1095.50 364.18" xmlns="http://www.w3.org/2000/svg" xmlns:xlink="http://www.w3.org/1999/xlink">
<g id="graph0" class="graph" transform="scale(1 1) rotate(0) translate(4 360.18)">
<title>G</title>
<polygon fill="white" stroke="none" points="-4,4 -4,-360.18 1091.5,-360.18 1091.5,4 -4,4"/>
<text text-anchor="middle" x="543.75" y="-338.88" font-family="Helvetica,sans-Serif" font-size="14.00">Architecture</text>
<!-- SERVICE:auth -->
<g id="node1" class="node">
<title>SERVICE:auth</title>
<path fill="#eef6ff" stroke="black" d="M536.38,-67.18C536.38,-67.18 506.38,-67.18 506.38,-67.18 500.38,-67.18 494.38,-61.18 494.38,-55.18 494.38,-55.18 494.38,-43.18 494.38,-43.18 494.38,-37.18 500.38,-31.18 506.38,-31.18 506.38,-31.18 536.38,-31.18 536.38,-31.18 542.38,-31.18 548.38,-37.18 548.38,-43.18 548.38,-43.18 548.38,-55.18 548.38,-55.18 548.38,-61.18 542.38,-67.18 536.38,-67.18"/>
<text text-anchor="middle" x="521.38" y="-44.88" font-family="Times,serif" font-size="14.00">auth</text>
</g>
<!-- SERVICE:cart -->
<g id="node2" class="node">
<title>SERVICE:cart</title>
<path fill="#eef6ff" stroke="black" d="M536.38,-121.18C536.38,-121.18 506.38,-121.18 506.38,-121.18 500.38,-121.18 494.38,-115.18 494.38,-109.18 494.38,-109.18 494.38,-97.18 494.38,-97.18 494.38,-91.18 500.38,-85.18 506.38,-85.18 506.38,-85.18 536.38,-85.18 536.38,-85.18 542.38,-85.18 548.38,-91.18 548.38,-97.18 548.38,-97.18 548.38,-109.18 548.38,-109.18 548.38,-115.18 542.38,-121.18 536.38,-121.18"/>
<text text-anchor="middle" x="521.38" y="-98.88" font-family="Times,serif" font-size="14.00">cart</text>
</g>
<!-- DATABASE:shared&#45;db -->
<g id="node5" class="node">
<title>DATABASE:shared&#45;db</title>
<path fill="#fff3cd" stroke="black" d="M1087.5,-126.9C1087.5,-128.71 1069.12,-130.18 1046.5,-130.18 1023.88,-130.18 1005.5,-128.71 1005.5,-126.9 1005.5,-126.9 1005.5,-97.45 1005.5,-97.45 1005.5,-95.64 1023.88,-94.18 1046.5,-94.18 1069.12,-94.18 1087.5,-95.64 1087.5,-97.45 1087.5,-97.45 1087.5,-126.9 1087.5,-126.9"/>
<path fill="none" stroke="black" d="M1087.5,-126.9C1087.5,-125.1 1069.12,-123.63 1046.5,-123.63 1023.88,-123.63 1005.5,-125.1 1005.5,-126.9"/>
<text text-anchor="middle" x="1046.5" y="-107.88" font-family="Times,serif" font-size="14.00">shared&#45;db</text>
</g>
<!-- SERVICE:cart&#45;&gt;DATABASE:shared&#45;db -->
<g id="edge8" class="edge">
<title>SERVICE:cart&#45;&gt;DATABASE:shared&#45;db</title>
<g id="a_edge8"><a xlink:title="edge#7">
<path fill="none" stroke="black" d="M548.85,-102.4C604.8,-100.89 739.14,-97.98 851.75,-101.18 899.92,-102.54 954.75,-105.82 993.76,-108.44"/>
<polygon fill="black" stroke="black" points="993.35,-111.92 1003.57,-109.11 993.83,-104.94 993.35,-111.92"/>
</a>
</g>
<text text-anchor="middle" x="792.88" y="-105.88" font-family="Times,serif" font-size="14.00">CALLS [rest] (sync)</text>
</g>
<!-- SERVICE:catalog -->
<g id="node8" class="node">
<title>SERVICE:catalog</title>
<path fill="#eef6ff" stroke="black" d="M812.5,-56.18C812.5,-56.18 773.25,-56.18 773.25,-56.18 767.25,-56.18 761.25,-50.18 761.25,-44.18 761.25,-44.18 761.25,-32.18 761.25,-32.18 761.25,-26.18 767.25,-20.18 773.25,-20.18 773.25,-20.18 812.5,-20.18 812.5,-20.18 818.5,-20.18 824.5,-26.18 824.5,-32.18 824.5,-32.18 824.5,-44.18 824.5,-44.18 824.5,-50.18 818.5,-56.18 812.5,-56.18"/>
<text text-anchor="middle" x="792.88" y="-33.88" font-family="Times,serif" font-size="14.00">catalog</text>
</g>
<!-- SERVICE:cart&#45;&gt;SERVICE:catalog -->
<g id="edge4" class="edge">
<title>SERVICE:cart&#45;&gt;SERVICE:catalog</title>
<g id="a_edge4"><a xlink:title="edge#3">
<path fill="none" stroke="black" d="M548.87,-92.75C559.04,-88.26 570.52,-82.57 580.25,-76.18 589.19,-70.3 588.48,-64.54 598.25,-60.18 646.89,-38.46 708.95,-35.14 749.52,-35.79"/>
<polygon fill="black" stroke="black" points="749.27,-39.29 759.35,-36.05 749.45,-32.29 749.27,-39.29"/>
</a>
</g>
<text text-anchor="middle" x="657.12" y="-64.88" font-family="Times,serif" font-size="14.00">CALLS [rest] (sync)</text>
</g>
<!-- SERVICE:orders -->
<g id="node3" class="node">
<title>SERVICE:orders</title>
<path fill="#eef6ff" stroke="black" d="M538,-201.18C538,-201.18 504.75,-201.18 504.75,-201.18 498.75,-201.18 492.75,-195.18 492.75,-189.18 492.75,-189.18 492.75,-177.18 492.75,-177.18 492.75,-171.18 498.75,-165.18 504.75,-165.18 504.75,-165.18 538,-165.18 538,-165.18 544,-165.18 550,-171.18 550,-177.18 550,-177.18 550,-189.18 550,-189.18 550,-195.18 544,-201.18 538,-201.18"/>
<text text-anchor="middle" x="521.38" y="-178.88" font-family="Times,serif" font-size="14.00">orders</text>
</g>
<!-- SERVICE:orders_split -->
<g id="node7" class="node">
<title>SERVICE:orders_split</title>
<path fill="#eef6ff" stroke="black" d="M826.75,-218.18C826.75,-218.18 759,-218.18 759,-218.18 753,-218.18 747,-212.18 747,-206.18 747,-206.18 747,-194.18 747,-194.18 747,-188.18 753,-182.18 759,-182.18 759,-182.18 826.75,-182.18 826.75,-182.18 832.75,-182.18 838.75,-188.18 838.75,-194.18 838.75,-194.18 838.75,-206.18 838.75,-206.18 838.75,-212.18 832.75,-218.18 826.75,-218.18"/>
<text text-anchor="middle" x="792.88" y="-195.88" font-family="Times,serif" font-size="14.00">orders_split</text>
</g>
<!-- SERVICE:orders&#45;&gt;SERVICE:orders_split -->
<g id="edge12" class="edge">
<title>SERVICE:orders&#45;&gt;SERVICE:orders_split</title>
<g id="a_edge12"><a xlink:title="edge#11">
<path fill="none" stroke="black" d="M550.45,-184.95C594.09,-187.7 679.05,-193.06 735.64,-196.63"/>
<polygon fill="black" stroke="black" points="735.2,-200.11 745.4,-197.25 735.64,-193.12 735.2,-200.11"/>
</a>
</g>
<text text-anchor="middle" x="657.12" y="-198.88" font-family="Times,serif" font-size="14.00">CALLS [rest] (sync)</text>
</g>
<!-- SERVICE:inventory -->
<g id="node9" class="node">
<title>SERVICE:inventory</title>
<path fill="#eef6ff" stroke="black" d="M818.88,-164.18C818.88,-164.18 766.88,-164.18 766.88,-164.18 760.88,-164.18 754.88,-158.18 754.88,-152.18 754.88,-152.18 754.88,-140.18 754.88,-140.18 754.88,-134.18 760.88,-128.18 766.88,-128.18 766.88,-128.18 818.88,-128.18 818.88,-128.18 824.88,-128.18 830.88,-134.18 830.88,-140.18 830.88,-140.18 830.88,-152.18 830.88,-152.18 830.88,-158.18 824.88,-164.18 818.88,-164.18"/>
<text text-anchor="middle" x="792.88" y="-141.88" font-family="Times,serif" font-size="14.00">inventory</text>
</g>
<!-- SERVICE:orders&#45;&gt;SERVICE:inventory -->
<g id="edge5" class="edge">
<title>SERVICE:orders&#45;&gt;SERVICE:inventory</title>
<g id="a_edge5"><a xlink:title="edge#4">
<path fill="none" stroke="black" d="M550.33,-176.09C564.59,-172.68 582.26,-168.78 598.25,-166.18 647.32,-158.17 703.94,-152.76 743.23,-149.61"/>
<polygon fill="black" stroke="black" points="743.38,-153.11 753.08,-148.84 742.83,-146.13 743.38,-153.11"/>
</a>
</g>
<text text-anchor="middle" x="657.12" y="-170.88" font-family="Times,serif" font-size="14.00">CALLS [rest] (sync)</text>
</g>
<!-- SERVICE:payments -->
<g id="node4" class="node">
<title>SERVICE:payments</title>
<path fill="#eef6ff" stroke="black" d="M1074,-264.18C1074,-264.18 1019,-264.18 1019,-264.18 1013,-264.18 1007,-258.18 1007,-252.18 1007,-252.18 1007,-240.18 1007,-240.18 1007,-234.18 1013,-228.18 1019,-228.18 1019,-228.18 1074,-228.18 1074,-228.18 1080,-228.18 1086,-234.18 1086,-240.18 1086,-240.18 1086,-252.18 1086,-252.18 1086,-258.18 1080,-264.18 1074,-264.18"/>
<text text-anchor="middle" x="1046.5" y="-241.88" font-family="Times,serif" font-size="14.00">payments</text>
</g>
<!-- SERVICE:web&#45;ui_split -->
<g id="node6" class="node">
<title>SERVICE:web&#45;ui_split</title>
<path fill="#eef6ff" stroke="black" d="M296.75,-213.18C296.75,-213.18 226,-213.18 226,-213.18 220,-213.18 214,-207.18 214,-201.18 214,-201.18 214,-189.18 214,-189.18 214,-183.18 220,-177.18 226,-177.18 226,-177.18 296.75,-177.18 296.75,-177.18 302.75,-177.18 308.75,-183.18 308.75,-189.18 308.75,-189.18 308.75,-201.18 308.75,-201.18 308.75,-207.18 302.75,-213.18 296.75,-213.18"/>
<text text-anchor="middle" x="261.38" y="-190.88" font-family="Times,serif" font-size="14.00">web&#45;ui_split</text>
</g>
<!-- SERVICE:web&#45;ui_split&#45;&gt;SERVICE:cart -->
<g id="edge1" class="edge">
<title>SERVICE:web&#45;ui_split&#45;&gt;SERVICE:cart</title>
<g id="a_edge1"><a xlink:title="edge#0">
<path fill="none" stroke="black" d="M282.87,-176.96C291.17,-169.26 300.69,-160.05 308.75,-151.18 317.48,-141.57 315.47,-134.6 326.75,-128.18 340,-120.64 430.24,-111.35 482.72,-106.49"/>
<polygon fill="black" stroke="black" points="482.79,-110 492.43,-105.61 482.15,-103.03 482.79,-110"/>
</a>
</g>
<text text-anchor="middle" x="385.62" y="-132.88" font-family="Times,serif" font-size="14.00">CALLS [rest] (sync)</text>
</g>
<!-- SERVICE:web&#45;ui_split&#45;&gt;SERVICE:orders -->
<g id="edge2" class="edge">
<title>SERVICE:web&#45;ui_split&#45;&gt;SERVICE:orders</title>
<g id="a_edge2"><a xlink:title="edge#1">
<path fill="none" stroke="black" d="M309.21,-195.22C346.02,-194.99 398.58,-194.1 444.5,-191.18 456.4,-190.42 469.31,-189.21 481.05,-187.95"/>
<polygon fill="black" stroke="black" points="481.26,-191.45 490.81,-186.87 480.49,-184.49 481.26,-191.45"/>
</a>
</g>
<text text-anchor="middle" x="385.62" y="-198.88" font-family="Times,serif" font-size="14.00">CALLS [rest] (sync)</text>
</g>
<!-- SERVICE:web&#45;ui_split&#45;&gt;SERVICE:payments -->
<g id="edge3" class="edge">
<title>SERVICE:web&#45;ui_split&#45;&gt;SERVICE:payments</title>
<g id="a_edge3"><a xlink:title="edge#2">
<path fill="none" stroke="black" d="M274.4,-213.63C285.78,-229.27 304.41,-250.62 326.75,-260.18 559.63,-359.82 875,-292.67 995.7,-260.57"/>
<polygon fill="black" stroke="black" points="996.57,-263.96 1005.31,-257.97 994.74,-257.2 996.57,-263.96"/>
</a>
</g>
<text text-anchor="middle" x="657.12" y="-316.88" font-family="Times,serif" font-size="14.00">CALLS [rest] (sync)</text>
</g>
<!-- SERVICE:orders_split&#45;&gt;SERVICE:payments -->
<g id="edge6" class="edge">
<title>SERVICE:orders_split&#45;&gt;SERVICE:payments</title>
<g id="a_edge6"><a xlink:title="edge#5">
<path fill="none" stroke="black" d="M839.07,-198.03C878.94,-197.4 938.22,-199.57 987.5,-214.18 994.37,-216.21 1001.34,-219.16 1007.95,-222.44"/>
<polygon fill="black" stroke="black" points="1006.16,-225.46 1016.63,-227.1 1009.47,-219.29 1006.16,-225.46"/>
</a>
</g>
<text text-anchor="middle" x="928.62" y="-218.88" font-family="Times,serif" font-size="14.00">CALLS [rest] (sync)</text>
</g>
<!-- SERVICE:orders_split&#45;&gt;DATABASE:shared&#45;db -->
<g id="edge9" class="edge">
<title>SERVICE:orders_split&#45;&gt;DATABASE:shared&#45;db</title>
<g id="a_edge9"><a xlink:title="edge#8">
<path fill="none" stroke="black" d="M839.05,-185.29C849.12,-182.14 859.76,-178.94 869.75,-176.18 921.6,-161.83 937.84,-168.85 987.5,-148.18 995.25,-144.95 1003.15,-140.76 1010.52,-136.37"/>
<polygon fill="black" stroke="black" points="1012.26,-139.41 1018.9,-131.16 1008.56,-133.47 1012.26,-139.41"/>
</a>
</g>
<text text-anchor="middle" x="928.62" y="-180.88" font-family="Times,serif" font-size="14.00">CALLS [rest] (sync)</text>
</g>
<!-- SERVICE:catalog&#45;&gt;DATABASE:shared&#45;db -->
<g id="edge7" class="edge">
<title>SERVICE:catalog&#45;&gt;DATABASE:shared&#45;db</title>
<g id="a_edge7"><a xlink:title="edge#6">
<path fill="none" stroke="black" d="M824.9,-36.06C864.45,-34.58 934.11,-36.2 987.5,-60.18 1000.57,-66.05 1012.76,-75.97 1022.56,-85.58"/>
<polygon fill="black" stroke="black" points="1020,-87.97 1029.46,-92.74 1025.04,-83.11 1020,-87.97"/>
</a>
</g>
<text text-anchor="middle" x="928.62" y="-64.88" font-family="Times,serif" font-size="14.00">CALLS [rest] (sync)</text>
</g>
<!-- SERVICE:inventory&#45;&gt;DATABASE:shared&#45;db -->
<g id="edge10" class="edge">
<title>SERVICE:inventory&#45;&gt;DATABASE:shared&#45;db</title>
<g id="a_edge10"><a xlink:title="edge#9">
<path fill="none" stroke="black" d="M831.16,-137.49C843.41,-134.86 857.11,-132.15 869.75,-130.18 911.27,-123.69 958.69,-118.99 993.8,-116.03"/>
<polygon fill="black" stroke="black" points="994.02,-119.52 1003.7,-115.21 993.45,-112.54 994.02,-119.52"/>
</a>
</g>
<text text-anchor="middle" x="928.62" y="-134.88" font-family="Times,serif" font-size="14.00">CALLS [rest] (sync)</text>
</g>
<!-- SERVICE:bff -->
<g id="node10" class="node">
<title>SERVICE:bff</title>
<path fill="#eef6ff" stroke="black" d="M276.38,-142.18C276.38,-142.18 246.38,-142.18 246.38,-142.18 240.38,-142.18 234.38,-136.18 234.38,-130.18 234.38,-130.18 234.38,-118.18 234.38,-118.18 234.38,-112.18 240.38,-106.18 246.38,-106.18 246.38,-106.18 276.38,-106.18 276.38,-106.18 282.38,-106.18 288.38,-112.18 288.38,-118.18 288.38,-118.18 288.38,-130.18 288.38,-130.18 288.38,-136.18 282.38,-142.18 276.38,-142.18"/>
<text text-anchor="middle" x="261.38" y="-119.88" font-family="Times,serif" font-size="14.00">bff</text>
</g>
<!-- SERVICE:bff&#45;&gt;SERVICE:auth -->
<g id="edge14" class="edge">
<title>SERVICE:bff&#45;&gt;SERVICE:auth</title>
<g id="a_edge14"><a xlink:title="edge#13">
<path fill="none" stroke="black" d="M275.4,-105.94C287.02,-91.27 305.47,-71.6 326.75,-62.18 377.22,-39.83 442.39,-40.76 482.78,-44.33"/>
<polygon fill="black" stroke="black" points="482.17,-47.79 492.47,-45.29 482.86,-40.82 482.17,-47.79"/>
</a>
</g>
<text text-anchor="middle" x="385.62" y="-66.88" font-family="Times,serif" font-size="14.00">CALLS [rest] (sync)</text>
</g>
<!-- SERVICE:bff&#45;&gt;SERVICE:cart -->
<g id="edge16" class="edge">
<title>SERVICE:bff&#45;&gt;SERVICE:cart</title>
<g id="a_edge16"><a xlink:title="edge#15">
<path fill="none" stroke="black" d="M288.82,-107.03C300.05,-100.73 313.56,-94.36 326.75,-91.18 379.83,-78.37 443.33,-86.59 482.77,-94.35"/>
<polygon fill="black" stroke="black" points="481.97,-97.76 492.47,-96.36 483.39,-90.9 481.97,-97.76"/>
</a>
</g>
<text text-anchor="middle" x="385.62" y="-95.88" font-family="Times,serif" font-size="14.00">CALLS [rest] (sync)</text>
</g>
<!-- SERVICE:bff&#45;&gt;SERVICE:orders -->
<g id="edge17" class="edge">
<title>SERVICE:bff&#45;&gt;SERVICE:orders</title>
<g id="a_edge17"><a xlink:title="edge#16">
<path fill="none" stroke="black" d="M288.85,-136.43C300.3,-141.32 313.98,-146.62 326.75,-150.18 377.81,-164.41 392.26,-160.15 444.5,-169.18 456.38,-171.23 469.28,-173.57 481.02,-175.74"/>
<polygon fill="black" stroke="black" points="480.34,-179.17 490.81,-177.56 481.62,-172.29 480.34,-179.17"/>
</a>
</g>
<text text-anchor="middle" x="385.62" y="-173.88" font-family="Times,serif" font-size="14.00">CALLS [rest] (sync)</text>
</g>
<!-- SERVICE:bff&#45;&gt;SERVICE:payments -->
<g id="edge18" class="edge">
<title>SERVICE:bff&#45;&gt;SERVICE:payments</title>
<g id="a_edge18"><a xlink:title="edge#17">
<path fill="none" stroke="black" d="M285.74,-142.54C293.86,-149.84 302.5,-158.74 308.75,-168.18 321.34,-187.17 308.3,-202.81 326.75,-216.18 380.54,-255.14 841.15,-250.07 995.4,-247.24"/>
<polygon fill="black" stroke="black" points="995.38,-250.74 1005.31,-247.05 995.24,-243.74 995.38,-250.74"/>
</a>
</g>
<text text-anchor="middle" x="657.12" y="-252.88" font-family="Times,serif" font-size="14.00">CALLS [rest] (sync)</text>
</g>
<!-- SERVICE:bff&#45;&gt;SERVICE:catalog -->
<g id="edge15" class="edge">
<title>SERVICE:bff&#45;&gt;SERVICE:catalog</title>
<g id="a_edge15"><a xlink:title="edge#14">
<path fill="none" stroke="black" d="M271.28,-105.76C281.79,-86.02 301.13,-55.22 326.75,-38.18 378.54,-3.74 400.77,-11.79 462.5,-4.18 565.63,8.54 687.32,-13.65 749.96,-27.79"/>
<polygon fill="black" stroke="black" points="748.94,-31.15 759.48,-29.99 750.52,-24.33 748.94,-31.15"/>
</a>
</g>
<text text-anchor="middle" x="521.38" y="-8.88" font-family="Times,serif" font-size="14.00">CALLS [rest] (sync)</text>
</g>
<!-- SERVICE:web&#45;ui -->
<g id="node11" class="node">
<title>SERVICE:web&#45;ui</title>
<path fill="#eef6ff" stroke="black" d="M48.25,-168.18C48.25,-168.18 12,-168.18 12,-168.18 6,-168.18 0,-162.18 0,-156.18 0,-156.18 0,-144.18 0,-144.18 0,-138.18 6,-132.18 12,-132.18 12,-132.18 48.25,-132.18 48.25,-132.18 54.25,-132.18 60.25,-138.18 60.25,-144.18 60.25,-144.18 60.25,-156.18 60.25,-156.18 60.25,-162.18 54.25,-168.18 48.25,-168.18"/>
<text text-anchor="middle" x="30.12" y="-145.88" font-family="Times,serif" font-size="14.00">web&#45;ui</text>
</g>
<!-- SERVICE:web&#45;ui&#45;&gt;SERVICE:web&#45;ui_split -->
<g id="edge11" class="edge">
<title>SERVICE:web&#45;ui&#45;&gt;SERVICE:web&#45;ui_split</title>
<g id="a_edge11"><a xlink:title="edge#10">
<path fill="none" stroke="black" d="M60.63,-155.97C96.41,-162.99 157.56,-175 202.79,-183.87"/>
<polygon fill="black" stroke="black" points="201.96,-187.28 212.44,-185.77 203.3,-180.41 201.96,-187.28"/>
</a>
</g>
<text text-anchor="middle" x="137.12" y="-185.88" font-family="Times,serif" font-size="14.00">CALLS [rest] (sync)</text>
</g>
<!-- SERVICE:web&#45;ui&#45;&gt;SERVICE:bff -->
<g id="edge13" class="edge">
<title>SERVICE:web&#45;ui&#45;&gt;SERVICE:bff</title>
<g id="a_edge13"><a xlink:title="edge#12">
<path fill="none" stroke="black" d="M60.71,-138.77C66.45,-136.95 72.48,-135.29 78.25,-134.18 127.63,-124.63 185.83,-123.08 222.91,-123.28"/>
<polygon fill="black" stroke="black" points="222.62,-126.77 232.65,-123.38 222.69,-119.77 222.62,-126.77"/>
</a>
</g>
<text text-anchor="middle" x="137.12" y="-138.88" font-family="Times,serif" font-size="14.00">CALLS [rest] (sync)</text>
</g>
</g>
</svg>
