<?xml version="1.0" encoding="UTF-8" standalone="no"?>
<!DOCTYPE svg PUBLIC "-//W3C//DTD SVG 1.1//EN"
 "http://www.w3.org/Graphics/SVG/1.1/DTD/svg11.dtd">
<!-- Generated by graphviz version 9.0.0 (20230911.1827)
 -->
<!-- Title: G Pages: 1 -->
<svg width="838pt" height="196pt"
 viewBox="0.00 0.00 837.75 196.00" xmlns="http://www.w3.org/2000/svg" xmlns:xlink="http://www.w3.org/1999/xlink">
<g id="graph0" class="graph" transform="scale(1 1) rotate(0) translate(4 192)">
<title>G</title>
<polygon fill="white" stroke="none" points="-4,4 -4,-192 833.75,-192 833.75,4 -4,4"/>
<text text-anchor="middle" x="414.88" y="-170.7" font-family="Helvetica,sans-Serif" font-size="14.00">Architecture</text>
<!-- SERVICE:payment&#45;service -->
<g id="node1" class="node">
<title>SERVICE:payment&#45;service</title>
<path fill="#eef6ff" stroke="black" d="M630,-73C630,-73 531.5,-73 531.5,-73 525.5,-73 519.5,-67 519.5,-61 519.5,-61 519.5,-49 519.5,-49 519.5,-43 525.5,-37 531.5,-37 531.5,-37 630,-37 630,-37 636,-37 642,-43 642,-49 642,-49 642,-61 642,-61 642,-67 636,-73 630,-73"/>
<text text-anchor="middle" x="580.75" y="-50.7" font-family="Times,serif" font-size="14.00">payment&#45;service</text>
</g>
<!-- DATABASE:payments&#45;db -->
<g id="node3" class="node">
<title>DATABASE:payments&#45;db</title>
<path fill="#fff3cd" stroke="black" d="M829.75,-32.73C829.75,-34.53 807,-36 779,-36 751,-36 728.25,-34.53 728.25,-32.73 728.25,-32.73 728.25,-3.27 728.25,-3.27 728.25,-1.47 751,0 779,0 807,0 829.75,-1.47 829.75,-3.27 829.75,-3.27 829.75,-32.73 829.75,-32.73"/>
<path fill="none" stroke="black" d="M829.75,-32.73C829.75,-30.92 807,-29.45 779,-29.45 751,-29.45 728.25,-30.92 728.25,-32.73"/>
<text text-anchor="middle" x="779" y="-13.7" font-family="Times,serif" font-size="14.00">payments&#45;db</text>
</g>
<!-- SERVICE:payment&#45;service&#45;&gt;DATABASE:payments&#45;db -->
<g id="edge9" class="edge">
<title>SERVICE:payment&#45;service&#45;&gt;DATABASE:payments&#45;db</title>
<g id="a_edge9"><a xlink:title="edge#8">
<path fill="none" stroke="black" d="M642.23,-43.6C665.96,-39.12 693.14,-34 716.92,-29.52"/>
<polygon fill="black" stroke="black" points="717.27,-33.01 726.45,-27.72 715.97,-26.13 717.27,-33.01"/>
</a>
</g>
<text text-anchor="middle" x="685.12" y="-43.7" font-family="Times,serif" font-size="14.00">WRITES</text>
</g>
<!-- DATABASE:users&#45;db -->
<g id="node2" class="node">
<title>DATABASE:users&#45;db</title>
<path fill="#fff3cd" stroke="black" d="M815.12,-144.73C815.12,-146.53 798.93,-148 779,-148 759.07,-148 742.88,-146.53 742.88,-144.73 742.88,-144.73 742.88,-115.27 742.88,-115.27 742.88,-113.47 759.07,-112 779,-112 798.93,-112 815.12,-113.47 815.12,-115.27 815.12,-115.27 815.12,-144.73 815.12,-144.73"/>
<path fill="none" stroke="black" d="M815.12,-144.73C815.12,-142.92 798.93,-141.45 779,-141.45 759.07,-141.45 742.88,-142.92 742.88,-144.73"/>
<text text-anchor="middle" x="779" y="-125.7" font-family="Times,serif" font-size="14.00">users&#45;db</text>
</g>
<!-- SERVICE:api&#45;gateway -->
<g id="node4" class="node">
<title>SERVICE:api&#45;gateway</title>
<path fill="#eef6ff" stroke="black" d="M83.5,-99C83.5,-99 12,-99 12,-99 6,-99 0,-93 0,-87 0,-87 0,-75 0,-75 0,-69 6,-63 12,-63 12,-63 83.5,-63 83.5,-63 89.5,-63 95.5,-69 95.5,-75 95.5,-75 95.5,-87 95.5,-87 95.5,-93 89.5,-99 83.5,-99"/>
<text text-anchor="middle" x="47.75" y="-76.7" font-family="Times,serif" font-size="14.00">api&#45;gateway</text>
</g>
<!-- SERVICE:user&#45;service -->
<g id="node5" class="node">
<title>SERVICE:user&#45;service</title>
<path fill="#eef6ff" stroke="black" d="M342.12,-127C342.12,-127 272.88,-127 272.88,-127 266.88,-127 260.88,-121 260.88,-115 260.88,-115 260.88,-103 260.88,-103 260.88,-97 266.88,-91 272.88,-91 272.88,-91 342.12,-91 342.12,-91 348.12,-91 354.12,-97 354.12,-103 354.12,-103 354.12,-115 354.12,-115 354.12,-121 348.12,-127 342.12,-127"/>
<text text-anchor="middle" x="307.5" y="-104.7" font-family="Times,serif" font-size="14.00">user&#45;service</text>
</g>
<!-- SERVICE:api&#45;gateway&#45;&gt;SERVICE:user&#45;service -->
<g id="edge1" class="edge">
<title>SERVICE:api&#45;gateway&#45;&gt;SERVICE:user&#45;service</title>
<g id="a_edge1"><a xlink:title="edge#0">
<path fill="none" stroke="black" d="M95.73,-86.1C138.96,-90.8 203.2,-97.78 249.38,-102.8"/>
<polygon fill="black" stroke="black" points="248.89,-106.26 259.21,-103.86 249.65,-99.3 248.89,-106.26"/>
</a>
</g>
<text text-anchor="middle" x="175" y="-104.7" font-family="Times,serif" font-size="14.00">calls (1 ep), 600rpm</text>
</g>
<!-- SERVICE:billing&#45;service -->
<g id="node7" class="node">
<title>SERVICE:billing&#45;service</title>
<path fill="#eef6ff" stroke="black" d="M348.5,-73C348.5,-73 266.5,-73 266.5,-73 260.5,-73 254.5,-67 254.5,-61 254.5,-61 254.5,-49 254.5,-49 254.5,-43 260.5,-37 266.5,-37 266.5,-37 348.5,-37 348.5,-37 354.5,-37 360.5,-43 360.5,-49 360.5,-49 360.5,-61 360.5,-61 360.5,-67 354.5,-73 348.5,-73"/>
<text text-anchor="middle" x="307.5" y="-50.7" font-family="Times,serif" font-size="14.00">billing&#45;service</text>
</g>
<!-- SERVICE:api&#45;gateway&#45;&gt;SERVICE:billing&#45;service -->
<g id="edge2" class="edge">
<title>SERVICE:api&#45;gateway&#45;&gt;SERVICE:billing&#45;service</title>
<g id="a_edge2"><a xlink:title="edge#1">
<path fill="none" stroke="black" d="M95.93,-68.24C101.81,-66.98 107.77,-65.85 113.5,-65 156.36,-58.65 205.09,-56.16 242.87,-55.26"/>
<polygon fill="black" stroke="black" points="242.78,-58.76 252.7,-55.06 242.63,-51.76 242.78,-58.76"/>
</a>
</g>
<text text-anchor="middle" x="175" y="-69.7" font-family="Times,serif" font-size="14.00">calls (1 ep), 300rpm</text>
</g>
<!-- SERVICE:user&#45;service&#45;&gt;DATABASE:users&#45;db -->
<g id="edge4" class="edge">
<title>SERVICE:user&#45;service&#45;&gt;DATABASE:users&#45;db</title>
<g id="a_edge4"><a xlink:title="edge#3">
<path fill="none" stroke="black" d="M354.39,-125.27C362.35,-127.56 370.6,-129.6 378.5,-131 501.82,-152.85 534.79,-141.11 660,-144 682.33,-144.52 688.03,-146.27 710.25,-144 717.15,-143.29 724.38,-142.2 731.44,-140.92"/>
<polygon fill="black" stroke="black" points="732.07,-144.36 741.21,-139 730.73,-137.49 732.07,-144.36"/>
</a>
</g>
<text text-anchor="middle" x="580.75" y="-148.7" font-family="Times,serif" font-size="14.00">READS</text>
</g>
<!-- SERVICE:auth&#45;service -->
<g id="node6" class="node">
<title>SERVICE:auth&#45;service</title>
<path fill="#eef6ff" stroke="black" d="M616.12,-127C616.12,-127 545.38,-127 545.38,-127 539.38,-127 533.38,-121 533.38,-115 533.38,-115 533.38,-103 533.38,-103 533.38,-97 539.38,-91 545.38,-91 545.38,-91 616.12,-91 616.12,-91 622.12,-91 628.12,-97 628.12,-103 628.12,-103 628.12,-115 628.12,-115 628.12,-121 622.12,-127 616.12,-127"/>
<text text-anchor="middle" x="580.75" y="-104.7" font-family="Times,serif" font-size="14.00">auth&#45;service</text>
</g>
<!-- SERVICE:user&#45;service&#45;&gt;SERVICE:auth&#45;service -->
<g id="edge3" class="edge">
<title>SERVICE:user&#45;service&#45;&gt;SERVICE:auth&#45;service</title>
<g id="a_edge3"><a xlink:title="edge#2">
<path fill="none" stroke="black" d="M354.51,-109C400.65,-109 471.82,-109 521.79,-109"/>
<polygon fill="black" stroke="black" points="521.54,-112.5 531.54,-109 521.54,-105.5 521.54,-112.5"/>
</a>
</g>
<text text-anchor="middle" x="440" y="-113.7" font-family="Times,serif" font-size="14.00">calls (1 ep), 600rpm</text>
</g>
<!-- SERVICE:auth&#45;service&#45;&gt;DATABASE:users&#45;db -->
<g id="edge5" class="edge">
<title>SERVICE:auth&#45;service&#45;&gt;DATABASE:users&#45;db</title>
<g id="a_edge5"><a xlink:title="edge#4">
<path fill="none" stroke="black" d="M628.26,-113.98C659.32,-117.3 700.02,-121.66 731.14,-124.99"/>
<polygon fill="black" stroke="black" points="730.74,-128.46 741.06,-126.05 731.49,-121.5 730.74,-128.46"/>
</a>
</g>
<text text-anchor="middle" x="685.12" y="-126.7" font-family="Times,serif" font-size="14.00">READS</text>
</g>
<!-- SERVICE:auth&#45;service&#45;&gt;DATABASE:users&#45;db -->
<g id="edge6" class="edge">
<title>SERVICE:auth&#45;service&#45;&gt;DATABASE:users&#45;db</title>
<g id="a_edge6"><a xlink:title="edge#5">
<path fill="none" stroke="black" d="M628.35,-96.25C652.97,-91.43 683.54,-88.51 710.25,-95 720.74,-97.55 731.41,-102.02 741.1,-106.94"/>
<polygon fill="black" stroke="black" points="739.37,-109.98 749.83,-111.65 742.69,-103.82 739.37,-109.98"/>
</a>
</g>
<text text-anchor="middle" x="685.12" y="-99.7" font-family="Times,serif" font-size="14.00">WRITES</text>
</g>
<!-- SERVICE:billing&#45;service&#45;&gt;SERVICE:payment&#45;service -->
<g id="edge7" class="edge">
<title>SERVICE:billing&#45;service&#45;&gt;SERVICE:payment&#45;service</title>
<g id="a_edge7"><a xlink:title="edge#6">
<path fill="none" stroke="black" d="M360.8,-55C402.52,-55 461.43,-55 507.63,-55"/>
<polygon fill="black" stroke="black" points="507.57,-58.5 517.57,-55 507.57,-51.5 507.57,-58.5"/>
</a>
</g>
<text text-anchor="middle" x="440" y="-59.7" font-family="Times,serif" font-size="14.00">calls (1 ep), 500rpm</text>
</g>
<!-- SERVICE:billing&#45;service&#45;&gt;DATABASE:payments&#45;db -->
<g id="edge8" class="edge">
<title>SERVICE:billing&#45;service&#45;&gt;DATABASE:payments&#45;db</title>
<g id="a_edge8"><a xlink:title="edge#7">
<path fill="none" stroke="black" d="M360.9,-40.61C403.3,-29.75 464.74,-15.77 519.5,-10 573.64,-4.29 587.58,-8.4 642,-10 666.48,-10.72 693.41,-12.17 716.8,-13.63"/>
<polygon fill="black" stroke="black" points="716.26,-17.11 726.46,-14.26 716.71,-10.12 716.26,-17.11"/>
</a>
</g>
<text text-anchor="middle" x="580.75" y="-14.7" font-family="Times,serif" font-size="14.00">READS</text>
</g>
</g>
</svg>
