<?xml version="1.0" encoding="UTF-8" standalone="no"?>
<!DOCTYPE svg PUBLIC "-//W3C//DTD SVG 1.1//EN"
 "http://www.w3.org/Graphics/SVG/1.1/DTD/svg11.dtd">
<!-- Generated by graphviz version 9.0.0 (20230911.1827)
 -->
<!-- Title: G Pages: 1 -->
<svg width="788pt" height="502pt"
 viewBox="0.00 0.00 788.25 502.00" xmlns="http://www.w3.org/2000/svg" xmlns:xlink="http://www.w3.org/1999/xlink">
<g id="graph0" class="graph" transform="scale(1 1) rotate(0) translate(4 498)">
<title>G</title>
<polygon fill="white" stroke="none" points="-4,4 -4,-498 784.25,-498 784.25,4 -4,4"/>
<text text-anchor="middle" x="390.12" y="-476.7" font-family="Helvetica,sans-Serif" font-size="14.00">Architecture</text>
<!-- SERVICE:web&#45;ui -->
<g id="node1" class="node">
<title>SERVICE:web&#45;ui</title>
<path fill="#eef6ff" stroke="black" d="M73.75,-144C73.75,-144 37.5,-144 37.5,-144 31.5,-144 25.5,-138 25.5,-132 25.5,-132 25.5,-120 25.5,-120 25.5,-114 31.5,-108 37.5,-108 37.5,-108 73.75,-108 73.75,-108 79.75,-108 85.75,-114 85.75,-120 85.75,-120 85.75,-132 85.75,-132 85.75,-138 79.75,-144 73.75,-144"/>
<text text-anchor="middle" x="55.62" y="-121.7" font-family="Times,serif" font-size="14.00">web&#45;ui</text>
</g>
<!-- SERVICE:auth -->
<g id="node2" class="node">
<title>SERVICE:auth</title>
<path fill="#eef6ff" stroke="black" d="M322.5,-252C322.5,-252 292.5,-252 292.5,-252 286.5,-252 280.5,-246 280.5,-240 280.5,-240 280.5,-228 280.5,-228 280.5,-222 286.5,-216 292.5,-216 292.5,-216 322.5,-216 322.5,-216 328.5,-216 334.5,-222 334.5,-228 334.5,-228 334.5,-240 334.5,-240 334.5,-246 328.5,-252 322.5,-252"/>
<text text-anchor="middle" x="307.5" y="-229.7" font-family="Times,serif" font-size="14.00">auth</text>
</g>
<!-- SERVICE:web&#45;ui&#45;&gt;SERVICE:auth -->
<g id="edge1" class="edge">
<title>SERVICE:web&#45;ui&#45;&gt;SERVICE:auth</title>
<g id="a_edge1"><a xlink:title="edge#0">
<path fill="none" stroke="black" d="M71.7,-144.46C85.2,-159.76 106.35,-180.9 129.25,-193 173.72,-216.51 231.46,-226.63 268.75,-230.93"/>
<polygon fill="black" stroke="black" points="268.28,-234.4 278.59,-231.97 269.01,-227.44 268.28,-234.4"/>
</a>
</g>
<text text-anchor="middle" x="188.12" y="-232.7" font-family="Times,serif" font-size="14.00">CALLS [rest] (sync)</text>
</g>
<!-- SERVICE:profile -->
<g id="node3" class="node">
<title>SERVICE:profile</title>
<path fill="#eef6ff" stroke="black" d="M324.12,-198C324.12,-198 290.88,-198 290.88,-198 284.88,-198 278.88,-192 278.88,-186 278.88,-186 278.88,-174 278.88,-174 278.88,-168 284.88,-162 290.88,-162 290.88,-162 324.12,-162 324.12,-162 330.12,-162 336.12,-168 336.12,-174 336.12,-174 336.12,-186 336.12,-186 336.12,-192 330.12,-198 324.12,-198"/>
<text text-anchor="middle" x="307.5" y="-175.7" font-family="Times,serif" font-size="14.00">profile</text>
</g>
<!-- SERVICE:web&#45;ui&#45;&gt;SERVICE:profile -->
<g id="edge5" class="edge">
<title>SERVICE:web&#45;ui&#45;&gt;SERVICE:profile</title>
<g id="a_edge5"><a xlink:title="edge#4">
<path fill="none" stroke="black" d="M86.09,-135.77C99.21,-139.9 114.91,-144.54 129.25,-148 176.43,-159.37 231.55,-168.71 267.65,-174.31"/>
<polygon fill="black" stroke="black" points="266.75,-177.71 277.17,-175.76 267.81,-170.79 266.75,-177.71"/>
</a>
</g>
<text text-anchor="middle" x="188.12" y="-175.7" font-family="Times,serif" font-size="14.00">CALLS [rest] (sync)</text>
</g>
<!-- SERVICE:catalog -->
<g id="node9" class="node">
<title>SERVICE:catalog</title>
<path fill="#eef6ff" stroke="black" d="M327.12,-144C327.12,-144 287.88,-144 287.88,-144 281.88,-144 275.88,-138 275.88,-132 275.88,-132 275.88,-120 275.88,-120 275.88,-114 281.88,-108 287.88,-108 287.88,-108 327.12,-108 327.12,-108 333.12,-108 339.12,-114 339.12,-120 339.12,-120 339.12,-132 339.12,-132 339.12,-138 333.12,-144 327.12,-144"/>
<text text-anchor="middle" x="307.5" y="-121.7" font-family="Times,serif" font-size="14.00">catalog</text>
</g>
<!-- SERVICE:web&#45;ui&#45;&gt;SERVICE:catalog -->
<g id="edge2" class="edge">
<title>SERVICE:web&#45;ui&#45;&gt;SERVICE:catalog</title>
<g id="a_edge2"><a xlink:title="edge#1">
<path fill="none" stroke="black" d="M85.78,-126C129.85,-126 213.66,-126 264.37,-126"/>
<polygon fill="black" stroke="black" points="264.07,-129.5 274.07,-126 264.07,-122.5 264.07,-129.5"/>
</a>
</g>
<text text-anchor="middle" x="188.12" y="-130.7" font-family="Times,serif" font-size="14.00">CALLS [rest] (sync)</text>
</g>
<!-- SERVICE:reviews -->
<g id="node10" class="node">
<title>SERVICE:reviews</title>
<path fill="#eef6ff" stroke="black" d="M327.88,-90C327.88,-90 287.12,-90 287.12,-90 281.12,-90 275.12,-84 275.12,-78 275.12,-78 275.12,-66 275.12,-66 275.12,-60 281.12,-54 287.12,-54 287.12,-54 327.88,-54 327.88,-54 333.88,-54 339.88,-60 339.88,-66 339.88,-66 339.88,-78 339.88,-78 339.88,-84 333.88,-90 327.88,-90"/>
<text text-anchor="middle" x="307.5" y="-67.7" font-family="Times,serif" font-size="14.00">reviews</text>
</g>
<!-- SERVICE:web&#45;ui&#45;&gt;SERVICE:reviews -->
<g id="edge3" class="edge">
<title>SERVICE:web&#45;ui&#45;&gt;SERVICE:reviews</title>
<g id="a_edge3"><a xlink:title="edge#2">
<path fill="none" stroke="black" d="M86.09,-116.23C99.21,-112.1 114.91,-107.46 129.25,-104 174.79,-93.03 227.72,-83.94 263.8,-78.29"/>
<polygon fill="black" stroke="black" points="264.05,-81.79 273.4,-76.81 262.98,-74.88 264.05,-81.79"/>
</a>
</g>
<text text-anchor="middle" x="188.12" y="-108.7" font-family="Times,serif" font-size="14.00">CALLS [rest] (sync)</text>
</g>
<!-- SERVICE:support -->
<g id="node11" class="node">
<title>SERVICE:support</title>
<path fill="#eef6ff" stroke="black" d="M328.25,-36C328.25,-36 286.75,-36 286.75,-36 280.75,-36 274.75,-30 274.75,-24 274.75,-24 274.75,-12 274.75,-12 274.75,-6 280.75,0 286.75,0 286.75,0 328.25,0 328.25,0 334.25,0 340.25,-6 340.25,-12 340.25,-12 340.25,-24 340.25,-24 340.25,-30 334.25,-36 328.25,-36"/>
<text text-anchor="middle" x="307.5" y="-13.7" font-family="Times,serif" font-size="14.00">support</text>
</g>
<!-- SERVICE:web&#45;ui&#45;&gt;SERVICE:support -->
<g id="edge4" class="edge">
<title>SERVICE:web&#45;ui&#45;&gt;SERVICE:support</title>
<g id="a_edge4"><a xlink:title="edge#3">
<path fill="none" stroke="black" d="M72.04,-107.55C85.59,-92.53 106.64,-71.92 129.25,-60 171.72,-37.61 226.14,-27.01 263.41,-22.08"/>
<polygon fill="black" stroke="black" points="263.4,-25.61 272.89,-20.92 262.54,-18.66 263.4,-25.61"/>
</a>
</g>
<text text-anchor="middle" x="188.12" y="-64.7" font-family="Times,serif" font-size="14.00">CALLS [rest] (sync)</text>
</g>
<!-- SERVICE:validator -->
<g id="node4" class="node">
<title>SERVICE:validator</title>
<path fill="#eef6ff" stroke="black" d="M331.62,-306C331.62,-306 283.38,-306 283.38,-306 277.38,-306 271.38,-300 271.38,-294 271.38,-294 271.38,-282 271.38,-282 271.38,-276 277.38,-270 283.38,-270 283.38,-270 331.62,-270 331.62,-270 337.62,-270 343.62,-276 343.62,-282 343.62,-282 343.62,-294 343.62,-294 343.62,-300 337.62,-306 331.62,-306"/>
<text text-anchor="middle" x="307.5" y="-283.7" font-family="Times,serif" font-size="14.00">validator</text>
</g>
<!-- SERVICE:enricher -->
<g id="node5" class="node">
<title>SERVICE:enricher</title>
<path fill="#eef6ff" stroke="black" d="M560.25,-306C560.25,-306 515.75,-306 515.75,-306 509.75,-306 503.75,-300 503.75,-294 503.75,-294 503.75,-282 503.75,-282 503.75,-276 509.75,-270 515.75,-270 515.75,-270 560.25,-270 560.25,-270 566.25,-270 572.25,-276 572.25,-282 572.25,-282 572.25,-294 572.25,-294 572.25,-300 566.25,-306 560.25,-306"/>
<text text-anchor="middle" x="538" y="-283.7" font-family="Times,serif" font-size="14.00">enricher</text>
</g>
<!-- SERVICE:validator&#45;&gt;SERVICE:enricher -->
<g id="edge7" class="edge">
<title>SERVICE:validator&#45;&gt;SERVICE:enricher</title>
<g id="a_edge7"><a xlink:title="edge#6">
<path fill="none" stroke="black" d="M343.7,-288C383.61,-288 448.75,-288 492.24,-288"/>
<polygon fill="black" stroke="black" points="492.1,-291.5 502.1,-288 492.1,-284.5 492.1,-291.5"/>
</a>
</g>
<text text-anchor="middle" x="426.88" y="-292.7" font-family="Times,serif" font-size="14.00">CALLS [rest] (sync)</text>
</g>
<!-- SERVICE:writer -->
<g id="node6" class="node">
<title>SERVICE:writer</title>
<path fill="#eef6ff" stroke="black" d="M768.25,-306C768.25,-306 738,-306 738,-306 732,-306 726,-300 726,-294 726,-294 726,-282 726,-282 726,-276 732,-270 738,-270 738,-270 768.25,-270 768.25,-270 774.25,-270 780.25,-276 780.25,-282 780.25,-282 780.25,-294 780.25,-294 780.25,-300 774.25,-306 768.25,-306"/>
<text text-anchor="middle" x="753.12" y="-283.7" font-family="Times,serif" font-size="14.00">writer</text>
</g>
<!-- SERVICE:enricher&#45;&gt;SERVICE:writer -->
<g id="edge8" class="edge">
<title>SERVICE:enricher&#45;&gt;SERVICE:writer</title>
<g id="a_edge8"><a xlink:title="edge#7">
<path fill="none" stroke="black" d="M572.3,-288C610.79,-288 674,-288 714.31,-288"/>
<polygon fill="black" stroke="black" points="714.26,-291.5 724.26,-288 714.26,-284.5 714.26,-291.5"/>
</a>
</g>
<text text-anchor="middle" x="649.12" y="-292.7" font-family="Times,serif" font-size="14.00">CALLS [rest] (sync)</text>
</g>
<!-- SERVICE:refund&#45;api -->
<g id="node7" class="node">
<title>SERVICE:refund&#45;api</title>
<path fill="#eef6ff" stroke="black" d="M85,-468C85,-468 26.25,-468 26.25,-468 20.25,-468 14.25,-462 14.25,-456 14.25,-456 14.25,-444 14.25,-444 14.25,-438 20.25,-432 26.25,-432 26.25,-432 85,-432 85,-432 91,-432 97,-438 97,-444 97,-444 97,-456 97,-456 97,-462 91,-468 85,-468"/>
<text text-anchor="middle" x="55.62" y="-445.7" font-family="Times,serif" font-size="14.00">refund&#45;api</text>
</g>
<!-- DATABASE:finance&#45;db -->
<g id="node14" class="node">
<title>DATABASE:finance&#45;db</title>
<path fill="#fff3cd" stroke="black" d="M350,-410.73C350,-412.53 330.95,-414 307.5,-414 284.05,-414 265,-412.53 265,-410.73 265,-410.73 265,-381.27 265,-381.27 265,-379.47 284.05,-378 307.5,-378 330.95,-378 350,-379.47 350,-381.27 350,-381.27 350,-410.73 350,-410.73"/>
<path fill="none" stroke="black" d="M350,-410.73C350,-408.92 330.95,-407.45 307.5,-407.45 284.05,-407.45 265,-408.92 265,-410.73"/>
<text text-anchor="middle" x="307.5" y="-391.7" font-family="Times,serif" font-size="14.00">finance&#45;db</text>
</g>
<!-- SERVICE:refund&#45;api&#45;&gt;DATABASE:finance&#45;db -->
<g id="edge10" class="edge">
<title>SERVICE:refund&#45;api&#45;&gt;DATABASE:finance&#45;db</title>
<g id="a_edge10"><a xlink:title="edge#9">
<path fill="none" stroke="black" d="M97.21,-445.42C136.07,-440.51 196.15,-431.54 247,-418 249.24,-417.4 251.52,-416.75 253.82,-416.07"/>
<polygon fill="black" stroke="black" points="254.67,-419.47 263.12,-413.08 252.53,-412.8 254.67,-419.47"/>
</a>
</g>
<text text-anchor="middle" x="188.12" y="-445.7" font-family="Times,serif" font-size="14.00">CALLS [rest] (sync)</text>
</g>
<!-- SERVICE:settlement&#45;api -->
<g id="node8" class="node">
<title>SERVICE:settlement&#45;api</title>
<path fill="#eef6ff" stroke="black" d="M99.25,-414C99.25,-414 12,-414 12,-414 6,-414 0,-408 0,-402 0,-402 0,-390 0,-390 0,-384 6,-378 12,-378 12,-378 99.25,-378 99.25,-378 105.25,-378 111.25,-384 111.25,-390 111.25,-390 111.25,-402 111.25,-402 111.25,-408 105.25,-414 99.25,-414"/>
<text text-anchor="middle" x="55.62" y="-391.7" font-family="Times,serif" font-size="14.00">settlement&#45;api</text>
</g>
<!-- SERVICE:settlement&#45;api&#45;&gt;DATABASE:finance&#45;db -->
<g id="edge11" class="edge">
<title>SERVICE:settlement&#45;api&#45;&gt;DATABASE:finance&#45;db</title>
<g id="a_edge11"><a xlink:title="edge#10">
<path fill="none" stroke="black" d="M111.46,-396C153.61,-396 211.51,-396 253.26,-396"/>
<polygon fill="black" stroke="black" points="253.06,-399.5 263.06,-396 253.06,-392.5 253.06,-399.5"/>
</a>
</g>
<text text-anchor="middle" x="188.12" y="-400.7" font-family="Times,serif" font-size="14.00">CALLS [rest] (sync)</text>
</g>
<!-- SERVICE:ingest&#45;worker -->
<g id="node12" class="node">
<title>SERVICE:ingest&#45;worker</title>
<path fill="#eef6ff" stroke="black" d="M96.62,-306C96.62,-306 14.62,-306 14.62,-306 8.62,-306 2.62,-300 2.62,-294 2.62,-294 2.62,-282 2.62,-282 2.62,-276 8.62,-270 14.62,-270 14.62,-270 96.62,-270 96.62,-270 102.62,-270 108.62,-276 108.62,-282 108.62,-282 108.62,-294 108.62,-294 108.62,-300 102.62,-306 96.62,-306"/>
<text text-anchor="middle" x="55.62" y="-283.7" font-family="Times,serif" font-size="14.00">ingest&#45;worker</text>
</g>
<!-- SERVICE:ingest&#45;worker&#45;&gt;SERVICE:validator -->
<g id="edge6" class="edge">
<title>SERVICE:ingest&#45;worker&#45;&gt;SERVICE:validator</title>
<g id="a_edge6"><a xlink:title="edge#5">
<path fill="none" stroke="black" d="M109.01,-288C153.48,-288 216.73,-288 259.57,-288"/>
<polygon fill="black" stroke="black" points="259.57,-291.5 269.57,-288 259.57,-284.5 259.57,-291.5"/>
</a>
</g>
<text text-anchor="middle" x="188.12" y="-292.7" font-family="Times,serif" font-size="14.00">CALLS [rest] (sync)</text>
</g>
<!-- SERVICE:billing&#45;api -->
<g id="node13" class="node">
<title>SERVICE:billing&#45;api</title>
<path fill="#eef6ff" stroke="black" d="M84.25,-360C84.25,-360 27,-360 27,-360 21,-360 15,-354 15,-348 15,-348 15,-336 15,-336 15,-330 21,-324 27,-324 27,-324 84.25,-324 84.25,-324 90.25,-324 96.25,-330 96.25,-336 96.25,-336 96.25,-348 96.25,-348 96.25,-354 90.25,-360 84.25,-360"/>
<text text-anchor="middle" x="55.62" y="-337.7" font-family="Times,serif" font-size="14.00">billing&#45;api</text>
</g>
<!-- SERVICE:billing&#45;api&#45;&gt;DATABASE:finance&#45;db -->
<g id="edge9" class="edge">
<title>SERVICE:billing&#45;api&#45;&gt;DATABASE:finance&#45;db</title>
<g id="a_edge9"><a xlink:title="edge#8">
<path fill="none" stroke="black" d="M96.47,-346.49C135.31,-351.37 195.83,-360.37 247,-374 249.24,-374.6 251.52,-375.25 253.82,-375.93"/>
<polygon fill="black" stroke="black" points="252.53,-379.2 263.12,-378.92 254.67,-372.53 252.53,-379.2"/>
</a>
</g>
<text text-anchor="middle" x="188.12" y="-378.7" font-family="Times,serif" font-size="14.00">CALLS [rest] (sync)</text>
</g>
</g>
</svg>
