<?xml version="1.0" encoding="UTF-8" standalone="no"?>
<!DOCTYPE svg PUBLIC "-//W3C//DTD SVG 1.1//EN"
 "http://www.w3.org/Graphics/SVG/1.1/DTD/svg11.dtd">
<!-- Generated by graphviz version 9.0.0 (20230911.1827)
 -->
<!-- Title: G Pages: 1 -->
<svg width="1226pt" height="497pt"
 viewBox="0.00 0.00 1225.75 496.58" xmlns="http://www.w3.org/2000/svg" xmlns:xlink="http://www.w3.org/1999/xlink">
<g id="graph0" class="graph" transform="scale(1 1) rotate(0) translate(4 492.58)">
<title>G</title>
<polygon fill="white" stroke="none" points="-4,4 -4,-492.58 1221.75,-492.58 1221.75,4 -4,4"/>
<text text-anchor="middle" x="608.88" y="-471.28" font-family="Helvetica,sans-Serif" font-size="14.00">Architecture</text>
<!-- DATABASE:orders&#45;db_order&#45;service -->
<g id="node1" class="node">
<title>DATABASE:orders&#45;db_order&#45;service</title>
<path fill="#fff3cd" stroke="black" d="M675.75,-456.31C675.75,-458.12 637.37,-459.58 590.12,-459.58 542.88,-459.58 504.5,-458.12 504.5,-456.31 504.5,-456.31 504.5,-426.86 504.5,-426.86 504.5,-425.05 542.88,-423.58 590.12,-423.58 637.37,-423.58 675.75,-425.05 675.75,-426.86 675.75,-426.86 675.75,-456.31 675.75,-456.31"/>
<path fill="none" stroke="black" d="M675.75,-456.31C675.75,-454.5 637.37,-453.04 590.12,-453.04 542.88,-453.04 504.5,-454.5 504.5,-456.31"/>
<text text-anchor="middle" x="590.12" y="-437.28" font-family="Times,serif" font-size="14.00">orders&#45;db_order&#45;service</text>
</g>
<!-- DATABASE:orders&#45;db_inventory&#45;service -->
<g id="node2" class="node">
<title>DATABASE:orders&#45;db_inventory&#45;service</title>
<path fill="#fff3cd" stroke="black" d="M1030,-280.31C1030,-282.12 985.91,-283.58 931.62,-283.58 877.34,-283.58 833.25,-282.12 833.25,-280.31 833.25,-280.31 833.25,-250.86 833.25,-250.86 833.25,-249.05 877.34,-247.58 931.62,-247.58 985.91,-247.58 1030,-249.05 1030,-250.86 1030,-250.86 1030,-280.31 1030,-280.31"/>
<path fill="none" stroke="black" d="M1030,-280.31C1030,-278.5 985.91,-277.04 931.62,-277.04 877.34,-277.04 833.25,-278.5 833.25,-280.31"/>
<text text-anchor="middle" x="931.62" y="-261.28" font-family="Times,serif" font-size="14.00">orders&#45;db_inventory&#45;service</text>
</g>
<!-- SERVICE:api&#45;gateway -->
<g id="node3" class="node">
<title>SERVICE:api&#45;gateway</title>
<path fill="#eef6ff" stroke="black" d="M83.5,-243.58C83.5,-243.58 12,-243.58 12,-243.58 6,-243.58 0,-237.58 0,-231.58 0,-231.58 0,-219.58 0,-219.58 0,-213.58 6,-207.58 12,-207.58 12,-207.58 83.5,-207.58 83.5,-207.58 89.5,-207.58 95.5,-213.58 95.5,-219.58 95.5,-219.58 95.5,-231.58 95.5,-231.58 95.5,-237.58 89.5,-243.58 83.5,-243.58"/>
<text text-anchor="middle" x="47.75" y="-221.28" font-family="Times,serif" font-size="14.00">api&#45;gateway</text>
</g>
<!-- SERVICE:order&#45;service -->
<g id="node10" class="node">
<title>SERVICE:order&#45;service</title>
<path fill="#eef6ff" stroke="black" d="M334.25,-243.58C334.25,-243.58 257.5,-243.58 257.5,-243.58 251.5,-243.58 245.5,-237.58 245.5,-231.58 245.5,-231.58 245.5,-219.58 245.5,-219.58 245.5,-213.58 251.5,-207.58 257.5,-207.58 257.5,-207.58 334.25,-207.58 334.25,-207.58 340.25,-207.58 346.25,-213.58 346.25,-219.58 346.25,-219.58 346.25,-231.58 346.25,-231.58 346.25,-237.58 340.25,-243.58 334.25,-243.58"/>
<text text-anchor="middle" x="295.88" y="-221.28" font-family="Times,serif" font-size="14.00">order&#45;service</text>
</g>
<!-- SERVICE:api&#45;gateway&#45;&gt;SERVICE:order&#45;service -->
<g id="edge1" class="edge">
<title>SERVICE:api&#45;gateway&#45;&gt;SERVICE:order&#45;service</title>
<g id="a_edge1"><a xlink:title="edge#0">
<path fill="none" stroke="black" d="M95.91,-225.58C135.17,-225.58 191.32,-225.58 233.97,-225.58"/>
<polygon fill="black" stroke="black" points="233.82,-229.08 243.82,-225.58 233.82,-222.08 233.82,-229.08"/>
</a>
</g>
<text text-anchor="middle" x="170.5" y="-230.28" font-family="Times,serif" font-size="14.00">calls (1 ep), 30rpm</text>
</g>
<!-- SERVICE:billing&#45;service -->
<g id="node4" class="node">
<title>SERVICE:billing&#45;service</title>
<path fill="#eef6ff" stroke="black" d="M972.62,-398.58C972.62,-398.58 890.62,-398.58 890.62,-398.58 884.62,-398.58 878.62,-392.58 878.62,-386.58 878.62,-386.58 878.62,-374.58 878.62,-374.58 878.62,-368.58 884.62,-362.58 890.62,-362.58 890.62,-362.58 972.62,-362.58 972.62,-362.58 978.62,-362.58 984.62,-368.58 984.62,-374.58 984.62,-374.58 984.62,-386.58 984.62,-386.58 984.62,-392.58 978.62,-398.58 972.62,-398.58"/>
<text text-anchor="middle" x="931.62" y="-376.28" font-family="Times,serif" font-size="14.00">billing&#45;service</text>
</g>
<!-- DATABASE:payments&#45;db -->
<g id="node8" class="node">
<title>DATABASE:payments&#45;db</title>
<path fill="#fff3cd" stroke="black" d="M1217.75,-394.31C1217.75,-396.12 1195,-397.58 1167,-397.58 1139,-397.58 1116.25,-396.12 1116.25,-394.31 1116.25,-394.31 1116.25,-364.86 1116.25,-364.86 1116.25,-363.05 1139,-361.58 1167,-361.58 1195,-361.58 1217.75,-363.05 1217.75,-364.86 1217.75,-364.86 1217.75,-394.31 1217.75,-394.31"/>
<path fill="none" stroke="black" d="M1217.75,-394.31C1217.75,-392.5 1195,-391.04 1167,-391.04 1139,-391.04 1116.25,-392.5 1116.25,-394.31"/>
<text text-anchor="middle" x="1167" y="-375.28" font-family="Times,serif" font-size="14.00">payments&#45;db</text>
</g>
<!-- SERVICE:billing&#45;service&#45;&gt;DATABASE:payments&#45;db -->
<g id="edge13" class="edge">
<title>SERVICE:billing&#45;service&#45;&gt;DATABASE:payments&#45;db</title>
<g id="a_edge13"><a xlink:title="edge#12">
<path fill="none" stroke="black" d="M985,-380.36C1020.44,-380.21 1067.39,-380 1104.59,-379.85"/>
<polygon fill="black" stroke="black" points="1104.3,-383.35 1114.29,-379.8 1104.27,-376.35 1104.3,-383.35"/>
</a>
</g>
<text text-anchor="middle" x="1073.12" y="-385.28" font-family="Times,serif" font-size="14.00">READS</text>
</g>
<!-- SERVICE:billing&#45;service&#45;&gt;DATABASE:payments&#45;db -->
<g id="edge14" class="edge">
<title>SERVICE:billing&#45;service&#45;&gt;DATABASE:payments&#45;db</title>
<g id="a_edge14"><a xlink:title="edge#13">
<path fill="none" stroke="black" d="M984.91,-366.06C1017.54,-358.88 1060.39,-352.85 1098.25,-358.58 1100.87,-358.98 1103.53,-359.46 1106.2,-360"/>
<polygon fill="black" stroke="black" points="1105.18,-363.36 1115.72,-362.22 1106.77,-356.54 1105.18,-363.36"/>
</a>
</g>
<text text-anchor="middle" x="1073.12" y="-363.28" font-family="Times,serif" font-size="14.00">WRITES</text>
</g>
<!-- SERVICE:billing&#45;service&#45;&gt;SERVICE:order&#45;service -->
<g id="edge12" class="edge">
<title>SERVICE:billing&#45;service&#45;&gt;SERVICE:order&#45;service</title>
<g id="a_edge12"><a xlink:title="edge#11">
<path fill="none" stroke="black" d="M878.36,-380.63C754.94,-379.85 449.42,-372.47 364.25,-319.58 339.3,-304.09 320.86,-275.61 309.64,-254.04"/>
<polygon fill="black" stroke="black" points="312.82,-252.57 305.25,-245.16 306.54,-255.67 312.82,-252.57"/>
</a>
</g>
<text text-anchor="middle" x="590.12" y="-379.28" font-family="Times,serif" font-size="14.00">calls (1 ep), 260rpm</text>
</g>
<!-- SERVICE:user&#45;service -->
<g id="node5" class="node">
<title>SERVICE:user&#45;service</title>
<path fill="#eef6ff" stroke="black" d="M624.75,-270.58C624.75,-270.58 555.5,-270.58 555.5,-270.58 549.5,-270.58 543.5,-264.58 543.5,-258.58 543.5,-258.58 543.5,-246.58 543.5,-246.58 543.5,-240.58 549.5,-234.58 555.5,-234.58 555.5,-234.58 624.75,-234.58 624.75,-234.58 630.75,-234.58 636.75,-240.58 636.75,-246.58 636.75,-246.58 636.75,-258.58 636.75,-258.58 636.75,-264.58 630.75,-270.58 624.75,-270.58"/>
<text text-anchor="middle" x="590.12" y="-248.28" font-family="Times,serif" font-size="14.00">user&#45;service</text>
</g>
<!-- DATABASE:users&#45;db -->
<g id="node9" class="node">
<title>DATABASE:users&#45;db</title>
<path fill="#fff3cd" stroke="black" d="M967.75,-223.31C967.75,-225.12 951.56,-226.58 931.62,-226.58 911.69,-226.58 895.5,-225.12 895.5,-223.31 895.5,-223.31 895.5,-193.86 895.5,-193.86 895.5,-192.05 911.69,-190.58 931.62,-190.58 951.56,-190.58 967.75,-192.05 967.75,-193.86 967.75,-193.86 967.75,-223.31 967.75,-223.31"/>
<path fill="none" stroke="black" d="M967.75,-223.31C967.75,-221.5 951.56,-220.04 931.62,-220.04 911.69,-220.04 895.5,-221.5 895.5,-223.31"/>
<text text-anchor="middle" x="931.62" y="-204.28" font-family="Times,serif" font-size="14.00">users&#45;db</text>
</g>
<!-- SERVICE:user&#45;service&#45;&gt;DATABASE:users&#45;db -->
<g id="edge15" class="edge">
<title>SERVICE:user&#45;service&#45;&gt;DATABASE:users&#45;db</title>
<g id="a_edge15"><a xlink:title="edge#14">
<path fill="none" stroke="black" d="M636.91,-246.65C701.62,-238.26 819.18,-223.03 884.23,-214.6"/>
<polygon fill="black" stroke="black" points="884.38,-218.11 893.85,-213.35 883.48,-211.16 884.38,-218.11"/>
</a>
</g>
<text text-anchor="middle" x="754.5" y="-243.28" font-family="Times,serif" font-size="14.00">READS</text>
</g>
<!-- SERVICE:order&#45;service_split -->
<g id="node6" class="node">
<title>SERVICE:order&#45;service_split</title>
<path fill="#eef6ff" stroke="black" d="M645.75,-108.58C645.75,-108.58 534.5,-108.58 534.5,-108.58 528.5,-108.58 522.5,-102.58 522.5,-96.58 522.5,-96.58 522.5,-84.58 522.5,-84.58 522.5,-78.58 528.5,-72.58 534.5,-72.58 534.5,-72.58 645.75,-72.58 645.75,-72.58 651.75,-72.58 657.75,-78.58 657.75,-84.58 657.75,-84.58 657.75,-96.58 657.75,-96.58 657.75,-102.58 651.75,-108.58 645.75,-108.58"/>
<text text-anchor="middle" x="590.12" y="-86.28" font-family="Times,serif" font-size="14.00">order&#45;service_split</text>
</g>
<!-- SERVICE:notification&#45;service -->
<g id="node12" class="node">
<title>SERVICE:notification&#45;service</title>
<path fill="#eef6ff" stroke="black" d="M989.5,-152.58C989.5,-152.58 873.75,-152.58 873.75,-152.58 867.75,-152.58 861.75,-146.58 861.75,-140.58 861.75,-140.58 861.75,-128.58 861.75,-128.58 861.75,-122.58 867.75,-116.58 873.75,-116.58 873.75,-116.58 989.5,-116.58 989.5,-116.58 995.5,-116.58 1001.5,-122.58 1001.5,-128.58 1001.5,-128.58 1001.5,-140.58 1001.5,-140.58 1001.5,-146.58 995.5,-152.58 989.5,-152.58"/>
<text text-anchor="middle" x="931.62" y="-130.28" font-family="Times,serif" font-size="14.00">notification&#45;service</text>
</g>
<!-- SERVICE:order&#45;service_split&#45;&gt;SERVICE:notification&#45;service -->
<g id="edge16" class="edge">
<title>SERVICE:order&#45;service_split&#45;&gt;SERVICE:notification&#45;service</title>
<g id="a_edge16"><a xlink:title="edge#15">
<path fill="none" stroke="black" d="M658,-95.55C702.66,-99.26 762.62,-105 815.25,-112.58 826.64,-114.22 838.62,-116.21 850.38,-118.31"/>
<polygon fill="black" stroke="black" points="849.6,-121.73 860.06,-120.08 850.85,-114.84 849.6,-121.73"/>
</a>
</g>
<text text-anchor="middle" x="754.5" y="-117.28" font-family="Times,serif" font-size="14.00">calls (1 ep), 220rpm</text>
</g>
<!-- SERVICE:search&#45;service -->
<g id="node13" class="node">
<title>SERVICE:search&#45;service</title>
<path fill="#eef6ff" stroke="black" d="M973.75,-71.58C973.75,-71.58 889.5,-71.58 889.5,-71.58 883.5,-71.58 877.5,-65.58 877.5,-59.58 877.5,-59.58 877.5,-47.58 877.5,-47.58 877.5,-41.58 883.5,-35.58 889.5,-35.58 889.5,-35.58 973.75,-35.58 973.75,-35.58 979.75,-35.58 985.75,-41.58 985.75,-47.58 985.75,-47.58 985.75,-59.58 985.75,-59.58 985.75,-65.58 979.75,-71.58 973.75,-71.58"/>
<text text-anchor="middle" x="931.62" y="-49.28" font-family="Times,serif" font-size="14.00">search&#45;service</text>
</g>
<!-- SERVICE:order&#45;service_split&#45;&gt;SERVICE:search&#45;service -->
<g id="edge17" class="edge">
<title>SERVICE:order&#45;service_split&#45;&gt;SERVICE:search&#45;service</title>
<g id="a_edge17"><a xlink:title="edge#16">
<path fill="none" stroke="black" d="M658.03,-77.13C669.9,-75.05 682.16,-73.09 693.75,-71.58 751.75,-64.03 818.17,-59.32 865.9,-56.63"/>
<polygon fill="black" stroke="black" points="866,-60.12 875.79,-56.08 865.62,-53.14 866,-60.12"/>
</a>
</g>
<text text-anchor="middle" x="754.5" y="-76.28" font-family="Times,serif" font-size="14.00">calls (1 ep), 180rpm</text>
</g>
<!-- DATABASE:orders&#45;db -->
<g id="node7" class="node">
<title>DATABASE:orders&#45;db</title>
<path fill="#fff3cd" stroke="black" d="M971.5,-334.31C971.5,-336.12 953.63,-337.58 931.62,-337.58 909.62,-337.58 891.75,-336.12 891.75,-334.31 891.75,-334.31 891.75,-304.86 891.75,-304.86 891.75,-303.05 909.62,-301.58 931.62,-301.58 953.63,-301.58 971.5,-303.05 971.5,-304.86 971.5,-304.86 971.5,-334.31 971.5,-334.31"/>
<path fill="none" stroke="black" d="M971.5,-334.31C971.5,-332.5 953.63,-331.04 931.62,-331.04 909.62,-331.04 891.75,-332.5 891.75,-334.31"/>
<text text-anchor="middle" x="931.62" y="-315.28" font-family="Times,serif" font-size="14.00">orders&#45;db</text>
</g>
<!-- SERVICE:order&#45;service&#45;&gt;DATABASE:orders&#45;db_order&#45;service -->
<g id="edge8" class="edge">
<title>SERVICE:order&#45;service&#45;&gt;DATABASE:orders&#45;db_order&#45;service</title>
<g id="a_edge8"><a xlink:title="edge#7">
<path fill="none" stroke="black" d="M298.15,-243.88C301.72,-280.1 315.07,-360.94 364.25,-401.58 399.75,-430.92 449.32,-441.87 492.89,-445.08"/>
<polygon fill="black" stroke="black" points="492.42,-448.56 502.61,-445.66 492.84,-441.57 492.42,-448.56"/>
</a>
</g>
<text text-anchor="middle" x="425.38" y="-449.28" font-family="Times,serif" font-size="14.00">WRITES</text>
</g>
<!-- SERVICE:order&#45;service&#45;&gt;SERVICE:user&#45;service -->
<g id="edge3" class="edge">
<title>SERVICE:order&#45;service&#45;&gt;SERVICE:user&#45;service</title>
<g id="a_edge3"><a xlink:title="edge#2">
<path fill="none" stroke="black" d="M346.45,-230.16C397.73,-234.9 477.73,-242.29 531.72,-247.28"/>
<polygon fill="black" stroke="black" points="531.38,-250.76 541.66,-248.2 532.02,-243.79 531.38,-250.76"/>
</a>
</g>
<text text-anchor="middle" x="425.38" y="-248.28" font-family="Times,serif" font-size="14.00">calls (1 ep), 260rpm</text>
</g>
<!-- SERVICE:order&#45;service&#45;&gt;SERVICE:order&#45;service_split -->
<g id="edge4" class="edge">
<title>SERVICE:order&#45;service&#45;&gt;SERVICE:order&#45;service_split</title>
<g id="a_edge4"><a xlink:title="edge#3">
<path fill="none" stroke="black" d="M301.98,-207.44C310.33,-181.52 329.53,-134.61 364.25,-112.58 407.31,-85.27 464.61,-80.02 510.6,-81.47"/>
<polygon fill="black" stroke="black" points="510.38,-84.96 520.52,-81.91 510.68,-77.97 510.38,-84.96"/>
</a>
</g>
<text text-anchor="middle" x="425.38" y="-117.28" font-family="Times,serif" font-size="14.00">calls (1 ep), 30rpm</text>
</g>
<!-- SERVICE:order&#45;service&#45;&gt;DATABASE:users&#45;db -->
<g id="edge7" class="edge">
<title>SERVICE:order&#45;service&#45;&gt;DATABASE:users&#45;db</title>
<g id="a_edge7"><a xlink:title="edge#6">
<path fill="none" stroke="black" d="M346.72,-220.04C388.73,-215.67 450.46,-209.92 504.5,-207.58 642.29,-201.62 805.38,-204.87 883.85,-207.08"/>
<polygon fill="black" stroke="black" points="883.64,-210.58 893.73,-207.37 883.84,-203.58 883.64,-210.58"/>
</a>
</g>
<text text-anchor="middle" x="590.12" y="-212.28" font-family="Times,serif" font-size="14.00">READS</text>
</g>
<!-- SERVICE:inventory&#45;service -->
<g id="node11" class="node">
<title>SERVICE:inventory&#45;service</title>
<path fill="#eef6ff" stroke="black" d="M641.25,-327.58C641.25,-327.58 539,-327.58 539,-327.58 533,-327.58 527,-321.58 527,-315.58 527,-315.58 527,-303.58 527,-303.58 527,-297.58 533,-291.58 539,-291.58 539,-291.58 641.25,-291.58 641.25,-291.58 647.25,-291.58 653.25,-297.58 653.25,-303.58 653.25,-303.58 653.25,-315.58 653.25,-315.58 653.25,-321.58 647.25,-327.58 641.25,-327.58"/>
<text text-anchor="middle" x="590.12" y="-305.28" font-family="Times,serif" font-size="14.00">inventory&#45;service</text>
</g>
<!-- SERVICE:order&#45;service&#45;&gt;SERVICE:inventory&#45;service -->
<g id="edge2" class="edge">
<title>SERVICE:order&#45;service&#45;&gt;SERVICE:inventory&#45;service</title>
<g id="a_edge2"><a xlink:title="edge#1">
<path fill="none" stroke="black" d="M323.01,-243.95C335.08,-251.67 349.89,-260.1 364.25,-265.58 412.97,-284.17 470.76,-295.26 515.56,-301.66"/>
<polygon fill="black" stroke="black" points="515.06,-305.12 525.44,-303.02 516.01,-298.19 515.06,-305.12"/>
</a>
</g>
<text text-anchor="middle" x="425.38" y="-302.28" font-family="Times,serif" font-size="14.00">calls (1 ep), 95rpm</text>
</g>
<!-- SERVICE:order&#45;service&#45;&gt;SERVICE:notification&#45;service -->
<g id="edge5" class="edge">
<title>SERVICE:order&#45;service&#45;&gt;SERVICE:notification&#45;service</title>
<g id="a_edge5"><a xlink:title="edge#4">
<path fill="none" stroke="black" d="M346.69,-209.16C352.57,-207.49 358.52,-205.92 364.25,-204.58 534.56,-164.91 739.26,-146.67 849.97,-139.16"/>
<polygon fill="black" stroke="black" points="850.11,-142.66 859.85,-138.51 849.64,-135.68 850.11,-142.66"/>
</a>
</g>
<text text-anchor="middle" x="590.12" y="-181.28" font-family="Times,serif" font-size="14.00">calls (1 ep), 220rpm</text>
</g>
<!-- SERVICE:order&#45;service&#45;&gt;SERVICE:search&#45;service -->
<g id="edge6" class="edge">
<title>SERVICE:order&#45;service&#45;&gt;SERVICE:search&#45;service</title>
<g id="a_edge6"><a xlink:title="edge#5">
<path fill="none" stroke="black" d="M299.81,-207.4C305.88,-175.9 322.89,-111.3 364.25,-77.58 509.31,40.68 751.39,-3.52 866.3,-34.07"/>
<polygon fill="black" stroke="black" points="865.32,-37.43 875.89,-36.67 867.16,-30.67 865.32,-37.43"/>
</a>
</g>
<text text-anchor="middle" x="590.12" y="-17.28" font-family="Times,serif" font-size="14.00">calls (1 ep), 180rpm</text>
</g>
<!-- SERVICE:inventory&#45;service&#45;&gt;DATABASE:orders&#45;db_inventory&#45;service -->
<g id="edge11" class="edge">
<title>SERVICE:inventory&#45;service&#45;&gt;DATABASE:orders&#45;db_inventory&#45;service</title>
<g id="a_edge11"><a xlink:title="edge#10">
<path fill="none" stroke="black" d="M653.65,-296.45C666.86,-293.94 680.73,-291.51 693.75,-289.58 735.42,-283.42 781.46,-278.36 821.78,-274.51"/>
<polygon fill="black" stroke="black" points="821.86,-278.01 831.49,-273.59 821.2,-271.05 821.86,-278.01"/>
</a>
</g>
<text text-anchor="middle" x="754.5" y="-294.28" font-family="Times,serif" font-size="14.00">WRITES</text>
</g>
<!-- SERVICE:inventory&#45;service&#45;&gt;SERVICE:billing&#45;service -->
<g id="edge9" class="edge">
<title>SERVICE:inventory&#45;service&#45;&gt;SERVICE:billing&#45;service</title>
<g id="a_edge9"><a xlink:title="edge#8">
<path fill="none" stroke="black" d="M653.74,-323.96C666.93,-326.9 680.79,-329.9 693.75,-332.58 747.57,-343.7 761.39,-344.65 815.25,-355.58 832.14,-359.01 850.38,-362.88 867.26,-366.54"/>
<polygon fill="black" stroke="black" points="866.14,-369.88 876.65,-368.58 867.63,-363.04 866.14,-369.88"/>
</a>
</g>
<text text-anchor="middle" x="754.5" y="-360.28" font-family="Times,serif" font-size="14.00">calls (1 ep), 32rpm</text>
</g>
<!-- SERVICE:inventory&#45;service&#45;&gt;DATABASE:orders&#45;db -->
<g id="edge10" class="edge">
<title>SERVICE:inventory&#45;service&#45;&gt;DATABASE:orders&#45;db</title>
<g id="a_edge10"><a xlink:title="edge#9">
<path fill="none" stroke="black" d="M653.45,-310.62C698.42,-311.46 760.6,-312.79 815.25,-314.58 836.44,-315.28 859.81,-316.25 879.94,-317.16"/>
<polygon fill="black" stroke="black" points="879.72,-320.65 889.87,-317.61 880.04,-313.66 879.72,-320.65"/>
</a>
</g>
<text text-anchor="middle" x="754.5" y="-319.28" font-family="Times,serif" font-size="14.00">READS</text>
</g>
</g>
</svg>
