<?xml version="1.0" encoding="UTF-8" standalone="no"?>
<!DOCTYPE svg PUBLIC "-//W3C//DTD SVG 1.1//EN"
 "http://www.w3.org/Graphics/SVG/1.1/DTD/svg11.dtd">
<!-- Generated by graphviz version 9.0.0 (20230911.1827)
 -->
<!-- Title: G Pages: 1 -->
<svg width="847pt" height="332pt"
 viewBox="0.00 0.00 847.00 331.61" xmlns="http://www.w3.org/2000/svg" xmlns:xlink="http://www.w3.org/1999/xlink">
<g id="graph0" class="graph" transform="scale(1 1) rotate(0) translate(4 327.61)">
<title>G</title>
<polygon fill="white" stroke="none" points="-4,4 -4,-327.61 843,-327.61 843,4 -4,4"/>
<text text-anchor="middle" x="419.5" y="-306.31" font-family="Helvetica,sans-Serif" font-size="14.00">Architecture</text>
<!-- SERVICE:catalog -->
<g id="node1" class="node">
<title>SERVICE:catalog</title>
<path fill="#eef6ff" stroke="black" d="M564,-264.61C564,-264.61 524.75,-264.61 524.75,-264.61 518.75,-264.61 512.75,-258.61 512.75,-252.61 512.75,-252.61 512.75,-240.61 512.75,-240.61 512.75,-234.61 518.75,-228.61 524.75,-228.61 524.75,-228.61 564,-228.61 564,-228.61 570,-228.61 576,-234.61 576,-240.61 576,-240.61 576,-252.61 576,-252.61 576,-258.61 570,-264.61 564,-264.61"/>
<text text-anchor="middle" x="544.38" y="-242.31" font-family="Times,serif" font-size="14.00">catalog</text>
</g>
<!-- DATABASE:shared&#45;db -->
<g id="node6" class="node">
<title>DATABASE:shared&#45;db</title>
<path fill="#fff3cd" stroke="black" d="M839,-169.34C839,-171.15 820.62,-172.61 798,-172.61 775.38,-172.61 757,-171.15 757,-169.34 757,-169.34 757,-139.89 757,-139.89 757,-138.08 775.38,-136.61 798,-136.61 820.62,-136.61 839,-138.08 839,-139.89 839,-139.89 839,-169.34 839,-169.34"/>
<path fill="none" stroke="black" d="M839,-169.34C839,-167.53 820.62,-166.07 798,-166.07 775.38,-166.07 757,-167.53 757,-169.34"/>
<text text-anchor="middle" x="798" y="-150.31" font-family="Times,serif" font-size="14.00">shared&#45;db</text>
</g>
<!-- SERVICE:catalog&#45;&gt;DATABASE:shared&#45;db -->
<g id="edge10" class="edge">
<title>SERVICE:catalog&#45;&gt;DATABASE:shared&#45;db</title>
<g id="a_edge10"><a xlink:title="edge#9">
<path fill="none" stroke="black" d="M576.18,-245.19C615.79,-242.28 685.83,-233.44 739,-206.61 751.61,-200.25 763.58,-190.43 773.34,-181.03"/>
<polygon fill="black" stroke="black" points="775.7,-183.62 780.24,-174.05 770.72,-178.7 775.7,-183.62"/>
</a>
</g>
<text text-anchor="middle" x="680.12" y="-244.31" font-family="Times,serif" font-size="14.00">CALLS [rest] (sync)</text>
</g>
<!-- SERVICE:cart -->
<g id="node2" class="node">
<title>SERVICE:cart</title>
<path fill="#eef6ff" stroke="black" d="M287.88,-239.61C287.88,-239.61 257.88,-239.61 257.88,-239.61 251.88,-239.61 245.88,-233.61 245.88,-227.61 245.88,-227.61 245.88,-215.61 245.88,-215.61 245.88,-209.61 251.88,-203.61 257.88,-203.61 257.88,-203.61 287.88,-203.61 287.88,-203.61 293.88,-203.61 299.88,-209.61 299.88,-215.61 299.88,-215.61 299.88,-227.61 299.88,-227.61 299.88,-233.61 293.88,-239.61 287.88,-239.61"/>
<text text-anchor="middle" x="272.88" y="-217.31" font-family="Times,serif" font-size="14.00">cart</text>
</g>
<!-- SERVICE:cart&#45;&gt;SERVICE:catalog -->
<g id="edge6" class="edge">
<title>SERVICE:cart&#45;&gt;SERVICE:catalog</title>
<g id="a_edge6"><a xlink:title="edge#5">
<path fill="none" stroke="black" d="M300.21,-224.06C346.95,-228.39 444.78,-237.47 501.07,-242.69"/>
<polygon fill="black" stroke="black" points="500.63,-246.16 510.91,-243.6 501.27,-239.19 500.63,-246.16"/>
</a>
</g>
<text text-anchor="middle" x="408.62" y="-243.31" font-family="Times,serif" font-size="14.00">CALLS [rest] (sync)</text>
</g>
<!-- SERVICE:cart&#45;&gt;DATABASE:shared&#45;db -->
<g id="edge11" class="edge">
<title>SERVICE:cart&#45;&gt;DATABASE:shared&#45;db</title>
<g id="a_edge11"><a xlink:title="edge#10">
<path fill="none" stroke="black" d="M300.18,-218.24C382.42,-207.71 635.77,-175.26 745.48,-161.21"/>
<polygon fill="black" stroke="black" points="745.59,-164.73 755.07,-159.98 744.7,-157.78 745.59,-164.73"/>
</a>
</g>
<text text-anchor="middle" x="544.38" y="-198.31" font-family="Times,serif" font-size="14.00">CALLS [rest] (sync)</text>
</g>
<!-- SERVICE:orders -->
<g id="node3" class="node">
<title>SERVICE:orders</title>
<path fill="#eef6ff" stroke="black" d="M289.5,-121.61C289.5,-121.61 256.25,-121.61 256.25,-121.61 250.25,-121.61 244.25,-115.61 244.25,-109.61 244.25,-109.61 244.25,-97.61 244.25,-97.61 244.25,-91.61 250.25,-85.61 256.25,-85.61 256.25,-85.61 289.5,-85.61 289.5,-85.61 295.5,-85.61 301.5,-91.61 301.5,-97.61 301.5,-97.61 301.5,-109.61 301.5,-109.61 301.5,-115.61 295.5,-121.61 289.5,-121.61"/>
<text text-anchor="middle" x="272.88" y="-99.31" font-family="Times,serif" font-size="14.00">orders</text>
</g>
<!-- SERVICE:payments -->
<g id="node4" class="node">
<title>SERVICE:payments</title>
<path fill="#eef6ff" stroke="black" d="M571.88,-152.61C571.88,-152.61 516.88,-152.61 516.88,-152.61 510.88,-152.61 504.88,-146.61 504.88,-140.61 504.88,-140.61 504.88,-128.61 504.88,-128.61 504.88,-122.61 510.88,-116.61 516.88,-116.61 516.88,-116.61 571.88,-116.61 571.88,-116.61 577.88,-116.61 583.88,-122.61 583.88,-128.61 583.88,-128.61 583.88,-140.61 583.88,-140.61 583.88,-146.61 577.88,-152.61 571.88,-152.61"/>
<text text-anchor="middle" x="544.38" y="-130.31" font-family="Times,serif" font-size="14.00">payments</text>
</g>
<!-- SERVICE:orders&#45;&gt;SERVICE:payments -->
<g id="edge8" class="edge">
<title>SERVICE:orders&#45;&gt;SERVICE:payments</title>
<g id="a_edge8"><a xlink:title="edge#7">
<path fill="none" stroke="black" d="M301.94,-97.36C340.05,-89.98 410.01,-80.39 467.5,-94.61 468.5,-94.86 482.89,-102.41 498.88,-110.88"/>
<polygon fill="black" stroke="black" points="497.12,-113.91 507.59,-115.51 500.4,-107.73 497.12,-113.91"/>
</a>
</g>
<text text-anchor="middle" x="408.62" y="-99.31" font-family="Times,serif" font-size="14.00">CALLS [rest] (sync)</text>
</g>
<!-- SERVICE:inventory -->
<g id="node5" class="node">
<title>SERVICE:inventory</title>
<path fill="#eef6ff" stroke="black" d="M570.38,-94.61C570.38,-94.61 518.38,-94.61 518.38,-94.61 512.38,-94.61 506.38,-88.61 506.38,-82.61 506.38,-82.61 506.38,-70.61 506.38,-70.61 506.38,-64.61 512.38,-58.61 518.38,-58.61 518.38,-58.61 570.38,-58.61 570.38,-58.61 576.38,-58.61 582.38,-64.61 582.38,-70.61 582.38,-70.61 582.38,-82.61 582.38,-82.61 582.38,-88.61 576.38,-94.61 570.38,-94.61"/>
<text text-anchor="middle" x="544.38" y="-72.31" font-family="Times,serif" font-size="14.00">inventory</text>
</g>
<!-- SERVICE:orders&#45;&gt;SERVICE:inventory -->
<g id="edge7" class="edge">
<title>SERVICE:orders&#45;&gt;SERVICE:inventory</title>
<g id="a_edge7"><a xlink:title="edge#6">
<path fill="none" stroke="black" d="M301.9,-93.7C311.91,-89.37 322.9,-83.65 331.75,-76.61 341.91,-68.54 338.08,-59.3 349.75,-53.61 395.61,-31.27 454.56,-43.2 495.31,-56.79"/>
<polygon fill="black" stroke="black" points="494.01,-60.05 504.61,-60.05 496.33,-53.44 494.01,-60.05"/>
</a>
</g>
<text text-anchor="middle" x="408.62" y="-58.31" font-family="Times,serif" font-size="14.00">CALLS [rest] (sync)</text>
</g>
<!-- SERVICE:orders&#45;&gt;DATABASE:shared&#45;db -->
<g id="edge12" class="edge">
<title>SERVICE:orders&#45;&gt;DATABASE:shared&#45;db</title>
<g id="a_edge12"><a xlink:title="edge#11">
<path fill="none" stroke="black" d="M301.99,-95.16C312.37,-90.93 323.57,-84.9 331.75,-76.61 345.44,-62.73 333.58,-47.5 349.75,-36.61 443.24,26.31 493.43,-6.33 603.25,-31.61 668.63,-46.66 684.19,-58.93 739,-97.61 751.35,-106.33 763.51,-117.72 773.48,-128.02"/>
<polygon fill="black" stroke="black" points="770.86,-130.35 780.26,-135.24 775.96,-125.56 770.86,-130.35"/>
</a>
</g>
<text text-anchor="middle" x="544.38" y="-36.31" font-family="Times,serif" font-size="14.00">CALLS [rest] (sync)</text>
</g>
<!-- SERVICE:payments&#45;&gt;SERVICE:orders -->
<g id="edge9" class="edge">
<title>SERVICE:payments&#45;&gt;SERVICE:orders</title>
<g id="a_edge9"><a xlink:title="edge#8">
<path fill="none" stroke="black" d="M504.43,-130.24C465.32,-125.85 403.35,-118.84 349.75,-112.61 337.89,-111.24 324.99,-109.71 313.25,-108.32"/>
<polygon fill="black" stroke="black" points="313.82,-104.86 303.48,-107.16 313,-111.82 313.82,-104.86"/>
</a>
</g>
<text text-anchor="middle" x="408.62" y="-130.31" font-family="Times,serif" font-size="14.00">CALLS [rest] (sync)</text>
</g>
<!-- SERVICE:inventory&#45;&gt;DATABASE:shared&#45;db -->
<g id="edge13" class="edge">
<title>SERVICE:inventory&#45;&gt;DATABASE:shared&#45;db</title>
<g id="a_edge13"><a xlink:title="edge#12">
<path fill="none" stroke="black" d="M582.77,-88.21C626.08,-101.63 697.66,-123.82 746.04,-138.82"/>
<polygon fill="black" stroke="black" points="744.86,-142.12 755.45,-141.73 746.94,-135.43 744.86,-142.12"/>
</a>
</g>
<text text-anchor="middle" x="680.12" y="-140.31" font-family="Times,serif" font-size="14.00">CALLS [rest] (sync)</text>
</g>
<!-- SERVICE:web&#45;ui -->
<g id="node7" class="node">
<title>SERVICE:web&#45;ui</title>
<path fill="#eef6ff" stroke="black" d="M48.25,-185.61C48.25,-185.61 12,-185.61 12,-185.61 6,-185.61 0,-179.61 0,-173.61 0,-173.61 0,-161.61 0,-161.61 0,-155.61 6,-149.61 12,-149.61 12,-149.61 48.25,-149.61 48.25,-149.61 54.25,-149.61 60.25,-155.61 60.25,-161.61 60.25,-161.61 60.25,-173.61 60.25,-173.61 60.25,-179.61 54.25,-185.61 48.25,-185.61"/>
<text text-anchor="middle" x="30.12" y="-163.31" font-family="Times,serif" font-size="14.00">web&#45;ui</text>
</g>
<!-- SERVICE:web&#45;ui&#45;&gt;SERVICE:catalog -->
<g id="edge2" class="edge">
<title>SERVICE:web&#45;ui&#45;&gt;SERVICE:catalog</title>
<g id="a_edge2"><a xlink:title="edge#1">
<path fill="none" stroke="black" d="M40.25,-185.97C48.25,-200.04 61.27,-218.67 78.25,-228.61 214.93,-308.63 414.95,-276.68 501.22,-257.3"/>
<polygon fill="black" stroke="black" points="501.94,-260.72 510.9,-255.06 500.37,-253.9 501.94,-260.72"/>
</a>
</g>
<text text-anchor="middle" x="272.88" y="-284.31" font-family="Times,serif" font-size="14.00">CALLS [rest] (sync)</text>
</g>
<!-- SERVICE:web&#45;ui&#45;&gt;SERVICE:cart -->
<g id="edge3" class="edge">
<title>SERVICE:web&#45;ui&#45;&gt;SERVICE:cart</title>
<g id="a_edge3"><a xlink:title="edge#2">
<path fill="none" stroke="black" d="M60.68,-176.81C66.48,-178.5 72.54,-180.18 78.25,-181.61 132.07,-195.14 195.13,-207.53 234.3,-214.83"/>
<polygon fill="black" stroke="black" points="233.45,-218.23 243.92,-216.61 234.72,-211.35 233.45,-218.23"/>
</a>
</g>
<text text-anchor="middle" x="137.12" y="-211.31" font-family="Times,serif" font-size="14.00">CALLS [rest] (sync)</text>
</g>
<!-- SERVICE:web&#45;ui&#45;&gt;SERVICE:orders -->
<g id="edge4" class="edge">
<title>SERVICE:web&#45;ui&#45;&gt;SERVICE:orders</title>
<g id="a_edge4"><a xlink:title="edge#3">
<path fill="none" stroke="black" d="M53.96,-149.2C61.34,-144.07 69.8,-138.99 78.25,-135.61 129.11,-115.29 192.44,-107.87 232.53,-105.17"/>
<polygon fill="black" stroke="black" points="232.65,-108.66 242.43,-104.57 232.23,-101.68 232.65,-108.66"/>
</a>
</g>
<text text-anchor="middle" x="137.12" y="-140.31" font-family="Times,serif" font-size="14.00">CALLS [rest] (sync)</text>
</g>
<!-- SERVICE:web&#45;ui&#45;&gt;SERVICE:payments -->
<g id="edge5" class="edge">
<title>SERVICE:web&#45;ui&#45;&gt;SERVICE:payments</title>
<g id="a_edge5"><a xlink:title="edge#4">
<path fill="none" stroke="black" d="M60.59,-167.52C131.1,-167.02 315,-164.11 467.5,-147.61 475.91,-146.7 484.79,-145.45 493.41,-144.08"/>
<polygon fill="black" stroke="black" points="493.74,-147.57 503.02,-142.47 492.58,-140.67 493.74,-147.57"/>
</a>
</g>
<text text-anchor="middle" x="272.88" y="-168.31" font-family="Times,serif" font-size="14.00">CALLS [rest] (sync)</text>
</g>
<!-- SERVICE:auth -->
<g id="node8" class="node">
<title>SERVICE:auth</title>
<path fill="#eef6ff" stroke="black" d="M287.88,-67.61C287.88,-67.61 257.88,-67.61 257.88,-67.61 251.88,-67.61 245.88,-61.61 245.88,-55.61 245.88,-55.61 245.88,-43.61 245.88,-43.61 245.88,-37.61 251.88,-31.61 257.88,-31.61 257.88,-31.61 287.88,-31.61 287.88,-31.61 293.88,-31.61 299.88,-37.61 299.88,-43.61 299.88,-43.61 299.88,-55.61 299.88,-55.61 299.88,-61.61 293.88,-67.61 287.88,-67.61"/>
<text text-anchor="middle" x="272.88" y="-45.31" font-family="Times,serif" font-size="14.00">auth</text>
</g>
<!-- SERVICE:web&#45;ui&#45;&gt;SERVICE:auth -->
<g id="edge1" class="edge">
<title>SERVICE:web&#45;ui&#45;&gt;SERVICE:auth</title>
<g id="a_edge1"><a xlink:title="edge#0">
<path fill="none" stroke="black" d="M36.7,-149.38C43.42,-130.59 56.61,-101.94 78.25,-86.61 124.61,-53.77 192.26,-47.96 234.1,-47.94"/>
<polygon fill="black" stroke="black" points="233.88,-51.44 243.92,-48.06 233.96,-44.44 233.88,-51.44"/>
</a>
</g>
<text text-anchor="middle" x="137.12" y="-91.31" font-family="Times,serif" font-size="14.00">CALLS [rest] (sync)</text>
</g>
</g>
</svg>
