<?xml version="1.0" encoding="UTF-8" standalone="no"?>
<!DOCTYPE svg PUBLIC "-//W3C//DTD SVG 1.1//EN"
 "http://www.w3.org/Graphics/SVG/1.1/DTD/svg11.dtd">
<!-- Generated by graphviz version 9.0.0 (20230911.1827)
 -->
<!-- Title: G Pages: 1 -->
<svg width="1296pt" height="404pt"
 viewBox="0.00 0.00 1295.50 403.65" xmlns="http://www.w3.org/2000/svg" xmlns:xlink="http://www.w3.org/1999/xlink">
<g id="graph0" class="graph" transform="scale(1 1) rotate(0) translate(4 399.65)">
<title>G</title>
<polygon fill="white" stroke="none" points="-4,4 -4,-399.65 1291.5,-399.65 1291.5,4 -4,4"/>
<text text-anchor="middle" x="643.75" y="-378.35" font-family="Helvetica,sans-Serif" font-size="14.00">Architecture</text>
<!-- DATABASE:orders&#45;db -->
<g id="node1" class="node">
<title>DATABASE:orders&#45;db</title>
<path fill="#fff3cd" stroke="black" d="M414.5,-325.38C414.5,-327.19 396.63,-328.65 374.62,-328.65 352.62,-328.65 334.75,-327.19 334.75,-325.38 334.75,-325.38 334.75,-295.93 334.75,-295.93 334.75,-294.12 352.62,-292.65 374.62,-292.65 396.63,-292.65 414.5,-294.12 414.5,-295.93 414.5,-295.93 414.5,-325.38 414.5,-325.38"/>
<path fill="none" stroke="black" d="M414.5,-325.38C414.5,-323.57 396.63,-322.11 374.62,-322.11 352.62,-322.11 334.75,-323.57 334.75,-325.38"/>
<text text-anchor="middle" x="374.62" y="-306.35" font-family="Times,serif" font-size="14.00">orders&#45;db</text>
</g>
<!-- DATABASE:payments&#45;db -->
<g id="node2" class="node">
<title>DATABASE:payments&#45;db</title>
<path fill="#fff3cd" stroke="black" d="M1287.5,-361.38C1287.5,-363.19 1264.75,-364.65 1236.75,-364.65 1208.75,-364.65 1186,-363.19 1186,-361.38 1186,-361.38 1186,-331.93 1186,-331.93 1186,-330.12 1208.75,-328.65 1236.75,-328.65 1264.75,-328.65 1287.5,-330.12 1287.5,-331.93 1287.5,-331.93 1287.5,-361.38 1287.5,-361.38"/>
<path fill="none" stroke="black" d="M1287.5,-361.38C1287.5,-359.57 1264.75,-358.11 1236.75,-358.11 1208.75,-358.11 1186,-359.57 1186,-361.38"/>
<text text-anchor="middle" x="1236.75" y="-342.35" font-family="Times,serif" font-size="14.00">payments&#45;db</text>
</g>
<!-- DATABASE:users&#45;db -->
<g id="node3" class="node">
<title>DATABASE:users&#45;db</title>
<path fill="#fff3cd" stroke="black" d="M1066,-39.38C1066,-41.19 1049.81,-42.65 1029.88,-42.65 1009.94,-42.65 993.75,-41.19 993.75,-39.38 993.75,-39.38 993.75,-9.93 993.75,-9.93 993.75,-8.12 1009.94,-6.65 1029.88,-6.65 1049.81,-6.65 1066,-8.12 1066,-9.93 1066,-9.93 1066,-39.38 1066,-39.38"/>
<path fill="none" stroke="black" d="M1066,-39.38C1066,-37.57 1049.81,-36.11 1029.88,-36.11 1009.94,-36.11 993.75,-37.57 993.75,-39.38"/>
<text text-anchor="middle" x="1029.88" y="-20.35" font-family="Times,serif" font-size="14.00">users&#45;db</text>
</g>
<!-- DATABASE:orders&#45;db_order&#45;service -->
<g id="node4" class="node">
<title>DATABASE:orders&#45;db_order&#45;service</title>
<path fill="#fff3cd" stroke="black" d="M802.5,-125.38C802.5,-127.19 764.12,-128.65 716.88,-128.65 669.63,-128.65 631.25,-127.19 631.25,-125.38 631.25,-125.38 631.25,-95.93 631.25,-95.93 631.25,-94.12 669.63,-92.65 716.88,-92.65 764.12,-92.65 802.5,-94.12 802.5,-95.93 802.5,-95.93 802.5,-125.38 802.5,-125.38"/>
<path fill="none" stroke="black" d="M802.5,-125.38C802.5,-123.57 764.12,-122.11 716.88,-122.11 669.63,-122.11 631.25,-123.57 631.25,-125.38"/>
<text text-anchor="middle" x="716.88" y="-106.35" font-family="Times,serif" font-size="14.00">orders&#45;db_order&#45;service</text>
</g>
<!-- SERVICE:api&#45;gateway -->
<g id="node5" class="node">
<title>SERVICE:api&#45;gateway</title>
<path fill="#eef6ff" stroke="black" d="M98.88,-151.65C98.88,-151.65 27.38,-151.65 27.38,-151.65 21.38,-151.65 15.38,-145.65 15.38,-139.65 15.38,-139.65 15.38,-127.65 15.38,-127.65 15.38,-121.65 21.38,-115.65 27.38,-115.65 27.38,-115.65 98.88,-115.65 98.88,-115.65 104.88,-115.65 110.88,-121.65 110.88,-127.65 110.88,-127.65 110.88,-139.65 110.88,-139.65 110.88,-145.65 104.88,-151.65 98.88,-151.65"/>
<text text-anchor="middle" x="63.12" y="-129.35" font-family="Times,serif" font-size="14.00">api&#45;gateway</text>
</g>
<!-- SERVICE:order&#45;service -->
<g id="node10" class="node">
<title>SERVICE:order&#45;service</title>
<path fill="#eef6ff" stroke="black" d="M413,-182.65C413,-182.65 336.25,-182.65 336.25,-182.65 330.25,-182.65 324.25,-176.65 324.25,-170.65 324.25,-170.65 324.25,-158.65 324.25,-158.65 324.25,-152.65 330.25,-146.65 336.25,-146.65 336.25,-146.65 413,-146.65 413,-146.65 419,-146.65 425,-152.65 425,-158.65 425,-158.65 425,-170.65 425,-170.65 425,-176.65 419,-182.65 413,-182.65"/>
<text text-anchor="middle" x="374.62" y="-160.35" font-family="Times,serif" font-size="14.00">order&#45;service</text>
</g>
<!-- SERVICE:api&#45;gateway&#45;&gt;SERVICE:order&#45;service -->
<g id="edge1" class="edge">
<title>SERVICE:api&#45;gateway&#45;&gt;SERVICE:order&#45;service</title>
<g id="a_edge1"><a xlink:title="edge#0">
<path fill="none" stroke="black" d="M111.02,-130.64C150.48,-128.89 208.29,-128.13 258.25,-134.65 276.35,-137.02 295.67,-141.31 313.23,-145.93"/>
<polygon fill="black" stroke="black" points="311.87,-149.19 322.44,-148.43 313.71,-142.43 311.87,-149.19"/>
</a>
</g>
<text text-anchor="middle" x="201.25" y="-139.35" font-family="Times,serif" font-size="14.00">calls (1 ep), 30rpm</text>
</g>
<!-- SERVICE:inventory&#45;service -->
<g id="node6" class="node">
<title>SERVICE:inventory&#45;service</title>
<path fill="#eef6ff" stroke="black" d="M114.25,-274.65C114.25,-274.65 12,-274.65 12,-274.65 6,-274.65 0,-268.65 0,-262.65 0,-262.65 0,-250.65 0,-250.65 0,-244.65 6,-238.65 12,-238.65 12,-238.65 114.25,-238.65 114.25,-238.65 120.25,-238.65 126.25,-244.65 126.25,-250.65 126.25,-250.65 126.25,-262.65 126.25,-262.65 126.25,-268.65 120.25,-274.65 114.25,-274.65"/>
<text text-anchor="middle" x="63.12" y="-252.35" font-family="Times,serif" font-size="14.00">inventory&#45;service</text>
</g>
<!-- SERVICE:inventory&#45;service&#45;&gt;DATABASE:orders&#45;db -->
<g id="edge11" class="edge">
<title>SERVICE:inventory&#45;service&#45;&gt;DATABASE:orders&#45;db</title>
<g id="a_edge11"><a xlink:title="edge#10">
<path fill="none" stroke="black" d="M126.49,-274.61C132.46,-276.08 138.46,-277.46 144.25,-278.65 205.24,-291.23 276.39,-300.3 323.08,-305.5"/>
<polygon fill="black" stroke="black" points="322.57,-308.97 332.9,-306.58 323.34,-302.01 322.57,-308.97"/>
</a>
</g>
<text text-anchor="middle" x="201.25" y="-301.35" font-family="Times,serif" font-size="14.00">READS</text>
</g>
<!-- DATABASE:orders&#45;db_inventory&#45;service -->
<g id="node9" class="node">
<title>DATABASE:orders&#45;db_inventory&#45;service</title>
<path fill="#fff3cd" stroke="black" d="M473,-271.38C473,-273.19 428.91,-274.65 374.62,-274.65 320.34,-274.65 276.25,-273.19 276.25,-271.38 276.25,-271.38 276.25,-241.93 276.25,-241.93 276.25,-240.12 320.34,-238.65 374.62,-238.65 428.91,-238.65 473,-240.12 473,-241.93 473,-241.93 473,-271.38 473,-271.38"/>
<path fill="none" stroke="black" d="M473,-271.38C473,-269.57 428.91,-268.11 374.62,-268.11 320.34,-268.11 276.25,-269.57 276.25,-271.38"/>
<text text-anchor="middle" x="374.62" y="-252.35" font-family="Times,serif" font-size="14.00">orders&#45;db_inventory&#45;service</text>
</g>
<!-- SERVICE:inventory&#45;service&#45;&gt;DATABASE:orders&#45;db_inventory&#45;service -->
<g id="edge12" class="edge">
<title>SERVICE:inventory&#45;service&#45;&gt;DATABASE:orders&#45;db_inventory&#45;service</title>
<g id="a_edge12"><a xlink:title="edge#11">
<path fill="none" stroke="black" d="M126.38,-256.65C165.93,-256.65 218.2,-256.65 264.5,-256.65"/>
<polygon fill="black" stroke="black" points="264.3,-260.15 274.3,-256.65 264.3,-253.15 264.3,-260.15"/>
</a>
</g>
<text text-anchor="middle" x="201.25" y="-261.35" font-family="Times,serif" font-size="14.00">WRITES</text>
</g>
<!-- SERVICE:inventory&#45;service&#45;&gt;SERVICE:order&#45;service -->
<g id="edge9" class="edge">
<title>SERVICE:inventory&#45;service&#45;&gt;SERVICE:order&#45;service</title>
<g id="a_edge9"><a xlink:title="edge#8">
<path fill="none" stroke="black" d="M126.01,-238.26C180.48,-222.07 259.29,-198.64 313.28,-182.59"/>
<polygon fill="black" stroke="black" points="314.03,-186.02 322.62,-179.81 312.04,-179.31 314.03,-186.02"/>
</a>
</g>
<text text-anchor="middle" x="201.25" y="-237.35" font-family="Times,serif" font-size="14.00">calls (1 ep), 82rpm</text>
</g>
<!-- SERVICE:billing&#45;service -->
<g id="node11" class="node">
<title>SERVICE:billing&#45;service</title>
<path fill="#eef6ff" stroke="black" d="M1070.88,-365.65C1070.88,-365.65 988.88,-365.65 988.88,-365.65 982.88,-365.65 976.88,-359.65 976.88,-353.65 976.88,-353.65 976.88,-341.65 976.88,-341.65 976.88,-335.65 982.88,-329.65 988.88,-329.65 988.88,-329.65 1070.88,-329.65 1070.88,-329.65 1076.88,-329.65 1082.88,-335.65 1082.88,-341.65 1082.88,-341.65 1082.88,-353.65 1082.88,-353.65 1082.88,-359.65 1076.88,-365.65 1070.88,-365.65"/>
<text text-anchor="middle" x="1029.88" y="-343.35" font-family="Times,serif" font-size="14.00">billing&#45;service</text>
</g>
<!-- SERVICE:inventory&#45;service&#45;&gt;SERVICE:billing&#45;service -->
<g id="edge10" class="edge">
<title>SERVICE:inventory&#45;service&#45;&gt;SERVICE:billing&#45;service</title>
<g id="a_edge10"><a xlink:title="edge#9">
<path fill="none" stroke="black" d="M82.08,-275.02C97.25,-289.36 120.28,-308.5 144.25,-318.65 198.83,-341.78 217.18,-332.77 276.25,-337.65 530.98,-358.72 835.82,-353.43 965.49,-349.76"/>
<polygon fill="black" stroke="black" points="965.34,-353.27 975.23,-349.48 965.14,-346.27 965.34,-353.27"/>
</a>
</g>
<text text-anchor="middle" x="552.12" y="-356.35" font-family="Times,serif" font-size="14.00">calls (1 ep), 32rpm</text>
</g>
<!-- SERVICE:search&#45;service -->
<g id="node7" class="node">
<title>SERVICE:search&#45;service</title>
<path fill="#eef6ff" stroke="black" d="M1072,-296.65C1072,-296.65 987.75,-296.65 987.75,-296.65 981.75,-296.65 975.75,-290.65 975.75,-284.65 975.75,-284.65 975.75,-272.65 975.75,-272.65 975.75,-266.65 981.75,-260.65 987.75,-260.65 987.75,-260.65 1072,-260.65 1072,-260.65 1078,-260.65 1084,-266.65 1084,-272.65 1084,-272.65 1084,-284.65 1084,-284.65 1084,-290.65 1078,-296.65 1072,-296.65"/>
<text text-anchor="middle" x="1029.88" y="-274.35" font-family="Times,serif" font-size="14.00">search&#45;service</text>
</g>
<!-- SERVICE:order&#45;service_split -->
<g id="node8" class="node">
<title>SERVICE:order&#45;service_split</title>
<path fill="#eef6ff" stroke="black" d="M772.5,-300.65C772.5,-300.65 661.25,-300.65 661.25,-300.65 655.25,-300.65 649.25,-294.65 649.25,-288.65 649.25,-288.65 649.25,-276.65 649.25,-276.65 649.25,-270.65 655.25,-264.65 661.25,-264.65 661.25,-264.65 772.5,-264.65 772.5,-264.65 778.5,-264.65 784.5,-270.65 784.5,-276.65 784.5,-276.65 784.5,-288.65 784.5,-288.65 784.5,-294.65 778.5,-300.65 772.5,-300.65"/>
<text text-anchor="middle" x="716.88" y="-278.35" font-family="Times,serif" font-size="14.00">order&#45;service_split</text>
</g>
<!-- SERVICE:order&#45;service_split&#45;&gt;SERVICE:search&#45;service -->
<g id="edge18" class="edge">
<title>SERVICE:order&#45;service_split&#45;&gt;SERVICE:search&#45;service</title>
<g id="a_edge18"><a xlink:title="edge#17">
<path fill="none" stroke="black" d="M784.97,-281.79C838.04,-281.11 911.68,-280.16 964.13,-279.49"/>
<polygon fill="black" stroke="black" points="963.85,-282.99 973.8,-279.36 963.76,-275.99 963.85,-282.99"/>
</a>
</g>
<text text-anchor="middle" x="881.25" y="-286.35" font-family="Times,serif" font-size="14.00">calls (1 ep), 180rpm</text>
</g>
<!-- SERVICE:order&#45;service_split&#45;&gt;SERVICE:billing&#45;service -->
<g id="edge16" class="edge">
<title>SERVICE:order&#45;service_split&#45;&gt;SERVICE:billing&#45;service</title>
<g id="a_edge16"><a xlink:title="edge#15">
<path fill="none" stroke="black" d="M784.97,-296.68C838.54,-307.87 913.07,-323.45 965.6,-334.43"/>
<polygon fill="black" stroke="black" points="964.81,-337.84 975.31,-336.46 966.24,-330.99 964.81,-337.84"/>
</a>
</g>
<text text-anchor="middle" x="881.25" y="-332.35" font-family="Times,serif" font-size="14.00">calls (1 ep), 36rpm</text>
</g>
<!-- SERVICE:notification&#45;service -->
<g id="node13" class="node">
<title>SERVICE:notification&#45;service</title>
<path fill="#eef6ff" stroke="black" d="M1087.75,-212.65C1087.75,-212.65 972,-212.65 972,-212.65 966,-212.65 960,-206.65 960,-200.65 960,-200.65 960,-188.65 960,-188.65 960,-182.65 966,-176.65 972,-176.65 972,-176.65 1087.75,-176.65 1087.75,-176.65 1093.75,-176.65 1099.75,-182.65 1099.75,-188.65 1099.75,-188.65 1099.75,-200.65 1099.75,-200.65 1099.75,-206.65 1093.75,-212.65 1087.75,-212.65"/>
<text text-anchor="middle" x="1029.88" y="-190.35" font-family="Times,serif" font-size="14.00">notification&#45;service</text>
</g>
<!-- SERVICE:order&#45;service_split&#45;&gt;SERVICE:notification&#45;service -->
<g id="edge17" class="edge">
<title>SERVICE:order&#45;service_split&#45;&gt;SERVICE:notification&#45;service</title>
<g id="a_edge17"><a xlink:title="edge#16">
<path fill="none" stroke="black" d="M783.07,-264.21C832.54,-250.21 900.67,-230.93 952.66,-216.22"/>
<polygon fill="black" stroke="black" points="953.37,-219.65 962.04,-213.56 951.47,-212.92 953.37,-219.65"/>
</a>
</g>
<text text-anchor="middle" x="881.25" y="-257.35" font-family="Times,serif" font-size="14.00">calls (1 ep), 220rpm</text>
</g>
<!-- SERVICE:order&#45;service&#45;&gt;DATABASE:users&#45;db -->
<g id="edge7" class="edge">
<title>SERVICE:order&#45;service&#45;&gt;DATABASE:users&#45;db</title>
<g id="a_edge7"><a xlink:title="edge#6">
<path fill="none" stroke="black" d="M392.4,-146.35C413.55,-124.18 451.89,-86.94 491,-63.65 548.12,-29.64 565.82,-23.39 631.25,-11.65 756.44,10.81 907.27,-5.77 982.07,-16.85"/>
<polygon fill="black" stroke="black" points="981.5,-20.3 991.92,-18.34 982.55,-13.38 981.5,-20.3"/>
</a>
</g>
<text text-anchor="middle" x="716.88" y="-16.35" font-family="Times,serif" font-size="14.00">READS</text>
</g>
<!-- SERVICE:order&#45;service&#45;&gt;DATABASE:orders&#45;db_order&#45;service -->
<g id="edge8" class="edge">
<title>SERVICE:order&#45;service&#45;&gt;DATABASE:orders&#45;db_order&#45;service</title>
<g id="a_edge8"><a xlink:title="edge#7">
<path fill="none" stroke="black" d="M425.44,-148.8C445.61,-142.92 469.24,-136.7 491,-132.65 532.77,-124.88 579.45,-119.74 619.41,-116.41"/>
<polygon fill="black" stroke="black" points="619.57,-119.91 629.25,-115.61 619,-112.93 619.57,-119.91"/>
</a>
</g>
<text text-anchor="middle" x="552.12" y="-137.35" font-family="Times,serif" font-size="14.00">WRITES</text>
</g>
<!-- SERVICE:order&#45;service&#45;&gt;SERVICE:inventory&#45;service -->
<g id="edge2" class="edge">
<title>SERVICE:order&#45;service&#45;&gt;SERVICE:inventory&#45;service</title>
<g id="a_edge2"><a xlink:title="edge#1">
<path fill="none" stroke="black" d="M323.81,-156.98C275.67,-151.83 201.78,-150 144.25,-175.65 118.75,-187.02 97.01,-210.48 82.64,-229.24"/>
<polygon fill="black" stroke="black" points="80,-226.91 76.9,-237.04 85.64,-231.06 80,-226.91"/>
</a>
</g>
<text text-anchor="middle" x="201.25" y="-180.35" font-family="Times,serif" font-size="14.00">calls (1 ep), 95rpm</text>
</g>
<!-- SERVICE:order&#45;service&#45;&gt;SERVICE:search&#45;service -->
<g id="edge6" class="edge">
<title>SERVICE:order&#45;service&#45;&gt;SERVICE:search&#45;service</title>
<g id="a_edge6"><a xlink:title="edge#5">
<path fill="none" stroke="black" d="M425.23,-173.44C445.57,-176.88 469.38,-180.7 491,-183.65 540.94,-190.47 893.81,-217.87 942,-232.65 958.84,-237.82 976.21,-246.29 990.96,-254.57"/>
<polygon fill="black" stroke="black" points="989,-257.48 999.4,-259.47 992.51,-251.42 989,-257.48"/>
</a>
</g>
<text text-anchor="middle" x="716.88" y="-218.35" font-family="Times,serif" font-size="14.00">calls (1 ep), 180rpm</text>
</g>
<!-- SERVICE:order&#45;service&#45;&gt;SERVICE:order&#45;service_split -->
<g id="edge4" class="edge">
<title>SERVICE:order&#45;service&#45;&gt;SERVICE:order&#45;service_split</title>
<g id="a_edge4"><a xlink:title="edge#3">
<path fill="none" stroke="black" d="M401.45,-183.09C424.07,-198.43 458.34,-219.77 491,-232.65 538.06,-251.21 593.52,-263.64 637.58,-271.46"/>
<polygon fill="black" stroke="black" points="636.87,-274.89 647.32,-273.14 638.07,-267.99 636.87,-274.89"/>
</a>
</g>
<text text-anchor="middle" x="552.12" y="-271.35" font-family="Times,serif" font-size="14.00">calls (1 ep), 30rpm</text>
</g>
<!-- SERVICE:user&#45;service -->
<g id="node12" class="node">
<title>SERVICE:user&#45;service</title>
<path fill="#eef6ff" stroke="black" d="M751.5,-74.65C751.5,-74.65 682.25,-74.65 682.25,-74.65 676.25,-74.65 670.25,-68.65 670.25,-62.65 670.25,-62.65 670.25,-50.65 670.25,-50.65 670.25,-44.65 676.25,-38.65 682.25,-38.65 682.25,-38.65 751.5,-38.65 751.5,-38.65 757.5,-38.65 763.5,-44.65 763.5,-50.65 763.5,-50.65 763.5,-62.65 763.5,-62.65 763.5,-68.65 757.5,-74.65 751.5,-74.65"/>
<text text-anchor="middle" x="716.88" y="-52.35" font-family="Times,serif" font-size="14.00">user&#45;service</text>
</g>
<!-- SERVICE:order&#45;service&#45;&gt;SERVICE:user&#45;service -->
<g id="edge3" class="edge">
<title>SERVICE:order&#45;service&#45;&gt;SERVICE:user&#45;service</title>
<g id="a_edge3"><a xlink:title="edge#2">
<path fill="none" stroke="black" d="M400.37,-146.17C422.85,-130.3 457.52,-108.08 491,-95.65 545.79,-75.32 612.1,-65.47 658.46,-60.77"/>
<polygon fill="black" stroke="black" points="658.67,-64.27 668.29,-59.83 658,-57.3 658.67,-64.27"/>
</a>
</g>
<text text-anchor="middle" x="552.12" y="-100.35" font-family="Times,serif" font-size="14.00">calls (1 ep), 260rpm</text>
</g>
<!-- SERVICE:order&#45;service&#45;&gt;SERVICE:notification&#45;service -->
<g id="edge5" class="edge">
<title>SERVICE:order&#45;service&#45;&gt;SERVICE:notification&#45;service</title>
<g id="a_edge5"><a xlink:title="edge#4">
<path fill="none" stroke="black" d="M425.27,-165.67C504.9,-167.45 666.06,-171.6 802.5,-178.65 850.9,-181.16 905.05,-184.95 948.26,-188.21"/>
<polygon fill="black" stroke="black" points="947.82,-191.69 958.05,-188.96 948.35,-184.71 947.82,-191.69"/>
</a>
</g>
<text text-anchor="middle" x="716.88" y="-183.35" font-family="Times,serif" font-size="14.00">calls (1 ep), 220rpm</text>
</g>
<!-- SERVICE:billing&#45;service&#45;&gt;DATABASE:payments&#45;db -->
<g id="edge13" class="edge">
<title>SERVICE:billing&#45;service&#45;&gt;DATABASE:payments&#45;db</title>
<g id="a_edge13"><a xlink:title="edge#12">
<path fill="none" stroke="black" d="M1083.37,-347.4C1111.11,-347.26 1145.31,-347.09 1174.28,-346.95"/>
<polygon fill="black" stroke="black" points="1174.02,-350.45 1184,-346.91 1173.98,-343.45 1174.02,-350.45"/>
</a>
</g>
<text text-anchor="middle" x="1142.88" y="-351.35" font-family="Times,serif" font-size="14.00">READS</text>
</g>
<!-- SERVICE:billing&#45;service&#45;&gt;DATABASE:payments&#45;db -->
<g id="edge14" class="edge">
<title>SERVICE:billing&#45;service&#45;&gt;DATABASE:payments&#45;db</title>
<g id="a_edge14"><a xlink:title="edge#13">
<path fill="none" stroke="black" d="M1083.26,-330.85C1108.8,-324.7 1139.99,-320.22 1168,-324.65 1171.37,-325.19 1174.81,-325.86 1178.25,-326.64"/>
<polygon fill="black" stroke="black" points="1177.18,-329.98 1187.74,-329.06 1178.91,-323.2 1177.18,-329.98"/>
</a>
</g>
<text text-anchor="middle" x="1142.88" y="-329.35" font-family="Times,serif" font-size="14.00">WRITES</text>
</g>
<!-- SERVICE:user&#45;service&#45;&gt;DATABASE:users&#45;db -->
<g id="edge15" class="edge">
<title>SERVICE:user&#45;service&#45;&gt;DATABASE:users&#45;db</title>
<g id="a_edge15"><a xlink:title="edge#14">
<path fill="none" stroke="black" d="M763.76,-51.93C822.37,-45.9 923.25,-35.52 982.23,-29.45"/>
<polygon fill="black" stroke="black" points="982.34,-32.96 991.93,-28.45 981.62,-26 982.34,-32.96"/>
</a>
</g>
<text text-anchor="middle" x="881.25" y="-50.35" font-family="Times,serif" font-size="14.00">READS</text>
</g>
</g>
</svg>
