<?xml version="1.0" encoding="UTF-8" standalone="no"?>
<!DOCTYPE svg PUBLIC "-//W3C//DTD SVG 1.1//EN"
 "http://www.w3.org/Graphics/SVG/1.1/DTD/svg11.dtd">
<!-- Generated by graphviz version 9.0.0 (20230911.1827)
 -->
<!-- Title: G Pages: 1 -->
<svg width="1096pt" height="380pt"
 viewBox="0.00 0.00 1095.50 379.71" xmlns="http://www.w3.org/2000/svg" xmlns:xlink="http://www.w3.org/1999/xlink">
<g id="graph0" class="graph" transform="scale(1 1) rotate(0) translate(4 375.71)">
<title>G</title>
<polygon fill="white" stroke="none" points="-4,4 -4,-375.71 1091.5,-375.71 1091.5,4 -4,4"/>
<text text-anchor="middle" x="543.75" y="-354.41" font-family="Helvetica,sans-Serif" font-size="14.00">Architecture</text>
<!-- SERVICE:web&#45;ui -->
<g id="node1" class="node">
<title>SERVICE:web&#45;ui</title>
<path fill="#eef6ff" stroke="black" d="M48.25,-189.71C48.25,-189.71 12,-189.71 12,-189.71 6,-189.71 0,-183.71 0,-177.71 0,-177.71 0,-165.71 0,-165.71 0,-159.71 6,-153.71 12,-153.71 12,-153.71 48.25,-153.71 48.25,-153.71 54.25,-153.71 60.25,-159.71 60.25,-165.71 60.25,-165.71 60.25,-177.71 60.25,-177.71 60.25,-183.71 54.25,-189.71 48.25,-189.71"/>
<text text-anchor="middle" x="30.12" y="-167.41" font-family="Times,serif" font-size="14.00">web&#45;ui</text>
</g>
<!-- SERVICE:web&#45;ui_split -->
<g id="node10" class="node">
<title>SERVICE:web&#45;ui_split</title>
<path fill="#eef6ff" stroke="black" d="M296.75,-163.71C296.75,-163.71 226,-163.71 226,-163.71 220,-163.71 214,-157.71 214,-151.71 214,-151.71 214,-139.71 214,-139.71 214,-133.71 220,-127.71 226,-127.71 226,-127.71 296.75,-127.71 296.75,-127.71 302.75,-127.71 308.75,-133.71 308.75,-139.71 308.75,-139.71 308.75,-151.71 308.75,-151.71 308.75,-157.71 302.75,-163.71 296.75,-163.71"/>
<text text-anchor="middle" x="261.38" y="-141.41" font-family="Times,serif" font-size="14.00">web&#45;ui_split</text>
</g>
<!-- SERVICE:web&#45;ui&#45;&gt;SERVICE:web&#45;ui_split -->
<g id="edge11" class="edge">
<title>SERVICE:web&#45;ui&#45;&gt;SERVICE:web&#45;ui_split</title>
<g id="a_edge11"><a xlink:title="edge#10">
<path fill="none" stroke="black" d="M60.71,-160.3C66.45,-158.48 72.48,-156.83 78.25,-155.71 119.21,-147.79 166.24,-145.37 202.25,-144.89"/>
<polygon fill="black" stroke="black" points="202.05,-148.39 212.02,-144.81 201.99,-141.39 202.05,-148.39"/>
</a>
</g>
<text text-anchor="middle" x="137.12" y="-160.41" font-family="Times,serif" font-size="14.00">CALLS [rest] (sync)</text>
</g>
<!-- SERVICE:bff -->
<g id="node11" class="node">
<title>SERVICE:bff</title>
<path fill="#eef6ff" stroke="black" d="M276.38,-234.71C276.38,-234.71 246.38,-234.71 246.38,-234.71 240.38,-234.71 234.38,-228.71 234.38,-222.71 234.38,-222.71 234.38,-210.71 234.38,-210.71 234.38,-204.71 240.38,-198.71 246.38,-198.71 246.38,-198.71 276.38,-198.71 276.38,-198.71 282.38,-198.71 288.38,-204.71 288.38,-210.71 288.38,-210.71 288.38,-222.71 288.38,-222.71 288.38,-228.71 282.38,-234.71 276.38,-234.71"/>
<text text-anchor="middle" x="261.38" y="-212.41" font-family="Times,serif" font-size="14.00">bff</text>
</g>
<!-- SERVICE:web&#45;ui&#45;&gt;SERVICE:bff -->
<g id="edge13" class="edge">
<title>SERVICE:web&#45;ui&#45;&gt;SERVICE:bff</title>
<g id="a_edge13"><a xlink:title="edge#12">
<path fill="none" stroke="black" d="M60.63,-177.5C102.12,-185.65 177.71,-200.49 223.06,-209.39"/>
<polygon fill="black" stroke="black" points="222.2,-212.79 232.69,-211.28 223.55,-205.92 222.2,-212.79"/>
</a>
</g>
<text text-anchor="middle" x="137.12" y="-207.41" font-family="Times,serif" font-size="14.00">CALLS [rest] (sync)</text>
</g>
<!-- SERVICE:cart -->
<g id="node2" class="node">
<title>SERVICE:cart</title>
<path fill="#eef6ff" stroke="black" d="M536.38,-239.71C536.38,-239.71 506.38,-239.71 506.38,-239.71 500.38,-239.71 494.38,-233.71 494.38,-227.71 494.38,-227.71 494.38,-215.71 494.38,-215.71 494.38,-209.71 500.38,-203.71 506.38,-203.71 506.38,-203.71 536.38,-203.71 536.38,-203.71 542.38,-203.71 548.38,-209.71 548.38,-215.71 548.38,-215.71 548.38,-227.71 548.38,-227.71 548.38,-233.71 542.38,-239.71 536.38,-239.71"/>
<text text-anchor="middle" x="521.38" y="-217.41" font-family="Times,serif" font-size="14.00">cart</text>
</g>
<!-- DATABASE:shared&#45;db -->
<g id="node5" class="node">
<title>DATABASE:shared&#45;db</title>
<path fill="#fff3cd" stroke="black" d="M1087.5,-229.44C1087.5,-231.24 1069.12,-232.71 1046.5,-232.71 1023.88,-232.71 1005.5,-231.24 1005.5,-229.44 1005.5,-229.44 1005.5,-199.98 1005.5,-199.98 1005.5,-198.18 1023.88,-196.71 1046.5,-196.71 1069.12,-196.71 1087.5,-198.18 1087.5,-199.98 1087.5,-199.98 1087.5,-229.44 1087.5,-229.44"/>
<path fill="none" stroke="black" d="M1087.5,-229.44C1087.5,-227.63 1069.12,-226.17 1046.5,-226.17 1023.88,-226.17 1005.5,-227.63 1005.5,-229.44"/>
<text text-anchor="middle" x="1046.5" y="-210.41" font-family="Times,serif" font-size="14.00">shared&#45;db</text>
</g>
<!-- SERVICE:cart&#45;&gt;DATABASE:shared&#45;db -->
<g id="edge8" class="edge">
<title>SERVICE:cart&#45;&gt;DATABASE:shared&#45;db</title>
<g id="a_edge8"><a xlink:title="edge#7">
<path fill="none" stroke="black" d="M548.87,-222.12C619.93,-223.09 820.66,-225 987.5,-218.71 989.57,-218.63 991.67,-218.54 993.8,-218.44"/>
<polygon fill="black" stroke="black" points="993.96,-221.94 1003.76,-217.89 993.58,-214.95 993.96,-221.94"/>
</a>
</g>
<text text-anchor="middle" x="792.88" y="-227.41" font-family="Times,serif" font-size="14.00">CALLS [rest] (sync)</text>
</g>
<!-- SERVICE:catalog -->
<g id="node8" class="node">
<title>SERVICE:catalog</title>
<path fill="#eef6ff" stroke="black" d="M812.5,-304.71C812.5,-304.71 773.25,-304.71 773.25,-304.71 767.25,-304.71 761.25,-298.71 761.25,-292.71 761.25,-292.71 761.25,-280.71 761.25,-280.71 761.25,-274.71 767.25,-268.71 773.25,-268.71 773.25,-268.71 812.5,-268.71 812.5,-268.71 818.5,-268.71 824.5,-274.71 824.5,-280.71 824.5,-280.71 824.5,-292.71 824.5,-292.71 824.5,-298.71 818.5,-304.71 812.5,-304.71"/>
<text text-anchor="middle" x="792.88" y="-282.41" font-family="Times,serif" font-size="14.00">catalog</text>
</g>
<!-- SERVICE:cart&#45;&gt;SERVICE:catalog -->
<g id="edge4" class="edge">
<title>SERVICE:cart&#45;&gt;SERVICE:catalog</title>
<g id="a_edge4"><a xlink:title="edge#3">
<path fill="none" stroke="black" d="M548.84,-231.26C563.31,-236.27 581.63,-242.27 598.25,-246.71 649.75,-260.47 710.03,-272.25 749.47,-279.4"/>
<polygon fill="black" stroke="black" points="748.82,-282.84 759.28,-281.15 750.05,-275.95 748.82,-282.84"/>
</a>
</g>
<text text-anchor="middle" x="657.12" y="-276.41" font-family="Times,serif" font-size="14.00">CALLS [rest] (sync)</text>
</g>
<!-- SERVICE:orders -->
<g id="node3" class="node">
<title>SERVICE:orders</title>
<path fill="#eef6ff" stroke="black" d="M538,-163.71C538,-163.71 504.75,-163.71 504.75,-163.71 498.75,-163.71 492.75,-157.71 492.75,-151.71 492.75,-151.71 492.75,-139.71 492.75,-139.71 492.75,-133.71 498.75,-127.71 504.75,-127.71 504.75,-127.71 538,-127.71 538,-127.71 544,-127.71 550,-133.71 550,-139.71 550,-139.71 550,-151.71 550,-151.71 550,-157.71 544,-163.71 538,-163.71"/>
<text text-anchor="middle" x="521.38" y="-141.41" font-family="Times,serif" font-size="14.00">orders</text>
</g>
<!-- SERVICE:inventory -->
<g id="node4" class="node">
<title>SERVICE:inventory</title>
<path fill="#eef6ff" stroke="black" d="M818.88,-196.71C818.88,-196.71 766.88,-196.71 766.88,-196.71 760.88,-196.71 754.88,-190.71 754.88,-184.71 754.88,-184.71 754.88,-172.71 754.88,-172.71 754.88,-166.71 760.88,-160.71 766.88,-160.71 766.88,-160.71 818.88,-160.71 818.88,-160.71 824.88,-160.71 830.88,-166.71 830.88,-172.71 830.88,-172.71 830.88,-184.71 830.88,-184.71 830.88,-190.71 824.88,-196.71 818.88,-196.71"/>
<text text-anchor="middle" x="792.88" y="-174.41" font-family="Times,serif" font-size="14.00">inventory</text>
</g>
<!-- SERVICE:orders&#45;&gt;SERVICE:inventory -->
<g id="edge5" class="edge">
<title>SERVICE:orders&#45;&gt;SERVICE:inventory</title>
<g id="a_edge5"><a xlink:title="edge#4">
<path fill="none" stroke="black" d="M550.45,-149.15C596.11,-154.74 687,-165.87 743.3,-172.76"/>
<polygon fill="black" stroke="black" points="742.57,-176.2 752.92,-173.94 743.42,-169.25 742.57,-176.2"/>
</a>
</g>
<text text-anchor="middle" x="657.12" y="-173.41" font-family="Times,serif" font-size="14.00">CALLS [rest] (sync)</text>
</g>
<!-- SERVICE:orders_split -->
<g id="node6" class="node">
<title>SERVICE:orders_split</title>
<path fill="#eef6ff" stroke="black" d="M826.75,-142.71C826.75,-142.71 759,-142.71 759,-142.71 753,-142.71 747,-136.71 747,-130.71 747,-130.71 747,-118.71 747,-118.71 747,-112.71 753,-106.71 759,-106.71 759,-106.71 826.75,-106.71 826.75,-106.71 832.75,-106.71 838.75,-112.71 838.75,-118.71 838.75,-118.71 838.75,-130.71 838.75,-130.71 838.75,-136.71 832.75,-142.71 826.75,-142.71"/>
<text text-anchor="middle" x="792.88" y="-120.41" font-family="Times,serif" font-size="14.00">orders_split</text>
</g>
<!-- SERVICE:orders&#45;&gt;SERVICE:orders_split -->
<g id="edge12" class="edge">
<title>SERVICE:orders&#45;&gt;SERVICE:orders_split</title>
<g id="a_edge12"><a xlink:title="edge#11">
<path fill="none" stroke="black" d="M550.36,-140.03C564.63,-137.36 582.3,-134.4 598.25,-132.71 644.38,-127.83 696.99,-125.88 735.72,-125.13"/>
<polygon fill="black" stroke="black" points="735.31,-128.64 745.25,-124.97 735.19,-121.64 735.31,-128.64"/>
</a>
</g>
<text text-anchor="middle" x="657.12" y="-137.41" font-family="Times,serif" font-size="14.00">CALLS [rest] (sync)</text>
</g>
<!-- SERVICE:inventory&#45;&gt;DATABASE:shared&#45;db -->
<g id="edge10" class="edge">
<title>SERVICE:inventory&#45;&gt;DATABASE:shared&#45;db</title>
<g id="a_edge10"><a xlink:title="edge#9">
<path fill="none" stroke="black" d="M831.19,-181.57C870.33,-184.89 933.53,-191.17 987.5,-200.71 989.64,-201.09 991.82,-201.5 994.02,-201.94"/>
<polygon fill="black" stroke="black" points="993.08,-205.31 1003.59,-203.96 994.53,-198.47 993.08,-205.31"/>
</a>
</g>
<text text-anchor="middle" x="928.62" y="-205.41" font-family="Times,serif" font-size="14.00">CALLS [rest] (sync)</text>
</g>
<!-- SERVICE:orders_split&#45;&gt;DATABASE:shared&#45;db -->
<g id="edge9" class="edge">
<title>SERVICE:orders_split&#45;&gt;DATABASE:shared&#45;db</title>
<g id="a_edge9"><a xlink:title="edge#8">
<path fill="none" stroke="black" d="M838.97,-130.73C887.75,-137.74 961.98,-149.99 987.5,-162.71 1000.14,-169.01 1012.12,-178.82 1021.87,-188.23"/>
<polygon fill="black" stroke="black" points="1019.25,-190.56 1028.77,-195.22 1024.23,-185.65 1019.25,-190.56"/>
</a>
</g>
<text text-anchor="middle" x="928.62" y="-167.41" font-family="Times,serif" font-size="14.00">CALLS [rest] (sync)</text>
</g>
<!-- SERVICE:payments -->
<g id="node9" class="node">
<title>SERVICE:payments</title>
<path fill="#eef6ff" stroke="black" d="M1074,-96.71C1074,-96.71 1019,-96.71 1019,-96.71 1013,-96.71 1007,-90.71 1007,-84.71 1007,-84.71 1007,-72.71 1007,-72.71 1007,-66.71 1013,-60.71 1019,-60.71 1019,-60.71 1074,-60.71 1074,-60.71 1080,-60.71 1086,-66.71 1086,-72.71 1086,-72.71 1086,-84.71 1086,-84.71 1086,-90.71 1080,-96.71 1074,-96.71"/>
<text text-anchor="middle" x="1046.5" y="-74.41" font-family="Times,serif" font-size="14.00">payments</text>
</g>
<!-- SERVICE:orders_split&#45;&gt;SERVICE:payments -->
<g id="edge6" class="edge">
<title>SERVICE:orders_split&#45;&gt;SERVICE:payments</title>
<g id="a_edge6"><a xlink:title="edge#5">
<path fill="none" stroke="black" d="M838.94,-117.19C878.23,-110.55 936.71,-100.42 987.5,-90.71 990.1,-90.21 992.76,-89.7 995.45,-89.17"/>
<polygon fill="black" stroke="black" points="995.93,-92.64 1005.05,-87.24 994.56,-85.78 995.93,-92.64"/>
</a>
</g>
<text text-anchor="middle" x="928.62" y="-115.41" font-family="Times,serif" font-size="14.00">CALLS [rest] (sync)</text>
</g>
<!-- SERVICE:auth -->
<g id="node7" class="node">
<title>SERVICE:auth</title>
<path fill="#eef6ff" stroke="black" d="M536.38,-293.71C536.38,-293.71 506.38,-293.71 506.38,-293.71 500.38,-293.71 494.38,-287.71 494.38,-281.71 494.38,-281.71 494.38,-269.71 494.38,-269.71 494.38,-263.71 500.38,-257.71 506.38,-257.71 506.38,-257.71 536.38,-257.71 536.38,-257.71 542.38,-257.71 548.38,-263.71 548.38,-269.71 548.38,-269.71 548.38,-281.71 548.38,-281.71 548.38,-287.71 542.38,-293.71 536.38,-293.71"/>
<text text-anchor="middle" x="521.38" y="-271.41" font-family="Times,serif" font-size="14.00">auth</text>
</g>
<!-- SERVICE:catalog&#45;&gt;DATABASE:shared&#45;db -->
<g id="edge7" class="edge">
<title>SERVICE:catalog&#45;&gt;DATABASE:shared&#45;db</title>
<g id="a_edge7"><a xlink:title="edge#6">
<path fill="none" stroke="black" d="M824.85,-283.23C863.75,-278.2 932.12,-267.17 987.5,-246.71 994.08,-244.28 1000.82,-241.19 1007.27,-237.89"/>
<polygon fill="black" stroke="black" points="1008.62,-241.14 1015.77,-233.32 1005.31,-234.97 1008.62,-241.14"/>
</a>
</g>
<text text-anchor="middle" x="928.62" y="-280.41" font-family="Times,serif" font-size="14.00">CALLS [rest] (sync)</text>
</g>
<!-- SERVICE:web&#45;ui_split&#45;&gt;SERVICE:cart -->
<g id="edge1" class="edge">
<title>SERVICE:web&#45;ui_split&#45;&gt;SERVICE:cart</title>
<g id="a_edge1"><a xlink:title="edge#0">
<path fill="none" stroke="black" d="M304.92,-164.16C312.13,-166.92 319.59,-169.56 326.75,-171.71 377.89,-187.11 392.96,-181.69 444.5,-195.71 457.26,-199.18 470.99,-203.65 483.21,-207.91"/>
<polygon fill="black" stroke="black" points="481.93,-211.16 492.52,-211.21 484.27,-204.57 481.93,-211.16"/>
</a>
</g>
<text text-anchor="middle" x="385.62" y="-200.41" font-family="Times,serif" font-size="14.00">CALLS [rest] (sync)</text>
</g>
<!-- SERVICE:web&#45;ui_split&#45;&gt;SERVICE:orders -->
<g id="edge2" class="edge">
<title>SERVICE:web&#45;ui_split&#45;&gt;SERVICE:orders</title>
<g id="a_edge2"><a xlink:title="edge#1">
<path fill="none" stroke="black" d="M291.03,-127.34C301.8,-121.45 314.42,-115.69 326.75,-112.71 377.62,-100.43 393.26,-102.05 444.5,-112.71 457.21,-115.35 470.39,-120.24 482.14,-125.46"/>
<polygon fill="black" stroke="black" points="480.56,-128.58 491.1,-129.65 483.52,-122.24 480.56,-128.58"/>
</a>
</g>
<text text-anchor="middle" x="385.62" y="-117.41" font-family="Times,serif" font-size="14.00">CALLS [rest] (sync)</text>
</g>
<!-- SERVICE:web&#45;ui_split&#45;&gt;SERVICE:payments -->
<g id="edge3" class="edge">
<title>SERVICE:web&#45;ui_split&#45;&gt;SERVICE:payments</title>
<g id="a_edge3"><a xlink:title="edge#2">
<path fill="none" stroke="black" d="M271.31,-127.29C281.72,-108.06 300.86,-78.77 326.75,-64.71 550.12,56.55 872.93,-23.97 995.63,-61.98"/>
<polygon fill="black" stroke="black" points="994.5,-65.29 1005.09,-64.95 996.6,-58.61 994.5,-65.29"/>
</a>
</g>
<text text-anchor="middle" x="657.12" y="-10.41" font-family="Times,serif" font-size="14.00">CALLS [rest] (sync)</text>
</g>
<!-- SERVICE:bff&#45;&gt;SERVICE:cart -->
<g id="edge16" class="edge">
<title>SERVICE:bff&#45;&gt;SERVICE:cart</title>
<g id="a_edge16"><a xlink:title="edge#15">
<path fill="none" stroke="black" d="M288.53,-217.22C334.51,-218.11 429.93,-219.96 482.9,-220.98"/>
<polygon fill="black" stroke="black" points="482.57,-224.48 492.63,-221.17 482.7,-217.48 482.57,-224.48"/>
</a>
</g>
<text text-anchor="middle" x="385.62" y="-224.41" font-family="Times,serif" font-size="14.00">CALLS [rest] (sync)</text>
</g>
<!-- SERVICE:bff&#45;&gt;SERVICE:orders -->
<g id="edge17" class="edge">
<title>SERVICE:bff&#45;&gt;SERVICE:orders</title>
<g id="a_edge17"><a xlink:title="edge#16">
<path fill="none" stroke="black" d="M282,-198.53C290.34,-190.69 300.12,-181.35 308.75,-172.71 316.97,-164.48 316.16,-158.53 326.75,-153.71 376.23,-131.21 440.37,-133.92 480.96,-138.99"/>
<polygon fill="black" stroke="black" points="480.37,-142.44 490.76,-140.33 481.32,-135.5 480.37,-142.44"/>
</a>
</g>
<text text-anchor="middle" x="385.62" y="-158.41" font-family="Times,serif" font-size="14.00">CALLS [rest] (sync)</text>
</g>
<!-- SERVICE:bff&#45;&gt;SERVICE:auth -->
<g id="edge14" class="edge">
<title>SERVICE:bff&#45;&gt;SERVICE:auth</title>
<g id="a_edge14"><a xlink:title="edge#13">
<path fill="none" stroke="black" d="M288.6,-228.24C300.13,-232.96 313.93,-238.13 326.75,-241.71 379.93,-256.55 443.21,-266.21 482.6,-271.31"/>
<polygon fill="black" stroke="black" points="482.16,-274.79 492.52,-272.56 483.03,-267.84 482.16,-274.79"/>
</a>
</g>
<text text-anchor="middle" x="385.62" y="-269.41" font-family="Times,serif" font-size="14.00">CALLS [rest] (sync)</text>
</g>
<!-- SERVICE:bff&#45;&gt;SERVICE:catalog -->
<g id="edge15" class="edge">
<title>SERVICE:bff&#45;&gt;SERVICE:catalog</title>
<g id="a_edge15"><a xlink:title="edge#14">
<path fill="none" stroke="black" d="M273.67,-235.05C284.93,-251.56 303.81,-274.99 326.75,-286.71 467.35,-358.53 664.48,-320.65 749.79,-298.74"/>
<polygon fill="black" stroke="black" points="750.59,-302.15 759.37,-296.22 748.81,-295.38 750.59,-302.15"/>
</a>
</g>
<text text-anchor="middle" x="521.38" y="-332.41" font-family="Times,serif" font-size="14.00">CALLS [rest] (sync)</text>
</g>
<!-- SERVICE:bff&#45;&gt;SERVICE:payments -->
<g id="edge18" class="edge">
<title>SERVICE:bff&#45;&gt;SERVICE:payments</title>
<g id="a_edge18"><a xlink:title="edge#17">
<path fill="none" stroke="black" d="M286.83,-198.3C294.87,-191.12 303.17,-182.31 308.75,-172.71 325.55,-143.82 300.75,-120.7 326.75,-99.71 429.13,-17.07 850.22,-56.28 995.75,-72.71"/>
<polygon fill="black" stroke="black" points="995.12,-76.16 1005.45,-73.82 995.91,-69.21 995.12,-76.16"/>
</a>
</g>
<text text-anchor="middle" x="657.12" y="-55.41" font-family="Times,serif" font-size="14.00">CALLS [rest] (sync)</text>
</g>
</g>
</svg>
