<?xml version="1.0" encoding="UTF-8" standalone="no"?>
<!DOCTYPE svg PUBLIC "-//W3C//DTD SVG 1.1//EN"
 "http://www.w3.org/Graphics/SVG/1.1/DTD/svg11.dtd">
<!-- Generated by graphviz version 9.0.0 (20230911.1827)
 -->
<!-- Title: G Pages: 1 -->
<svg width="854pt" height="157pt"
 viewBox="0.00 0.00 853.75 157.00" xmlns="http://www.w3.org/2000/svg" xmlns:xlink="http://www.w3.org/1999/xlink">
<g id="graph0" class="graph" transform="scale(1 1) rotate(0) translate(4 153)">
<title>G</title>
<polygon fill="white" stroke="none" points="-4,4 -4,-153 849.75,-153 849.75,4 -4,4"/>
<text text-anchor="middle" x="422.88" y="-131.7" font-family="Helvetica,sans-Serif" font-size="14.00">Architecture</text>
<!-- SERVICE:recommendations -->
<g id="node1" class="node">
<title>SERVICE:recommendations</title>
<path fill="#eef6ff" stroke="black" d="M328.75,-84C328.75,-84 219.75,-84 219.75,-84 213.75,-84 207.75,-78 207.75,-72 207.75,-72 207.75,-60 207.75,-60 207.75,-54 213.75,-48 219.75,-48 219.75,-48 328.75,-48 328.75,-48 334.75,-48 340.75,-54 340.75,-60 340.75,-60 340.75,-72 340.75,-72 340.75,-78 334.75,-84 328.75,-84"/>
<text text-anchor="middle" x="274.25" y="-61.7" font-family="Times,serif" font-size="14.00">recommendations</text>
</g>
<!-- DATABASE:profile&#45;db -->
<g id="node2" class="node">
<title>DATABASE:profile&#45;db</title>
<path fill="#fff3cd" stroke="black" d="M845.75,-96.73C845.75,-98.53 827.88,-100 805.88,-100 783.87,-100 766,-98.53 766,-96.73 766,-96.73 766,-67.27 766,-67.27 766,-65.47 783.87,-64 805.88,-64 827.88,-64 845.75,-65.47 845.75,-67.27 845.75,-67.27 845.75,-96.73 845.75,-96.73"/>
<path fill="none" stroke="black" d="M845.75,-96.73C845.75,-94.92 827.88,-93.45 805.88,-93.45 783.87,-93.45 766,-94.92 766,-96.73"/>
<text text-anchor="middle" x="805.88" y="-77.7" font-family="Times,serif" font-size="14.00">profile&#45;db</text>
</g>
<!-- SERVICE:recommendations&#45;&gt;DATABASE:profile&#45;db -->
<g id="edge6" class="edge">
<title>SERVICE:recommendations&#45;&gt;DATABASE:profile&#45;db</title>
<g id="a_edge6"><a xlink:title="edge#5">
<path fill="none" stroke="black" d="M341.18,-80.42C347.1,-81.41 353.02,-82.29 358.75,-83 530.53,-104.15 576.01,-114.41 748,-95 750.06,-94.77 752.16,-94.49 754.27,-94.17"/>
<polygon fill="black" stroke="black" points="754.87,-97.62 764.11,-92.44 753.66,-90.73 754.87,-97.62"/>
</a>
</g>
<text text-anchor="middle" x="553.38" y="-109.7" font-family="Times,serif" font-size="14.00">CALLS [rest] (sync)</text>
</g>
<!-- SERVICE:profile -->
<g id="node4" class="node">
<title>SERVICE:profile</title>
<path fill="#eef6ff" stroke="black" d="M570,-63C570,-63 536.75,-63 536.75,-63 530.75,-63 524.75,-57 524.75,-51 524.75,-51 524.75,-39 524.75,-39 524.75,-33 530.75,-27 536.75,-27 536.75,-27 570,-27 570,-27 576,-27 582,-33 582,-39 582,-39 582,-51 582,-51 582,-57 576,-63 570,-63"/>
<text text-anchor="middle" x="553.38" y="-40.7" font-family="Times,serif" font-size="14.00">profile</text>
</g>
<!-- SERVICE:recommendations&#45;&gt;SERVICE:profile -->
<g id="edge3" class="edge">
<title>SERVICE:recommendations&#45;&gt;SERVICE:profile</title>
<g id="a_edge3"><a xlink:title="edge#2">
<path fill="none" stroke="black" d="M341.03,-63.05C380.38,-61.04 431.35,-58.02 476.5,-54 488.39,-52.94 501.3,-51.51 513.04,-50.11"/>
<polygon fill="black" stroke="black" points="513.31,-53.6 522.81,-48.91 512.46,-46.65 513.31,-53.6"/>
</a>
</g>
<text text-anchor="middle" x="417.62" y="-65.7" font-family="Times,serif" font-size="14.00">CALLS [rest] (sync)</text>
</g>
<!-- SERVICE:ui -->
<g id="node3" class="node">
<title>SERVICE:ui</title>
<path fill="#eef6ff" stroke="black" d="M42,-36C42,-36 12,-36 12,-36 6,-36 0,-30 0,-24 0,-24 0,-12 0,-12 0,-6 6,0 12,0 12,0 42,0 42,0 48,0 54,-6 54,-12 54,-12 54,-24 54,-24 54,-30 48,-36 42,-36"/>
<text text-anchor="middle" x="27" y="-13.7" font-family="Times,serif" font-size="14.00">ui</text>
</g>
<!-- SERVICE:ui&#45;&gt;SERVICE:recommendations -->
<g id="edge2" class="edge">
<title>SERVICE:ui&#45;&gt;SERVICE:recommendations</title>
<g id="a_edge2"><a xlink:title="edge#1">
<path fill="none" stroke="black" d="M54.25,-23.14C87.89,-29.72 147.69,-41.43 196.31,-50.94"/>
<polygon fill="black" stroke="black" points="195.48,-54.35 205.97,-52.83 196.83,-47.48 195.48,-54.35"/>
</a>
</g>
<text text-anchor="middle" x="130.88" y="-53.7" font-family="Times,serif" font-size="14.00">CALLS [rest] (sync)</text>
</g>
<!-- SERVICE:ui&#45;&gt;SERVICE:profile -->
<g id="edge1" class="edge">
<title>SERVICE:ui&#45;&gt;SERVICE:profile</title>
<g id="a_edge1"><a xlink:title="edge#0">
<path fill="none" stroke="black" d="M54.49,-15.78C124.12,-10.49 317.85,0.73 476.5,-23 488.73,-24.83 501.76,-28.1 513.51,-31.57"/>
<polygon fill="black" stroke="black" points="512.28,-34.85 522.87,-34.47 514.35,-28.17 512.28,-34.85"/>
</a>
</g>
<text text-anchor="middle" x="274.25" y="-15.7" font-family="Times,serif" font-size="14.00">CALLS [rest] (sync)</text>
</g>
<!-- SERVICE:profile&#45;&gt;SERVICE:recommendations -->
<g id="edge4" class="edge">
<title>SERVICE:profile&#45;&gt;SERVICE:recommendations</title>
<g id="a_edge4"><a xlink:title="edge#3">
<path fill="none" stroke="black" d="M524.52,-38.65C486.64,-31.02 416.94,-20.61 358.75,-32 346.52,-34.39 333.82,-38.59 322.12,-43.23"/>
<polygon fill="black" stroke="black" points="320.98,-39.91 313.11,-47 323.68,-46.37 320.98,-39.91"/>
</a>
</g>
<text text-anchor="middle" x="417.62" y="-36.7" font-family="Times,serif" font-size="14.00">CALLS [rest] (sync)</text>
</g>
<!-- SERVICE:profile&#45;&gt;DATABASE:profile&#45;db -->
<g id="edge5" class="edge">
<title>SERVICE:profile&#45;&gt;DATABASE:profile&#45;db</title>
<g id="a_edge5"><a xlink:title="edge#4">
<path fill="none" stroke="black" d="M582.14,-49.1C623.71,-55.24 702.77,-66.92 754.64,-74.58"/>
<polygon fill="black" stroke="black" points="754.02,-78.03 764.42,-76.02 755.04,-71.1 754.02,-78.03"/>
</a>
</g>
<text text-anchor="middle" x="689.12" y="-77.7" font-family="Times,serif" font-size="14.00">CALLS [rest] (sync)</text>
</g>
</g>
</svg>
