<?xml version="1.0" encoding="UTF-8" standalone="no"?>
<!DOCTYPE svg PUBLIC "-//W3C//DTD SVG 1.1//EN"
 "http://www.w3.org/Graphics/SVG/1.1/DTD/svg11.dtd">
<!-- Generated by graphviz version 9.0.0 (20230911.1827)
 -->
<!-- Title: G Pages: 1 -->
<svg width="847pt" height="379pt"
 viewBox="0.00 0.00 847.00 379.03" xmlns="http://www.w3.org/2000/svg" xmlns:xlink="http://www.w3.org/1999/xlink">
<g id="graph0" class="graph" transform="scale(1 1) rotate(0) translate(4 375.03)">
<title>G</title>
<polygon fill="white" stroke="none" points="-4,4 -4,-375.03 843,-375.03 843,4 -4,4"/>
<text text-anchor="middle" x="419.5" y="-353.73" font-family="Helvetica,sans-Serif" font-size="14.00">Architecture</text>
<!-- SERVICE:inventory -->
<g id="node1" class="node">
<title>SERVICE:inventory</title>
<path fill="#eef6ff" stroke="black" d="M570.38,-171.03C570.38,-171.03 518.38,-171.03 518.38,-171.03 512.38,-171.03 506.38,-165.03 506.38,-159.03 506.38,-159.03 506.38,-147.03 506.38,-147.03 506.38,-141.03 512.38,-135.03 518.38,-135.03 518.38,-135.03 570.38,-135.03 570.38,-135.03 576.38,-135.03 582.38,-141.03 582.38,-147.03 582.38,-147.03 582.38,-159.03 582.38,-159.03 582.38,-165.03 576.38,-171.03 570.38,-171.03"/>
<text text-anchor="middle" x="544.38" y="-148.73" font-family="Times,serif" font-size="14.00">inventory</text>
</g>
<!-- DATABASE:shared&#45;db -->
<g id="node2" class="node">
<title>DATABASE:shared&#45;db</title>
<path fill="#fff3cd" stroke="black" d="M839,-199.75C839,-201.56 820.62,-203.03 798,-203.03 775.38,-203.03 757,-201.56 757,-199.75 757,-199.75 757,-170.3 757,-170.3 757,-168.49 775.38,-167.03 798,-167.03 820.62,-167.03 839,-168.49 839,-170.3 839,-170.3 839,-199.75 839,-199.75"/>
<path fill="none" stroke="black" d="M839,-199.75C839,-197.95 820.62,-196.48 798,-196.48 775.38,-196.48 757,-197.95 757,-199.75"/>
<text text-anchor="middle" x="798" y="-180.73" font-family="Times,serif" font-size="14.00">shared&#45;db</text>
</g>
<!-- SERVICE:inventory&#45;&gt;DATABASE:shared&#45;db -->
<g id="edge13" class="edge">
<title>SERVICE:inventory&#45;&gt;DATABASE:shared&#45;db</title>
<g id="a_edge13"><a xlink:title="edge#12">
<path fill="none" stroke="black" d="M582.58,-156.61C621.62,-160.52 684.74,-167.27 739,-175.03 741.16,-175.34 743.37,-175.66 745.59,-176"/>
<polygon fill="black" stroke="black" points="744.88,-179.43 755.3,-177.55 745.98,-172.52 744.88,-179.43"/>
</a>
</g>
<text text-anchor="middle" x="680.12" y="-179.73" font-family="Times,serif" font-size="14.00">CALLS [rest] (sync)</text>
</g>
<!-- SERVICE:web&#45;ui -->
<g id="node3" class="node">
<title>SERVICE:web&#45;ui</title>
<path fill="#eef6ff" stroke="black" d="M48.25,-231.03C48.25,-231.03 12,-231.03 12,-231.03 6,-231.03 0,-225.03 0,-219.03 0,-219.03 0,-207.03 0,-207.03 0,-201.03 6,-195.03 12,-195.03 12,-195.03 48.25,-195.03 48.25,-195.03 54.25,-195.03 60.25,-201.03 60.25,-207.03 60.25,-207.03 60.25,-219.03 60.25,-219.03 60.25,-225.03 54.25,-231.03 48.25,-231.03"/>
<text text-anchor="middle" x="30.12" y="-208.73" font-family="Times,serif" font-size="14.00">web&#45;ui</text>
</g>
<!-- SERVICE:auth -->
<g id="node4" class="node">
<title>SERVICE:auth</title>
<path fill="#eef6ff" stroke="black" d="M287.88,-345.03C287.88,-345.03 257.88,-345.03 257.88,-345.03 251.88,-345.03 245.88,-339.03 245.88,-333.03 245.88,-333.03 245.88,-321.03 245.88,-321.03 245.88,-315.03 251.88,-309.03 257.88,-309.03 257.88,-309.03 287.88,-309.03 287.88,-309.03 293.88,-309.03 299.88,-315.03 299.88,-321.03 299.88,-321.03 299.88,-333.03 299.88,-333.03 299.88,-339.03 293.88,-345.03 287.88,-345.03"/>
<text text-anchor="middle" x="272.88" y="-322.73" font-family="Times,serif" font-size="14.00">auth</text>
</g>
<!-- SERVICE:web&#45;ui&#45;&gt;SERVICE:auth -->
<g id="edge1" class="edge">
<title>SERVICE:web&#45;ui&#45;&gt;SERVICE:auth</title>
<g id="a_edge1"><a xlink:title="edge#0">
<path fill="none" stroke="black" d="M37.85,-231.25C45.13,-248.38 58.44,-273.36 78.25,-287.03 125.16,-319.38 192.65,-326.59 234.3,-327.67"/>
<polygon fill="black" stroke="black" points="234.02,-331.16 244.07,-327.8 234.12,-324.16 234.02,-331.16"/>
</a>
</g>
<text text-anchor="middle" x="137.12" y="-328.73" font-family="Times,serif" font-size="14.00">CALLS [rest] (sync)</text>
</g>
<!-- SERVICE:catalog -->
<g id="node5" class="node">
<title>SERVICE:catalog</title>
<path fill="#eef6ff" stroke="black" d="M564,-279.03C564,-279.03 524.75,-279.03 524.75,-279.03 518.75,-279.03 512.75,-273.03 512.75,-267.03 512.75,-267.03 512.75,-255.03 512.75,-255.03 512.75,-249.03 518.75,-243.03 524.75,-243.03 524.75,-243.03 564,-243.03 564,-243.03 570,-243.03 576,-249.03 576,-255.03 576,-255.03 576,-267.03 576,-267.03 576,-273.03 570,-279.03 564,-279.03"/>
<text text-anchor="middle" x="544.38" y="-256.73" font-family="Times,serif" font-size="14.00">catalog</text>
</g>
<!-- SERVICE:web&#45;ui&#45;&gt;SERVICE:catalog -->
<g id="edge2" class="edge">
<title>SERVICE:web&#45;ui&#45;&gt;SERVICE:catalog</title>
<g id="a_edge2"><a xlink:title="edge#1">
<path fill="none" stroke="black" d="M60.7,-228.73C66.4,-231.2 72.41,-233.46 78.25,-235.03 229.56,-275.68 418.22,-269.69 501.05,-264.38"/>
<polygon fill="black" stroke="black" points="501.24,-267.87 510.98,-263.7 500.77,-260.89 501.24,-267.87"/>
</a>
</g>
<text text-anchor="middle" x="272.88" y="-271.73" font-family="Times,serif" font-size="14.00">CALLS [rest] (sync)</text>
</g>
<!-- SERVICE:cart -->
<g id="node6" class="node">
<title>SERVICE:cart</title>
<path fill="#eef6ff" stroke="black" d="M287.88,-231.03C287.88,-231.03 257.88,-231.03 257.88,-231.03 251.88,-231.03 245.88,-225.03 245.88,-219.03 245.88,-219.03 245.88,-207.03 245.88,-207.03 245.88,-201.03 251.88,-195.03 257.88,-195.03 257.88,-195.03 287.88,-195.03 287.88,-195.03 293.88,-195.03 299.88,-201.03 299.88,-207.03 299.88,-207.03 299.88,-219.03 299.88,-219.03 299.88,-225.03 293.88,-231.03 287.88,-231.03"/>
<text text-anchor="middle" x="272.88" y="-208.73" font-family="Times,serif" font-size="14.00">cart</text>
</g>
<!-- SERVICE:web&#45;ui&#45;&gt;SERVICE:cart -->
<g id="edge3" class="edge">
<title>SERVICE:web&#45;ui&#45;&gt;SERVICE:cart</title>
<g id="a_edge3"><a xlink:title="edge#2">
<path fill="none" stroke="black" d="M60.65,-213.03C104.28,-213.03 186.01,-213.03 234,-213.03"/>
<polygon fill="black" stroke="black" points="233.92,-216.53 243.92,-213.03 233.92,-209.53 233.92,-216.53"/>
</a>
</g>
<text text-anchor="middle" x="137.12" y="-217.73" font-family="Times,serif" font-size="14.00">CALLS [rest] (sync)</text>
</g>
<!-- SERVICE:orders -->
<g id="node7" class="node">
<title>SERVICE:orders</title>
<path fill="#eef6ff" stroke="black" d="M289.5,-117.03C289.5,-117.03 256.25,-117.03 256.25,-117.03 250.25,-117.03 244.25,-111.03 244.25,-105.03 244.25,-105.03 244.25,-93.03 244.25,-93.03 244.25,-87.03 250.25,-81.03 256.25,-81.03 256.25,-81.03 289.5,-81.03 289.5,-81.03 295.5,-81.03 301.5,-87.03 301.5,-93.03 301.5,-93.03 301.5,-105.03 301.5,-105.03 301.5,-111.03 295.5,-117.03 289.5,-117.03"/>
<text text-anchor="middle" x="272.88" y="-94.73" font-family="Times,serif" font-size="14.00">orders</text>
</g>
<!-- SERVICE:web&#45;ui&#45;&gt;SERVICE:orders -->
<g id="edge4" class="edge">
<title>SERVICE:web&#45;ui&#45;&gt;SERVICE:orders</title>
<g id="a_edge4"><a xlink:title="edge#3">
<path fill="none" stroke="black" d="M60.65,-199.05C104.19,-178.43 185.64,-139.86 233.68,-117.11"/>
<polygon fill="black" stroke="black" points="235.07,-120.33 242.61,-112.88 232.07,-114 235.07,-120.33"/>
</a>
</g>
<text text-anchor="middle" x="137.12" y="-192.73" font-family="Times,serif" font-size="14.00">CALLS [rest] (sync)</text>
</g>
<!-- SERVICE:payments -->
<g id="node8" class="node">
<title>SERVICE:payments</title>
<path fill="#eef6ff" stroke="black" d="M571.88,-43.03C571.88,-43.03 516.88,-43.03 516.88,-43.03 510.88,-43.03 504.88,-37.03 504.88,-31.03 504.88,-31.03 504.88,-19.03 504.88,-19.03 504.88,-13.03 510.88,-7.03 516.88,-7.03 516.88,-7.03 571.88,-7.03 571.88,-7.03 577.88,-7.03 583.88,-13.03 583.88,-19.03 583.88,-19.03 583.88,-31.03 583.88,-31.03 583.88,-37.03 577.88,-43.03 571.88,-43.03"/>
<text text-anchor="middle" x="544.38" y="-20.73" font-family="Times,serif" font-size="14.00">payments</text>
</g>
<!-- SERVICE:web&#45;ui&#45;&gt;SERVICE:payments -->
<g id="edge5" class="edge">
<title>SERVICE:web&#45;ui&#45;&gt;SERVICE:payments</title>
<g id="a_edge5"><a xlink:title="edge#4">
<path fill="none" stroke="black" d="M38.32,-194.56C46.04,-176.61 59.74,-149.43 78.25,-131.03 172.45,-37.36 218.82,-28.49 349.75,-6.03 401.33,2.82 415.56,0.38 467.5,-6.03 476.03,-7.08 484.97,-8.77 493.61,-10.72"/>
<polygon fill="black" stroke="black" points="492.72,-14.11 503.26,-13.05 494.36,-7.3 492.72,-14.11"/>
</a>
</g>
<text text-anchor="middle" x="272.88" y="-40.73" font-family="Times,serif" font-size="14.00">CALLS [rest] (sync)</text>
</g>
<!-- SERVICE:catalog&#45;&gt;DATABASE:shared&#45;db -->
<g id="edge10" class="edge">
<title>SERVICE:catalog&#45;&gt;DATABASE:shared&#45;db</title>
<g id="a_edge10"><a xlink:title="edge#9">
<path fill="none" stroke="black" d="M576.18,-258.04C615.21,-253.5 684,-242.97 739,-221.03 746.87,-217.89 754.87,-213.69 762.31,-209.28"/>
<polygon fill="black" stroke="black" points="764.13,-212.27 770.76,-204 760.43,-206.33 764.13,-212.27"/>
</a>
</g>
<text text-anchor="middle" x="680.12" y="-254.73" font-family="Times,serif" font-size="14.00">CALLS [rest] (sync)</text>
</g>
<!-- SERVICE:cart&#45;&gt;DATABASE:shared&#45;db -->
<g id="edge11" class="edge">
<title>SERVICE:cart&#45;&gt;DATABASE:shared&#45;db</title>
<g id="a_edge11"><a xlink:title="edge#10">
<path fill="none" stroke="black" d="M300.16,-212.76C371.1,-211.86 572.37,-208.07 739,-193.03 741.16,-192.83 743.37,-192.61 745.6,-192.38"/>
<polygon fill="black" stroke="black" points="745.78,-195.88 755.3,-191.24 744.96,-188.93 745.78,-195.88"/>
</a>
</g>
<text text-anchor="middle" x="544.38" y="-212.73" font-family="Times,serif" font-size="14.00">CALLS [rest] (sync)</text>
</g>
<!-- SERVICE:cart&#45;&gt;SERVICE:catalog -->
<g id="edge6" class="edge">
<title>SERVICE:cart&#45;&gt;SERVICE:catalog</title>
<g id="a_edge6"><a xlink:title="edge#5">
<path fill="none" stroke="black" d="M300.35,-215.88C337.79,-220.15 408.26,-228.98 467.5,-241.03 478.6,-243.28 490.49,-246.18 501.49,-249.07"/>
<polygon fill="black" stroke="black" points="500.53,-252.44 511.09,-251.65 502.34,-245.68 500.53,-252.44"/>
</a>
</g>
<text text-anchor="middle" x="408.62" y="-245.73" font-family="Times,serif" font-size="14.00">CALLS [rest] (sync)</text>
</g>
<!-- SERVICE:orders&#45;&gt;SERVICE:inventory -->
<g id="edge7" class="edge">
<title>SERVICE:orders&#45;&gt;SERVICE:inventory</title>
<g id="a_edge7"><a xlink:title="edge#6">
<path fill="none" stroke="black" d="M301.95,-104.65C347.61,-113.8 438.5,-132.01 494.8,-143.29"/>
<polygon fill="black" stroke="black" points="493.94,-146.69 504.43,-145.22 495.32,-139.83 493.94,-146.69"/>
</a>
</g>
<text text-anchor="middle" x="408.62" y="-141.73" font-family="Times,serif" font-size="14.00">CALLS [rest] (sync)</text>
</g>
<!-- SERVICE:orders&#45;&gt;DATABASE:shared&#45;db -->
<g id="edge12" class="edge">
<title>SERVICE:orders&#45;&gt;DATABASE:shared&#45;db</title>
<g id="a_edge12"><a xlink:title="edge#11">
<path fill="none" stroke="black" d="M301.94,-96.88C359.19,-93.13 493.29,-87.61 603.25,-108.03 657.57,-118.11 716,-143.55 754.32,-162.44"/>
<polygon fill="black" stroke="black" points="752.72,-165.55 763.23,-166.9 755.85,-159.29 752.72,-165.55"/>
</a>
</g>
<text text-anchor="middle" x="544.38" y="-112.73" font-family="Times,serif" font-size="14.00">CALLS [rest] (sync)</text>
</g>
<!-- SERVICE:orders&#45;&gt;SERVICE:payments -->
<g id="edge8" class="edge">
<title>SERVICE:orders&#45;&gt;SERVICE:payments</title>
<g id="a_edge8"><a xlink:title="edge#7">
<path fill="none" stroke="black" d="M301.83,-85.61C315.94,-79.25 333.48,-71.99 349.75,-67.03 400.75,-51.47 415.45,-55.62 467.5,-44.03 475.89,-42.16 484.76,-40.05 493.37,-37.94"/>
<polygon fill="black" stroke="black" points="494.15,-41.36 503.01,-35.55 492.46,-34.56 494.15,-41.36"/>
</a>
</g>
<text text-anchor="middle" x="408.62" y="-71.73" font-family="Times,serif" font-size="14.00">CALLS [rest] (sync)</text>
</g>
<!-- SERVICE:payments&#45;&gt;SERVICE:orders -->
<g id="edge9" class="edge">
<title>SERVICE:payments&#45;&gt;SERVICE:orders</title>
<g id="a_edge9"><a xlink:title="edge#8">
<path fill="none" stroke="black" d="M504.55,-15.6C464.18,-7.79 399.99,-1 349.75,-22.03 325.72,-32.08 305.44,-53.87 291.91,-71.71"/>
<polygon fill="black" stroke="black" points="289.39,-69.22 286.36,-79.37 295.06,-73.33 289.39,-69.22"/>
</a>
</g>
<text text-anchor="middle" x="408.62" y="-26.73" font-family="Times,serif" font-size="14.00">CALLS [rest] (sync)</text>
</g>
</g>
</svg>
