<?xml version="1.0" encoding="UTF-8" standalone="no"?>
<!DOCTYPE svg PUBLIC "-//W3C//DTD SVG 1.1//EN"
 "http://www.w3.org/Graphics/SVG/1.1/DTD/svg11.dtd">
<!-- Generated by graphviz version 9.0.0 (20230911.1827)
 -->
<!-- Title: G Pages: 1 -->
<svg width="1386pt" height="266pt"
 viewBox="0.00 0.00 1385.50 266.00" xmlns="http://www.w3.org/2000/svg" xmlns:xlink="http://www.w3.org/1999/xlink">
<g id="graph0" class="graph" transform="scale(1 1) rotate(0) translate(4 262)">
<title>G</title>
<polygon fill="white" stroke="none" points="-4,4 -4,-262 1381.5,-262 1381.5,4 -4,4"/>
<text text-anchor="middle" x="688.75" y="-240.7" font-family="Helvetica,sans-Serif" font-size="14.00">Architecture</text>
<!-- SERVICE:web page -->
<g id="node1" class="node">
<title>SERVICE:web page</title>
<path fill="#eef6ff" stroke="black" d="M354.5,-70C354.5,-70 301,-70 301,-70 295,-70 289,-64 289,-58 289,-58 289,-46 289,-46 289,-40 295,-34 301,-34 301,-34 354.5,-34 354.5,-34 360.5,-34 366.5,-40 366.5,-46 366.5,-46 366.5,-58 366.5,-58 366.5,-64 360.5,-70 354.5,-70"/>
<text text-anchor="middle" x="327.75" y="-47.7" font-family="Times,serif" font-size="14.00">web page</text>
</g>
<!-- SERVICE:restaurants -->
<g id="node2" class="node">
<title>SERVICE:restaurants</title>
<path fill="#eef6ff" stroke="black" d="M625.88,-124C625.88,-124 561.12,-124 561.12,-124 555.12,-124 549.12,-118 549.12,-112 549.12,-112 549.12,-100 549.12,-100 549.12,-94 555.12,-88 561.12,-88 561.12,-88 625.88,-88 625.88,-88 631.88,-88 637.88,-94 637.88,-100 637.88,-100 637.88,-112 637.88,-112 637.88,-118 631.88,-124 625.88,-124"/>
<text text-anchor="middle" x="593.5" y="-101.7" font-family="Times,serif" font-size="14.00">restaurants</text>
</g>
<!-- SERVICE:web page&#45;&gt;SERVICE:restaurants -->
<g id="edge3" class="edge">
<title>SERVICE:web page&#45;&gt;SERVICE:restaurants</title>
<g id="a_edge3"><a xlink:title="edge#2">
<path fill="none" stroke="black" d="M366.77,-61.85C372.69,-63.3 378.75,-64.73 384.5,-66 436.3,-77.47 495.77,-88.72 537.82,-96.35"/>
<polygon fill="black" stroke="black" points="536.98,-99.75 547.44,-98.09 538.22,-92.87 536.98,-99.75"/>
</a>
</g>
<text text-anchor="middle" x="443.38" y="-93.7" font-family="Times,serif" font-size="14.00">CALLS [rest] (sync)</text>
</g>
<!-- SERVICE:payments -->
<g id="node3" class="node">
<title>SERVICE:payments</title>
<path fill="#eef6ff" stroke="black" d="M1117.88,-36C1117.88,-36 1062.88,-36 1062.88,-36 1056.88,-36 1050.88,-30 1050.88,-24 1050.88,-24 1050.88,-12 1050.88,-12 1050.88,-6 1056.88,0 1062.88,0 1062.88,0 1117.88,0 1117.88,0 1123.88,0 1129.88,-6 1129.88,-12 1129.88,-12 1129.88,-24 1129.88,-24 1129.88,-30 1123.88,-36 1117.88,-36"/>
<text text-anchor="middle" x="1090.38" y="-13.7" font-family="Times,serif" font-size="14.00">payments</text>
</g>
<!-- SERVICE:web page&#45;&gt;SERVICE:payments -->
<g id="edge4" class="edge">
<title>SERVICE:web page&#45;&gt;SERVICE:payments</title>
<g id="a_edge4"><a xlink:title="edge#3">
<path fill="none" stroke="black" d="M366.88,-49.24C458.16,-42.77 696.45,-26.65 895.75,-20 944.42,-18.38 1000.01,-17.95 1039.1,-17.89"/>
<polygon fill="black" stroke="black" points="1038.91,-21.39 1048.91,-17.88 1038.91,-14.39 1038.91,-21.39"/>
</a>
</g>
<text text-anchor="middle" x="743.62" y="-34.7" font-family="Times,serif" font-size="14.00">CALLS [rest] (sync)</text>
</g>
<!-- SERVICE:database -->
<g id="node4" class="node">
<title>SERVICE:database</title>
<path fill="#eef6ff" stroke="black" d="M1365.5,-90C1365.5,-90 1315,-90 1315,-90 1309,-90 1303,-84 1303,-78 1303,-78 1303,-66 1303,-66 1303,-60 1309,-54 1315,-54 1315,-54 1365.5,-54 1365.5,-54 1371.5,-54 1377.5,-60 1377.5,-66 1377.5,-66 1377.5,-78 1377.5,-78 1377.5,-84 1371.5,-90 1365.5,-90"/>
<text text-anchor="middle" x="1340.25" y="-67.7" font-family="Times,serif" font-size="14.00">database</text>
</g>
<!-- SERVICE:restaurants&#45;&gt;SERVICE:database -->
<g id="edge6" class="edge">
<title>SERVICE:restaurants&#45;&gt;SERVICE:database</title>
<g id="a_edge6"><a xlink:title="edge#5">
<path fill="none" stroke="black" d="M638.33,-105.97C680.43,-105.85 745.82,-105.42 802.5,-104 956.69,-100.15 995.15,-96.52 1149.25,-90 1209.59,-87.45 1225.12,-91.88 1285,-84 1287.15,-83.72 1289.34,-83.39 1291.55,-83.03"/>
<polygon fill="black" stroke="black" points="1291.94,-86.52 1301.15,-81.28 1290.68,-79.63 1291.94,-86.52"/>
</a>
</g>
<text text-anchor="middle" x="954.62" y="-106.7" font-family="Times,serif" font-size="14.00">CALLS [rest] (sync)</text>
</g>
<!-- SERVICE:orders -->
<g id="node8" class="node">
<title>SERVICE:orders</title>
<path fill="#eef6ff" stroke="black" d="M865.75,-80C865.75,-80 832.5,-80 832.5,-80 826.5,-80 820.5,-74 820.5,-68 820.5,-68 820.5,-56 820.5,-56 820.5,-50 826.5,-44 832.5,-44 832.5,-44 865.75,-44 865.75,-44 871.75,-44 877.75,-50 877.75,-56 877.75,-56 877.75,-68 877.75,-68 877.75,-74 871.75,-80 865.75,-80"/>
<text text-anchor="middle" x="849.12" y="-57.7" font-family="Times,serif" font-size="14.00">orders</text>
</g>
<!-- SERVICE:restaurants&#45;&gt;SERVICE:orders -->
<g id="edge8" class="edge">
<title>SERVICE:restaurants&#45;&gt;SERVICE:orders</title>
<g id="a_edge8"><a xlink:title="edge#7">
<path fill="none" stroke="black" d="M637.98,-95.7C652.77,-92.37 669.44,-88.82 684.75,-86 727.12,-78.2 776.05,-71.29 809.23,-66.91"/>
<polygon fill="black" stroke="black" points="809.31,-70.43 818.77,-65.66 808.4,-63.49 809.31,-70.43"/>
</a>
</g>
<text text-anchor="middle" x="743.62" y="-90.7" font-family="Times,serif" font-size="14.00">CALLS [rest] (sync)</text>
</g>
<!-- SERVICE:payments&#45;&gt;SERVICE:database -->
<g id="edge7" class="edge">
<title>SERVICE:payments&#45;&gt;SERVICE:database</title>
<g id="a_edge7"><a xlink:title="edge#6">
<path fill="none" stroke="black" d="M1130.24,-17.7C1170.08,-18.47 1233.35,-22.71 1285,-40 1291.18,-42.07 1297.42,-44.91 1303.36,-48.05"/>
<polygon fill="black" stroke="black" points="1301.27,-50.88 1311.69,-52.78 1304.72,-44.8 1301.27,-50.88"/>
</a>
</g>
<text text-anchor="middle" x="1226.12" y="-44.7" font-family="Times,serif" font-size="14.00">CALLS [rest] (sync)</text>
</g>
<!-- SERVICE:bff -->
<g id="node5" class="node">
<title>SERVICE:bff</title>
<path fill="#eef6ff" stroke="black" d="M342.75,-205C342.75,-205 312.75,-205 312.75,-205 306.75,-205 300.75,-199 300.75,-193 300.75,-193 300.75,-181 300.75,-181 300.75,-175 306.75,-169 312.75,-169 312.75,-169 342.75,-169 342.75,-169 348.75,-169 354.75,-175 354.75,-181 354.75,-181 354.75,-193 354.75,-193 354.75,-199 348.75,-205 342.75,-205"/>
<text text-anchor="middle" x="327.75" y="-182.7" font-family="Times,serif" font-size="14.00">bff</text>
</g>
<!-- SERVICE:service:restaurants -->
<g id="node9" class="node">
<title>SERVICE:service:restaurants</title>
<path fill="#eef6ff" stroke="black" d="M654.75,-232C654.75,-232 532.25,-232 532.25,-232 526.25,-232 520.25,-226 520.25,-220 520.25,-220 520.25,-208 520.25,-208 520.25,-202 526.25,-196 532.25,-196 532.25,-196 654.75,-196 654.75,-196 660.75,-196 666.75,-202 666.75,-208 666.75,-208 666.75,-220 666.75,-220 666.75,-226 660.75,-232 654.75,-232"/>
<text text-anchor="middle" x="593.5" y="-209.7" font-family="Times,serif" font-size="14.00">SERVICE:restaurants</text>
</g>
<!-- SERVICE:bff&#45;&gt;SERVICE:service:restaurants -->
<g id="edge11" class="edge">
<title>SERVICE:bff&#45;&gt;SERVICE:service:restaurants</title>
<g id="a_edge11"><a xlink:title="edge#10">
<path fill="none" stroke="black" d="M355,-189.69C390.58,-193.33 455.77,-200 508.86,-205.44"/>
<polygon fill="black" stroke="black" points="508.18,-208.89 518.48,-206.42 508.89,-201.92 508.18,-208.89"/>
</a>
</g>
<text text-anchor="middle" x="443.38" y="-208.7" font-family="Times,serif" font-size="14.00">CALLS [rest] (sync)</text>
</g>
<!-- SERVICE:service:payments -->
<g id="node10" class="node">
<title>SERVICE:service:payments</title>
<path fill="#eef6ff" stroke="black" d="M649.88,-178C649.88,-178 537.12,-178 537.12,-178 531.12,-178 525.12,-172 525.12,-166 525.12,-166 525.12,-154 525.12,-154 525.12,-148 531.12,-142 537.12,-142 537.12,-142 649.88,-142 649.88,-142 655.88,-142 661.88,-148 661.88,-154 661.88,-154 661.88,-166 661.88,-166 661.88,-172 655.88,-178 649.88,-178"/>
<text text-anchor="middle" x="593.5" y="-155.7" font-family="Times,serif" font-size="14.00">SERVICE:payments</text>
</g>
<!-- SERVICE:bff&#45;&gt;SERVICE:service:payments -->
<g id="edge12" class="edge">
<title>SERVICE:bff&#45;&gt;SERVICE:service:payments</title>
<g id="a_edge12"><a xlink:title="edge#11">
<path fill="none" stroke="black" d="M355.08,-177.51C364.27,-174.59 374.73,-171.7 384.5,-170 426.81,-162.65 474.63,-159.97 513.75,-159.2"/>
<polygon fill="black" stroke="black" points="513.6,-162.71 523.55,-159.05 513.49,-155.71 513.6,-162.71"/>
</a>
</g>
<text text-anchor="middle" x="443.38" y="-174.7" font-family="Times,serif" font-size="14.00">CALLS [rest] (sync)</text>
</g>
<!-- SERVICE:service:web page -->
<g id="node6" class="node">
<title>SERVICE:service:web page</title>
<path fill="#eef6ff" stroke="black" d="M123.25,-205C123.25,-205 12,-205 12,-205 6,-205 0,-199 0,-193 0,-193 0,-181 0,-181 0,-175 6,-169 12,-169 12,-169 123.25,-169 123.25,-169 129.25,-169 135.25,-175 135.25,-181 135.25,-181 135.25,-193 135.25,-193 135.25,-199 129.25,-205 123.25,-205"/>
<text text-anchor="middle" x="67.62" y="-182.7" font-family="Times,serif" font-size="14.00">SERVICE:web page</text>
</g>
<!-- SERVICE:service:web page&#45;&gt;SERVICE:bff -->
<g id="edge10" class="edge">
<title>SERVICE:service:web page&#45;&gt;SERVICE:bff</title>
<g id="a_edge10"><a xlink:title="edge#9">
<path fill="none" stroke="black" d="M135.43,-187C184.27,-187 248.75,-187 288.98,-187"/>
<polygon fill="black" stroke="black" points="288.88,-190.5 298.88,-187 288.88,-183.5 288.88,-190.5"/>
</a>
</g>
<text text-anchor="middle" x="212.12" y="-191.7" font-family="Times,serif" font-size="14.00">CALLS [rest] (sync)</text>
</g>
<!-- SERVICE:user -->
<g id="node7" class="node">
<title>SERVICE:user</title>
<path fill="#eef6ff" stroke="black" d="M82.62,-70C82.62,-70 52.62,-70 52.62,-70 46.62,-70 40.62,-64 40.62,-58 40.62,-58 40.62,-46 40.62,-46 40.62,-40 46.62,-34 52.62,-34 52.62,-34 82.62,-34 82.62,-34 88.62,-34 94.62,-40 94.62,-46 94.62,-46 94.62,-58 94.62,-58 94.62,-64 88.62,-70 82.62,-70"/>
<text text-anchor="middle" x="67.62" y="-47.7" font-family="Times,serif" font-size="14.00">user</text>
</g>
<!-- SERVICE:user&#45;&gt;SERVICE:web page -->
<g id="edge1" class="edge">
<title>SERVICE:user&#45;&gt;SERVICE:web page</title>
<g id="a_edge1"><a xlink:title="edge#0">
<path fill="none" stroke="black" d="M94.8,-52C137.54,-52 223.03,-52 277.43,-52"/>
<polygon fill="black" stroke="black" points="277.36,-55.5 287.36,-52 277.36,-48.5 277.36,-55.5"/>
</a>
</g>
<text text-anchor="middle" x="212.12" y="-56.7" font-family="Times,serif" font-size="14.00">CALLS [rest] (sync)</text>
</g>
<!-- SERVICE:orders&#45;&gt;SERVICE:web page -->
<g id="edge2" class="edge">
<title>SERVICE:orders&#45;&gt;SERVICE:web page</title>
<g id="a_edge2"><a xlink:title="edge#1">
<path fill="none" stroke="black" d="M820.1,-61.46C736.1,-59.84 485.63,-55.02 378.38,-52.96"/>
<polygon fill="black" stroke="black" points="378.52,-49.46 368.45,-52.76 378.38,-56.46 378.52,-49.46"/>
</a>
</g>
<text text-anchor="middle" x="593.5" y="-63.7" font-family="Times,serif" font-size="14.00">CALLS [rest] (sync)</text>
</g>
<!-- SERVICE:orders&#45;&gt;SERVICE:payments -->
<g id="edge9" class="edge">
<title>SERVICE:orders&#45;&gt;SERVICE:payments</title>
<g id="a_edge9"><a xlink:title="edge#8">
<path fill="none" stroke="black" d="M878.02,-46.74C883.75,-44.13 889.84,-41.71 895.75,-40 943.13,-26.31 999.33,-21.08 1038.94,-19.11"/>
<polygon fill="black" stroke="black" points="1039.07,-22.61 1048.91,-18.68 1038.77,-15.62 1039.07,-22.61"/>
</a>
</g>
<text text-anchor="middle" x="954.62" y="-44.7" font-family="Times,serif" font-size="14.00">CALLS [rest] (sync)</text>
</g>
<!-- SERVICE:orders&#45;&gt;SERVICE:database -->
<g id="edge5" class="edge">
<title>SERVICE:orders&#45;&gt;SERVICE:database</title>
<g id="a_edge5"><a xlink:title="edge#4">
<path fill="none" stroke="black" d="M878.18,-62.57C958.53,-64.22 1190.22,-68.95 1291.22,-71.02"/>
<polygon fill="black" stroke="black" points="1291,-74.51 1301.07,-71.22 1291.15,-67.52 1291,-74.51"/>
</a>
</g>
<text text-anchor="middle" x="1090.38" y="-72.7" font-family="Times,serif" font-size="14.00">CALLS [rest] (sync)</text>
</g>
</g>
</svg>
