<?xml version="1.0" encoding="UTF-8" standalone="no"?>
<!DOCTYPE svg PUBLIC "-//W3C//DTD SVG 1.1//EN"
 "http://www.w3.org/Graphics/SVG/1.1/DTD/svg11.dtd">
<!-- Generated by graphviz version 9.0.0 (20230911.1827)
 -->
<!-- Title: G Pages: 1 -->
<svg width="507pt" height="124pt"
 viewBox="0.00 0.00 507.25 124.00" xmlns="http://www.w3.org/2000/svg" xmlns:xlink="http://www.w3.org/1999/xlink">
<g id="graph0" class="graph" transform="scale(1 1) rotate(0) translate(4 120)">
<title>G</title>
<polygon fill="white" stroke="none" points="-4,4 -4,-120 503.25,-120 503.25,4 -4,4"/>
<text text-anchor="middle" x="249.62" y="-98.7" font-family="Helvetica,sans-Serif" font-size="14.00">Architecture</text>
<!-- SERVICE:web -->
<g id="node1" class="node">
<title>SERVICE:web</title>
<path fill="#eef6ff" stroke="black" d="M42,-63C42,-63 12,-63 12,-63 6,-63 0,-57 0,-51 0,-51 0,-39 0,-39 0,-33 6,-27 12,-27 12,-27 42,-27 42,-27 48,-27 54,-33 54,-39 54,-39 54,-51 54,-51 54,-57 48,-63 42,-63"/>
<text text-anchor="middle" x="27" y="-40.7" font-family="Times,serif" font-size="14.00">web</text>
</g>
<!-- SERVICE:auth -->
<g id="node2" class="node">
<title>SERVICE:auth</title>
<path fill="#eef6ff" stroke="black" d="M254.38,-90C254.38,-90 224.38,-90 224.38,-90 218.38,-90 212.38,-84 212.38,-78 212.38,-78 212.38,-66 212.38,-66 212.38,-60 218.38,-54 224.38,-54 224.38,-54 254.38,-54 254.38,-54 260.38,-54 266.38,-60 266.38,-66 266.38,-66 266.38,-78 266.38,-78 266.38,-84 260.38,-90 254.38,-90"/>
<text text-anchor="middle" x="239.38" y="-67.7" font-family="Times,serif" font-size="14.00">auth</text>
</g>
<!-- SERVICE:web&#45;&gt;SERVICE:auth -->
<g id="edge1" class="edge">
<title>SERVICE:web&#45;&gt;SERVICE:auth</title>
<g id="a_edge1"><a xlink:title="edge#0">
<path fill="none" stroke="black" d="M54.22,-48.36C91.17,-53.11 158.75,-61.78 200.97,-67.2"/>
<polygon fill="black" stroke="black" points="200.29,-70.64 210.66,-68.44 201.18,-63.7 200.29,-70.64"/>
</a>
</g>
<text text-anchor="middle" x="130.88" y="-69.7" font-family="Times,serif" font-size="14.00">CALLS [rest] (sync)</text>
</g>
<!-- SERVICE:catalog -->
<g id="node3" class="node">
<title>SERVICE:catalog</title>
<path fill="#eef6ff" stroke="black" d="M259,-36C259,-36 219.75,-36 219.75,-36 213.75,-36 207.75,-30 207.75,-24 207.75,-24 207.75,-12 207.75,-12 207.75,-6 213.75,0 219.75,0 219.75,0 259,0 259,0 265,0 271,-6 271,-12 271,-12 271,-24 271,-24 271,-30 265,-36 259,-36"/>
<text text-anchor="middle" x="239.38" y="-13.7" font-family="Times,serif" font-size="14.00">catalog</text>
</g>
<!-- SERVICE:web&#45;&gt;SERVICE:catalog -->
<g id="edge2" class="edge">
<title>SERVICE:web&#45;&gt;SERVICE:catalog</title>
<g id="a_edge2"><a xlink:title="edge#1">
<path fill="none" stroke="black" d="M54.12,-33.39C59.9,-31.25 66.08,-29.29 72,-28 113.48,-18.97 162.06,-17.01 195.97,-16.97"/>
<polygon fill="black" stroke="black" points="195.79,-20.47 205.81,-17.03 195.83,-13.47 195.79,-20.47"/>
</a>
</g>
<text text-anchor="middle" x="130.88" y="-32.7" font-family="Times,serif" font-size="14.00">CALLS [rest] (sync)</text>
</g>
<!-- DATABASE:database -->
<g id="node4" class="node">
<title>DATABASE:database</title>
<path fill="#fff3cd" stroke="black" d="M499.25,-32.73C499.25,-34.53 482.55,-36 462,-36 441.45,-36 424.75,-34.53 424.75,-32.73 424.75,-32.73 424.75,-3.27 424.75,-3.27 424.75,-1.47 441.45,0 462,0 482.55,0 499.25,-1.47 499.25,-3.27 499.25,-3.27 499.25,-32.73 499.25,-32.73"/>
<path fill="none" stroke="black" d="M499.25,-32.73C499.25,-30.92 482.55,-29.45 462,-29.45 441.45,-29.45 424.75,-30.92 424.75,-32.73"/>
<text text-anchor="middle" x="462" y="-13.7" font-family="Times,serif" font-size="14.00">database</text>
</g>
<!-- SERVICE:catalog&#45;&gt;DATABASE:database -->
<g id="edge3" class="edge">
<title>SERVICE:catalog&#45;&gt;DATABASE:database</title>
<g id="a_edge3"><a xlink:title="edge#2">
<path fill="none" stroke="black" d="M271.05,-18C307.82,-18 369.86,-18 412.99,-18"/>
<polygon fill="black" stroke="black" points="412.83,-21.5 422.83,-18 412.83,-14.5 412.83,-21.5"/>
</a>
</g>
<text text-anchor="middle" x="347.88" y="-22.7" font-family="Times,serif" font-size="14.00">CALLS [rest] (sync)</text>
</g>
</g>
</svg>
