<?xml version="1.0" encoding="UTF-8" standalone="no"?>
<!DOCTYPE svg PUBLIC "-//W3C//DTD SVG 1.1//EN"
 "http://www.w3.org/Graphics/SVG/1.1/DTD/svg11.dtd">
<!-- Generated by graphviz version 9.0.0 (20230911.1827)
 -->
<!-- Title: G Pages: 1 -->
<svg width="1069pt" height="121pt"
 viewBox="0.00 0.00 1069.00 121.00" xmlns="http://www.w3.org/2000/svg" xmlns:xlink="http://www.w3.org/1999/xlink">
<g id="graph0" class="graph" transform="scale(1 1) rotate(0) translate(4 117)">
<title>G</title>
<polygon fill="white" stroke="none" points="-4,4 -4,-117 1065,-117 1065,4 -4,4"/>
<text text-anchor="middle" x="530.5" y="-95.7" font-family="Helvetica,sans-Serif" font-size="14.00">Architecture</text>
<!-- SERVICE:profile -->
<g id="node1" class="node">
<title>SERVICE:profile</title>
<path fill="#eef6ff" stroke="black" d="M491,-78C491,-78 457.75,-78 457.75,-78 451.75,-78 445.75,-72 445.75,-66 445.75,-66 445.75,-54 445.75,-54 445.75,-48 451.75,-42 457.75,-42 457.75,-42 491,-42 491,-42 497,-42 503,-48 503,-54 503,-54 503,-66 503,-66 503,-72 497,-78 491,-78"/>
<text text-anchor="middle" x="474.38" y="-55.7" font-family="Times,serif" font-size="14.00">profile</text>
</g>
<!-- SERVICE:recommendations -->
<g id="node2" class="node">
<title>SERVICE:recommendations</title>
<path fill="#eef6ff" stroke="black" d="M815.5,-36C815.5,-36 706.5,-36 706.5,-36 700.5,-36 694.5,-30 694.5,-24 694.5,-24 694.5,-12 694.5,-12 694.5,-6 700.5,0 706.5,0 706.5,0 815.5,0 815.5,0 821.5,0 827.5,-6 827.5,-12 827.5,-12 827.5,-24 827.5,-24 827.5,-30 821.5,-36 815.5,-36"/>
<text text-anchor="middle" x="761" y="-13.7" font-family="Times,serif" font-size="14.00">recommendations</text>
</g>
<!-- SERVICE:profile&#45;&gt;SERVICE:recommendations -->
<g id="edge1" class="edge">
<title>SERVICE:profile&#45;&gt;SERVICE:recommendations</title>
<g id="a_edge1"><a xlink:title="edge#0">
<path fill="none" stroke="black" d="M503.25,-51.56C517.49,-47.53 535.17,-42.95 551.25,-40 594.48,-32.07 643.3,-26.73 682.86,-23.3"/>
<polygon fill="black" stroke="black" points="683.11,-26.79 692.78,-22.47 682.52,-19.82 683.11,-26.79"/>
</a>
</g>
<text text-anchor="middle" x="613.88" y="-44.7" font-family="Times,serif" font-size="14.00">CALLS [rest] (async)</text>
</g>
<!-- DATABASE:profile&#45;db -->
<g id="node3" class="node">
<title>DATABASE:profile&#45;db</title>
<path fill="#fff3cd" stroke="black" d="M1061,-59.73C1061,-61.53 1043.13,-63 1021.12,-63 999.12,-63 981.25,-61.53 981.25,-59.73 981.25,-59.73 981.25,-30.27 981.25,-30.27 981.25,-28.47 999.12,-27 1021.12,-27 1043.13,-27 1061,-28.47 1061,-30.27 1061,-30.27 1061,-59.73 1061,-59.73"/>
<path fill="none" stroke="black" d="M1061,-59.73C1061,-57.92 1043.13,-56.45 1021.12,-56.45 999.12,-56.45 981.25,-57.92 981.25,-59.73"/>
<text text-anchor="middle" x="1021.12" y="-40.7" font-family="Times,serif" font-size="14.00">profile&#45;db</text>
</g>
<!-- SERVICE:profile&#45;&gt;DATABASE:profile&#45;db -->
<g id="edge2" class="edge">
<title>SERVICE:profile&#45;&gt;DATABASE:profile&#45;db</title>
<g id="a_edge2"><a xlink:title="edge#1">
<path fill="none" stroke="black" d="M503.28,-62.03C578.1,-67 789.27,-77.99 963.25,-58 965.31,-57.76 967.41,-57.48 969.52,-57.16"/>
<polygon fill="black" stroke="black" points="970.12,-60.61 979.36,-55.42 968.9,-53.72 970.12,-60.61"/>
</a>
</g>
<text text-anchor="middle" x="761" y="-73.7" font-family="Times,serif" font-size="14.00">CALLS [rest] (sync)</text>
</g>
<!-- SERVICE:recommendations&#45;&gt;DATABASE:profile&#45;db -->
<g id="edge3" class="edge">
<title>SERVICE:recommendations&#45;&gt;DATABASE:profile&#45;db</title>
<g id="a_edge3"><a xlink:title="edge#2">
<path fill="none" stroke="black" d="M827.8,-24.88C871.95,-29.5 929.2,-35.49 969.73,-39.73"/>
<polygon fill="black" stroke="black" points="969.14,-43.19 979.45,-40.75 969.87,-36.22 969.14,-43.19"/>
</a>
</g>
<text text-anchor="middle" x="904.38" y="-42.7" font-family="Times,serif" font-size="14.00">CALLS [rest] (sync)</text>
</g>
<!-- SERVICE:bff -->
<g id="node4" class="node">
<title>SERVICE:bff</title>
<path fill="#eef6ff" stroke="black" d="M249.75,-40C249.75,-40 219.75,-40 219.75,-40 213.75,-40 207.75,-34 207.75,-28 207.75,-28 207.75,-16 207.75,-16 207.75,-10 213.75,-4 219.75,-4 219.75,-4 249.75,-4 249.75,-4 255.75,-4 261.75,-10 261.75,-16 261.75,-16 261.75,-28 261.75,-28 261.75,-34 255.75,-40 249.75,-40"/>
<text text-anchor="middle" x="234.75" y="-17.7" font-family="Times,serif" font-size="14.00">bff</text>
</g>
<!-- SERVICE:bff&#45;&gt;SERVICE:profile -->
<g id="edge5" class="edge">
<title>SERVICE:bff&#45;&gt;SERVICE:profile</title>
<g id="a_edge5"><a xlink:title="edge#4">
<path fill="none" stroke="black" d="M262.09,-26.21C303.84,-32.89 385.46,-45.94 434.13,-53.72"/>
<polygon fill="black" stroke="black" points="433.53,-57.17 443.96,-55.3 434.63,-50.26 433.53,-57.17"/>
</a>
</g>
<text text-anchor="middle" x="338.62" y="-51.7" font-family="Times,serif" font-size="14.00">CALLS [rest] (sync)</text>
</g>
<!-- SERVICE:bff&#45;&gt;SERVICE:recommendations -->
<g id="edge6" class="edge">
<title>SERVICE:bff&#45;&gt;SERVICE:recommendations</title>
<g id="a_edge6"><a xlink:title="edge#5">
<path fill="none" stroke="black" d="M262.24,-20.65C297.29,-18.93 361.01,-16.06 415.5,-15 507.41,-13.21 613.13,-14.65 682.95,-16.09"/>
<polygon fill="black" stroke="black" points="682.69,-19.58 692.76,-16.3 682.83,-12.59 682.69,-19.58"/>
</a>
</g>
<text text-anchor="middle" x="474.38" y="-19.7" font-family="Times,serif" font-size="14.00">CALLS [rest] (sync)</text>
</g>
<!-- SERVICE:ui -->
<g id="node5" class="node">
<title>SERVICE:ui</title>
<path fill="#eef6ff" stroke="black" d="M42,-40C42,-40 12,-40 12,-40 6,-40 0,-34 0,-28 0,-28 0,-16 0,-16 0,-10 6,-4 12,-4 12,-4 42,-4 42,-4 48,-4 54,-10 54,-16 54,-16 54,-28 54,-28 54,-34 48,-40 42,-40"/>
<text text-anchor="middle" x="27" y="-17.7" font-family="Times,serif" font-size="14.00">ui</text>
</g>
<!-- SERVICE:ui&#45;&gt;SERVICE:bff -->
<g id="edge4" class="edge">
<title>SERVICE:ui&#45;&gt;SERVICE:bff</title>
<g id="a_edge4"><a xlink:title="edge#3">
<path fill="none" stroke="black" d="M54.48,-22C90.43,-22 154.92,-22 195.96,-22"/>
<polygon fill="black" stroke="black" points="195.86,-25.5 205.86,-22 195.86,-18.5 195.86,-25.5"/>
</a>
</g>
<text text-anchor="middle" x="130.88" y="-26.7" font-family="Times,serif" font-size="14.00">CALLS [rest] (sync)</text>
</g>
</g>
</svg>
