<?xml version="1.0" encoding="UTF-8" standalone="no"?>
<!DOCTYPE svg PUBLIC "-//W3C//DTD SVG 1.1//EN"
 "http://www.w3.org/Graphics/SVG/1.1/DTD/svg11.dtd">
<!-- Generated by graphviz version 9.0.0 (20230911.1827)
 -->
<!-- Title: G Pages: 1 -->
<svg width="863pt" height="448pt"
 viewBox="0.00 0.00 862.50 448.00" xmlns="http://www.w3.org/2000/svg" xmlns:xlink="http://www.w3.org/1999/xlink">
<g id="graph0" class="graph" transform="scale(1 1) rotate(0) translate(4 444)">
<title>G</title>
<polygon fill="white" stroke="none" points="-4,4 -4,-444 858.5,-444 858.5,4 -4,4"/>
<text text-anchor="middle" x="427.25" y="-422.7" font-family="Helvetica,sans-Serif" font-size="14.00">Architecture</text>
<!-- SERVICE:notifications -->
<g id="node1" class="node">
<title>SERVICE:notifications</title>
<path fill="#eef6ff" stroke="black" d="M92.12,-144C92.12,-144 19.88,-144 19.88,-144 13.88,-144 7.88,-138 7.88,-132 7.88,-132 7.88,-120 7.88,-120 7.88,-114 13.88,-108 19.88,-108 19.88,-108 92.12,-108 92.12,-108 98.12,-108 104.12,-114 104.12,-120 104.12,-120 104.12,-132 104.12,-132 104.12,-138 98.12,-144 92.12,-144"/>
<text text-anchor="middle" x="56" y="-121.7" font-family="Times,serif" font-size="14.00">notifications</text>
</g>
<!-- DATABASE:user&#45;db -->
<g id="node2" class="node">
<title>DATABASE:user&#45;db</title>
<path fill="#fff3cd" stroke="black" d="M333.88,-86.73C333.88,-88.53 319.2,-90 301.12,-90 283.05,-90 268.38,-88.53 268.38,-86.73 268.38,-86.73 268.38,-57.27 268.38,-57.27 268.38,-55.47 283.05,-54 301.12,-54 319.2,-54 333.88,-55.47 333.88,-57.27 333.88,-57.27 333.88,-86.73 333.88,-86.73"/>
<path fill="none" stroke="black" d="M333.88,-86.73C333.88,-84.92 319.2,-83.45 301.12,-83.45 283.05,-83.45 268.38,-84.92 268.38,-86.73"/>
<text text-anchor="middle" x="301.12" y="-67.7" font-family="Times,serif" font-size="14.00">user&#45;db</text>
</g>
<!-- SERVICE:notifications&#45;&gt;DATABASE:user&#45;db -->
<g id="edge13" class="edge">
<title>SERVICE:notifications&#45;&gt;DATABASE:user&#45;db</title>
<g id="a_edge13"><a xlink:title="edge#12">
<path fill="none" stroke="black" d="M104.32,-121.15C143.34,-116.42 199.85,-107.87 247.75,-94 251.01,-93.06 254.34,-91.97 257.66,-90.79"/>
<polygon fill="black" stroke="black" points="258.62,-94.17 266.72,-87.35 256.13,-87.63 258.62,-94.17"/>
</a>
</g>
<text text-anchor="middle" x="188.88" y="-121.7" font-family="Times,serif" font-size="14.00">CALLS [rest] (sync)</text>
</g>
<!-- SERVICE:pricing -->
<g id="node3" class="node">
<title>SERVICE:pricing</title>
<path fill="#eef6ff" stroke="black" d="M74.12,-198C74.12,-198 37.88,-198 37.88,-198 31.88,-198 25.88,-192 25.88,-186 25.88,-186 25.88,-174 25.88,-174 25.88,-168 31.88,-162 37.88,-162 37.88,-162 74.12,-162 74.12,-162 80.12,-162 86.12,-168 86.12,-174 86.12,-174 86.12,-186 86.12,-186 86.12,-192 80.12,-198 74.12,-198"/>
<text text-anchor="middle" x="56" y="-175.7" font-family="Times,serif" font-size="14.00">pricing</text>
</g>
<!-- SERVICE:discount -->
<g id="node12" class="node">
<title>SERVICE:discount</title>
<path fill="#eef6ff" stroke="black" d="M324.5,-198C324.5,-198 277.75,-198 277.75,-198 271.75,-198 265.75,-192 265.75,-186 265.75,-186 265.75,-174 265.75,-174 265.75,-168 271.75,-162 277.75,-162 277.75,-162 324.5,-162 324.5,-162 330.5,-162 336.5,-168 336.5,-174 336.5,-174 336.5,-186 336.5,-186 336.5,-192 330.5,-198 324.5,-198"/>
<text text-anchor="middle" x="301.12" y="-175.7" font-family="Times,serif" font-size="14.00">discount</text>
</g>
<!-- SERVICE:pricing&#45;&gt;SERVICE:discount -->
<g id="edge1" class="edge">
<title>SERVICE:pricing&#45;&gt;SERVICE:discount</title>
<g id="a_edge1"><a xlink:title="edge#0">
<path fill="none" stroke="black" d="M86.33,-180C128.07,-180 205.01,-180 254.31,-180"/>
<polygon fill="black" stroke="black" points="254.09,-183.5 264.09,-180 254.09,-176.5 254.09,-183.5"/>
</a>
</g>
<text text-anchor="middle" x="188.88" y="-184.7" font-family="Times,serif" font-size="14.00">CALLS [rest] (sync)</text>
</g>
<!-- SERVICE:scheduler -->
<g id="node4" class="node">
<title>SERVICE:scheduler</title>
<path fill="#eef6ff" stroke="black" d="M82.75,-357C82.75,-357 29.25,-357 29.25,-357 23.25,-357 17.25,-351 17.25,-345 17.25,-345 17.25,-333 17.25,-333 17.25,-327 23.25,-321 29.25,-321 29.25,-321 82.75,-321 82.75,-321 88.75,-321 94.75,-327 94.75,-333 94.75,-333 94.75,-345 94.75,-345 94.75,-351 88.75,-357 82.75,-357"/>
<text text-anchor="middle" x="56" y="-334.7" font-family="Times,serif" font-size="14.00">scheduler</text>
</g>
<!-- SERVICE:ops&#45;hub -->
<g id="node5" class="node">
<title>SERVICE:ops&#45;hub</title>
<path fill="#eef6ff" stroke="black" d="M323.75,-330C323.75,-330 278.5,-330 278.5,-330 272.5,-330 266.5,-324 266.5,-318 266.5,-318 266.5,-306 266.5,-306 266.5,-300 272.5,-294 278.5,-294 278.5,-294 323.75,-294 323.75,-294 329.75,-294 335.75,-300 335.75,-306 335.75,-306 335.75,-318 335.75,-318 335.75,-324 329.75,-330 323.75,-330"/>
<text text-anchor="middle" x="301.12" y="-307.7" font-family="Times,serif" font-size="14.00">ops&#45;hub</text>
</g>
<!-- SERVICE:scheduler&#45;&gt;SERVICE:ops&#45;hub -->
<g id="edge3" class="edge">
<title>SERVICE:scheduler&#45;&gt;SERVICE:ops&#45;hub</title>
<g id="a_edge3"><a xlink:title="edge#2">
<path fill="none" stroke="black" d="M94.99,-334.78C138.23,-329.98 208.83,-322.14 254.88,-317.02"/>
<polygon fill="black" stroke="black" points="255.26,-320.5 264.82,-315.92 254.49,-313.55 255.26,-320.5"/>
</a>
</g>
<text text-anchor="middle" x="188.88" y="-334.7" font-family="Times,serif" font-size="14.00">CALLS [rest] (sync)</text>
</g>
<!-- SERVICE:sms&#45;gateway -->
<g id="node9" class="node">
<title>SERVICE:sms&#45;gateway</title>
<path fill="#eef6ff" stroke="black" d="M581.25,-414C581.25,-414 503,-414 503,-414 497,-414 491,-408 491,-402 491,-402 491,-390 491,-390 491,-384 497,-378 503,-378 503,-378 581.25,-378 581.25,-378 587.25,-378 593.25,-384 593.25,-390 593.25,-390 593.25,-402 593.25,-402 593.25,-408 587.25,-414 581.25,-414"/>
<text text-anchor="middle" x="542.12" y="-391.7" font-family="Times,serif" font-size="14.00">sms&#45;gateway</text>
</g>
<!-- SERVICE:ops&#45;hub&#45;&gt;SERVICE:sms&#45;gateway -->
<g id="edge6" class="edge">
<title>SERVICE:ops&#45;hub&#45;&gt;SERVICE:sms&#45;gateway</title>
<g id="a_edge6"><a xlink:title="edge#5">
<path fill="none" stroke="black" d="M320.01,-330.29C329.5,-339 341.8,-348.84 354.5,-355 393.72,-374.03 441.85,-384.33 479.4,-389.84"/>
<polygon fill="black" stroke="black" points="478.82,-393.29 489.2,-391.2 479.77,-386.36 478.82,-393.29"/>
</a>
</g>
<text text-anchor="middle" x="413.38" y="-392.7" font-family="Times,serif" font-size="14.00">CALLS [rest] (sync)</text>
</g>
<!-- SERVICE:ops&#45;hub_split -->
<g id="node11" class="node">
<title>SERVICE:ops&#45;hub_split</title>
<path fill="#eef6ff" stroke="black" d="M582,-360C582,-360 502.25,-360 502.25,-360 496.25,-360 490.25,-354 490.25,-348 490.25,-348 490.25,-336 490.25,-336 490.25,-330 496.25,-324 502.25,-324 502.25,-324 582,-324 582,-324 588,-324 594,-330 594,-336 594,-336 594,-348 594,-348 594,-354 588,-360 582,-360"/>
<text text-anchor="middle" x="542.12" y="-337.7" font-family="Times,serif" font-size="14.00">ops&#45;hub_split</text>
</g>
<!-- SERVICE:ops&#45;hub&#45;&gt;SERVICE:ops&#45;hub_split -->
<g id="edge14" class="edge">
<title>SERVICE:ops&#45;hub&#45;&gt;SERVICE:ops&#45;hub_split</title>
<g id="a_edge14"><a xlink:title="edge#13">
<path fill="none" stroke="black" d="M336.11,-316.27C373.18,-320.92 433.3,-328.47 478.87,-334.19"/>
<polygon fill="black" stroke="black" points="478.26,-337.64 488.62,-335.41 479.14,-330.69 478.26,-337.64"/>
</a>
</g>
<text text-anchor="middle" x="413.38" y="-337.7" font-family="Times,serif" font-size="14.00">CALLS [rest] (sync)</text>
</g>
<!-- SERVICE:emailer -->
<g id="node15" class="node">
<title>SERVICE:emailer</title>
<path fill="#eef6ff" stroke="black" d="M562.12,-306C562.12,-306 522.12,-306 522.12,-306 516.12,-306 510.12,-300 510.12,-294 510.12,-294 510.12,-282 510.12,-282 510.12,-276 516.12,-270 522.12,-270 522.12,-270 562.12,-270 562.12,-270 568.12,-270 574.12,-276 574.12,-282 574.12,-282 574.12,-294 574.12,-294 574.12,-300 568.12,-306 562.12,-306"/>
<text text-anchor="middle" x="542.12" y="-283.7" font-family="Times,serif" font-size="14.00">emailer</text>
</g>
<!-- SERVICE:ops&#45;hub&#45;&gt;SERVICE:emailer -->
<g id="edge5" class="edge">
<title>SERVICE:ops&#45;hub&#45;&gt;SERVICE:emailer</title>
<g id="a_edge5"><a xlink:title="edge#4">
<path fill="none" stroke="black" d="M336.2,-300.23C342.23,-298.54 348.5,-297.03 354.5,-296 403.46,-287.61 460.63,-286.4 498.67,-286.78"/>
<polygon fill="black" stroke="black" points="498.27,-290.27 508.32,-286.92 498.37,-283.27 498.27,-290.27"/>
</a>
</g>
<text text-anchor="middle" x="413.38" y="-300.7" font-family="Times,serif" font-size="14.00">CALLS [rest] (sync)</text>
</g>
<!-- SERVICE:audit&#45;log -->
<g id="node16" class="node">
<title>SERVICE:audit&#45;log</title>
<path fill="#eef6ff" stroke="black" d="M567.38,-252C567.38,-252 516.88,-252 516.88,-252 510.88,-252 504.88,-246 504.88,-240 504.88,-240 504.88,-228 504.88,-228 504.88,-222 510.88,-216 516.88,-216 516.88,-216 567.38,-216 567.38,-216 573.38,-216 579.38,-222 579.38,-228 579.38,-228 579.38,-240 579.38,-240 579.38,-246 573.38,-252 567.38,-252"/>
<text text-anchor="middle" x="542.12" y="-229.7" font-family="Times,serif" font-size="14.00">audit&#45;log</text>
</g>
<!-- SERVICE:ops&#45;hub&#45;&gt;SERVICE:audit&#45;log -->
<g id="edge7" class="edge">
<title>SERVICE:ops&#45;hub&#45;&gt;SERVICE:audit&#45;log</title>
<g id="a_edge7"><a xlink:title="edge#6">
<path fill="none" stroke="black" d="M317.21,-293.64C326.79,-283.25 340.07,-270.98 354.5,-264 398.36,-242.78 454.13,-236.08 493.24,-234.2"/>
<polygon fill="black" stroke="black" points="493.18,-237.71 503.04,-233.83 492.91,-230.71 493.18,-237.71"/>
</a>
</g>
<text text-anchor="middle" x="413.38" y="-268.7" font-family="Times,serif" font-size="14.00">CALLS [rest] (sync)</text>
</g>
<!-- SERVICE:metrics&#45;agent -->
<g id="node6" class="node">
<title>SERVICE:metrics&#45;agent</title>
<path fill="#eef6ff" stroke="black" d="M842.5,-414C842.5,-414 759.75,-414 759.75,-414 753.75,-414 747.75,-408 747.75,-402 747.75,-402 747.75,-390 747.75,-390 747.75,-384 753.75,-378 759.75,-378 759.75,-378 842.5,-378 842.5,-378 848.5,-378 854.5,-384 854.5,-390 854.5,-390 854.5,-402 854.5,-402 854.5,-408 848.5,-414 842.5,-414"/>
<text text-anchor="middle" x="801.12" y="-391.7" font-family="Times,serif" font-size="14.00">metrics&#45;agent</text>
</g>
<!-- SERVICE:tax -->
<g id="node7" class="node">
<title>SERVICE:tax</title>
<path fill="#eef6ff" stroke="black" d="M557.12,-198C557.12,-198 527.12,-198 527.12,-198 521.12,-198 515.12,-192 515.12,-186 515.12,-186 515.12,-174 515.12,-174 515.12,-168 521.12,-162 527.12,-162 527.12,-162 557.12,-162 557.12,-162 563.12,-162 569.12,-168 569.12,-174 569.12,-174 569.12,-186 569.12,-186 569.12,-192 563.12,-198 557.12,-198"/>
<text text-anchor="middle" x="542.12" y="-175.7" font-family="Times,serif" font-size="14.00">tax</text>
</g>
<!-- SERVICE:admin&#45;console -->
<g id="node8" class="node">
<title>SERVICE:admin&#45;console</title>
<path fill="#eef6ff" stroke="black" d="M100,-303C100,-303 12,-303 12,-303 6,-303 0,-297 0,-291 0,-291 0,-279 0,-279 0,-273 6,-267 12,-267 12,-267 100,-267 100,-267 106,-267 112,-273 112,-279 112,-279 112,-291 112,-291 112,-297 106,-303 100,-303"/>
<text text-anchor="middle" x="56" y="-280.7" font-family="Times,serif" font-size="14.00">admin&#45;console</text>
</g>
<!-- SERVICE:admin&#45;console&#45;&gt;SERVICE:ops&#45;hub -->
<g id="edge4" class="edge">
<title>SERVICE:admin&#45;console&#45;&gt;SERVICE:ops&#45;hub</title>
<g id="a_edge4"><a xlink:title="edge#3">
<path fill="none" stroke="black" d="M112.12,-284.1C150.46,-284.4 202.59,-286.64 247.75,-295 250.19,-295.45 252.68,-295.99 255.18,-296.59"/>
<polygon fill="black" stroke="black" points="254.06,-299.91 264.62,-299.14 255.89,-293.15 254.06,-299.91"/>
</a>
</g>
<text text-anchor="middle" x="188.88" y="-299.7" font-family="Times,serif" font-size="14.00">CALLS [rest] (sync)</text>
</g>
<!-- SERVICE:user&#45;profile -->
<g id="node10" class="node">
<title>SERVICE:user&#45;profile</title>
<path fill="#eef6ff" stroke="black" d="M89.12,-90C89.12,-90 22.88,-90 22.88,-90 16.88,-90 10.88,-84 10.88,-78 10.88,-78 10.88,-66 10.88,-66 10.88,-60 16.88,-54 22.88,-54 22.88,-54 89.12,-54 89.12,-54 95.12,-54 101.12,-60 101.12,-66 101.12,-66 101.12,-78 101.12,-78 101.12,-84 95.12,-90 89.12,-90"/>
<text text-anchor="middle" x="56" y="-67.7" font-family="Times,serif" font-size="14.00">user&#45;profile</text>
</g>
<!-- SERVICE:user&#45;profile&#45;&gt;DATABASE:user&#45;db -->
<g id="edge11" class="edge">
<title>SERVICE:user&#45;profile&#45;&gt;DATABASE:user&#45;db</title>
<g id="a_edge11"><a xlink:title="edge#10">
<path fill="none" stroke="black" d="M101.59,-72C145.79,-72 213.06,-72 256.81,-72"/>
<polygon fill="black" stroke="black" points="256.7,-75.5 266.7,-72 256.7,-68.5 256.7,-75.5"/>
</a>
</g>
<text text-anchor="middle" x="188.88" y="-76.7" font-family="Times,serif" font-size="14.00">CALLS [rest] (sync)</text>
</g>
<!-- SERVICE:ops&#45;hub_split&#45;&gt;SERVICE:metrics&#45;agent -->
<g id="edge9" class="edge">
<title>SERVICE:ops&#45;hub_split&#45;&gt;SERVICE:metrics&#45;agent</title>
<g id="a_edge9"><a xlink:title="edge#8">
<path fill="none" stroke="black" d="M594.43,-359.26C600.32,-360.98 606.27,-362.6 612,-364 652.99,-373.98 699.74,-381.95 736.39,-387.44"/>
<polygon fill="black" stroke="black" points="735.51,-390.85 745.92,-388.84 736.53,-383.92 735.51,-390.85"/>
</a>
</g>
<text text-anchor="middle" x="670.88" y="-390.7" font-family="Times,serif" font-size="14.00">CALLS [rest] (sync)</text>
</g>
<!-- SERVICE:cache&#45;proxy -->
<g id="node13" class="node">
<title>SERVICE:cache&#45;proxy</title>
<path fill="#eef6ff" stroke="black" d="M836.12,-360C836.12,-360 766.12,-360 766.12,-360 760.12,-360 754.12,-354 754.12,-348 754.12,-348 754.12,-336 754.12,-336 754.12,-330 760.12,-324 766.12,-324 766.12,-324 836.12,-324 836.12,-324 842.12,-324 848.12,-330 848.12,-336 848.12,-336 848.12,-348 848.12,-348 848.12,-354 842.12,-360 836.12,-360"/>
<text text-anchor="middle" x="801.12" y="-337.7" font-family="Times,serif" font-size="14.00">cache&#45;proxy</text>
</g>
<!-- SERVICE:ops&#45;hub_split&#45;&gt;SERVICE:cache&#45;proxy -->
<g id="edge8" class="edge">
<title>SERVICE:ops&#45;hub_split&#45;&gt;SERVICE:cache&#45;proxy</title>
<g id="a_edge8"><a xlink:title="edge#7">
<path fill="none" stroke="black" d="M594.21,-342C636.94,-342 697.88,-342 742.38,-342"/>
<polygon fill="black" stroke="black" points="742.37,-345.5 752.37,-342 742.37,-338.5 742.37,-345.5"/>
</a>
</g>
<text text-anchor="middle" x="670.88" y="-346.7" font-family="Times,serif" font-size="14.00">CALLS [rest] (sync)</text>
</g>
<!-- SERVICE:report&#45;export -->
<g id="node14" class="node">
<title>SERVICE:report&#45;export</title>
<path fill="#eef6ff" stroke="black" d="M840.62,-306C840.62,-306 761.62,-306 761.62,-306 755.62,-306 749.62,-300 749.62,-294 749.62,-294 749.62,-282 749.62,-282 749.62,-276 755.62,-270 761.62,-270 761.62,-270 840.62,-270 840.62,-270 846.62,-270 852.62,-276 852.62,-282 852.62,-282 852.62,-294 852.62,-294 852.62,-300 846.62,-306 840.62,-306"/>
<text text-anchor="middle" x="801.12" y="-283.7" font-family="Times,serif" font-size="14.00">report&#45;export</text>
</g>
<!-- SERVICE:ops&#45;hub_split&#45;&gt;SERVICE:report&#45;export -->
<g id="edge10" class="edge">
<title>SERVICE:ops&#45;hub_split&#45;&gt;SERVICE:report&#45;export</title>
<g id="a_edge10"><a xlink:title="edge#9">
<path fill="none" stroke="black" d="M594.43,-324.74C600.32,-323.02 606.27,-321.4 612,-320 653.72,-309.84 701.41,-301.77 738.33,-296.27"/>
<polygon fill="black" stroke="black" points="738.54,-299.78 747.93,-294.87 737.53,-292.85 738.54,-299.78"/>
</a>
</g>
<text text-anchor="middle" x="670.88" y="-324.7" font-family="Times,serif" font-size="14.00">CALLS [rest] (sync)</text>
</g>
<!-- SERVICE:discount&#45;&gt;SERVICE:tax -->
<g id="edge2" class="edge">
<title>SERVICE:discount&#45;&gt;SERVICE:tax</title>
<g id="a_edge2"><a xlink:title="edge#1">
<path fill="none" stroke="black" d="M336.88,-180C381.21,-180 457.59,-180 503.33,-180"/>
<polygon fill="black" stroke="black" points="503.3,-183.5 513.3,-180 503.3,-176.5 503.3,-183.5"/>
</a>
</g>
<text text-anchor="middle" x="413.38" y="-184.7" font-family="Times,serif" font-size="14.00">CALLS [rest] (sync)</text>
</g>
<!-- SERVICE:preferences -->
<g id="node17" class="node">
<title>SERVICE:preferences</title>
<path fill="#eef6ff" stroke="black" d="M89.5,-36C89.5,-36 22.5,-36 22.5,-36 16.5,-36 10.5,-30 10.5,-24 10.5,-24 10.5,-12 10.5,-12 10.5,-6 16.5,0 22.5,0 22.5,0 89.5,0 89.5,0 95.5,0 101.5,-6 101.5,-12 101.5,-12 101.5,-24 101.5,-24 101.5,-30 95.5,-36 89.5,-36"/>
<text text-anchor="middle" x="56" y="-13.7" font-family="Times,serif" font-size="14.00">preferences</text>
</g>
<!-- SERVICE:preferences&#45;&gt;DATABASE:user&#45;db -->
<g id="edge12" class="edge">
<title>SERVICE:preferences&#45;&gt;DATABASE:user&#45;db</title>
<g id="a_edge12"><a xlink:title="edge#11">
<path fill="none" stroke="black" d="M101.98,-22.57C141.05,-27.24 198.89,-35.85 247.75,-50 251.01,-50.94 254.34,-52.03 257.66,-53.21"/>
<polygon fill="black" stroke="black" points="256.13,-56.37 266.72,-56.65 258.62,-49.83 256.13,-56.37"/>
</a>
</g>
<text text-anchor="middle" x="188.88" y="-54.7" font-family="Times,serif" font-size="14.00">CALLS [rest] (sync)</text>
</g>
</g>
</svg>
