<?xml version="1.0" encoding="UTF-8" standalone="no"?>
<!DOCTYPE svg PUBLIC "-//W3C//DTD SVG 1.1//EN"
 "http://www.w3.org/Graphics/SVG/1.1/DTD/svg11.dtd">
<!-- Generated by graphviz version 9.0.0 (20230911.1827)
 -->
<!-- Title: G Pages: 1 -->
<svg width="619pt" height="532pt"
 viewBox="0.00 0.00 619.25 532.00" xmlns="http://www.w3.org/2000/svg" xmlns:xlink="http://www.w3.org/1999/xlink">
<g id="graph0" class="graph" transform="scale(1 1) rotate(0) translate(4 528)">
<title>G</title>
<polygon fill="white" stroke="none" points="-4,4 -4,-528 615.25,-528 615.25,4 -4,4"/>
<text text-anchor="middle" x="305.62" y="-506.7" font-family="Helvetica,sans-Serif" font-size="14.00">Architecture</text>
<!-- SERVICE:mobile&#45;ui -->
<g id="node1" class="node">
<title>SERVICE:mobile&#45;ui</title>
<path fill="#eef6ff" stroke="black" d="M78.25,-144C78.25,-144 24.75,-144 24.75,-144 18.75,-144 12.75,-138 12.75,-132 12.75,-132 12.75,-120 12.75,-120 12.75,-114 18.75,-108 24.75,-108 24.75,-108 78.25,-108 78.25,-108 84.25,-108 90.25,-114 90.25,-120 90.25,-120 90.25,-132 90.25,-132 90.25,-138 84.25,-144 78.25,-144"/>
<text text-anchor="middle" x="51.5" y="-121.7" font-family="Times,serif" font-size="14.00">mobile&#45;ui</text>
</g>
<!-- SERVICE:wishlist -->
<g id="node2" class="node">
<title>SERVICE:wishlist</title>
<path fill="#eef6ff" stroke="black" d="M344,-252C344,-252 302.5,-252 302.5,-252 296.5,-252 290.5,-246 290.5,-240 290.5,-240 290.5,-228 290.5,-228 290.5,-222 296.5,-216 302.5,-216 302.5,-216 344,-216 344,-216 350,-216 356,-222 356,-228 356,-228 356,-240 356,-240 356,-246 350,-252 344,-252"/>
<text text-anchor="middle" x="323.25" y="-229.7" font-family="Times,serif" font-size="14.00">wishlist</text>
</g>
<!-- SERVICE:mobile&#45;ui&#45;&gt;SERVICE:wishlist -->
<g id="edge2" class="edge">
<title>SERVICE:mobile&#45;ui&#45;&gt;SERVICE:wishlist</title>
<g id="a_edge2"><a xlink:title="edge#1">
<path fill="none" stroke="black" d="M66.49,-144.32C79.08,-159.48 98.95,-180.35 121,-192 171.04,-218.45 236.32,-228.25 278.75,-231.87"/>
<polygon fill="black" stroke="black" points="278.33,-235.35 288.57,-232.63 278.86,-228.37 278.33,-235.35"/>
</a>
</g>
<text text-anchor="middle" x="179.88" y="-231.7" font-family="Times,serif" font-size="14.00">CALLS [rest] (sync)</text>
</g>
<!-- SERVICE:offers -->
<g id="node3" class="node">
<title>SERVICE:offers</title>
<path fill="#eef6ff" stroke="black" d="M338.25,-198C338.25,-198 308.25,-198 308.25,-198 302.25,-198 296.25,-192 296.25,-186 296.25,-186 296.25,-174 296.25,-174 296.25,-168 302.25,-162 308.25,-162 308.25,-162 338.25,-162 338.25,-162 344.25,-162 350.25,-168 350.25,-174 350.25,-174 350.25,-186 350.25,-186 350.25,-192 344.25,-198 338.25,-198"/>
<text text-anchor="middle" x="323.25" y="-175.7" font-family="Times,serif" font-size="14.00">offers</text>
</g>
<!-- SERVICE:mobile&#45;ui&#45;&gt;SERVICE:offers -->
<g id="edge3" class="edge">
<title>SERVICE:mobile&#45;ui&#45;&gt;SERVICE:offers</title>
<g id="a_edge3"><a xlink:title="edge#2">
<path fill="none" stroke="black" d="M90.61,-139.38C100.43,-142.51 111.04,-145.62 121,-148 177.38,-161.45 244.02,-170.79 284.7,-175.77"/>
<polygon fill="black" stroke="black" points="284.1,-179.23 294.44,-176.94 284.93,-172.28 284.1,-179.23"/>
</a>
</g>
<text text-anchor="middle" x="179.88" y="-174.7" font-family="Times,serif" font-size="14.00">CALLS [rest] (sync)</text>
</g>
<!-- SERVICE:order&#45;status -->
<g id="node4" class="node">
<title>SERVICE:order&#45;status</title>
<path fill="#eef6ff" stroke="black" d="M359,-144C359,-144 287.5,-144 287.5,-144 281.5,-144 275.5,-138 275.5,-132 275.5,-132 275.5,-120 275.5,-120 275.5,-114 281.5,-108 287.5,-108 287.5,-108 359,-108 359,-108 365,-108 371,-114 371,-120 371,-120 371,-132 371,-132 371,-138 365,-144 359,-144"/>
<text text-anchor="middle" x="323.25" y="-121.7" font-family="Times,serif" font-size="14.00">order&#45;status</text>
</g>
<!-- SERVICE:mobile&#45;ui&#45;&gt;SERVICE:order&#45;status -->
<g id="edge4" class="edge">
<title>SERVICE:mobile&#45;ui&#45;&gt;SERVICE:order&#45;status</title>
<g id="a_edge4"><a xlink:title="edge#3">
<path fill="none" stroke="black" d="M90.58,-126C135.67,-126 211.28,-126 263.81,-126"/>
<polygon fill="black" stroke="black" points="263.79,-129.5 273.79,-126 263.79,-122.5 263.79,-129.5"/>
</a>
</g>
<text text-anchor="middle" x="179.88" y="-130.7" font-family="Times,serif" font-size="14.00">CALLS [rest] (sync)</text>
</g>
<!-- SERVICE:search -->
<g id="node9" class="node">
<title>SERVICE:search</title>
<path fill="#eef6ff" stroke="black" d="M340.25,-90C340.25,-90 306.25,-90 306.25,-90 300.25,-90 294.25,-84 294.25,-78 294.25,-78 294.25,-66 294.25,-66 294.25,-60 300.25,-54 306.25,-54 306.25,-54 340.25,-54 340.25,-54 346.25,-54 352.25,-60 352.25,-66 352.25,-66 352.25,-78 352.25,-78 352.25,-84 346.25,-90 340.25,-90"/>
<text text-anchor="middle" x="323.25" y="-67.7" font-family="Times,serif" font-size="14.00">search</text>
</g>
<!-- SERVICE:mobile&#45;ui&#45;&gt;SERVICE:search -->
<g id="edge1" class="edge">
<title>SERVICE:mobile&#45;ui&#45;&gt;SERVICE:search</title>
<g id="a_edge1"><a xlink:title="edge#0">
<path fill="none" stroke="black" d="M90.61,-112.62C100.43,-109.49 111.04,-106.38 121,-104 176.44,-90.77 241.8,-81.52 282.64,-76.48"/>
<polygon fill="black" stroke="black" points="282.97,-79.96 292.48,-75.29 282.13,-73.01 282.97,-79.96"/>
</a>
</g>
<text text-anchor="middle" x="179.88" y="-108.7" font-family="Times,serif" font-size="14.00">CALLS [rest] (sync)</text>
</g>
<!-- SERVICE:recommendations -->
<g id="node10" class="node">
<title>SERVICE:recommendations</title>
<path fill="#eef6ff" stroke="black" d="M377.75,-36C377.75,-36 268.75,-36 268.75,-36 262.75,-36 256.75,-30 256.75,-24 256.75,-24 256.75,-12 256.75,-12 256.75,-6 262.75,0 268.75,0 268.75,0 377.75,0 377.75,0 383.75,0 389.75,-6 389.75,-12 389.75,-12 389.75,-24 389.75,-24 389.75,-30 383.75,-36 377.75,-36"/>
<text text-anchor="middle" x="323.25" y="-13.7" font-family="Times,serif" font-size="14.00">recommendations</text>
</g>
<!-- SERVICE:mobile&#45;ui&#45;&gt;SERVICE:recommendations -->
<g id="edge5" class="edge">
<title>SERVICE:mobile&#45;ui&#45;&gt;SERVICE:recommendations</title>
<g id="a_edge5"><a xlink:title="edge#4">
<path fill="none" stroke="black" d="M66.82,-107.69C79.46,-92.81 99.24,-72.46 121,-61 159.26,-40.84 206.34,-30.13 245.34,-24.45"/>
<polygon fill="black" stroke="black" points="245.7,-27.93 255.13,-23.11 244.75,-20.99 245.7,-27.93"/>
</a>
</g>
<text text-anchor="middle" x="179.88" y="-65.7" font-family="Times,serif" font-size="14.00">CALLS [rest] (sync)</text>
</g>
<!-- SERVICE:fulfillment -->
<g id="node5" class="node">
<title>SERVICE:fulfillment</title>
<path fill="#eef6ff" stroke="black" d="M80.12,-321C80.12,-321 22.88,-321 22.88,-321 16.88,-321 10.88,-315 10.88,-309 10.88,-309 10.88,-297 10.88,-297 10.88,-291 16.88,-285 22.88,-285 22.88,-285 80.12,-285 80.12,-285 86.12,-285 92.12,-291 92.12,-297 92.12,-297 92.12,-309 92.12,-309 92.12,-315 86.12,-321 80.12,-321"/>
<text text-anchor="middle" x="51.5" y="-298.7" font-family="Times,serif" font-size="14.00">fulfillment</text>
</g>
<!-- SERVICE:dispatch -->
<g id="node6" class="node">
<title>SERVICE:dispatch</title>
<path fill="#eef6ff" stroke="black" d="M346.62,-360C346.62,-360 299.88,-360 299.88,-360 293.88,-360 287.88,-354 287.88,-348 287.88,-348 287.88,-336 287.88,-336 287.88,-330 293.88,-324 299.88,-324 299.88,-324 346.62,-324 346.62,-324 352.62,-324 358.62,-330 358.62,-336 358.62,-336 358.62,-348 358.62,-348 358.62,-354 352.62,-360 346.62,-360"/>
<text text-anchor="middle" x="323.25" y="-337.7" font-family="Times,serif" font-size="14.00">dispatch</text>
</g>
<!-- SERVICE:fulfillment&#45;&gt;SERVICE:dispatch -->
<g id="edge6" class="edge">
<title>SERVICE:fulfillment&#45;&gt;SERVICE:dispatch</title>
<g id="a_edge6"><a xlink:title="edge#5">
<path fill="none" stroke="black" d="M92.59,-308.8C141.71,-315.9 224.75,-327.9 276.37,-335.37"/>
<polygon fill="black" stroke="black" points="275.62,-338.79 286.02,-336.76 276.62,-331.87 275.62,-338.79"/>
</a>
</g>
<text text-anchor="middle" x="179.88" y="-334.7" font-family="Times,serif" font-size="14.00">CALLS [rest] (sync)</text>
</g>
<!-- SERVICE:tracking -->
<g id="node7" class="node">
<title>SERVICE:tracking</title>
<path fill="#eef6ff" stroke="black" d="M599.25,-322C599.25,-322 555.5,-322 555.5,-322 549.5,-322 543.5,-316 543.5,-310 543.5,-310 543.5,-298 543.5,-298 543.5,-292 549.5,-286 555.5,-286 555.5,-286 599.25,-286 599.25,-286 605.25,-286 611.25,-292 611.25,-298 611.25,-298 611.25,-310 611.25,-310 611.25,-316 605.25,-322 599.25,-322"/>
<text text-anchor="middle" x="577.38" y="-299.7" font-family="Times,serif" font-size="14.00">tracking</text>
</g>
<!-- SERVICE:dispatch&#45;&gt;SERVICE:tracking -->
<g id="edge7" class="edge">
<title>SERVICE:dispatch&#45;&gt;SERVICE:tracking</title>
<g id="a_edge7"><a xlink:title="edge#6">
<path fill="none" stroke="black" d="M359.04,-336.76C404.06,-329.97 482.56,-318.14 531.88,-310.71"/>
<polygon fill="black" stroke="black" points="532.28,-314.19 541.65,-309.23 531.24,-307.26 532.28,-314.19"/>
</a>
</g>
<text text-anchor="middle" x="466.62" y="-333.7" font-family="Times,serif" font-size="14.00">CALLS [rest] (sync)</text>
</g>
<!-- SERVICE:tracking&#45;&gt;SERVICE:fulfillment -->
<g id="edge8" class="edge">
<title>SERVICE:tracking&#45;&gt;SERVICE:fulfillment</title>
<g id="a_edge8"><a xlink:title="edge#7">
<path fill="none" stroke="black" d="M543.01,-302.37C505.68,-300.64 443.4,-298.01 389.75,-297 288.4,-295.1 169.91,-298.51 103.8,-300.92"/>
<polygon fill="black" stroke="black" points="103.85,-297.42 93.99,-301.29 104.11,-304.41 103.85,-297.42"/>
</a>
</g>
<text text-anchor="middle" x="323.25" y="-301.7" font-family="Times,serif" font-size="14.00">CALLS [rest] (sync)</text>
</g>
<!-- SERVICE:ledger -->
<g id="node8" class="node">
<title>SERVICE:ledger</title>
<path fill="#eef6ff" stroke="black" d="M67.75,-498C67.75,-498 35.25,-498 35.25,-498 29.25,-498 23.25,-492 23.25,-486 23.25,-486 23.25,-474 23.25,-474 23.25,-468 29.25,-462 35.25,-462 35.25,-462 67.75,-462 67.75,-462 73.75,-462 79.75,-468 79.75,-474 79.75,-474 79.75,-486 79.75,-486 79.75,-492 73.75,-498 67.75,-498"/>
<text text-anchor="middle" x="51.5" y="-475.7" font-family="Times,serif" font-size="14.00">ledger</text>
</g>
<!-- DATABASE:accounting&#45;db -->
<g id="node13" class="node">
<title>DATABASE:accounting&#45;db</title>
<path fill="#fff3cd" stroke="black" d="M377.75,-440.73C377.75,-442.53 353.32,-444 323.25,-444 293.18,-444 268.75,-442.53 268.75,-440.73 268.75,-440.73 268.75,-411.27 268.75,-411.27 268.75,-409.47 293.18,-408 323.25,-408 353.32,-408 377.75,-409.47 377.75,-411.27 377.75,-411.27 377.75,-440.73 377.75,-440.73"/>
<path fill="none" stroke="black" d="M377.75,-440.73C377.75,-438.92 353.32,-437.45 323.25,-437.45 293.18,-437.45 268.75,-438.92 268.75,-440.73"/>
<text text-anchor="middle" x="323.25" y="-421.7" font-family="Times,serif" font-size="14.00">accounting&#45;db</text>
</g>
<!-- SERVICE:ledger&#45;&gt;DATABASE:accounting&#45;db -->
<g id="edge10" class="edge">
<title>SERVICE:ledger&#45;&gt;DATABASE:accounting&#45;db</title>
<g id="a_edge10"><a xlink:title="edge#9">
<path fill="none" stroke="black" d="M80.1,-476.03C116.59,-470.61 182.8,-460.15 238.75,-448 244.94,-446.65 251.37,-445.15 257.78,-443.58"/>
<polygon fill="black" stroke="black" points="258.2,-447.09 267.05,-441.26 256.5,-440.3 258.2,-447.09"/>
</a>
</g>
<text text-anchor="middle" x="179.88" y="-474.7" font-family="Times,serif" font-size="14.00">CALLS [rest] (sync)</text>
</g>
<!-- SERVICE:invoice -->
<g id="node11" class="node">
<title>SERVICE:invoice</title>
<path fill="#eef6ff" stroke="black" d="M70,-444C70,-444 33,-444 33,-444 27,-444 21,-438 21,-432 21,-432 21,-420 21,-420 21,-414 27,-408 33,-408 33,-408 70,-408 70,-408 76,-408 82,-414 82,-420 82,-420 82,-432 82,-432 82,-438 76,-444 70,-444"/>
<text text-anchor="middle" x="51.5" y="-421.7" font-family="Times,serif" font-size="14.00">invoice</text>
</g>
<!-- SERVICE:invoice&#45;&gt;DATABASE:accounting&#45;db -->
<g id="edge9" class="edge">
<title>SERVICE:invoice&#45;&gt;DATABASE:accounting&#45;db</title>
<g id="a_edge9"><a xlink:title="edge#8">
<path fill="none" stroke="black" d="M82.4,-426C124.28,-426 201.49,-426 257.01,-426"/>
<polygon fill="black" stroke="black" points="256.99,-429.5 266.99,-426 256.99,-422.5 256.99,-429.5"/>
</a>
</g>
<text text-anchor="middle" x="179.88" y="-430.7" font-family="Times,serif" font-size="14.00">CALLS [rest] (sync)</text>
</g>
<!-- SERVICE:reconciliation -->
<g id="node12" class="node">
<title>SERVICE:reconciliation</title>
<path fill="#eef6ff" stroke="black" d="M91,-390C91,-390 12,-390 12,-390 6,-390 0,-384 0,-378 0,-378 0,-366 0,-366 0,-360 6,-354 12,-354 12,-354 91,-354 91,-354 97,-354 103,-360 103,-366 103,-366 103,-378 103,-378 103,-384 97,-390 91,-390"/>
<text text-anchor="middle" x="51.5" y="-367.7" font-family="Times,serif" font-size="14.00">reconciliation</text>
</g>
<!-- SERVICE:reconciliation&#45;&gt;DATABASE:accounting&#45;db -->
<g id="edge11" class="edge">
<title>SERVICE:reconciliation&#45;&gt;DATABASE:accounting&#45;db</title>
<g id="a_edge11"><a xlink:title="edge#10">
<path fill="none" stroke="black" d="M103.32,-379.5C140.9,-385.35 193.22,-394.11 238.75,-404 244.94,-405.35 251.37,-406.85 257.78,-408.42"/>
<polygon fill="black" stroke="black" points="256.5,-411.7 267.05,-410.74 258.2,-404.91 256.5,-411.7"/>
</a>
</g>
<text text-anchor="middle" x="179.88" y="-408.7" font-family="Times,serif" font-size="14.00">CALLS [rest] (sync)</text>
</g>
</g>
</svg>
