<?xml version="1.0" encoding="UTF-8" standalone="no"?>
<!DOCTYPE svg PUBLIC "-//W3C//DTD SVG 1.1//EN"
 "http://www.w3.org/Graphics/SVG/1.1/DTD/svg11.dtd">
<!-- Generated by graphviz version 9.0.0 (20230911.1827)
 -->
<!-- Title: G Pages: 1 -->
<svg width="2531pt" height="316pt"
 viewBox="0.00 0.00 2530.75 316.36" xmlns="http://www.w3.org/2000/svg" xmlns:xlink="http://www.w3.org/1999/xlink">
<g id="graph0" class="graph" transform="scale(1 1) rotate(0) translate(4 312.36)">
<title>G</title>
<polygon fill="white" stroke="none" points="-4,4 -4,-312.36 2526.75,-312.36 2526.75,4 -4,4"/>
<text text-anchor="middle" x="1261.38" y="-291.06" font-family="Helvetica,sans-Serif" font-size="14.00">Architecture</text>
<!-- SERVICE:web&#45;ui -->
<g id="node1" class="node">
<title>SERVICE:web&#45;ui</title>
<path fill="#eef6ff" stroke="black" d="M48.25,-198.36C48.25,-198.36 12,-198.36 12,-198.36 6,-198.36 0,-192.36 0,-186.36 0,-186.36 0,-174.36 0,-174.36 0,-168.36 6,-162.36 12,-162.36 12,-162.36 48.25,-162.36 48.25,-162.36 54.25,-162.36 60.25,-168.36 60.25,-174.36 60.25,-174.36 60.25,-186.36 60.25,-186.36 60.25,-192.36 54.25,-198.36 48.25,-198.36"/>
<text text-anchor="middle" x="30.12" y="-176.06" font-family="Times,serif" font-size="14.00">web&#45;ui</text>
</g>
<!-- SERVICE:bff&#45;1 -->
<g id="node15" class="node">
<title>SERVICE:bff&#45;1</title>
<path fill="#eef6ff" stroke="black" d="M276.38,-198.36C276.38,-198.36 246.38,-198.36 246.38,-198.36 240.38,-198.36 234.38,-192.36 234.38,-186.36 234.38,-186.36 234.38,-174.36 234.38,-174.36 234.38,-168.36 240.38,-162.36 246.38,-162.36 246.38,-162.36 276.38,-162.36 276.38,-162.36 282.38,-162.36 288.38,-168.36 288.38,-174.36 288.38,-174.36 288.38,-186.36 288.38,-186.36 288.38,-192.36 282.38,-198.36 276.38,-198.36"/>
<text text-anchor="middle" x="261.38" y="-176.06" font-family="Times,serif" font-size="14.00">bff&#45;1</text>
</g>
<!-- SERVICE:web&#45;ui&#45;&gt;SERVICE:bff&#45;1 -->
<g id="edge16" class="edge">
<title>SERVICE:web&#45;ui&#45;&gt;SERVICE:bff&#45;1</title>
<g id="a_edge16"><a xlink:title="edge#15">
<path fill="none" stroke="black" d="M60.63,-180.36C102.03,-180.36 177.39,-180.36 222.77,-180.36"/>
<polygon fill="black" stroke="black" points="222.66,-183.86 232.66,-180.36 222.66,-176.86 222.66,-183.86"/>
</a>
</g>
<text text-anchor="middle" x="137.12" y="-185.06" font-family="Times,serif" font-size="14.00">CALLS [rest] (sync)</text>
</g>
<!-- SERVICE:orders -->
<g id="node2" class="node">
<title>SERVICE:orders</title>
<path fill="#eef6ff" stroke="black" d="M1499,-109.36C1499,-109.36 1465.75,-109.36 1465.75,-109.36 1459.75,-109.36 1453.75,-103.36 1453.75,-97.36 1453.75,-97.36 1453.75,-85.36 1453.75,-85.36 1453.75,-79.36 1459.75,-73.36 1465.75,-73.36 1465.75,-73.36 1499,-73.36 1499,-73.36 1505,-73.36 1511,-79.36 1511,-85.36 1511,-85.36 1511,-97.36 1511,-97.36 1511,-103.36 1505,-109.36 1499,-109.36"/>
<text text-anchor="middle" x="1482.38" y="-87.06" font-family="Times,serif" font-size="14.00">orders</text>
</g>
<!-- SERVICE:inventory -->
<g id="node12" class="node">
<title>SERVICE:inventory</title>
<path fill="#eef6ff" stroke="black" d="M1872.88,-155.36C1872.88,-155.36 1820.88,-155.36 1820.88,-155.36 1814.88,-155.36 1808.88,-149.36 1808.88,-143.36 1808.88,-143.36 1808.88,-131.36 1808.88,-131.36 1808.88,-125.36 1814.88,-119.36 1820.88,-119.36 1820.88,-119.36 1872.88,-119.36 1872.88,-119.36 1878.88,-119.36 1884.88,-125.36 1884.88,-131.36 1884.88,-131.36 1884.88,-143.36 1884.88,-143.36 1884.88,-149.36 1878.88,-155.36 1872.88,-155.36"/>
<text text-anchor="middle" x="1846.88" y="-133.06" font-family="Times,serif" font-size="14.00">inventory</text>
</g>
<!-- SERVICE:orders&#45;&gt;SERVICE:inventory -->
<g id="edge2" class="edge">
<title>SERVICE:orders&#45;&gt;SERVICE:inventory</title>
<g id="a_edge2"><a xlink:title="edge#1">
<path fill="none" stroke="black" d="M1511.22,-106.79C1516.95,-109.39 1523.06,-111.76 1529,-113.36 1621.54,-138.22 1734.38,-140.39 1797.37,-139.22"/>
<polygon fill="black" stroke="black" points="1797.1,-142.73 1807.02,-139 1796.94,-135.73 1797.1,-142.73"/>
</a>
</g>
<text text-anchor="middle" x="1587.88" y="-139.06" font-family="Times,serif" font-size="14.00">CALLS [rest] (sync)</text>
</g>
<!-- SERVICE:orders_split&#45;2 -->
<g id="node16" class="node">
<title>SERVICE:orders_split&#45;2</title>
<path fill="#eef6ff" stroke="black" d="M1758,-109.36C1758,-109.36 1676.75,-109.36 1676.75,-109.36 1670.75,-109.36 1664.75,-103.36 1664.75,-97.36 1664.75,-97.36 1664.75,-85.36 1664.75,-85.36 1664.75,-79.36 1670.75,-73.36 1676.75,-73.36 1676.75,-73.36 1758,-73.36 1758,-73.36 1764,-73.36 1770,-79.36 1770,-85.36 1770,-85.36 1770,-97.36 1770,-97.36 1770,-103.36 1764,-109.36 1758,-109.36"/>
<text text-anchor="middle" x="1717.38" y="-87.06" font-family="Times,serif" font-size="14.00">orders_split&#45;2</text>
</g>
<!-- SERVICE:orders&#45;&gt;SERVICE:orders_split&#45;2 -->
<g id="edge23" class="edge">
<title>SERVICE:orders&#45;&gt;SERVICE:orders_split&#45;2</title>
<g id="a_edge23"><a xlink:title="edge#22">
<path fill="none" stroke="black" d="M1511.48,-91.36C1546.29,-91.36 1606.65,-91.36 1652.87,-91.36"/>
<polygon fill="black" stroke="black" points="1652.78,-94.86 1662.78,-91.36 1652.78,-87.86 1652.78,-94.86"/>
</a>
</g>
<text text-anchor="middle" x="1587.88" y="-96.06" font-family="Times,serif" font-size="14.00">CALLS [rest] (sync)</text>
</g>
<!-- SERVICE:web&#45;ui_split -->
<g id="node3" class="node">
<title>SERVICE:web&#45;ui_split</title>
<path fill="#eef6ff" stroke="black" d="M296.75,-94.36C296.75,-94.36 226,-94.36 226,-94.36 220,-94.36 214,-88.36 214,-82.36 214,-82.36 214,-70.36 214,-70.36 214,-64.36 220,-58.36 226,-58.36 226,-58.36 296.75,-58.36 296.75,-58.36 302.75,-58.36 308.75,-64.36 308.75,-70.36 308.75,-70.36 308.75,-82.36 308.75,-82.36 308.75,-88.36 302.75,-94.36 296.75,-94.36"/>
<text text-anchor="middle" x="261.38" y="-72.06" font-family="Times,serif" font-size="14.00">web&#45;ui_split</text>
</g>
<!-- SERVICE:bff&#45;3 -->
<g id="node11" class="node">
<title>SERVICE:bff&#45;3</title>
<path fill="#eef6ff" stroke="black" d="M504.5,-94.36C504.5,-94.36 474.5,-94.36 474.5,-94.36 468.5,-94.36 462.5,-88.36 462.5,-82.36 462.5,-82.36 462.5,-70.36 462.5,-70.36 462.5,-64.36 468.5,-58.36 474.5,-58.36 474.5,-58.36 504.5,-58.36 504.5,-58.36 510.5,-58.36 516.5,-64.36 516.5,-70.36 516.5,-70.36 516.5,-82.36 516.5,-82.36 516.5,-88.36 510.5,-94.36 504.5,-94.36"/>
<text text-anchor="middle" x="489.5" y="-72.06" font-family="Times,serif" font-size="14.00">bff&#45;3</text>
</g>
<!-- SERVICE:web&#45;ui_split&#45;&gt;SERVICE:bff&#45;3 -->
<g id="edge25" class="edge">
<title>SERVICE:web&#45;ui_split&#45;&gt;SERVICE:bff&#45;3</title>
<g id="a_edge25"><a xlink:title="edge#24">
<path fill="none" stroke="black" d="M309.23,-76.36C351.2,-76.36 411.96,-76.36 450.85,-76.36"/>
<polygon fill="black" stroke="black" points="450.66,-79.86 460.66,-76.36 450.66,-72.86 450.66,-79.86"/>
</a>
</g>
<text text-anchor="middle" x="385.62" y="-81.06" font-family="Times,serif" font-size="14.00">CALLS [rest] (sync)</text>
</g>
<!-- SERVICE:bff_split -->
<g id="node4" class="node">
<title>SERVICE:bff_split</title>
<path fill="#eef6ff" stroke="black" d="M1009,-228.36C1009,-228.36 965.25,-228.36 965.25,-228.36 959.25,-228.36 953.25,-222.36 953.25,-216.36 953.25,-216.36 953.25,-204.36 953.25,-204.36 953.25,-198.36 959.25,-192.36 965.25,-192.36 965.25,-192.36 1009,-192.36 1009,-192.36 1015,-192.36 1021,-198.36 1021,-204.36 1021,-204.36 1021,-216.36 1021,-216.36 1021,-222.36 1015,-228.36 1009,-228.36"/>
<text text-anchor="middle" x="987.12" y="-206.06" font-family="Times,serif" font-size="14.00">bff_split</text>
</g>
<!-- SERVICE:catalog -->
<g id="node8" class="node">
<title>SERVICE:catalog</title>
<path fill="#eef6ff" stroke="black" d="M1737,-247.36C1737,-247.36 1697.75,-247.36 1697.75,-247.36 1691.75,-247.36 1685.75,-241.36 1685.75,-235.36 1685.75,-235.36 1685.75,-223.36 1685.75,-223.36 1685.75,-217.36 1691.75,-211.36 1697.75,-211.36 1697.75,-211.36 1737,-211.36 1737,-211.36 1743,-211.36 1749,-217.36 1749,-223.36 1749,-223.36 1749,-235.36 1749,-235.36 1749,-241.36 1743,-247.36 1737,-247.36"/>
<text text-anchor="middle" x="1717.38" y="-225.06" font-family="Times,serif" font-size="14.00">catalog</text>
</g>
<!-- SERVICE:bff_split&#45;&gt;SERVICE:catalog -->
<g id="edge11" class="edge">
<title>SERVICE:bff_split&#45;&gt;SERVICE:catalog</title>
<g id="a_edge11"><a xlink:title="edge#10">
<path fill="none" stroke="black" d="M1021.24,-225.99C1027.05,-228.16 1033.12,-230.08 1039,-231.36 1098,-244.19 1114.39,-234.91 1174.75,-236.36 1332.16,-240.15 1371.55,-239.47 1529,-240.36 1581.33,-240.65 1594.58,-244.45 1646.75,-240.36 1655.67,-239.66 1665.18,-238.46 1674.2,-237.11"/>
<polygon fill="black" stroke="black" points="1674.49,-240.61 1683.81,-235.57 1673.38,-233.69 1674.49,-240.61"/>
</a>
</g>
<text text-anchor="middle" x="1373.12" y="-244.06" font-family="Times,serif" font-size="14.00">CALLS [rest] (sync)</text>
</g>
<!-- SERVICE:bff_split_split -->
<g id="node21" class="node">
<title>SERVICE:bff_split_split</title>
<path fill="#eef6ff" stroke="black" d="M1272.75,-227.36C1272.75,-227.36 1194.5,-227.36 1194.5,-227.36 1188.5,-227.36 1182.5,-221.36 1182.5,-215.36 1182.5,-215.36 1182.5,-203.36 1182.5,-203.36 1182.5,-197.36 1188.5,-191.36 1194.5,-191.36 1194.5,-191.36 1272.75,-191.36 1272.75,-191.36 1278.75,-191.36 1284.75,-197.36 1284.75,-203.36 1284.75,-203.36 1284.75,-215.36 1284.75,-215.36 1284.75,-221.36 1278.75,-227.36 1272.75,-227.36"/>
<text text-anchor="middle" x="1233.62" y="-205.06" font-family="Times,serif" font-size="14.00">bff_split_split</text>
</g>
<!-- SERVICE:bff_split&#45;&gt;SERVICE:bff_split_split -->
<g id="edge22" class="edge">
<title>SERVICE:bff_split&#45;&gt;SERVICE:bff_split_split</title>
<g id="a_edge22"><a xlink:title="edge#21">
<path fill="none" stroke="black" d="M1021.35,-210.22C1059.59,-210.07 1123.21,-209.81 1170.66,-209.61"/>
<polygon fill="black" stroke="black" points="1170.54,-213.11 1180.53,-209.57 1170.51,-206.11 1170.54,-213.11"/>
</a>
</g>
<text text-anchor="middle" x="1097.88" y="-214.06" font-family="Times,serif" font-size="14.00">CALLS [rest] (sync)</text>
</g>
<!-- SERVICE:bff&#45;2 -->
<g id="node5" class="node">
<title>SERVICE:bff&#45;2</title>
<path fill="#eef6ff" stroke="black" d="M1002.12,-115.36C1002.12,-115.36 972.12,-115.36 972.12,-115.36 966.12,-115.36 960.12,-109.36 960.12,-103.36 960.12,-103.36 960.12,-91.36 960.12,-91.36 960.12,-85.36 966.12,-79.36 972.12,-79.36 972.12,-79.36 1002.12,-79.36 1002.12,-79.36 1008.12,-79.36 1014.12,-85.36 1014.12,-91.36 1014.12,-91.36 1014.12,-103.36 1014.12,-103.36 1014.12,-109.36 1008.12,-115.36 1002.12,-115.36"/>
<text text-anchor="middle" x="987.12" y="-93.06" font-family="Times,serif" font-size="14.00">bff&#45;2</text>
</g>
<!-- SERVICE:payments -->
<g id="node18" class="node">
<title>SERVICE:payments</title>
<path fill="#eef6ff" stroke="black" d="M1261.12,-92.36C1261.12,-92.36 1206.12,-92.36 1206.12,-92.36 1200.12,-92.36 1194.12,-86.36 1194.12,-80.36 1194.12,-80.36 1194.12,-68.36 1194.12,-68.36 1194.12,-62.36 1200.12,-56.36 1206.12,-56.36 1206.12,-56.36 1261.12,-56.36 1261.12,-56.36 1267.12,-56.36 1273.12,-62.36 1273.12,-68.36 1273.12,-68.36 1273.12,-80.36 1273.12,-80.36 1273.12,-86.36 1267.12,-92.36 1261.12,-92.36"/>
<text text-anchor="middle" x="1233.62" y="-70.06" font-family="Times,serif" font-size="14.00">payments</text>
</g>
<!-- SERVICE:bff&#45;2&#45;&gt;SERVICE:payments -->
<g id="edge18" class="edge">
<title>SERVICE:bff&#45;2&#45;&gt;SERVICE:payments</title>
<g id="a_edge18"><a xlink:title="edge#17">
<path fill="none" stroke="black" d="M1014.51,-94.09C1022.39,-93.16 1031.04,-92.18 1039,-91.36 1087.63,-86.36 1143.22,-81.57 1182.32,-78.36"/>
<polygon fill="black" stroke="black" points="1182.46,-81.86 1192.14,-77.56 1181.89,-74.88 1182.46,-81.86"/>
</a>
</g>
<text text-anchor="middle" x="1097.88" y="-96.06" font-family="Times,serif" font-size="14.00">CALLS [rest] (sync)</text>
</g>
<!-- SERVICE:bff&#45;2_split -->
<g id="node22" class="node">
<title>SERVICE:bff&#45;2_split</title>
<path fill="#eef6ff" stroke="black" d="M1262.25,-149.36C1262.25,-149.36 1205,-149.36 1205,-149.36 1199,-149.36 1193,-143.36 1193,-137.36 1193,-137.36 1193,-125.36 1193,-125.36 1193,-119.36 1199,-113.36 1205,-113.36 1205,-113.36 1262.25,-113.36 1262.25,-113.36 1268.25,-113.36 1274.25,-119.36 1274.25,-125.36 1274.25,-125.36 1274.25,-137.36 1274.25,-137.36 1274.25,-143.36 1268.25,-149.36 1262.25,-149.36"/>
<text text-anchor="middle" x="1233.62" y="-127.06" font-family="Times,serif" font-size="14.00">bff&#45;2_split</text>
</g>
<!-- SERVICE:bff&#45;2&#45;&gt;SERVICE:bff&#45;2_split -->
<g id="edge24" class="edge">
<title>SERVICE:bff&#45;2&#45;&gt;SERVICE:bff&#45;2_split</title>
<g id="a_edge24"><a xlink:title="edge#23">
<path fill="none" stroke="black" d="M1014.41,-104.18C1022.28,-106.06 1030.95,-107.96 1039,-109.36 1086.98,-117.71 1142.22,-123.63 1181.39,-127.2"/>
<polygon fill="black" stroke="black" points="1180.97,-130.68 1191.24,-128.08 1181.59,-123.71 1180.97,-130.68"/>
</a>
</g>
<text text-anchor="middle" x="1097.88" y="-130.06" font-family="Times,serif" font-size="14.00">CALLS [rest] (sync)</text>
</g>
<!-- SERVICE:bff_split&#45;1 -->
<g id="node6" class="node">
<title>SERVICE:bff_split&#45;1</title>
<path fill="#eef6ff" stroke="black" d="M762.75,-228.36C762.75,-228.36 707,-228.36 707,-228.36 701,-228.36 695,-222.36 695,-216.36 695,-216.36 695,-204.36 695,-204.36 695,-198.36 701,-192.36 707,-192.36 707,-192.36 762.75,-192.36 762.75,-192.36 768.75,-192.36 774.75,-198.36 774.75,-204.36 774.75,-204.36 774.75,-216.36 774.75,-216.36 774.75,-222.36 768.75,-228.36 762.75,-228.36"/>
<text text-anchor="middle" x="734.88" y="-206.06" font-family="Times,serif" font-size="14.00">bff_split&#45;1</text>
</g>
<!-- SERVICE:bff_split&#45;1&#45;&gt;SERVICE:bff_split -->
<g id="edge15" class="edge">
<title>SERVICE:bff_split&#45;1&#45;&gt;SERVICE:bff_split</title>
<g id="a_edge15"><a xlink:title="edge#14">
<path fill="none" stroke="black" d="M774.98,-210.36C820.09,-210.36 894.12,-210.36 941.47,-210.36"/>
<polygon fill="black" stroke="black" points="941.38,-213.86 951.38,-210.36 941.38,-206.86 941.38,-213.86"/>
</a>
</g>
<text text-anchor="middle" x="876.38" y="-215.06" font-family="Times,serif" font-size="14.00">CALLS [rest] (sync)</text>
</g>
<!-- SERVICE:auth -->
<g id="node17" class="node">
<title>SERVICE:auth</title>
<path fill="#eef6ff" stroke="black" d="M1002.12,-282.36C1002.12,-282.36 972.12,-282.36 972.12,-282.36 966.12,-282.36 960.12,-276.36 960.12,-270.36 960.12,-270.36 960.12,-258.36 960.12,-258.36 960.12,-252.36 966.12,-246.36 972.12,-246.36 972.12,-246.36 1002.12,-246.36 1002.12,-246.36 1008.12,-246.36 1014.12,-252.36 1014.12,-258.36 1014.12,-258.36 1014.12,-270.36 1014.12,-270.36 1014.12,-276.36 1008.12,-282.36 1002.12,-282.36"/>
<text text-anchor="middle" x="987.12" y="-260.06" font-family="Times,serif" font-size="14.00">auth</text>
</g>
<!-- SERVICE:bff_split&#45;1&#45;&gt;SERVICE:auth -->
<g id="edge10" class="edge">
<title>SERVICE:bff_split&#45;1&#45;&gt;SERVICE:auth</title>
<g id="a_edge10"><a xlink:title="edge#9">
<path fill="none" stroke="black" d="M775.17,-221.59C788.54,-225.25 803.62,-229.18 817.5,-232.36 862.38,-242.65 914.52,-252.18 948.8,-258.11"/>
<polygon fill="black" stroke="black" points="947.77,-261.49 958.22,-259.73 948.95,-254.59 947.77,-261.49"/>
</a>
</g>
<text text-anchor="middle" x="876.38" y="-260.06" font-family="Times,serif" font-size="14.00">CALLS [rest] (sync)</text>
</g>
<!-- SERVICE:bff&#45;4 -->
<g id="node7" class="node">
<title>SERVICE:bff&#45;4</title>
<path fill="#eef6ff" stroke="black" d="M1002.12,-61.36C1002.12,-61.36 972.12,-61.36 972.12,-61.36 966.12,-61.36 960.12,-55.36 960.12,-49.36 960.12,-49.36 960.12,-37.36 960.12,-37.36 960.12,-31.36 966.12,-25.36 972.12,-25.36 972.12,-25.36 1002.12,-25.36 1002.12,-25.36 1008.12,-25.36 1014.12,-31.36 1014.12,-37.36 1014.12,-37.36 1014.12,-49.36 1014.12,-49.36 1014.12,-55.36 1008.12,-61.36 1002.12,-61.36"/>
<text text-anchor="middle" x="987.12" y="-39.06" font-family="Times,serif" font-size="14.00">bff&#45;4</text>
</g>
<!-- SERVICE:bff&#45;4&#45;&gt;SERVICE:orders -->
<g id="edge29" class="edge">
<title>SERVICE:bff&#45;4&#45;&gt;SERVICE:orders</title>
<g id="a_edge29"><a xlink:title="edge#28">
<path fill="none" stroke="black" d="M1014.43,-35.23C1086.46,-14.56 1291.17,33.52 1435.75,-38.36 1447.2,-44.05 1456.95,-54.03 1464.47,-63.81"/>
<polygon fill="black" stroke="black" points="1461.45,-65.61 1470.09,-71.74 1467.16,-61.56 1461.45,-65.61"/>
</a>
</g>
<text text-anchor="middle" x="1233.62" y="-9.06" font-family="Times,serif" font-size="14.00">CALLS [rest] (sync)</text>
</g>
<!-- SERVICE:bff&#45;4&#45;&gt;SERVICE:payments -->
<g id="edge30" class="edge">
<title>SERVICE:bff&#45;4&#45;&gt;SERVICE:payments</title>
<g id="a_edge30"><a xlink:title="edge#29">
<path fill="none" stroke="black" d="M1014.51,-45.04C1047.79,-47.34 1106.7,-52.06 1156.75,-59.36 1165.16,-60.58 1174.04,-62.12 1182.66,-63.74"/>
<polygon fill="black" stroke="black" points="1181.8,-67.14 1192.28,-65.61 1183.13,-60.27 1181.8,-67.14"/>
</a>
</g>
<text text-anchor="middle" x="1097.88" y="-64.06" font-family="Times,serif" font-size="14.00">CALLS [rest] (sync)</text>
</g>
<!-- DATABASE:shared&#45;db -->
<g id="node19" class="node">
<title>DATABASE:shared&#45;db</title>
<path fill="#fff3cd" stroke="black" d="M2522.75,-175.09C2522.75,-176.89 2504.37,-178.36 2481.75,-178.36 2459.13,-178.36 2440.75,-176.89 2440.75,-175.09 2440.75,-175.09 2440.75,-145.63 2440.75,-145.63 2440.75,-143.83 2459.13,-142.36 2481.75,-142.36 2504.37,-142.36 2522.75,-143.83 2522.75,-145.63 2522.75,-145.63 2522.75,-175.09 2522.75,-175.09"/>
<path fill="none" stroke="black" d="M2522.75,-175.09C2522.75,-173.28 2504.37,-171.81 2481.75,-171.81 2459.13,-171.81 2440.75,-173.28 2440.75,-175.09"/>
<text text-anchor="middle" x="2481.75" y="-156.06" font-family="Times,serif" font-size="14.00">shared&#45;db</text>
</g>
<!-- SERVICE:catalog&#45;&gt;DATABASE:shared&#45;db -->
<g id="edge4" class="edge">
<title>SERVICE:catalog&#45;&gt;DATABASE:shared&#45;db</title>
<g id="a_edge4"><a xlink:title="edge#3">
<path fill="none" stroke="black" d="M1749.22,-233.48C1849.35,-245.74 2173.3,-276.34 2422.75,-197.36 2431.74,-194.51 2440.69,-189.91 2448.79,-184.89"/>
<polygon fill="black" stroke="black" points="2450.51,-187.95 2456.91,-179.51 2446.64,-182.12 2450.51,-187.95"/>
</a>
</g>
<text text-anchor="middle" x="2118.38" y="-253.06" font-family="Times,serif" font-size="14.00">CALLS [rest] (sync)</text>
</g>
<!-- SERVICE:cart -->
<g id="node9" class="node">
<title>SERVICE:cart</title>
<path fill="#eef6ff" stroke="black" d="M1497.38,-214.36C1497.38,-214.36 1467.38,-214.36 1467.38,-214.36 1461.38,-214.36 1455.38,-208.36 1455.38,-202.36 1455.38,-202.36 1455.38,-190.36 1455.38,-190.36 1455.38,-184.36 1461.38,-178.36 1467.38,-178.36 1467.38,-178.36 1497.38,-178.36 1497.38,-178.36 1503.38,-178.36 1509.38,-184.36 1509.38,-190.36 1509.38,-190.36 1509.38,-202.36 1509.38,-202.36 1509.38,-208.36 1503.38,-214.36 1497.38,-214.36"/>
<text text-anchor="middle" x="1482.38" y="-192.06" font-family="Times,serif" font-size="14.00">cart</text>
</g>
<!-- SERVICE:cart&#45;&gt;SERVICE:catalog -->
<g id="edge1" class="edge">
<title>SERVICE:cart&#45;&gt;SERVICE:catalog</title>
<g id="a_edge1"><a xlink:title="edge#0">
<path fill="none" stroke="black" d="M1509.65,-200.08C1549.67,-205.75 1626.3,-216.6 1674.18,-223.38"/>
<polygon fill="black" stroke="black" points="1673.51,-226.82 1683.9,-224.76 1674.49,-219.89 1673.51,-226.82"/>
</a>
</g>
<text text-anchor="middle" x="1587.88" y="-223.06" font-family="Times,serif" font-size="14.00">CALLS [rest] (sync)</text>
</g>
<!-- SERVICE:cart&#45;&gt;DATABASE:shared&#45;db -->
<g id="edge5" class="edge">
<title>SERVICE:cart&#45;&gt;DATABASE:shared&#45;db</title>
<g id="a_edge5"><a xlink:title="edge#4">
<path fill="none" stroke="black" d="M1509.56,-193.94C1552.64,-190.18 1641.22,-183.36 1716.38,-183.36 1716.38,-183.36 1716.38,-183.36 2242.12,-183.36 2322.64,-183.36 2342.77,-178.65 2422.75,-169.36 2424.91,-169.11 2427.12,-168.83 2429.35,-168.55"/>
<polygon fill="black" stroke="black" points="2429.63,-172.04 2439.06,-167.21 2428.67,-165.11 2429.63,-172.04"/>
</a>
</g>
<text text-anchor="middle" x="1982.62" y="-188.06" font-family="Times,serif" font-size="14.00">CALLS [rest] (sync)</text>
</g>
<!-- SERVICE:orders_split -->
<g id="node10" class="node">
<title>SERVICE:orders_split</title>
<path fill="#eef6ff" stroke="black" d="M2275,-109.36C2275,-109.36 2207.25,-109.36 2207.25,-109.36 2201.25,-109.36 2195.25,-103.36 2195.25,-97.36 2195.25,-97.36 2195.25,-85.36 2195.25,-85.36 2195.25,-79.36 2201.25,-73.36 2207.25,-73.36 2207.25,-73.36 2275,-73.36 2275,-73.36 2281,-73.36 2287,-79.36 2287,-85.36 2287,-85.36 2287,-97.36 2287,-97.36 2287,-103.36 2281,-109.36 2275,-109.36"/>
<text text-anchor="middle" x="2241.12" y="-87.06" font-family="Times,serif" font-size="14.00">orders_split</text>
</g>
<!-- SERVICE:orders_split&#45;&gt;DATABASE:shared&#45;db -->
<g id="edge6" class="edge">
<title>SERVICE:orders_split&#45;&gt;DATABASE:shared&#45;db</title>
<g id="a_edge6"><a xlink:title="edge#5">
<path fill="none" stroke="black" d="M2287.21,-86.72C2325.03,-84.69 2379.64,-86.2 2422.75,-105.36 2436.96,-111.67 2449.84,-122.99 2459.84,-133.73"/>
<polygon fill="black" stroke="black" points="2456.97,-135.78 2466.2,-140.98 2462.23,-131.15 2456.97,-135.78"/>
</a>
</g>
<text text-anchor="middle" x="2363.88" y="-110.06" font-family="Times,serif" font-size="14.00">CALLS [rest] (sync)</text>
</g>
<!-- SERVICE:bff&#45;3&#45;&gt;SERVICE:bff&#45;2 -->
<g id="edge27" class="edge">
<title>SERVICE:bff&#45;3&#45;&gt;SERVICE:bff&#45;2</title>
<g id="a_edge27"><a xlink:title="edge#26">
<path fill="none" stroke="black" d="M516.96,-81.12C522.72,-82.01 528.8,-82.82 534.5,-83.36 687.71,-97.86 871.32,-98.36 948.77,-97.8"/>
<polygon fill="black" stroke="black" points="948.35,-101.3 958.32,-97.72 948.29,-94.3 948.35,-101.3"/>
</a>
</g>
<text text-anchor="middle" x="734.88" y="-102.06" font-family="Times,serif" font-size="14.00">CALLS [rest] (sync)</text>
</g>
<!-- SERVICE:web&#45;ui_split_split -->
<g id="node14" class="node">
<title>SERVICE:web&#45;ui_split_split</title>
<path fill="#eef6ff" stroke="black" d="M787.5,-61.36C787.5,-61.36 682.25,-61.36 682.25,-61.36 676.25,-61.36 670.25,-55.36 670.25,-49.36 670.25,-49.36 670.25,-37.36 670.25,-37.36 670.25,-31.36 676.25,-25.36 682.25,-25.36 682.25,-25.36 787.5,-25.36 787.5,-25.36 793.5,-25.36 799.5,-31.36 799.5,-37.36 799.5,-37.36 799.5,-49.36 799.5,-49.36 799.5,-55.36 793.5,-61.36 787.5,-61.36"/>
<text text-anchor="middle" x="734.88" y="-39.06" font-family="Times,serif" font-size="14.00">web&#45;ui_split_split</text>
</g>
<!-- SERVICE:bff&#45;3&#45;&gt;SERVICE:web&#45;ui_split_split -->
<g id="edge26" class="edge">
<title>SERVICE:bff&#45;3&#45;&gt;SERVICE:web&#45;ui_split_split</title>
<g id="a_edge26"><a xlink:title="edge#25">
<path fill="none" stroke="black" d="M516.9,-69.14C522.67,-67.74 528.76,-66.39 534.5,-65.36 575.19,-58.06 621.02,-52.8 658.47,-49.26"/>
<polygon fill="black" stroke="black" points="658.66,-52.75 668.3,-48.35 658.02,-45.78 658.66,-52.75"/>
</a>
</g>
<text text-anchor="middle" x="593.38" y="-70.06" font-family="Times,serif" font-size="14.00">CALLS [rest] (sync)</text>
</g>
<!-- SERVICE:inventory&#45;&gt;DATABASE:shared&#45;db -->
<g id="edge7" class="edge">
<title>SERVICE:inventory&#45;&gt;DATABASE:shared&#45;db</title>
<g id="a_edge7"><a xlink:title="edge#6">
<path fill="none" stroke="black" d="M1885.1,-138.71C1992.78,-142.62 2304.79,-153.96 2428.92,-158.47"/>
<polygon fill="black" stroke="black" points="2428.7,-161.97 2438.82,-158.83 2428.95,-154.97 2428.7,-161.97"/>
</a>
</g>
<text text-anchor="middle" x="2118.38" y="-154.06" font-family="Times,serif" font-size="14.00">CALLS [rest] (sync)</text>
</g>
<!-- SERVICE:bff -->
<g id="node13" class="node">
<title>SERVICE:bff</title>
<path fill="#eef6ff" stroke="black" d="M504.5,-198.36C504.5,-198.36 474.5,-198.36 474.5,-198.36 468.5,-198.36 462.5,-192.36 462.5,-186.36 462.5,-186.36 462.5,-174.36 462.5,-174.36 462.5,-168.36 468.5,-162.36 474.5,-162.36 474.5,-162.36 504.5,-162.36 504.5,-162.36 510.5,-162.36 516.5,-168.36 516.5,-174.36 516.5,-174.36 516.5,-186.36 516.5,-186.36 516.5,-192.36 510.5,-198.36 504.5,-198.36"/>
<text text-anchor="middle" x="489.5" y="-176.06" font-family="Times,serif" font-size="14.00">bff</text>
</g>
<!-- SERVICE:bff&#45;&gt;SERVICE:bff_split&#45;1 -->
<g id="edge21" class="edge">
<title>SERVICE:bff&#45;&gt;SERVICE:bff_split&#45;1</title>
<g id="a_edge21"><a xlink:title="edge#20">
<path fill="none" stroke="black" d="M516.55,-183.57C556.25,-188.46 632.65,-197.88 683.45,-204.14"/>
<polygon fill="black" stroke="black" points="682.98,-207.61 693.33,-205.36 683.83,-200.66 682.98,-207.61"/>
</a>
</g>
<text text-anchor="middle" x="593.38" y="-204.06" font-family="Times,serif" font-size="14.00">CALLS [rest] (sync)</text>
</g>
<!-- SERVICE:bff&#45;&gt;SERVICE:payments -->
<g id="edge9" class="edge">
<title>SERVICE:bff&#45;&gt;SERVICE:payments</title>
<g id="a_edge9"><a xlink:title="edge#8">
<path fill="none" stroke="black" d="M516.64,-180.69C633.38,-181.94 1103.66,-184.61 1156.75,-147.36 1173.71,-135.46 1160.71,-119.59 1174.75,-104.36 1177.6,-101.26 1180.85,-98.43 1184.31,-95.86"/>
<polygon fill="black" stroke="black" points="1186.13,-98.85 1192.6,-90.46 1182.31,-92.98 1186.13,-98.85"/>
</a>
</g>
<text text-anchor="middle" x="876.38" y="-184.06" font-family="Times,serif" font-size="14.00">CALLS [rest] (sync)</text>
</g>
<!-- SERVICE:web&#45;ui_split_split&#45;&gt;SERVICE:bff&#45;4 -->
<g id="edge28" class="edge">
<title>SERVICE:web&#45;ui_split_split&#45;&gt;SERVICE:bff&#45;4</title>
<g id="a_edge28"><a xlink:title="edge#27">
<path fill="none" stroke="black" d="M800,-43.36C846.98,-43.36 909.16,-43.36 948.41,-43.36"/>
<polygon fill="black" stroke="black" points="948.3,-46.86 958.3,-43.36 948.29,-39.86 948.3,-46.86"/>
</a>
</g>
<text text-anchor="middle" x="876.38" y="-48.06" font-family="Times,serif" font-size="14.00">CALLS [rest] (sync)</text>
</g>
<!-- SERVICE:bff&#45;1&#45;&gt;SERVICE:bff -->
<g id="edge17" class="edge">
<title>SERVICE:bff&#45;1&#45;&gt;SERVICE:bff</title>
<g id="a_edge17"><a xlink:title="edge#16">
<path fill="none" stroke="black" d="M288.76,-180.36C328.84,-180.36 405.25,-180.36 451.06,-180.36"/>
<polygon fill="black" stroke="black" points="450.77,-183.86 460.77,-180.36 450.77,-176.86 450.77,-183.86"/>
</a>
</g>
<text text-anchor="middle" x="385.62" y="-185.06" font-family="Times,serif" font-size="14.00">CALLS [rest] (sync)</text>
</g>
<!-- SERVICE:orders_split&#45;1 -->
<g id="node20" class="node">
<title>SERVICE:orders_split&#45;1</title>
<path fill="#eef6ff" stroke="black" d="M2022.5,-109.36C2022.5,-109.36 1942.75,-109.36 1942.75,-109.36 1936.75,-109.36 1930.75,-103.36 1930.75,-97.36 1930.75,-97.36 1930.75,-85.36 1930.75,-85.36 1930.75,-79.36 1936.75,-73.36 1942.75,-73.36 1942.75,-73.36 2022.5,-73.36 2022.5,-73.36 2028.5,-73.36 2034.5,-79.36 2034.5,-85.36 2034.5,-85.36 2034.5,-97.36 2034.5,-97.36 2034.5,-103.36 2028.5,-109.36 2022.5,-109.36"/>
<text text-anchor="middle" x="1982.62" y="-87.06" font-family="Times,serif" font-size="14.00">orders_split&#45;1</text>
</g>
<!-- SERVICE:orders_split&#45;2&#45;&gt;SERVICE:orders_split&#45;1 -->
<g id="edge14" class="edge">
<title>SERVICE:orders_split&#45;2&#45;&gt;SERVICE:orders_split&#45;1</title>
<g id="a_edge14"><a xlink:title="edge#13">
<path fill="none" stroke="black" d="M1770.38,-91.36C1813.12,-91.36 1873.78,-91.36 1919.14,-91.36"/>
<polygon fill="black" stroke="black" points="1919.11,-94.86 1929.11,-91.36 1919.11,-87.86 1919.11,-94.86"/>
</a>
</g>
<text text-anchor="middle" x="1846.88" y="-96.06" font-family="Times,serif" font-size="14.00">CALLS [rest] (sync)</text>
</g>
<!-- SERVICE:payments&#45;&gt;SERVICE:orders -->
<g id="edge3" class="edge">
<title>SERVICE:payments&#45;&gt;SERVICE:orders</title>
<g id="a_edge3"><a xlink:title="edge#2">
<path fill="none" stroke="black" d="M1273.36,-59.59C1314.85,-46.12 1381.97,-31.12 1435.75,-51.36 1443.88,-54.42 1451.51,-59.66 1458.12,-65.36"/>
<polygon fill="black" stroke="black" points="1455.68,-67.87 1465.35,-72.21 1460.5,-62.79 1455.68,-67.87"/>
</a>
</g>
<text text-anchor="middle" x="1373.12" y="-56.06" font-family="Times,serif" font-size="14.00">CALLS [rest] (async)</text>
</g>
<!-- SERVICE:orders_split&#45;1&#45;&gt;SERVICE:orders_split -->
<g id="edge8" class="edge">
<title>SERVICE:orders_split&#45;1&#45;&gt;SERVICE:orders_split</title>
<g id="a_edge8"><a xlink:title="edge#7">
<path fill="none" stroke="black" d="M2034.92,-91.36C2077.86,-91.36 2139.08,-91.36 2183.46,-91.36"/>
<polygon fill="black" stroke="black" points="2183.42,-94.86 2193.42,-91.36 2183.42,-87.86 2183.42,-94.86"/>
</a>
</g>
<text text-anchor="middle" x="2118.38" y="-96.06" font-family="Times,serif" font-size="14.00">CALLS [rest] (sync)</text>
</g>
<!-- SERVICE:bff_split_split&#45;&gt;SERVICE:orders -->
<g id="edge13" class="edge">
<title>SERVICE:bff_split_split&#45;&gt;SERVICE:orders</title>
<g id="a_edge13"><a xlink:title="edge#12">
<path fill="none" stroke="black" d="M1272.62,-190.95C1284.54,-185.68 1297.89,-180.31 1310.5,-176.36 1364.67,-159.39 1387.62,-181.45 1435.75,-151.36 1448.19,-143.58 1458.49,-131.1 1466.13,-119.53"/>
<polygon fill="black" stroke="black" points="1469.1,-121.38 1471.36,-111.03 1463.14,-117.72 1469.1,-121.38"/>
</a>
</g>
<text text-anchor="middle" x="1373.12" y="-181.06" font-family="Times,serif" font-size="14.00">CALLS [rest] (sync)</text>
</g>
<!-- SERVICE:bff_split_split&#45;&gt;SERVICE:cart -->
<g id="edge12" class="edge">
<title>SERVICE:bff_split_split&#45;&gt;SERVICE:cart</title>
<g id="a_edge12"><a xlink:title="edge#11">
<path fill="none" stroke="black" d="M1285.15,-206.7C1332.22,-204.22 1401.33,-200.58 1443.73,-198.34"/>
<polygon fill="black" stroke="black" points="1443.88,-201.84 1453.69,-197.82 1443.51,-194.85 1443.88,-201.84"/>
</a>
</g>
<text text-anchor="middle" x="1373.12" y="-209.06" font-family="Times,serif" font-size="14.00">CALLS [rest] (sync)</text>
</g>
<!-- SERVICE:bff&#45;2_split&#45;&gt;SERVICE:orders -->
<g id="edge20" class="edge">
<title>SERVICE:bff&#45;2_split&#45;&gt;SERVICE:orders</title>
<g id="a_edge20"><a xlink:title="edge#19">
<path fill="none" stroke="black" d="M1270.37,-112.87C1289.75,-102.87 1309.91,-92.5 1310.5,-92.36 1354.64,-81.54 1407.14,-83.31 1442.19,-86.48"/>
<polygon fill="black" stroke="black" points="1441.56,-89.93 1451.86,-87.44 1442.25,-82.97 1441.56,-89.93"/>
</a>
</g>
<text text-anchor="middle" x="1373.12" y="-97.06" font-family="Times,serif" font-size="14.00">CALLS [rest] (sync)</text>
</g>
<!-- SERVICE:bff&#45;2_split&#45;&gt;SERVICE:cart -->
<g id="edge19" class="edge">
<title>SERVICE:bff&#45;2_split&#45;&gt;SERVICE:cart</title>
<g id="a_edge19"><a xlink:title="edge#18">
<path fill="none" stroke="black" d="M1274.56,-121.69C1317.06,-113.6 1385.03,-107.15 1435.75,-133.36 1450.04,-140.75 1460.92,-154.9 1468.45,-167.93"/>
<polygon fill="black" stroke="black" points="1465.3,-169.45 1473.08,-176.64 1471.48,-166.17 1465.3,-169.45"/>
</a>
</g>
<text text-anchor="middle" x="1373.12" y="-138.06" font-family="Times,serif" font-size="14.00">CALLS [rest] (sync)</text>
</g>
</g>
</svg>
