<?xml version="1.0" encoding="UTF-8" standalone="no"?>
<!DOCTYPE svg PUBLIC "-//W3C//DTD SVG 1.1//EN"
 "http://www.w3.org/Graphics/SVG/1.1/DTD/svg11.dtd">
<!-- Generated by graphviz version 9.0.0 (20230911.1827)
 -->
<!-- Title: G Pages: 1 -->
<svg width="1112pt" height="567pt"
 viewBox="0.00 0.00 1111.75 566.56" xmlns="http://www.w3.org/2000/svg" xmlns:xlink="http://www.w3.org/1999/xlink">
<g id="graph0" class="graph" transform="scale(1 1) rotate(0) translate(4 562.56)">
<title>G</title>
<polygon fill="white" stroke="none" points="-4,4 -4,-562.56 1107.75,-562.56 1107.75,4 -4,4"/>
<text text-anchor="middle" x="551.88" y="-541.26" font-family="Helvetica,sans-Serif" font-size="14.00">Architecture</text>
<!-- SERVICE:user&#45;service -->
<g id="node1" class="node">
<title>SERVICE:user&#45;service</title>
<path fill="#eef6ff" stroke="black" d="M617.25,-345.56C617.25,-345.56 548,-345.56 548,-345.56 542,-345.56 536,-339.56 536,-333.56 536,-333.56 536,-321.56 536,-321.56 536,-315.56 542,-309.56 548,-309.56 548,-309.56 617.25,-309.56 617.25,-309.56 623.25,-309.56 629.25,-315.56 629.25,-321.56 629.25,-321.56 629.25,-333.56 629.25,-333.56 629.25,-339.56 623.25,-345.56 617.25,-345.56"/>
<text text-anchor="middle" x="582.62" y="-323.26" font-family="Times,serif" font-size="14.00">user&#45;service</text>
</g>
<!-- DATABASE:users&#45;db -->
<g id="node5" class="node">
<title>DATABASE:users&#45;db</title>
<path fill="#fff3cd" stroke="black" d="M899.12,-463.29C899.12,-465.09 882.93,-466.56 863,-466.56 843.07,-466.56 826.88,-465.09 826.88,-463.29 826.88,-463.29 826.88,-433.83 826.88,-433.83 826.88,-432.03 843.07,-430.56 863,-430.56 882.93,-430.56 899.12,-432.03 899.12,-433.83 899.12,-433.83 899.12,-463.29 899.12,-463.29"/>
<path fill="none" stroke="black" d="M899.12,-463.29C899.12,-461.48 882.93,-460.02 863,-460.02 843.07,-460.02 826.88,-461.48 826.88,-463.29"/>
<text text-anchor="middle" x="863" y="-444.26" font-family="Times,serif" font-size="14.00">users&#45;db</text>
</g>
<!-- SERVICE:user&#45;service&#45;&gt;DATABASE:users&#45;db -->
<g id="edge17" class="edge">
<title>SERVICE:user&#45;service&#45;&gt;DATABASE:users&#45;db</title>
<g id="a_edge17"><a xlink:title="edge#16">
<path fill="none" stroke="black" d="M629.69,-345.26C637.33,-348.3 645.16,-351.48 652.5,-354.56 709.42,-378.47 774.15,-407.86 816.4,-427.34"/>
<polygon fill="black" stroke="black" points="814.72,-430.42 825.27,-431.44 817.66,-424.06 814.72,-430.42"/>
</a>
</g>
<text text-anchor="middle" x="731.25" y="-418.26" font-family="Times,serif" font-size="14.00">READS</text>
</g>
<!-- SERVICE:notification&#45;service -->
<g id="node2" class="node">
<title>SERVICE:notification&#45;service</title>
<path fill="#eef6ff" stroke="black" d="M640.5,-453.56C640.5,-453.56 524.75,-453.56 524.75,-453.56 518.75,-453.56 512.75,-447.56 512.75,-441.56 512.75,-441.56 512.75,-429.56 512.75,-429.56 512.75,-423.56 518.75,-417.56 524.75,-417.56 524.75,-417.56 640.5,-417.56 640.5,-417.56 646.5,-417.56 652.5,-423.56 652.5,-429.56 652.5,-429.56 652.5,-441.56 652.5,-441.56 652.5,-447.56 646.5,-453.56 640.5,-453.56"/>
<text text-anchor="middle" x="582.62" y="-431.26" font-family="Times,serif" font-size="14.00">notification&#45;service</text>
</g>
<!-- SERVICE:search&#45;service -->
<g id="node3" class="node">
<title>SERVICE:search&#45;service</title>
<path fill="#eef6ff" stroke="black" d="M624.75,-399.56C624.75,-399.56 540.5,-399.56 540.5,-399.56 534.5,-399.56 528.5,-393.56 528.5,-387.56 528.5,-387.56 528.5,-375.56 528.5,-375.56 528.5,-369.56 534.5,-363.56 540.5,-363.56 540.5,-363.56 624.75,-363.56 624.75,-363.56 630.75,-363.56 636.75,-369.56 636.75,-375.56 636.75,-375.56 636.75,-387.56 636.75,-387.56 636.75,-393.56 630.75,-399.56 624.75,-399.56"/>
<text text-anchor="middle" x="582.62" y="-377.26" font-family="Times,serif" font-size="14.00">search&#45;service</text>
</g>
<!-- DATABASE:orders&#45;db -->
<g id="node4" class="node">
<title>DATABASE:orders&#45;db</title>
<path fill="#fff3cd" stroke="black" d="M902.88,-218.29C902.88,-220.09 885,-221.56 863,-221.56 841,-221.56 823.12,-220.09 823.12,-218.29 823.12,-218.29 823.12,-188.83 823.12,-188.83 823.12,-187.03 841,-185.56 863,-185.56 885,-185.56 902.88,-187.03 902.88,-188.83 902.88,-188.83 902.88,-218.29 902.88,-218.29"/>
<path fill="none" stroke="black" d="M902.88,-218.29C902.88,-216.48 885,-215.02 863,-215.02 841,-215.02 823.12,-216.48 823.12,-218.29"/>
<text text-anchor="middle" x="863" y="-199.26" font-family="Times,serif" font-size="14.00">orders&#45;db</text>
</g>
<!-- DATABASE:payments&#45;db -->
<g id="node6" class="node">
<title>DATABASE:payments&#45;db</title>
<path fill="#fff3cd" stroke="black" d="M1103.75,-86.29C1103.75,-88.09 1081,-89.56 1053,-89.56 1025,-89.56 1002.25,-88.09 1002.25,-86.29 1002.25,-86.29 1002.25,-56.83 1002.25,-56.83 1002.25,-55.03 1025,-53.56 1053,-53.56 1081,-53.56 1103.75,-55.03 1103.75,-56.83 1103.75,-56.83 1103.75,-86.29 1103.75,-86.29"/>
<path fill="none" stroke="black" d="M1103.75,-86.29C1103.75,-84.48 1081,-83.02 1053,-83.02 1025,-83.02 1002.25,-84.48 1002.25,-86.29"/>
<text text-anchor="middle" x="1053" y="-67.26" font-family="Times,serif" font-size="14.00">payments&#45;db</text>
</g>
<!-- SERVICE:api&#45;gateway -->
<g id="node7" class="node">
<title>SERVICE:api&#45;gateway</title>
<path fill="#eef6ff" stroke="black" d="M83.5,-264.56C83.5,-264.56 12,-264.56 12,-264.56 6,-264.56 0,-258.56 0,-252.56 0,-252.56 0,-240.56 0,-240.56 0,-234.56 6,-228.56 12,-228.56 12,-228.56 83.5,-228.56 83.5,-228.56 89.5,-228.56 95.5,-234.56 95.5,-240.56 95.5,-240.56 95.5,-252.56 95.5,-252.56 95.5,-258.56 89.5,-264.56 83.5,-264.56"/>
<text text-anchor="middle" x="47.75" y="-242.26" font-family="Times,serif" font-size="14.00">api&#45;gateway</text>
</g>
<!-- SERVICE:order&#45;service -->
<g id="node8" class="node">
<title>SERVICE:order&#45;service</title>
<path fill="#eef6ff" stroke="black" d="M342.5,-264.56C342.5,-264.56 265.75,-264.56 265.75,-264.56 259.75,-264.56 253.75,-258.56 253.75,-252.56 253.75,-252.56 253.75,-240.56 253.75,-240.56 253.75,-234.56 259.75,-228.56 265.75,-228.56 265.75,-228.56 342.5,-228.56 342.5,-228.56 348.5,-228.56 354.5,-234.56 354.5,-240.56 354.5,-240.56 354.5,-252.56 354.5,-252.56 354.5,-258.56 348.5,-264.56 342.5,-264.56"/>
<text text-anchor="middle" x="304.12" y="-242.26" font-family="Times,serif" font-size="14.00">order&#45;service</text>
</g>
<!-- SERVICE:api&#45;gateway&#45;&gt;SERVICE:order&#45;service -->
<g id="edge1" class="edge">
<title>SERVICE:api&#45;gateway&#45;&gt;SERVICE:order&#45;service</title>
<g id="a_edge1"><a xlink:title="edge#0">
<path fill="none" stroke="black" d="M96,-246.56C137.24,-246.56 197.33,-246.56 242.18,-246.56"/>
<polygon fill="black" stroke="black" points="242.01,-250.06 252.01,-246.56 242.01,-243.06 242.01,-250.06"/>
</a>
</g>
<text text-anchor="middle" x="174.62" y="-251.26" font-family="Times,serif" font-size="14.00">calls (1 ep), 300rpm</text>
</g>
<!-- SERVICE:order&#45;service&#45;&gt;SERVICE:user&#45;service -->
<g id="edge3" class="edge">
<title>SERVICE:order&#45;service&#45;&gt;SERVICE:user&#45;service</title>
<g id="a_edge3"><a xlink:title="edge#2">
<path fill="none" stroke="black" d="M330.55,-265.02C342.72,-273.05 357.81,-281.9 372.5,-287.56 421.95,-306.62 481.59,-316.87 524.51,-322.21"/>
<polygon fill="black" stroke="black" points="524.03,-325.68 534.37,-323.38 524.85,-318.73 524.03,-325.68"/>
</a>
</g>
<text text-anchor="middle" x="433.62" y="-321.26" font-family="Times,serif" font-size="14.00">calls (1 ep), 260rpm</text>
</g>
<!-- SERVICE:order&#45;service&#45;&gt;SERVICE:notification&#45;service -->
<g id="edge5" class="edge">
<title>SERVICE:order&#45;service&#45;&gt;SERVICE:notification&#45;service</title>
<g id="a_edge5"><a xlink:title="edge#4">
<path fill="none" stroke="black" d="M307.64,-264.92C313.12,-297.4 329.32,-364.75 372.5,-398.56 408.53,-426.78 458.78,-436.33 501,-438.68"/>
<polygon fill="black" stroke="black" points="500.74,-442.18 510.87,-439.1 501.03,-435.18 500.74,-442.18"/>
</a>
</g>
<text text-anchor="middle" x="433.62" y="-442.26" font-family="Times,serif" font-size="14.00">calls (1 ep), 220rpm</text>
</g>
<!-- SERVICE:order&#45;service&#45;&gt;SERVICE:search&#45;service -->
<g id="edge6" class="edge">
<title>SERVICE:order&#45;service&#45;&gt;SERVICE:search&#45;service</title>
<g id="a_edge6"><a xlink:title="edge#5">
<path fill="none" stroke="black" d="M313.43,-264.95C324,-286.18 344.35,-320.49 372.5,-338.56 415.59,-366.23 473.08,-376.56 516.87,-380.2"/>
<polygon fill="black" stroke="black" points="516.53,-383.69 526.76,-380.92 517.04,-376.7 516.53,-383.69"/>
</a>
</g>
<text text-anchor="middle" x="433.62" y="-381.26" font-family="Times,serif" font-size="14.00">calls (1 ep), 180rpm</text>
</g>
<!-- SERVICE:order&#45;service&#45;&gt;DATABASE:orders&#45;db -->
<g id="edge7" class="edge">
<title>SERVICE:order&#45;service&#45;&gt;DATABASE:orders&#45;db</title>
<g id="a_edge7"><a xlink:title="edge#6">
<path fill="none" stroke="black" d="M354.69,-251.78C443.68,-259.72 635.82,-270.31 792,-233.56 800.41,-231.58 809.09,-228.66 817.35,-225.4"/>
<polygon fill="black" stroke="black" points="818.65,-228.65 826.52,-221.56 815.94,-222.2 818.65,-228.65"/>
</a>
</g>
<text text-anchor="middle" x="582.62" y="-263.26" font-family="Times,serif" font-size="14.00">READS</text>
</g>
<!-- SERVICE:order&#45;service&#45;&gt;DATABASE:orders&#45;db -->
<g id="edge9" class="edge">
<title>SERVICE:order&#45;service&#45;&gt;DATABASE:orders&#45;db</title>
<g id="a_edge9"><a xlink:title="edge#8">
<path fill="none" stroke="black" d="M354.54,-242.75C459.87,-234.61 705.46,-215.65 811.62,-207.45"/>
<polygon fill="black" stroke="black" points="811.75,-210.95 821.45,-206.69 811.21,-203.97 811.75,-210.95"/>
</a>
</g>
<text text-anchor="middle" x="582.62" y="-235.26" font-family="Times,serif" font-size="14.00">WRITES</text>
</g>
<!-- SERVICE:order&#45;service&#45;&gt;DATABASE:users&#45;db -->
<g id="edge8" class="edge">
<title>SERVICE:order&#45;service&#45;&gt;DATABASE:users&#45;db</title>
<g id="a_edge8"><a xlink:title="edge#7">
<path fill="none" stroke="black" d="M304.48,-265.04C304.13,-307.65 309.95,-412.71 372.5,-459.56 505.84,-559.44 721.92,-499.94 815.9,-466.56"/>
<polygon fill="black" stroke="black" points="816.84,-469.94 825.05,-463.24 814.46,-463.36 816.84,-469.94"/>
</a>
</g>
<text text-anchor="middle" x="582.62" y="-519.26" font-family="Times,serif" font-size="14.00">READS</text>
</g>
<!-- SERVICE:inventory&#45;service -->
<g id="node9" class="node">
<title>SERVICE:inventory&#45;service</title>
<path fill="#eef6ff" stroke="black" d="M633.75,-163.56C633.75,-163.56 531.5,-163.56 531.5,-163.56 525.5,-163.56 519.5,-157.56 519.5,-151.56 519.5,-151.56 519.5,-139.56 519.5,-139.56 519.5,-133.56 525.5,-127.56 531.5,-127.56 531.5,-127.56 633.75,-127.56 633.75,-127.56 639.75,-127.56 645.75,-133.56 645.75,-139.56 645.75,-139.56 645.75,-151.56 645.75,-151.56 645.75,-157.56 639.75,-163.56 633.75,-163.56"/>
<text text-anchor="middle" x="582.62" y="-141.26" font-family="Times,serif" font-size="14.00">inventory&#45;service</text>
</g>
<!-- SERVICE:order&#45;service&#45;&gt;SERVICE:inventory&#45;service -->
<g id="edge2" class="edge">
<title>SERVICE:order&#45;service&#45;&gt;SERVICE:inventory&#45;service</title>
<g id="a_edge2"><a xlink:title="edge#1">
<path fill="none" stroke="black" d="M320.97,-228.19C333.56,-214.8 352.37,-197.35 372.5,-187.56 422.22,-163.38 440.57,-175.58 494.75,-164.56 499.05,-163.69 503.47,-162.77 507.93,-161.84"/>
<polygon fill="black" stroke="black" points="508.5,-165.29 517.55,-159.79 507.05,-158.45 508.5,-165.29"/>
</a>
</g>
<text text-anchor="middle" x="433.62" y="-192.26" font-family="Times,serif" font-size="14.00">calls (1 ep), 950rpm</text>
</g>
<!-- SERVICE:billing&#45;service -->
<g id="node10" class="node">
<title>SERVICE:billing&#45;service</title>
<path fill="#eef6ff" stroke="black" d="M904,-89.56C904,-89.56 822,-89.56 822,-89.56 816,-89.56 810,-83.56 810,-77.56 810,-77.56 810,-65.56 810,-65.56 810,-59.56 816,-53.56 822,-53.56 822,-53.56 904,-53.56 904,-53.56 910,-53.56 916,-59.56 916,-65.56 916,-65.56 916,-77.56 916,-77.56 916,-83.56 910,-89.56 904,-89.56"/>
<text text-anchor="middle" x="863" y="-67.26" font-family="Times,serif" font-size="14.00">billing&#45;service</text>
</g>
<!-- SERVICE:order&#45;service&#45;&gt;SERVICE:billing&#45;service -->
<g id="edge4" class="edge">
<title>SERVICE:order&#45;service&#45;&gt;SERVICE:billing&#45;service</title>
<g id="a_edge4"><a xlink:title="edge#3">
<path fill="none" stroke="black" d="M309.24,-228.48C316.66,-200.38 335.11,-146.74 372.5,-120.56 501.35,-30.37 698.12,-44.58 798.42,-59.66"/>
<polygon fill="black" stroke="black" points="797.66,-63.09 808.08,-61.17 798.74,-56.17 797.66,-63.09"/>
</a>
</g>
<text text-anchor="middle" x="582.62" y="-67.26" font-family="Times,serif" font-size="14.00">calls (1 ep), 360rpm</text>
</g>
<!-- SERVICE:inventory&#45;service&#45;&gt;DATABASE:orders&#45;db -->
<g id="edge12" class="edge">
<title>SERVICE:inventory&#45;service&#45;&gt;DATABASE:orders&#45;db</title>
<g id="a_edge12"><a xlink:title="edge#11">
<path fill="none" stroke="black" d="M646.13,-135.22C688.54,-130.74 745.17,-129.78 792,-146.56 809.5,-152.83 825.81,-165.53 838.28,-177.35"/>
<polygon fill="black" stroke="black" points="835.64,-179.66 845.19,-184.24 840.58,-174.7 835.64,-179.66"/>
</a>
</g>
<text text-anchor="middle" x="731.25" y="-151.26" font-family="Times,serif" font-size="14.00">READS</text>
</g>
<!-- SERVICE:inventory&#45;service&#45;&gt;DATABASE:orders&#45;db -->
<g id="edge13" class="edge">
<title>SERVICE:inventory&#45;service&#45;&gt;DATABASE:orders&#45;db</title>
<g id="a_edge13"><a xlink:title="edge#12">
<path fill="none" stroke="black" d="M646.22,-159.47C654.38,-161.22 662.63,-162.96 670.5,-164.56 724.35,-175.54 738.2,-176.33 792,-187.56 798.41,-188.9 805.14,-190.36 811.78,-191.84"/>
<polygon fill="black" stroke="black" points="810.81,-195.21 821.34,-194 812.35,-188.38 810.81,-195.21"/>
</a>
</g>
<text text-anchor="middle" x="731.25" y="-192.26" font-family="Times,serif" font-size="14.00">WRITES</text>
</g>
<!-- SERVICE:inventory&#45;service&#45;&gt;SERVICE:order&#45;service -->
<g id="edge10" class="edge">
<title>SERVICE:inventory&#45;service&#45;&gt;SERVICE:order&#45;service</title>
<g id="a_edge10"><a xlink:title="edge#9">
<path fill="none" stroke="black" d="M519.23,-129.32C475.52,-121.45 417.16,-118.28 372.5,-142.56 343.49,-158.33 325.05,-192.58 314.93,-217.48"/>
<polygon fill="black" stroke="black" points="311.69,-216.15 311.4,-226.74 318.23,-218.65 311.69,-216.15"/>
</a>
</g>
<text text-anchor="middle" x="433.62" y="-147.26" font-family="Times,serif" font-size="14.00">calls (1 ep), 820rpm</text>
</g>
<!-- SERVICE:inventory&#45;service&#45;&gt;SERVICE:billing&#45;service -->
<g id="edge11" class="edge">
<title>SERVICE:inventory&#45;service&#45;&gt;SERVICE:billing&#45;service</title>
<g id="a_edge11"><a xlink:title="edge#10">
<path fill="none" stroke="black" d="M625.05,-127.08C639.26,-121.23 655.39,-115.1 670.5,-110.56 712.46,-97.95 760.82,-88.14 798.44,-81.51"/>
<polygon fill="black" stroke="black" points="799.01,-84.97 808.26,-79.81 797.81,-78.07 799.01,-84.97"/>
</a>
</g>
<text text-anchor="middle" x="731.25" y="-115.26" font-family="Times,serif" font-size="14.00">calls (1 ep), 320rpm</text>
</g>
<!-- SERVICE:billing&#45;service&#45;&gt;DATABASE:payments&#45;db -->
<g id="edge15" class="edge">
<title>SERVICE:billing&#45;service&#45;&gt;DATABASE:payments&#45;db</title>
<g id="a_edge15"><a xlink:title="edge#14">
<path fill="none" stroke="black" d="M916.37,-71.56C939.34,-71.56 966.46,-71.56 990.39,-71.56"/>
<polygon fill="black" stroke="black" points="990.34,-75.06 1000.34,-71.56 990.34,-68.06 990.34,-75.06"/>
</a>
</g>
<text text-anchor="middle" x="959.12" y="-76.26" font-family="Times,serif" font-size="14.00">READS</text>
</g>
<!-- SERVICE:billing&#45;service&#45;&gt;DATABASE:payments&#45;db -->
<g id="edge16" class="edge">
<title>SERVICE:billing&#45;service&#45;&gt;DATABASE:payments&#45;db</title>
<g id="a_edge16"><a xlink:title="edge#15">
<path fill="none" stroke="black" d="M916.34,-53.23C922.24,-51.73 928.21,-50.45 934,-49.56 956.07,-46.17 962.19,-46.07 984.25,-49.56 987.62,-50.1 991.06,-50.77 994.5,-51.55"/>
<polygon fill="black" stroke="black" points="993.43,-54.89 1003.99,-53.97 995.16,-48.11 993.43,-54.89"/>
</a>
</g>
<text text-anchor="middle" x="959.12" y="-54.26" font-family="Times,serif" font-size="14.00">WRITES</text>
</g>
<!-- SERVICE:billing&#45;service&#45;&gt;SERVICE:order&#45;service -->
<g id="edge14" class="edge">
<title>SERVICE:billing&#45;service&#45;&gt;SERVICE:order&#45;service</title>
<g id="a_edge14"><a xlink:title="edge#13">
<path fill="none" stroke="black" d="M817.18,-53.08C721.74,-17.04 497,49.66 372.5,-63.56 328.03,-104 312.83,-176.38 307.7,-216.93"/>
<polygon fill="black" stroke="black" points="304.24,-216.36 306.6,-226.69 311.2,-217.14 304.24,-216.36"/>
</a>
</g>
<text text-anchor="middle" x="582.62" y="-13.26" font-family="Times,serif" font-size="14.00">calls (1 ep), 260rpm</text>
</g>
</g>
</svg>
