<?xml version="1.0" encoding="UTF-8" standalone="no"?>
<!DOCTYPE svg PUBLIC "-//W3C//DTD SVG 1.1//EN"
 "http://www.w3.org/Graphics/SVG/1.1/DTD/svg11.dtd">
<!-- Generated by graphviz version 9.0.0 (20230911.1827)
 -->
<!-- Title: G Pages: 1 -->
<svg width="788pt" height="502pt"
 viewBox="0.00 0.00 788.25 502.00" xmlns="http://www.w3.org/2000/svg" xmlns:xlink="http://www.w3.org/1999/xlink">
<g id="graph0" class="graph" transform="scale(1 1) rotate(0) translate(4 498)">
<title>G</title>
<polygon fill="white" stroke="none" points="-4,4 -4,-498 784.25,-498 784.25,4 -4,4"/>
<text text-anchor="middle" x="390.12" y="-476.7" font-family="Helvetica,sans-Serif" font-size="14.00">Architecture</text>
<!-- SERVICE:catalog -->
<g id="node1" class="node">
<title>SERVICE:catalog</title>
<path fill="#eef6ff" stroke="black" d="M327.12,-252C327.12,-252 287.88,-252 287.88,-252 281.88,-252 275.88,-246 275.88,-240 275.88,-240 275.88,-228 275.88,-228 275.88,-222 281.88,-216 287.88,-216 287.88,-216 327.12,-216 327.12,-216 333.12,-216 339.12,-222 339.12,-228 339.12,-228 339.12,-240 339.12,-240 339.12,-246 333.12,-252 327.12,-252"/>
<text text-anchor="middle" x="307.5" y="-229.7" font-family="Times,serif" font-size="14.00">catalog</text>
</g>
<!-- SERVICE:support -->
<g id="node2" class="node">
<title>SERVICE:support</title>
<path fill="#eef6ff" stroke="black" d="M328.25,-198C328.25,-198 286.75,-198 286.75,-198 280.75,-198 274.75,-192 274.75,-186 274.75,-186 274.75,-174 274.75,-174 274.75,-168 280.75,-162 286.75,-162 286.75,-162 328.25,-162 328.25,-162 334.25,-162 340.25,-168 340.25,-174 340.25,-174 340.25,-186 340.25,-186 340.25,-192 334.25,-198 328.25,-198"/>
<text text-anchor="middle" x="307.5" y="-175.7" font-family="Times,serif" font-size="14.00">support</text>
</g>
<!-- SERVICE:profile -->
<g id="node3" class="node">
<title>SERVICE:profile</title>
<path fill="#eef6ff" stroke="black" d="M324.12,-144C324.12,-144 290.88,-144 290.88,-144 284.88,-144 278.88,-138 278.88,-132 278.88,-132 278.88,-120 278.88,-120 278.88,-114 284.88,-108 290.88,-108 290.88,-108 324.12,-108 324.12,-108 330.12,-108 336.12,-114 336.12,-120 336.12,-120 336.12,-132 336.12,-132 336.12,-138 330.12,-144 324.12,-144"/>
<text text-anchor="middle" x="307.5" y="-121.7" font-family="Times,serif" font-size="14.00">profile</text>
</g>
<!-- SERVICE:enricher -->
<g id="node4" class="node">
<title>SERVICE:enricher</title>
<path fill="#eef6ff" stroke="black" d="M560.25,-306C560.25,-306 515.75,-306 515.75,-306 509.75,-306 503.75,-300 503.75,-294 503.75,-294 503.75,-282 503.75,-282 503.75,-276 509.75,-270 515.75,-270 515.75,-270 560.25,-270 560.25,-270 566.25,-270 572.25,-276 572.25,-282 572.25,-282 572.25,-294 572.25,-294 572.25,-300 566.25,-306 560.25,-306"/>
<text text-anchor="middle" x="538" y="-283.7" font-family="Times,serif" font-size="14.00">enricher</text>
</g>
<!-- SERVICE:writer -->
<g id="node14" class="node">
<title>SERVICE:writer</title>
<path fill="#eef6ff" stroke="black" d="M768.25,-306C768.25,-306 738,-306 738,-306 732,-306 726,-300 726,-294 726,-294 726,-282 726,-282 726,-276 732,-270 738,-270 738,-270 768.25,-270 768.25,-270 774.25,-270 780.25,-276 780.25,-282 780.25,-282 780.25,-294 780.25,-294 780.25,-300 774.25,-306 768.25,-306"/>
<text text-anchor="middle" x="753.12" y="-283.7" font-family="Times,serif" font-size="14.00">writer</text>
</g>
<!-- SERVICE:enricher&#45;&gt;SERVICE:writer -->
<g id="edge8" class="edge">
<title>SERVICE:enricher&#45;&gt;SERVICE:writer</title>
<g id="a_edge8"><a xlink:title="edge#7">
<path fill="none" stroke="black" d="M572.3,-288C610.79,-288 674,-288 714.31,-288"/>
<polygon fill="black" stroke="black" points="714.26,-291.5 724.26,-288 714.26,-284.5 714.26,-291.5"/>
</a>
</g>
<text text-anchor="middle" x="649.12" y="-292.7" font-family="Times,serif" font-size="14.00">CALLS [rest] (sync)</text>
</g>
<!-- SERVICE:billing&#45;api -->
<g id="node5" class="node">
<title>SERVICE:billing&#45;api</title>
<path fill="#eef6ff" stroke="black" d="M84.25,-468C84.25,-468 27,-468 27,-468 21,-468 15,-462 15,-456 15,-456 15,-444 15,-444 15,-438 21,-432 27,-432 27,-432 84.25,-432 84.25,-432 90.25,-432 96.25,-438 96.25,-444 96.25,-444 96.25,-456 96.25,-456 96.25,-462 90.25,-468 84.25,-468"/>
<text text-anchor="middle" x="55.62" y="-445.7" font-family="Times,serif" font-size="14.00">billing&#45;api</text>
</g>
<!-- DATABASE:finance&#45;db -->
<g id="node8" class="node">
<title>DATABASE:finance&#45;db</title>
<path fill="#fff3cd" stroke="black" d="M350,-410.73C350,-412.53 330.95,-414 307.5,-414 284.05,-414 265,-412.53 265,-410.73 265,-410.73 265,-381.27 265,-381.27 265,-379.47 284.05,-378 307.5,-378 330.95,-378 350,-379.47 350,-381.27 350,-381.27 350,-410.73 350,-410.73"/>
<path fill="none" stroke="black" d="M350,-410.73C350,-408.92 330.95,-407.45 307.5,-407.45 284.05,-407.45 265,-408.92 265,-410.73"/>
<text text-anchor="middle" x="307.5" y="-391.7" font-family="Times,serif" font-size="14.00">finance&#45;db</text>
</g>
<!-- SERVICE:billing&#45;api&#45;&gt;DATABASE:finance&#45;db -->
<g id="edge9" class="edge">
<title>SERVICE:billing&#45;api&#45;&gt;DATABASE:finance&#45;db</title>
<g id="a_edge9"><a xlink:title="edge#8">
<path fill="none" stroke="black" d="M96.47,-445.51C135.31,-440.63 195.83,-431.63 247,-418 249.24,-417.4 251.52,-416.75 253.82,-416.07"/>
<polygon fill="black" stroke="black" points="254.67,-419.47 263.12,-413.08 252.53,-412.8 254.67,-419.47"/>
</a>
</g>
<text text-anchor="middle" x="188.12" y="-445.7" font-family="Times,serif" font-size="14.00">CALLS [rest] (sync)</text>
</g>
<!-- SERVICE:refund&#45;api -->
<g id="node6" class="node">
<title>SERVICE:refund&#45;api</title>
<path fill="#eef6ff" stroke="black" d="M85,-414C85,-414 26.25,-414 26.25,-414 20.25,-414 14.25,-408 14.25,-402 14.25,-402 14.25,-390 14.25,-390 14.25,-384 20.25,-378 26.25,-378 26.25,-378 85,-378 85,-378 91,-378 97,-384 97,-390 97,-390 97,-402 97,-402 97,-408 91,-414 85,-414"/>
<text text-anchor="middle" x="55.62" y="-391.7" font-family="Times,serif" font-size="14.00">refund&#45;api</text>
</g>
<!-- SERVICE:refund&#45;api&#45;&gt;DATABASE:finance&#45;db -->
<g id="edge10" class="edge">
<title>SERVICE:refund&#45;api&#45;&gt;DATABASE:finance&#45;db</title>
<g id="a_edge10"><a xlink:title="edge#9">
<path fill="none" stroke="black" d="M97.33,-396C139.78,-396 206.52,-396 253.17,-396"/>
<polygon fill="black" stroke="black" points="253.05,-399.5 263.05,-396 253.05,-392.5 253.05,-399.5"/>
</a>
</g>
<text text-anchor="middle" x="188.12" y="-400.7" font-family="Times,serif" font-size="14.00">CALLS [rest] (sync)</text>
</g>
<!-- SERVICE:settlement&#45;api -->
<g id="node7" class="node">
<title>SERVICE:settlement&#45;api</title>
<path fill="#eef6ff" stroke="black" d="M99.25,-360C99.25,-360 12,-360 12,-360 6,-360 0,-354 0,-348 0,-348 0,-336 0,-336 0,-330 6,-324 12,-324 12,-324 99.25,-324 99.25,-324 105.25,-324 111.25,-330 111.25,-336 111.25,-336 111.25,-348 111.25,-348 111.25,-354 105.25,-360 99.25,-360"/>
<text text-anchor="middle" x="55.62" y="-337.7" font-family="Times,serif" font-size="14.00">settlement&#45;api</text>
</g>
<!-- SERVICE:settlement&#45;api&#45;&gt;DATABASE:finance&#45;db -->
<g id="edge11" class="edge">
<title>SERVICE:settlement&#45;api&#45;&gt;DATABASE:finance&#45;db</title>
<g id="a_edge11"><a xlink:title="edge#10">
<path fill="none" stroke="black" d="M111.36,-348.43C149.73,-353.6 201.98,-362.01 247,-374 249.24,-374.6 251.52,-375.25 253.82,-375.93"/>
<polygon fill="black" stroke="black" points="252.53,-379.2 263.12,-378.92 254.67,-372.53 252.53,-379.2"/>
</a>
</g>
<text text-anchor="middle" x="188.12" y="-378.7" font-family="Times,serif" font-size="14.00">CALLS [rest] (sync)</text>
</g>
<!-- SERVICE:web&#45;ui -->
<g id="node9" class="node">
<title>SERVICE:web&#45;ui</title>
<path fill="#eef6ff" stroke="black" d="M73.75,-144C73.75,-144 37.5,-144 37.5,-144 31.5,-144 25.5,-138 25.5,-132 25.5,-132 25.5,-120 25.5,-120 25.5,-114 31.5,-108 37.5,-108 37.5,-108 73.75,-108 73.75,-108 79.75,-108 85.75,-114 85.75,-120 85.75,-120 85.75,-132 85.75,-132 85.75,-138 79.75,-144 73.75,-144"/>
<text text-anchor="middle" x="55.62" y="-121.7" font-family="Times,serif" font-size="14.00">web&#45;ui</text>
</g>
<!-- SERVICE:web&#45;ui&#45;&gt;SERVICE:catalog -->
<g id="edge2" class="edge">
<title>SERVICE:web&#45;ui&#45;&gt;SERVICE:catalog</title>
<g id="a_edge2"><a xlink:title="edge#1">
<path fill="none" stroke="black" d="M71.7,-144.46C85.2,-159.76 106.35,-180.9 129.25,-193 172.14,-215.67 227.38,-225.9 264.7,-230.45"/>
<polygon fill="black" stroke="black" points="263.84,-233.88 274.17,-231.52 264.63,-226.92 263.84,-233.88"/>
</a>
</g>
<text text-anchor="middle" x="188.12" y="-232.7" font-family="Times,serif" font-size="14.00">CALLS [rest] (sync)</text>
</g>
<!-- SERVICE:web&#45;ui&#45;&gt;SERVICE:support -->
<g id="edge4" class="edge">
<title>SERVICE:web&#45;ui&#45;&gt;SERVICE:support</title>
<g id="a_edge4"><a xlink:title="edge#3">
<path fill="none" stroke="black" d="M86.09,-135.77C99.21,-139.9 114.91,-144.54 129.25,-148 174.65,-158.94 227.4,-168 263.47,-173.66"/>
<polygon fill="black" stroke="black" points="262.66,-177.07 273.07,-175.14 263.73,-170.16 262.66,-177.07"/>
</a>
</g>
<text text-anchor="middle" x="188.12" y="-175.7" font-family="Times,serif" font-size="14.00">CALLS [rest] (sync)</text>
</g>
<!-- SERVICE:web&#45;ui&#45;&gt;SERVICE:profile -->
<g id="edge5" class="edge">
<title>SERVICE:web&#45;ui&#45;&gt;SERVICE:profile</title>
<g id="a_edge5"><a xlink:title="edge#4">
<path fill="none" stroke="black" d="M85.78,-126C130.71,-126 216.95,-126 267.3,-126"/>
<polygon fill="black" stroke="black" points="267.17,-129.5 277.17,-126 267.17,-122.5 267.17,-129.5"/>
</a>
</g>
<text text-anchor="middle" x="188.12" y="-130.7" font-family="Times,serif" font-size="14.00">CALLS [rest] (sync)</text>
</g>
<!-- SERVICE:auth -->
<g id="node10" class="node">
<title>SERVICE:auth</title>
<path fill="#eef6ff" stroke="black" d="M322.5,-90C322.5,-90 292.5,-90 292.5,-90 286.5,-90 280.5,-84 280.5,-78 280.5,-78 280.5,-66 280.5,-66 280.5,-60 286.5,-54 292.5,-54 292.5,-54 322.5,-54 322.5,-54 328.5,-54 334.5,-60 334.5,-66 334.5,-66 334.5,-78 334.5,-78 334.5,-84 328.5,-90 322.5,-90"/>
<text text-anchor="middle" x="307.5" y="-67.7" font-family="Times,serif" font-size="14.00">auth</text>
</g>
<!-- SERVICE:web&#45;ui&#45;&gt;SERVICE:auth -->
<g id="edge1" class="edge">
<title>SERVICE:web&#45;ui&#45;&gt;SERVICE:auth</title>
<g id="a_edge1"><a xlink:title="edge#0">
<path fill="none" stroke="black" d="M86.09,-116.23C99.21,-112.1 114.91,-107.46 129.25,-104 177.12,-92.47 233.16,-83.02 269.21,-77.45"/>
<polygon fill="black" stroke="black" points="269.32,-80.97 278.68,-76.01 268.27,-74.05 269.32,-80.97"/>
</a>
</g>
<text text-anchor="middle" x="188.12" y="-108.7" font-family="Times,serif" font-size="14.00">CALLS [rest] (sync)</text>
</g>
<!-- SERVICE:reviews -->
<g id="node11" class="node">
<title>SERVICE:reviews</title>
<path fill="#eef6ff" stroke="black" d="M327.88,-36C327.88,-36 287.12,-36 287.12,-36 281.12,-36 275.12,-30 275.12,-24 275.12,-24 275.12,-12 275.12,-12 275.12,-6 281.12,0 287.12,0 287.12,0 327.88,0 327.88,0 333.88,0 339.88,-6 339.88,-12 339.88,-12 339.88,-24 339.88,-24 339.88,-30 333.88,-36 327.88,-36"/>
<text text-anchor="middle" x="307.5" y="-13.7" font-family="Times,serif" font-size="14.00">reviews</text>
</g>
<!-- SERVICE:web&#45;ui&#45;&gt;SERVICE:reviews -->
<g id="edge3" class="edge">
<title>SERVICE:web&#45;ui&#45;&gt;SERVICE:reviews</title>
<g id="a_edge3"><a xlink:title="edge#2">
<path fill="none" stroke="black" d="M72.04,-107.55C85.59,-92.53 106.64,-71.92 129.25,-60 171.84,-37.55 226.47,-26.94 263.75,-22.04"/>
<polygon fill="black" stroke="black" points="263.72,-25.57 273.22,-20.88 262.87,-18.62 263.72,-25.57"/>
</a>
</g>
<text text-anchor="middle" x="188.12" y="-64.7" font-family="Times,serif" font-size="14.00">CALLS [rest] (sync)</text>
</g>
<!-- SERVICE:ingest&#45;worker -->
<g id="node12" class="node">
<title>SERVICE:ingest&#45;worker</title>
<path fill="#eef6ff" stroke="black" d="M96.62,-306C96.62,-306 14.62,-306 14.62,-306 8.62,-306 2.62,-300 2.62,-294 2.62,-294 2.62,-282 2.62,-282 2.62,-276 8.62,-270 14.62,-270 14.62,-270 96.62,-270 96.62,-270 102.62,-270 108.62,-276 108.62,-282 108.62,-282 108.62,-294 108.62,-294 108.62,-300 102.62,-306 96.62,-306"/>
<text text-anchor="middle" x="55.62" y="-283.7" font-family="Times,serif" font-size="14.00">ingest&#45;worker</text>
</g>
<!-- SERVICE:validator -->
<g id="node13" class="node">
<title>SERVICE:validator</title>
<path fill="#eef6ff" stroke="black" d="M331.62,-306C331.62,-306 283.38,-306 283.38,-306 277.38,-306 271.38,-300 271.38,-294 271.38,-294 271.38,-282 271.38,-282 271.38,-276 277.38,-270 283.38,-270 283.38,-270 331.62,-270 331.62,-270 337.62,-270 343.62,-276 343.62,-282 343.62,-282 343.62,-294 343.62,-294 343.62,-300 337.62,-306 331.62,-306"/>
<text text-anchor="middle" x="307.5" y="-283.7" font-family="Times,serif" font-size="14.00">validator</text>
</g>
<!-- SERVICE:ingest&#45;worker&#45;&gt;SERVICE:validator -->
<g id="edge6" class="edge">
<title>SERVICE:ingest&#45;worker&#45;&gt;SERVICE:validator</title>
<g id="a_edge6"><a xlink:title="edge#5">
<path fill="none" stroke="black" d="M109.01,-288C153.48,-288 216.73,-288 259.57,-288"/>
<polygon fill="black" stroke="black" points="259.57,-291.5 269.57,-288 259.57,-284.5 259.57,-291.5"/>
</a>
</g>
<text text-anchor="middle" x="188.12" y="-292.7" font-family="Times,serif" font-size="14.00">CALLS [rest] (sync)</text>
</g>
<!-- SERVICE:validator&#45;&gt;SERVICE:enricher -->
<g id="edge7" class="edge">
<title>SERVICE:validator&#45;&gt;SERVICE:enricher</title>
<g id="a_edge7"><a xlink:title="edge#6">
<path fill="none" stroke="black" d="M343.7,-288C383.61,-288 448.75,-288 492.24,-288"/>
<polygon fill="black" stroke="black" points="492.1,-291.5 502.1,-288 492.1,-284.5 492.1,-291.5"/>
</a>
</g>
<text text-anchor="middle" x="426.88" y="-292.7" font-family="Times,serif" font-size="14.00">CALLS [rest] (sync)</text>
</g>
</g>
</svg>
