<?xml version="1.0" encoding="UTF-8" standalone="no"?>
<!DOCTYPE svg PUBLIC "-//W3C//DTD SVG 1.1//EN"
 "http://www.w3.org/Graphics/SVG/1.1/DTD/svg11.dtd">
<!-- Generated by graphviz version 9.0.0 (20230911.1827)
 -->
<!-- Title: G Pages: 1 -->
<svg width="2146pt" height="339pt"
 viewBox="0.00 0.00 2145.75 339.47" xmlns="http://www.w3.org/2000/svg" xmlns:xlink="http://www.w3.org/1999/xlink">
<g id="graph0" class="graph" transform="scale(1 1) rotate(0) translate(4 335.47)">
<title>G</title>
<polygon fill="white" stroke="none" points="-4,4 -4,-335.47 2141.75,-335.47 2141.75,4 -4,4"/>
<text text-anchor="middle" x="1068.88" y="-314.17" font-family="Helvetica,sans-Serif" font-size="14.00">Architecture</text>
<!-- SERVICE:web&#45;ui -->
<g id="node1" class="node">
<title>SERVICE:web&#45;ui</title>
<path fill="#eef6ff" stroke="black" d="M48.25,-176.47C48.25,-176.47 12,-176.47 12,-176.47 6,-176.47 0,-170.47 0,-164.47 0,-164.47 0,-152.47 0,-152.47 0,-146.47 6,-140.47 12,-140.47 12,-140.47 48.25,-140.47 48.25,-140.47 54.25,-140.47 60.25,-146.47 60.25,-152.47 60.25,-152.47 60.25,-164.47 60.25,-164.47 60.25,-170.47 54.25,-176.47 48.25,-176.47"/>
<text text-anchor="middle" x="30.12" y="-154.17" font-family="Times,serif" font-size="14.00">web&#45;ui</text>
</g>
<!-- SERVICE:bff&#45;1 -->
<g id="node8" class="node">
<title>SERVICE:bff&#45;1</title>
<path fill="#eef6ff" stroke="black" d="M256,-176.47C256,-176.47 226,-176.47 226,-176.47 220,-176.47 214,-170.47 214,-164.47 214,-164.47 214,-152.47 214,-152.47 214,-146.47 220,-140.47 226,-140.47 226,-140.47 256,-140.47 256,-140.47 262,-140.47 268,-146.47 268,-152.47 268,-152.47 268,-164.47 268,-164.47 268,-170.47 262,-176.47 256,-176.47"/>
<text text-anchor="middle" x="241" y="-154.17" font-family="Times,serif" font-size="14.00">bff&#45;1</text>
</g>
<!-- SERVICE:web&#45;ui&#45;&gt;SERVICE:bff&#45;1 -->
<g id="edge19" class="edge">
<title>SERVICE:web&#45;ui&#45;&gt;SERVICE:bff&#45;1</title>
<g id="a_edge19"><a xlink:title="edge#18">
<path fill="none" stroke="black" d="M60.61,-158.47C97.76,-158.47 161.66,-158.47 202.32,-158.47"/>
<polygon fill="black" stroke="black" points="202.12,-161.97 212.12,-158.47 202.12,-154.97 202.12,-161.97"/>
</a>
</g>
<text text-anchor="middle" x="137.12" y="-163.17" font-family="Times,serif" font-size="14.00">CALLS [rest] (sync)</text>
</g>
<!-- SERVICE:auth -->
<g id="node2" class="node">
<title>SERVICE:auth</title>
<path fill="#eef6ff" stroke="black" d="M1050.12,-305.47C1050.12,-305.47 1020.12,-305.47 1020.12,-305.47 1014.12,-305.47 1008.12,-299.47 1008.12,-293.47 1008.12,-293.47 1008.12,-281.47 1008.12,-281.47 1008.12,-275.47 1014.12,-269.47 1020.12,-269.47 1020.12,-269.47 1050.12,-269.47 1050.12,-269.47 1056.12,-269.47 1062.12,-275.47 1062.12,-281.47 1062.12,-281.47 1062.12,-293.47 1062.12,-293.47 1062.12,-299.47 1056.12,-305.47 1050.12,-305.47"/>
<text text-anchor="middle" x="1035.12" y="-283.17" font-family="Times,serif" font-size="14.00">auth</text>
</g>
<!-- SERVICE:payments -->
<g id="node3" class="node">
<title>SERVICE:payments</title>
<path fill="#eef6ff" stroke="black" d="M1062.62,-69.47C1062.62,-69.47 1007.62,-69.47 1007.62,-69.47 1001.62,-69.47 995.62,-63.47 995.62,-57.47 995.62,-57.47 995.62,-45.47 995.62,-45.47 995.62,-39.47 1001.62,-33.47 1007.62,-33.47 1007.62,-33.47 1062.62,-33.47 1062.62,-33.47 1068.62,-33.47 1074.62,-39.47 1074.62,-45.47 1074.62,-45.47 1074.62,-57.47 1074.62,-57.47 1074.62,-63.47 1068.62,-69.47 1062.62,-69.47"/>
<text text-anchor="middle" x="1035.12" y="-47.17" font-family="Times,serif" font-size="14.00">payments</text>
</g>
<!-- SERVICE:orders -->
<g id="node12" class="node">
<title>SERVICE:orders</title>
<path fill="#eef6ff" stroke="black" d="M1330.75,-122.47C1330.75,-122.47 1297.5,-122.47 1297.5,-122.47 1291.5,-122.47 1285.5,-116.47 1285.5,-110.47 1285.5,-110.47 1285.5,-98.47 1285.5,-98.47 1285.5,-92.47 1291.5,-86.47 1297.5,-86.47 1297.5,-86.47 1330.75,-86.47 1330.75,-86.47 1336.75,-86.47 1342.75,-92.47 1342.75,-98.47 1342.75,-98.47 1342.75,-110.47 1342.75,-110.47 1342.75,-116.47 1336.75,-122.47 1330.75,-122.47"/>
<text text-anchor="middle" x="1314.12" y="-100.17" font-family="Times,serif" font-size="14.00">orders</text>
</g>
<!-- SERVICE:payments&#45;&gt;SERVICE:orders -->
<g id="edge5" class="edge">
<title>SERVICE:payments&#45;&gt;SERVICE:orders</title>
<g id="a_edge5"><a xlink:title="edge#4">
<path fill="none" stroke="black" d="M1074.87,-52.51C1115.8,-54.35 1181.92,-59.43 1237.25,-73.47 1249.82,-76.65 1263.05,-81.5 1274.88,-86.42"/>
<polygon fill="black" stroke="black" points="1273.34,-89.56 1283.91,-90.31 1276.11,-83.14 1273.34,-89.56"/>
</a>
</g>
<text text-anchor="middle" x="1174.62" y="-78.17" font-family="Times,serif" font-size="14.00">CALLS [rest] (async)</text>
</g>
<!-- SERVICE:inventory -->
<g id="node4" class="node">
<title>SERVICE:inventory</title>
<path fill="#eef6ff" stroke="black" d="M1733.38,-170.47C1733.38,-170.47 1681.38,-170.47 1681.38,-170.47 1675.38,-170.47 1669.38,-164.47 1669.38,-158.47 1669.38,-158.47 1669.38,-146.47 1669.38,-146.47 1669.38,-140.47 1675.38,-134.47 1681.38,-134.47 1681.38,-134.47 1733.38,-134.47 1733.38,-134.47 1739.38,-134.47 1745.38,-140.47 1745.38,-146.47 1745.38,-146.47 1745.38,-158.47 1745.38,-158.47 1745.38,-164.47 1739.38,-170.47 1733.38,-170.47"/>
<text text-anchor="middle" x="1707.38" y="-148.17" font-family="Times,serif" font-size="14.00">inventory</text>
</g>
<!-- DATABASE:shared&#45;db -->
<g id="node10" class="node">
<title>DATABASE:shared&#45;db</title>
<path fill="#fff3cd" stroke="black" d="M2137.75,-192.19C2137.75,-194 2119.37,-195.47 2096.75,-195.47 2074.13,-195.47 2055.75,-194 2055.75,-192.19 2055.75,-192.19 2055.75,-162.74 2055.75,-162.74 2055.75,-160.93 2074.13,-159.47 2096.75,-159.47 2119.37,-159.47 2137.75,-160.93 2137.75,-162.74 2137.75,-162.74 2137.75,-192.19 2137.75,-192.19"/>
<path fill="none" stroke="black" d="M2137.75,-192.19C2137.75,-190.39 2119.37,-188.92 2096.75,-188.92 2074.13,-188.92 2055.75,-190.39 2055.75,-192.19"/>
<text text-anchor="middle" x="2096.75" y="-173.17" font-family="Times,serif" font-size="14.00">shared&#45;db</text>
</g>
<!-- SERVICE:inventory&#45;&gt;DATABASE:shared&#45;db -->
<g id="edge9" class="edge">
<title>SERVICE:inventory&#45;&gt;DATABASE:shared&#45;db</title>
<g id="a_edge9"><a xlink:title="edge#8">
<path fill="none" stroke="black" d="M1745.87,-154.89C1815.55,-159.38 1965.07,-169.03 2044.2,-174.14"/>
<polygon fill="black" stroke="black" points="2043.63,-177.61 2053.83,-174.76 2044.08,-170.62 2043.63,-177.61"/>
</a>
</g>
<text text-anchor="middle" x="1843.12" y="-168.17" font-family="Times,serif" font-size="14.00">CALLS [rest] (sync)</text>
</g>
<!-- SERVICE:orders_split -->
<g id="node5" class="node">
<title>SERVICE:orders_split</title>
<path fill="#eef6ff" stroke="black" d="M1877,-118.47C1877,-118.47 1809.25,-118.47 1809.25,-118.47 1803.25,-118.47 1797.25,-112.47 1797.25,-106.47 1797.25,-106.47 1797.25,-94.47 1797.25,-94.47 1797.25,-88.47 1803.25,-82.47 1809.25,-82.47 1809.25,-82.47 1877,-82.47 1877,-82.47 1883,-82.47 1889,-88.47 1889,-94.47 1889,-94.47 1889,-106.47 1889,-106.47 1889,-112.47 1883,-118.47 1877,-118.47"/>
<text text-anchor="middle" x="1843.12" y="-96.17" font-family="Times,serif" font-size="14.00">orders_split</text>
</g>
<!-- SERVICE:orders_split&#45;&gt;DATABASE:shared&#45;db -->
<g id="edge8" class="edge">
<title>SERVICE:orders_split&#45;&gt;DATABASE:shared&#45;db</title>
<g id="a_edge8"><a xlink:title="edge#7">
<path fill="none" stroke="black" d="M1889.35,-97.68C1930.05,-96.97 1990.52,-100.46 2037.75,-122.47 2051.74,-128.99 2064.53,-140.23 2074.51,-150.85"/>
<polygon fill="black" stroke="black" points="2071.62,-152.87 2080.88,-158.01 2076.85,-148.21 2071.62,-152.87"/>
</a>
</g>
<text text-anchor="middle" x="1978.88" y="-127.17" font-family="Times,serif" font-size="14.00">CALLS [rest] (sync)</text>
</g>
<!-- SERVICE:bff -->
<g id="node6" class="node">
<title>SERVICE:bff</title>
<path fill="#eef6ff" stroke="black" d="M772.88,-230.47C772.88,-230.47 742.88,-230.47 742.88,-230.47 736.88,-230.47 730.88,-224.47 730.88,-218.47 730.88,-218.47 730.88,-206.47 730.88,-206.47 730.88,-200.47 736.88,-194.47 742.88,-194.47 742.88,-194.47 772.88,-194.47 772.88,-194.47 778.88,-194.47 784.88,-200.47 784.88,-206.47 784.88,-206.47 784.88,-218.47 784.88,-218.47 784.88,-224.47 778.88,-230.47 772.88,-230.47"/>
<text text-anchor="middle" x="757.88" y="-208.17" font-family="Times,serif" font-size="14.00">bff</text>
</g>
<!-- SERVICE:bff&#45;&gt;SERVICE:auth -->
<g id="edge12" class="edge">
<title>SERVICE:bff&#45;&gt;SERVICE:auth</title>
<g id="a_edge12"><a xlink:title="edge#11">
<path fill="none" stroke="black" d="M785.15,-225.8C800.88,-233.33 821.45,-242.43 840.5,-248.47 893.49,-265.27 957.01,-276.43 996.48,-282.36"/>
<polygon fill="black" stroke="black" points="995.78,-285.79 1006.18,-283.77 996.79,-278.86 995.78,-285.79"/>
</a>
</g>
<text text-anchor="middle" x="899.38" y="-279.17" font-family="Times,serif" font-size="14.00">CALLS [rest] (sync)</text>
</g>
<!-- SERVICE:bff&#45;&gt;SERVICE:payments -->
<g id="edge11" class="edge">
<title>SERVICE:bff&#45;&gt;SERVICE:payments</title>
<g id="a_edge11"><a xlink:title="edge#10">
<path fill="none" stroke="black" d="M785.29,-197.61C823.74,-175.83 897.19,-133.69 958.25,-95.47 966.4,-90.36 968.04,-88.46 976.25,-83.47 980.56,-80.84 985.09,-78.18 989.65,-75.56"/>
<polygon fill="black" stroke="black" points="991.28,-78.66 998.26,-70.7 987.83,-72.57 991.28,-78.66"/>
</a>
</g>
<text text-anchor="middle" x="899.38" y="-167.17" font-family="Times,serif" font-size="14.00">CALLS [rest] (sync)</text>
</g>
<!-- SERVICE:bff_split -->
<g id="node7" class="node">
<title>SERVICE:bff_split</title>
<path fill="#eef6ff" stroke="black" d="M1057,-251.47C1057,-251.47 1013.25,-251.47 1013.25,-251.47 1007.25,-251.47 1001.25,-245.47 1001.25,-239.47 1001.25,-239.47 1001.25,-227.47 1001.25,-227.47 1001.25,-221.47 1007.25,-215.47 1013.25,-215.47 1013.25,-215.47 1057,-215.47 1057,-215.47 1063,-215.47 1069,-221.47 1069,-227.47 1069,-227.47 1069,-239.47 1069,-239.47 1069,-245.47 1063,-251.47 1057,-251.47"/>
<text text-anchor="middle" x="1035.12" y="-229.17" font-family="Times,serif" font-size="14.00">bff_split</text>
</g>
<!-- SERVICE:bff&#45;&gt;SERVICE:bff_split -->
<g id="edge17" class="edge">
<title>SERVICE:bff&#45;&gt;SERVICE:bff_split</title>
<g id="a_edge17"><a xlink:title="edge#16">
<path fill="none" stroke="black" d="M785.27,-214.48C832.47,-218.08 931.83,-225.66 989.71,-230.08"/>
<polygon fill="black" stroke="black" points="989.3,-233.56 999.54,-230.83 989.83,-226.58 989.3,-233.56"/>
</a>
</g>
<text text-anchor="middle" x="899.38" y="-231.17" font-family="Times,serif" font-size="14.00">CALLS [rest] (sync)</text>
</g>
<!-- SERVICE:cart -->
<g id="node9" class="node">
<title>SERVICE:cart</title>
<path fill="#eef6ff" stroke="black" d="M1329.12,-224.47C1329.12,-224.47 1299.12,-224.47 1299.12,-224.47 1293.12,-224.47 1287.12,-218.47 1287.12,-212.47 1287.12,-212.47 1287.12,-200.47 1287.12,-200.47 1287.12,-194.47 1293.12,-188.47 1299.12,-188.47 1299.12,-188.47 1329.12,-188.47 1329.12,-188.47 1335.12,-188.47 1341.12,-194.47 1341.12,-200.47 1341.12,-200.47 1341.12,-212.47 1341.12,-212.47 1341.12,-218.47 1335.12,-224.47 1329.12,-224.47"/>
<text text-anchor="middle" x="1314.12" y="-202.17" font-family="Times,serif" font-size="14.00">cart</text>
</g>
<!-- SERVICE:bff_split&#45;&gt;SERVICE:cart -->
<g id="edge14" class="edge">
<title>SERVICE:bff_split&#45;&gt;SERVICE:cart</title>
<g id="a_edge14"><a xlink:title="edge#13">
<path fill="none" stroke="black" d="M1069.26,-230.24C1121.17,-225.18 1221.34,-215.41 1275.75,-210.11"/>
<polygon fill="black" stroke="black" points="1275.83,-213.62 1285.44,-209.16 1275.15,-206.65 1275.83,-213.62"/>
</a>
</g>
<text text-anchor="middle" x="1174.62" y="-230.17" font-family="Times,serif" font-size="14.00">CALLS [rest] (sync)</text>
</g>
<!-- SERVICE:catalog -->
<g id="node11" class="node">
<title>SERVICE:catalog</title>
<path fill="#eef6ff" stroke="black" d="M1598.25,-264.47C1598.25,-264.47 1559,-264.47 1559,-264.47 1553,-264.47 1547,-258.47 1547,-252.47 1547,-252.47 1547,-240.47 1547,-240.47 1547,-234.47 1553,-228.47 1559,-228.47 1559,-228.47 1598.25,-228.47 1598.25,-228.47 1604.25,-228.47 1610.25,-234.47 1610.25,-240.47 1610.25,-240.47 1610.25,-252.47 1610.25,-252.47 1610.25,-258.47 1604.25,-264.47 1598.25,-264.47"/>
<text text-anchor="middle" x="1578.62" y="-242.17" font-family="Times,serif" font-size="14.00">catalog</text>
</g>
<!-- SERVICE:bff_split&#45;&gt;SERVICE:catalog -->
<g id="edge13" class="edge">
<title>SERVICE:bff_split&#45;&gt;SERVICE:catalog</title>
<g id="a_edge13"><a xlink:title="edge#12">
<path fill="none" stroke="black" d="M1069.2,-240.79C1082.44,-243.4 1097.87,-246.05 1112,-247.47 1287.46,-265.1 1332.57,-260.12 1508.75,-252.47 1517.42,-252.09 1526.69,-251.45 1535.53,-250.72"/>
<polygon fill="black" stroke="black" points="1535.64,-254.22 1545.3,-249.86 1535.03,-247.25 1535.64,-254.22"/>
</a>
</g>
<text text-anchor="middle" x="1314.12" y="-263.17" font-family="Times,serif" font-size="14.00">CALLS [rest] (sync)</text>
</g>
<!-- SERVICE:bff_split&#45;&gt;SERVICE:orders -->
<g id="edge15" class="edge">
<title>SERVICE:bff_split&#45;&gt;SERVICE:orders</title>
<g id="a_edge15"><a xlink:title="edge#14">
<path fill="none" stroke="black" d="M1067.88,-214.99C1081.33,-207.39 1097.27,-198.71 1112,-191.47 1167.51,-164.18 1233.64,-136.46 1274.51,-119.86"/>
<polygon fill="black" stroke="black" points="1275.72,-123.15 1283.68,-116.15 1273.1,-116.66 1275.72,-123.15"/>
</a>
</g>
<text text-anchor="middle" x="1174.62" y="-196.17" font-family="Times,serif" font-size="14.00">CALLS [rest] (sync)</text>
</g>
<!-- SERVICE:bff&#45;1&#45;&gt;SERVICE:bff -->
<g id="edge20" class="edge">
<title>SERVICE:bff&#45;1&#45;&gt;SERVICE:bff</title>
<g id="a_edge20"><a xlink:title="edge#19">
<path fill="none" stroke="black" d="M268.39,-165.76C274.16,-167.16 280.26,-168.49 286,-169.47 445.54,-196.53 638.59,-207.41 718.94,-210.98"/>
<polygon fill="black" stroke="black" points="718.75,-214.48 728.89,-211.41 719.05,-207.48 718.75,-214.48"/>
</a>
</g>
<text text-anchor="middle" x="480.62" y="-203.17" font-family="Times,serif" font-size="14.00">CALLS [rest] (sync)</text>
</g>
<!-- SERVICE:web&#45;ui_split -->
<g id="node13" class="node">
<title>SERVICE:web&#45;ui_split</title>
<path fill="#eef6ff" stroke="black" d="M516,-123.47C516,-123.47 445.25,-123.47 445.25,-123.47 439.25,-123.47 433.25,-117.47 433.25,-111.47 433.25,-111.47 433.25,-99.47 433.25,-99.47 433.25,-93.47 439.25,-87.47 445.25,-87.47 445.25,-87.47 516,-87.47 516,-87.47 522,-87.47 528,-93.47 528,-99.47 528,-99.47 528,-111.47 528,-111.47 528,-117.47 522,-123.47 516,-123.47"/>
<text text-anchor="middle" x="480.62" y="-101.17" font-family="Times,serif" font-size="14.00">web&#45;ui_split</text>
</g>
<!-- SERVICE:bff&#45;1&#45;&gt;SERVICE:web&#45;ui_split -->
<g id="edge21" class="edge">
<title>SERVICE:bff&#45;1&#45;&gt;SERVICE:web&#45;ui_split</title>
<g id="a_edge21"><a xlink:title="edge#20">
<path fill="none" stroke="black" d="M268.34,-152.59C305.22,-144.36 373.22,-129.2 422.12,-118.29"/>
<polygon fill="black" stroke="black" points="422.7,-121.75 431.7,-116.15 421.18,-114.91 422.7,-121.75"/>
</a>
</g>
<text text-anchor="middle" x="344.88" y="-152.17" font-family="Times,serif" font-size="14.00">CALLS [rest] (sync)</text>
</g>
<!-- SERVICE:cart&#45;&gt;DATABASE:shared&#45;db -->
<g id="edge7" class="edge">
<title>SERVICE:cart&#45;&gt;DATABASE:shared&#45;db</title>
<g id="a_edge7"><a xlink:title="edge#6">
<path fill="none" stroke="black" d="M1341.41,-206.3C1435.73,-205.58 1765.99,-201.82 2037.75,-183.47 2039.91,-183.32 2042.11,-183.16 2044.34,-182.98"/>
<polygon fill="black" stroke="black" points="2044.37,-186.49 2054.02,-182.13 2043.76,-179.52 2044.37,-186.49"/>
</a>
</g>
<text text-anchor="middle" x="1707.38" y="-205.17" font-family="Times,serif" font-size="14.00">CALLS [rest] (sync)</text>
</g>
<!-- SERVICE:cart&#45;&gt;SERVICE:catalog -->
<g id="edge3" class="edge">
<title>SERVICE:cart&#45;&gt;SERVICE:catalog</title>
<g id="a_edge3"><a xlink:title="edge#2">
<path fill="none" stroke="black" d="M1341.47,-210.03C1378.76,-215.13 1449.05,-224.95 1508.75,-234.47 1517.42,-235.85 1526.68,-237.41 1535.52,-238.93"/>
<polygon fill="black" stroke="black" points="1534.86,-242.37 1545.31,-240.64 1536.06,-235.47 1534.86,-242.37"/>
</a>
</g>
<text text-anchor="middle" x="1449.88" y="-239.17" font-family="Times,serif" font-size="14.00">CALLS [rest] (sync)</text>
</g>
<!-- SERVICE:catalog&#45;&gt;DATABASE:shared&#45;db -->
<g id="edge6" class="edge">
<title>SERVICE:catalog&#45;&gt;DATABASE:shared&#45;db</title>
<g id="a_edge6"><a xlink:title="edge#5">
<path fill="none" stroke="black" d="M1610.64,-249.44C1686.04,-255.59 1884.05,-265.19 2037.75,-214.47 2046.52,-211.57 2055.29,-207.05 2063.25,-202.14"/>
<polygon fill="black" stroke="black" points="2065.16,-205.08 2071.58,-196.66 2061.31,-199.23 2065.16,-205.08"/>
</a>
</g>
<text text-anchor="middle" x="1843.12" y="-258.17" font-family="Times,serif" font-size="14.00">CALLS [rest] (sync)</text>
</g>
<!-- SERVICE:orders&#45;&gt;SERVICE:inventory -->
<g id="edge4" class="edge">
<title>SERVICE:orders&#45;&gt;SERVICE:inventory</title>
<g id="a_edge4"><a xlink:title="edge#3">
<path fill="none" stroke="black" d="M1342.91,-113.97C1357.13,-118.46 1374.81,-123.48 1391,-126.47 1484.39,-143.68 1595.45,-149.5 1657.74,-151.47"/>
<polygon fill="black" stroke="black" points="1657.55,-154.96 1667.65,-151.76 1657.75,-147.96 1657.55,-154.96"/>
</a>
</g>
<text text-anchor="middle" x="1449.88" y="-146.17" font-family="Times,serif" font-size="14.00">CALLS [rest] (sync)</text>
</g>
<!-- SERVICE:orders_split&#45;1 -->
<g id="node14" class="node">
<title>SERVICE:orders_split&#45;1</title>
<path fill="#eef6ff" stroke="black" d="M1618.5,-119.47C1618.5,-119.47 1538.75,-119.47 1538.75,-119.47 1532.75,-119.47 1526.75,-113.47 1526.75,-107.47 1526.75,-107.47 1526.75,-95.47 1526.75,-95.47 1526.75,-89.47 1532.75,-83.47 1538.75,-83.47 1538.75,-83.47 1618.5,-83.47 1618.5,-83.47 1624.5,-83.47 1630.5,-89.47 1630.5,-95.47 1630.5,-95.47 1630.5,-107.47 1630.5,-107.47 1630.5,-113.47 1624.5,-119.47 1618.5,-119.47"/>
<text text-anchor="middle" x="1578.62" y="-97.17" font-family="Times,serif" font-size="14.00">orders_split&#45;1</text>
</g>
<!-- SERVICE:orders&#45;&gt;SERVICE:orders_split&#45;1 -->
<g id="edge16" class="edge">
<title>SERVICE:orders&#45;&gt;SERVICE:orders_split&#45;1</title>
<g id="a_edge16"><a xlink:title="edge#15">
<path fill="none" stroke="black" d="M1343.22,-104.14C1383.96,-103.68 1460.55,-102.8 1515.09,-102.18"/>
<polygon fill="black" stroke="black" points="1514.9,-105.68 1524.86,-102.07 1514.82,-98.68 1514.9,-105.68"/>
</a>
</g>
<text text-anchor="middle" x="1449.88" y="-109.17" font-family="Times,serif" font-size="14.00">CALLS [rest] (sync)</text>
</g>
<!-- SERVICE:web&#45;ui_split_split -->
<g id="node15" class="node">
<title>SERVICE:web&#45;ui_split_split</title>
<path fill="#eef6ff" stroke="black" d="M810.5,-49.47C810.5,-49.47 705.25,-49.47 705.25,-49.47 699.25,-49.47 693.25,-43.47 693.25,-37.47 693.25,-37.47 693.25,-25.47 693.25,-25.47 693.25,-19.47 699.25,-13.47 705.25,-13.47 705.25,-13.47 810.5,-13.47 810.5,-13.47 816.5,-13.47 822.5,-19.47 822.5,-25.47 822.5,-25.47 822.5,-37.47 822.5,-37.47 822.5,-43.47 816.5,-49.47 810.5,-49.47"/>
<text text-anchor="middle" x="757.88" y="-27.17" font-family="Times,serif" font-size="14.00">web&#45;ui_split_split</text>
</g>
<!-- SERVICE:web&#45;ui_split&#45;&gt;SERVICE:web&#45;ui_split_split -->
<g id="edge18" class="edge">
<title>SERVICE:web&#45;ui_split&#45;&gt;SERVICE:web&#45;ui_split_split</title>
<g id="a_edge18"><a xlink:title="edge#17">
<path fill="none" stroke="black" d="M528.12,-91.77C537.81,-88.97 547.98,-86.09 557.5,-83.47 598.62,-72.14 644.69,-60.09 682.17,-50.44"/>
<polygon fill="black" stroke="black" points="682.73,-53.91 691.54,-48.03 680.98,-47.13 682.73,-53.91"/>
</a>
</g>
<text text-anchor="middle" x="616.38" y="-88.17" font-family="Times,serif" font-size="14.00">CALLS [rest] (sync)</text>
</g>
<!-- SERVICE:bff&#45;2 -->
<g id="node16" class="node">
<title>SERVICE:bff&#45;2</title>
<path fill="#eef6ff" stroke="black" d="M772.88,-123.47C772.88,-123.47 742.88,-123.47 742.88,-123.47 736.88,-123.47 730.88,-117.47 730.88,-111.47 730.88,-111.47 730.88,-99.47 730.88,-99.47 730.88,-93.47 736.88,-87.47 742.88,-87.47 742.88,-87.47 772.88,-87.47 772.88,-87.47 778.88,-87.47 784.88,-93.47 784.88,-99.47 784.88,-99.47 784.88,-111.47 784.88,-111.47 784.88,-117.47 778.88,-123.47 772.88,-123.47"/>
<text text-anchor="middle" x="757.88" y="-101.17" font-family="Times,serif" font-size="14.00">bff&#45;2</text>
</g>
<!-- SERVICE:web&#45;ui_split&#45;&gt;SERVICE:bff&#45;2 -->
<g id="edge22" class="edge">
<title>SERVICE:web&#45;ui_split&#45;&gt;SERVICE:bff&#45;2</title>
<g id="a_edge22"><a xlink:title="edge#21">
<path fill="none" stroke="black" d="M528.32,-105.47C582.02,-105.47 669.16,-105.47 718.89,-105.47"/>
<polygon fill="black" stroke="black" points="718.87,-108.97 728.87,-105.47 718.87,-101.97 718.87,-108.97"/>
</a>
</g>
<text text-anchor="middle" x="616.38" y="-110.17" font-family="Times,serif" font-size="14.00">CALLS [rest] (sync)</text>
</g>
<!-- SERVICE:orders_split&#45;1&#45;&gt;SERVICE:orders_split -->
<g id="edge10" class="edge">
<title>SERVICE:orders_split&#45;1&#45;&gt;SERVICE:orders_split</title>
<g id="a_edge10"><a xlink:title="edge#9">
<path fill="none" stroke="black" d="M1630.86,-101.27C1675.43,-101.1 1739.89,-100.85 1785.88,-100.68"/>
<polygon fill="black" stroke="black" points="1785.64,-104.18 1795.63,-100.64 1785.62,-97.18 1785.64,-104.18"/>
</a>
</g>
<text text-anchor="middle" x="1707.38" y="-106.17" font-family="Times,serif" font-size="14.00">CALLS [rest] (sync)</text>
</g>
<!-- SERVICE:web&#45;ui_split_split&#45;&gt;SERVICE:payments -->
<g id="edge2" class="edge">
<title>SERVICE:web&#45;ui_split_split&#45;&gt;SERVICE:payments</title>
<g id="a_edge2"><a xlink:title="edge#1">
<path fill="none" stroke="black" d="M822.88,-27.9C862.11,-26.67 913.26,-26.8 958.25,-32.47 966.77,-33.54 975.72,-35.24 984.36,-37.2"/>
<polygon fill="black" stroke="black" points="983.46,-40.58 994,-39.53 985.11,-33.78 983.46,-40.58"/>
</a>
</g>
<text text-anchor="middle" x="899.38" y="-37.17" font-family="Times,serif" font-size="14.00">CALLS [rest] (sync)</text>
</g>
<!-- SERVICE:web&#45;ui_split_split&#45;&gt;SERVICE:orders -->
<g id="edge1" class="edge">
<title>SERVICE:web&#45;ui_split_split&#45;&gt;SERVICE:orders</title>
<g id="a_edge1"><a xlink:title="edge#0">
<path fill="none" stroke="black" d="M822.83,-18.14C890.52,-6.04 1000.29,7.91 1094,-6.47 1159.96,-16.58 1177.37,-22.02 1237.25,-51.47 1252.68,-59.05 1268.47,-69.56 1281.62,-79.22"/>
<polygon fill="black" stroke="black" points="1279.39,-81.92 1289.48,-85.14 1283.6,-76.33 1279.39,-81.92"/>
</a>
</g>
<text text-anchor="middle" x="1035.12" y="-11.17" font-family="Times,serif" font-size="14.00">CALLS [rest] (sync)</text>
</g>
<!-- SERVICE:bff&#45;2&#45;&gt;SERVICE:payments -->
<g id="edge23" class="edge">
<title>SERVICE:bff&#45;2&#45;&gt;SERVICE:payments</title>
<g id="a_edge23"><a xlink:title="edge#22">
<path fill="none" stroke="black" d="M785.14,-93.15C800.87,-86.29 821.44,-78.2 840.5,-73.47 888.36,-61.58 944.5,-56.1 983.96,-53.58"/>
<polygon fill="black" stroke="black" points="984.11,-57.08 993.88,-52.99 983.69,-50.09 984.11,-57.08"/>
</a>
</g>
<text text-anchor="middle" x="899.38" y="-78.17" font-family="Times,serif" font-size="14.00">CALLS [rest] (sync)</text>
</g>
<!-- SERVICE:bff&#45;2&#45;&gt;SERVICE:cart -->
<g id="edge24" class="edge">
<title>SERVICE:bff&#45;2&#45;&gt;SERVICE:cart</title>
<g id="a_edge24"><a xlink:title="edge#23">
<path fill="none" stroke="black" d="M785.3,-110.24C801.27,-113.06 822.03,-116.62 840.5,-119.47 1016.39,-146.51 1065.87,-125.52 1237.25,-173.47 1250.41,-177.15 1264.27,-182.65 1276.49,-188.11"/>
<polygon fill="black" stroke="black" points="1274.82,-191.2 1285.37,-192.22 1277.76,-184.84 1274.82,-191.2"/>
</a>
</g>
<text text-anchor="middle" x="1035.12" y="-148.17" font-family="Times,serif" font-size="14.00">CALLS [rest] (sync)</text>
</g>
<!-- SERVICE:bff&#45;2&#45;&gt;SERVICE:orders -->
<g id="edge25" class="edge">
<title>SERVICE:bff&#45;2&#45;&gt;SERVICE:orders</title>
<g id="a_edge25"><a xlink:title="edge#24">
<path fill="none" stroke="black" d="M785.23,-105.42C874.72,-105.26 1167.24,-104.73 1273.82,-104.54"/>
<polygon fill="black" stroke="black" points="1273.79,-108.04 1283.78,-104.52 1273.78,-101.04 1273.79,-108.04"/>
</a>
</g>
<text text-anchor="middle" x="1035.12" y="-110.17" font-family="Times,serif" font-size="14.00">CALLS [rest] (sync)</text>
</g>
</g>
</svg>
