<?xml version="1.0" encoding="UTF-8" standalone="no"?>
<!DOCTYPE svg PUBLIC "-//W3C//DTD SVG 1.1//EN"
 "http://www.w3.org/Graphics/SVG/1.1/DTD/svg11.dtd">
<!-- Generated by graphviz version 9.0.0 (20230911.1827)
 -->
<!-- Title: G Pages: 1 -->
<svg width="2146pt" height="334pt"
 viewBox="0.00 0.00 2145.75 334.00" xmlns="http://www.w3.org/2000/svg" xmlns:xlink="http://www.w3.org/1999/xlink">
<g id="graph0" class="graph" transform="scale(1 1) rotate(0) translate(4 330)">
<title>G</title>
<polygon fill="white" stroke="none" points="-4,4 -4,-330 2141.75,-330 2141.75,4 -4,4"/>
<text text-anchor="middle" x="1068.88" y="-308.7" font-family="Helvetica,sans-Serif" font-size="14.00">Architecture</text>
<!-- SERVICE:bff&#45;2 -->
<g id="node1" class="node">
<title>SERVICE:bff&#45;2</title>
<path fill="#eef6ff" stroke="black" d="M772.88,-243C772.88,-243 742.88,-243 742.88,-243 736.88,-243 730.88,-237 730.88,-231 730.88,-231 730.88,-219 730.88,-219 730.88,-213 736.88,-207 742.88,-207 742.88,-207 772.88,-207 772.88,-207 778.88,-207 784.88,-213 784.88,-219 784.88,-219 784.88,-231 784.88,-231 784.88,-237 778.88,-243 772.88,-243"/>
<text text-anchor="middle" x="757.88" y="-220.7" font-family="Times,serif" font-size="14.00">bff&#45;2</text>
</g>
<!-- SERVICE:cart -->
<g id="node12" class="node">
<title>SERVICE:cart</title>
<path fill="#eef6ff" stroke="black" d="M1329.12,-117C1329.12,-117 1299.12,-117 1299.12,-117 1293.12,-117 1287.12,-111 1287.12,-105 1287.12,-105 1287.12,-93 1287.12,-93 1287.12,-87 1293.12,-81 1299.12,-81 1299.12,-81 1329.12,-81 1329.12,-81 1335.12,-81 1341.12,-87 1341.12,-93 1341.12,-93 1341.12,-105 1341.12,-105 1341.12,-111 1335.12,-117 1329.12,-117"/>
<text text-anchor="middle" x="1314.12" y="-94.7" font-family="Times,serif" font-size="14.00">cart</text>
</g>
<!-- SERVICE:bff&#45;2&#45;&gt;SERVICE:cart -->
<g id="edge24" class="edge">
<title>SERVICE:bff&#45;2&#45;&gt;SERVICE:cart</title>
<g id="a_edge24"><a xlink:title="edge#23">
<path fill="none" stroke="black" d="M785.34,-228.29C855.56,-236.47 1044.64,-254.64 1094,-220 1109.3,-209.26 1098.38,-194.79 1112,-182 1155.69,-140.96 1181.93,-155.07 1237.25,-132 1250.07,-126.66 1264.03,-120.64 1276.43,-115.23"/>
<polygon fill="black" stroke="black" points="1277.73,-118.48 1285.49,-111.26 1274.92,-112.07 1277.73,-118.48"/>
</a>
</g>
<text text-anchor="middle" x="1035.12" y="-244.7" font-family="Times,serif" font-size="14.00">CALLS [rest] (sync)</text>
</g>
<!-- SERVICE:orders -->
<g id="node13" class="node">
<title>SERVICE:orders</title>
<path fill="#eef6ff" stroke="black" d="M1330.75,-202C1330.75,-202 1297.5,-202 1297.5,-202 1291.5,-202 1285.5,-196 1285.5,-190 1285.5,-190 1285.5,-178 1285.5,-178 1285.5,-172 1291.5,-166 1297.5,-166 1297.5,-166 1330.75,-166 1330.75,-166 1336.75,-166 1342.75,-172 1342.75,-178 1342.75,-178 1342.75,-190 1342.75,-190 1342.75,-196 1336.75,-202 1330.75,-202"/>
<text text-anchor="middle" x="1314.12" y="-179.7" font-family="Times,serif" font-size="14.00">orders</text>
</g>
<!-- SERVICE:bff&#45;2&#45;&gt;SERVICE:orders -->
<g id="edge25" class="edge">
<title>SERVICE:bff&#45;2&#45;&gt;SERVICE:orders</title>
<g id="a_edge25"><a xlink:title="edge#24">
<path fill="none" stroke="black" d="M785.24,-239.51C800.82,-247.34 821.23,-256.34 840.5,-261 950.07,-287.48 983.2,-289.74 1094,-269 1160.18,-256.61 1232.09,-224.88 1274.84,-203.88"/>
<polygon fill="black" stroke="black" points="1276.32,-207.06 1283.71,-199.47 1273.2,-200.79 1276.32,-207.06"/>
</a>
</g>
<text text-anchor="middle" x="1035.12" y="-286.7" font-family="Times,serif" font-size="14.00">CALLS [rest] (sync)</text>
</g>
<!-- SERVICE:payments -->
<g id="node14" class="node">
<title>SERVICE:payments</title>
<path fill="#eef6ff" stroke="black" d="M1062.62,-211C1062.62,-211 1007.62,-211 1007.62,-211 1001.62,-211 995.62,-205 995.62,-199 995.62,-199 995.62,-187 995.62,-187 995.62,-181 1001.62,-175 1007.62,-175 1007.62,-175 1062.62,-175 1062.62,-175 1068.62,-175 1074.62,-181 1074.62,-187 1074.62,-187 1074.62,-199 1074.62,-199 1074.62,-205 1068.62,-211 1062.62,-211"/>
<text text-anchor="middle" x="1035.12" y="-188.7" font-family="Times,serif" font-size="14.00">payments</text>
</g>
<!-- SERVICE:bff&#45;2&#45;&gt;SERVICE:payments -->
<g id="edge23" class="edge">
<title>SERVICE:bff&#45;2&#45;&gt;SERVICE:payments</title>
<g id="a_edge23"><a xlink:title="edge#22">
<path fill="none" stroke="black" d="M785.34,-221.7C801.31,-219.72 822.07,-217.18 840.5,-215 889.17,-209.25 944.76,-202.97 983.85,-198.59"/>
<polygon fill="black" stroke="black" points="984.12,-202.08 993.67,-197.49 983.34,-195.13 984.12,-202.08"/>
</a>
</g>
<text text-anchor="middle" x="899.38" y="-219.7" font-family="Times,serif" font-size="14.00">CALLS [rest] (sync)</text>
</g>
<!-- SERVICE:web&#45;ui -->
<g id="node2" class="node">
<title>SERVICE:web&#45;ui</title>
<path fill="#eef6ff" stroke="black" d="M48.25,-131C48.25,-131 12,-131 12,-131 6,-131 0,-125 0,-119 0,-119 0,-107 0,-107 0,-101 6,-95 12,-95 12,-95 48.25,-95 48.25,-95 54.25,-95 60.25,-101 60.25,-107 60.25,-107 60.25,-119 60.25,-119 60.25,-125 54.25,-131 48.25,-131"/>
<text text-anchor="middle" x="30.12" y="-108.7" font-family="Times,serif" font-size="14.00">web&#45;ui</text>
</g>
<!-- SERVICE:bff&#45;1 -->
<g id="node7" class="node">
<title>SERVICE:bff&#45;1</title>
<path fill="#eef6ff" stroke="black" d="M256,-131C256,-131 226,-131 226,-131 220,-131 214,-125 214,-119 214,-119 214,-107 214,-107 214,-101 220,-95 226,-95 226,-95 256,-95 256,-95 262,-95 268,-101 268,-107 268,-107 268,-119 268,-119 268,-125 262,-131 256,-131"/>
<text text-anchor="middle" x="241" y="-108.7" font-family="Times,serif" font-size="14.00">bff&#45;1</text>
</g>
<!-- SERVICE:web&#45;ui&#45;&gt;SERVICE:bff&#45;1 -->
<g id="edge19" class="edge">
<title>SERVICE:web&#45;ui&#45;&gt;SERVICE:bff&#45;1</title>
<g id="a_edge19"><a xlink:title="edge#18">
<path fill="none" stroke="black" d="M60.61,-113C97.76,-113 161.66,-113 202.32,-113"/>
<polygon fill="black" stroke="black" points="202.12,-116.5 212.12,-113 202.12,-109.5 202.12,-116.5"/>
</a>
</g>
<text text-anchor="middle" x="137.12" y="-117.7" font-family="Times,serif" font-size="14.00">CALLS [rest] (sync)</text>
</g>
<!-- SERVICE:orders_split&#45;1 -->
<g id="node3" class="node">
<title>SERVICE:orders_split&#45;1</title>
<path fill="#eef6ff" stroke="black" d="M1618.5,-171C1618.5,-171 1538.75,-171 1538.75,-171 1532.75,-171 1526.75,-165 1526.75,-159 1526.75,-159 1526.75,-147 1526.75,-147 1526.75,-141 1532.75,-135 1538.75,-135 1538.75,-135 1618.5,-135 1618.5,-135 1624.5,-135 1630.5,-141 1630.5,-147 1630.5,-147 1630.5,-159 1630.5,-159 1630.5,-165 1624.5,-171 1618.5,-171"/>
<text text-anchor="middle" x="1578.62" y="-148.7" font-family="Times,serif" font-size="14.00">orders_split&#45;1</text>
</g>
<!-- SERVICE:orders_split -->
<g id="node5" class="node">
<title>SERVICE:orders_split</title>
<path fill="#eef6ff" stroke="black" d="M1877,-169C1877,-169 1809.25,-169 1809.25,-169 1803.25,-169 1797.25,-163 1797.25,-157 1797.25,-157 1797.25,-145 1797.25,-145 1797.25,-139 1803.25,-133 1809.25,-133 1809.25,-133 1877,-133 1877,-133 1883,-133 1889,-139 1889,-145 1889,-145 1889,-157 1889,-157 1889,-163 1883,-169 1877,-169"/>
<text text-anchor="middle" x="1843.12" y="-146.7" font-family="Times,serif" font-size="14.00">orders_split</text>
</g>
<!-- SERVICE:orders_split&#45;1&#45;&gt;SERVICE:orders_split -->
<g id="edge10" class="edge">
<title>SERVICE:orders_split&#45;1&#45;&gt;SERVICE:orders_split</title>
<g id="a_edge10"><a xlink:title="edge#9">
<path fill="none" stroke="black" d="M1630.86,-152.61C1675.43,-152.27 1739.89,-151.78 1785.88,-151.43"/>
<polygon fill="black" stroke="black" points="1785.66,-154.93 1795.63,-151.35 1785.6,-147.93 1785.66,-154.93"/>
</a>
</g>
<text text-anchor="middle" x="1707.38" y="-156.7" font-family="Times,serif" font-size="14.00">CALLS [rest] (sync)</text>
</g>
<!-- SERVICE:web&#45;ui_split -->
<g id="node4" class="node">
<title>SERVICE:web&#45;ui_split</title>
<path fill="#eef6ff" stroke="black" d="M516,-179C516,-179 445.25,-179 445.25,-179 439.25,-179 433.25,-173 433.25,-167 433.25,-167 433.25,-155 433.25,-155 433.25,-149 439.25,-143 445.25,-143 445.25,-143 516,-143 516,-143 522,-143 528,-149 528,-155 528,-155 528,-167 528,-167 528,-173 522,-179 516,-179"/>
<text text-anchor="middle" x="480.62" y="-156.7" font-family="Times,serif" font-size="14.00">web&#45;ui_split</text>
</g>
<!-- SERVICE:web&#45;ui_split&#45;&gt;SERVICE:bff&#45;2 -->
<g id="edge22" class="edge">
<title>SERVICE:web&#45;ui_split&#45;&gt;SERVICE:bff&#45;2</title>
<g id="a_edge22"><a xlink:title="edge#21">
<path fill="none" stroke="black" d="M528.43,-175.16C538.01,-177.9 548.05,-180.64 557.5,-183 613.57,-197.01 679.27,-210.25 719.48,-217.99"/>
<polygon fill="black" stroke="black" points="718.64,-221.39 729.12,-219.83 719.96,-214.51 718.64,-221.39"/>
</a>
</g>
<text text-anchor="middle" x="616.38" y="-212.7" font-family="Times,serif" font-size="14.00">CALLS [rest] (sync)</text>
</g>
<!-- SERVICE:web&#45;ui_split_split -->
<g id="node6" class="node">
<title>SERVICE:web&#45;ui_split_split</title>
<path fill="#eef6ff" stroke="black" d="M810.5,-179C810.5,-179 705.25,-179 705.25,-179 699.25,-179 693.25,-173 693.25,-167 693.25,-167 693.25,-155 693.25,-155 693.25,-149 699.25,-143 705.25,-143 705.25,-143 810.5,-143 810.5,-143 816.5,-143 822.5,-149 822.5,-155 822.5,-155 822.5,-167 822.5,-167 822.5,-173 816.5,-179 810.5,-179"/>
<text text-anchor="middle" x="757.88" y="-156.7" font-family="Times,serif" font-size="14.00">web&#45;ui_split_split</text>
</g>
<!-- SERVICE:web&#45;ui_split&#45;&gt;SERVICE:web&#45;ui_split_split -->
<g id="edge18" class="edge">
<title>SERVICE:web&#45;ui_split&#45;&gt;SERVICE:web&#45;ui_split_split</title>
<g id="a_edge18"><a xlink:title="edge#17">
<path fill="none" stroke="black" d="M528.32,-161C570.21,-161 632.44,-161 681.39,-161"/>
<polygon fill="black" stroke="black" points="681.38,-164.5 691.38,-161 681.38,-157.5 681.38,-164.5"/>
</a>
</g>
<text text-anchor="middle" x="616.38" y="-165.7" font-family="Times,serif" font-size="14.00">CALLS [rest] (sync)</text>
</g>
<!-- DATABASE:shared&#45;db -->
<g id="node10" class="node">
<title>DATABASE:shared&#45;db</title>
<path fill="#fff3cd" stroke="black" d="M2137.75,-142.73C2137.75,-144.53 2119.37,-146 2096.75,-146 2074.13,-146 2055.75,-144.53 2055.75,-142.73 2055.75,-142.73 2055.75,-113.27 2055.75,-113.27 2055.75,-111.47 2074.13,-110 2096.75,-110 2119.37,-110 2137.75,-111.47 2137.75,-113.27 2137.75,-113.27 2137.75,-142.73 2137.75,-142.73"/>
<path fill="none" stroke="black" d="M2137.75,-142.73C2137.75,-140.92 2119.37,-139.45 2096.75,-139.45 2074.13,-139.45 2055.75,-140.92 2055.75,-142.73"/>
<text text-anchor="middle" x="2096.75" y="-123.7" font-family="Times,serif" font-size="14.00">shared&#45;db</text>
</g>
<!-- SERVICE:orders_split&#45;&gt;DATABASE:shared&#45;db -->
<g id="edge8" class="edge">
<title>SERVICE:orders_split&#45;&gt;DATABASE:shared&#45;db</title>
<g id="a_edge8"><a xlink:title="edge#7">
<path fill="none" stroke="black" d="M1889.4,-146.86C1932.88,-142.89 1998.48,-136.89 2044,-132.73"/>
<polygon fill="black" stroke="black" points="2044.26,-136.22 2053.9,-131.83 2043.62,-129.25 2044.26,-136.22"/>
</a>
</g>
<text text-anchor="middle" x="1978.88" y="-147.7" font-family="Times,serif" font-size="14.00">CALLS [rest] (sync)</text>
</g>
<!-- SERVICE:web&#45;ui_split_split&#45;&gt;SERVICE:orders -->
<g id="edge1" class="edge">
<title>SERVICE:web&#45;ui_split_split&#45;&gt;SERVICE:orders</title>
<g id="a_edge1"><a xlink:title="edge#0">
<path fill="none" stroke="black" d="M822.85,-148.47C891.03,-137.43 1001.63,-126.19 1094,-148 1102.71,-150.05 1103.45,-154.37 1112,-157 1166.55,-173.79 1232.61,-180.14 1273.76,-182.54"/>
<polygon fill="black" stroke="black" points="1273.5,-186.03 1283.67,-183.07 1273.87,-179.04 1273.5,-186.03"/>
</a>
</g>
<text text-anchor="middle" x="1035.12" y="-152.7" font-family="Times,serif" font-size="14.00">CALLS [rest] (sync)</text>
</g>
<!-- SERVICE:web&#45;ui_split_split&#45;&gt;SERVICE:payments -->
<g id="edge2" class="edge">
<title>SERVICE:web&#45;ui_split_split&#45;&gt;SERVICE:payments</title>
<g id="a_edge2"><a xlink:title="edge#1">
<path fill="none" stroke="black" d="M822.95,-162.25C862.2,-163.73 913.36,-166.97 958.25,-174 966.74,-175.33 975.67,-177.16 984.3,-179.17"/>
<polygon fill="black" stroke="black" points="983.4,-182.55 993.94,-181.52 985.05,-175.75 983.4,-182.55"/>
</a>
</g>
<text text-anchor="middle" x="899.38" y="-178.7" font-family="Times,serif" font-size="14.00">CALLS [rest] (sync)</text>
</g>
<!-- SERVICE:bff&#45;1&#45;&gt;SERVICE:web&#45;ui_split -->
<g id="edge21" class="edge">
<title>SERVICE:bff&#45;1&#45;&gt;SERVICE:web&#45;ui_split</title>
<g id="a_edge21"><a xlink:title="edge#20">
<path fill="none" stroke="black" d="M268.34,-118.32C305.22,-125.77 373.22,-139.51 422.12,-149.38"/>
<polygon fill="black" stroke="black" points="421.2,-152.77 431.7,-151.32 422.59,-145.91 421.2,-152.77"/>
</a>
</g>
<text text-anchor="middle" x="344.88" y="-149.7" font-family="Times,serif" font-size="14.00">CALLS [rest] (sync)</text>
</g>
<!-- SERVICE:bff -->
<g id="node11" class="node">
<title>SERVICE:bff</title>
<path fill="#eef6ff" stroke="black" d="M772.88,-105C772.88,-105 742.88,-105 742.88,-105 736.88,-105 730.88,-99 730.88,-93 730.88,-93 730.88,-81 730.88,-81 730.88,-75 736.88,-69 742.88,-69 742.88,-69 772.88,-69 772.88,-69 778.88,-69 784.88,-75 784.88,-81 784.88,-81 784.88,-93 784.88,-93 784.88,-99 778.88,-105 772.88,-105"/>
<text text-anchor="middle" x="757.88" y="-82.7" font-family="Times,serif" font-size="14.00">bff</text>
</g>
<!-- SERVICE:bff&#45;1&#45;&gt;SERVICE:bff -->
<g id="edge20" class="edge">
<title>SERVICE:bff&#45;1&#45;&gt;SERVICE:bff</title>
<g id="a_edge20"><a xlink:title="edge#19">
<path fill="none" stroke="black" d="M268.24,-111.67C353.01,-107.39 619.79,-93.92 719.12,-88.91"/>
<polygon fill="black" stroke="black" points="719.06,-92.41 728.87,-88.41 718.7,-85.42 719.06,-92.41"/>
</a>
</g>
<text text-anchor="middle" x="480.62" y="-107.7" font-family="Times,serif" font-size="14.00">CALLS [rest] (sync)</text>
</g>
<!-- SERVICE:auth -->
<g id="node8" class="node">
<title>SERVICE:auth</title>
<path fill="#eef6ff" stroke="black" d="M1050.12,-36C1050.12,-36 1020.12,-36 1020.12,-36 1014.12,-36 1008.12,-30 1008.12,-24 1008.12,-24 1008.12,-12 1008.12,-12 1008.12,-6 1014.12,0 1020.12,0 1020.12,0 1050.12,0 1050.12,0 1056.12,0 1062.12,-6 1062.12,-12 1062.12,-12 1062.12,-24 1062.12,-24 1062.12,-30 1056.12,-36 1050.12,-36"/>
<text text-anchor="middle" x="1035.12" y="-13.7" font-family="Times,serif" font-size="14.00">auth</text>
</g>
<!-- SERVICE:catalog -->
<g id="node9" class="node">
<title>SERVICE:catalog</title>
<path fill="#eef6ff" stroke="black" d="M1598.25,-77C1598.25,-77 1559,-77 1559,-77 1553,-77 1547,-71 1547,-65 1547,-65 1547,-53 1547,-53 1547,-47 1553,-41 1559,-41 1559,-41 1598.25,-41 1598.25,-41 1604.25,-41 1610.25,-47 1610.25,-53 1610.25,-53 1610.25,-65 1610.25,-65 1610.25,-71 1604.25,-77 1598.25,-77"/>
<text text-anchor="middle" x="1578.62" y="-54.7" font-family="Times,serif" font-size="14.00">catalog</text>
</g>
<!-- SERVICE:catalog&#45;&gt;DATABASE:shared&#45;db -->
<g id="edge6" class="edge">
<title>SERVICE:catalog&#45;&gt;DATABASE:shared&#45;db</title>
<g id="a_edge6"><a xlink:title="edge#5">
<path fill="none" stroke="black" d="M1610.57,-55.44C1686.23,-47.94 1885.52,-35.46 2037.75,-91 2046.35,-94.14 2055,-98.71 2062.9,-103.58"/>
<polygon fill="black" stroke="black" points="2060.89,-106.45 2071.17,-109 2064.72,-100.59 2060.89,-106.45"/>
</a>
</g>
<text text-anchor="middle" x="1843.12" y="-62.7" font-family="Times,serif" font-size="14.00">CALLS [rest] (sync)</text>
</g>
<!-- SERVICE:bff&#45;&gt;SERVICE:auth -->
<g id="edge12" class="edge">
<title>SERVICE:bff&#45;&gt;SERVICE:auth</title>
<g id="a_edge12"><a xlink:title="edge#11">
<path fill="none" stroke="black" d="M784.41,-68.64C799.89,-58.47 820.46,-46.59 840.5,-40 892.75,-22.81 956.72,-18.58 996.46,-17.78"/>
<polygon fill="black" stroke="black" points="996.26,-21.29 1006.21,-17.66 996.17,-14.29 996.26,-21.29"/>
</a>
</g>
<text text-anchor="middle" x="899.38" y="-44.7" font-family="Times,serif" font-size="14.00">CALLS [rest] (sync)</text>
</g>
<!-- SERVICE:bff&#45;&gt;SERVICE:payments -->
<g id="edge11" class="edge">
<title>SERVICE:bff&#45;&gt;SERVICE:payments</title>
<g id="a_edge11"><a xlink:title="edge#10">
<path fill="none" stroke="black" d="M785.28,-89.36C825.34,-93.94 902.65,-106.82 958.25,-141 968.44,-147.26 966.89,-153.56 976.25,-161 979.64,-163.7 983.29,-166.29 987.05,-168.76"/>
<polygon fill="black" stroke="black" points="984.89,-171.54 995.24,-173.82 988.57,-165.58 984.89,-171.54"/>
</a>
</g>
<text text-anchor="middle" x="899.38" y="-145.7" font-family="Times,serif" font-size="14.00">CALLS [rest] (sync)</text>
</g>
<!-- SERVICE:bff_split -->
<g id="node16" class="node">
<title>SERVICE:bff_split</title>
<path fill="#eef6ff" stroke="black" d="M1057,-90C1057,-90 1013.25,-90 1013.25,-90 1007.25,-90 1001.25,-84 1001.25,-78 1001.25,-78 1001.25,-66 1001.25,-66 1001.25,-60 1007.25,-54 1013.25,-54 1013.25,-54 1057,-54 1057,-54 1063,-54 1069,-60 1069,-66 1069,-66 1069,-78 1069,-78 1069,-84 1063,-90 1057,-90"/>
<text text-anchor="middle" x="1035.12" y="-67.7" font-family="Times,serif" font-size="14.00">bff_split</text>
</g>
<!-- SERVICE:bff&#45;&gt;SERVICE:bff_split -->
<g id="edge17" class="edge">
<title>SERVICE:bff&#45;&gt;SERVICE:bff_split</title>
<g id="a_edge17"><a xlink:title="edge#16">
<path fill="none" stroke="black" d="M785.02,-78.48C800.87,-73.77 821.63,-68.39 840.5,-66 891.41,-59.56 950.41,-62.92 989.78,-66.7"/>
<polygon fill="black" stroke="black" points="989.28,-70.17 999.58,-67.69 989.99,-63.2 989.28,-70.17"/>
</a>
</g>
<text text-anchor="middle" x="899.38" y="-70.7" font-family="Times,serif" font-size="14.00">CALLS [rest] (sync)</text>
</g>
<!-- SERVICE:cart&#45;&gt;SERVICE:catalog -->
<g id="edge3" class="edge">
<title>SERVICE:cart&#45;&gt;SERVICE:catalog</title>
<g id="a_edge3"><a xlink:title="edge#2">
<path fill="none" stroke="black" d="M1341.35,-88.16C1355.76,-82.68 1374.09,-76.47 1391,-73 1439.89,-62.96 1497.3,-59.93 1535.41,-59.11"/>
<polygon fill="black" stroke="black" points="1535.13,-62.62 1545.07,-58.95 1535.01,-55.62 1535.13,-62.62"/>
</a>
</g>
<text text-anchor="middle" x="1449.88" y="-77.7" font-family="Times,serif" font-size="14.00">CALLS [rest] (sync)</text>
</g>
<!-- SERVICE:cart&#45;&gt;DATABASE:shared&#45;db -->
<g id="edge7" class="edge">
<title>SERVICE:cart&#45;&gt;DATABASE:shared&#45;db</title>
<g id="a_edge7"><a xlink:title="edge#6">
<path fill="none" stroke="black" d="M1341.55,-99.98C1453.94,-104.16 1893.43,-120.48 2044.45,-126.09"/>
<polygon fill="black" stroke="black" points="2044.02,-129.58 2054.15,-126.45 2044.28,-122.59 2044.02,-129.58"/>
</a>
</g>
<text text-anchor="middle" x="1707.38" y="-119.7" font-family="Times,serif" font-size="14.00">CALLS [rest] (sync)</text>
</g>
<!-- SERVICE:orders&#45;&gt;SERVICE:orders_split&#45;1 -->
<g id="edge16" class="edge">
<title>SERVICE:orders&#45;&gt;SERVICE:orders_split&#45;1</title>
<g id="a_edge16"><a xlink:title="edge#15">
<path fill="none" stroke="black" d="M1343.14,-173.15C1357.27,-168.2 1374.8,-162.81 1391,-160 1431.93,-152.89 1478.64,-151.15 1515.09,-151.18"/>
<polygon fill="black" stroke="black" points="1515.01,-154.67 1525.03,-151.23 1515.05,-147.67 1515.01,-154.67"/>
</a>
</g>
<text text-anchor="middle" x="1449.88" y="-164.7" font-family="Times,serif" font-size="14.00">CALLS [rest] (sync)</text>
</g>
<!-- SERVICE:inventory -->
<g id="node15" class="node">
<title>SERVICE:inventory</title>
<path fill="#eef6ff" stroke="black" d="M1733.38,-222C1733.38,-222 1681.38,-222 1681.38,-222 1675.38,-222 1669.38,-216 1669.38,-210 1669.38,-210 1669.38,-198 1669.38,-198 1669.38,-192 1675.38,-186 1681.38,-186 1681.38,-186 1733.38,-186 1733.38,-186 1739.38,-186 1745.38,-192 1745.38,-198 1745.38,-198 1745.38,-210 1745.38,-210 1745.38,-216 1739.38,-222 1733.38,-222"/>
<text text-anchor="middle" x="1707.38" y="-199.7" font-family="Times,serif" font-size="14.00">inventory</text>
</g>
<!-- SERVICE:orders&#45;&gt;SERVICE:inventory -->
<g id="edge4" class="edge">
<title>SERVICE:orders&#45;&gt;SERVICE:inventory</title>
<g id="a_edge4"><a xlink:title="edge#3">
<path fill="none" stroke="black" d="M1342.95,-185.42C1408.74,-188.79 1574.58,-197.26 1657.54,-201.5"/>
<polygon fill="black" stroke="black" points="1657.24,-204.99 1667.41,-202.01 1657.6,-198 1657.24,-204.99"/>
</a>
</g>
<text text-anchor="middle" x="1449.88" y="-197.7" font-family="Times,serif" font-size="14.00">CALLS [rest] (sync)</text>
</g>
<!-- SERVICE:payments&#45;&gt;SERVICE:orders -->
<g id="edge5" class="edge">
<title>SERVICE:payments&#45;&gt;SERVICE:orders</title>
<g id="a_edge5"><a xlink:title="edge#4">
<path fill="none" stroke="black" d="M1074.93,-191.74C1127.53,-190.03 1220.95,-186.99 1273.81,-185.28"/>
<polygon fill="black" stroke="black" points="1273.68,-188.78 1283.56,-184.96 1273.45,-181.79 1273.68,-188.78"/>
</a>
</g>
<text text-anchor="middle" x="1174.62" y="-194.7" font-family="Times,serif" font-size="14.00">CALLS [rest] (async)</text>
</g>
<!-- SERVICE:inventory&#45;&gt;DATABASE:shared&#45;db -->
<g id="edge9" class="edge">
<title>SERVICE:inventory&#45;&gt;DATABASE:shared&#45;db</title>
<g id="a_edge9"><a xlink:title="edge#8">
<path fill="none" stroke="black" d="M1745.66,-204.92C1808.02,-205.3 1936.61,-201.1 2037.75,-165 2046.37,-161.92 2055.03,-157.37 2062.93,-152.51"/>
<polygon fill="black" stroke="black" points="2064.75,-155.49 2071.2,-147.09 2060.92,-149.64 2064.75,-155.49"/>
</a>
</g>
<text text-anchor="middle" x="1843.12" y="-208.7" font-family="Times,serif" font-size="14.00">CALLS [rest] (sync)</text>
</g>
<!-- SERVICE:bff_split&#45;&gt;SERVICE:catalog -->
<g id="edge13" class="edge">
<title>SERVICE:bff_split&#45;&gt;SERVICE:catalog</title>
<g id="a_edge13"><a xlink:title="edge#12">
<path fill="none" stroke="black" d="M1069.3,-67.08C1082.56,-65.25 1097.98,-63.31 1112,-62 1267.54,-47.43 1453.58,-53.15 1535.44,-56.83"/>
<polygon fill="black" stroke="black" points="1535.09,-60.31 1545.24,-57.28 1535.41,-53.32 1535.09,-60.31"/>
</a>
</g>
<text text-anchor="middle" x="1314.12" y="-58.7" font-family="Times,serif" font-size="14.00">CALLS [rest] (sync)</text>
</g>
<!-- SERVICE:bff_split&#45;&gt;SERVICE:cart -->
<g id="edge14" class="edge">
<title>SERVICE:bff_split&#45;&gt;SERVICE:cart</title>
<g id="a_edge14"><a xlink:title="edge#13">
<path fill="none" stroke="black" d="M1069.15,-68.91C1109.23,-65.91 1178.72,-63.1 1237.25,-73 1250.18,-75.19 1263.86,-79.28 1276,-83.59"/>
<polygon fill="black" stroke="black" points="1274.63,-86.81 1285.22,-87.02 1277.07,-80.25 1274.63,-86.81"/>
</a>
</g>
<text text-anchor="middle" x="1174.62" y="-77.7" font-family="Times,serif" font-size="14.00">CALLS [rest] (sync)</text>
</g>
<!-- SERVICE:bff_split&#45;&gt;SERVICE:orders -->
<g id="edge15" class="edge">
<title>SERVICE:bff_split&#45;&gt;SERVICE:orders</title>
<g id="a_edge15"><a xlink:title="edge#14">
<path fill="none" stroke="black" d="M1069.34,-80.7C1109.91,-91.87 1180.17,-112.93 1237.25,-139 1250.2,-144.92 1263.75,-152.47 1275.76,-159.69"/>
<polygon fill="black" stroke="black" points="1273.79,-162.59 1284.15,-164.84 1277.46,-156.63 1273.79,-162.59"/>
</a>
</g>
<text text-anchor="middle" x="1174.62" y="-143.7" font-family="Times,serif" font-size="14.00">CALLS [rest] (sync)</text>
</g>
</g>
</svg>
