<?xml version="1.0" encoding="UTF-8" standalone="no"?>
<!DOCTYPE svg PUBLIC "-//W3C//DTD SVG 1.1//EN"
 "http://www.w3.org/Graphics/SVG/1.1/DTD/svg11.dtd">
<!-- Generated by graphviz version 9.0.0 (20230911.1827)
 -->
<!-- Title: G Pages: 1 -->
<svg width="1247pt" height="165pt"
 viewBox="0.00 0.00 1246.50 165.33" xmlns="http://www.w3.org/2000/svg" xmlns:xlink="http://www.w3.org/1999/xlink">
<g id="graph0" class="graph" transform="scale(1 1) rotate(0) translate(4 161.33)">
<title>G</title>
<polygon fill="white" stroke="none" points="-4,4 -4,-161.33 1242.5,-161.33 1242.5,4 -4,4"/>
<text text-anchor="middle" x="619.25" y="-140.03" font-family="Helvetica,sans-Serif" font-size="14.00">Architecture</text>
<!-- SERVICE:payments -->
<g id="node1" class="node">
<title>SERVICE:payments</title>
<path fill="#eef6ff" stroke="black" d="M978.88,-93.33C978.88,-93.33 923.88,-93.33 923.88,-93.33 917.88,-93.33 911.88,-87.33 911.88,-81.33 911.88,-81.33 911.88,-69.33 911.88,-69.33 911.88,-63.33 917.88,-57.33 923.88,-57.33 923.88,-57.33 978.88,-57.33 978.88,-57.33 984.88,-57.33 990.88,-63.33 990.88,-69.33 990.88,-69.33 990.88,-81.33 990.88,-81.33 990.88,-87.33 984.88,-93.33 978.88,-93.33"/>
<text text-anchor="middle" x="951.38" y="-71.03" font-family="Times,serif" font-size="14.00">payments</text>
</g>
<!-- DATABASE:database -->
<g id="node2" class="node">
<title>DATABASE:database</title>
<path fill="#fff3cd" stroke="black" d="M1238.5,-36.05C1238.5,-37.86 1221.8,-39.33 1201.25,-39.33 1180.7,-39.33 1164,-37.86 1164,-36.05 1164,-36.05 1164,-6.6 1164,-6.6 1164,-4.79 1180.7,-3.33 1201.25,-3.33 1221.8,-3.33 1238.5,-4.79 1238.5,-6.6 1238.5,-6.6 1238.5,-36.05 1238.5,-36.05"/>
<path fill="none" stroke="black" d="M1238.5,-36.05C1238.5,-34.25 1221.8,-32.78 1201.25,-32.78 1180.7,-32.78 1164,-34.25 1164,-36.05"/>
<text text-anchor="middle" x="1201.25" y="-17.03" font-family="Times,serif" font-size="14.00">database</text>
</g>
<!-- SERVICE:payments&#45;&gt;DATABASE:database -->
<g id="edge3" class="edge">
<title>SERVICE:payments&#45;&gt;DATABASE:database</title>
<g id="a_edge3"><a xlink:title="edge#2">
<path fill="none" stroke="black" d="M991.07,-67.91C1030.24,-60.27 1092.5,-47.75 1146,-35.33 1148.13,-34.83 1150.31,-34.31 1152.5,-33.78"/>
<polygon fill="black" stroke="black" points="1153.2,-37.22 1162.07,-31.42 1151.52,-30.42 1153.2,-37.22"/>
</a>
</g>
<text text-anchor="middle" x="1087.12" y="-64.03" font-family="Times,serif" font-size="14.00">CALLS [rest] (sync)</text>
</g>
<!-- SERVICE:bff -->
<g id="node3" class="node">
<title>SERVICE:bff</title>
<path fill="#eef6ff" stroke="black" d="M273.25,-77.33C273.25,-77.33 243.25,-77.33 243.25,-77.33 237.25,-77.33 231.25,-71.33 231.25,-65.33 231.25,-65.33 231.25,-53.33 231.25,-53.33 231.25,-47.33 237.25,-41.33 243.25,-41.33 243.25,-41.33 273.25,-41.33 273.25,-41.33 279.25,-41.33 285.25,-47.33 285.25,-53.33 285.25,-53.33 285.25,-65.33 285.25,-65.33 285.25,-71.33 279.25,-77.33 273.25,-77.33"/>
<text text-anchor="middle" x="258.25" y="-55.03" font-family="Times,serif" font-size="14.00">bff</text>
</g>
<!-- SERVICE:bff&#45;&gt;SERVICE:payments -->
<g id="edge8" class="edge">
<title>SERVICE:bff&#45;&gt;SERVICE:payments</title>
<g id="a_edge8"><a xlink:title="edge#7">
<path fill="none" stroke="black" d="M285.46,-69.1C291.24,-70.85 297.39,-72.41 303.25,-73.33 523.32,-107.84 790.69,-90.09 900.07,-80.33"/>
<polygon fill="black" stroke="black" points="900.24,-83.83 909.88,-79.44 899.61,-76.86 900.24,-83.83"/>
</a>
</g>
<text text-anchor="middle" x="604.62" y="-98.03" font-family="Times,serif" font-size="14.00">CALLS [rest] (sync)</text>
</g>
<!-- SERVICE:restaurants -->
<g id="node7" class="node">
<title>SERVICE:restaurants</title>
<path fill="#eef6ff" stroke="black" d="M515.75,-49.33C515.75,-49.33 451,-49.33 451,-49.33 445,-49.33 439,-43.33 439,-37.33 439,-37.33 439,-25.33 439,-25.33 439,-19.33 445,-13.33 451,-13.33 451,-13.33 515.75,-13.33 515.75,-13.33 521.75,-13.33 527.75,-19.33 527.75,-25.33 527.75,-25.33 527.75,-37.33 527.75,-37.33 527.75,-43.33 521.75,-49.33 515.75,-49.33"/>
<text text-anchor="middle" x="483.38" y="-27.03" font-family="Times,serif" font-size="14.00">restaurants</text>
</g>
<!-- SERVICE:bff&#45;&gt;SERVICE:restaurants -->
<g id="edge7" class="edge">
<title>SERVICE:bff&#45;&gt;SERVICE:restaurants</title>
<g id="a_edge7"><a xlink:title="edge#6">
<path fill="none" stroke="black" d="M285.72,-56C320.45,-51.65 382.25,-43.89 427.33,-38.23"/>
<polygon fill="black" stroke="black" points="427.7,-41.71 437.19,-37 426.83,-34.77 427.7,-41.71"/>
</a>
</g>
<text text-anchor="middle" x="362.12" y="-58.03" font-family="Times,serif" font-size="14.00">CALLS [rest] (sync)</text>
</g>
<!-- SERVICE:user -->
<g id="node4" class="node">
<title>SERVICE:user</title>
<path fill="#eef6ff" stroke="black" d="M53.75,-131.33C53.75,-131.33 23.75,-131.33 23.75,-131.33 17.75,-131.33 11.75,-125.33 11.75,-119.33 11.75,-119.33 11.75,-107.33 11.75,-107.33 11.75,-101.33 17.75,-95.33 23.75,-95.33 23.75,-95.33 53.75,-95.33 53.75,-95.33 59.75,-95.33 65.75,-101.33 65.75,-107.33 65.75,-107.33 65.75,-119.33 65.75,-119.33 65.75,-125.33 59.75,-131.33 53.75,-131.33"/>
<text text-anchor="middle" x="38.75" y="-109.03" font-family="Times,serif" font-size="14.00">user</text>
</g>
<!-- SERVICE:web page -->
<g id="node5" class="node">
<title>SERVICE:web page</title>
<path fill="#eef6ff" stroke="black" d="M65.5,-77.33C65.5,-77.33 12,-77.33 12,-77.33 6,-77.33 0,-71.33 0,-65.33 0,-65.33 0,-53.33 0,-53.33 0,-47.33 6,-41.33 12,-41.33 12,-41.33 65.5,-41.33 65.5,-41.33 71.5,-41.33 77.5,-47.33 77.5,-53.33 77.5,-53.33 77.5,-65.33 77.5,-65.33 77.5,-71.33 71.5,-77.33 65.5,-77.33"/>
<text text-anchor="middle" x="38.75" y="-55.03" font-family="Times,serif" font-size="14.00">web page</text>
</g>
<!-- SERVICE:web page&#45;&gt;SERVICE:bff -->
<g id="edge6" class="edge">
<title>SERVICE:web page&#45;&gt;SERVICE:bff</title>
<g id="a_edge6"><a xlink:title="edge#5">
<path fill="none" stroke="black" d="M77.88,-59.33C117.72,-59.33 179.82,-59.33 219.51,-59.33"/>
<polygon fill="black" stroke="black" points="219.29,-62.83 229.29,-59.33 219.29,-55.83 219.29,-62.83"/>
</a>
</g>
<text text-anchor="middle" x="154.38" y="-64.03" font-family="Times,serif" font-size="14.00">CALLS [rest] (sync)</text>
</g>
<!-- SERVICE:orders -->
<g id="node6" class="node">
<title>SERVICE:orders</title>
<path fill="#eef6ff" stroke="black" d="M726.75,-49.33C726.75,-49.33 693.5,-49.33 693.5,-49.33 687.5,-49.33 681.5,-43.33 681.5,-37.33 681.5,-37.33 681.5,-25.33 681.5,-25.33 681.5,-19.33 687.5,-13.33 693.5,-13.33 693.5,-13.33 726.75,-13.33 726.75,-13.33 732.75,-13.33 738.75,-19.33 738.75,-25.33 738.75,-25.33 738.75,-37.33 738.75,-37.33 738.75,-43.33 732.75,-49.33 726.75,-49.33"/>
<text text-anchor="middle" x="710.12" y="-27.03" font-family="Times,serif" font-size="14.00">orders</text>
</g>
<!-- SERVICE:orders&#45;&gt;SERVICE:payments -->
<g id="edge5" class="edge">
<title>SERVICE:orders&#45;&gt;SERVICE:payments</title>
<g id="a_edge5"><a xlink:title="edge#4">
<path fill="none" stroke="black" d="M739.04,-34.46C771.7,-38.35 827.31,-45.67 874.5,-55.33 882.94,-57.05 891.85,-59.15 900.47,-61.32"/>
<polygon fill="black" stroke="black" points="899.56,-64.7 910.12,-63.83 901.32,-57.93 899.56,-64.7"/>
</a>
</g>
<text text-anchor="middle" x="815.62" y="-60.03" font-family="Times,serif" font-size="14.00">CALLS [rest] (sync)</text>
</g>
<!-- SERVICE:orders&#45;&gt;DATABASE:database -->
<g id="edge1" class="edge">
<title>SERVICE:orders&#45;&gt;DATABASE:database</title>
<g id="a_edge1"><a xlink:title="edge#0">
<path fill="none" stroke="black" d="M739.18,-30.75C819.53,-29.11 1051.22,-24.37 1152.22,-22.31"/>
<polygon fill="black" stroke="black" points="1152.15,-25.81 1162.07,-22.11 1152,-18.81 1152.15,-25.81"/>
</a>
</g>
<text text-anchor="middle" x="951.38" y="-33.03" font-family="Times,serif" font-size="14.00">CALLS [rest] (sync)</text>
</g>
<!-- SERVICE:restaurants&#45;&gt;DATABASE:database -->
<g id="edge2" class="edge">
<title>SERVICE:restaurants&#45;&gt;DATABASE:database</title>
<g id="a_edge2"><a xlink:title="edge#1">
<path fill="none" stroke="black" d="M528.04,-23.6C567.87,-16.98 628.43,-7.94 681.5,-4.33 854.61,7.48 1060.8,-8.09 1152.36,-16.54"/>
<polygon fill="black" stroke="black" points="1151.94,-20.01 1162.22,-17.46 1152.59,-13.04 1151.94,-20.01"/>
</a>
</g>
<text text-anchor="middle" x="815.62" y="-6.03" font-family="Times,serif" font-size="14.00">CALLS [rest] (sync)</text>
</g>
<!-- SERVICE:restaurants&#45;&gt;SERVICE:orders -->
<g id="edge4" class="edge">
<title>SERVICE:restaurants&#45;&gt;SERVICE:orders</title>
<g id="a_edge4"><a xlink:title="edge#3">
<path fill="none" stroke="black" d="M528.24,-31.33C569.43,-31.33 630.47,-31.33 670.03,-31.33"/>
<polygon fill="black" stroke="black" points="669.81,-34.83 679.81,-31.33 669.81,-27.83 669.81,-34.83"/>
</a>
</g>
<text text-anchor="middle" x="604.62" y="-36.03" font-family="Times,serif" font-size="14.00">CALLS [rest] (sync)</text>
</g>
</g>
</svg>
