<?xml version="1.0" encoding="UTF-8" standalone="no"?>
<!DOCTYPE svg PUBLIC "-//W3C//DTD SVG 1.1//EN"
 "http://www.w3.org/Graphics/SVG/1.1/DTD/svg11.dtd">
<!-- Generated by graphviz version 9.0.0 (20230911.1827)
 -->
<!-- Title: G Pages: 1 -->
<svg width="1096pt" height="342pt"
 viewBox="0.00 0.00 1095.50 342.14" xmlns="http://www.w3.org/2000/svg" xmlns:xlink="http://www.w3.org/1999/xlink">
<g id="graph0" class="graph" transform="scale(1 1) rotate(0) translate(4 338.14)">
<title>G</title>
<polygon fill="white" stroke="none" points="-4,4 -4,-338.14 1091.5,-338.14 1091.5,4 -4,4"/>
<text text-anchor="middle" x="543.75" y="-316.84" font-family="Helvetica,sans-Serif" font-size="14.00">Architecture</text>
<!-- SERVICE:bff -->
<g id="node1" class="node">
<title>SERVICE:bff</title>
<path fill="#eef6ff" stroke="black" d="M276.38,-171.14C276.38,-171.14 246.38,-171.14 246.38,-171.14 240.38,-171.14 234.38,-165.14 234.38,-159.14 234.38,-159.14 234.38,-147.14 234.38,-147.14 234.38,-141.14 240.38,-135.14 246.38,-135.14 246.38,-135.14 276.38,-135.14 276.38,-135.14 282.38,-135.14 288.38,-141.14 288.38,-147.14 288.38,-147.14 288.38,-159.14 288.38,-159.14 288.38,-165.14 282.38,-171.14 276.38,-171.14"/>
<text text-anchor="middle" x="261.38" y="-148.84" font-family="Times,serif" font-size="14.00">bff</text>
</g>
<!-- SERVICE:auth -->
<g id="node3" class="node">
<title>SERVICE:auth</title>
<path fill="#eef6ff" stroke="black" d="M536.38,-252.14C536.38,-252.14 506.38,-252.14 506.38,-252.14 500.38,-252.14 494.38,-246.14 494.38,-240.14 494.38,-240.14 494.38,-228.14 494.38,-228.14 494.38,-222.14 500.38,-216.14 506.38,-216.14 506.38,-216.14 536.38,-216.14 536.38,-216.14 542.38,-216.14 548.38,-222.14 548.38,-228.14 548.38,-228.14 548.38,-240.14 548.38,-240.14 548.38,-246.14 542.38,-252.14 536.38,-252.14"/>
<text text-anchor="middle" x="521.38" y="-229.84" font-family="Times,serif" font-size="14.00">auth</text>
</g>
<!-- SERVICE:bff&#45;&gt;SERVICE:auth -->
<g id="edge18" class="edge">
<title>SERVICE:bff&#45;&gt;SERVICE:auth</title>
<g id="a_edge18"><a xlink:title="edge#17">
<path fill="none" stroke="black" d="M286.6,-171.54C298.2,-179.56 312.63,-188.42 326.75,-194.14 378.6,-215.18 442.93,-225.65 482.82,-230.47"/>
<polygon fill="black" stroke="black" points="482.3,-233.94 492.63,-231.6 483.09,-226.98 482.3,-233.94"/>
</a>
</g>
<text text-anchor="middle" x="385.62" y="-228.84" font-family="Times,serif" font-size="14.00">CALLS [rest] (sync)</text>
</g>
<!-- SERVICE:catalog -->
<g id="node4" class="node">
<title>SERVICE:catalog</title>
<path fill="#eef6ff" stroke="black" d="M812.5,-252.14C812.5,-252.14 773.25,-252.14 773.25,-252.14 767.25,-252.14 761.25,-246.14 761.25,-240.14 761.25,-240.14 761.25,-228.14 761.25,-228.14 761.25,-222.14 767.25,-216.14 773.25,-216.14 773.25,-216.14 812.5,-216.14 812.5,-216.14 818.5,-216.14 824.5,-222.14 824.5,-228.14 824.5,-228.14 824.5,-240.14 824.5,-240.14 824.5,-246.14 818.5,-252.14 812.5,-252.14"/>
<text text-anchor="middle" x="792.88" y="-229.84" font-family="Times,serif" font-size="14.00">catalog</text>
</g>
<!-- SERVICE:bff&#45;&gt;SERVICE:catalog -->
<g id="edge14" class="edge">
<title>SERVICE:bff&#45;&gt;SERVICE:catalog</title>
<g id="a_edge14"><a xlink:title="edge#13">
<path fill="none" stroke="black" d="M269.41,-171.41C278.88,-193.23 297.91,-228.95 326.75,-246.14 462.87,-327.31 663.53,-277.02 749.86,-249.09"/>
<polygon fill="black" stroke="black" points="750.95,-252.42 759.35,-245.96 748.75,-245.77 750.95,-252.42"/>
</a>
</g>
<text text-anchor="middle" x="521.38" y="-294.84" font-family="Times,serif" font-size="14.00">CALLS [rest] (sync)</text>
</g>
<!-- SERVICE:cart -->
<g id="node5" class="node">
<title>SERVICE:cart</title>
<path fill="#eef6ff" stroke="black" d="M536.38,-198.14C536.38,-198.14 506.38,-198.14 506.38,-198.14 500.38,-198.14 494.38,-192.14 494.38,-186.14 494.38,-186.14 494.38,-174.14 494.38,-174.14 494.38,-168.14 500.38,-162.14 506.38,-162.14 506.38,-162.14 536.38,-162.14 536.38,-162.14 542.38,-162.14 548.38,-168.14 548.38,-174.14 548.38,-174.14 548.38,-186.14 548.38,-186.14 548.38,-192.14 542.38,-198.14 536.38,-198.14"/>
<text text-anchor="middle" x="521.38" y="-175.84" font-family="Times,serif" font-size="14.00">cart</text>
</g>
<!-- SERVICE:bff&#45;&gt;SERVICE:cart -->
<g id="edge15" class="edge">
<title>SERVICE:bff&#45;&gt;SERVICE:cart</title>
<g id="a_edge15"><a xlink:title="edge#14">
<path fill="none" stroke="black" d="M288.53,-155.88C334.51,-160.69 429.93,-170.68 482.9,-176.22"/>
<polygon fill="black" stroke="black" points="482.33,-179.68 492.64,-177.24 483.06,-172.72 482.33,-179.68"/>
</a>
</g>
<text text-anchor="middle" x="385.62" y="-176.84" font-family="Times,serif" font-size="14.00">CALLS [rest] (sync)</text>
</g>
<!-- SERVICE:orders -->
<g id="node6" class="node">
<title>SERVICE:orders</title>
<path fill="#eef6ff" stroke="black" d="M538,-72.14C538,-72.14 504.75,-72.14 504.75,-72.14 498.75,-72.14 492.75,-66.14 492.75,-60.14 492.75,-60.14 492.75,-48.14 492.75,-48.14 492.75,-42.14 498.75,-36.14 504.75,-36.14 504.75,-36.14 538,-36.14 538,-36.14 544,-36.14 550,-42.14 550,-48.14 550,-48.14 550,-60.14 550,-60.14 550,-66.14 544,-72.14 538,-72.14"/>
<text text-anchor="middle" x="521.38" y="-49.84" font-family="Times,serif" font-size="14.00">orders</text>
</g>
<!-- SERVICE:bff&#45;&gt;SERVICE:orders -->
<g id="edge16" class="edge">
<title>SERVICE:bff&#45;&gt;SERVICE:orders</title>
<g id="a_edge16"><a xlink:title="edge#15">
<path fill="none" stroke="black" d="M278.86,-134.9C288.22,-124.06 299.81,-109.81 308.75,-96.14 318.32,-81.5 311.99,-70.52 326.75,-61.14 373.33,-31.55 439.74,-37.02 481.43,-44.76"/>
<polygon fill="black" stroke="black" points="480.51,-48.14 491.01,-46.68 481.89,-41.28 480.51,-48.14"/>
</a>
</g>
<text text-anchor="middle" x="385.62" y="-65.84" font-family="Times,serif" font-size="14.00">CALLS [rest] (sync)</text>
</g>
<!-- SERVICE:payments -->
<g id="node10" class="node">
<title>SERVICE:payments</title>
<path fill="#eef6ff" stroke="black" d="M1074,-37.14C1074,-37.14 1019,-37.14 1019,-37.14 1013,-37.14 1007,-31.14 1007,-25.14 1007,-25.14 1007,-13.14 1007,-13.14 1007,-7.14 1013,-1.14 1019,-1.14 1019,-1.14 1074,-1.14 1074,-1.14 1080,-1.14 1086,-7.14 1086,-13.14 1086,-13.14 1086,-25.14 1086,-25.14 1086,-31.14 1080,-37.14 1074,-37.14"/>
<text text-anchor="middle" x="1046.5" y="-14.84" font-family="Times,serif" font-size="14.00">payments</text>
</g>
<!-- SERVICE:bff&#45;&gt;SERVICE:payments -->
<g id="edge17" class="edge">
<title>SERVICE:bff&#45;&gt;SERVICE:payments</title>
<g id="a_edge17"><a xlink:title="edge#16">
<path fill="none" stroke="black" d="M288.66,-152.65C415.24,-150.21 957.1,-138.68 987.5,-120.14 1013.46,-104.31 1028.94,-72.23 1037.29,-48.45"/>
<polygon fill="black" stroke="black" points="1040.6,-49.58 1040.36,-38.99 1033.94,-47.42 1040.6,-49.58"/>
</a>
</g>
<text text-anchor="middle" x="657.12" y="-148.84" font-family="Times,serif" font-size="14.00">CALLS [rest] (sync)</text>
</g>
<!-- SERVICE:web&#45;ui -->
<g id="node2" class="node">
<title>SERVICE:web&#45;ui</title>
<path fill="#eef6ff" stroke="black" d="M48.25,-113.14C48.25,-113.14 12,-113.14 12,-113.14 6,-113.14 0,-107.14 0,-101.14 0,-101.14 0,-89.14 0,-89.14 0,-83.14 6,-77.14 12,-77.14 12,-77.14 48.25,-77.14 48.25,-77.14 54.25,-77.14 60.25,-83.14 60.25,-89.14 60.25,-89.14 60.25,-101.14 60.25,-101.14 60.25,-107.14 54.25,-113.14 48.25,-113.14"/>
<text text-anchor="middle" x="30.12" y="-90.84" font-family="Times,serif" font-size="14.00">web&#45;ui</text>
</g>
<!-- SERVICE:web&#45;ui&#45;&gt;SERVICE:bff -->
<g id="edge13" class="edge">
<title>SERVICE:web&#45;ui&#45;&gt;SERVICE:bff</title>
<g id="a_edge13"><a xlink:title="edge#12">
<path fill="none" stroke="black" d="M60.63,-102.61C102.12,-113.11 177.71,-132.23 223.06,-143.7"/>
<polygon fill="black" stroke="black" points="222.16,-147.09 232.71,-146.14 223.87,-140.3 222.16,-147.09"/>
</a>
</g>
<text text-anchor="middle" x="137.12" y="-139.84" font-family="Times,serif" font-size="14.00">CALLS [rest] (sync)</text>
</g>
<!-- SERVICE:web&#45;ui_split -->
<g id="node9" class="node">
<title>SERVICE:web&#45;ui_split</title>
<path fill="#eef6ff" stroke="black" d="M296.75,-87.14C296.75,-87.14 226,-87.14 226,-87.14 220,-87.14 214,-81.14 214,-75.14 214,-75.14 214,-63.14 214,-63.14 214,-57.14 220,-51.14 226,-51.14 226,-51.14 296.75,-51.14 296.75,-51.14 302.75,-51.14 308.75,-57.14 308.75,-63.14 308.75,-63.14 308.75,-75.14 308.75,-75.14 308.75,-81.14 302.75,-87.14 296.75,-87.14"/>
<text text-anchor="middle" x="261.38" y="-64.84" font-family="Times,serif" font-size="14.00">web&#45;ui_split</text>
</g>
<!-- SERVICE:web&#45;ui&#45;&gt;SERVICE:web&#45;ui_split -->
<g id="edge12" class="edge">
<title>SERVICE:web&#45;ui&#45;&gt;SERVICE:web&#45;ui_split</title>
<g id="a_edge12"><a xlink:title="edge#11">
<path fill="none" stroke="black" d="M60.71,-83.74C66.45,-81.91 72.48,-80.26 78.25,-79.14 119.21,-71.22 166.24,-68.8 202.25,-68.33"/>
<polygon fill="black" stroke="black" points="202.05,-71.83 212.02,-68.25 201.99,-64.83 202.05,-71.83"/>
</a>
</g>
<text text-anchor="middle" x="137.12" y="-83.84" font-family="Times,serif" font-size="14.00">CALLS [rest] (sync)</text>
</g>
<!-- DATABASE:shared&#45;db -->
<g id="node7" class="node">
<title>DATABASE:shared&#45;db</title>
<path fill="#fff3cd" stroke="black" d="M1087.5,-154.87C1087.5,-156.68 1069.12,-158.14 1046.5,-158.14 1023.88,-158.14 1005.5,-156.68 1005.5,-154.87 1005.5,-154.87 1005.5,-125.42 1005.5,-125.42 1005.5,-123.61 1023.88,-122.14 1046.5,-122.14 1069.12,-122.14 1087.5,-123.61 1087.5,-125.42 1087.5,-125.42 1087.5,-154.87 1087.5,-154.87"/>
<path fill="none" stroke="black" d="M1087.5,-154.87C1087.5,-153.07 1069.12,-151.6 1046.5,-151.6 1023.88,-151.6 1005.5,-153.07 1005.5,-154.87"/>
<text text-anchor="middle" x="1046.5" y="-135.84" font-family="Times,serif" font-size="14.00">shared&#45;db</text>
</g>
<!-- SERVICE:catalog&#45;&gt;DATABASE:shared&#45;db -->
<g id="edge7" class="edge">
<title>SERVICE:catalog&#45;&gt;DATABASE:shared&#45;db</title>
<g id="a_edge7"><a xlink:title="edge#6">
<path fill="none" stroke="black" d="M824.75,-232.87C864.46,-230.13 934.59,-221.47 987.5,-194.14 1000.68,-187.34 1013.04,-176.69 1022.94,-166.64"/>
<polygon fill="black" stroke="black" points="1025.32,-169.22 1029.61,-159.54 1020.21,-164.43 1025.32,-169.22"/>
</a>
</g>
<text text-anchor="middle" x="928.62" y="-231.84" font-family="Times,serif" font-size="14.00">CALLS [rest] (sync)</text>
</g>
<!-- SERVICE:cart&#45;&gt;SERVICE:catalog -->
<g id="edge4" class="edge">
<title>SERVICE:cart&#45;&gt;SERVICE:catalog</title>
<g id="a_edge4"><a xlink:title="edge#3">
<path fill="none" stroke="black" d="M548.71,-185.42C595.54,-194.81 693.69,-214.47 749.92,-225.74"/>
<polygon fill="black" stroke="black" points="748.94,-229.11 759.43,-227.64 750.31,-222.25 748.94,-229.11"/>
</a>
</g>
<text text-anchor="middle" x="657.12" y="-222.84" font-family="Times,serif" font-size="14.00">CALLS [rest] (sync)</text>
</g>
<!-- SERVICE:cart&#45;&gt;DATABASE:shared&#45;db -->
<g id="edge8" class="edge">
<title>SERVICE:cart&#45;&gt;DATABASE:shared&#45;db</title>
<g id="a_edge8"><a xlink:title="edge#7">
<path fill="none" stroke="black" d="M548.66,-178.97C619.59,-175.65 820.84,-165.35 987.5,-148.14 989.66,-147.92 991.87,-147.68 994.09,-147.42"/>
<polygon fill="black" stroke="black" points="994.29,-150.93 1003.79,-146.24 993.44,-143.98 994.29,-150.93"/>
</a>
</g>
<text text-anchor="middle" x="792.88" y="-172.84" font-family="Times,serif" font-size="14.00">CALLS [rest] (sync)</text>
</g>
<!-- SERVICE:orders_split -->
<g id="node8" class="node">
<title>SERVICE:orders_split</title>
<path fill="#eef6ff" stroke="black" d="M826.75,-52.14C826.75,-52.14 759,-52.14 759,-52.14 753,-52.14 747,-46.14 747,-40.14 747,-40.14 747,-28.14 747,-28.14 747,-22.14 753,-16.14 759,-16.14 759,-16.14 826.75,-16.14 826.75,-16.14 832.75,-16.14 838.75,-22.14 838.75,-28.14 838.75,-28.14 838.75,-40.14 838.75,-40.14 838.75,-46.14 832.75,-52.14 826.75,-52.14"/>
<text text-anchor="middle" x="792.88" y="-29.84" font-family="Times,serif" font-size="14.00">orders_split</text>
</g>
<!-- SERVICE:orders&#45;&gt;SERVICE:orders_split -->
<g id="edge11" class="edge">
<title>SERVICE:orders&#45;&gt;SERVICE:orders_split</title>
<g id="a_edge11"><a xlink:title="edge#10">
<path fill="none" stroke="black" d="M550.44,-50.4C564.73,-48.6 582.39,-46.53 598.25,-45.14 644.5,-41.09 697.1,-38.21 735.79,-36.42"/>
<polygon fill="black" stroke="black" points="735.48,-39.94 745.31,-35.99 735.17,-32.95 735.48,-39.94"/>
</a>
</g>
<text text-anchor="middle" x="657.12" y="-49.84" font-family="Times,serif" font-size="14.00">CALLS [rest] (sync)</text>
</g>
<!-- SERVICE:inventory -->
<g id="node11" class="node">
<title>SERVICE:inventory</title>
<path fill="#eef6ff" stroke="black" d="M818.88,-106.14C818.88,-106.14 766.88,-106.14 766.88,-106.14 760.88,-106.14 754.88,-100.14 754.88,-94.14 754.88,-94.14 754.88,-82.14 754.88,-82.14 754.88,-76.14 760.88,-70.14 766.88,-70.14 766.88,-70.14 818.88,-70.14 818.88,-70.14 824.88,-70.14 830.88,-76.14 830.88,-82.14 830.88,-82.14 830.88,-94.14 830.88,-94.14 830.88,-100.14 824.88,-106.14 818.88,-106.14"/>
<text text-anchor="middle" x="792.88" y="-83.84" font-family="Times,serif" font-size="14.00">inventory</text>
</g>
<!-- SERVICE:orders&#45;&gt;SERVICE:inventory -->
<g id="edge5" class="edge">
<title>SERVICE:orders&#45;&gt;SERVICE:inventory</title>
<g id="a_edge5"><a xlink:title="edge#4">
<path fill="none" stroke="black" d="M550.45,-57.69C596.11,-63.45 687,-74.91 743.3,-82.02"/>
<polygon fill="black" stroke="black" points="742.56,-85.45 752.92,-83.23 743.43,-78.51 742.56,-85.45"/>
</a>
</g>
<text text-anchor="middle" x="657.12" y="-82.84" font-family="Times,serif" font-size="14.00">CALLS [rest] (sync)</text>
</g>
<!-- SERVICE:orders_split&#45;&gt;DATABASE:shared&#45;db -->
<g id="edge9" class="edge">
<title>SERVICE:orders_split&#45;&gt;DATABASE:shared&#45;db</title>
<g id="a_edge9"><a xlink:title="edge#8">
<path fill="none" stroke="black" d="M839.08,-38.39C880.03,-43.79 940.91,-55.83 987.5,-82.14 1001.39,-89.99 1014.23,-102.08 1024.28,-113.2"/>
<polygon fill="black" stroke="black" points="1021.54,-115.37 1030.72,-120.65 1026.84,-110.8 1021.54,-115.37"/>
</a>
</g>
<text text-anchor="middle" x="928.62" y="-86.84" font-family="Times,serif" font-size="14.00">CALLS [rest] (sync)</text>
</g>
<!-- SERVICE:orders_split&#45;&gt;SERVICE:payments -->
<g id="edge6" class="edge">
<title>SERVICE:orders_split&#45;&gt;SERVICE:payments</title>
<g id="a_edge6"><a xlink:title="edge#5">
<path fill="none" stroke="black" d="M839.03,-24.46C849.09,-22.68 859.75,-21.09 869.75,-20.14 911.92,-16.17 960.03,-16.21 995.24,-17.08"/>
<polygon fill="black" stroke="black" points="995.05,-20.58 1005.15,-17.36 995.25,-13.58 995.05,-20.58"/>
</a>
</g>
<text text-anchor="middle" x="928.62" y="-24.84" font-family="Times,serif" font-size="14.00">CALLS [rest] (sync)</text>
</g>
<!-- SERVICE:web&#45;ui_split&#45;&gt;SERVICE:cart -->
<g id="edge1" class="edge">
<title>SERVICE:web&#45;ui_split&#45;&gt;SERVICE:cart</title>
<g id="a_edge1"><a xlink:title="edge#0">
<path fill="none" stroke="black" d="M309.16,-84.79C346.41,-97.73 399.55,-117.32 444.5,-138.14 457.73,-144.28 471.82,-151.78 484.21,-158.74"/>
<polygon fill="black" stroke="black" points="482.44,-161.76 492.86,-163.67 485.9,-155.68 482.44,-161.76"/>
</a>
</g>
<text text-anchor="middle" x="385.62" y="-142.84" font-family="Times,serif" font-size="14.00">CALLS [rest] (sync)</text>
</g>
<!-- SERVICE:web&#45;ui_split&#45;&gt;SERVICE:orders -->
<g id="edge2" class="edge">
<title>SERVICE:web&#45;ui_split&#45;&gt;SERVICE:orders</title>
<g id="a_edge2"><a xlink:title="edge#1">
<path fill="none" stroke="black" d="M279.88,-50.71C291.86,-39.5 308.78,-26.2 326.75,-20.14 376.34,-3.42 393.32,-9.2 444.5,-20.14 457.25,-22.87 470.45,-27.91 482.2,-33.28"/>
<polygon fill="black" stroke="black" points="480.63,-36.41 491.16,-37.6 483.67,-30.11 480.63,-36.41"/>
</a>
</g>
<text text-anchor="middle" x="385.62" y="-24.84" font-family="Times,serif" font-size="14.00">CALLS [rest] (sync)</text>
</g>
<!-- SERVICE:web&#45;ui_split&#45;&gt;SERVICE:payments -->
<g id="edge3" class="edge">
<title>SERVICE:web&#45;ui_split&#45;&gt;SERVICE:payments</title>
<g id="a_edge3"><a xlink:title="edge#2">
<path fill="none" stroke="black" d="M274.72,-50.84C286.17,-35.65 304.74,-15.12 326.75,-6.14 336.7,-2.09 312.48,5.43 851.75,-7.14 912.13,-8.55 927.27,-8.7 987.5,-13.14 990,-13.33 992.56,-13.53 995.15,-13.75"/>
<polygon fill="black" stroke="black" points="994.75,-17.23 1005.02,-14.66 995.38,-10.26 994.75,-17.23"/>
</a>
</g>
<text text-anchor="middle" x="657.12" y="-8.84" font-family="Times,serif" font-size="14.00">CALLS [rest] (sync)</text>
</g>
<!-- SERVICE:inventory&#45;&gt;DATABASE:shared&#45;db -->
<g id="edge10" class="edge">
<title>SERVICE:inventory&#45;&gt;DATABASE:shared&#45;db</title>
<g id="a_edge10"><a xlink:title="edge#9">
<path fill="none" stroke="black" d="M831.27,-95.87C874.49,-104.8 945.86,-119.55 994.23,-129.55"/>
<polygon fill="black" stroke="black" points="993.41,-132.95 1003.91,-131.55 994.83,-126.1 993.41,-132.95"/>
</a>
</g>
<text text-anchor="middle" x="928.62" y="-131.84" font-family="Times,serif" font-size="14.00">CALLS [rest] (sync)</text>
</g>
</g>
</svg>
