<?xml version="1.0" encoding="UTF-8" standalone="no"?>
<!DOCTYPE svg PUBLIC "-//W3C//DTD SVG 1.1//EN"
 "http://www.w3.org/Graphics/SVG/1.1/DTD/svg11.dtd">
<!-- Generated by graphviz version 9.0.0 (20230911.1827)
 -->
<!-- Title: G Pages: 1 -->
<svg width="1296pt" height="529pt"
 viewBox="0.00 0.00 1295.50 529.00" xmlns="http://www.w3.org/2000/svg" xmlns:xlink="http://www.w3.org/1999/xlink">
<g id="graph0" class="graph" transform="scale(1 1) rotate(0) translate(4 525)">
<title>G</title>
<polygon fill="white" stroke="none" points="-4,4 -4,-525 1291.5,-525 1291.5,4 -4,4"/>
<text text-anchor="middle" x="643.75" y="-503.7" font-family="Helvetica,sans-Serif" font-size="14.00">Architecture</text>
<!-- DATABASE:orders&#45;db -->
<g id="node1" class="node">
<title>DATABASE:orders&#45;db</title>
<path fill="#fff3cd" stroke="black" d="M414.5,-491.73C414.5,-493.53 396.63,-495 374.62,-495 352.62,-495 334.75,-493.53 334.75,-491.73 334.75,-491.73 334.75,-462.27 334.75,-462.27 334.75,-460.47 352.62,-459 374.62,-459 396.63,-459 414.5,-460.47 414.5,-462.27 414.5,-462.27 414.5,-491.73 414.5,-491.73"/>
<path fill="none" stroke="black" d="M414.5,-491.73C414.5,-489.92 396.63,-488.45 374.62,-488.45 352.62,-488.45 334.75,-489.92 334.75,-491.73"/>
<text text-anchor="middle" x="374.62" y="-472.7" font-family="Times,serif" font-size="14.00">orders&#45;db</text>
</g>
<!-- DATABASE:payments&#45;db -->
<g id="node2" class="node">
<title>DATABASE:payments&#45;db</title>
<path fill="#fff3cd" stroke="black" d="M1287.5,-368.73C1287.5,-370.53 1264.75,-372 1236.75,-372 1208.75,-372 1186,-370.53 1186,-368.73 1186,-368.73 1186,-339.27 1186,-339.27 1186,-337.47 1208.75,-336 1236.75,-336 1264.75,-336 1287.5,-337.47 1287.5,-339.27 1287.5,-339.27 1287.5,-368.73 1287.5,-368.73"/>
<path fill="none" stroke="black" d="M1287.5,-368.73C1287.5,-366.92 1264.75,-365.45 1236.75,-365.45 1208.75,-365.45 1186,-366.92 1186,-368.73"/>
<text text-anchor="middle" x="1236.75" y="-349.7" font-family="Times,serif" font-size="14.00">payments&#45;db</text>
</g>
<!-- DATABASE:orders&#45;db_order&#45;service -->
<g id="node3" class="node">
<title>DATABASE:orders&#45;db_order&#45;service</title>
<path fill="#fff3cd" stroke="black" d="M802.5,-86.73C802.5,-88.53 764.12,-90 716.88,-90 669.63,-90 631.25,-88.53 631.25,-86.73 631.25,-86.73 631.25,-57.27 631.25,-57.27 631.25,-55.47 669.63,-54 716.88,-54 764.12,-54 802.5,-55.47 802.5,-57.27 802.5,-57.27 802.5,-86.73 802.5,-86.73"/>
<path fill="none" stroke="black" d="M802.5,-86.73C802.5,-84.92 764.12,-83.45 716.88,-83.45 669.63,-83.45 631.25,-84.92 631.25,-86.73"/>
<text text-anchor="middle" x="716.88" y="-67.7" font-family="Times,serif" font-size="14.00">orders&#45;db_order&#45;service</text>
</g>
<!-- SERVICE:order&#45;service -->
<g id="node4" class="node">
<title>SERVICE:order&#45;service</title>
<path fill="#eef6ff" stroke="black" d="M413,-225C413,-225 336.25,-225 336.25,-225 330.25,-225 324.25,-219 324.25,-213 324.25,-213 324.25,-201 324.25,-201 324.25,-195 330.25,-189 336.25,-189 336.25,-189 413,-189 413,-189 419,-189 425,-195 425,-201 425,-201 425,-213 425,-213 425,-219 419,-225 413,-225"/>
<text text-anchor="middle" x="374.62" y="-202.7" font-family="Times,serif" font-size="14.00">order&#45;service</text>
</g>
<!-- SERVICE:order&#45;service&#45;&gt;DATABASE:orders&#45;db_order&#45;service -->
<g id="edge8" class="edge">
<title>SERVICE:order&#45;service&#45;&gt;DATABASE:orders&#45;db_order&#45;service</title>
<g id="a_edge8"><a xlink:title="edge#7">
<path fill="none" stroke="black" d="M388,-188.67C406.8,-162.53 445.26,-115.32 491,-94 530.57,-75.55 578.23,-68.99 619.47,-67.46"/>
<polygon fill="black" stroke="black" points="619.5,-70.96 629.41,-67.2 619.32,-63.96 619.5,-70.96"/>
</a>
</g>
<text text-anchor="middle" x="552.12" y="-98.7" font-family="Times,serif" font-size="14.00">WRITES</text>
</g>
<!-- SERVICE:inventory&#45;service -->
<g id="node5" class="node">
<title>SERVICE:inventory&#45;service</title>
<path fill="#eef6ff" stroke="black" d="M114.25,-395C114.25,-395 12,-395 12,-395 6,-395 0,-389 0,-383 0,-383 0,-371 0,-371 0,-365 6,-359 12,-359 12,-359 114.25,-359 114.25,-359 120.25,-359 126.25,-365 126.25,-371 126.25,-371 126.25,-383 126.25,-383 126.25,-389 120.25,-395 114.25,-395"/>
<text text-anchor="middle" x="63.12" y="-372.7" font-family="Times,serif" font-size="14.00">inventory&#45;service</text>
</g>
<!-- SERVICE:order&#45;service&#45;&gt;SERVICE:inventory&#45;service -->
<g id="edge2" class="edge">
<title>SERVICE:order&#45;service&#45;&gt;SERVICE:inventory&#45;service</title>
<g id="a_edge2"><a xlink:title="edge#1">
<path fill="none" stroke="black" d="M323.94,-217.66C275.22,-229.73 200.32,-252.71 144.25,-290 120.26,-305.95 98.5,-330.55 83.73,-349.53"/>
<polygon fill="black" stroke="black" points="81.03,-347.3 77.78,-357.39 86.61,-351.53 81.03,-347.3"/>
</a>
</g>
<text text-anchor="middle" x="201.25" y="-294.7" font-family="Times,serif" font-size="14.00">calls (1 ep), 95rpm</text>
</g>
<!-- SERVICE:notification&#45;service -->
<g id="node6" class="node">
<title>SERVICE:notification&#45;service</title>
<path fill="#eef6ff" stroke="black" d="M1087.75,-309C1087.75,-309 972,-309 972,-309 966,-309 960,-303 960,-297 960,-297 960,-285 960,-285 960,-279 966,-273 972,-273 972,-273 1087.75,-273 1087.75,-273 1093.75,-273 1099.75,-279 1099.75,-285 1099.75,-285 1099.75,-297 1099.75,-297 1099.75,-303 1093.75,-309 1087.75,-309"/>
<text text-anchor="middle" x="1029.88" y="-286.7" font-family="Times,serif" font-size="14.00">notification&#45;service</text>
</g>
<!-- SERVICE:order&#45;service&#45;&gt;SERVICE:notification&#45;service -->
<g id="edge5" class="edge">
<title>SERVICE:order&#45;service&#45;&gt;SERVICE:notification&#45;service</title>
<g id="a_edge5"><a xlink:title="edge#4">
<path fill="none" stroke="black" d="M425.49,-208.92C554.6,-214.06 893.17,-228.74 942,-243 959.91,-248.23 978.21,-257.62 993.37,-266.72"/>
<polygon fill="black" stroke="black" points="991.22,-269.5 1001.56,-271.81 994.91,-263.56 991.22,-269.5"/>
</a>
</g>
<text text-anchor="middle" x="716.88" y="-232.7" font-family="Times,serif" font-size="14.00">calls (1 ep), 220rpm</text>
</g>
<!-- SERVICE:search&#45;service -->
<g id="node7" class="node">
<title>SERVICE:search&#45;service</title>
<path fill="#eef6ff" stroke="black" d="M1072,-235C1072,-235 987.75,-235 987.75,-235 981.75,-235 975.75,-229 975.75,-223 975.75,-223 975.75,-211 975.75,-211 975.75,-205 981.75,-199 987.75,-199 987.75,-199 1072,-199 1072,-199 1078,-199 1084,-205 1084,-211 1084,-211 1084,-223 1084,-223 1084,-229 1078,-235 1072,-235"/>
<text text-anchor="middle" x="1029.88" y="-212.7" font-family="Times,serif" font-size="14.00">search&#45;service</text>
</g>
<!-- SERVICE:order&#45;service&#45;&gt;SERVICE:search&#45;service -->
<g id="edge6" class="edge">
<title>SERVICE:order&#45;service&#45;&gt;SERVICE:search&#45;service</title>
<g id="a_edge6"><a xlink:title="edge#5">
<path fill="none" stroke="black" d="M425.27,-202.88C504.9,-196.86 666.06,-187.09 802.5,-194 857.12,-196.77 918.87,-203.27 964.07,-208.66"/>
<polygon fill="black" stroke="black" points="963.63,-212.13 973.97,-209.85 964.47,-205.18 963.63,-212.13"/>
</a>
</g>
<text text-anchor="middle" x="716.88" y="-198.7" font-family="Times,serif" font-size="14.00">calls (1 ep), 180rpm</text>
</g>
<!-- SERVICE:order&#45;service_split -->
<g id="node8" class="node">
<title>SERVICE:order&#45;service_split</title>
<path fill="#eef6ff" stroke="black" d="M772.5,-311C772.5,-311 661.25,-311 661.25,-311 655.25,-311 649.25,-305 649.25,-299 649.25,-299 649.25,-287 649.25,-287 649.25,-281 655.25,-275 661.25,-275 661.25,-275 772.5,-275 772.5,-275 778.5,-275 784.5,-281 784.5,-287 784.5,-287 784.5,-299 784.5,-299 784.5,-305 778.5,-311 772.5,-311"/>
<text text-anchor="middle" x="716.88" y="-288.7" font-family="Times,serif" font-size="14.00">order&#45;service_split</text>
</g>
<!-- SERVICE:order&#45;service&#45;&gt;SERVICE:order&#45;service_split -->
<g id="edge4" class="edge">
<title>SERVICE:order&#45;service&#45;&gt;SERVICE:order&#45;service_split</title>
<g id="a_edge4"><a xlink:title="edge#3">
<path fill="none" stroke="black" d="M422.57,-225.41C443.32,-233.1 468.15,-241.69 491,-248 539.19,-261.31 594.21,-272.39 637.76,-280.22"/>
<polygon fill="black" stroke="black" points="636.92,-283.63 647.38,-281.93 638.14,-276.74 636.92,-283.63"/>
</a>
</g>
<text text-anchor="middle" x="552.12" y="-280.7" font-family="Times,serif" font-size="14.00">calls (1 ep), 30rpm</text>
</g>
<!-- DATABASE:users&#45;db -->
<g id="node9" class="node">
<title>DATABASE:users&#45;db</title>
<path fill="#fff3cd" stroke="black" d="M1066,-124.73C1066,-126.53 1049.81,-128 1029.88,-128 1009.94,-128 993.75,-126.53 993.75,-124.73 993.75,-124.73 993.75,-95.27 993.75,-95.27 993.75,-93.47 1009.94,-92 1029.88,-92 1049.81,-92 1066,-93.47 1066,-95.27 1066,-95.27 1066,-124.73 1066,-124.73"/>
<path fill="none" stroke="black" d="M1066,-124.73C1066,-122.92 1049.81,-121.45 1029.88,-121.45 1009.94,-121.45 993.75,-122.92 993.75,-124.73"/>
<text text-anchor="middle" x="1029.88" y="-105.7" font-family="Times,serif" font-size="14.00">users&#45;db</text>
</g>
<!-- SERVICE:order&#45;service&#45;&gt;DATABASE:users&#45;db -->
<g id="edge7" class="edge">
<title>SERVICE:order&#45;service&#45;&gt;DATABASE:users&#45;db</title>
<g id="a_edge7"><a xlink:title="edge#6">
<path fill="none" stroke="black" d="M425.26,-199.63C547.72,-181.45 862.96,-134.64 982.23,-116.93"/>
<polygon fill="black" stroke="black" points="982.6,-120.41 991.98,-115.48 981.57,-113.49 982.6,-120.41"/>
</a>
</g>
<text text-anchor="middle" x="716.88" y="-173.7" font-family="Times,serif" font-size="14.00">READS</text>
</g>
<!-- SERVICE:user&#45;service -->
<g id="node13" class="node">
<title>SERVICE:user&#45;service</title>
<path fill="#eef6ff" stroke="black" d="M751.5,-36C751.5,-36 682.25,-36 682.25,-36 676.25,-36 670.25,-30 670.25,-24 670.25,-24 670.25,-12 670.25,-12 670.25,-6 676.25,0 682.25,0 682.25,0 751.5,0 751.5,0 757.5,0 763.5,-6 763.5,-12 763.5,-12 763.5,-24 763.5,-24 763.5,-30 757.5,-36 751.5,-36"/>
<text text-anchor="middle" x="716.88" y="-13.7" font-family="Times,serif" font-size="14.00">user&#45;service</text>
</g>
<!-- SERVICE:order&#45;service&#45;&gt;SERVICE:user&#45;service -->
<g id="edge3" class="edge">
<title>SERVICE:order&#45;service&#45;&gt;SERVICE:user&#45;service</title>
<g id="a_edge3"><a xlink:title="edge#2">
<path fill="none" stroke="black" d="M382.78,-188.71C397.35,-154.2 433.95,-79.92 491,-46 541.77,-15.81 610.32,-11.4 658.35,-12.92"/>
<polygon fill="black" stroke="black" points="658.13,-16.41 668.27,-13.34 658.43,-9.42 658.13,-16.41"/>
</a>
</g>
<text text-anchor="middle" x="552.12" y="-50.7" font-family="Times,serif" font-size="14.00">calls (1 ep), 260rpm</text>
</g>
<!-- SERVICE:inventory&#45;service&#45;&gt;DATABASE:orders&#45;db -->
<g id="edge11" class="edge">
<title>SERVICE:inventory&#45;service&#45;&gt;DATABASE:orders&#45;db</title>
<g id="a_edge11"><a xlink:title="edge#10">
<path fill="none" stroke="black" d="M86.63,-395.29C101.99,-406.89 123.3,-421.31 144.25,-430 203.04,-454.39 275.73,-466.53 323.32,-472.28"/>
<polygon fill="black" stroke="black" points="322.72,-475.73 333.05,-473.4 323.52,-468.78 322.72,-475.73"/>
</a>
</g>
<text text-anchor="middle" x="201.25" y="-465.7" font-family="Times,serif" font-size="14.00">READS</text>
</g>
<!-- SERVICE:inventory&#45;service&#45;&gt;SERVICE:order&#45;service -->
<g id="edge9" class="edge">
<title>SERVICE:inventory&#45;service&#45;&gt;SERVICE:order&#45;service</title>
<g id="a_edge9"><a xlink:title="edge#8">
<path fill="none" stroke="black" d="M108.85,-358.53C120.33,-353.96 132.7,-349.18 144.25,-345 194.35,-326.89 211.93,-334.3 258.25,-308 293.56,-287.95 327.74,-255.94 349.62,-233.34"/>
<polygon fill="black" stroke="black" points="351.97,-235.94 356.33,-226.28 346.9,-231.12 351.97,-235.94"/>
</a>
</g>
<text text-anchor="middle" x="201.25" y="-349.7" font-family="Times,serif" font-size="14.00">calls (1 ep), 82rpm</text>
</g>
<!-- DATABASE:orders&#45;db_inventory&#45;service -->
<g id="node10" class="node">
<title>DATABASE:orders&#45;db_inventory&#45;service</title>
<path fill="#fff3cd" stroke="black" d="M473,-437.73C473,-439.53 428.91,-441 374.62,-441 320.34,-441 276.25,-439.53 276.25,-437.73 276.25,-437.73 276.25,-408.27 276.25,-408.27 276.25,-406.47 320.34,-405 374.62,-405 428.91,-405 473,-406.47 473,-408.27 473,-408.27 473,-437.73 473,-437.73"/>
<path fill="none" stroke="black" d="M473,-437.73C473,-435.92 428.91,-434.45 374.62,-434.45 320.34,-434.45 276.25,-435.92 276.25,-437.73"/>
<text text-anchor="middle" x="374.62" y="-418.7" font-family="Times,serif" font-size="14.00">orders&#45;db_inventory&#45;service</text>
</g>
<!-- SERVICE:inventory&#45;service&#45;&gt;DATABASE:orders&#45;db_inventory&#45;service -->
<g id="edge12" class="edge">
<title>SERVICE:inventory&#45;service&#45;&gt;DATABASE:orders&#45;db_inventory&#45;service</title>
<g id="a_edge12"><a xlink:title="edge#11">
<path fill="none" stroke="black" d="M126.64,-388.14C132.59,-389.13 138.53,-390.1 144.25,-391 183.47,-397.16 226.57,-403.33 264.71,-408.59"/>
<polygon fill="black" stroke="black" points="263.97,-412.02 274.35,-409.91 264.92,-405.08 263.97,-412.02"/>
</a>
</g>
<text text-anchor="middle" x="201.25" y="-412.7" font-family="Times,serif" font-size="14.00">WRITES</text>
</g>
<!-- SERVICE:billing&#45;service -->
<g id="node12" class="node">
<title>SERVICE:billing&#45;service</title>
<path fill="#eef6ff" stroke="black" d="M1070.88,-373C1070.88,-373 988.88,-373 988.88,-373 982.88,-373 976.88,-367 976.88,-361 976.88,-361 976.88,-349 976.88,-349 976.88,-343 982.88,-337 988.88,-337 988.88,-337 1070.88,-337 1070.88,-337 1076.88,-337 1082.88,-343 1082.88,-349 1082.88,-349 1082.88,-361 1082.88,-361 1082.88,-367 1076.88,-373 1070.88,-373"/>
<text text-anchor="middle" x="1029.88" y="-350.7" font-family="Times,serif" font-size="14.00">billing&#45;service</text>
</g>
<!-- SERVICE:inventory&#45;service&#45;&gt;SERVICE:billing&#45;service -->
<g id="edge10" class="edge">
<title>SERVICE:inventory&#45;service&#45;&gt;SERVICE:billing&#45;service</title>
<g id="a_edge10"><a xlink:title="edge#9">
<path fill="none" stroke="black" d="M126.69,-376.95C270.66,-376.59 636.47,-374.33 942,-361 949.51,-360.67 957.38,-360.25 965.19,-359.77"/>
<polygon fill="black" stroke="black" points="965.26,-363.27 975.02,-359.14 964.81,-356.29 965.26,-363.27"/>
</a>
</g>
<text text-anchor="middle" x="552.12" y="-378.7" font-family="Times,serif" font-size="14.00">calls (1 ep), 32rpm</text>
</g>
<!-- SERVICE:order&#45;service_split&#45;&gt;SERVICE:notification&#45;service -->
<g id="edge17" class="edge">
<title>SERVICE:order&#45;service_split&#45;&gt;SERVICE:notification&#45;service</title>
<g id="a_edge17"><a xlink:title="edge#16">
<path fill="none" stroke="black" d="M784.97,-292.57C832.95,-292.26 897.74,-291.84 948.48,-291.52"/>
<polygon fill="black" stroke="black" points="948.25,-295.02 958.23,-291.45 948.21,-288.02 948.25,-295.02"/>
</a>
</g>
<text text-anchor="middle" x="881.25" y="-297.7" font-family="Times,serif" font-size="14.00">calls (1 ep), 220rpm</text>
</g>
<!-- SERVICE:order&#45;service_split&#45;&gt;SERVICE:search&#45;service -->
<g id="edge18" class="edge">
<title>SERVICE:order&#45;service_split&#45;&gt;SERVICE:search&#45;service</title>
<g id="a_edge18"><a xlink:title="edge#17">
<path fill="none" stroke="black" d="M784.97,-276.6C838.15,-263.61 911.99,-245.56 964.46,-232.74"/>
<polygon fill="black" stroke="black" points="964.96,-236.22 973.84,-230.45 963.3,-229.42 964.96,-236.22"/>
</a>
</g>
<text text-anchor="middle" x="881.25" y="-271.7" font-family="Times,serif" font-size="14.00">calls (1 ep), 180rpm</text>
</g>
<!-- SERVICE:order&#45;service_split&#45;&gt;SERVICE:billing&#45;service -->
<g id="edge16" class="edge">
<title>SERVICE:order&#45;service_split&#45;&gt;SERVICE:billing&#45;service</title>
<g id="a_edge16"><a xlink:title="edge#15">
<path fill="none" stroke="black" d="M784.9,-307.59C796.75,-310.1 808.98,-312.66 820.5,-315 869.01,-324.85 924,-335.38 965.31,-343.16"/>
<polygon fill="black" stroke="black" points="964.61,-346.6 975.09,-345 965.91,-339.72 964.61,-346.6"/>
</a>
</g>
<text text-anchor="middle" x="881.25" y="-343.7" font-family="Times,serif" font-size="14.00">calls (1 ep), 36rpm</text>
</g>
<!-- SERVICE:api&#45;gateway -->
<g id="node11" class="node">
<title>SERVICE:api&#45;gateway</title>
<path fill="#eef6ff" stroke="black" d="M98.88,-225C98.88,-225 27.38,-225 27.38,-225 21.38,-225 15.38,-219 15.38,-213 15.38,-213 15.38,-201 15.38,-201 15.38,-195 21.38,-189 27.38,-189 27.38,-189 98.88,-189 98.88,-189 104.88,-189 110.88,-195 110.88,-201 110.88,-201 110.88,-213 110.88,-213 110.88,-219 104.88,-225 98.88,-225"/>
<text text-anchor="middle" x="63.12" y="-202.7" font-family="Times,serif" font-size="14.00">api&#45;gateway</text>
</g>
<!-- SERVICE:api&#45;gateway&#45;&gt;SERVICE:order&#45;service -->
<g id="edge1" class="edge">
<title>SERVICE:api&#45;gateway&#45;&gt;SERVICE:order&#45;service</title>
<g id="a_edge1"><a xlink:title="edge#0">
<path fill="none" stroke="black" d="M111.13,-207C164.95,-207 253.3,-207 312.44,-207"/>
<polygon fill="black" stroke="black" points="312.35,-210.5 322.35,-207 312.35,-203.5 312.35,-210.5"/>
</a>
</g>
<text text-anchor="middle" x="201.25" y="-211.7" font-family="Times,serif" font-size="14.00">calls (1 ep), 30rpm</text>
</g>
<!-- SERVICE:billing&#45;service&#45;&gt;DATABASE:payments&#45;db -->
<g id="edge13" class="edge">
<title>SERVICE:billing&#45;service&#45;&gt;DATABASE:payments&#45;db</title>
<g id="a_edge13"><a xlink:title="edge#12">
<path fill="none" stroke="black" d="M1083.37,-354.74C1111.11,-354.61 1145.31,-354.44 1174.28,-354.3"/>
<polygon fill="black" stroke="black" points="1174.02,-357.8 1184,-354.25 1173.98,-350.8 1174.02,-357.8"/>
</a>
</g>
<text text-anchor="middle" x="1142.88" y="-359.7" font-family="Times,serif" font-size="14.00">READS</text>
</g>
<!-- SERVICE:billing&#45;service&#45;&gt;DATABASE:payments&#45;db -->
<g id="edge14" class="edge">
<title>SERVICE:billing&#45;service&#45;&gt;DATABASE:payments&#45;db</title>
<g id="a_edge14"><a xlink:title="edge#13">
<path fill="none" stroke="black" d="M1083.26,-338.92C1108.8,-333.05 1139.99,-328.76 1168,-333 1170.62,-333.4 1173.28,-333.88 1175.95,-334.42"/>
<polygon fill="black" stroke="black" points="1174.93,-337.78 1185.47,-336.63 1176.52,-330.96 1174.93,-337.78"/>
</a>
</g>
<text text-anchor="middle" x="1142.88" y="-337.7" font-family="Times,serif" font-size="14.00">WRITES</text>
</g>
<!-- SERVICE:user&#45;service&#45;&gt;DATABASE:users&#45;db -->
<g id="edge15" class="edge">
<title>SERVICE:user&#45;service&#45;&gt;DATABASE:users&#45;db</title>
<g id="a_edge15"><a xlink:title="edge#14">
<path fill="none" stroke="black" d="M763.76,-31.57C822.5,-48.95 923.67,-78.88 982.59,-96.31"/>
<polygon fill="black" stroke="black" points="981.4,-99.61 991.98,-99.09 983.39,-92.89 981.4,-99.61"/>
</a>
</g>
<text text-anchor="middle" x="881.25" y="-87.7" font-family="Times,serif" font-size="14.00">READS</text>
</g>
</g>
</svg>
