<?xml version="1.0" encoding="UTF-8" standalone="no"?>
<!DOCTYPE svg PUBLIC "-//W3C//DTD SVG 1.1//EN"
 "http://www.w3.org/Graphics/SVG/1.1/DTD/svg11.dtd">
<!-- Generated by graphviz version 9.0.0 (20230911.1827)
 -->
<!-- Title: G Pages: 1 -->
<svg width="1291pt" height="427pt"
 viewBox="0.00 0.00 1291.25 427.00" xmlns="http://www.w3.org/2000/svg" xmlns:xlink="http://www.w3.org/1999/xlink">
<g id="graph0" class="graph" transform="scale(1 1) rotate(0) translate(4 423)">
<title>G</title>
<polygon fill="white" stroke="none" points="-4,4 -4,-423 1287.25,-423 1287.25,4 -4,4"/>
<text text-anchor="middle" x="641.62" y="-401.7" font-family="Helvetica,sans-Serif" font-size="14.00">Architecture</text>
<!-- SERVICE:order&#45;service_split -->
<g id="node1" class="node">
<title>SERVICE:order&#45;service_split</title>
<path fill="#eef6ff" stroke="black" d="M123.25,-96C123.25,-96 12,-96 12,-96 6,-96 0,-90 0,-84 0,-84 0,-72 0,-72 0,-66 6,-60 12,-60 12,-60 123.25,-60 123.25,-60 129.25,-60 135.25,-66 135.25,-72 135.25,-72 135.25,-84 135.25,-84 135.25,-90 129.25,-96 123.25,-96"/>
<text text-anchor="middle" x="67.62" y="-73.7" font-family="Times,serif" font-size="14.00">order&#45;service_split</text>
</g>
<!-- SERVICE:billing&#45;service -->
<g id="node8" class="node">
<title>SERVICE:billing&#45;service</title>
<path fill="#eef6ff" stroke="black" d="M383.25,-325C383.25,-325 301.25,-325 301.25,-325 295.25,-325 289.25,-319 289.25,-313 289.25,-313 289.25,-301 289.25,-301 289.25,-295 295.25,-289 301.25,-289 301.25,-289 383.25,-289 383.25,-289 389.25,-289 395.25,-295 395.25,-301 395.25,-301 395.25,-313 395.25,-313 395.25,-319 389.25,-325 383.25,-325"/>
<text text-anchor="middle" x="342.25" y="-302.7" font-family="Times,serif" font-size="14.00">billing&#45;service</text>
</g>
<!-- SERVICE:order&#45;service_split&#45;&gt;SERVICE:billing&#45;service -->
<g id="edge16" class="edge">
<title>SERVICE:order&#45;service_split&#45;&gt;SERVICE:billing&#45;service</title>
<g id="a_edge16"><a xlink:title="edge#15">
<path fill="none" stroke="black" d="M90.47,-96.35C138.83,-136.97 255,-234.55 310.6,-281.25"/>
<polygon fill="black" stroke="black" points="308.23,-283.83 318.14,-287.59 312.73,-278.47 308.23,-283.83"/>
</a>
</g>
<text text-anchor="middle" x="210.25" y="-243.7" font-family="Times,serif" font-size="14.00">calls (1 ep), 36rpm</text>
</g>
<!-- SERVICE:notification&#45;service -->
<g id="node12" class="node">
<title>SERVICE:notification&#45;service</title>
<path fill="#eef6ff" stroke="black" d="M972.5,-103C972.5,-103 856.75,-103 856.75,-103 850.75,-103 844.75,-97 844.75,-91 844.75,-91 844.75,-79 844.75,-79 844.75,-73 850.75,-67 856.75,-67 856.75,-67 972.5,-67 972.5,-67 978.5,-67 984.5,-73 984.5,-79 984.5,-79 984.5,-91 984.5,-91 984.5,-97 978.5,-103 972.5,-103"/>
<text text-anchor="middle" x="914.62" y="-80.7" font-family="Times,serif" font-size="14.00">notification&#45;service</text>
</g>
<!-- SERVICE:order&#45;service_split&#45;&gt;SERVICE:notification&#45;service -->
<g id="edge17" class="edge">
<title>SERVICE:order&#45;service_split&#45;&gt;SERVICE:notification&#45;service</title>
<g id="a_edge17"><a xlink:title="edge#16">
<path fill="none" stroke="black" d="M135.61,-76.28C249.32,-73.45 487.4,-67.95 688.75,-66 743.08,-65.47 756.89,-61.03 811,-66 818.19,-66.66 825.63,-67.57 833.06,-68.65"/>
<polygon fill="black" stroke="black" points="832.39,-72.09 842.81,-70.16 833.47,-65.17 832.39,-72.09"/>
</a>
</g>
<text text-anchor="middle" x="478.38" y="-75.7" font-family="Times,serif" font-size="14.00">calls (1 ep), 220rpm</text>
</g>
<!-- SERVICE:search&#45;service -->
<g id="node13" class="node">
<title>SERVICE:search&#45;service</title>
<path fill="#eef6ff" stroke="black" d="M956.75,-36C956.75,-36 872.5,-36 872.5,-36 866.5,-36 860.5,-30 860.5,-24 860.5,-24 860.5,-12 860.5,-12 860.5,-6 866.5,0 872.5,0 872.5,0 956.75,0 956.75,0 962.75,0 968.75,-6 968.75,-12 968.75,-12 968.75,-24 968.75,-24 968.75,-30 962.75,-36 956.75,-36"/>
<text text-anchor="middle" x="914.62" y="-13.7" font-family="Times,serif" font-size="14.00">search&#45;service</text>
</g>
<!-- SERVICE:order&#45;service_split&#45;&gt;SERVICE:search&#45;service -->
<g id="edge18" class="edge">
<title>SERVICE:order&#45;service_split&#45;&gt;SERVICE:search&#45;service</title>
<g id="a_edge18"><a xlink:title="edge#17">
<path fill="none" stroke="black" d="M135.6,-71.65C141.57,-71.09 147.52,-70.53 153.25,-70 270.56,-59.12 299.75,-54.65 417.25,-46 571.98,-34.61 754.15,-25.41 848.93,-20.94"/>
<polygon fill="black" stroke="black" points="848.99,-24.44 858.82,-20.48 848.67,-17.45 848.99,-24.44"/>
</a>
</g>
<text text-anchor="middle" x="478.38" y="-50.7" font-family="Times,serif" font-size="14.00">calls (1 ep), 180rpm</text>
</g>
<!-- DATABASE:orders&#45;db -->
<g id="node2" class="node">
<title>DATABASE:orders&#45;db</title>
<path fill="#fff3cd" stroke="black" d="M1224.75,-294.73C1224.75,-296.53 1206.88,-298 1184.88,-298 1162.87,-298 1145,-296.53 1145,-294.73 1145,-294.73 1145,-265.27 1145,-265.27 1145,-263.47 1162.87,-262 1184.88,-262 1206.88,-262 1224.75,-263.47 1224.75,-265.27 1224.75,-265.27 1224.75,-294.73 1224.75,-294.73"/>
<path fill="none" stroke="black" d="M1224.75,-294.73C1224.75,-292.92 1206.88,-291.45 1184.88,-291.45 1162.87,-291.45 1145,-292.92 1145,-294.73"/>
<text text-anchor="middle" x="1184.88" y="-275.7" font-family="Times,serif" font-size="14.00">orders&#45;db</text>
</g>
<!-- DATABASE:payments&#45;db -->
<g id="node3" class="node">
<title>DATABASE:payments&#45;db</title>
<path fill="#fff3cd" stroke="black" d="M664.88,-385.73C664.88,-387.53 642.13,-389 614.12,-389 586.12,-389 563.38,-387.53 563.38,-385.73 563.38,-385.73 563.38,-356.27 563.38,-356.27 563.38,-354.47 586.12,-353 614.12,-353 642.13,-353 664.88,-354.47 664.88,-356.27 664.88,-356.27 664.88,-385.73 664.88,-385.73"/>
<path fill="none" stroke="black" d="M664.88,-385.73C664.88,-383.92 642.13,-382.45 614.12,-382.45 586.12,-382.45 563.38,-383.92 563.38,-385.73"/>
<text text-anchor="middle" x="614.12" y="-366.7" font-family="Times,serif" font-size="14.00">payments&#45;db</text>
</g>
<!-- DATABASE:users&#45;db -->
<g id="node4" class="node">
<title>DATABASE:users&#45;db</title>
<path fill="#fff3cd" stroke="black" d="M1221,-186.73C1221,-188.53 1204.81,-190 1184.88,-190 1164.94,-190 1148.75,-188.53 1148.75,-186.73 1148.75,-186.73 1148.75,-157.27 1148.75,-157.27 1148.75,-155.47 1164.94,-154 1184.88,-154 1204.81,-154 1221,-155.47 1221,-157.27 1221,-157.27 1221,-186.73 1221,-186.73"/>
<path fill="none" stroke="black" d="M1221,-186.73C1221,-184.92 1204.81,-183.45 1184.88,-183.45 1164.94,-183.45 1148.75,-184.92 1148.75,-186.73"/>
<text text-anchor="middle" x="1184.88" y="-167.7" font-family="Times,serif" font-size="14.00">users&#45;db</text>
</g>
<!-- DATABASE:orders&#45;db_order&#45;service -->
<g id="node5" class="node">
<title>DATABASE:orders&#45;db_order&#45;service</title>
<path fill="#fff3cd" stroke="black" d="M1000.25,-213.73C1000.25,-215.53 961.87,-217 914.62,-217 867.38,-217 829,-215.53 829,-213.73 829,-213.73 829,-184.27 829,-184.27 829,-182.47 867.38,-181 914.62,-181 961.87,-181 1000.25,-182.47 1000.25,-184.27 1000.25,-184.27 1000.25,-213.73 1000.25,-213.73"/>
<path fill="none" stroke="black" d="M1000.25,-213.73C1000.25,-211.92 961.87,-210.45 914.62,-210.45 867.38,-210.45 829,-211.92 829,-213.73"/>
<text text-anchor="middle" x="914.62" y="-194.7" font-family="Times,serif" font-size="14.00">orders&#45;db_order&#45;service</text>
</g>
<!-- DATABASE:orders&#45;db_inventory&#45;service -->
<g id="node6" class="node">
<title>DATABASE:orders&#45;db_inventory&#45;service</title>
<path fill="#fff3cd" stroke="black" d="M1283.25,-348.73C1283.25,-350.53 1239.16,-352 1184.88,-352 1130.59,-352 1086.5,-350.53 1086.5,-348.73 1086.5,-348.73 1086.5,-319.27 1086.5,-319.27 1086.5,-317.47 1130.59,-316 1184.88,-316 1239.16,-316 1283.25,-317.47 1283.25,-319.27 1283.25,-319.27 1283.25,-348.73 1283.25,-348.73"/>
<path fill="none" stroke="black" d="M1283.25,-348.73C1283.25,-346.92 1239.16,-345.45 1184.88,-345.45 1130.59,-345.45 1086.5,-346.92 1086.5,-348.73"/>
<text text-anchor="middle" x="1184.88" y="-329.7" font-family="Times,serif" font-size="14.00">orders&#45;db_inventory&#45;service</text>
</g>
<!-- SERVICE:api&#45;gateway -->
<g id="node7" class="node">
<title>SERVICE:api&#45;gateway</title>
<path fill="#eef6ff" stroke="black" d="M378,-193C378,-193 306.5,-193 306.5,-193 300.5,-193 294.5,-187 294.5,-181 294.5,-181 294.5,-169 294.5,-169 294.5,-163 300.5,-157 306.5,-157 306.5,-157 378,-157 378,-157 384,-157 390,-163 390,-169 390,-169 390,-181 390,-181 390,-187 384,-193 378,-193"/>
<text text-anchor="middle" x="342.25" y="-170.7" font-family="Times,serif" font-size="14.00">api&#45;gateway</text>
</g>
<!-- SERVICE:order&#45;service -->
<g id="node9" class="node">
<title>SERVICE:order&#45;service</title>
<path fill="#eef6ff" stroke="black" d="M652.5,-193C652.5,-193 575.75,-193 575.75,-193 569.75,-193 563.75,-187 563.75,-181 563.75,-181 563.75,-169 563.75,-169 563.75,-163 569.75,-157 575.75,-157 575.75,-157 652.5,-157 652.5,-157 658.5,-157 664.5,-163 664.5,-169 664.5,-169 664.5,-181 664.5,-181 664.5,-187 658.5,-193 652.5,-193"/>
<text text-anchor="middle" x="614.12" y="-170.7" font-family="Times,serif" font-size="14.00">order&#45;service</text>
</g>
<!-- SERVICE:api&#45;gateway&#45;&gt;SERVICE:order&#45;service -->
<g id="edge1" class="edge">
<title>SERVICE:api&#45;gateway&#45;&gt;SERVICE:order&#45;service</title>
<g id="a_edge1"><a xlink:title="edge#0">
<path fill="none" stroke="black" d="M390.26,-175C435.14,-175 503,-175 552.05,-175"/>
<polygon fill="black" stroke="black" points="551.95,-178.5 561.95,-175 551.95,-171.5 551.95,-178.5"/>
</a>
</g>
<text text-anchor="middle" x="478.38" y="-179.7" font-family="Times,serif" font-size="14.00">calls (1 ep), 30rpm</text>
</g>
<!-- SERVICE:billing&#45;service&#45;&gt;DATABASE:payments&#45;db -->
<g id="edge13" class="edge">
<title>SERVICE:billing&#45;service&#45;&gt;DATABASE:payments&#45;db</title>
<g id="a_edge13"><a xlink:title="edge#12">
<path fill="none" stroke="black" d="M362.89,-325.39C376.89,-337.29 396.8,-351.84 417.25,-359 460.42,-374.12 512.18,-376.68 551.64,-375.7"/>
<polygon fill="black" stroke="black" points="551.57,-379.2 561.44,-375.36 551.33,-372.21 551.57,-379.2"/>
</a>
</g>
<text text-anchor="middle" x="478.38" y="-379.7" font-family="Times,serif" font-size="14.00">READS</text>
</g>
<!-- SERVICE:billing&#45;service&#45;&gt;DATABASE:payments&#45;db -->
<g id="edge14" class="edge">
<title>SERVICE:billing&#45;service&#45;&gt;DATABASE:payments&#45;db</title>
<g id="a_edge14"><a xlink:title="edge#13">
<path fill="none" stroke="black" d="M395.65,-314.83C452.6,-323.36 536.03,-335.96 539.5,-337 549.3,-339.95 559.46,-343.96 569,-348.2"/>
<polygon fill="black" stroke="black" points="567.53,-351.37 578.07,-352.39 570.47,-345.02 567.53,-351.37"/>
</a>
</g>
<text text-anchor="middle" x="478.38" y="-341.7" font-family="Times,serif" font-size="14.00">WRITES</text>
</g>
<!-- SERVICE:billing&#45;service&#45;&gt;SERVICE:order&#45;service -->
<g id="edge12" class="edge">
<title>SERVICE:billing&#45;service&#45;&gt;SERVICE:order&#45;service</title>
<g id="a_edge12"><a xlink:title="edge#11">
<path fill="none" stroke="black" d="M381.06,-288.51C429.34,-264.89 512.91,-224.02 565.49,-198.3"/>
<polygon fill="black" stroke="black" points="566.77,-201.57 574.21,-194.03 563.69,-195.28 566.77,-201.57"/>
</a>
</g>
<text text-anchor="middle" x="478.38" y="-271.7" font-family="Times,serif" font-size="14.00">calls (1 ep), 260rpm</text>
</g>
<!-- SERVICE:order&#45;service&#45;&gt;SERVICE:order&#45;service_split -->
<g id="edge4" class="edge">
<title>SERVICE:order&#45;service&#45;&gt;SERVICE:order&#45;service_split</title>
<g id="a_edge4"><a xlink:title="edge#3">
<path fill="none" stroke="black" d="M563.57,-163.82C520.31,-154.24 455.79,-140.39 399.25,-130 313.22,-114.19 214.04,-99 146.92,-89.16"/>
<polygon fill="black" stroke="black" points="147.5,-85.7 137.1,-87.72 146.49,-92.63 147.5,-85.7"/>
</a>
</g>
<text text-anchor="middle" x="342.25" y="-134.7" font-family="Times,serif" font-size="14.00">calls (1 ep), 30rpm</text>
</g>
<!-- SERVICE:order&#45;service&#45;&gt;DATABASE:users&#45;db -->
<g id="edge7" class="edge">
<title>SERVICE:order&#45;service&#45;&gt;DATABASE:users&#45;db</title>
<g id="a_edge7"><a xlink:title="edge#6">
<path fill="none" stroke="black" d="M664.72,-168.74C708,-163.61 772.54,-156.77 829,-154 905.02,-150.28 924.23,-150.28 1000.25,-154 1047.08,-156.29 1100.38,-161.84 1137.45,-166.18"/>
<polygon fill="black" stroke="black" points="1136.56,-169.6 1146.9,-167.31 1137.39,-162.65 1136.56,-169.6"/>
</a>
</g>
<text text-anchor="middle" x="914.62" y="-158.7" font-family="Times,serif" font-size="14.00">READS</text>
</g>
<!-- SERVICE:order&#45;service&#45;&gt;DATABASE:orders&#45;db_order&#45;service -->
<g id="edge8" class="edge">
<title>SERVICE:order&#45;service&#45;&gt;DATABASE:orders&#45;db_order&#45;service</title>
<g id="a_edge8"><a xlink:title="edge#7">
<path fill="none" stroke="black" d="M664.75,-178.99C706.21,-182.32 766.55,-187.17 817.42,-191.27"/>
<polygon fill="black" stroke="black" points="817.04,-194.75 827.29,-192.06 817.6,-187.77 817.04,-194.75"/>
</a>
</g>
<text text-anchor="middle" x="749.88" y="-194.7" font-family="Times,serif" font-size="14.00">WRITES</text>
</g>
<!-- SERVICE:inventory&#45;service -->
<g id="node10" class="node">
<title>SERVICE:inventory&#45;service</title>
<path fill="#eef6ff" stroke="black" d="M965.75,-325C965.75,-325 863.5,-325 863.5,-325 857.5,-325 851.5,-319 851.5,-313 851.5,-313 851.5,-301 851.5,-301 851.5,-295 857.5,-289 863.5,-289 863.5,-289 965.75,-289 965.75,-289 971.75,-289 977.75,-295 977.75,-301 977.75,-301 977.75,-313 977.75,-313 977.75,-319 971.75,-325 965.75,-325"/>
<text text-anchor="middle" x="914.62" y="-302.7" font-family="Times,serif" font-size="14.00">inventory&#45;service</text>
</g>
<!-- SERVICE:order&#45;service&#45;&gt;SERVICE:inventory&#45;service -->
<g id="edge2" class="edge">
<title>SERVICE:order&#45;service&#45;&gt;SERVICE:inventory&#45;service</title>
<g id="a_edge2"><a xlink:title="edge#1">
<path fill="none" stroke="black" d="M627.45,-193.41C640.48,-211.34 662.74,-237.89 688.75,-252 737.35,-278.35 757.35,-261.64 811,-275 818.36,-276.83 831.39,-280.73 845.75,-285.19"/>
<polygon fill="black" stroke="black" points="844.34,-288.42 854.93,-288.07 846.43,-281.74 844.34,-288.42"/>
</a>
</g>
<text text-anchor="middle" x="749.88" y="-279.7" font-family="Times,serif" font-size="14.00">calls (1 ep), 95rpm</text>
</g>
<!-- SERVICE:user&#45;service -->
<g id="node11" class="node">
<title>SERVICE:user&#45;service</title>
<path fill="#eef6ff" stroke="black" d="M949.25,-271C949.25,-271 880,-271 880,-271 874,-271 868,-265 868,-259 868,-259 868,-247 868,-247 868,-241 874,-235 880,-235 880,-235 949.25,-235 949.25,-235 955.25,-235 961.25,-241 961.25,-247 961.25,-247 961.25,-259 961.25,-259 961.25,-265 955.25,-271 949.25,-271"/>
<text text-anchor="middle" x="914.62" y="-248.7" font-family="Times,serif" font-size="14.00">user&#45;service</text>
</g>
<!-- SERVICE:order&#45;service&#45;&gt;SERVICE:user&#45;service -->
<g id="edge3" class="edge">
<title>SERVICE:order&#45;service&#45;&gt;SERVICE:user&#45;service</title>
<g id="a_edge3"><a xlink:title="edge#2">
<path fill="none" stroke="black" d="M648.04,-193.46C660.49,-199.8 674.97,-206.44 688.75,-211 690.77,-211.67 790.54,-230.2 856.5,-242.43"/>
<polygon fill="black" stroke="black" points="855.62,-245.82 866.09,-244.2 856.9,-238.94 855.62,-245.82"/>
</a>
</g>
<text text-anchor="middle" x="749.88" y="-237.7" font-family="Times,serif" font-size="14.00">calls (1 ep), 260rpm</text>
</g>
<!-- SERVICE:order&#45;service&#45;&gt;SERVICE:notification&#45;service -->
<g id="edge5" class="edge">
<title>SERVICE:order&#45;service&#45;&gt;SERVICE:notification&#45;service</title>
<g id="a_edge5"><a xlink:title="edge#4">
<path fill="none" stroke="black" d="M638.02,-156.69C651.93,-146.45 670.48,-134.32 688.75,-127 689.63,-126.65 769.19,-111.82 833.42,-99.89"/>
<polygon fill="black" stroke="black" points="833.71,-103.39 842.91,-98.12 832.44,-96.51 833.71,-103.39"/>
</a>
</g>
<text text-anchor="middle" x="749.88" y="-131.7" font-family="Times,serif" font-size="14.00">calls (1 ep), 220rpm</text>
</g>
<!-- SERVICE:order&#45;service&#45;&gt;SERVICE:search&#45;service -->
<g id="edge6" class="edge">
<title>SERVICE:order&#45;service&#45;&gt;SERVICE:search&#45;service</title>
<g id="a_edge6"><a xlink:title="edge#5">
<path fill="none" stroke="black" d="M625.11,-156.63C637.39,-135.74 660.17,-102.08 688.75,-83 737.09,-50.73 801.62,-34.23 849.15,-25.95"/>
<polygon fill="black" stroke="black" points="849.45,-29.45 858.74,-24.36 848.3,-22.54 849.45,-29.45"/>
</a>
</g>
<text text-anchor="middle" x="749.88" y="-87.7" font-family="Times,serif" font-size="14.00">calls (1 ep), 180rpm</text>
</g>
<!-- SERVICE:inventory&#45;service&#45;&gt;DATABASE:orders&#45;db -->
<g id="edge10" class="edge">
<title>SERVICE:inventory&#45;service&#45;&gt;DATABASE:orders&#45;db</title>
<g id="a_edge10"><a xlink:title="edge#9">
<path fill="none" stroke="black" d="M977.99,-298.68C991.27,-297.02 1005.21,-295.38 1018.25,-294 1056.88,-289.92 1100.69,-286.26 1133.54,-283.71"/>
<polygon fill="black" stroke="black" points="1133.47,-287.22 1143.17,-282.97 1132.93,-280.24 1133.47,-287.22"/>
</a>
</g>
<text text-anchor="middle" x="1043.38" y="-298.7" font-family="Times,serif" font-size="14.00">READS</text>
</g>
<!-- SERVICE:inventory&#45;service&#45;&gt;DATABASE:orders&#45;db_inventory&#45;service -->
<g id="edge11" class="edge">
<title>SERVICE:inventory&#45;service&#45;&gt;DATABASE:orders&#45;db_inventory&#45;service</title>
<g id="a_edge11"><a xlink:title="edge#10">
<path fill="none" stroke="black" d="M978.18,-313.3C1007.04,-316.2 1042.16,-319.74 1075.14,-323.06"/>
<polygon fill="black" stroke="black" points="1074.43,-326.5 1084.73,-324.02 1075.13,-319.54 1074.43,-326.5"/>
</a>
</g>
<text text-anchor="middle" x="1043.38" y="-326.7" font-family="Times,serif" font-size="14.00">WRITES</text>
</g>
<!-- SERVICE:inventory&#45;service&#45;&gt;SERVICE:billing&#45;service -->
<g id="edge9" class="edge">
<title>SERVICE:inventory&#45;service&#45;&gt;SERVICE:billing&#45;service</title>
<g id="a_edge9"><a xlink:title="edge#8">
<path fill="none" stroke="black" d="M851.19,-307C741.89,-307 517.03,-307 406.89,-307"/>
<polygon fill="black" stroke="black" points="407.15,-303.5 397.15,-307 407.15,-310.5 407.15,-303.5"/>
</a>
</g>
<text text-anchor="middle" x="614.12" y="-311.7" font-family="Times,serif" font-size="14.00">calls (1 ep), 32rpm</text>
</g>
<!-- SERVICE:user&#45;service&#45;&gt;DATABASE:users&#45;db -->
<g id="edge15" class="edge">
<title>SERVICE:user&#45;service&#45;&gt;DATABASE:users&#45;db</title>
<g id="a_edge15"><a xlink:title="edge#14">
<path fill="none" stroke="black" d="M961.74,-239.08C1010.94,-224.22 1088.42,-200.82 1137.65,-185.96"/>
<polygon fill="black" stroke="black" points="1138.61,-189.32 1147.17,-183.08 1136.58,-182.62 1138.61,-189.32"/>
</a>
</g>
<text text-anchor="middle" x="1043.38" y="-223.7" font-family="Times,serif" font-size="14.00">READS</text>
</g>
</g>
</svg>
