<?xml version="1.0" encoding="UTF-8" standalone="no"?>
<!DOCTYPE svg PUBLIC "-//W3C//DTD SVG 1.1//EN"
 "http://www.w3.org/Graphics/SVG/1.1/DTD/svg11.dtd">
<!-- Generated by graphviz version 9.0.0 (20230911.1827)
 -->
<!-- Title: G Pages: 1 -->
<svg width="780pt" height="174pt"
 viewBox="0.00 0.00 780.25 174.00" xmlns="http://www.w3.org/2000/svg" xmlns:xlink="http://www.w3.org/1999/xlink">
<g id="graph0" class="graph" transform="scale(1 1) rotate(0) translate(4 170)">
<title>G</title>
<polygon fill="white" stroke="none" points="-4,4 -4,-170 776.25,-170 776.25,4 -4,4"/>
<text text-anchor="middle" x="386.12" y="-148.7" font-family="Helvetica,sans-Serif" font-size="14.00">Architecture</text>
<!-- SERVICE:orders -->
<g id="node1" class="node">
<title>SERVICE:orders</title>
<path fill="#eef6ff" stroke="black" d="M253,-86C253,-86 219.75,-86 219.75,-86 213.75,-86 207.75,-80 207.75,-74 207.75,-74 207.75,-62 207.75,-62 207.75,-56 213.75,-50 219.75,-50 219.75,-50 253,-50 253,-50 259,-50 265,-56 265,-62 265,-62 265,-74 265,-74 265,-80 259,-86 253,-86"/>
<text text-anchor="middle" x="236.38" y="-63.7" font-family="Times,serif" font-size="14.00">orders</text>
</g>
<!-- SERVICE:inventory -->
<g id="node2" class="node">
<title>SERVICE:inventory</title>
<path fill="#eef6ff" stroke="black" d="M503.62,-140C503.62,-140 451.62,-140 451.62,-140 445.62,-140 439.62,-134 439.62,-128 439.62,-128 439.62,-116 439.62,-116 439.62,-110 445.62,-104 451.62,-104 451.62,-104 503.62,-104 503.62,-104 509.62,-104 515.62,-110 515.62,-116 515.62,-116 515.62,-128 515.62,-128 515.62,-134 509.62,-140 503.62,-140"/>
<text text-anchor="middle" x="477.62" y="-117.7" font-family="Times,serif" font-size="14.00">inventory</text>
</g>
<!-- SERVICE:orders&#45;&gt;SERVICE:inventory -->
<g id="edge3" class="edge">
<title>SERVICE:orders&#45;&gt;SERVICE:inventory</title>
<g id="a_edge3"><a xlink:title="edge#2">
<path fill="none" stroke="black" d="M265.25,-77.01C271.08,-78.76 277.22,-80.52 283,-82 332.03,-94.56 388.81,-105.92 428.15,-113.3"/>
<polygon fill="black" stroke="black" points="427.31,-116.7 437.78,-115.09 428.59,-109.82 427.31,-116.7"/>
</a>
</g>
<text text-anchor="middle" x="341.88" y="-111.7" font-family="Times,serif" font-size="14.00">CALLS [rest] (sync)</text>
</g>
<!-- DATABASE:shared&#45;db -->
<g id="node3" class="node">
<title>DATABASE:shared&#45;db</title>
<path fill="#fff3cd" stroke="black" d="M772.25,-82.73C772.25,-84.53 753.87,-86 731.25,-86 708.63,-86 690.25,-84.53 690.25,-82.73 690.25,-82.73 690.25,-53.27 690.25,-53.27 690.25,-51.47 708.63,-50 731.25,-50 753.87,-50 772.25,-51.47 772.25,-53.27 772.25,-53.27 772.25,-82.73 772.25,-82.73"/>
<path fill="none" stroke="black" d="M772.25,-82.73C772.25,-80.92 753.87,-79.45 731.25,-79.45 708.63,-79.45 690.25,-80.92 690.25,-82.73"/>
<text text-anchor="middle" x="731.25" y="-63.7" font-family="Times,serif" font-size="14.00">shared&#45;db</text>
</g>
<!-- SERVICE:orders&#45;&gt;DATABASE:shared&#45;db -->
<g id="edge4" class="edge">
<title>SERVICE:orders&#45;&gt;DATABASE:shared&#45;db</title>
<g id="a_edge4"><a xlink:title="edge#3">
<path fill="none" stroke="black" d="M265.29,-68C345.09,-68 575.14,-68 678.67,-68"/>
<polygon fill="black" stroke="black" points="678.55,-71.5 688.55,-68 678.55,-64.5 678.55,-71.5"/>
</a>
</g>
<text text-anchor="middle" x="477.62" y="-72.7" font-family="Times,serif" font-size="14.00">CALLS [rest] (sync)</text>
</g>
<!-- SERVICE:inventory&#45;&gt;DATABASE:shared&#45;db -->
<g id="edge5" class="edge">
<title>SERVICE:inventory&#45;&gt;DATABASE:shared&#45;db</title>
<g id="a_edge5"><a xlink:title="edge#4">
<path fill="none" stroke="black" d="M515.82,-114.7C554.86,-106.94 617.99,-94.15 672.25,-82 674.41,-81.52 676.61,-81.02 678.84,-80.5"/>
<polygon fill="black" stroke="black" points="679.62,-83.92 688.57,-78.23 678.03,-77.1 679.62,-83.92"/>
</a>
</g>
<text text-anchor="middle" x="613.38" y="-110.7" font-family="Times,serif" font-size="14.00">CALLS [rest] (sync)</text>
</g>
<!-- SERVICE:web -->
<g id="node4" class="node">
<title>SERVICE:web</title>
<path fill="#eef6ff" stroke="black" d="M42,-59C42,-59 12,-59 12,-59 6,-59 0,-53 0,-47 0,-47 0,-35 0,-35 0,-29 6,-23 12,-23 12,-23 42,-23 42,-23 48,-23 54,-29 54,-35 54,-35 54,-47 54,-47 54,-53 48,-59 42,-59"/>
<text text-anchor="middle" x="27" y="-36.7" font-family="Times,serif" font-size="14.00">web</text>
</g>
<!-- SERVICE:web&#45;&gt;SERVICE:orders -->
<g id="edge2" class="edge">
<title>SERVICE:web&#45;&gt;SERVICE:orders</title>
<g id="a_edge2"><a xlink:title="edge#1">
<path fill="none" stroke="black" d="M54.26,-44.42C90.05,-49.08 154.43,-57.46 196,-62.87"/>
<polygon fill="black" stroke="black" points="195.47,-66.33 205.84,-64.15 196.37,-59.39 195.47,-66.33"/>
</a>
</g>
<text text-anchor="middle" x="130.88" y="-65.7" font-family="Times,serif" font-size="14.00">CALLS [rest] (sync)</text>
</g>
<!-- SERVICE:auth -->
<g id="node5" class="node">
<title>SERVICE:auth</title>
<path fill="#eef6ff" stroke="black" d="M356.88,-36C356.88,-36 326.88,-36 326.88,-36 320.88,-36 314.88,-30 314.88,-24 314.88,-24 314.88,-12 314.88,-12 314.88,-6 320.88,0 326.88,0 326.88,0 356.88,0 356.88,0 362.88,0 368.88,-6 368.88,-12 368.88,-12 368.88,-24 368.88,-24 368.88,-30 362.88,-36 356.88,-36"/>
<text text-anchor="middle" x="341.88" y="-13.7" font-family="Times,serif" font-size="14.00">auth</text>
</g>
<!-- SERVICE:web&#45;&gt;SERVICE:auth -->
<g id="edge1" class="edge">
<title>SERVICE:web&#45;&gt;SERVICE:auth</title>
<g id="a_edge1"><a xlink:title="edge#0">
<path fill="none" stroke="black" d="M54.08,-29.23C59.87,-27.09 66.06,-25.18 72,-24 153.16,-7.93 250.79,-11.23 303.2,-14.79"/>
<polygon fill="black" stroke="black" points="302.86,-18.27 313.09,-15.5 303.36,-11.29 302.86,-18.27"/>
</a>
</g>
<text text-anchor="middle" x="130.88" y="-28.7" font-family="Times,serif" font-size="14.00">CALLS [rest] (sync)</text>
</g>
<!-- SERVICE:auth&#45;&gt;DATABASE:shared&#45;db -->
<g id="edge6" class="edge">
<title>SERVICE:auth&#45;&gt;DATABASE:shared&#45;db</title>
<g id="a_edge6"><a xlink:title="edge#5">
<path fill="none" stroke="black" d="M369.28,-18.21C406.64,-18.78 477.02,-20.8 536.5,-28 597.49,-35.38 612.21,-41.01 672.25,-54 674.41,-54.47 676.62,-54.96 678.85,-55.46"/>
<polygon fill="black" stroke="black" points="678.05,-58.86 688.58,-57.7 679.62,-52.04 678.05,-58.86"/>
</a>
</g>
<text text-anchor="middle" x="477.62" y="-32.7" font-family="Times,serif" font-size="14.00">CALLS [rest] (sync)</text>
</g>
</g>
</svg>
