<?xml version="1.0" encoding="UTF-8" standalone="no"?>
<!DOCTYPE svg PUBLIC "-//W3C//DTD SVG 1.1//EN"
 "http://www.w3.org/Graphics/SVG/1.1/DTD/svg11.dtd">
<!-- Generated by graphviz version 9.0.0 (20230911.1827)
 -->
<!-- Title: G Pages: 1 -->
<svg width="798pt" height="584pt"
 viewBox="0.00 0.00 798.00 584.00" xmlns="http://www.w3.org/2000/svg" xmlns:xlink="http://www.w3.org/1999/xlink">
<g id="graph0" class="graph" transform="scale(1 1) rotate(0) translate(4 580)">
<title>G</title>
<polygon fill="white" stroke="none" points="-4,4 -4,-580 794,-580 794,4 -4,4"/>
<text text-anchor="middle" x="395" y="-558.7" font-family="Helvetica,sans-Serif" font-size="14.00">Architecture</text>
<!-- SERVICE:profile -->
<g id="node1" class="node">
<title>SERVICE:profile</title>
<path fill="#eef6ff" stroke="black" d="M564.38,-164C564.38,-164 531.12,-164 531.12,-164 525.12,-164 519.12,-158 519.12,-152 519.12,-152 519.12,-140 519.12,-140 519.12,-134 525.12,-128 531.12,-128 531.12,-128 564.38,-128 564.38,-128 570.38,-128 576.38,-134 576.38,-140 576.38,-140 576.38,-152 576.38,-152 576.38,-158 570.38,-164 564.38,-164"/>
<text text-anchor="middle" x="547.75" y="-141.7" font-family="Times,serif" font-size="14.00">profile</text>
</g>
<!-- SERVICE:ingest&#45;worker -->
<g id="node2" class="node">
<title>SERVICE:ingest&#45;worker</title>
<path fill="#eef6ff" stroke="black" d="M96.62,-388C96.62,-388 14.62,-388 14.62,-388 8.62,-388 2.62,-382 2.62,-376 2.62,-376 2.62,-364 2.62,-364 2.62,-358 8.62,-352 14.62,-352 14.62,-352 96.62,-352 96.62,-352 102.62,-352 108.62,-358 108.62,-364 108.62,-364 108.62,-376 108.62,-376 108.62,-382 102.62,-388 96.62,-388"/>
<text text-anchor="middle" x="55.62" y="-365.7" font-family="Times,serif" font-size="14.00">ingest&#45;worker</text>
</g>
<!-- SERVICE:validator -->
<g id="node12" class="node">
<title>SERVICE:validator</title>
<path fill="#eef6ff" stroke="black" d="M336.5,-388C336.5,-388 288.25,-388 288.25,-388 282.25,-388 276.25,-382 276.25,-376 276.25,-376 276.25,-364 276.25,-364 276.25,-358 282.25,-352 288.25,-352 288.25,-352 336.5,-352 336.5,-352 342.5,-352 348.5,-358 348.5,-364 348.5,-364 348.5,-376 348.5,-376 348.5,-382 342.5,-388 336.5,-388"/>
<text text-anchor="middle" x="312.38" y="-365.7" font-family="Times,serif" font-size="14.00">validator</text>
</g>
<!-- SERVICE:ingest&#45;worker&#45;&gt;SERVICE:validator -->
<g id="edge4" class="edge">
<title>SERVICE:ingest&#45;worker&#45;&gt;SERVICE:validator</title>
<g id="a_edge4"><a xlink:title="edge#3">
<path fill="none" stroke="black" d="M109.1,-370C154.83,-370 220.53,-370 264.52,-370"/>
<polygon fill="black" stroke="black" points="264.25,-373.5 274.25,-370 264.25,-366.5 264.25,-373.5"/>
</a>
</g>
<text text-anchor="middle" x="188.12" y="-374.7" font-family="Times,serif" font-size="14.00">CALLS [rest] (sync)</text>
</g>
<!-- SERVICE:writer -->
<g id="node3" class="node">
<title>SERVICE:writer</title>
<path fill="#eef6ff" stroke="black" d="M778,-388C778,-388 747.75,-388 747.75,-388 741.75,-388 735.75,-382 735.75,-376 735.75,-376 735.75,-364 735.75,-364 735.75,-358 741.75,-352 747.75,-352 747.75,-352 778,-352 778,-352 784,-352 790,-358 790,-364 790,-364 790,-376 790,-376 790,-382 784,-388 778,-388"/>
<text text-anchor="middle" x="762.88" y="-365.7" font-family="Times,serif" font-size="14.00">writer</text>
</g>
<!-- SERVICE:billing&#45;api -->
<g id="node4" class="node">
<title>SERVICE:billing&#45;api</title>
<path fill="#eef6ff" stroke="black" d="M84.25,-550C84.25,-550 27,-550 27,-550 21,-550 15,-544 15,-538 15,-538 15,-526 15,-526 15,-520 21,-514 27,-514 27,-514 84.25,-514 84.25,-514 90.25,-514 96.25,-520 96.25,-526 96.25,-526 96.25,-538 96.25,-538 96.25,-544 90.25,-550 84.25,-550"/>
<text text-anchor="middle" x="55.62" y="-527.7" font-family="Times,serif" font-size="14.00">billing&#45;api</text>
</g>
<!-- DATABASE:finance&#45;db -->
<g id="node6" class="node">
<title>DATABASE:finance&#45;db</title>
<path fill="#fff3cd" stroke="black" d="M354.88,-492.73C354.88,-494.53 335.83,-496 312.38,-496 288.92,-496 269.88,-494.53 269.88,-492.73 269.88,-492.73 269.88,-463.27 269.88,-463.27 269.88,-461.47 288.92,-460 312.38,-460 335.83,-460 354.88,-461.47 354.88,-463.27 354.88,-463.27 354.88,-492.73 354.88,-492.73"/>
<path fill="none" stroke="black" d="M354.88,-492.73C354.88,-490.92 335.83,-489.45 312.38,-489.45 288.92,-489.45 269.88,-490.92 269.88,-492.73"/>
<text text-anchor="middle" x="312.38" y="-473.7" font-family="Times,serif" font-size="14.00">finance&#45;db</text>
</g>
<!-- SERVICE:billing&#45;api&#45;&gt;DATABASE:finance&#45;db -->
<g id="edge7" class="edge">
<title>SERVICE:billing&#45;api&#45;&gt;DATABASE:finance&#45;db</title>
<g id="a_edge7"><a xlink:title="edge#6">
<path fill="none" stroke="black" d="M96.39,-527.23C135.18,-522.14 195.67,-512.99 247,-500 250.78,-499.04 254.65,-497.97 258.53,-496.82"/>
<polygon fill="black" stroke="black" points="259.47,-500.19 267.98,-493.88 257.39,-493.51 259.47,-500.19"/>
</a>
</g>
<text text-anchor="middle" x="188.12" y="-527.7" font-family="Times,serif" font-size="14.00">CALLS [rest] (sync)</text>
</g>
<!-- SERVICE:settlement&#45;api -->
<g id="node5" class="node">
<title>SERVICE:settlement&#45;api</title>
<path fill="#eef6ff" stroke="black" d="M99.25,-496C99.25,-496 12,-496 12,-496 6,-496 0,-490 0,-484 0,-484 0,-472 0,-472 0,-466 6,-460 12,-460 12,-460 99.25,-460 99.25,-460 105.25,-460 111.25,-466 111.25,-472 111.25,-472 111.25,-484 111.25,-484 111.25,-490 105.25,-496 99.25,-496"/>
<text text-anchor="middle" x="55.62" y="-473.7" font-family="Times,serif" font-size="14.00">settlement&#45;api</text>
</g>
<!-- SERVICE:settlement&#45;api&#45;&gt;DATABASE:finance&#45;db -->
<g id="edge9" class="edge">
<title>SERVICE:settlement&#45;api&#45;&gt;DATABASE:finance&#45;db</title>
<g id="a_edge9"><a xlink:title="edge#8">
<path fill="none" stroke="black" d="M111.59,-478C155,-478 215.21,-478 258.16,-478"/>
<polygon fill="black" stroke="black" points="258,-481.5 268,-478 258,-474.5 258,-481.5"/>
</a>
</g>
<text text-anchor="middle" x="188.12" y="-482.7" font-family="Times,serif" font-size="14.00">CALLS [rest] (sync)</text>
</g>
<!-- SERVICE:bff -->
<g id="node7" class="node">
<title>SERVICE:bff</title>
<path fill="#eef6ff" stroke="black" d="M327.38,-152C327.38,-152 297.38,-152 297.38,-152 291.38,-152 285.38,-146 285.38,-140 285.38,-140 285.38,-128 285.38,-128 285.38,-122 291.38,-116 297.38,-116 297.38,-116 327.38,-116 327.38,-116 333.38,-116 339.38,-122 339.38,-128 339.38,-128 339.38,-140 339.38,-140 339.38,-146 333.38,-152 327.38,-152"/>
<text text-anchor="middle" x="312.38" y="-129.7" font-family="Times,serif" font-size="14.00">bff</text>
</g>
<!-- SERVICE:bff&#45;&gt;SERVICE:profile -->
<g id="edge16" class="edge">
<title>SERVICE:bff&#45;&gt;SERVICE:profile</title>
<g id="a_edge16"><a xlink:title="edge#15">
<path fill="none" stroke="black" d="M339.58,-123.9C351.1,-119.97 364.91,-115.95 377.75,-114 429.49,-106.15 445.19,-99.58 495.5,-114 501.77,-115.8 508.01,-118.6 513.87,-121.83"/>
<polygon fill="black" stroke="black" points="511.65,-124.58 522.02,-126.76 515.28,-118.59 511.65,-124.58"/>
</a>
</g>
<text text-anchor="middle" x="436.62" y="-118.7" font-family="Times,serif" font-size="14.00">CALLS [rest] (sync)</text>
</g>
<!-- SERVICE:catalog -->
<g id="node10" class="node">
<title>SERVICE:catalog</title>
<path fill="#eef6ff" stroke="black" d="M567.38,-90C567.38,-90 528.12,-90 528.12,-90 522.12,-90 516.12,-84 516.12,-78 516.12,-78 516.12,-66 516.12,-66 516.12,-60 522.12,-54 528.12,-54 528.12,-54 567.38,-54 567.38,-54 573.38,-54 579.38,-60 579.38,-66 579.38,-66 579.38,-78 579.38,-78 579.38,-84 573.38,-90 567.38,-90"/>
<text text-anchor="middle" x="547.75" y="-67.7" font-family="Times,serif" font-size="14.00">catalog</text>
</g>
<!-- SERVICE:bff&#45;&gt;SERVICE:catalog -->
<g id="edge13" class="edge">
<title>SERVICE:bff&#45;&gt;SERVICE:catalog</title>
<g id="a_edge13"><a xlink:title="edge#12">
<path fill="none" stroke="black" d="M330.97,-115.63C342.98,-104.36 359.91,-90.83 377.75,-84 418.72,-68.32 469.31,-66.83 504.41,-68.33"/>
<polygon fill="black" stroke="black" points="504,-71.81 514.17,-68.85 504.37,-64.82 504,-71.81"/>
</a>
</g>
<text text-anchor="middle" x="436.62" y="-88.7" font-family="Times,serif" font-size="14.00">CALLS [rest] (sync)</text>
</g>
<!-- SERVICE:support -->
<g id="node11" class="node">
<title>SERVICE:support</title>
<path fill="#eef6ff" stroke="black" d="M568.5,-253C568.5,-253 527,-253 527,-253 521,-253 515,-247 515,-241 515,-241 515,-229 515,-229 515,-223 521,-217 527,-217 527,-217 568.5,-217 568.5,-217 574.5,-217 580.5,-223 580.5,-229 580.5,-229 580.5,-241 580.5,-241 580.5,-247 574.5,-253 568.5,-253"/>
<text text-anchor="middle" x="547.75" y="-230.7" font-family="Times,serif" font-size="14.00">support</text>
</g>
<!-- SERVICE:bff&#45;&gt;SERVICE:support -->
<g id="edge15" class="edge">
<title>SERVICE:bff&#45;&gt;SERVICE:support</title>
<g id="a_edge15"><a xlink:title="edge#14">
<path fill="none" stroke="black" d="M339.73,-134.31C383.79,-135.26 470.12,-139.16 495.5,-155 505.69,-161.36 520.87,-186.37 532.06,-206.75"/>
<polygon fill="black" stroke="black" points="528.97,-208.39 536.79,-215.53 535.13,-205.07 528.97,-208.39"/>
</a>
</g>
<text text-anchor="middle" x="436.62" y="-159.7" font-family="Times,serif" font-size="14.00">CALLS [rest] (sync)</text>
</g>
<!-- SERVICE:auth -->
<g id="node15" class="node">
<title>SERVICE:auth</title>
<path fill="#eef6ff" stroke="black" d="M562.75,-36C562.75,-36 532.75,-36 532.75,-36 526.75,-36 520.75,-30 520.75,-24 520.75,-24 520.75,-12 520.75,-12 520.75,-6 526.75,0 532.75,0 532.75,0 562.75,0 562.75,0 568.75,0 574.75,-6 574.75,-12 574.75,-12 574.75,-24 574.75,-24 574.75,-30 568.75,-36 562.75,-36"/>
<text text-anchor="middle" x="547.75" y="-13.7" font-family="Times,serif" font-size="14.00">auth</text>
</g>
<!-- SERVICE:bff&#45;&gt;SERVICE:auth -->
<g id="edge12" class="edge">
<title>SERVICE:bff&#45;&gt;SERVICE:auth</title>
<g id="a_edge12"><a xlink:title="edge#11">
<path fill="none" stroke="black" d="M321.37,-115.86C331.41,-95.36 350.67,-62.67 377.75,-46 417.86,-21.31 473.02,-16.46 509.25,-16.34"/>
<polygon fill="black" stroke="black" points="508.77,-19.83 518.8,-16.43 508.83,-12.84 508.77,-19.83"/>
</a>
</g>
<text text-anchor="middle" x="436.62" y="-50.7" font-family="Times,serif" font-size="14.00">CALLS [rest] (sync)</text>
</g>
<!-- SERVICE:reviews -->
<g id="node16" class="node">
<title>SERVICE:reviews</title>
<path fill="#eef6ff" stroke="black" d="M568.12,-325C568.12,-325 527.38,-325 527.38,-325 521.38,-325 515.38,-319 515.38,-313 515.38,-313 515.38,-301 515.38,-301 515.38,-295 521.38,-289 527.38,-289 527.38,-289 568.12,-289 568.12,-289 574.12,-289 580.12,-295 580.12,-301 580.12,-301 580.12,-313 580.12,-313 580.12,-319 574.12,-325 568.12,-325"/>
<text text-anchor="middle" x="547.75" y="-302.7" font-family="Times,serif" font-size="14.00">reviews</text>
</g>
<!-- SERVICE:bff&#45;&gt;SERVICE:reviews -->
<g id="edge14" class="edge">
<title>SERVICE:bff&#45;&gt;SERVICE:reviews</title>
<g id="a_edge14"><a xlink:title="edge#13">
<path fill="none" stroke="black" d="M338.53,-152.34C349.97,-159.85 364.01,-167.95 377.75,-173 427.5,-191.29 456.34,-156.27 495.5,-192 519.23,-213.65 499.7,-232.99 513.5,-262 516.39,-268.07 520.14,-274.14 524.09,-279.78"/>
<polygon fill="black" stroke="black" points="521.1,-281.62 529.87,-287.55 526.71,-277.44 521.1,-281.62"/>
</a>
</g>
<text text-anchor="middle" x="436.62" y="-196.7" font-family="Times,serif" font-size="14.00">CALLS [rest] (sync)</text>
</g>
<!-- SERVICE:enricher -->
<g id="node8" class="node">
<title>SERVICE:enricher</title>
<path fill="#eef6ff" stroke="black" d="M570,-388C570,-388 525.5,-388 525.5,-388 519.5,-388 513.5,-382 513.5,-376 513.5,-376 513.5,-364 513.5,-364 513.5,-358 519.5,-352 525.5,-352 525.5,-352 570,-352 570,-352 576,-352 582,-358 582,-364 582,-364 582,-376 582,-376 582,-382 576,-388 570,-388"/>
<text text-anchor="middle" x="547.75" y="-365.7" font-family="Times,serif" font-size="14.00">enricher</text>
</g>
<!-- SERVICE:enricher&#45;&gt;SERVICE:writer -->
<g id="edge6" class="edge">
<title>SERVICE:enricher&#45;&gt;SERVICE:writer</title>
<g id="a_edge6"><a xlink:title="edge#5">
<path fill="none" stroke="black" d="M582.05,-370C620.54,-370 683.75,-370 724.06,-370"/>
<polygon fill="black" stroke="black" points="724.01,-373.5 734.01,-370 724.01,-366.5 724.01,-373.5"/>
</a>
</g>
<text text-anchor="middle" x="658.88" y="-374.7" font-family="Times,serif" font-size="14.00">CALLS [rest] (sync)</text>
</g>
<!-- SERVICE:web&#45;ui -->
<g id="node9" class="node">
<title>SERVICE:web&#45;ui</title>
<path fill="#eef6ff" stroke="black" d="M73.75,-193C73.75,-193 37.5,-193 37.5,-193 31.5,-193 25.5,-187 25.5,-181 25.5,-181 25.5,-169 25.5,-169 25.5,-163 31.5,-157 37.5,-157 37.5,-157 73.75,-157 73.75,-157 79.75,-157 85.75,-163 85.75,-169 85.75,-169 85.75,-181 85.75,-181 85.75,-187 79.75,-193 73.75,-193"/>
<text text-anchor="middle" x="55.62" y="-170.7" font-family="Times,serif" font-size="14.00">web&#45;ui</text>
</g>
<!-- SERVICE:web&#45;ui&#45;&gt;SERVICE:bff -->
<g id="edge11" class="edge">
<title>SERVICE:web&#45;ui&#45;&gt;SERVICE:bff</title>
<g id="a_edge11"><a xlink:title="edge#10">
<path fill="none" stroke="black" d="M86.1,-170.26C132.63,-162.77 223.08,-148.21 274.07,-140"/>
<polygon fill="black" stroke="black" points="274.42,-143.49 283.74,-138.45 273.31,-136.58 274.42,-143.49"/>
</a>
</g>
<text text-anchor="middle" x="188.12" y="-167.7" font-family="Times,serif" font-size="14.00">CALLS [rest] (sync)</text>
</g>
<!-- SERVICE:web&#45;ui_split -->
<g id="node14" class="node">
<title>SERVICE:web&#45;ui_split</title>
<path fill="#eef6ff" stroke="black" d="M347.75,-275C347.75,-275 277,-275 277,-275 271,-275 265,-269 265,-263 265,-263 265,-251 265,-251 265,-245 271,-239 277,-239 277,-239 347.75,-239 347.75,-239 353.75,-239 359.75,-245 359.75,-251 359.75,-251 359.75,-263 359.75,-263 359.75,-269 353.75,-275 347.75,-275"/>
<text text-anchor="middle" x="312.38" y="-252.7" font-family="Times,serif" font-size="14.00">web&#45;ui_split</text>
</g>
<!-- SERVICE:web&#45;ui&#45;&gt;SERVICE:web&#45;ui_split -->
<g id="edge10" class="edge">
<title>SERVICE:web&#45;ui&#45;&gt;SERVICE:web&#45;ui_split</title>
<g id="a_edge10"><a xlink:title="edge#9">
<path fill="none" stroke="black" d="M86.1,-184.49C127.06,-197.67 202.04,-221.81 254.19,-238.59"/>
<polygon fill="black" stroke="black" points="252.92,-241.86 263.51,-241.59 255.06,-235.2 252.92,-241.86"/>
</a>
</g>
<text text-anchor="middle" x="188.12" y="-240.7" font-family="Times,serif" font-size="14.00">CALLS [rest] (sync)</text>
</g>
<!-- SERVICE:validator&#45;&gt;SERVICE:enricher -->
<g id="edge5" class="edge">
<title>SERVICE:validator&#45;&gt;SERVICE:enricher</title>
<g id="a_edge5"><a xlink:title="edge#4">
<path fill="none" stroke="black" d="M348.82,-370C389.79,-370 457.28,-370 501.88,-370"/>
<polygon fill="black" stroke="black" points="501.73,-373.5 511.73,-370 501.73,-366.5 501.73,-373.5"/>
</a>
</g>
<text text-anchor="middle" x="436.62" y="-374.7" font-family="Times,serif" font-size="14.00">CALLS [rest] (sync)</text>
</g>
<!-- SERVICE:refund&#45;api -->
<g id="node13" class="node">
<title>SERVICE:refund&#45;api</title>
<path fill="#eef6ff" stroke="black" d="M85,-442C85,-442 26.25,-442 26.25,-442 20.25,-442 14.25,-436 14.25,-430 14.25,-430 14.25,-418 14.25,-418 14.25,-412 20.25,-406 26.25,-406 26.25,-406 85,-406 85,-406 91,-406 97,-412 97,-418 97,-418 97,-430 97,-430 97,-436 91,-442 85,-442"/>
<text text-anchor="middle" x="55.62" y="-419.7" font-family="Times,serif" font-size="14.00">refund&#45;api</text>
</g>
<!-- SERVICE:refund&#45;api&#45;&gt;DATABASE:finance&#45;db -->
<g id="edge8" class="edge">
<title>SERVICE:refund&#45;api&#45;&gt;DATABASE:finance&#45;db</title>
<g id="a_edge8"><a xlink:title="edge#7">
<path fill="none" stroke="black" d="M97.13,-428.86C135.94,-433.98 195.99,-443.09 247,-456 250.78,-456.96 254.65,-458.03 258.53,-459.18"/>
<polygon fill="black" stroke="black" points="257.39,-462.49 267.98,-462.12 259.47,-455.81 257.39,-462.49"/>
</a>
</g>
<text text-anchor="middle" x="188.12" y="-460.7" font-family="Times,serif" font-size="14.00">CALLS [rest] (sync)</text>
</g>
<!-- SERVICE:web&#45;ui_split&#45;&gt;SERVICE:profile -->
<g id="edge3" class="edge">
<title>SERVICE:web&#45;ui_split&#45;&gt;SERVICE:profile</title>
<g id="a_edge3"><a xlink:title="edge#2">
<path fill="none" stroke="black" d="M359.44,-238.59C365.54,-236.52 371.75,-234.59 377.75,-233 429,-219.45 450.1,-241.37 495.5,-214 511.09,-204.6 523.54,-188.52 532.26,-174.35"/>
<polygon fill="black" stroke="black" points="535.22,-176.22 537.19,-165.81 529.16,-172.72 535.22,-176.22"/>
</a>
</g>
<text text-anchor="middle" x="436.62" y="-237.7" font-family="Times,serif" font-size="14.00">CALLS [rest] (sync)</text>
</g>
<!-- SERVICE:web&#45;ui_split&#45;&gt;SERVICE:support -->
<g id="edge2" class="edge">
<title>SERVICE:web&#45;ui_split&#45;&gt;SERVICE:support</title>
<g id="a_edge2"><a xlink:title="edge#1">
<path fill="none" stroke="black" d="M359.87,-261.06C396.95,-263.2 450.02,-263.82 495.5,-255 498.29,-254.46 501.12,-253.77 503.95,-252.99"/>
<polygon fill="black" stroke="black" points="504.85,-256.37 513.3,-249.98 502.71,-249.71 504.85,-256.37"/>
</a>
</g>
<text text-anchor="middle" x="436.62" y="-267.7" font-family="Times,serif" font-size="14.00">CALLS [rest] (sync)</text>
</g>
<!-- SERVICE:web&#45;ui_split&#45;&gt;SERVICE:reviews -->
<g id="edge1" class="edge">
<title>SERVICE:web&#45;ui_split&#45;&gt;SERVICE:reviews</title>
<g id="a_edge1"><a xlink:title="edge#0">
<path fill="none" stroke="black" d="M350.86,-275.4C359.52,-279.06 368.82,-282.53 377.75,-285 419.77,-296.62 469.4,-302.15 503.97,-304.76"/>
<polygon fill="black" stroke="black" points="503.35,-308.22 513.57,-305.43 503.84,-301.24 503.35,-308.22"/>
</a>
</g>
<text text-anchor="middle" x="436.62" y="-308.7" font-family="Times,serif" font-size="14.00">CALLS [rest] (sync)</text>
</g>
</g>
</svg>
