<?xml version="1.0" encoding="UTF-8" standalone="no"?>
<!DOCTYPE svg PUBLIC "-//W3C//DTD SVG 1.1//EN"
 "http://www.w3.org/Graphics/SVG/1.1/DTD/svg11.dtd">
<!-- Generated by graphviz version 9.0.0 (20230911.1827)
 -->
<!-- Title: G Pages: 1 -->
<svg width="3056pt" height="331pt"
 viewBox="0.00 0.00 3055.50 331.00" xmlns="http://www.w3.org/2000/svg" xmlns:xlink="http://www.w3.org/1999/xlink">
<g id="graph0" class="graph" transform="scale(1 1) rotate(0) translate(4 327)">
<title>G</title>
<polygon fill="white" stroke="none" points="-4,4 -4,-327 3051.5,-327 3051.5,4 -4,4"/>
<text text-anchor="middle" x="1523.75" y="-305.7" font-family="Helvetica,sans-Serif" font-size="14.00">Architecture</text>
<!-- SERVICE:orders_split&#45;3 -->
<g id="node1" class="node">
<title>SERVICE:orders_split&#45;3</title>
<path fill="#eef6ff" stroke="black" d="M2025.25,-151C2025.25,-151 1944,-151 1944,-151 1938,-151 1932,-145 1932,-139 1932,-139 1932,-127 1932,-127 1932,-121 1938,-115 1944,-115 1944,-115 2025.25,-115 2025.25,-115 2031.25,-115 2037.25,-121 2037.25,-127 2037.25,-127 2037.25,-139 2037.25,-139 2037.25,-145 2031.25,-151 2025.25,-151"/>
<text text-anchor="middle" x="1984.62" y="-128.7" font-family="Times,serif" font-size="14.00">orders_split&#45;3</text>
</g>
<!-- SERVICE:orders_split&#45;2 -->
<g id="node9" class="node">
<title>SERVICE:orders_split&#45;2</title>
<path fill="#eef6ff" stroke="black" d="M2290.5,-151C2290.5,-151 2209.25,-151 2209.25,-151 2203.25,-151 2197.25,-145 2197.25,-139 2197.25,-139 2197.25,-127 2197.25,-127 2197.25,-121 2203.25,-115 2209.25,-115 2209.25,-115 2290.5,-115 2290.5,-115 2296.5,-115 2302.5,-121 2302.5,-127 2302.5,-127 2302.5,-139 2302.5,-139 2302.5,-145 2296.5,-151 2290.5,-151"/>
<text text-anchor="middle" x="2249.88" y="-128.7" font-family="Times,serif" font-size="14.00">orders_split&#45;2</text>
</g>
<!-- SERVICE:orders_split&#45;3&#45;&gt;SERVICE:orders_split&#45;2 -->
<g id="edge23" class="edge">
<title>SERVICE:orders_split&#45;3&#45;&gt;SERVICE:orders_split&#45;2</title>
<g id="a_edge23"><a xlink:title="edge#22">
<path fill="none" stroke="black" d="M2037.63,-133C2080.09,-133 2140.25,-133 2185.51,-133"/>
<polygon fill="black" stroke="black" points="2185.46,-136.5 2195.46,-133 2185.46,-129.5 2185.46,-136.5"/>
</a>
</g>
<text text-anchor="middle" x="2114.12" y="-137.7" font-family="Times,serif" font-size="14.00">CALLS [rest] (sync)</text>
</g>
<!-- SERVICE:orders_split&#45;4 -->
<g id="node2" class="node">
<title>SERVICE:orders_split&#45;4</title>
<path fill="#eef6ff" stroke="black" d="M1766.25,-151C1766.25,-151 1684.25,-151 1684.25,-151 1678.25,-151 1672.25,-145 1672.25,-139 1672.25,-139 1672.25,-127 1672.25,-127 1672.25,-121 1678.25,-115 1684.25,-115 1684.25,-115 1766.25,-115 1766.25,-115 1772.25,-115 1778.25,-121 1778.25,-127 1778.25,-127 1778.25,-139 1778.25,-139 1778.25,-145 1772.25,-151 1766.25,-151"/>
<text text-anchor="middle" x="1725.25" y="-128.7" font-family="Times,serif" font-size="14.00">orders_split&#45;4</text>
</g>
<!-- SERVICE:orders_split&#45;4&#45;&gt;SERVICE:orders_split&#45;3 -->
<g id="edge30" class="edge">
<title>SERVICE:orders_split&#45;4&#45;&gt;SERVICE:orders_split&#45;3</title>
<g id="a_edge30"><a xlink:title="edge#29">
<path fill="none" stroke="black" d="M1778.64,-133C1819.66,-133 1876.86,-133 1920.42,-133"/>
<polygon fill="black" stroke="black" points="1920.23,-136.5 1930.23,-133 1920.23,-129.5 1920.23,-136.5"/>
</a>
</g>
<text text-anchor="middle" x="1855.12" y="-137.7" font-family="Times,serif" font-size="14.00">CALLS [rest] (sync)</text>
</g>
<!-- SERVICE:orders_split&#45;1 -->
<g id="node3" class="node">
<title>SERVICE:orders_split&#45;1</title>
<path fill="#eef6ff" stroke="black" d="M2554.25,-150C2554.25,-150 2474.5,-150 2474.5,-150 2468.5,-150 2462.5,-144 2462.5,-138 2462.5,-138 2462.5,-126 2462.5,-126 2462.5,-120 2468.5,-114 2474.5,-114 2474.5,-114 2554.25,-114 2554.25,-114 2560.25,-114 2566.25,-120 2566.25,-126 2566.25,-126 2566.25,-138 2566.25,-138 2566.25,-144 2560.25,-150 2554.25,-150"/>
<text text-anchor="middle" x="2514.38" y="-127.7" font-family="Times,serif" font-size="14.00">orders_split&#45;1</text>
</g>
<!-- SERVICE:orders_split -->
<g id="node20" class="node">
<title>SERVICE:orders_split</title>
<path fill="#eef6ff" stroke="black" d="M2799.75,-147C2799.75,-147 2732,-147 2732,-147 2726,-147 2720,-141 2720,-135 2720,-135 2720,-123 2720,-123 2720,-117 2726,-111 2732,-111 2732,-111 2799.75,-111 2799.75,-111 2805.75,-111 2811.75,-117 2811.75,-123 2811.75,-123 2811.75,-135 2811.75,-135 2811.75,-141 2805.75,-147 2799.75,-147"/>
<text text-anchor="middle" x="2765.88" y="-124.7" font-family="Times,serif" font-size="14.00">orders_split</text>
</g>
<!-- SERVICE:orders_split&#45;1&#45;&gt;SERVICE:orders_split -->
<g id="edge8" class="edge">
<title>SERVICE:orders_split&#45;1&#45;&gt;SERVICE:orders_split</title>
<g id="a_edge8"><a xlink:title="edge#7">
<path fill="none" stroke="black" d="M2566.47,-131.39C2607.73,-130.89 2665.76,-130.19 2708.4,-129.68"/>
<polygon fill="black" stroke="black" points="2708.24,-133.18 2718.2,-129.56 2708.16,-126.18 2708.24,-133.18"/>
</a>
</g>
<text text-anchor="middle" x="2643.12" y="-135.7" font-family="Times,serif" font-size="14.00">CALLS [rest] (sync)</text>
</g>
<!-- SERVICE:payments -->
<g id="node4" class="node">
<title>SERVICE:payments</title>
<path fill="#eef6ff" stroke="black" d="M1268.62,-227C1268.62,-227 1213.62,-227 1213.62,-227 1207.62,-227 1201.62,-221 1201.62,-215 1201.62,-215 1201.62,-203 1201.62,-203 1201.62,-197 1207.62,-191 1213.62,-191 1213.62,-191 1268.62,-191 1268.62,-191 1274.62,-191 1280.62,-197 1280.62,-203 1280.62,-203 1280.62,-215 1280.62,-215 1280.62,-221 1274.62,-227 1268.62,-227"/>
<text text-anchor="middle" x="1241.12" y="-204.7" font-family="Times,serif" font-size="14.00">payments</text>
</g>
<!-- SERVICE:orders -->
<g id="node18" class="node">
<title>SERVICE:orders</title>
<path fill="#eef6ff" stroke="black" d="M1506.5,-196C1506.5,-196 1473.25,-196 1473.25,-196 1467.25,-196 1461.25,-190 1461.25,-184 1461.25,-184 1461.25,-172 1461.25,-172 1461.25,-166 1467.25,-160 1473.25,-160 1473.25,-160 1506.5,-160 1506.5,-160 1512.5,-160 1518.5,-166 1518.5,-172 1518.5,-172 1518.5,-184 1518.5,-184 1518.5,-190 1512.5,-196 1506.5,-196"/>
<text text-anchor="middle" x="1489.88" y="-173.7" font-family="Times,serif" font-size="14.00">orders</text>
</g>
<!-- SERVICE:payments&#45;&gt;SERVICE:orders -->
<g id="edge3" class="edge">
<title>SERVICE:payments&#45;&gt;SERVICE:orders</title>
<g id="a_edge3"><a xlink:title="edge#2">
<path fill="none" stroke="black" d="M1281.1,-209.11C1321.93,-208.52 1387.72,-205.6 1443.25,-194 1445.56,-193.52 1447.91,-192.95 1450.27,-192.32"/>
<polygon fill="black" stroke="black" points="1451.21,-195.69 1459.77,-189.44 1449.18,-188.99 1451.21,-195.69"/>
</a>
</g>
<text text-anchor="middle" x="1380.62" y="-211.7" font-family="Times,serif" font-size="14.00">CALLS [rest] (async)</text>
</g>
<!-- SERVICE:inventory -->
<g id="node5" class="node">
<title>SERVICE:inventory</title>
<path fill="#eef6ff" stroke="black" d="M1881.12,-197C1881.12,-197 1829.12,-197 1829.12,-197 1823.12,-197 1817.12,-191 1817.12,-185 1817.12,-185 1817.12,-173 1817.12,-173 1817.12,-167 1823.12,-161 1829.12,-161 1829.12,-161 1881.12,-161 1881.12,-161 1887.12,-161 1893.12,-167 1893.12,-173 1893.12,-173 1893.12,-185 1893.12,-185 1893.12,-191 1887.12,-197 1881.12,-197"/>
<text text-anchor="middle" x="1855.12" y="-174.7" font-family="Times,serif" font-size="14.00">inventory</text>
</g>
<!-- DATABASE:shared&#45;db -->
<g id="node19" class="node">
<title>DATABASE:shared&#45;db</title>
<path fill="#fff3cd" stroke="black" d="M3047.5,-120.73C3047.5,-122.53 3029.12,-124 3006.5,-124 2983.88,-124 2965.5,-122.53 2965.5,-120.73 2965.5,-120.73 2965.5,-91.27 2965.5,-91.27 2965.5,-89.47 2983.88,-88 3006.5,-88 3029.12,-88 3047.5,-89.47 3047.5,-91.27 3047.5,-91.27 3047.5,-120.73 3047.5,-120.73"/>
<path fill="none" stroke="black" d="M3047.5,-120.73C3047.5,-118.92 3029.12,-117.45 3006.5,-117.45 2983.88,-117.45 2965.5,-118.92 2965.5,-120.73"/>
<text text-anchor="middle" x="3006.5" y="-101.7" font-family="Times,serif" font-size="14.00">shared&#45;db</text>
</g>
<!-- SERVICE:inventory&#45;&gt;DATABASE:shared&#45;db -->
<g id="edge7" class="edge">
<title>SERVICE:inventory&#45;&gt;DATABASE:shared&#45;db</title>
<g id="a_edge7"><a xlink:title="edge#6">
<path fill="none" stroke="black" d="M1893.58,-179C1943.62,-179 2035.04,-179 2113.12,-179 2113.12,-179 2113.12,-179 2766.88,-179 2848.65,-179 2871.74,-174.76 2947.5,-144 2956.05,-140.53 2964.68,-135.73 2972.57,-130.71"/>
<polygon fill="black" stroke="black" points="2974.5,-133.63 2980.86,-125.16 2970.6,-127.82 2974.5,-133.63"/>
</a>
</g>
<text text-anchor="middle" x="2385.62" y="-183.7" font-family="Times,serif" font-size="14.00">CALLS [rest] (sync)</text>
</g>
<!-- SERVICE:web&#45;ui_split -->
<g id="node6" class="node">
<title>SERVICE:web&#45;ui_split</title>
<path fill="#eef6ff" stroke="black" d="M504.5,-193C504.5,-193 433.75,-193 433.75,-193 427.75,-193 421.75,-187 421.75,-181 421.75,-181 421.75,-169 421.75,-169 421.75,-163 427.75,-157 433.75,-157 433.75,-157 504.5,-157 504.5,-157 510.5,-157 516.5,-163 516.5,-169 516.5,-169 516.5,-181 516.5,-181 516.5,-187 510.5,-193 504.5,-193"/>
<text text-anchor="middle" x="469.12" y="-170.7" font-family="Times,serif" font-size="14.00">web&#45;ui_split</text>
</g>
<!-- SERVICE:bff&#45;3 -->
<g id="node24" class="node">
<title>SERVICE:bff&#45;3</title>
<path fill="#eef6ff" stroke="black" d="M749.88,-193C749.88,-193 719.88,-193 719.88,-193 713.88,-193 707.88,-187 707.88,-181 707.88,-181 707.88,-169 707.88,-169 707.88,-163 713.88,-157 719.88,-157 719.88,-157 749.88,-157 749.88,-157 755.88,-157 761.88,-163 761.88,-169 761.88,-169 761.88,-181 761.88,-181 761.88,-187 755.88,-193 749.88,-193"/>
<text text-anchor="middle" x="734.88" y="-170.7" font-family="Times,serif" font-size="14.00">bff&#45;3</text>
</g>
<!-- SERVICE:web&#45;ui_split&#45;&gt;SERVICE:bff&#45;3 -->
<g id="edge25" class="edge">
<title>SERVICE:web&#45;ui_split&#45;&gt;SERVICE:bff&#45;3</title>
<g id="a_edge25"><a xlink:title="edge#24">
<path fill="none" stroke="black" d="M516.97,-175C568.15,-175 649.1,-175 696.29,-175"/>
<polygon fill="black" stroke="black" points="696.01,-178.5 706.01,-175 696.01,-171.5 696.01,-178.5"/>
</a>
</g>
<text text-anchor="middle" x="593.38" y="-179.7" font-family="Times,serif" font-size="14.00">CALLS [rest] (sync)</text>
</g>
<!-- SERVICE:bff&#45;2 -->
<g id="node7" class="node">
<title>SERVICE:bff&#45;2</title>
<path fill="#eef6ff" stroke="black" d="M1002.12,-193C1002.12,-193 972.12,-193 972.12,-193 966.12,-193 960.12,-187 960.12,-181 960.12,-181 960.12,-169 960.12,-169 960.12,-163 966.12,-157 972.12,-157 972.12,-157 1002.12,-157 1002.12,-157 1008.12,-157 1014.12,-163 1014.12,-169 1014.12,-169 1014.12,-181 1014.12,-181 1014.12,-187 1008.12,-193 1002.12,-193"/>
<text text-anchor="middle" x="987.12" y="-170.7" font-family="Times,serif" font-size="14.00">bff&#45;2</text>
</g>
<!-- SERVICE:bff&#45;2&#45;&gt;SERVICE:payments -->
<g id="edge18" class="edge">
<title>SERVICE:bff&#45;2&#45;&gt;SERVICE:payments</title>
<g id="a_edge18"><a xlink:title="edge#17">
<path fill="none" stroke="black" d="M1014.44,-177.71C1048.92,-181.37 1111.22,-188.3 1164.25,-196 1172.62,-197.22 1181.49,-198.62 1190.09,-200.06"/>
<polygon fill="black" stroke="black" points="1189.26,-203.46 1199.7,-201.68 1190.43,-196.56 1189.26,-203.46"/>
</a>
</g>
<text text-anchor="middle" x="1101.62" y="-200.7" font-family="Times,serif" font-size="14.00">CALLS [rest] (sync)</text>
</g>
<!-- SERVICE:bff&#45;2_split -->
<g id="node22" class="node">
<title>SERVICE:bff&#45;2_split</title>
<path fill="#eef6ff" stroke="black" d="M1269.75,-169C1269.75,-169 1212.5,-169 1212.5,-169 1206.5,-169 1200.5,-163 1200.5,-157 1200.5,-157 1200.5,-145 1200.5,-145 1200.5,-139 1206.5,-133 1212.5,-133 1212.5,-133 1269.75,-133 1269.75,-133 1275.75,-133 1281.75,-139 1281.75,-145 1281.75,-145 1281.75,-157 1281.75,-157 1281.75,-163 1275.75,-169 1269.75,-169"/>
<text text-anchor="middle" x="1241.12" y="-146.7" font-family="Times,serif" font-size="14.00">bff&#45;2_split</text>
</g>
<!-- SERVICE:bff&#45;2&#45;&gt;SERVICE:bff&#45;2_split -->
<g id="edge24" class="edge">
<title>SERVICE:bff&#45;2&#45;&gt;SERVICE:bff&#45;2_split</title>
<g id="a_edge24"><a xlink:title="edge#23">
<path fill="none" stroke="black" d="M1014.59,-160.51C1022.25,-157.03 1030.76,-153.8 1039,-152 1089.1,-141.07 1147.9,-142.35 1188.94,-145.43"/>
<polygon fill="black" stroke="black" points="1188.52,-148.91 1198.77,-146.24 1189.09,-141.93 1188.52,-148.91"/>
</a>
</g>
<text text-anchor="middle" x="1101.62" y="-156.7" font-family="Times,serif" font-size="14.00">CALLS [rest] (sync)</text>
</g>
<!-- SERVICE:bff_split_split -->
<g id="node8" class="node">
<title>SERVICE:bff_split_split</title>
<path fill="#eef6ff" stroke="black" d="M1280.25,-77C1280.25,-77 1202,-77 1202,-77 1196,-77 1190,-71 1190,-65 1190,-65 1190,-53 1190,-53 1190,-47 1196,-41 1202,-41 1202,-41 1280.25,-41 1280.25,-41 1286.25,-41 1292.25,-47 1292.25,-53 1292.25,-53 1292.25,-65 1292.25,-65 1292.25,-71 1286.25,-77 1280.25,-77"/>
<text text-anchor="middle" x="1241.12" y="-54.7" font-family="Times,serif" font-size="14.00">bff_split_split</text>
</g>
<!-- SERVICE:cart -->
<g id="node10" class="node">
<title>SERVICE:cart</title>
<path fill="#eef6ff" stroke="black" d="M1504.88,-87C1504.88,-87 1474.88,-87 1474.88,-87 1468.88,-87 1462.88,-81 1462.88,-75 1462.88,-75 1462.88,-63 1462.88,-63 1462.88,-57 1468.88,-51 1474.88,-51 1474.88,-51 1504.88,-51 1504.88,-51 1510.88,-51 1516.88,-57 1516.88,-63 1516.88,-63 1516.88,-75 1516.88,-75 1516.88,-81 1510.88,-87 1504.88,-87"/>
<text text-anchor="middle" x="1489.88" y="-64.7" font-family="Times,serif" font-size="14.00">cart</text>
</g>
<!-- SERVICE:bff_split_split&#45;&gt;SERVICE:cart -->
<g id="edge12" class="edge">
<title>SERVICE:bff_split_split&#45;&gt;SERVICE:cart</title>
<g id="a_edge12"><a xlink:title="edge#11">
<path fill="none" stroke="black" d="M1292.43,-53.34C1333.3,-49.85 1392.31,-47.36 1443.25,-55 1446.05,-55.42 1448.91,-55.98 1451.77,-56.62"/>
<polygon fill="black" stroke="black" points="1450.62,-59.94 1461.18,-59.11 1452.41,-53.17 1450.62,-59.94"/>
</a>
</g>
<text text-anchor="middle" x="1380.62" y="-59.7" font-family="Times,serif" font-size="14.00">CALLS [rest] (sync)</text>
</g>
<!-- SERVICE:bff_split_split&#45;&gt;SERVICE:orders -->
<g id="edge13" class="edge">
<title>SERVICE:bff_split_split&#45;&gt;SERVICE:orders</title>
<g id="a_edge13"><a xlink:title="edge#12">
<path fill="none" stroke="black" d="M1292.69,-68.56C1301.14,-70.09 1309.81,-71.62 1318,-73 1373.52,-82.33 1397.32,-59.43 1443.25,-92 1462.29,-105.5 1474.07,-129.47 1480.88,-148.68"/>
<polygon fill="black" stroke="black" points="1477.54,-149.73 1483.94,-158.16 1484.2,-147.57 1477.54,-149.73"/>
</a>
</g>
<text text-anchor="middle" x="1380.62" y="-96.7" font-family="Times,serif" font-size="14.00">CALLS [rest] (sync)</text>
</g>
<!-- SERVICE:orders_split&#45;2&#45;&gt;SERVICE:orders_split&#45;1 -->
<g id="edge14" class="edge">
<title>SERVICE:orders_split&#45;2&#45;&gt;SERVICE:orders_split&#45;1</title>
<g id="a_edge14"><a xlink:title="edge#13">
<path fill="none" stroke="black" d="M2302.74,-132.8C2345.21,-132.64 2405.45,-132.41 2450.63,-132.24"/>
<polygon fill="black" stroke="black" points="2450.57,-135.74 2460.55,-132.2 2450.54,-128.74 2450.57,-135.74"/>
</a>
</g>
<text text-anchor="middle" x="2385.62" y="-136.7" font-family="Times,serif" font-size="14.00">CALLS [rest] (sync)</text>
</g>
<!-- SERVICE:cart&#45;&gt;DATABASE:shared&#45;db -->
<g id="edge5" class="edge">
<title>SERVICE:cart&#45;&gt;DATABASE:shared&#45;db</title>
<g id="a_edge5"><a xlink:title="edge#4">
<path fill="none" stroke="black" d="M1517.11,-70.86C1560.28,-73.75 1649.02,-79 1724.25,-79 1724.25,-79 1724.25,-79 2766.88,-79 2831.72,-79 2905.85,-88.97 2954.05,-96.79"/>
<polygon fill="black" stroke="black" points="2953.19,-100.19 2963.63,-98.37 2954.34,-93.29 2953.19,-100.19"/>
</a>
</g>
<text text-anchor="middle" x="2249.88" y="-83.7" font-family="Times,serif" font-size="14.00">CALLS [rest] (sync)</text>
</g>
<!-- SERVICE:catalog -->
<g id="node23" class="node">
<title>SERVICE:catalog</title>
<path fill="#eef6ff" stroke="black" d="M1744.88,-51C1744.88,-51 1705.62,-51 1705.62,-51 1699.62,-51 1693.62,-45 1693.62,-39 1693.62,-39 1693.62,-27 1693.62,-27 1693.62,-21 1699.62,-15 1705.62,-15 1705.62,-15 1744.88,-15 1744.88,-15 1750.88,-15 1756.88,-21 1756.88,-27 1756.88,-27 1756.88,-39 1756.88,-39 1756.88,-45 1750.88,-51 1744.88,-51"/>
<text text-anchor="middle" x="1725.25" y="-28.7" font-family="Times,serif" font-size="14.00">catalog</text>
</g>
<!-- SERVICE:cart&#45;&gt;SERVICE:catalog -->
<g id="edge1" class="edge">
<title>SERVICE:cart&#45;&gt;SERVICE:catalog</title>
<g id="a_edge1"><a xlink:title="edge#0">
<path fill="none" stroke="black" d="M1517.25,-54.23C1523.4,-51.37 1530.04,-48.73 1536.5,-47 1585.28,-33.93 1643.58,-31.53 1682.13,-31.69"/>
<polygon fill="black" stroke="black" points="1681.87,-35.19 1691.91,-31.8 1681.95,-28.19 1681.87,-35.19"/>
</a>
</g>
<text text-anchor="middle" x="1595.38" y="-51.7" font-family="Times,serif" font-size="14.00">CALLS [rest] (sync)</text>
</g>
<!-- SERVICE:bff_split -->
<g id="node11" class="node">
<title>SERVICE:bff_split</title>
<path fill="#eef6ff" stroke="black" d="M1009,-36C1009,-36 965.25,-36 965.25,-36 959.25,-36 953.25,-30 953.25,-24 953.25,-24 953.25,-12 953.25,-12 953.25,-6 959.25,0 965.25,0 965.25,0 1009,0 1009,0 1015,0 1021,-6 1021,-12 1021,-12 1021,-24 1021,-24 1021,-30 1015,-36 1009,-36"/>
<text text-anchor="middle" x="987.12" y="-13.7" font-family="Times,serif" font-size="14.00">bff_split</text>
</g>
<!-- SERVICE:bff_split&#45;&gt;SERVICE:bff_split_split -->
<g id="edge22" class="edge">
<title>SERVICE:bff_split&#45;&gt;SERVICE:bff_split_split</title>
<g id="a_edge22"><a xlink:title="edge#21">
<path fill="none" stroke="black" d="M1021.5,-23.99C1027.33,-25.01 1033.34,-26.05 1039,-27 1085.75,-34.85 1138.7,-43.26 1178.53,-49.48"/>
<polygon fill="black" stroke="black" points="1177.75,-52.9 1188.17,-50.99 1178.83,-45.99 1177.75,-52.9"/>
</a>
</g>
<text text-anchor="middle" x="1101.62" y="-52.7" font-family="Times,serif" font-size="14.00">CALLS [rest] (async)</text>
</g>
<!-- SERVICE:bff_split&#45;&gt;SERVICE:catalog -->
<g id="edge11" class="edge">
<title>SERVICE:bff_split&#45;&gt;SERVICE:catalog</title>
<g id="a_edge11"><a xlink:title="edge#10">
<path fill="none" stroke="black" d="M1021.41,-18.07C1118.78,-18.39 1411.52,-20.06 1654.25,-29 1663.23,-29.33 1672.85,-29.8 1682,-30.31"/>
<polygon fill="black" stroke="black" points="1681.55,-33.79 1691.74,-30.87 1681.96,-26.8 1681.55,-33.79"/>
</a>
</g>
<text text-anchor="middle" x="1380.62" y="-28.7" font-family="Times,serif" font-size="14.00">CALLS [rest] (sync)</text>
</g>
<!-- SERVICE:web&#45;ui_split_split -->
<g id="node12" class="node">
<title>SERVICE:web&#45;ui_split_split</title>
<path fill="#eef6ff" stroke="black" d="M787.5,-257C787.5,-257 682.25,-257 682.25,-257 676.25,-257 670.25,-251 670.25,-245 670.25,-245 670.25,-233 670.25,-233 670.25,-227 676.25,-221 682.25,-221 682.25,-221 787.5,-221 787.5,-221 793.5,-221 799.5,-227 799.5,-233 799.5,-233 799.5,-245 799.5,-245 799.5,-251 793.5,-257 787.5,-257"/>
<text text-anchor="middle" x="734.88" y="-234.7" font-family="Times,serif" font-size="14.00">web&#45;ui_split_split</text>
</g>
<!-- SERVICE:bff&#45;4 -->
<g id="node14" class="node">
<title>SERVICE:bff&#45;4</title>
<path fill="#eef6ff" stroke="black" d="M1002.12,-257C1002.12,-257 972.12,-257 972.12,-257 966.12,-257 960.12,-251 960.12,-245 960.12,-245 960.12,-233 960.12,-233 960.12,-227 966.12,-221 972.12,-221 972.12,-221 1002.12,-221 1002.12,-221 1008.12,-221 1014.12,-227 1014.12,-233 1014.12,-233 1014.12,-245 1014.12,-245 1014.12,-251 1008.12,-257 1002.12,-257"/>
<text text-anchor="middle" x="987.12" y="-234.7" font-family="Times,serif" font-size="14.00">bff&#45;4</text>
</g>
<!-- SERVICE:web&#45;ui_split_split&#45;&gt;SERVICE:bff&#45;4 -->
<g id="edge27" class="edge">
<title>SERVICE:web&#45;ui_split_split&#45;&gt;SERVICE:bff&#45;4</title>
<g id="a_edge27"><a xlink:title="edge#26">
<path fill="none" stroke="black" d="M800,-239C846.98,-239 909.16,-239 948.41,-239"/>
<polygon fill="black" stroke="black" points="948.3,-242.5 958.3,-239 948.29,-235.5 948.3,-242.5"/>
</a>
</g>
<text text-anchor="middle" x="876.38" y="-243.7" font-family="Times,serif" font-size="14.00">CALLS [rest] (sync)</text>
</g>
<!-- SERVICE:bff&#45;1 -->
<g id="node13" class="node">
<title>SERVICE:bff&#45;1</title>
<path fill="#eef6ff" stroke="black" d="M256,-120C256,-120 226,-120 226,-120 220,-120 214,-114 214,-108 214,-108 214,-96 214,-96 214,-90 220,-84 226,-84 226,-84 256,-84 256,-84 262,-84 268,-90 268,-96 268,-96 268,-108 268,-108 268,-114 262,-120 256,-120"/>
<text text-anchor="middle" x="241" y="-97.7" font-family="Times,serif" font-size="14.00">bff&#45;1</text>
</g>
<!-- SERVICE:bff -->
<g id="node15" class="node">
<title>SERVICE:bff</title>
<path fill="#eef6ff" stroke="black" d="M484.12,-120C484.12,-120 454.12,-120 454.12,-120 448.12,-120 442.12,-114 442.12,-108 442.12,-108 442.12,-96 442.12,-96 442.12,-90 448.12,-84 454.12,-84 454.12,-84 484.12,-84 484.12,-84 490.12,-84 496.12,-90 496.12,-96 496.12,-96 496.12,-108 496.12,-108 496.12,-114 490.12,-120 484.12,-120"/>
<text text-anchor="middle" x="469.12" y="-97.7" font-family="Times,serif" font-size="14.00">bff</text>
</g>
<!-- SERVICE:bff&#45;1&#45;&gt;SERVICE:bff -->
<g id="edge17" class="edge">
<title>SERVICE:bff&#45;1&#45;&gt;SERVICE:bff</title>
<g id="a_edge17"><a xlink:title="edge#16">
<path fill="none" stroke="black" d="M268.38,-102C308.46,-102 384.87,-102 430.69,-102"/>
<polygon fill="black" stroke="black" points="430.4,-105.5 440.4,-102 430.4,-98.5 430.4,-105.5"/>
</a>
</g>
<text text-anchor="middle" x="344.88" y="-106.7" font-family="Times,serif" font-size="14.00">CALLS [rest] (sync)</text>
</g>
<!-- SERVICE:bff&#45;4&#45;&gt;SERVICE:payments -->
<g id="edge29" class="edge">
<title>SERVICE:bff&#45;4&#45;&gt;SERVICE:payments</title>
<g id="a_edge29"><a xlink:title="edge#28">
<path fill="none" stroke="black" d="M1014.62,-235.85C1056.18,-230.9 1137.39,-221.23 1190.16,-214.95"/>
<polygon fill="black" stroke="black" points="1190.28,-218.46 1199.79,-213.8 1189.45,-211.51 1190.28,-218.46"/>
</a>
</g>
<text text-anchor="middle" x="1101.62" y="-236.7" font-family="Times,serif" font-size="14.00">CALLS [rest] (sync)</text>
</g>
<!-- SERVICE:bff&#45;4&#45;&gt;SERVICE:orders -->
<g id="edge28" class="edge">
<title>SERVICE:bff&#45;4&#45;&gt;SERVICE:orders</title>
<g id="a_edge28"><a xlink:title="edge#27">
<path fill="none" stroke="black" d="M1014.55,-247.09C1022.35,-249.11 1030.95,-250.99 1039,-252 1217.55,-274.45 1282.13,-309.15 1443.25,-229 1454.1,-223.6 1463.55,-214.41 1470.99,-205.3"/>
<polygon fill="black" stroke="black" points="1473.59,-207.67 1476.82,-197.58 1468,-203.45 1473.59,-207.67"/>
</a>
</g>
<text text-anchor="middle" x="1241.12" y="-283.7" font-family="Times,serif" font-size="14.00">CALLS [rest] (sync)</text>
</g>
<!-- SERVICE:bff&#45;&gt;SERVICE:payments -->
<g id="edge9" class="edge">
<title>SERVICE:bff&#45;&gt;SERVICE:payments</title>
<g id="a_edge9"><a xlink:title="edge#8">
<path fill="none" stroke="black" d="M496.32,-103.03C621.14,-107.97 1150.16,-129.44 1164.25,-139 1180.05,-149.71 1169.16,-164.11 1182.25,-178 1185.12,-181.04 1188.35,-183.85 1191.78,-186.42"/>
<polygon fill="black" stroke="black" points="1189.71,-189.24 1199.97,-191.87 1193.58,-183.42 1189.71,-189.24"/>
</a>
</g>
<text text-anchor="middle" x="876.38" y="-126.7" font-family="Times,serif" font-size="14.00">CALLS [rest] (sync)</text>
</g>
<!-- SERVICE:bff_split&#45;1 -->
<g id="node21" class="node">
<title>SERVICE:bff_split&#45;1</title>
<path fill="#eef6ff" stroke="black" d="M762.75,-90C762.75,-90 707,-90 707,-90 701,-90 695,-84 695,-78 695,-78 695,-66 695,-66 695,-60 701,-54 707,-54 707,-54 762.75,-54 762.75,-54 768.75,-54 774.75,-60 774.75,-66 774.75,-66 774.75,-78 774.75,-78 774.75,-84 768.75,-90 762.75,-90"/>
<text text-anchor="middle" x="734.88" y="-67.7" font-family="Times,serif" font-size="14.00">bff_split&#45;1</text>
</g>
<!-- SERVICE:bff&#45;&gt;SERVICE:bff_split&#45;1 -->
<g id="edge21" class="edge">
<title>SERVICE:bff&#45;&gt;SERVICE:bff_split&#45;1</title>
<g id="a_edge21"><a xlink:title="edge#20">
<path fill="none" stroke="black" d="M496.54,-94.34C508.09,-91.27 521.87,-88 534.5,-86 584.72,-78.06 642.77,-74.62 683.24,-73.13"/>
<polygon fill="black" stroke="black" points="683.29,-76.63 693.17,-72.8 683.06,-69.64 683.29,-76.63"/>
</a>
</g>
<text text-anchor="middle" x="593.38" y="-90.7" font-family="Times,serif" font-size="14.00">CALLS [rest] (sync)</text>
</g>
<!-- SERVICE:web&#45;ui -->
<g id="node16" class="node">
<title>SERVICE:web&#45;ui</title>
<path fill="#eef6ff" stroke="black" d="M48.25,-120C48.25,-120 12,-120 12,-120 6,-120 0,-114 0,-108 0,-108 0,-96 0,-96 0,-90 6,-84 12,-84 12,-84 48.25,-84 48.25,-84 54.25,-84 60.25,-90 60.25,-96 60.25,-96 60.25,-108 60.25,-108 60.25,-114 54.25,-120 48.25,-120"/>
<text text-anchor="middle" x="30.12" y="-97.7" font-family="Times,serif" font-size="14.00">web&#45;ui</text>
</g>
<!-- SERVICE:web&#45;ui&#45;&gt;SERVICE:bff&#45;1 -->
<g id="edge16" class="edge">
<title>SERVICE:web&#45;ui&#45;&gt;SERVICE:bff&#45;1</title>
<g id="a_edge16"><a xlink:title="edge#15">
<path fill="none" stroke="black" d="M60.61,-102C97.76,-102 161.66,-102 202.32,-102"/>
<polygon fill="black" stroke="black" points="202.12,-105.5 212.12,-102 202.12,-98.5 202.12,-105.5"/>
</a>
</g>
<text text-anchor="middle" x="137.12" y="-106.7" font-family="Times,serif" font-size="14.00">CALLS [rest] (sync)</text>
</g>
<!-- SERVICE:auth -->
<g id="node17" class="node">
<title>SERVICE:auth</title>
<path fill="#eef6ff" stroke="black" d="M1002.12,-90C1002.12,-90 972.12,-90 972.12,-90 966.12,-90 960.12,-84 960.12,-78 960.12,-78 960.12,-66 960.12,-66 960.12,-60 966.12,-54 972.12,-54 972.12,-54 1002.12,-54 1002.12,-54 1008.12,-54 1014.12,-60 1014.12,-66 1014.12,-66 1014.12,-78 1014.12,-78 1014.12,-84 1008.12,-90 1002.12,-90"/>
<text text-anchor="middle" x="987.12" y="-67.7" font-family="Times,serif" font-size="14.00">auth</text>
</g>
<!-- SERVICE:orders&#45;&gt;SERVICE:orders_split&#45;4 -->
<g id="edge31" class="edge">
<title>SERVICE:orders&#45;&gt;SERVICE:orders_split&#45;4</title>
<g id="a_edge31"><a xlink:title="edge#30">
<path fill="none" stroke="black" d="M1506.77,-159.68C1514.8,-151.78 1525.23,-143.37 1536.5,-139 1575.77,-123.79 1623.2,-122.39 1660.56,-124.75"/>
<polygon fill="black" stroke="black" points="1660.07,-128.22 1670.3,-125.48 1660.59,-121.24 1660.07,-128.22"/>
</a>
</g>
<text text-anchor="middle" x="1595.38" y="-143.7" font-family="Times,serif" font-size="14.00">CALLS [rest] (sync)</text>
</g>
<!-- SERVICE:orders&#45;&gt;SERVICE:inventory -->
<g id="edge2" class="edge">
<title>SERVICE:orders&#45;&gt;SERVICE:inventory</title>
<g id="a_edge2"><a xlink:title="edge#1">
<path fill="none" stroke="black" d="M1518.78,-178.08C1580.32,-178.25 1728.39,-178.65 1805.53,-178.87"/>
<polygon fill="black" stroke="black" points="1805.31,-182.37 1815.32,-178.89 1805.33,-175.37 1805.31,-182.37"/>
</a>
</g>
<text text-anchor="middle" x="1595.38" y="-182.7" font-family="Times,serif" font-size="14.00">CALLS [rest] (sync)</text>
</g>
<!-- SERVICE:orders_split&#45;&gt;DATABASE:shared&#45;db -->
<g id="edge6" class="edge">
<title>SERVICE:orders_split&#45;&gt;DATABASE:shared&#45;db</title>
<g id="a_edge6"><a xlink:title="edge#5">
<path fill="none" stroke="black" d="M2812.04,-124.65C2852.43,-120.75 2911.59,-115.05 2953.84,-110.98"/>
<polygon fill="black" stroke="black" points="2954.16,-114.46 2963.78,-110.02 2953.49,-107.5 2954.16,-114.46"/>
</a>
</g>
<text text-anchor="middle" x="2888.62" y="-126.7" font-family="Times,serif" font-size="14.00">CALLS [rest] (sync)</text>
</g>
<!-- SERVICE:bff_split&#45;1&#45;&gt;SERVICE:bff_split -->
<g id="edge15" class="edge">
<title>SERVICE:bff_split&#45;1&#45;&gt;SERVICE:bff_split</title>
<g id="a_edge15"><a xlink:title="edge#14">
<path fill="none" stroke="black" d="M775.17,-60.76C788.54,-57.11 803.62,-53.18 817.5,-50 859.51,-40.37 907.88,-31.4 942.01,-25.43"/>
<polygon fill="black" stroke="black" points="942.27,-28.94 951.52,-23.78 941.07,-22.04 942.27,-28.94"/>
</a>
</g>
<text text-anchor="middle" x="876.38" y="-54.7" font-family="Times,serif" font-size="14.00">CALLS [rest] (sync)</text>
</g>
<!-- SERVICE:bff_split&#45;1&#45;&gt;SERVICE:auth -->
<g id="edge10" class="edge">
<title>SERVICE:bff_split&#45;1&#45;&gt;SERVICE:auth</title>
<g id="a_edge10"><a xlink:title="edge#9">
<path fill="none" stroke="black" d="M774.98,-72C822.4,-72 901.77,-72 948.51,-72"/>
<polygon fill="black" stroke="black" points="948.42,-75.5 958.42,-72 948.42,-68.5 948.42,-75.5"/>
</a>
</g>
<text text-anchor="middle" x="876.38" y="-76.7" font-family="Times,serif" font-size="14.00">CALLS [rest] (sync)</text>
</g>
<!-- SERVICE:bff&#45;2_split&#45;&gt;SERVICE:cart -->
<g id="edge19" class="edge">
<title>SERVICE:bff&#45;2_split&#45;&gt;SERVICE:cart</title>
<g id="a_edge19"><a xlink:title="edge#18">
<path fill="none" stroke="black" d="M1281.9,-143.66C1293.53,-141.51 1306.28,-139.16 1318,-137 1373.66,-126.75 1393.05,-140.14 1443.25,-114 1452.04,-109.42 1460.25,-102.58 1467.2,-95.6"/>
<polygon fill="black" stroke="black" points="1469.48,-98.29 1473.72,-88.58 1464.35,-93.52 1469.48,-98.29"/>
</a>
</g>
<text text-anchor="middle" x="1380.62" y="-141.7" font-family="Times,serif" font-size="14.00">CALLS [rest] (sync)</text>
</g>
<!-- SERVICE:bff&#45;2_split&#45;&gt;SERVICE:orders -->
<g id="edge20" class="edge">
<title>SERVICE:bff&#45;2_split&#45;&gt;SERVICE:orders</title>
<g id="a_edge20"><a xlink:title="edge#19">
<path fill="none" stroke="black" d="M1282.04,-155.37C1328.22,-160.42 1403.75,-168.69 1449.64,-173.71"/>
<polygon fill="black" stroke="black" points="1449.08,-177.17 1459.4,-174.78 1449.84,-170.21 1449.08,-177.17"/>
</a>
</g>
<text text-anchor="middle" x="1380.62" y="-176.7" font-family="Times,serif" font-size="14.00">CALLS [rest] (async)</text>
</g>
<!-- SERVICE:catalog&#45;&gt;DATABASE:shared&#45;db -->
<g id="edge4" class="edge">
<title>SERVICE:catalog&#45;&gt;DATABASE:shared&#45;db</title>
<g id="a_edge4"><a xlink:title="edge#3">
<path fill="none" stroke="black" d="M1757.15,-33C1805.47,-33 1901.85,-33 1983.62,-33 1983.62,-33 1983.62,-33 2766.88,-33 2848.4,-33 2872.26,-33.6 2947.5,-65 2957.09,-69 2966.65,-74.81 2975.17,-80.81"/>
<polygon fill="black" stroke="black" points="2972.95,-83.52 2983.06,-86.67 2977.12,-77.9 2972.95,-83.52"/>
</a>
</g>
<text text-anchor="middle" x="2385.62" y="-37.7" font-family="Times,serif" font-size="14.00">CALLS [rest] (sync)</text>
</g>
<!-- SERVICE:bff&#45;3&#45;&gt;SERVICE:bff&#45;2 -->
<g id="edge26" class="edge">
<title>SERVICE:bff&#45;3&#45;&gt;SERVICE:bff&#45;2</title>
<g id="a_edge26"><a xlink:title="edge#25">
<path fill="none" stroke="black" d="M762.18,-175C806.77,-175 897.33,-175 948.57,-175"/>
<polygon fill="black" stroke="black" points="948.28,-178.5 958.28,-175 948.28,-171.5 948.28,-178.5"/>
</a>
</g>
<text text-anchor="middle" x="876.38" y="-179.7" font-family="Times,serif" font-size="14.00">CALLS [rest] (sync)</text>
</g>
</g>
</svg>
