<?xml version="1.0" encoding="UTF-8" standalone="no"?>
<!DOCTYPE svg PUBLIC "-//W3C//DTD SVG 1.1//EN"
 "http://www.w3.org/Graphics/SVG/1.1/DTD/svg11.dtd">
<!-- Generated by graphviz version 9.0.0 (20230911.1827)
 -->
<!-- Title: G Pages: 1 -->
<svg width="821pt" height="144pt"
 viewBox="0.00 0.00 821.25 144.00" xmlns="http://www.w3.org/2000/svg" xmlns:xlink="http://www.w3.org/1999/xlink">
<g id="graph0" class="graph" transform="scale(1 1) rotate(0) translate(4 140)">
<title>G</title>
<polygon fill="white" stroke="none" points="-4,4 -4,-140 817.25,-140 817.25,4 -4,4"/>
<text text-anchor="middle" x="406.62" y="-118.7" font-family="Helvetica,sans-Serif" font-size="14.00">Architecture</text>
<!-- SERVICE:auth&#45;service -->
<g id="node1" class="node">
<title>SERVICE:auth&#45;service</title>
<path fill="#eef6ff" stroke="black" d="M599.62,-56C599.62,-56 528.88,-56 528.88,-56 522.88,-56 516.88,-50 516.88,-44 516.88,-44 516.88,-32 516.88,-32 516.88,-26 522.88,-20 528.88,-20 528.88,-20 599.62,-20 599.62,-20 605.62,-20 611.62,-26 611.62,-32 611.62,-32 611.62,-44 611.62,-44 611.62,-50 605.62,-56 599.62,-56"/>
<text text-anchor="middle" x="564.25" y="-33.7" font-family="Times,serif" font-size="14.00">auth&#45;service</text>
</g>
<!-- DATABASE:users&#45;db -->
<g id="node4" class="node">
<title>DATABASE:users&#45;db</title>
<path fill="#fff3cd" stroke="black" d="M798.62,-32.73C798.62,-34.53 782.43,-36 762.5,-36 742.57,-36 726.38,-34.53 726.38,-32.73 726.38,-32.73 726.38,-3.27 726.38,-3.27 726.38,-1.47 742.57,0 762.5,0 782.43,0 798.62,-1.47 798.62,-3.27 798.62,-3.27 798.62,-32.73 798.62,-32.73"/>
<path fill="none" stroke="black" d="M798.62,-32.73C798.62,-30.92 782.43,-29.45 762.5,-29.45 742.57,-29.45 726.38,-30.92 726.38,-32.73"/>
<text text-anchor="middle" x="762.5" y="-13.7" font-family="Times,serif" font-size="14.00">users&#45;db</text>
</g>
<!-- SERVICE:auth&#45;service&#45;&gt;DATABASE:users&#45;db -->
<g id="edge4" class="edge">
<title>SERVICE:auth&#45;service&#45;&gt;DATABASE:users&#45;db</title>
<g id="a_edge4"><a xlink:title="edge#3">
<path fill="none" stroke="black" d="M611.76,-33.26C642.82,-30.1 683.52,-25.95 714.64,-22.78"/>
<polygon fill="black" stroke="black" points="714.97,-26.26 724.56,-21.76 714.26,-19.3 714.97,-26.26"/>
</a>
</g>
<text text-anchor="middle" x="668.62" y="-34.7" font-family="Times,serif" font-size="14.00">READS</text>
</g>
<!-- SERVICE:auth&#45;service&#45;&gt;DATABASE:users&#45;db -->
<g id="edge5" class="edge">
<title>SERVICE:auth&#45;service&#45;&gt;DATABASE:users&#45;db</title>
<g id="a_edge5"><a xlink:title="edge#4">
<path fill="none" stroke="black" d="M599.3,-19.59C612.68,-13.33 628.42,-7.14 643.5,-4 666.89,0.86 693.27,-1.54 715.14,-5.63"/>
<polygon fill="black" stroke="black" points="714.15,-9 724.65,-7.59 715.56,-2.14 714.15,-9"/>
</a>
</g>
<text text-anchor="middle" x="668.62" y="-8.7" font-family="Times,serif" font-size="14.00">WRITES</text>
</g>
<!-- SERVICE:billing&#45;service -->
<g id="node2" class="node">
<title>SERVICE:billing&#45;service</title>
<path fill="#eef6ff" stroke="black" d="M340.25,-110C340.25,-110 258.25,-110 258.25,-110 252.25,-110 246.25,-104 246.25,-98 246.25,-98 246.25,-86 246.25,-86 246.25,-80 252.25,-74 258.25,-74 258.25,-74 340.25,-74 340.25,-74 346.25,-74 352.25,-80 352.25,-86 352.25,-86 352.25,-98 352.25,-98 352.25,-104 346.25,-110 340.25,-110"/>
<text text-anchor="middle" x="299.25" y="-87.7" font-family="Times,serif" font-size="14.00">billing&#45;service</text>
</g>
<!-- SERVICE:payment&#45;service -->
<g id="node3" class="node">
<title>SERVICE:payment&#45;service</title>
<path fill="#eef6ff" stroke="black" d="M613.5,-110C613.5,-110 515,-110 515,-110 509,-110 503,-104 503,-98 503,-98 503,-86 503,-86 503,-80 509,-74 515,-74 515,-74 613.5,-74 613.5,-74 619.5,-74 625.5,-80 625.5,-86 625.5,-86 625.5,-98 625.5,-98 625.5,-104 619.5,-110 613.5,-110"/>
<text text-anchor="middle" x="564.25" y="-87.7" font-family="Times,serif" font-size="14.00">payment&#45;service</text>
</g>
<!-- SERVICE:billing&#45;service&#45;&gt;SERVICE:payment&#45;service -->
<g id="edge6" class="edge">
<title>SERVICE:billing&#45;service&#45;&gt;SERVICE:payment&#45;service</title>
<g id="a_edge6"><a xlink:title="edge#5">
<path fill="none" stroke="black" d="M352.52,-92C392.27,-92 447.4,-92 491.3,-92"/>
<polygon fill="black" stroke="black" points="491.27,-95.5 501.27,-92 491.27,-88.5 491.27,-95.5"/>
</a>
</g>
<text text-anchor="middle" x="427.62" y="-96.7" font-family="Times,serif" font-size="14.00">calls (1 ep), 50rpm</text>
</g>
<!-- DATABASE:payments&#45;db -->
<g id="node5" class="node">
<title>DATABASE:payments&#45;db</title>
<path fill="#fff3cd" stroke="black" d="M813.25,-106.73C813.25,-108.53 790.5,-110 762.5,-110 734.5,-110 711.75,-108.53 711.75,-106.73 711.75,-106.73 711.75,-77.27 711.75,-77.27 711.75,-75.47 734.5,-74 762.5,-74 790.5,-74 813.25,-75.47 813.25,-77.27 813.25,-77.27 813.25,-106.73 813.25,-106.73"/>
<path fill="none" stroke="black" d="M813.25,-106.73C813.25,-104.92 790.5,-103.45 762.5,-103.45 734.5,-103.45 711.75,-104.92 711.75,-106.73"/>
<text text-anchor="middle" x="762.5" y="-87.7" font-family="Times,serif" font-size="14.00">payments&#45;db</text>
</g>
<!-- SERVICE:payment&#45;service&#45;&gt;DATABASE:payments&#45;db -->
<g id="edge7" class="edge">
<title>SERVICE:payment&#45;service&#45;&gt;DATABASE:payments&#45;db</title>
<g id="a_edge7"><a xlink:title="edge#6">
<path fill="none" stroke="black" d="M625.73,-92C649.35,-92 676.39,-92 700.1,-92"/>
<polygon fill="black" stroke="black" points="699.92,-95.5 709.92,-92 699.92,-88.5 699.92,-95.5"/>
</a>
</g>
<text text-anchor="middle" x="668.62" y="-96.7" font-family="Times,serif" font-size="14.00">WRITES</text>
</g>
<!-- SERVICE:api&#45;gateway -->
<g id="node6" class="node">
<title>SERVICE:api&#45;gateway</title>
<path fill="#eef6ff" stroke="black" d="M83.5,-82C83.5,-82 12,-82 12,-82 6,-82 0,-76 0,-70 0,-70 0,-58 0,-58 0,-52 6,-46 12,-46 12,-46 83.5,-46 83.5,-46 89.5,-46 95.5,-52 95.5,-58 95.5,-58 95.5,-70 95.5,-70 95.5,-76 89.5,-82 83.5,-82"/>
<text text-anchor="middle" x="47.75" y="-59.7" font-family="Times,serif" font-size="14.00">api&#45;gateway</text>
</g>
<!-- SERVICE:api&#45;gateway&#45;&gt;SERVICE:billing&#45;service -->
<g id="edge2" class="edge">
<title>SERVICE:api&#45;gateway&#45;&gt;SERVICE:billing&#45;service</title>
<g id="a_edge2"><a xlink:title="edge#1">
<path fill="none" stroke="black" d="M95.97,-69.3C135.27,-73.71 191.56,-80.03 234.79,-84.88"/>
<polygon fill="black" stroke="black" points="234.22,-88.34 244.55,-85.97 235,-81.38 234.22,-88.34"/>
</a>
</g>
<text text-anchor="middle" x="170.88" y="-87.7" font-family="Times,serif" font-size="14.00">calls (1 ep), 30rpm</text>
</g>
<!-- SERVICE:user&#45;service -->
<g id="node7" class="node">
<title>SERVICE:user&#45;service</title>
<path fill="#eef6ff" stroke="black" d="M333.88,-56C333.88,-56 264.62,-56 264.62,-56 258.62,-56 252.62,-50 252.62,-44 252.62,-44 252.62,-32 252.62,-32 252.62,-26 258.62,-20 264.62,-20 264.62,-20 333.88,-20 333.88,-20 339.88,-20 345.88,-26 345.88,-32 345.88,-32 345.88,-44 345.88,-44 345.88,-50 339.88,-56 333.88,-56"/>
<text text-anchor="middle" x="299.25" y="-33.7" font-family="Times,serif" font-size="14.00">user&#45;service</text>
</g>
<!-- SERVICE:api&#45;gateway&#45;&gt;SERVICE:user&#45;service -->
<g id="edge1" class="edge">
<title>SERVICE:api&#45;gateway&#45;&gt;SERVICE:user&#45;service</title>
<g id="a_edge1"><a xlink:title="edge#0">
<path fill="none" stroke="black" d="M95.93,-51.25C101.81,-49.99 107.77,-48.85 113.5,-48 155.93,-41.67 204.37,-39.22 241,-38.33"/>
<polygon fill="black" stroke="black" points="241.02,-41.83 250.94,-38.12 240.87,-34.83 241.02,-41.83"/>
</a>
</g>
<text text-anchor="middle" x="170.88" y="-52.7" font-family="Times,serif" font-size="14.00">calls (1 ep), 60rpm</text>
</g>
<!-- SERVICE:user&#45;service&#45;&gt;SERVICE:auth&#45;service -->
<g id="edge3" class="edge">
<title>SERVICE:user&#45;service&#45;&gt;SERVICE:auth&#45;service</title>
<g id="a_edge3"><a xlink:title="edge#2">
<path fill="none" stroke="black" d="M346.36,-38C390.59,-38 457.53,-38 505.34,-38"/>
<polygon fill="black" stroke="black" points="505.23,-41.5 515.23,-38 505.23,-34.5 505.23,-41.5"/>
</a>
</g>
<text text-anchor="middle" x="427.62" y="-42.7" font-family="Times,serif" font-size="14.00">calls (1 ep), 60rpm</text>
</g>
</g>
</svg>
