<?xml version="1.0" encoding="UTF-8" standalone="no"?>
<!DOCTYPE svg PUBLIC "-//W3C//DTD SVG 1.1//EN"
 "http://www.w3.org/Graphics/SVG/1.1/DTD/svg11.dtd">
<!-- Generated by graphviz version 9.0.0 (20230911.1827)
 -->
<!-- Title: G Pages: 1 -->
<svg width="1320pt" height="333pt"
 viewBox="0.00 0.00 1320.00 333.00" xmlns="http://www.w3.org/2000/svg" xmlns:xlink="http://www.w3.org/1999/xlink">
<g id="graph0" class="graph" transform="scale(1 1) rotate(0) translate(4 329)">
<title>G</title>
<polygon fill="white" stroke="none" points="-4,4 -4,-329 1316,-329 1316,4 -4,4"/>
<text text-anchor="middle" x="656" y="-307.7" font-family="Helvetica,sans-Serif" font-size="14.00">Architecture</text>
<!-- SERVICE:orders_split -->
<g id="node1" class="node">
<title>SERVICE:orders_split</title>
<path fill="#eef6ff" stroke="black" d="M1051.25,-256C1051.25,-256 983.5,-256 983.5,-256 977.5,-256 971.5,-250 971.5,-244 971.5,-244 971.5,-232 971.5,-232 971.5,-226 977.5,-220 983.5,-220 983.5,-220 1051.25,-220 1051.25,-220 1057.25,-220 1063.25,-226 1063.25,-232 1063.25,-232 1063.25,-244 1063.25,-244 1063.25,-250 1057.25,-256 1051.25,-256"/>
<text text-anchor="middle" x="1017.38" y="-233.7" font-family="Times,serif" font-size="14.00">orders_split</text>
</g>
<!-- DATABASE:shared&#45;db -->
<g id="node7" class="node">
<title>DATABASE:shared&#45;db</title>
<path fill="#fff3cd" stroke="black" d="M1312,-168.73C1312,-170.53 1293.62,-172 1271,-172 1248.38,-172 1230,-170.53 1230,-168.73 1230,-168.73 1230,-139.27 1230,-139.27 1230,-137.47 1248.38,-136 1271,-136 1293.62,-136 1312,-137.47 1312,-139.27 1312,-139.27 1312,-168.73 1312,-168.73"/>
<path fill="none" stroke="black" d="M1312,-168.73C1312,-166.92 1293.62,-165.45 1271,-165.45 1248.38,-165.45 1230,-166.92 1230,-168.73"/>
<text text-anchor="middle" x="1271" y="-149.7" font-family="Times,serif" font-size="14.00">shared&#45;db</text>
</g>
<!-- SERVICE:orders_split&#45;&gt;DATABASE:shared&#45;db -->
<g id="edge9" class="edge">
<title>SERVICE:orders_split&#45;&gt;DATABASE:shared&#45;db</title>
<g id="a_edge9"><a xlink:title="edge#8">
<path fill="none" stroke="black" d="M1063.51,-233.97C1103.88,-229.09 1163.91,-218.67 1212,-197 1221.99,-192.5 1231.91,-186.06 1240.66,-179.53"/>
<polygon fill="black" stroke="black" points="1242.73,-182.36 1248.44,-173.43 1238.41,-176.85 1242.73,-182.36"/>
</a>
</g>
<text text-anchor="middle" x="1153.12" y="-233.7" font-family="Times,serif" font-size="14.00">CALLS [rest] (sync)</text>
</g>
<!-- SERVICE:auth -->
<g id="node2" class="node">
<title>SERVICE:auth</title>
<path fill="#eef6ff" stroke="black" d="M536.38,-36C536.38,-36 506.38,-36 506.38,-36 500.38,-36 494.38,-30 494.38,-24 494.38,-24 494.38,-12 494.38,-12 494.38,-6 500.38,0 506.38,0 506.38,0 536.38,0 536.38,0 542.38,0 548.38,-6 548.38,-12 548.38,-12 548.38,-24 548.38,-24 548.38,-30 542.38,-36 536.38,-36"/>
<text text-anchor="middle" x="521.38" y="-13.7" font-family="Times,serif" font-size="14.00">auth</text>
</g>
<!-- SERVICE:cart -->
<g id="node3" class="node">
<title>SERVICE:cart</title>
<path fill="#eef6ff" stroke="black" d="M536.38,-144C536.38,-144 506.38,-144 506.38,-144 500.38,-144 494.38,-138 494.38,-132 494.38,-132 494.38,-120 494.38,-120 494.38,-114 500.38,-108 506.38,-108 506.38,-108 536.38,-108 536.38,-108 542.38,-108 548.38,-114 548.38,-120 548.38,-120 548.38,-132 548.38,-132 548.38,-138 542.38,-144 536.38,-144"/>
<text text-anchor="middle" x="521.38" y="-121.7" font-family="Times,serif" font-size="14.00">cart</text>
</g>
<!-- SERVICE:cart&#45;&gt;DATABASE:shared&#45;db -->
<g id="edge8" class="edge">
<title>SERVICE:cart&#45;&gt;DATABASE:shared&#45;db</title>
<g id="a_edge8"><a xlink:title="edge#7">
<path fill="none" stroke="black" d="M548.54,-126.98C657,-131.04 1072.31,-146.6 1218.62,-152.08"/>
<polygon fill="black" stroke="black" points="1218.27,-155.56 1228.39,-152.44 1218.53,-148.57 1218.27,-155.56"/>
</a>
</g>
<text text-anchor="middle" x="881.62" y="-146.7" font-family="Times,serif" font-size="14.00">CALLS [rest] (sync)</text>
</g>
<!-- SERVICE:catalog -->
<g id="node10" class="node">
<title>SERVICE:catalog</title>
<path fill="#eef6ff" stroke="black" d="M792.75,-110C792.75,-110 753.5,-110 753.5,-110 747.5,-110 741.5,-104 741.5,-98 741.5,-98 741.5,-86 741.5,-86 741.5,-80 747.5,-74 753.5,-74 753.5,-74 792.75,-74 792.75,-74 798.75,-74 804.75,-80 804.75,-86 804.75,-86 804.75,-98 804.75,-98 804.75,-104 798.75,-110 792.75,-110"/>
<text text-anchor="middle" x="773.12" y="-87.7" font-family="Times,serif" font-size="14.00">catalog</text>
</g>
<!-- SERVICE:cart&#45;&gt;SERVICE:catalog -->
<g id="edge4" class="edge">
<title>SERVICE:cart&#45;&gt;SERVICE:catalog</title>
<g id="a_edge4"><a xlink:title="edge#3">
<path fill="none" stroke="black" d="M548.81,-117.8C563.28,-113.62 581.6,-108.84 598.25,-106 642.77,-98.4 694.43,-94.9 729.8,-93.31"/>
<polygon fill="black" stroke="black" points="729.78,-96.81 739.63,-92.9 729.49,-89.82 729.78,-96.81"/>
</a>
</g>
<text text-anchor="middle" x="660.88" y="-110.7" font-family="Times,serif" font-size="14.00">CALLS [rest] (sync)</text>
</g>
<!-- SERVICE:orders -->
<g id="node4" class="node">
<title>SERVICE:orders</title>
<path fill="#eef6ff" stroke="black" d="M789.75,-254C789.75,-254 756.5,-254 756.5,-254 750.5,-254 744.5,-248 744.5,-242 744.5,-242 744.5,-230 744.5,-230 744.5,-224 750.5,-218 756.5,-218 756.5,-218 789.75,-218 789.75,-218 795.75,-218 801.75,-224 801.75,-230 801.75,-230 801.75,-242 801.75,-242 801.75,-248 795.75,-254 789.75,-254"/>
<text text-anchor="middle" x="773.12" y="-231.7" font-family="Times,serif" font-size="14.00">orders</text>
</g>
<!-- SERVICE:orders&#45;&gt;SERVICE:orders_split -->
<g id="edge12" class="edge">
<title>SERVICE:orders&#45;&gt;SERVICE:orders_split</title>
<g id="a_edge12"><a xlink:title="edge#11">
<path fill="none" stroke="black" d="M801.91,-236.23C840.23,-236.55 910.15,-237.12 959.73,-237.53"/>
<polygon fill="black" stroke="black" points="959.7,-241.03 969.73,-237.61 959.76,-234.03 959.7,-241.03"/>
</a>
</g>
<text text-anchor="middle" x="881.62" y="-241.7" font-family="Times,serif" font-size="14.00">CALLS [rest] (sync)</text>
</g>
<!-- SERVICE:inventory -->
<g id="node6" class="node">
<title>SERVICE:inventory</title>
<path fill="#eef6ff" stroke="black" d="M1043.38,-202C1043.38,-202 991.38,-202 991.38,-202 985.38,-202 979.38,-196 979.38,-190 979.38,-190 979.38,-178 979.38,-178 979.38,-172 985.38,-166 991.38,-166 991.38,-166 1043.38,-166 1043.38,-166 1049.38,-166 1055.38,-172 1055.38,-178 1055.38,-178 1055.38,-190 1055.38,-190 1055.38,-196 1049.38,-202 1043.38,-202"/>
<text text-anchor="middle" x="1017.38" y="-179.7" font-family="Times,serif" font-size="14.00">inventory</text>
</g>
<!-- SERVICE:orders&#45;&gt;SERVICE:inventory -->
<g id="edge5" class="edge">
<title>SERVICE:orders&#45;&gt;SERVICE:inventory</title>
<g id="a_edge5"><a xlink:title="edge#4">
<path fill="none" stroke="black" d="M802.17,-221.76C808.79,-218.84 815.91,-216.04 822.75,-214 870.97,-199.65 928.1,-191.87 967.75,-187.85"/>
<polygon fill="black" stroke="black" points="967.83,-191.36 977.45,-186.92 967.16,-184.39 967.83,-191.36"/>
</a>
</g>
<text text-anchor="middle" x="881.62" y="-218.7" font-family="Times,serif" font-size="14.00">CALLS [rest] (sync)</text>
</g>
<!-- SERVICE:payments -->
<g id="node5" class="node">
<title>SERVICE:payments</title>
<path fill="#eef6ff" stroke="black" d="M548.88,-254C548.88,-254 493.88,-254 493.88,-254 487.88,-254 481.88,-248 481.88,-242 481.88,-242 481.88,-230 481.88,-230 481.88,-224 487.88,-218 493.88,-218 493.88,-218 548.88,-218 548.88,-218 554.88,-218 560.88,-224 560.88,-230 560.88,-230 560.88,-242 560.88,-242 560.88,-248 554.88,-254 548.88,-254"/>
<text text-anchor="middle" x="521.38" y="-231.7" font-family="Times,serif" font-size="14.00">payments</text>
</g>
<!-- SERVICE:payments&#45;&gt;SERVICE:orders -->
<g id="edge6" class="edge">
<title>SERVICE:payments&#45;&gt;SERVICE:orders</title>
<g id="a_edge6"><a xlink:title="edge#5">
<path fill="none" stroke="black" d="M561.12,-236C607.86,-236 685.97,-236 732.91,-236"/>
<polygon fill="black" stroke="black" points="732.62,-239.5 742.62,-236 732.62,-232.5 732.62,-239.5"/>
</a>
</g>
<text text-anchor="middle" x="660.88" y="-240.7" font-family="Times,serif" font-size="14.00">CALLS [rest] (async)</text>
</g>
<!-- SERVICE:inventory&#45;&gt;DATABASE:shared&#45;db -->
<g id="edge10" class="edge">
<title>SERVICE:inventory&#45;&gt;DATABASE:shared&#45;db</title>
<g id="a_edge10"><a xlink:title="edge#9">
<path fill="none" stroke="black" d="M1055.77,-179.54C1098.99,-174.39 1170.36,-165.88 1218.73,-160.11"/>
<polygon fill="black" stroke="black" points="1218.88,-163.62 1228.39,-158.96 1218.05,-156.67 1218.88,-163.62"/>
</a>
</g>
<text text-anchor="middle" x="1153.12" y="-179.7" font-family="Times,serif" font-size="14.00">CALLS [rest] (sync)</text>
</g>
<!-- SERVICE:bff -->
<g id="node8" class="node">
<title>SERVICE:bff</title>
<path fill="#eef6ff" stroke="black" d="M276.38,-161C276.38,-161 246.38,-161 246.38,-161 240.38,-161 234.38,-155 234.38,-149 234.38,-149 234.38,-137 234.38,-137 234.38,-131 240.38,-125 246.38,-125 246.38,-125 276.38,-125 276.38,-125 282.38,-125 288.38,-131 288.38,-137 288.38,-137 288.38,-149 288.38,-149 288.38,-155 282.38,-161 276.38,-161"/>
<text text-anchor="middle" x="261.38" y="-138.7" font-family="Times,serif" font-size="14.00">bff</text>
</g>
<!-- SERVICE:bff&#45;&gt;SERVICE:auth -->
<g id="edge15" class="edge">
<title>SERVICE:bff&#45;&gt;SERVICE:auth</title>
<g id="a_edge15"><a xlink:title="edge#14">
<path fill="none" stroke="black" d="M268.26,-124.5C276.92,-100.59 295.54,-59.69 326.75,-40 374.12,-10.12 441.2,-9.69 482.68,-13.11"/>
<polygon fill="black" stroke="black" points="482.13,-16.57 492.41,-14.04 482.79,-9.6 482.13,-16.57"/>
</a>
</g>
<text text-anchor="middle" x="385.62" y="-44.7" font-family="Times,serif" font-size="14.00">CALLS [rest] (sync)</text>
</g>
<!-- SERVICE:bff&#45;&gt;SERVICE:cart -->
<g id="edge17" class="edge">
<title>SERVICE:bff&#45;&gt;SERVICE:cart</title>
<g id="a_edge17"><a xlink:title="edge#16">
<path fill="none" stroke="black" d="M288.73,-134.94C300.28,-131.8 314.07,-128.59 326.75,-127 380.56,-120.27 443.43,-121.63 482.59,-123.55"/>
<polygon fill="black" stroke="black" points="482.26,-127.04 492.43,-124.07 482.63,-120.05 482.26,-127.04"/>
</a>
</g>
<text text-anchor="middle" x="385.62" y="-131.7" font-family="Times,serif" font-size="14.00">CALLS [rest] (sync)</text>
</g>
<!-- SERVICE:bff&#45;&gt;SERVICE:orders -->
<g id="edge18" class="edge">
<title>SERVICE:bff&#45;&gt;SERVICE:orders</title>
<g id="a_edge18"><a xlink:title="edge#17">
<path fill="none" stroke="black" d="M288.87,-146.27C343.56,-153.17 472.83,-170.33 580.25,-191 633.77,-201.3 694.96,-216.2 733.57,-225.99"/>
<polygon fill="black" stroke="black" points="732.29,-229.28 742.85,-228.36 734.02,-222.5 732.29,-229.28"/>
</a>
</g>
<text text-anchor="middle" x="521.38" y="-195.7" font-family="Times,serif" font-size="14.00">CALLS [rest] (sync)</text>
</g>
<!-- SERVICE:bff&#45;&gt;SERVICE:payments -->
<g id="edge14" class="edge">
<title>SERVICE:bff&#45;&gt;SERVICE:payments</title>
<g id="a_edge14"><a xlink:title="edge#13">
<path fill="none" stroke="black" d="M288.86,-155.55C300.32,-160.59 313.99,-166.12 326.75,-170 377.77,-185.5 394.49,-174.5 444.5,-193 448.5,-194.48 463.66,-202.98 479.4,-212.04"/>
<polygon fill="black" stroke="black" points="477.45,-214.96 487.86,-216.93 480.96,-208.9 477.45,-214.96"/>
</a>
</g>
<text text-anchor="middle" x="385.62" y="-197.7" font-family="Times,serif" font-size="14.00">CALLS [rest] (sync)</text>
</g>
<!-- SERVICE:bff&#45;&gt;SERVICE:catalog -->
<g id="edge16" class="edge">
<title>SERVICE:bff&#45;&gt;SERVICE:catalog</title>
<g id="a_edge16"><a xlink:title="edge#15">
<path fill="none" stroke="black" d="M288.6,-131.76C326.24,-116.36 398.15,-89.61 462.5,-81 557.46,-68.29 670.18,-78.59 729.96,-86.04"/>
<polygon fill="black" stroke="black" points="729.33,-89.48 739.69,-87.29 730.22,-82.54 729.33,-89.48"/>
</a>
</g>
<text text-anchor="middle" x="521.38" y="-85.7" font-family="Times,serif" font-size="14.00">CALLS [rest] (sync)</text>
</g>
<!-- SERVICE:web&#45;ui -->
<g id="node9" class="node">
<title>SERVICE:web&#45;ui</title>
<path fill="#eef6ff" stroke="black" d="M48.25,-197C48.25,-197 12,-197 12,-197 6,-197 0,-191 0,-185 0,-185 0,-173 0,-173 0,-167 6,-161 12,-161 12,-161 48.25,-161 48.25,-161 54.25,-161 60.25,-167 60.25,-173 60.25,-173 60.25,-185 60.25,-185 60.25,-191 54.25,-197 48.25,-197"/>
<text text-anchor="middle" x="30.12" y="-174.7" font-family="Times,serif" font-size="14.00">web&#45;ui</text>
</g>
<!-- SERVICE:web&#45;ui&#45;&gt;SERVICE:bff -->
<g id="edge13" class="edge">
<title>SERVICE:web&#45;ui&#45;&gt;SERVICE:bff</title>
<g id="a_edge13"><a xlink:title="edge#12">
<path fill="none" stroke="black" d="M60.7,-171.65C66.5,-170.34 72.55,-169.05 78.25,-168 127.95,-158.81 185.85,-151.42 222.79,-147.13"/>
<polygon fill="black" stroke="black" points="222.97,-150.63 232.51,-146.01 222.18,-143.67 222.97,-150.63"/>
</a>
</g>
<text text-anchor="middle" x="137.12" y="-172.7" font-family="Times,serif" font-size="14.00">CALLS [rest] (sync)</text>
</g>
<!-- SERVICE:web&#45;ui_split -->
<g id="node11" class="node">
<title>SERVICE:web&#45;ui_split</title>
<path fill="#eef6ff" stroke="black" d="M296.75,-271C296.75,-271 226,-271 226,-271 220,-271 214,-265 214,-259 214,-259 214,-247 214,-247 214,-241 220,-235 226,-235 226,-235 296.75,-235 296.75,-235 302.75,-235 308.75,-241 308.75,-247 308.75,-247 308.75,-259 308.75,-259 308.75,-265 302.75,-271 296.75,-271"/>
<text text-anchor="middle" x="261.38" y="-248.7" font-family="Times,serif" font-size="14.00">web&#45;ui_split</text>
</g>
<!-- SERVICE:web&#45;ui&#45;&gt;SERVICE:web&#45;ui_split -->
<g id="edge11" class="edge">
<title>SERVICE:web&#45;ui&#45;&gt;SERVICE:web&#45;ui_split</title>
<g id="a_edge11"><a xlink:title="edge#10">
<path fill="none" stroke="black" d="M60.63,-188.52C96.49,-200.1 157.82,-219.9 203.08,-234.51"/>
<polygon fill="black" stroke="black" points="201.9,-237.8 212.49,-237.54 204.05,-231.14 201.9,-237.8"/>
</a>
</g>
<text text-anchor="middle" x="137.12" y="-235.7" font-family="Times,serif" font-size="14.00">CALLS [rest] (sync)</text>
</g>
<!-- SERVICE:catalog&#45;&gt;DATABASE:shared&#45;db -->
<g id="edge7" class="edge">
<title>SERVICE:catalog&#45;&gt;DATABASE:shared&#45;db</title>
<g id="a_edge7"><a xlink:title="edge#6">
<path fill="none" stroke="black" d="M805.02,-89.49C877.87,-84.58 1065.3,-77.88 1212,-124 1218.17,-125.94 1224.46,-128.5 1230.53,-131.31"/>
<polygon fill="black" stroke="black" points="1228.57,-134.25 1239.09,-135.55 1231.68,-127.98 1228.57,-134.25"/>
</a>
</g>
<text text-anchor="middle" x="1017.38" y="-100.7" font-family="Times,serif" font-size="14.00">CALLS [rest] (sync)</text>
</g>
<!-- SERVICE:web&#45;ui_split&#45;&gt;SERVICE:cart -->
<g id="edge1" class="edge">
<title>SERVICE:web&#45;ui_split&#45;&gt;SERVICE:cart</title>
<g id="a_edge1"><a xlink:title="edge#0">
<path fill="none" stroke="black" d="M309.18,-235.16C315.04,-233.25 321,-231.48 326.75,-230 378.09,-216.8 404.01,-245.22 444.5,-211 463.5,-194.94 446.54,-177.08 462.5,-158 468.35,-151 476.15,-145.27 484.11,-140.68"/>
<polygon fill="black" stroke="black" points="485.55,-143.88 492.82,-136.18 482.33,-137.66 485.55,-143.88"/>
</a>
</g>
<text text-anchor="middle" x="385.62" y="-234.7" font-family="Times,serif" font-size="14.00">CALLS [rest] (sync)</text>
</g>
<!-- SERVICE:web&#45;ui_split&#45;&gt;SERVICE:orders -->
<g id="edge2" class="edge">
<title>SERVICE:web&#45;ui_split&#45;&gt;SERVICE:orders</title>
<g id="a_edge2"><a xlink:title="edge#1">
<path fill="none" stroke="black" d="M303.27,-271.46C310.93,-274.18 318.97,-276.54 326.75,-278 414.86,-294.51 688.74,-266.81 723.5,-258 726.85,-257.15 730.26,-256.08 733.63,-254.88"/>
<polygon fill="black" stroke="black" points="734.8,-258.18 742.79,-251.22 732.2,-251.68 734.8,-258.18"/>
</a>
</g>
<text text-anchor="middle" x="521.38" y="-285.7" font-family="Times,serif" font-size="14.00">CALLS [rest] (sync)</text>
</g>
<!-- SERVICE:web&#45;ui_split&#45;&gt;SERVICE:payments -->
<g id="edge3" class="edge">
<title>SERVICE:web&#45;ui_split&#45;&gt;SERVICE:payments</title>
<g id="a_edge3"><a xlink:title="edge#2">
<path fill="none" stroke="black" d="M308.93,-255.33C345.82,-256.55 398.6,-256.91 444.5,-252 452.97,-251.09 461.89,-249.66 470.52,-248.01"/>
<polygon fill="black" stroke="black" points="471.04,-251.47 480.14,-246.05 469.65,-244.61 471.04,-251.47"/>
</a>
</g>
<text text-anchor="middle" x="385.62" y="-260.7" font-family="Times,serif" font-size="14.00">CALLS [rest] (sync)</text>
</g>
</g>
</svg>
