<?xml version="1.0" encoding="UTF-8" standalone="no"?>
<!DOCTYPE svg PUBLIC "-//W3C//DTD SVG 1.1//EN"
 "http://www.w3.org/Graphics/SVG/1.1/DTD/svg11.dtd">
<!-- Generated by graphviz version 9.0.0 (20230911.1827)
 -->
<!-- Title: G Pages: 1 -->
<svg width="652pt" height="481pt"
 viewBox="0.00 0.00 652.00 481.00" xmlns="http://www.w3.org/2000/svg" xmlns:xlink="http://www.w3.org/1999/xlink">
<g id="graph0" class="graph" transform="scale(1 1) rotate(0) translate(4 477)">
<title>G</title>
<polygon fill="white" stroke="none" points="-4,4 -4,-477 648,-477 648,4 -4,4"/>
<text text-anchor="middle" x="322" y="-455.7" font-family="Helvetica,sans-Serif" font-size="14.00">Architecture</text>
<!-- SERVICE:scheduler -->
<g id="node1" class="node">
<title>SERVICE:scheduler</title>
<path fill="#eef6ff" stroke="black" d="M82.75,-198C82.75,-198 29.25,-198 29.25,-198 23.25,-198 17.25,-192 17.25,-186 17.25,-186 17.25,-174 17.25,-174 17.25,-168 23.25,-162 29.25,-162 29.25,-162 82.75,-162 82.75,-162 88.75,-162 94.75,-168 94.75,-174 94.75,-174 94.75,-186 94.75,-186 94.75,-192 88.75,-198 82.75,-198"/>
<text text-anchor="middle" x="56" y="-175.7" font-family="Times,serif" font-size="14.00">scheduler</text>
</g>
<!-- SERVICE:ops&#45;hub -->
<g id="node2" class="node">
<title>SERVICE:ops&#45;hub</title>
<path fill="#eef6ff" stroke="black" d="M347.25,-171C347.25,-171 302,-171 302,-171 296,-171 290,-165 290,-159 290,-159 290,-147 290,-147 290,-141 296,-135 302,-135 302,-135 347.25,-135 347.25,-135 353.25,-135 359.25,-141 359.25,-147 359.25,-147 359.25,-159 359.25,-159 359.25,-165 353.25,-171 347.25,-171"/>
<text text-anchor="middle" x="324.62" y="-148.7" font-family="Times,serif" font-size="14.00">ops&#45;hub</text>
</g>
<!-- SERVICE:scheduler&#45;&gt;SERVICE:ops&#45;hub -->
<g id="edge4" class="edge">
<title>SERVICE:scheduler&#45;&gt;SERVICE:ops&#45;hub</title>
<g id="a_edge4"><a xlink:title="edge#3">
<path fill="none" stroke="black" d="M95.2,-176.13C143.56,-171.23 226.76,-162.81 278.28,-157.59"/>
<polygon fill="black" stroke="black" points="278.61,-161.08 288.21,-156.59 277.91,-154.11 278.61,-161.08"/>
</a>
</g>
<text text-anchor="middle" x="188.88" y="-177.7" font-family="Times,serif" font-size="14.00">CALLS [rest] (sync)</text>
</g>
<!-- SERVICE:audit&#45;log -->
<g id="node5" class="node">
<title>SERVICE:audit&#45;log</title>
<path fill="#eef6ff" stroke="black" d="M615.88,-306C615.88,-306 565.38,-306 565.38,-306 559.38,-306 553.38,-300 553.38,-294 553.38,-294 553.38,-282 553.38,-282 553.38,-276 559.38,-270 565.38,-270 565.38,-270 615.88,-270 615.88,-270 621.88,-270 627.88,-276 627.88,-282 627.88,-282 627.88,-294 627.88,-294 627.88,-300 621.88,-306 615.88,-306"/>
<text text-anchor="middle" x="590.62" y="-283.7" font-family="Times,serif" font-size="14.00">audit&#45;log</text>
</g>
<!-- SERVICE:ops&#45;hub&#45;&gt;SERVICE:audit&#45;log -->
<g id="edge8" class="edge">
<title>SERVICE:ops&#45;hub&#45;&gt;SERVICE:audit&#45;log</title>
<g id="a_edge8"><a xlink:title="edge#7">
<path fill="none" stroke="black" d="M335.29,-171.36C347.66,-192.96 371.16,-228.27 401.5,-247 444.21,-273.37 501.55,-282.91 541.66,-286.29"/>
<polygon fill="black" stroke="black" points="541.26,-289.77 551.49,-287.01 541.77,-282.79 541.26,-289.77"/>
</a>
</g>
<text text-anchor="middle" x="460.38" y="-287.7" font-family="Times,serif" font-size="14.00">CALLS [rest] (sync)</text>
</g>
<!-- SERVICE:report&#45;export -->
<g id="node6" class="node">
<title>SERVICE:report&#45;export</title>
<path fill="#eef6ff" stroke="black" d="M630.12,-252C630.12,-252 551.12,-252 551.12,-252 545.12,-252 539.12,-246 539.12,-240 539.12,-240 539.12,-228 539.12,-228 539.12,-222 545.12,-216 551.12,-216 551.12,-216 630.12,-216 630.12,-216 636.12,-216 642.12,-222 642.12,-228 642.12,-228 642.12,-240 642.12,-240 642.12,-246 636.12,-252 630.12,-252"/>
<text text-anchor="middle" x="590.62" y="-229.7" font-family="Times,serif" font-size="14.00">report&#45;export</text>
</g>
<!-- SERVICE:ops&#45;hub&#45;&gt;SERVICE:report&#45;export -->
<g id="edge11" class="edge">
<title>SERVICE:ops&#45;hub&#45;&gt;SERVICE:report&#45;export</title>
<g id="a_edge11"><a xlink:title="edge#10">
<path fill="none" stroke="black" d="M354.19,-171.5C368.01,-179.74 385.12,-188.93 401.5,-195 442.31,-210.13 490.4,-219.97 527.74,-225.98"/>
<polygon fill="black" stroke="black" points="527.05,-229.41 537.47,-227.49 528.13,-222.5 527.05,-229.41"/>
</a>
</g>
<text text-anchor="middle" x="460.38" y="-229.7" font-family="Times,serif" font-size="14.00">CALLS [rest] (sync)</text>
</g>
<!-- SERVICE:sms&#45;gateway -->
<g id="node8" class="node">
<title>SERVICE:sms&#45;gateway</title>
<path fill="#eef6ff" stroke="black" d="M629.75,-198C629.75,-198 551.5,-198 551.5,-198 545.5,-198 539.5,-192 539.5,-186 539.5,-186 539.5,-174 539.5,-174 539.5,-168 545.5,-162 551.5,-162 551.5,-162 629.75,-162 629.75,-162 635.75,-162 641.75,-168 641.75,-174 641.75,-174 641.75,-186 641.75,-186 641.75,-192 635.75,-198 629.75,-198"/>
<text text-anchor="middle" x="590.62" y="-175.7" font-family="Times,serif" font-size="14.00">sms&#45;gateway</text>
</g>
<!-- SERVICE:ops&#45;hub&#45;&gt;SERVICE:sms&#45;gateway -->
<g id="edge7" class="edge">
<title>SERVICE:ops&#45;hub&#45;&gt;SERVICE:sms&#45;gateway</title>
<g id="a_edge7"><a xlink:title="edge#6">
<path fill="none" stroke="black" d="M359.6,-156.47C402.02,-160.81 475.4,-168.32 527.88,-173.68"/>
<polygon fill="black" stroke="black" points="527.26,-177.14 537.56,-174.68 527.97,-170.18 527.26,-177.14"/>
</a>
</g>
<text text-anchor="middle" x="460.38" y="-177.7" font-family="Times,serif" font-size="14.00">CALLS [rest] (sync)</text>
</g>
<!-- SERVICE:metrics&#45;agent -->
<g id="node9" class="node">
<title>SERVICE:metrics&#45;agent</title>
<path fill="#eef6ff" stroke="black" d="M632,-144C632,-144 549.25,-144 549.25,-144 543.25,-144 537.25,-138 537.25,-132 537.25,-132 537.25,-120 537.25,-120 537.25,-114 543.25,-108 549.25,-108 549.25,-108 632,-108 632,-108 638,-108 644,-114 644,-120 644,-120 644,-132 644,-132 644,-138 638,-144 632,-144"/>
<text text-anchor="middle" x="590.62" y="-121.7" font-family="Times,serif" font-size="14.00">metrics&#45;agent</text>
</g>
<!-- SERVICE:ops&#45;hub&#45;&gt;SERVICE:metrics&#45;agent -->
<g id="edge10" class="edge">
<title>SERVICE:ops&#45;hub&#45;&gt;SERVICE:metrics&#45;agent</title>
<g id="a_edge10"><a xlink:title="edge#9">
<path fill="none" stroke="black" d="M359.49,-145.9C372.57,-143.38 387.68,-140.75 401.5,-139 442.53,-133.81 488.88,-130.58 525.3,-128.64"/>
<polygon fill="black" stroke="black" points="525.44,-132.13 535.25,-128.13 525.08,-125.14 525.44,-132.13"/>
</a>
</g>
<text text-anchor="middle" x="460.38" y="-143.7" font-family="Times,serif" font-size="14.00">CALLS [rest] (sync)</text>
</g>
<!-- SERVICE:emailer -->
<g id="node14" class="node">
<title>SERVICE:emailer</title>
<path fill="#eef6ff" stroke="black" d="M610.62,-90C610.62,-90 570.62,-90 570.62,-90 564.62,-90 558.62,-84 558.62,-78 558.62,-78 558.62,-66 558.62,-66 558.62,-60 564.62,-54 570.62,-54 570.62,-54 610.62,-54 610.62,-54 616.62,-54 622.62,-60 622.62,-66 622.62,-66 622.62,-78 622.62,-78 622.62,-84 616.62,-90 610.62,-90"/>
<text text-anchor="middle" x="590.62" y="-67.7" font-family="Times,serif" font-size="14.00">emailer</text>
</g>
<!-- SERVICE:ops&#45;hub&#45;&gt;SERVICE:emailer -->
<g id="edge6" class="edge">
<title>SERVICE:ops&#45;hub&#45;&gt;SERVICE:emailer</title>
<g id="a_edge6"><a xlink:title="edge#5">
<path fill="none" stroke="black" d="M351.52,-134.59C365.68,-125.32 383.88,-114.67 401.5,-108 449.55,-89.79 508.13,-80.45 547.02,-75.9"/>
<polygon fill="black" stroke="black" points="547.37,-79.39 556.93,-74.81 546.6,-72.43 547.37,-79.39"/>
</a>
</g>
<text text-anchor="middle" x="460.38" y="-112.7" font-family="Times,serif" font-size="14.00">CALLS [rest] (sync)</text>
</g>
<!-- SERVICE:cache&#45;proxy -->
<g id="node15" class="node">
<title>SERVICE:cache&#45;proxy</title>
<path fill="#eef6ff" stroke="black" d="M625.62,-36C625.62,-36 555.62,-36 555.62,-36 549.62,-36 543.62,-30 543.62,-24 543.62,-24 543.62,-12 543.62,-12 543.62,-6 549.62,0 555.62,0 555.62,0 625.62,0 625.62,0 631.62,0 637.62,-6 637.62,-12 637.62,-12 637.62,-24 637.62,-24 637.62,-30 631.62,-36 625.62,-36"/>
<text text-anchor="middle" x="590.62" y="-13.7" font-family="Times,serif" font-size="14.00">cache&#45;proxy</text>
</g>
<!-- SERVICE:ops&#45;hub&#45;&gt;SERVICE:cache&#45;proxy -->
<g id="edge9" class="edge">
<title>SERVICE:ops&#45;hub&#45;&gt;SERVICE:cache&#45;proxy</title>
<g id="a_edge9"><a xlink:title="edge#8">
<path fill="none" stroke="black" d="M335.29,-134.64C347.66,-113.04 371.16,-77.73 401.5,-59 440.98,-34.63 492.95,-24.63 532.26,-20.59"/>
<polygon fill="black" stroke="black" points="532.36,-24.09 542,-19.69 531.72,-17.12 532.36,-24.09"/>
</a>
</g>
<text text-anchor="middle" x="460.38" y="-63.7" font-family="Times,serif" font-size="14.00">CALLS [rest] (sync)</text>
</g>
<!-- DATABASE:user&#45;db -->
<g id="node3" class="node">
<title>DATABASE:user&#45;db</title>
<path fill="#fff3cd" stroke="black" d="M357.38,-302.73C357.38,-304.53 342.7,-306 324.62,-306 306.55,-306 291.88,-304.53 291.88,-302.73 291.88,-302.73 291.88,-273.27 291.88,-273.27 291.88,-271.47 306.55,-270 324.62,-270 342.7,-270 357.38,-271.47 357.38,-273.27 357.38,-273.27 357.38,-302.73 357.38,-302.73"/>
<path fill="none" stroke="black" d="M357.38,-302.73C357.38,-300.92 342.7,-299.45 324.62,-299.45 306.55,-299.45 291.88,-300.92 291.88,-302.73"/>
<text text-anchor="middle" x="324.62" y="-283.7" font-family="Times,serif" font-size="14.00">user&#45;db</text>
</g>
<!-- SERVICE:pricing -->
<g id="node4" class="node">
<title>SERVICE:pricing</title>
<path fill="#eef6ff" stroke="black" d="M74.12,-423C74.12,-423 37.88,-423 37.88,-423 31.88,-423 25.88,-417 25.88,-411 25.88,-411 25.88,-399 25.88,-399 25.88,-393 31.88,-387 37.88,-387 37.88,-387 74.12,-387 74.12,-387 80.12,-387 86.12,-393 86.12,-399 86.12,-399 86.12,-411 86.12,-411 86.12,-417 80.12,-423 74.12,-423"/>
<text text-anchor="middle" x="56" y="-400.7" font-family="Times,serif" font-size="14.00">pricing</text>
</g>
<!-- SERVICE:discount -->
<g id="node7" class="node">
<title>SERVICE:discount</title>
<path fill="#eef6ff" stroke="black" d="M348,-447C348,-447 301.25,-447 301.25,-447 295.25,-447 289.25,-441 289.25,-435 289.25,-435 289.25,-423 289.25,-423 289.25,-417 295.25,-411 301.25,-411 301.25,-411 348,-411 348,-411 354,-411 360,-417 360,-423 360,-423 360,-435 360,-435 360,-441 354,-447 348,-447"/>
<text text-anchor="middle" x="324.62" y="-424.7" font-family="Times,serif" font-size="14.00">discount</text>
</g>
<!-- SERVICE:pricing&#45;&gt;SERVICE:discount -->
<g id="edge1" class="edge">
<title>SERVICE:pricing&#45;&gt;SERVICE:discount</title>
<g id="a_edge1"><a xlink:title="edge#0">
<path fill="none" stroke="black" d="M86.55,-407.66C132.88,-411.83 222.96,-419.94 277.76,-424.87"/>
<polygon fill="black" stroke="black" points="277.11,-428.33 287.38,-425.74 277.74,-421.36 277.11,-428.33"/>
</a>
</g>
<text text-anchor="middle" x="188.88" y="-425.7" font-family="Times,serif" font-size="14.00">CALLS [rest] (sync)</text>
</g>
<!-- SERVICE:tax -->
<g id="node12" class="node">
<title>SERVICE:tax</title>
<path fill="#eef6ff" stroke="black" d="M605.62,-410C605.62,-410 575.62,-410 575.62,-410 569.62,-410 563.62,-404 563.62,-398 563.62,-398 563.62,-386 563.62,-386 563.62,-380 569.62,-374 575.62,-374 575.62,-374 605.62,-374 605.62,-374 611.62,-374 617.62,-380 617.62,-386 617.62,-386 617.62,-398 617.62,-398 617.62,-404 611.62,-410 605.62,-410"/>
<text text-anchor="middle" x="590.62" y="-387.7" font-family="Times,serif" font-size="14.00">tax</text>
</g>
<!-- SERVICE:discount&#45;&gt;SERVICE:tax -->
<g id="edge2" class="edge">
<title>SERVICE:discount&#45;&gt;SERVICE:tax</title>
<g id="a_edge2"><a xlink:title="edge#1">
<path fill="none" stroke="black" d="M360.41,-424.12C410.03,-417.17 500.78,-404.45 551.94,-397.28"/>
<polygon fill="black" stroke="black" points="552.23,-400.78 561.64,-395.92 551.25,-393.84 552.23,-400.78"/>
</a>
</g>
<text text-anchor="middle" x="460.38" y="-422.7" font-family="Times,serif" font-size="14.00">CALLS [rest] (sync)</text>
</g>
<!-- SERVICE:user&#45;profile -->
<g id="node10" class="node">
<title>SERVICE:user&#45;profile</title>
<path fill="#eef6ff" stroke="black" d="M89.12,-360C89.12,-360 22.88,-360 22.88,-360 16.88,-360 10.88,-354 10.88,-348 10.88,-348 10.88,-336 10.88,-336 10.88,-330 16.88,-324 22.88,-324 22.88,-324 89.12,-324 89.12,-324 95.12,-324 101.12,-330 101.12,-336 101.12,-336 101.12,-348 101.12,-348 101.12,-354 95.12,-360 89.12,-360"/>
<text text-anchor="middle" x="56" y="-337.7" font-family="Times,serif" font-size="14.00">user&#45;profile</text>
</g>
<!-- SERVICE:user&#45;profile&#45;&gt;DATABASE:user&#45;db -->
<g id="edge12" class="edge">
<title>SERVICE:user&#45;profile&#45;&gt;DATABASE:user&#45;db</title>
<g id="a_edge12"><a xlink:title="edge#11">
<path fill="none" stroke="black" d="M101.61,-336.01C140.45,-330.44 198.15,-321.31 247.75,-310 258.57,-307.53 270.13,-304.43 280.88,-301.34"/>
<polygon fill="black" stroke="black" points="281.66,-304.75 290.27,-298.57 279.69,-298.04 281.66,-304.75"/>
</a>
</g>
<text text-anchor="middle" x="188.88" y="-335.7" font-family="Times,serif" font-size="14.00">CALLS [rest] (sync)</text>
</g>
<!-- SERVICE:preferences -->
<g id="node11" class="node">
<title>SERVICE:preferences</title>
<path fill="#eef6ff" stroke="black" d="M89.5,-306C89.5,-306 22.5,-306 22.5,-306 16.5,-306 10.5,-300 10.5,-294 10.5,-294 10.5,-282 10.5,-282 10.5,-276 16.5,-270 22.5,-270 22.5,-270 89.5,-270 89.5,-270 95.5,-270 101.5,-276 101.5,-282 101.5,-282 101.5,-294 101.5,-294 101.5,-300 95.5,-306 89.5,-306"/>
<text text-anchor="middle" x="56" y="-283.7" font-family="Times,serif" font-size="14.00">preferences</text>
</g>
<!-- SERVICE:preferences&#45;&gt;DATABASE:user&#45;db -->
<g id="edge13" class="edge">
<title>SERVICE:preferences&#45;&gt;DATABASE:user&#45;db</title>
<g id="a_edge13"><a xlink:title="edge#12">
<path fill="none" stroke="black" d="M101.93,-288C151.56,-288 230.94,-288 280.03,-288"/>
<polygon fill="black" stroke="black" points="280.01,-291.5 290.01,-288 280.01,-284.5 280.01,-291.5"/>
</a>
</g>
<text text-anchor="middle" x="188.88" y="-292.7" font-family="Times,serif" font-size="14.00">CALLS [rest] (sync)</text>
</g>
<!-- SERVICE:tax&#45;&gt;SERVICE:pricing -->
<g id="edge3" class="edge">
<title>SERVICE:tax&#45;&gt;SERVICE:pricing</title>
<g id="a_edge3"><a xlink:title="edge#2">
<path fill="none" stroke="black" d="M563.28,-390.65C524.09,-388.72 448.13,-385.25 383.5,-384 331.18,-382.99 318.02,-381.38 265.75,-384 207.19,-386.94 139.73,-394.49 97.72,-399.68"/>
<polygon fill="black" stroke="black" points="97.3,-396.21 87.82,-400.93 98.17,-403.15 97.3,-396.21"/>
</a>
</g>
<text text-anchor="middle" x="324.62" y="-388.7" font-family="Times,serif" font-size="14.00">CALLS [rest] (sync)</text>
</g>
<!-- SERVICE:admin&#45;console -->
<g id="node13" class="node">
<title>SERVICE:admin&#45;console</title>
<path fill="#eef6ff" stroke="black" d="M100,-144C100,-144 12,-144 12,-144 6,-144 0,-138 0,-132 0,-132 0,-120 0,-120 0,-114 6,-108 12,-108 12,-108 100,-108 100,-108 106,-108 112,-114 112,-120 112,-120 112,-132 112,-132 112,-138 106,-144 100,-144"/>
<text text-anchor="middle" x="56" y="-121.7" font-family="Times,serif" font-size="14.00">admin&#45;console</text>
</g>
<!-- SERVICE:admin&#45;console&#45;&gt;SERVICE:ops&#45;hub -->
<g id="edge5" class="edge">
<title>SERVICE:admin&#45;console&#45;&gt;SERVICE:ops&#45;hub</title>
<g id="a_edge5"><a xlink:title="edge#4">
<path fill="none" stroke="black" d="M112.25,-128.09C150.42,-129.95 202.3,-133.28 247.75,-139 257.79,-140.26 268.52,-142 278.65,-143.82"/>
<polygon fill="black" stroke="black" points="277.8,-147.23 288.27,-145.62 279.08,-140.34 277.8,-147.23"/>
</a>
</g>
<text text-anchor="middle" x="188.88" y="-143.7" font-family="Times,serif" font-size="14.00">CALLS [rest] (sync)</text>
</g>
<!-- SERVICE:notifications -->
<g id="node16" class="node">
<title>SERVICE:notifications</title>
<path fill="#eef6ff" stroke="black" d="M92.12,-252C92.12,-252 19.88,-252 19.88,-252 13.88,-252 7.88,-246 7.88,-240 7.88,-240 7.88,-228 7.88,-228 7.88,-222 13.88,-216 19.88,-216 19.88,-216 92.12,-216 92.12,-216 98.12,-216 104.12,-222 104.12,-228 104.12,-228 104.12,-240 104.12,-240 104.12,-246 98.12,-252 92.12,-252"/>
<text text-anchor="middle" x="56" y="-229.7" font-family="Times,serif" font-size="14.00">notifications</text>
</g>
<!-- SERVICE:notifications&#45;&gt;DATABASE:user&#45;db -->
<g id="edge14" class="edge">
<title>SERVICE:notifications&#45;&gt;DATABASE:user&#45;db</title>
<g id="a_edge14"><a xlink:title="edge#13">
<path fill="none" stroke="black" d="M104.33,-240.38C143.11,-245.98 199.3,-254.95 247.75,-266 258.57,-268.47 270.13,-271.57 280.88,-274.66"/>
<polygon fill="black" stroke="black" points="279.69,-277.96 290.27,-277.43 281.66,-271.25 279.69,-277.96"/>
</a>
</g>
<text text-anchor="middle" x="188.88" y="-270.7" font-family="Times,serif" font-size="14.00">CALLS [rest] (sync)</text>
</g>
</g>
</svg>
