<?xml version="1.0" encoding="UTF-8" standalone="no"?>
<!DOCTYPE svg PUBLIC "-//W3C//DTD SVG 1.1//EN"
 "http://www.w3.org/Graphics/SVG/1.1/DTD/svg11.dtd">
<!-- Generated by graphviz version 9.0.0 (20230911.1827)
 -->
<!-- Title: G Pages: 1 -->
<svg width="788pt" height="489pt"
 viewBox="0.00 0.00 788.25 489.00" xmlns="http://www.w3.org/2000/svg" xmlns:xlink="http://www.w3.org/1999/xlink">
<g id="graph0" class="graph" transform="scale(1 1) rotate(0) translate(4 485)">
<title>G</title>
<polygon fill="white" stroke="none" points="-4,4 -4,-485 784.25,-485 784.25,4 -4,4"/>
<text text-anchor="middle" x="390.12" y="-463.7" font-family="Helvetica,sans-Serif" font-size="14.00">Architecture</text>
<!-- SERVICE:refund&#45;api -->
<g id="node1" class="node">
<title>SERVICE:refund&#45;api</title>
<path fill="#eef6ff" stroke="black" d="M85,-144C85,-144 26.25,-144 26.25,-144 20.25,-144 14.25,-138 14.25,-132 14.25,-132 14.25,-120 14.25,-120 14.25,-114 20.25,-108 26.25,-108 26.25,-108 85,-108 85,-108 91,-108 97,-114 97,-120 97,-120 97,-132 97,-132 97,-138 91,-144 85,-144"/>
<text text-anchor="middle" x="55.62" y="-121.7" font-family="Times,serif" font-size="14.00">refund&#45;api</text>
</g>
<!-- DATABASE:finance&#45;db -->
<g id="node3" class="node">
<title>DATABASE:finance&#45;db</title>
<path fill="#fff3cd" stroke="black" d="M350,-86.73C350,-88.53 330.95,-90 307.5,-90 284.05,-90 265,-88.53 265,-86.73 265,-86.73 265,-57.27 265,-57.27 265,-55.47 284.05,-54 307.5,-54 330.95,-54 350,-55.47 350,-57.27 350,-57.27 350,-86.73 350,-86.73"/>
<path fill="none" stroke="black" d="M350,-86.73C350,-84.92 330.95,-83.45 307.5,-83.45 284.05,-83.45 265,-84.92 265,-86.73"/>
<text text-anchor="middle" x="307.5" y="-67.7" font-family="Times,serif" font-size="14.00">finance&#45;db</text>
</g>
<!-- SERVICE:refund&#45;api&#45;&gt;DATABASE:finance&#45;db -->
<g id="edge10" class="edge">
<title>SERVICE:refund&#45;api&#45;&gt;DATABASE:finance&#45;db</title>
<g id="a_edge10"><a xlink:title="edge#9">
<path fill="none" stroke="black" d="M97.21,-121.42C136.07,-116.51 196.15,-107.54 247,-94 249.24,-93.4 251.52,-92.75 253.82,-92.07"/>
<polygon fill="black" stroke="black" points="254.67,-95.47 263.12,-89.08 252.53,-88.8 254.67,-95.47"/>
</a>
</g>
<text text-anchor="middle" x="188.12" y="-120.7" font-family="Times,serif" font-size="14.00">CALLS [rest] (sync)</text>
</g>
<!-- SERVICE:settlement&#45;api -->
<g id="node2" class="node">
<title>SERVICE:settlement&#45;api</title>
<path fill="#eef6ff" stroke="black" d="M99.25,-90C99.25,-90 12,-90 12,-90 6,-90 0,-84 0,-78 0,-78 0,-66 0,-66 0,-60 6,-54 12,-54 12,-54 99.25,-54 99.25,-54 105.25,-54 111.25,-60 111.25,-66 111.25,-66 111.25,-78 111.25,-78 111.25,-84 105.25,-90 99.25,-90"/>
<text text-anchor="middle" x="55.62" y="-67.7" font-family="Times,serif" font-size="14.00">settlement&#45;api</text>
</g>
<!-- SERVICE:settlement&#45;api&#45;&gt;DATABASE:finance&#45;db -->
<g id="edge11" class="edge">
<title>SERVICE:settlement&#45;api&#45;&gt;DATABASE:finance&#45;db</title>
<g id="a_edge11"><a xlink:title="edge#10">
<path fill="none" stroke="black" d="M111.46,-72C153.61,-72 211.51,-72 253.26,-72"/>
<polygon fill="black" stroke="black" points="253.06,-75.5 263.06,-72 253.06,-68.5 253.06,-75.5"/>
</a>
</g>
<text text-anchor="middle" x="188.12" y="-76.7" font-family="Times,serif" font-size="14.00">CALLS [rest] (sync)</text>
</g>
<!-- SERVICE:web&#45;ui -->
<g id="node4" class="node">
<title>SERVICE:web&#45;ui</title>
<path fill="#eef6ff" stroke="black" d="M73.75,-293C73.75,-293 37.5,-293 37.5,-293 31.5,-293 25.5,-287 25.5,-281 25.5,-281 25.5,-269 25.5,-269 25.5,-263 31.5,-257 37.5,-257 37.5,-257 73.75,-257 73.75,-257 79.75,-257 85.75,-263 85.75,-269 85.75,-269 85.75,-281 85.75,-281 85.75,-287 79.75,-293 73.75,-293"/>
<text text-anchor="middle" x="55.62" y="-270.7" font-family="Times,serif" font-size="14.00">web&#45;ui</text>
</g>
<!-- SERVICE:auth -->
<g id="node5" class="node">
<title>SERVICE:auth</title>
<path fill="#eef6ff" stroke="black" d="M322.5,-401C322.5,-401 292.5,-401 292.5,-401 286.5,-401 280.5,-395 280.5,-389 280.5,-389 280.5,-377 280.5,-377 280.5,-371 286.5,-365 292.5,-365 292.5,-365 322.5,-365 322.5,-365 328.5,-365 334.5,-371 334.5,-377 334.5,-377 334.5,-389 334.5,-389 334.5,-395 328.5,-401 322.5,-401"/>
<text text-anchor="middle" x="307.5" y="-378.7" font-family="Times,serif" font-size="14.00">auth</text>
</g>
<!-- SERVICE:web&#45;ui&#45;&gt;SERVICE:auth -->
<g id="edge1" class="edge">
<title>SERVICE:web&#45;ui&#45;&gt;SERVICE:auth</title>
<g id="a_edge1"><a xlink:title="edge#0">
<path fill="none" stroke="black" d="M72.04,-293.45C85.59,-308.47 106.64,-329.08 129.25,-341 173.8,-364.49 231.52,-375.01 268.78,-379.6"/>
<polygon fill="black" stroke="black" points="268.28,-383.07 278.62,-380.72 269.08,-376.11 268.28,-383.07"/>
</a>
</g>
<text text-anchor="middle" x="188.12" y="-380.7" font-family="Times,serif" font-size="14.00">CALLS [rest] (sync)</text>
</g>
<!-- SERVICE:catalog -->
<g id="node6" class="node">
<title>SERVICE:catalog</title>
<path fill="#eef6ff" stroke="black" d="M327.12,-347C327.12,-347 287.88,-347 287.88,-347 281.88,-347 275.88,-341 275.88,-335 275.88,-335 275.88,-323 275.88,-323 275.88,-317 281.88,-311 287.88,-311 287.88,-311 327.12,-311 327.12,-311 333.12,-311 339.12,-317 339.12,-323 339.12,-323 339.12,-335 339.12,-335 339.12,-341 333.12,-347 327.12,-347"/>
<text text-anchor="middle" x="307.5" y="-324.7" font-family="Times,serif" font-size="14.00">catalog</text>
</g>
<!-- SERVICE:web&#45;ui&#45;&gt;SERVICE:catalog -->
<g id="edge2" class="edge">
<title>SERVICE:web&#45;ui&#45;&gt;SERVICE:catalog</title>
<g id="a_edge2"><a xlink:title="edge#1">
<path fill="none" stroke="black" d="M86.09,-284.77C99.21,-288.9 114.91,-293.54 129.25,-297 175.06,-308.03 228.36,-317.17 264.45,-322.81"/>
<polygon fill="black" stroke="black" points="263.62,-326.23 274.04,-324.29 264.69,-319.31 263.62,-326.23"/>
</a>
</g>
<text text-anchor="middle" x="188.12" y="-323.7" font-family="Times,serif" font-size="14.00">CALLS [rest] (sync)</text>
</g>
<!-- SERVICE:reviews -->
<g id="node7" class="node">
<title>SERVICE:reviews</title>
<path fill="#eef6ff" stroke="black" d="M327.88,-293C327.88,-293 287.12,-293 287.12,-293 281.12,-293 275.12,-287 275.12,-281 275.12,-281 275.12,-269 275.12,-269 275.12,-263 281.12,-257 287.12,-257 287.12,-257 327.88,-257 327.88,-257 333.88,-257 339.88,-263 339.88,-269 339.88,-269 339.88,-281 339.88,-281 339.88,-287 333.88,-293 327.88,-293"/>
<text text-anchor="middle" x="307.5" y="-270.7" font-family="Times,serif" font-size="14.00">reviews</text>
</g>
<!-- SERVICE:web&#45;ui&#45;&gt;SERVICE:reviews -->
<g id="edge3" class="edge">
<title>SERVICE:web&#45;ui&#45;&gt;SERVICE:reviews</title>
<g id="a_edge3"><a xlink:title="edge#2">
<path fill="none" stroke="black" d="M85.78,-275C129.61,-275 212.75,-275 263.54,-275"/>
<polygon fill="black" stroke="black" points="263.27,-278.5 273.27,-275 263.27,-271.5 263.27,-278.5"/>
</a>
</g>
<text text-anchor="middle" x="188.12" y="-279.7" font-family="Times,serif" font-size="14.00">CALLS [rest] (sync)</text>
</g>
<!-- SERVICE:support -->
<g id="node8" class="node">
<title>SERVICE:support</title>
<path fill="#eef6ff" stroke="black" d="M328.25,-239C328.25,-239 286.75,-239 286.75,-239 280.75,-239 274.75,-233 274.75,-227 274.75,-227 274.75,-215 274.75,-215 274.75,-209 280.75,-203 286.75,-203 286.75,-203 328.25,-203 328.25,-203 334.25,-203 340.25,-209 340.25,-215 340.25,-215 340.25,-227 340.25,-227 340.25,-233 334.25,-239 328.25,-239"/>
<text text-anchor="middle" x="307.5" y="-216.7" font-family="Times,serif" font-size="14.00">support</text>
</g>
<!-- SERVICE:web&#45;ui&#45;&gt;SERVICE:support -->
<g id="edge4" class="edge">
<title>SERVICE:web&#45;ui&#45;&gt;SERVICE:support</title>
<g id="a_edge4"><a xlink:title="edge#3">
<path fill="none" stroke="black" d="M86.09,-265.23C99.21,-261.1 114.91,-256.46 129.25,-253 174.65,-242.06 227.4,-233 263.47,-227.34"/>
<polygon fill="black" stroke="black" points="263.73,-230.84 273.07,-225.86 262.66,-223.93 263.73,-230.84"/>
</a>
</g>
<text text-anchor="middle" x="188.12" y="-257.7" font-family="Times,serif" font-size="14.00">CALLS [rest] (sync)</text>
</g>
<!-- SERVICE:profile -->
<g id="node9" class="node">
<title>SERVICE:profile</title>
<path fill="#eef6ff" stroke="black" d="M324.12,-185C324.12,-185 290.88,-185 290.88,-185 284.88,-185 278.88,-179 278.88,-173 278.88,-173 278.88,-161 278.88,-161 278.88,-155 284.88,-149 290.88,-149 290.88,-149 324.12,-149 324.12,-149 330.12,-149 336.12,-155 336.12,-161 336.12,-161 336.12,-173 336.12,-173 336.12,-179 330.12,-185 324.12,-185"/>
<text text-anchor="middle" x="307.5" y="-162.7" font-family="Times,serif" font-size="14.00">profile</text>
</g>
<!-- SERVICE:web&#45;ui&#45;&gt;SERVICE:profile -->
<g id="edge5" class="edge">
<title>SERVICE:web&#45;ui&#45;&gt;SERVICE:profile</title>
<g id="a_edge5"><a xlink:title="edge#4">
<path fill="none" stroke="black" d="M71.7,-256.54C85.2,-241.24 106.35,-220.1 129.25,-208 173.09,-184.83 229.83,-174.66 267.15,-170.26"/>
<polygon fill="black" stroke="black" points="267.48,-173.74 277.04,-169.18 266.72,-166.78 267.48,-173.74"/>
</a>
</g>
<text text-anchor="middle" x="188.12" y="-212.7" font-family="Times,serif" font-size="14.00">CALLS [rest] (sync)</text>
</g>
<!-- SERVICE:ingest&#45;worker -->
<g id="node10" class="node">
<title>SERVICE:ingest&#45;worker</title>
<path fill="#eef6ff" stroke="black" d="M96.62,-455C96.62,-455 14.62,-455 14.62,-455 8.62,-455 2.62,-449 2.62,-443 2.62,-443 2.62,-431 2.62,-431 2.62,-425 8.62,-419 14.62,-419 14.62,-419 96.62,-419 96.62,-419 102.62,-419 108.62,-425 108.62,-431 108.62,-431 108.62,-443 108.62,-443 108.62,-449 102.62,-455 96.62,-455"/>
<text text-anchor="middle" x="55.62" y="-432.7" font-family="Times,serif" font-size="14.00">ingest&#45;worker</text>
</g>
<!-- SERVICE:validator -->
<g id="node12" class="node">
<title>SERVICE:validator</title>
<path fill="#eef6ff" stroke="black" d="M331.62,-455C331.62,-455 283.38,-455 283.38,-455 277.38,-455 271.38,-449 271.38,-443 271.38,-443 271.38,-431 271.38,-431 271.38,-425 277.38,-419 283.38,-419 283.38,-419 331.62,-419 331.62,-419 337.62,-419 343.62,-425 343.62,-431 343.62,-431 343.62,-443 343.62,-443 343.62,-449 337.62,-455 331.62,-455"/>
<text text-anchor="middle" x="307.5" y="-432.7" font-family="Times,serif" font-size="14.00">validator</text>
</g>
<!-- SERVICE:ingest&#45;worker&#45;&gt;SERVICE:validator -->
<g id="edge6" class="edge">
<title>SERVICE:ingest&#45;worker&#45;&gt;SERVICE:validator</title>
<g id="a_edge6"><a xlink:title="edge#5">
<path fill="none" stroke="black" d="M109.01,-437C153.48,-437 216.73,-437 259.57,-437"/>
<polygon fill="black" stroke="black" points="259.57,-440.5 269.57,-437 259.57,-433.5 259.57,-440.5"/>
</a>
</g>
<text text-anchor="middle" x="188.12" y="-441.7" font-family="Times,serif" font-size="14.00">CALLS [rest] (sync)</text>
</g>
<!-- SERVICE:billing&#45;api -->
<g id="node11" class="node">
<title>SERVICE:billing&#45;api</title>
<path fill="#eef6ff" stroke="black" d="M84.25,-36C84.25,-36 27,-36 27,-36 21,-36 15,-30 15,-24 15,-24 15,-12 15,-12 15,-6 21,0 27,0 27,0 84.25,0 84.25,0 90.25,0 96.25,-6 96.25,-12 96.25,-12 96.25,-24 96.25,-24 96.25,-30 90.25,-36 84.25,-36"/>
<text text-anchor="middle" x="55.62" y="-13.7" font-family="Times,serif" font-size="14.00">billing&#45;api</text>
</g>
<!-- SERVICE:billing&#45;api&#45;&gt;DATABASE:finance&#45;db -->
<g id="edge9" class="edge">
<title>SERVICE:billing&#45;api&#45;&gt;DATABASE:finance&#45;db</title>
<g id="a_edge9"><a xlink:title="edge#8">
<path fill="none" stroke="black" d="M96.47,-22.49C135.31,-27.37 195.83,-36.37 247,-50 249.24,-50.6 251.52,-51.25 253.82,-51.93"/>
<polygon fill="black" stroke="black" points="252.53,-55.2 263.12,-54.92 254.67,-48.53 252.53,-55.2"/>
</a>
</g>
<text text-anchor="middle" x="188.12" y="-54.7" font-family="Times,serif" font-size="14.00">CALLS [rest] (sync)</text>
</g>
<!-- SERVICE:enricher -->
<g id="node13" class="node">
<title>SERVICE:enricher</title>
<path fill="#eef6ff" stroke="black" d="M560.25,-455C560.25,-455 515.75,-455 515.75,-455 509.75,-455 503.75,-449 503.75,-443 503.75,-443 503.75,-431 503.75,-431 503.75,-425 509.75,-419 515.75,-419 515.75,-419 560.25,-419 560.25,-419 566.25,-419 572.25,-425 572.25,-431 572.25,-431 572.25,-443 572.25,-443 572.25,-449 566.25,-455 560.25,-455"/>
<text text-anchor="middle" x="538" y="-432.7" font-family="Times,serif" font-size="14.00">enricher</text>
</g>
<!-- SERVICE:validator&#45;&gt;SERVICE:enricher -->
<g id="edge7" class="edge">
<title>SERVICE:validator&#45;&gt;SERVICE:enricher</title>
<g id="a_edge7"><a xlink:title="edge#6">
<path fill="none" stroke="black" d="M343.7,-437C383.61,-437 448.75,-437 492.24,-437"/>
<polygon fill="black" stroke="black" points="492.1,-440.5 502.1,-437 492.1,-433.5 492.1,-440.5"/>
</a>
</g>
<text text-anchor="middle" x="426.88" y="-441.7" font-family="Times,serif" font-size="14.00">CALLS [rest] (sync)</text>
</g>
<!-- SERVICE:writer -->
<g id="node14" class="node">
<title>SERVICE:writer</title>
<path fill="#eef6ff" stroke="black" d="M768.25,-455C768.25,-455 738,-455 738,-455 732,-455 726,-449 726,-443 726,-443 726,-431 726,-431 726,-425 732,-419 738,-419 738,-419 768.25,-419 768.25,-419 774.25,-419 780.25,-425 780.25,-431 780.25,-431 780.25,-443 780.25,-443 780.25,-449 774.25,-455 768.25,-455"/>
<text text-anchor="middle" x="753.12" y="-432.7" font-family="Times,serif" font-size="14.00">writer</text>
</g>
<!-- SERVICE:enricher&#45;&gt;SERVICE:writer -->
<g id="edge8" class="edge">
<title>SERVICE:enricher&#45;&gt;SERVICE:writer</title>
<g id="a_edge8"><a xlink:title="edge#7">
<path fill="none" stroke="black" d="M572.3,-437C610.79,-437 674,-437 714.31,-437"/>
<polygon fill="black" stroke="black" points="714.26,-440.5 724.26,-437 714.26,-433.5 714.26,-440.5"/>
</a>
</g>
<text text-anchor="middle" x="649.12" y="-441.7" font-family="Times,serif" font-size="14.00">CALLS [rest] (sync)</text>
</g>
</g>
</svg>
