<?xml version="1.0" encoding="UTF-8" standalone="no"?>
<!DOCTYPE svg PUBLIC "-//W3C//DTD SVG 1.1//EN"
 "http://www.w3.org/Graphics/SVG/1.1/DTD/svg11.dtd">
<!-- Generated by graphviz version 9.0.0 (20230911.1827)
 -->
<!-- Title: G Pages: 1 -->
<svg width="1217pt" height="450pt"
 viewBox="0.00 0.00 1216.50 449.77" xmlns="http://www.w3.org/2000/svg" xmlns:xlink="http://www.w3.org/1999/xlink">
<g id="graph0" class="graph" transform="scale(1 1) rotate(0) translate(4 445.77)">
<title>G</title>
<polygon fill="white" stroke="none" points="-4,4 -4,-445.77 1212.5,-445.77 1212.5,4 -4,4"/>
<text text-anchor="middle" x="604.25" y="-424.47" font-family="Helvetica,sans-Serif" font-size="14.00">Architecture</text>
<!-- SERVICE:database -->
<g id="node1" class="node">
<title>SERVICE:database</title>
<path fill="#eef6ff" stroke="black" d="M659,-45.77C659,-45.77 608.5,-45.77 608.5,-45.77 602.5,-45.77 596.5,-39.77 596.5,-33.77 596.5,-33.77 596.5,-21.77 596.5,-21.77 596.5,-15.77 602.5,-9.77 608.5,-9.77 608.5,-9.77 659,-9.77 659,-9.77 665,-9.77 671,-15.77 671,-21.77 671,-21.77 671,-33.77 671,-33.77 671,-39.77 665,-45.77 659,-45.77"/>
<text text-anchor="middle" x="633.75" y="-23.47" font-family="Times,serif" font-size="14.00">database</text>
</g>
<!-- SERVICE:payments -->
<g id="node7" class="node">
<title>SERVICE:payments</title>
<path fill="#eef6ff" stroke="black" d="M927.75,-105.77C927.75,-105.77 872.75,-105.77 872.75,-105.77 866.75,-105.77 860.75,-99.77 860.75,-93.77 860.75,-93.77 860.75,-81.77 860.75,-81.77 860.75,-75.77 866.75,-69.77 872.75,-69.77 872.75,-69.77 927.75,-69.77 927.75,-69.77 933.75,-69.77 939.75,-75.77 939.75,-81.77 939.75,-81.77 939.75,-93.77 939.75,-93.77 939.75,-99.77 933.75,-105.77 927.75,-105.77"/>
<text text-anchor="middle" x="900.25" y="-83.47" font-family="Times,serif" font-size="14.00">payments</text>
</g>
<!-- SERVICE:database&#45;&gt;SERVICE:payments -->
<g id="edge12" class="edge">
<title>SERVICE:database&#45;&gt;SERVICE:payments</title>
<g id="a_edge12"><a xlink:title="edge#11">
<path fill="none" stroke="black" d="M671.44,-15.29C714.74,-2.83 787.78,10.97 842.75,-15.77 861.39,-24.84 875.7,-43.36 885.26,-59.34"/>
<polygon fill="black" stroke="black" points="882.18,-61.01 890.11,-68.03 888.29,-57.6 882.18,-61.01"/>
</a>
</g>
<text text-anchor="middle" x="783.88" y="-20.47" font-family="Times,serif" font-size="14.00">CALLS [rest] (sync)</text>
</g>
<!-- SERVICE:user -->
<g id="node2" class="node">
<title>SERVICE:user</title>
<path fill="#eef6ff" stroke="black" d="M362.88,-153.77C362.88,-153.77 332.88,-153.77 332.88,-153.77 326.88,-153.77 320.88,-147.77 320.88,-141.77 320.88,-141.77 320.88,-129.77 320.88,-129.77 320.88,-123.77 326.88,-117.77 332.88,-117.77 332.88,-117.77 362.88,-117.77 362.88,-117.77 368.88,-117.77 374.88,-123.77 374.88,-129.77 374.88,-129.77 374.88,-141.77 374.88,-141.77 374.88,-147.77 368.88,-153.77 362.88,-153.77"/>
<text text-anchor="middle" x="347.88" y="-131.47" font-family="Times,serif" font-size="14.00">user</text>
</g>
<!-- SERVICE:web page -->
<g id="node3" class="node">
<title>SERVICE:web page</title>
<path fill="#eef6ff" stroke="black" d="M660.5,-169.77C660.5,-169.77 607,-169.77 607,-169.77 601,-169.77 595,-163.77 595,-157.77 595,-157.77 595,-145.77 595,-145.77 595,-139.77 601,-133.77 607,-133.77 607,-133.77 660.5,-133.77 660.5,-133.77 666.5,-133.77 672.5,-139.77 672.5,-145.77 672.5,-145.77 672.5,-157.77 672.5,-157.77 672.5,-163.77 666.5,-169.77 660.5,-169.77"/>
<text text-anchor="middle" x="633.75" y="-147.47" font-family="Times,serif" font-size="14.00">web page</text>
</g>
<!-- SERVICE:user&#45;&gt;SERVICE:web page -->
<g id="edge1" class="edge">
<title>SERVICE:user&#45;&gt;SERVICE:web page</title>
<g id="a_edge1"><a xlink:title="edge#0">
<path fill="none" stroke="black" d="M375.33,-137.26C422.78,-139.94 523.06,-145.59 583.5,-149"/>
<polygon fill="black" stroke="black" points="582.97,-152.47 593.15,-149.54 583.36,-145.48 582.97,-152.47"/>
</a>
</g>
<text text-anchor="middle" x="483.62" y="-151.47" font-family="Times,serif" font-size="14.00">CALLS [rest] (sync)</text>
</g>
<!-- SERVICE:web page&#45;&gt;SERVICE:payments -->
<g id="edge4" class="edge">
<title>SERVICE:web page&#45;&gt;SERVICE:payments</title>
<g id="a_edge4"><a xlink:title="edge#3">
<path fill="none" stroke="black" d="M672.72,-142.73C714.44,-132.77 783.4,-116.26 842.75,-101.77 844.89,-101.25 847.07,-100.72 849.27,-100.18"/>
<polygon fill="black" stroke="black" points="850.01,-103.6 858.89,-97.81 848.34,-96.8 850.01,-103.6"/>
</a>
</g>
<text text-anchor="middle" x="783.88" y="-134.47" font-family="Times,serif" font-size="14.00">CALLS [rest] (sync)</text>
</g>
<!-- SERVICE:restaurants -->
<g id="node8" class="node">
<title>SERVICE:restaurants</title>
<path fill="#eef6ff" stroke="black" d="M100,-207.77C100,-207.77 35.25,-207.77 35.25,-207.77 29.25,-207.77 23.25,-201.77 23.25,-195.77 23.25,-195.77 23.25,-183.77 23.25,-183.77 23.25,-177.77 29.25,-171.77 35.25,-171.77 35.25,-171.77 100,-171.77 100,-171.77 106,-171.77 112,-177.77 112,-183.77 112,-183.77 112,-195.77 112,-195.77 112,-201.77 106,-207.77 100,-207.77"/>
<text text-anchor="middle" x="67.62" y="-185.47" font-family="Times,serif" font-size="14.00">restaurants</text>
</g>
<!-- SERVICE:web page&#45;&gt;SERVICE:restaurants -->
<g id="edge3" class="edge">
<title>SERVICE:web page&#45;&gt;SERVICE:restaurants</title>
<g id="a_edge3"><a xlink:title="edge#2">
<path fill="none" stroke="black" d="M594.67,-166.28C550.32,-182.35 474.47,-207.23 406.75,-216.77 295.16,-232.5 264.75,-228.12 153.25,-211.77 143.43,-210.33 133.1,-208.19 123.17,-205.81"/>
<polygon fill="black" stroke="black" points="124.19,-202.45 113.64,-203.4 122.48,-209.24 124.19,-202.45"/>
</a>
</g>
<text text-anchor="middle" x="347.88" y="-231.47" font-family="Times,serif" font-size="14.00">CALLS [rest] (sync)</text>
</g>
<!-- SERVICE:new&#45;database -->
<g id="node4" class="node">
<title>SERVICE:new&#45;database</title>
<path fill="#eef6ff" stroke="black" d="M389.62,-207.77C389.62,-207.77 306.12,-207.77 306.12,-207.77 300.12,-207.77 294.12,-201.77 294.12,-195.77 294.12,-195.77 294.12,-183.77 294.12,-183.77 294.12,-177.77 300.12,-171.77 306.12,-171.77 306.12,-171.77 389.62,-171.77 389.62,-171.77 395.62,-171.77 401.62,-177.77 401.62,-183.77 401.62,-183.77 401.62,-195.77 401.62,-195.77 401.62,-201.77 395.62,-207.77 389.62,-207.77"/>
<text text-anchor="middle" x="347.88" y="-185.47" font-family="Times,serif" font-size="14.00">new&#45;database</text>
</g>
<!-- SERVICE:new&#45;database2 -->
<g id="node5" class="node">
<title>SERVICE:new&#45;database2</title>
<path fill="#eef6ff" stroke="black" d="M1196.5,-209.77C1196.5,-209.77 1105.5,-209.77 1105.5,-209.77 1099.5,-209.77 1093.5,-203.77 1093.5,-197.77 1093.5,-197.77 1093.5,-185.77 1093.5,-185.77 1093.5,-179.77 1099.5,-173.77 1105.5,-173.77 1105.5,-173.77 1196.5,-173.77 1196.5,-173.77 1202.5,-173.77 1208.5,-179.77 1208.5,-185.77 1208.5,-185.77 1208.5,-197.77 1208.5,-197.77 1208.5,-203.77 1202.5,-209.77 1196.5,-209.77"/>
<text text-anchor="middle" x="1151" y="-187.47" font-family="Times,serif" font-size="14.00">new&#45;database2</text>
</g>
<!-- SERVICE:orders -->
<g id="node6" class="node">
<title>SERVICE:orders</title>
<path fill="#eef6ff" stroke="black" d="M364.5,-99.77C364.5,-99.77 331.25,-99.77 331.25,-99.77 325.25,-99.77 319.25,-93.77 319.25,-87.77 319.25,-87.77 319.25,-75.77 319.25,-75.77 319.25,-69.77 325.25,-63.77 331.25,-63.77 331.25,-63.77 364.5,-63.77 364.5,-63.77 370.5,-63.77 376.5,-69.77 376.5,-75.77 376.5,-75.77 376.5,-87.77 376.5,-87.77 376.5,-93.77 370.5,-99.77 364.5,-99.77"/>
<text text-anchor="middle" x="347.88" y="-77.47" font-family="Times,serif" font-size="14.00">orders</text>
</g>
<!-- SERVICE:orders&#45;&gt;SERVICE:database -->
<g id="edge5" class="edge">
<title>SERVICE:orders&#45;&gt;SERVICE:database</title>
<g id="a_edge5"><a xlink:title="edge#4">
<path fill="none" stroke="black" d="M376.95,-70.68C391.09,-65.47 408.62,-59.58 424.75,-55.77 478.88,-42.99 542.41,-35.49 584.89,-31.53"/>
<polygon fill="black" stroke="black" points="585.13,-35.02 594.78,-30.64 584.5,-28.05 585.13,-35.02"/>
</a>
</g>
<text text-anchor="middle" x="483.62" y="-60.47" font-family="Times,serif" font-size="14.00">CALLS [rest] (sync)</text>
</g>
<!-- SERVICE:orders&#45;&gt;SERVICE:web page -->
<g id="edge2" class="edge">
<title>SERVICE:orders&#45;&gt;SERVICE:web page</title>
<g id="a_edge2"><a xlink:title="edge#1">
<path fill="none" stroke="black" d="M376.91,-88.42C391.19,-91.71 408.86,-95.65 424.75,-98.77 476.83,-109.02 491.19,-105.16 542.5,-118.77 556.24,-122.42 570.84,-127.3 584.19,-132.18"/>
<polygon fill="black" stroke="black" points="582.59,-135.31 593.18,-135.54 585.04,-128.76 582.59,-135.31"/>
</a>
</g>
<text text-anchor="middle" x="483.62" y="-123.47" font-family="Times,serif" font-size="14.00">CALLS [rest] (sync)</text>
</g>
<!-- SERVICE:orders&#45;&gt;SERVICE:payments -->
<g id="edge9" class="edge">
<title>SERVICE:orders&#45;&gt;SERVICE:payments</title>
<g id="a_edge9"><a xlink:title="edge#8">
<path fill="none" stroke="black" d="M376.92,-82.08C464.83,-83.04 735.81,-85.99 848.88,-87.22"/>
<polygon fill="black" stroke="black" points="848.73,-90.72 858.77,-87.33 848.8,-83.72 848.73,-90.72"/>
</a>
</g>
<text text-anchor="middle" x="633.75" y="-90.47" font-family="Times,serif" font-size="14.00">CALLS [rest] (sync)</text>
</g>
<!-- SERVICE:payments&#45;&gt;SERVICE:database -->
<g id="edge7" class="edge">
<title>SERVICE:payments&#45;&gt;SERVICE:database</title>
<g id="a_edge7"><a xlink:title="edge#6">
<path fill="none" stroke="black" d="M871.5,-69.27C862.64,-64.14 852.58,-59.08 842.75,-55.77 814.01,-46.1 734.74,-37.17 682.78,-32.11"/>
<polygon fill="black" stroke="black" points="683.29,-28.64 673,-31.17 682.62,-35.61 683.29,-28.64"/>
</a>
</g>
<text text-anchor="middle" x="783.88" y="-60.47" font-family="Times,serif" font-size="14.00">CALLS [rest] (sync)</text>
</g>
<!-- SERVICE:payments&#45;&gt;SERVICE:new&#45;database2 -->
<g id="edge13" class="edge">
<title>SERVICE:payments&#45;&gt;SERVICE:new&#45;database2</title>
<g id="a_edge13"><a xlink:title="edge#12">
<path fill="none" stroke="black" d="M940.12,-104.02C981.82,-121.46 1048.39,-149.29 1095.36,-168.93"/>
<polygon fill="black" stroke="black" points="1093.99,-172.15 1104.56,-172.78 1096.69,-165.69 1093.99,-172.15"/>
</a>
</g>
<text text-anchor="middle" x="1016.62" y="-163.47" font-family="Times,serif" font-size="14.00">CALLS [rest] (sync)</text>
</g>
<!-- SERVICE:restaurants&#45;&gt;SERVICE:database -->
<g id="edge6" class="edge">
<title>SERVICE:restaurants&#45;&gt;SERVICE:database</title>
<g id="a_edge6"><a xlink:title="edge#5">
<path fill="none" stroke="black" d="M85.26,-171.47C101.52,-154.23 127.52,-128.35 153.25,-109.77 208.79,-69.67 222.79,-54.37 289,-36.77 391.67,-9.48 517.71,-15.79 585.01,-22.16"/>
<polygon fill="black" stroke="black" points="584.28,-25.61 594.58,-23.12 584.98,-18.64 584.28,-25.61"/>
</a>
</g>
<text text-anchor="middle" x="347.88" y="-41.47" font-family="Times,serif" font-size="14.00">CALLS [rest] (sync)</text>
</g>
<!-- SERVICE:restaurants&#45;&gt;SERVICE:new&#45;database -->
<g id="edge10" class="edge">
<title>SERVICE:restaurants&#45;&gt;SERVICE:new&#45;database</title>
<g id="a_edge10"><a xlink:title="edge#9">
<path fill="none" stroke="black" d="M112.41,-189.77C158.08,-189.77 230.17,-189.77 282.36,-189.77"/>
<polygon fill="black" stroke="black" points="282.33,-193.27 292.33,-189.77 282.33,-186.27 282.33,-193.27"/>
</a>
</g>
<text text-anchor="middle" x="212.12" y="-194.47" font-family="Times,serif" font-size="14.00">CALLS [rest] (sync)</text>
</g>
<!-- SERVICE:restaurants&#45;&gt;SERVICE:new&#45;database2 -->
<g id="edge11" class="edge">
<title>SERVICE:restaurants&#45;&gt;SERVICE:new&#45;database2</title>
<g id="a_edge11"><a xlink:title="edge#10">
<path fill="none" stroke="black" d="M98.24,-208.11C147.77,-236.98 251.4,-289.77 346.88,-289.77 346.88,-289.77 346.88,-289.77 901.25,-289.77 981.25,-289.77 1066.28,-245.35 1113.31,-216.32"/>
<polygon fill="black" stroke="black" points="1115.15,-219.3 1121.75,-211.01 1111.42,-213.38 1115.15,-219.3"/>
</a>
</g>
<text text-anchor="middle" x="633.75" y="-294.47" font-family="Times,serif" font-size="14.00">CALLS [rest] (sync)</text>
</g>
<!-- SERVICE:restaurants&#45;&gt;SERVICE:orders -->
<g id="edge8" class="edge">
<title>SERVICE:restaurants&#45;&gt;SERVICE:orders</title>
<g id="a_edge8"><a xlink:title="edge#7">
<path fill="none" stroke="black" d="M112.41,-172.78C166.3,-151.86 256.98,-116.66 308.35,-96.73"/>
<polygon fill="black" stroke="black" points="309.52,-100.03 317.58,-93.14 306.99,-93.5 309.52,-100.03"/>
</a>
</g>
<text text-anchor="middle" x="212.12" y="-160.47" font-family="Times,serif" font-size="14.00">CALLS [rest] (sync)</text>
</g>
<!-- SERVICE:bff -->
<g id="node9" class="node">
<title>SERVICE:bff</title>
<path fill="#eef6ff" stroke="black" d="M362.88,-388.77C362.88,-388.77 332.88,-388.77 332.88,-388.77 326.88,-388.77 320.88,-382.77 320.88,-376.77 320.88,-376.77 320.88,-364.77 320.88,-364.77 320.88,-358.77 326.88,-352.77 332.88,-352.77 332.88,-352.77 362.88,-352.77 362.88,-352.77 368.88,-352.77 374.88,-358.77 374.88,-364.77 374.88,-364.77 374.88,-376.77 374.88,-376.77 374.88,-382.77 368.88,-388.77 362.88,-388.77"/>
<text text-anchor="middle" x="347.88" y="-366.47" font-family="Times,serif" font-size="14.00">bff</text>
</g>
<!-- SERVICE:service:restaurants -->
<g id="node11" class="node">
<title>SERVICE:service:restaurants</title>
<path fill="#eef6ff" stroke="black" d="M695,-415.77C695,-415.77 572.5,-415.77 572.5,-415.77 566.5,-415.77 560.5,-409.77 560.5,-403.77 560.5,-403.77 560.5,-391.77 560.5,-391.77 560.5,-385.77 566.5,-379.77 572.5,-379.77 572.5,-379.77 695,-379.77 695,-379.77 701,-379.77 707,-385.77 707,-391.77 707,-391.77 707,-403.77 707,-403.77 707,-409.77 701,-415.77 695,-415.77"/>
<text text-anchor="middle" x="633.75" y="-393.47" font-family="Times,serif" font-size="14.00">SERVICE:restaurants</text>
</g>
<!-- SERVICE:bff&#45;&gt;SERVICE:service:restaurants -->
<g id="edge15" class="edge">
<title>SERVICE:bff&#45;&gt;SERVICE:service:restaurants</title>
<g id="a_edge15"><a xlink:title="edge#14">
<path fill="none" stroke="black" d="M375.33,-373.29C414.57,-377.02 489.94,-384.19 549.03,-389.81"/>
<polygon fill="black" stroke="black" points="548.44,-393.27 558.73,-390.73 549.1,-386.3 548.44,-393.27"/>
</a>
</g>
<text text-anchor="middle" x="483.62" y="-393.47" font-family="Times,serif" font-size="14.00">CALLS [rest] (sync)</text>
</g>
<!-- SERVICE:service:payments -->
<g id="node12" class="node">
<title>SERVICE:service:payments</title>
<path fill="#eef6ff" stroke="black" d="M690.12,-361.77C690.12,-361.77 577.38,-361.77 577.38,-361.77 571.38,-361.77 565.38,-355.77 565.38,-349.77 565.38,-349.77 565.38,-337.77 565.38,-337.77 565.38,-331.77 571.38,-325.77 577.38,-325.77 577.38,-325.77 690.12,-325.77 690.12,-325.77 696.12,-325.77 702.12,-331.77 702.12,-337.77 702.12,-337.77 702.12,-349.77 702.12,-349.77 702.12,-355.77 696.12,-361.77 690.12,-361.77"/>
<text text-anchor="middle" x="633.75" y="-339.47" font-family="Times,serif" font-size="14.00">SERVICE:payments</text>
</g>
<!-- SERVICE:bff&#45;&gt;SERVICE:service:payments -->
<g id="edge16" class="edge">
<title>SERVICE:bff&#45;&gt;SERVICE:service:payments</title>
<g id="a_edge16"><a xlink:title="edge#15">
<path fill="none" stroke="black" d="M375.07,-364.67C389.62,-361.52 408.1,-357.89 424.75,-355.77 467.21,-350.38 514.85,-347.41 553.82,-345.77"/>
<polygon fill="black" stroke="black" points="553.72,-349.28 563.58,-345.38 553.45,-342.28 553.72,-349.28"/>
</a>
</g>
<text text-anchor="middle" x="483.62" y="-360.47" font-family="Times,serif" font-size="14.00">CALLS [rest] (sync)</text>
</g>
<!-- SERVICE:service:web page -->
<g id="node10" class="node">
<title>SERVICE:service:web page</title>
<path fill="#eef6ff" stroke="black" d="M123.25,-388.77C123.25,-388.77 12,-388.77 12,-388.77 6,-388.77 0,-382.77 0,-376.77 0,-376.77 0,-364.77 0,-364.77 0,-358.77 6,-352.77 12,-352.77 12,-352.77 123.25,-352.77 123.25,-352.77 129.25,-352.77 135.25,-358.77 135.25,-364.77 135.25,-364.77 135.25,-376.77 135.25,-376.77 135.25,-382.77 129.25,-388.77 123.25,-388.77"/>
<text text-anchor="middle" x="67.62" y="-366.47" font-family="Times,serif" font-size="14.00">SERVICE:web page</text>
</g>
<!-- SERVICE:service:web page&#45;&gt;SERVICE:bff -->
<g id="edge14" class="edge">
<title>SERVICE:service:web page&#45;&gt;SERVICE:bff</title>
<g id="a_edge14"><a xlink:title="edge#13">
<path fill="none" stroke="black" d="M135.63,-370.77C189.98,-370.77 264.64,-370.77 309.1,-370.77"/>
<polygon fill="black" stroke="black" points="309.02,-374.27 319.02,-370.77 309.02,-367.27 309.02,-374.27"/>
</a>
</g>
<text text-anchor="middle" x="212.12" y="-375.47" font-family="Times,serif" font-size="14.00">CALLS [rest] (sync)</text>
</g>
</g>
</svg>
