<?xml version="1.0" encoding="UTF-8" standalone="no"?>
<!DOCTYPE svg PUBLIC "-//W3C//DTD SVG 1.1//EN"
 "http://www.w3.org/Graphics/SVG/1.1/DTD/svg11.dtd">
<!-- Generated by graphviz version 9.0.0 (20230911.1827)
 -->
<!-- Title: G Pages: 1 -->
<svg width="863pt" height="448pt"
 viewBox="0.00 0.00 862.50 448.00" xmlns="http://www.w3.org/2000/svg" xmlns:xlink="http://www.w3.org/1999/xlink">
<g id="graph0" class="graph" transform="scale(1 1) rotate(0) translate(4 444)">
<title>G</title>
<polygon fill="white" stroke="none" points="-4,4 -4,-444 858.5,-444 858.5,4 -4,4"/>
<text text-anchor="middle" x="427.25" y="-422.7" font-family="Helvetica,sans-Serif" font-size="14.00">Architecture</text>
<!-- SERVICE:ops&#45;hub_split -->
<g id="node1" class="node">
<title>SERVICE:ops&#45;hub_split</title>
<path fill="#eef6ff" stroke="black" d="M582,-198C582,-198 502.25,-198 502.25,-198 496.25,-198 490.25,-192 490.25,-186 490.25,-186 490.25,-174 490.25,-174 490.25,-168 496.25,-162 502.25,-162 502.25,-162 582,-162 582,-162 588,-162 594,-168 594,-174 594,-174 594,-186 594,-186 594,-192 588,-198 582,-198"/>
<text text-anchor="middle" x="542.12" y="-175.7" font-family="Times,serif" font-size="14.00">ops&#45;hub_split</text>
</g>
<!-- SERVICE:cache&#45;proxy -->
<g id="node4" class="node">
<title>SERVICE:cache&#45;proxy</title>
<path fill="#eef6ff" stroke="black" d="M836.12,-252C836.12,-252 766.12,-252 766.12,-252 760.12,-252 754.12,-246 754.12,-240 754.12,-240 754.12,-228 754.12,-228 754.12,-222 760.12,-216 766.12,-216 766.12,-216 836.12,-216 836.12,-216 842.12,-216 848.12,-222 848.12,-228 848.12,-228 848.12,-240 848.12,-240 848.12,-246 842.12,-252 836.12,-252"/>
<text text-anchor="middle" x="801.12" y="-229.7" font-family="Times,serif" font-size="14.00">cache&#45;proxy</text>
</g>
<!-- SERVICE:ops&#45;hub_split&#45;&gt;SERVICE:cache&#45;proxy -->
<g id="edge8" class="edge">
<title>SERVICE:ops&#45;hub_split&#45;&gt;SERVICE:cache&#45;proxy</title>
<g id="a_edge8"><a xlink:title="edge#7">
<path fill="none" stroke="black" d="M594.43,-197.26C600.32,-198.98 606.27,-200.6 612,-202 655.32,-212.55 705.08,-220.85 742.54,-226.35"/>
<polygon fill="black" stroke="black" points="741.86,-229.79 752.26,-227.75 742.86,-222.86 741.86,-229.79"/>
</a>
</g>
<text text-anchor="middle" x="670.88" y="-229.7" font-family="Times,serif" font-size="14.00">CALLS [rest] (sync)</text>
</g>
<!-- SERVICE:metrics&#45;agent -->
<g id="node5" class="node">
<title>SERVICE:metrics&#45;agent</title>
<path fill="#eef6ff" stroke="black" d="M842.5,-198C842.5,-198 759.75,-198 759.75,-198 753.75,-198 747.75,-192 747.75,-186 747.75,-186 747.75,-174 747.75,-174 747.75,-168 753.75,-162 759.75,-162 759.75,-162 842.5,-162 842.5,-162 848.5,-162 854.5,-168 854.5,-174 854.5,-174 854.5,-186 854.5,-186 854.5,-192 848.5,-198 842.5,-198"/>
<text text-anchor="middle" x="801.12" y="-175.7" font-family="Times,serif" font-size="14.00">metrics&#45;agent</text>
</g>
<!-- SERVICE:ops&#45;hub_split&#45;&gt;SERVICE:metrics&#45;agent -->
<g id="edge9" class="edge">
<title>SERVICE:ops&#45;hub_split&#45;&gt;SERVICE:metrics&#45;agent</title>
<g id="a_edge9"><a xlink:title="edge#8">
<path fill="none" stroke="black" d="M594.21,-180C634.92,-180 692.17,-180 735.97,-180"/>
<polygon fill="black" stroke="black" points="735.86,-183.5 745.86,-180 735.86,-176.5 735.86,-183.5"/>
</a>
</g>
<text text-anchor="middle" x="670.88" y="-184.7" font-family="Times,serif" font-size="14.00">CALLS [rest] (sync)</text>
</g>
<!-- SERVICE:report&#45;export -->
<g id="node6" class="node">
<title>SERVICE:report&#45;export</title>
<path fill="#eef6ff" stroke="black" d="M840.62,-144C840.62,-144 761.62,-144 761.62,-144 755.62,-144 749.62,-138 749.62,-132 749.62,-132 749.62,-120 749.62,-120 749.62,-114 755.62,-108 761.62,-108 761.62,-108 840.62,-108 840.62,-108 846.62,-108 852.62,-114 852.62,-120 852.62,-120 852.62,-132 852.62,-132 852.62,-138 846.62,-144 840.62,-144"/>
<text text-anchor="middle" x="801.12" y="-121.7" font-family="Times,serif" font-size="14.00">report&#45;export</text>
</g>
<!-- SERVICE:ops&#45;hub_split&#45;&gt;SERVICE:report&#45;export -->
<g id="edge10" class="edge">
<title>SERVICE:ops&#45;hub_split&#45;&gt;SERVICE:report&#45;export</title>
<g id="a_edge10"><a xlink:title="edge#9">
<path fill="none" stroke="black" d="M594.43,-162.74C600.32,-161.02 606.27,-159.4 612,-158 653.72,-147.84 701.41,-139.77 738.33,-134.27"/>
<polygon fill="black" stroke="black" points="738.54,-137.78 747.93,-132.87 737.53,-130.85 738.54,-137.78"/>
</a>
</g>
<text text-anchor="middle" x="670.88" y="-162.7" font-family="Times,serif" font-size="14.00">CALLS [rest] (sync)</text>
</g>
<!-- SERVICE:discount -->
<g id="node2" class="node">
<title>SERVICE:discount</title>
<path fill="#eef6ff" stroke="black" d="M324.5,-252C324.5,-252 277.75,-252 277.75,-252 271.75,-252 265.75,-246 265.75,-240 265.75,-240 265.75,-228 265.75,-228 265.75,-222 271.75,-216 277.75,-216 277.75,-216 324.5,-216 324.5,-216 330.5,-216 336.5,-222 336.5,-228 336.5,-228 336.5,-240 336.5,-240 336.5,-246 330.5,-252 324.5,-252"/>
<text text-anchor="middle" x="301.12" y="-229.7" font-family="Times,serif" font-size="14.00">discount</text>
</g>
<!-- SERVICE:tax -->
<g id="node3" class="node">
<title>SERVICE:tax</title>
<path fill="#eef6ff" stroke="black" d="M557.12,-252C557.12,-252 527.12,-252 527.12,-252 521.12,-252 515.12,-246 515.12,-240 515.12,-240 515.12,-228 515.12,-228 515.12,-222 521.12,-216 527.12,-216 527.12,-216 557.12,-216 557.12,-216 563.12,-216 569.12,-222 569.12,-228 569.12,-228 569.12,-240 569.12,-240 569.12,-246 563.12,-252 557.12,-252"/>
<text text-anchor="middle" x="542.12" y="-229.7" font-family="Times,serif" font-size="14.00">tax</text>
</g>
<!-- SERVICE:discount&#45;&gt;SERVICE:tax -->
<g id="edge2" class="edge">
<title>SERVICE:discount&#45;&gt;SERVICE:tax</title>
<g id="a_edge2"><a xlink:title="edge#1">
<path fill="none" stroke="black" d="M336.88,-234C381.21,-234 457.59,-234 503.33,-234"/>
<polygon fill="black" stroke="black" points="503.3,-237.5 513.3,-234 503.3,-230.5 503.3,-237.5"/>
</a>
</g>
<text text-anchor="middle" x="413.38" y="-238.7" font-family="Times,serif" font-size="14.00">CALLS [rest] (sync)</text>
</g>
<!-- SERVICE:notifications -->
<g id="node7" class="node">
<title>SERVICE:notifications</title>
<path fill="#eef6ff" stroke="black" d="M92.12,-414C92.12,-414 19.88,-414 19.88,-414 13.88,-414 7.88,-408 7.88,-402 7.88,-402 7.88,-390 7.88,-390 7.88,-384 13.88,-378 19.88,-378 19.88,-378 92.12,-378 92.12,-378 98.12,-378 104.12,-384 104.12,-390 104.12,-390 104.12,-402 104.12,-402 104.12,-408 98.12,-414 92.12,-414"/>
<text text-anchor="middle" x="56" y="-391.7" font-family="Times,serif" font-size="14.00">notifications</text>
</g>
<!-- DATABASE:user&#45;db -->
<g id="node8" class="node">
<title>DATABASE:user&#45;db</title>
<path fill="#fff3cd" stroke="black" d="M333.88,-356.73C333.88,-358.53 319.2,-360 301.12,-360 283.05,-360 268.38,-358.53 268.38,-356.73 268.38,-356.73 268.38,-327.27 268.38,-327.27 268.38,-325.47 283.05,-324 301.12,-324 319.2,-324 333.88,-325.47 333.88,-327.27 333.88,-327.27 333.88,-356.73 333.88,-356.73"/>
<path fill="none" stroke="black" d="M333.88,-356.73C333.88,-354.92 319.2,-353.45 301.12,-353.45 283.05,-353.45 268.38,-354.92 268.38,-356.73"/>
<text text-anchor="middle" x="301.12" y="-337.7" font-family="Times,serif" font-size="14.00">user&#45;db</text>
</g>
<!-- SERVICE:notifications&#45;&gt;DATABASE:user&#45;db -->
<g id="edge13" class="edge">
<title>SERVICE:notifications&#45;&gt;DATABASE:user&#45;db</title>
<g id="a_edge13"><a xlink:title="edge#12">
<path fill="none" stroke="black" d="M104.32,-391.15C143.34,-386.42 199.85,-377.87 247.75,-364 251.01,-363.06 254.34,-361.97 257.66,-360.79"/>
<polygon fill="black" stroke="black" points="258.62,-364.17 266.72,-357.35 256.13,-357.63 258.62,-364.17"/>
</a>
</g>
<text text-anchor="middle" x="188.88" y="-391.7" font-family="Times,serif" font-size="14.00">CALLS [rest] (sync)</text>
</g>
<!-- SERVICE:ops&#45;hub -->
<g id="node9" class="node">
<title>SERVICE:ops&#45;hub</title>
<path fill="#eef6ff" stroke="black" d="M323.75,-117C323.75,-117 278.5,-117 278.5,-117 272.5,-117 266.5,-111 266.5,-105 266.5,-105 266.5,-93 266.5,-93 266.5,-87 272.5,-81 278.5,-81 278.5,-81 323.75,-81 323.75,-81 329.75,-81 335.75,-87 335.75,-93 335.75,-93 335.75,-105 335.75,-105 335.75,-111 329.75,-117 323.75,-117"/>
<text text-anchor="middle" x="301.12" y="-94.7" font-family="Times,serif" font-size="14.00">ops&#45;hub</text>
</g>
<!-- SERVICE:ops&#45;hub&#45;&gt;SERVICE:ops&#45;hub_split -->
<g id="edge14" class="edge">
<title>SERVICE:ops&#45;hub&#45;&gt;SERVICE:ops&#45;hub_split</title>
<g id="a_edge14"><a xlink:title="edge#13">
<path fill="none" stroke="black" d="M320.53,-117.34C329.96,-125.75 342.06,-135.13 354.5,-141 393.56,-159.44 441.3,-169.21 478.71,-174.36"/>
<polygon fill="black" stroke="black" points="478.1,-177.81 488.47,-175.62 479,-170.87 478.1,-177.81"/>
</a>
</g>
<text text-anchor="middle" x="413.38" y="-178.7" font-family="Times,serif" font-size="14.00">CALLS [rest] (sync)</text>
</g>
<!-- SERVICE:emailer -->
<g id="node12" class="node">
<title>SERVICE:emailer</title>
<path fill="#eef6ff" stroke="black" d="M562.12,-144C562.12,-144 522.12,-144 522.12,-144 516.12,-144 510.12,-138 510.12,-132 510.12,-132 510.12,-120 510.12,-120 510.12,-114 516.12,-108 522.12,-108 522.12,-108 562.12,-108 562.12,-108 568.12,-108 574.12,-114 574.12,-120 574.12,-120 574.12,-132 574.12,-132 574.12,-138 568.12,-144 562.12,-144"/>
<text text-anchor="middle" x="542.12" y="-121.7" font-family="Times,serif" font-size="14.00">emailer</text>
</g>
<!-- SERVICE:ops&#45;hub&#45;&gt;SERVICE:emailer -->
<g id="edge5" class="edge">
<title>SERVICE:ops&#45;hub&#45;&gt;SERVICE:emailer</title>
<g id="a_edge5"><a xlink:title="edge#4">
<path fill="none" stroke="black" d="M336.11,-102.84C378.88,-107.67 452.34,-115.97 498.74,-121.21"/>
<polygon fill="black" stroke="black" points="498.08,-124.66 508.41,-122.3 498.87,-117.7 498.08,-124.66"/>
</a>
</g>
<text text-anchor="middle" x="413.38" y="-123.7" font-family="Times,serif" font-size="14.00">CALLS [rest] (sync)</text>
</g>
<!-- SERVICE:sms&#45;gateway -->
<g id="node15" class="node">
<title>SERVICE:sms&#45;gateway</title>
<path fill="#eef6ff" stroke="black" d="M581.25,-90C581.25,-90 503,-90 503,-90 497,-90 491,-84 491,-78 491,-78 491,-66 491,-66 491,-60 497,-54 503,-54 503,-54 581.25,-54 581.25,-54 587.25,-54 593.25,-60 593.25,-66 593.25,-66 593.25,-78 593.25,-78 593.25,-84 587.25,-90 581.25,-90"/>
<text text-anchor="middle" x="542.12" y="-67.7" font-family="Times,serif" font-size="14.00">sms&#45;gateway</text>
</g>
<!-- SERVICE:ops&#45;hub&#45;&gt;SERVICE:sms&#45;gateway -->
<g id="edge6" class="edge">
<title>SERVICE:ops&#45;hub&#45;&gt;SERVICE:sms&#45;gateway</title>
<g id="a_edge6"><a xlink:title="edge#5">
<path fill="none" stroke="black" d="M335.97,-88.16C342.08,-86.53 348.44,-85.05 354.5,-84 395.78,-76.85 442.86,-73.86 479.4,-72.65"/>
<polygon fill="black" stroke="black" points="479.47,-76.15 489.37,-72.36 479.27,-69.15 479.47,-76.15"/>
</a>
</g>
<text text-anchor="middle" x="413.38" y="-88.7" font-family="Times,serif" font-size="14.00">CALLS [rest] (sync)</text>
</g>
<!-- SERVICE:audit&#45;log -->
<g id="node16" class="node">
<title>SERVICE:audit&#45;log</title>
<path fill="#eef6ff" stroke="black" d="M567.38,-36C567.38,-36 516.88,-36 516.88,-36 510.88,-36 504.88,-30 504.88,-24 504.88,-24 504.88,-12 504.88,-12 504.88,-6 510.88,0 516.88,0 516.88,0 567.38,0 567.38,0 573.38,0 579.38,-6 579.38,-12 579.38,-12 579.38,-24 579.38,-24 579.38,-30 573.38,-36 567.38,-36"/>
<text text-anchor="middle" x="542.12" y="-13.7" font-family="Times,serif" font-size="14.00">audit&#45;log</text>
</g>
<!-- SERVICE:ops&#45;hub&#45;&gt;SERVICE:audit&#45;log -->
<g id="edge7" class="edge">
<title>SERVICE:ops&#45;hub&#45;&gt;SERVICE:audit&#45;log</title>
<g id="a_edge7"><a xlink:title="edge#6">
<path fill="none" stroke="black" d="M317.78,-80.66C327.36,-70.63 340.46,-58.88 354.5,-52 398.41,-30.47 454.17,-22.48 493.26,-19.56"/>
<polygon fill="black" stroke="black" points="493.31,-23.07 503.06,-18.92 492.86,-16.08 493.31,-23.07"/>
</a>
</g>
<text text-anchor="middle" x="413.38" y="-56.7" font-family="Times,serif" font-size="14.00">CALLS [rest] (sync)</text>
</g>
<!-- SERVICE:scheduler -->
<g id="node10" class="node">
<title>SERVICE:scheduler</title>
<path fill="#eef6ff" stroke="black" d="M82.75,-144C82.75,-144 29.25,-144 29.25,-144 23.25,-144 17.25,-138 17.25,-132 17.25,-132 17.25,-120 17.25,-120 17.25,-114 23.25,-108 29.25,-108 29.25,-108 82.75,-108 82.75,-108 88.75,-108 94.75,-114 94.75,-120 94.75,-120 94.75,-132 94.75,-132 94.75,-138 88.75,-144 82.75,-144"/>
<text text-anchor="middle" x="56" y="-121.7" font-family="Times,serif" font-size="14.00">scheduler</text>
</g>
<!-- SERVICE:scheduler&#45;&gt;SERVICE:ops&#45;hub -->
<g id="edge3" class="edge">
<title>SERVICE:scheduler&#45;&gt;SERVICE:ops&#45;hub</title>
<g id="a_edge3"><a xlink:title="edge#2">
<path fill="none" stroke="black" d="M94.99,-121.78C138.23,-116.98 208.83,-109.14 254.88,-104.02"/>
<polygon fill="black" stroke="black" points="255.26,-107.5 264.82,-102.92 254.49,-100.55 255.26,-107.5"/>
</a>
</g>
<text text-anchor="middle" x="188.88" y="-122.7" font-family="Times,serif" font-size="14.00">CALLS [rest] (sync)</text>
</g>
<!-- SERVICE:admin&#45;console -->
<g id="node11" class="node">
<title>SERVICE:admin&#45;console</title>
<path fill="#eef6ff" stroke="black" d="M100,-90C100,-90 12,-90 12,-90 6,-90 0,-84 0,-78 0,-78 0,-66 0,-66 0,-60 6,-54 12,-54 12,-54 100,-54 100,-54 106,-54 112,-60 112,-66 112,-66 112,-78 112,-78 112,-84 106,-90 100,-90"/>
<text text-anchor="middle" x="56" y="-67.7" font-family="Times,serif" font-size="14.00">admin&#45;console</text>
</g>
<!-- SERVICE:admin&#45;console&#45;&gt;SERVICE:ops&#45;hub -->
<g id="edge4" class="edge">
<title>SERVICE:admin&#45;console&#45;&gt;SERVICE:ops&#45;hub</title>
<g id="a_edge4"><a xlink:title="edge#3">
<path fill="none" stroke="black" d="M112.5,-71.72C150.78,-72.37 202.69,-74.94 247.75,-83 250.18,-83.44 252.66,-83.95 255.15,-84.52"/>
<polygon fill="black" stroke="black" points="254.02,-87.84 264.58,-86.93 255.76,-81.06 254.02,-87.84"/>
</a>
</g>
<text text-anchor="middle" x="188.88" y="-87.7" font-family="Times,serif" font-size="14.00">CALLS [rest] (sync)</text>
</g>
<!-- SERVICE:user&#45;profile -->
<g id="node13" class="node">
<title>SERVICE:user&#45;profile</title>
<path fill="#eef6ff" stroke="black" d="M89.12,-360C89.12,-360 22.88,-360 22.88,-360 16.88,-360 10.88,-354 10.88,-348 10.88,-348 10.88,-336 10.88,-336 10.88,-330 16.88,-324 22.88,-324 22.88,-324 89.12,-324 89.12,-324 95.12,-324 101.12,-330 101.12,-336 101.12,-336 101.12,-348 101.12,-348 101.12,-354 95.12,-360 89.12,-360"/>
<text text-anchor="middle" x="56" y="-337.7" font-family="Times,serif" font-size="14.00">user&#45;profile</text>
</g>
<!-- SERVICE:user&#45;profile&#45;&gt;DATABASE:user&#45;db -->
<g id="edge11" class="edge">
<title>SERVICE:user&#45;profile&#45;&gt;DATABASE:user&#45;db</title>
<g id="a_edge11"><a xlink:title="edge#10">
<path fill="none" stroke="black" d="M101.59,-342C145.79,-342 213.06,-342 256.81,-342"/>
<polygon fill="black" stroke="black" points="256.7,-345.5 266.7,-342 256.7,-338.5 256.7,-345.5"/>
</a>
</g>
<text text-anchor="middle" x="188.88" y="-346.7" font-family="Times,serif" font-size="14.00">CALLS [rest] (sync)</text>
</g>
<!-- SERVICE:pricing -->
<g id="node14" class="node">
<title>SERVICE:pricing</title>
<path fill="#eef6ff" stroke="black" d="M74.12,-252C74.12,-252 37.88,-252 37.88,-252 31.88,-252 25.88,-246 25.88,-240 25.88,-240 25.88,-228 25.88,-228 25.88,-222 31.88,-216 37.88,-216 37.88,-216 74.12,-216 74.12,-216 80.12,-216 86.12,-222 86.12,-228 86.12,-228 86.12,-240 86.12,-240 86.12,-246 80.12,-252 74.12,-252"/>
<text text-anchor="middle" x="56" y="-229.7" font-family="Times,serif" font-size="14.00">pricing</text>
</g>
<!-- SERVICE:pricing&#45;&gt;SERVICE:discount -->
<g id="edge1" class="edge">
<title>SERVICE:pricing&#45;&gt;SERVICE:discount</title>
<g id="a_edge1"><a xlink:title="edge#0">
<path fill="none" stroke="black" d="M86.33,-234C128.07,-234 205.01,-234 254.31,-234"/>
<polygon fill="black" stroke="black" points="254.09,-237.5 264.09,-234 254.09,-230.5 254.09,-237.5"/>
</a>
</g>
<text text-anchor="middle" x="188.88" y="-238.7" font-family="Times,serif" font-size="14.00">CALLS [rest] (sync)</text>
</g>
<!-- SERVICE:preferences -->
<g id="node17" class="node">
<title>SERVICE:preferences</title>
<path fill="#eef6ff" stroke="black" d="M89.5,-306C89.5,-306 22.5,-306 22.5,-306 16.5,-306 10.5,-300 10.5,-294 10.5,-294 10.5,-282 10.5,-282 10.5,-276 16.5,-270 22.5,-270 22.5,-270 89.5,-270 89.5,-270 95.5,-270 101.5,-276 101.5,-282 101.5,-282 101.5,-294 101.5,-294 101.5,-300 95.5,-306 89.5,-306"/>
<text text-anchor="middle" x="56" y="-283.7" font-family="Times,serif" font-size="14.00">preferences</text>
</g>
<!-- SERVICE:preferences&#45;&gt;DATABASE:user&#45;db -->
<g id="edge12" class="edge">
<title>SERVICE:preferences&#45;&gt;DATABASE:user&#45;db</title>
<g id="a_edge12"><a xlink:title="edge#11">
<path fill="none" stroke="black" d="M101.98,-292.57C141.05,-297.24 198.89,-305.85 247.75,-320 251.01,-320.94 254.34,-322.03 257.66,-323.21"/>
<polygon fill="black" stroke="black" points="256.13,-326.37 266.72,-326.65 258.62,-319.83 256.13,-326.37"/>
</a>
</g>
<text text-anchor="middle" x="188.88" y="-324.7" font-family="Times,serif" font-size="14.00">CALLS [rest] (sync)</text>
</g>
</g>
</svg>
