<?xml version="1.0" encoding="UTF-8" standalone="no"?>
<!DOCTYPE svg PUBLIC "-//W3C//DTD SVG 1.1//EN"
 "http://www.w3.org/Graphics/SVG/1.1/DTD/svg11.dtd">
<!-- Generated by graphviz version 9.0.0 (20230911.1827)
 -->
<!-- Title: G Pages: 1 -->
<svg width="1069pt" height="124pt"
 viewBox="0.00 0.00 1069.00 124.00" xmlns="http://www.w3.org/2000/svg" xmlns:xlink="http://www.w3.org/1999/xlink">
<g id="graph0" class="graph" transform="scale(1 1) rotate(0) translate(4 120)">
<title>G</title>
<polygon fill="white" stroke="none" points="-4,4 -4,-120 1065,-120 1065,4 -4,4"/>
<text text-anchor="middle" x="530.5" y="-98.7" font-family="Helvetica,sans-Serif" font-size="14.00">Architecture</text>
<!-- SERVICE:profile -->
<g id="node1" class="node">
<title>SERVICE:profile</title>
<path fill="#eef6ff" stroke="black" d="M785.25,-78C785.25,-78 752,-78 752,-78 746,-78 740,-72 740,-66 740,-66 740,-54 740,-54 740,-48 746,-42 752,-42 752,-42 785.25,-42 785.25,-42 791.25,-42 797.25,-48 797.25,-54 797.25,-54 797.25,-66 797.25,-66 797.25,-72 791.25,-78 785.25,-78"/>
<text text-anchor="middle" x="768.62" y="-55.7" font-family="Times,serif" font-size="14.00">profile</text>
</g>
<!-- DATABASE:profile&#45;db -->
<g id="node3" class="node">
<title>DATABASE:profile&#45;db</title>
<path fill="#fff3cd" stroke="black" d="M1061,-36.73C1061,-38.53 1043.13,-40 1021.12,-40 999.12,-40 981.25,-38.53 981.25,-36.73 981.25,-36.73 981.25,-7.27 981.25,-7.27 981.25,-5.47 999.12,-4 1021.12,-4 1043.13,-4 1061,-5.47 1061,-7.27 1061,-7.27 1061,-36.73 1061,-36.73"/>
<path fill="none" stroke="black" d="M1061,-36.73C1061,-34.92 1043.13,-33.45 1021.12,-33.45 999.12,-33.45 981.25,-34.92 981.25,-36.73"/>
<text text-anchor="middle" x="1021.12" y="-17.7" font-family="Times,serif" font-size="14.00">profile&#45;db</text>
</g>
<!-- SERVICE:profile&#45;&gt;DATABASE:profile&#45;db -->
<g id="edge2" class="edge">
<title>SERVICE:profile&#45;&gt;DATABASE:profile&#45;db</title>
<g id="a_edge2"><a xlink:title="edge#1">
<path fill="none" stroke="black" d="M797.39,-55.79C838.96,-49.48 918.02,-37.49 969.89,-29.62"/>
<polygon fill="black" stroke="black" points="970.31,-33.1 979.67,-28.14 969.26,-26.18 970.31,-33.1"/>
</a>
</g>
<text text-anchor="middle" x="904.38" y="-51.7" font-family="Times,serif" font-size="14.00">CALLS [rest] (sync)</text>
</g>
<!-- SERVICE:recommendations -->
<g id="node2" class="node">
<title>SERVICE:recommendations</title>
<path fill="#eef6ff" stroke="black" d="M536.5,-36C536.5,-36 427.5,-36 427.5,-36 421.5,-36 415.5,-30 415.5,-24 415.5,-24 415.5,-12 415.5,-12 415.5,-6 421.5,0 427.5,0 427.5,0 536.5,0 536.5,0 542.5,0 548.5,-6 548.5,-12 548.5,-12 548.5,-24 548.5,-24 548.5,-30 542.5,-36 536.5,-36"/>
<text text-anchor="middle" x="482" y="-13.7" font-family="Times,serif" font-size="14.00">recommendations</text>
</g>
<!-- SERVICE:recommendations&#45;&gt;SERVICE:profile -->
<g id="edge1" class="edge">
<title>SERVICE:recommendations&#45;&gt;SERVICE:profile</title>
<g id="a_edge1"><a xlink:title="edge#0">
<path fill="none" stroke="black" d="M548.71,-22.34C590,-25.7 644.26,-31.29 691.75,-40 703.93,-42.23 717.04,-45.41 728.87,-48.56"/>
<polygon fill="black" stroke="black" points="727.72,-51.88 738.29,-51.16 729.58,-45.13 727.72,-51.88"/>
</a>
</g>
<text text-anchor="middle" x="629.12" y="-44.7" font-family="Times,serif" font-size="14.00">CALLS [rest] (async)</text>
</g>
<!-- SERVICE:recommendations&#45;&gt;DATABASE:profile&#45;db -->
<g id="edge3" class="edge">
<title>SERVICE:recommendations&#45;&gt;DATABASE:profile&#45;db</title>
<g id="a_edge3"><a xlink:title="edge#2">
<path fill="none" stroke="black" d="M548.73,-16.38C618.05,-14.91 730.47,-13.24 827.5,-15 875.92,-15.88 931.15,-18 970.02,-19.68"/>
<polygon fill="black" stroke="black" points="969.37,-23.16 979.52,-20.1 969.68,-16.16 969.37,-23.16"/>
</a>
</g>
<text text-anchor="middle" x="768.62" y="-19.7" font-family="Times,serif" font-size="14.00">CALLS [rest] (sync)</text>
</g>
<!-- SERVICE:bff -->
<g id="node4" class="node">
<title>SERVICE:bff</title>
<path fill="#eef6ff" stroke="black" d="M249.75,-63C249.75,-63 219.75,-63 219.75,-63 213.75,-63 207.75,-57 207.75,-51 207.75,-51 207.75,-39 207.75,-39 207.75,-33 213.75,-27 219.75,-27 219.75,-27 249.75,-27 249.75,-27 255.75,-27 261.75,-33 261.75,-39 261.75,-39 261.75,-51 261.75,-51 261.75,-57 255.75,-63 249.75,-63"/>
<text text-anchor="middle" x="234.75" y="-40.7" font-family="Times,serif" font-size="14.00">bff</text>
</g>
<!-- SERVICE:bff&#45;&gt;SERVICE:profile -->
<g id="edge5" class="edge">
<title>SERVICE:bff&#45;&gt;SERVICE:profile</title>
<g id="a_edge5"><a xlink:title="edge#4">
<path fill="none" stroke="black" d="M262,-54.07C267.78,-55.7 273.92,-57.14 279.75,-58 444.89,-82.23 644.88,-70.34 728.21,-63.58"/>
<polygon fill="black" stroke="black" points="728.46,-67.08 738.13,-62.76 727.88,-60.1 728.46,-67.08"/>
</a>
</g>
<text text-anchor="middle" x="482" y="-76.7" font-family="Times,serif" font-size="14.00">CALLS [rest] (sync)</text>
</g>
<!-- SERVICE:bff&#45;&gt;SERVICE:recommendations -->
<g id="edge6" class="edge">
<title>SERVICE:bff&#45;&gt;SERVICE:recommendations</title>
<g id="a_edge6"><a xlink:title="edge#5">
<path fill="none" stroke="black" d="M261.81,-42.02C267.71,-41.35 273.94,-40.65 279.75,-40 320.74,-35.43 366.45,-30.43 403.93,-26.35"/>
<polygon fill="black" stroke="black" points="404.21,-29.84 413.78,-25.28 403.46,-22.88 404.21,-29.84"/>
</a>
</g>
<text text-anchor="middle" x="338.62" y="-44.7" font-family="Times,serif" font-size="14.00">CALLS [rest] (sync)</text>
</g>
<!-- SERVICE:ui -->
<g id="node5" class="node">
<title>SERVICE:ui</title>
<path fill="#eef6ff" stroke="black" d="M42,-63C42,-63 12,-63 12,-63 6,-63 0,-57 0,-51 0,-51 0,-39 0,-39 0,-33 6,-27 12,-27 12,-27 42,-27 42,-27 48,-27 54,-33 54,-39 54,-39 54,-51 54,-51 54,-57 48,-63 42,-63"/>
<text text-anchor="middle" x="27" y="-40.7" font-family="Times,serif" font-size="14.00">ui</text>
</g>
<!-- SERVICE:ui&#45;&gt;SERVICE:bff -->
<g id="edge4" class="edge">
<title>SERVICE:ui&#45;&gt;SERVICE:bff</title>
<g id="a_edge4"><a xlink:title="edge#3">
<path fill="none" stroke="black" d="M54.48,-45C90.43,-45 154.92,-45 195.96,-45"/>
<polygon fill="black" stroke="black" points="195.86,-48.5 205.86,-45 195.86,-41.5 195.86,-48.5"/>
</a>
</g>
<text text-anchor="middle" x="130.88" y="-49.7" font-family="Times,serif" font-size="14.00">CALLS [rest] (sync)</text>
</g>
</g>
</svg>
