<?xml version="1.0" encoding="UTF-8" standalone="no"?>
<!DOCTYPE svg PUBLIC "-//W3C//DTD SVG 1.1//EN"
 "http://www.w3.org/Graphics/SVG/1.1/DTD/svg11.dtd">
<!-- Generated by graphviz version 9.0.0 (20230911.1827)
 -->
<!-- Title: G Pages: 1 -->
<svg width="808pt" height="233pt"
 viewBox="0.00 0.00 807.50 233.00" xmlns="http://www.w3.org/2000/svg" xmlns:xlink="http://www.w3.org/1999/xlink">
<g id="graph0" class="graph" transform="scale(1 1) rotate(0) translate(4 229)">
<title>G</title>
<polygon fill="white" stroke="none" points="-4,4 -4,-229 803.5,-229 803.5,4 -4,4"/>
<text text-anchor="middle" x="399.75" y="-207.7" font-family="Helvetica,sans-Serif" font-size="14.00">Architecture</text>
<!-- DATABASE:database -->
<g id="node1" class="node">
<title>DATABASE:database</title>
<path fill="#fff3cd" stroke="black" d="M799.5,-165.73C799.5,-167.53 782.8,-169 762.25,-169 741.7,-169 725,-167.53 725,-165.73 725,-165.73 725,-136.27 725,-136.27 725,-134.47 741.7,-133 762.25,-133 782.8,-133 799.5,-134.47 799.5,-136.27 799.5,-136.27 799.5,-165.73 799.5,-165.73"/>
<path fill="none" stroke="black" d="M799.5,-165.73C799.5,-163.92 782.8,-162.45 762.25,-162.45 741.7,-162.45 725,-163.92 725,-165.73"/>
<text text-anchor="middle" x="762.25" y="-146.7" font-family="Times,serif" font-size="14.00">database</text>
</g>
<!-- SERVICE:user -->
<g id="node2" class="node">
<title>SERVICE:user</title>
<path fill="#eef6ff" stroke="black" d="M43.62,-36C43.62,-36 13.62,-36 13.62,-36 7.62,-36 1.62,-30 1.62,-24 1.62,-24 1.62,-12 1.62,-12 1.62,-6 7.62,0 13.62,0 13.62,0 43.62,0 43.62,0 49.62,0 55.62,-6 55.62,-12 55.62,-12 55.62,-24 55.62,-24 55.62,-30 49.62,-36 43.62,-36"/>
<text text-anchor="middle" x="28.62" y="-13.7" font-family="Times,serif" font-size="14.00">user</text>
</g>
<!-- SERVICE:web page -->
<g id="node3" class="node">
<title>SERVICE:web page</title>
<path fill="#eef6ff" stroke="black" d="M296.62,-123C296.62,-123 243.12,-123 243.12,-123 237.12,-123 231.12,-117 231.12,-111 231.12,-111 231.12,-99 231.12,-99 231.12,-93 237.12,-87 243.12,-87 243.12,-87 296.62,-87 296.62,-87 302.62,-87 308.62,-93 308.62,-99 308.62,-99 308.62,-111 308.62,-111 308.62,-117 302.62,-123 296.62,-123"/>
<text text-anchor="middle" x="269.88" y="-100.7" font-family="Times,serif" font-size="14.00">web page</text>
</g>
<!-- SERVICE:user&#45;&gt;SERVICE:web page -->
<g id="edge1" class="edge">
<title>SERVICE:user&#45;&gt;SERVICE:web page</title>
<g id="a_edge1"><a xlink:title="edge#0">
<path fill="none" stroke="black" d="M55.68,-27.48C95.06,-41.8 170.4,-69.19 220.15,-87.28"/>
<polygon fill="black" stroke="black" points="218.65,-90.46 229.24,-90.59 221.04,-83.88 218.65,-90.46"/>
</a>
</g>
<text text-anchor="middle" x="134.12" y="-80.7" font-family="Times,serif" font-size="14.00">CALLS [rest] (sync)</text>
</g>
<!-- SERVICE:restaurants -->
<g id="node5" class="node">
<title>SERVICE:restaurants</title>
<path fill="#eef6ff" stroke="black" d="M559.25,-169C559.25,-169 494.5,-169 494.5,-169 488.5,-169 482.5,-163 482.5,-157 482.5,-157 482.5,-145 482.5,-145 482.5,-139 488.5,-133 494.5,-133 494.5,-133 559.25,-133 559.25,-133 565.25,-133 571.25,-139 571.25,-145 571.25,-145 571.25,-157 571.25,-157 571.25,-163 565.25,-169 559.25,-169"/>
<text text-anchor="middle" x="526.88" y="-146.7" font-family="Times,serif" font-size="14.00">restaurants</text>
</g>
<!-- SERVICE:web page&#45;&gt;SERVICE:restaurants -->
<g id="edge3" class="edge">
<title>SERVICE:web page&#45;&gt;SERVICE:restaurants</title>
<g id="a_edge3"><a xlink:title="edge#2">
<path fill="none" stroke="black" d="M308.87,-106.41C348.29,-108.54 411.47,-113.86 464.5,-127 466.94,-127.6 469.41,-128.28 471.88,-129.01"/>
<polygon fill="black" stroke="black" points="470.71,-132.31 481.3,-132.06 472.87,-125.65 470.71,-132.31"/>
</a>
</g>
<text text-anchor="middle" x="405.62" y="-131.7" font-family="Times,serif" font-size="14.00">CALLS [rest] (sync)</text>
</g>
<!-- SERVICE:payments -->
<g id="node6" class="node">
<title>SERVICE:payments</title>
<path fill="#eef6ff" stroke="black" d="M554.38,-103C554.38,-103 499.38,-103 499.38,-103 493.38,-103 487.38,-97 487.38,-91 487.38,-91 487.38,-79 487.38,-79 487.38,-73 493.38,-67 499.38,-67 499.38,-67 554.38,-67 554.38,-67 560.38,-67 566.38,-73 566.38,-79 566.38,-79 566.38,-91 566.38,-91 566.38,-97 560.38,-103 554.38,-103"/>
<text text-anchor="middle" x="526.88" y="-80.7" font-family="Times,serif" font-size="14.00">payments</text>
</g>
<!-- SERVICE:web page&#45;&gt;SERVICE:payments -->
<g id="edge4" class="edge">
<title>SERVICE:web page&#45;&gt;SERVICE:payments</title>
<g id="a_edge4"><a xlink:title="edge#3">
<path fill="none" stroke="black" d="M308.75,-93.62C320.78,-90.52 334.22,-87.58 346.75,-86 390.04,-80.54 439.69,-80.76 475.72,-82.08"/>
<polygon fill="black" stroke="black" points="475.27,-85.57 485.4,-82.48 475.55,-78.57 475.27,-85.57"/>
</a>
</g>
<text text-anchor="middle" x="405.62" y="-90.7" font-family="Times,serif" font-size="14.00">CALLS [rest] (sync)</text>
</g>
<!-- SERVICE:orders -->
<g id="node4" class="node">
<title>SERVICE:orders</title>
<path fill="#eef6ff" stroke="black" d="M45.25,-150C45.25,-150 12,-150 12,-150 6,-150 0,-144 0,-138 0,-138 0,-126 0,-126 0,-120 6,-114 12,-114 12,-114 45.25,-114 45.25,-114 51.25,-114 57.25,-120 57.25,-126 57.25,-126 57.25,-138 57.25,-138 57.25,-144 51.25,-150 45.25,-150"/>
<text text-anchor="middle" x="28.62" y="-127.7" font-family="Times,serif" font-size="14.00">orders</text>
</g>
<!-- SERVICE:orders&#45;&gt;DATABASE:database -->
<g id="edge5" class="edge">
<title>SERVICE:orders&#45;&gt;DATABASE:database</title>
<g id="a_edge5"><a xlink:title="edge#4">
<path fill="none" stroke="black" d="M51.12,-150.29C58.36,-155.54 66.76,-160.73 75.25,-164 131.98,-185.88 150.31,-177.21 211,-181 260.25,-184.07 502.99,-179.68 571.25,-178 631.61,-176.52 647.97,-185.65 707,-173 709.29,-172.51 711.61,-171.93 713.93,-171.28"/>
<polygon fill="black" stroke="black" points="714.85,-174.66 723.29,-168.27 712.7,-168 714.85,-174.66"/>
</a>
</g>
<text text-anchor="middle" x="405.62" y="-185.7" font-family="Times,serif" font-size="14.00">CALLS [rest] (sync)</text>
</g>
<!-- SERVICE:orders&#45;&gt;SERVICE:web page -->
<g id="edge2" class="edge">
<title>SERVICE:orders&#45;&gt;SERVICE:web page</title>
<g id="a_edge2"><a xlink:title="edge#1">
<path fill="none" stroke="black" d="M57.54,-128.85C97.25,-124.37 170.66,-116.08 219.64,-110.56"/>
<polygon fill="black" stroke="black" points="219.87,-114.05 229.42,-109.45 219.09,-107.1 219.87,-114.05"/>
</a>
</g>
<text text-anchor="middle" x="134.12" y="-130.7" font-family="Times,serif" font-size="14.00">CALLS [rest] (sync)</text>
</g>
<!-- SERVICE:orders&#45;&gt;SERVICE:payments -->
<g id="edge9" class="edge">
<title>SERVICE:orders&#45;&gt;SERVICE:payments</title>
<g id="a_edge9"><a xlink:title="edge#8">
<path fill="none" stroke="black" d="M57.46,-116.76C92.18,-98.76 153.93,-69.98 211,-60 303.81,-43.76 413.86,-60.58 476.22,-73.4"/>
<polygon fill="black" stroke="black" points="475.3,-76.78 485.81,-75.42 476.75,-69.93 475.3,-76.78"/>
</a>
</g>
<text text-anchor="middle" x="269.88" y="-64.7" font-family="Times,serif" font-size="14.00">CALLS [rest] (sync)</text>
</g>
<!-- SERVICE:restaurants&#45;&gt;DATABASE:database -->
<g id="edge6" class="edge">
<title>SERVICE:restaurants&#45;&gt;DATABASE:database</title>
<g id="a_edge6"><a xlink:title="edge#5">
<path fill="none" stroke="black" d="M571.5,-151C611.81,-151 671.59,-151 713.24,-151"/>
<polygon fill="black" stroke="black" points="713.23,-154.5 723.23,-151 713.23,-147.5 713.23,-154.5"/>
</a>
</g>
<text text-anchor="middle" x="648.12" y="-155.7" font-family="Times,serif" font-size="14.00">CALLS [rest] (sync)</text>
</g>
<!-- SERVICE:restaurants&#45;&gt;SERVICE:orders -->
<g id="edge8" class="edge">
<title>SERVICE:restaurants&#45;&gt;SERVICE:orders</title>
<g id="a_edge8"><a xlink:title="edge#7">
<path fill="none" stroke="black" d="M482.07,-154.22C401.18,-159.34 223.11,-166.66 75.25,-145 73.05,-144.68 70.81,-144.28 68.55,-143.82"/>
<polygon fill="black" stroke="black" points="69.37,-140.42 58.83,-141.51 67.75,-147.23 69.37,-140.42"/>
</a>
</g>
<text text-anchor="middle" x="269.88" y="-163.7" font-family="Times,serif" font-size="14.00">CALLS [rest] (sync)</text>
</g>
<!-- SERVICE:payments&#45;&gt;DATABASE:database -->
<g id="edge7" class="edge">
<title>SERVICE:payments&#45;&gt;DATABASE:database</title>
<g id="a_edge7"><a xlink:title="edge#6">
<path fill="none" stroke="black" d="M566.76,-92.85C603.35,-100.64 659.47,-113.61 707,-129 709.36,-129.76 711.76,-130.58 714.17,-131.43"/>
<polygon fill="black" stroke="black" points="712.73,-134.63 723.33,-134.83 715.17,-128.07 712.73,-134.63"/>
</a>
</g>
<text text-anchor="middle" x="648.12" y="-133.7" font-family="Times,serif" font-size="14.00">CALLS [rest] (sync)</text>
</g>
</g>
</svg>
