<?xml version="1.0" encoding="UTF-8" standalone="no"?>
<!DOCTYPE svg PUBLIC "-//W3C//DTD SVG 1.1//EN"
 "http://www.w3.org/Graphics/SVG/1.1/DTD/svg11.dtd">
<!-- Generated by graphviz version 9.0.0 (20230911.1827)
 -->
<!-- Title: G Pages: 1 -->
<svg width="1109pt" height="545pt"
 viewBox="0.00 0.00 1108.75 545.00" xmlns="http://www.w3.org/2000/svg" xmlns:xlink="http://www.w3.org/1999/xlink">
<g id="graph0" class="graph" transform="scale(1 1) rotate(0) translate(4 541)">
<title>G</title>
<polygon fill="white" stroke="none" points="-4,4 -4,-541 1104.75,-541 1104.75,4 -4,4"/>
<text text-anchor="middle" x="550.38" y="-519.7" font-family="Helvetica,sans-Serif" font-size="14.00">Architecture</text>
<!-- SERVICE:reviews -->
<g id="node1" class="node">
<title>SERVICE:reviews</title>
<path fill="#eef6ff" stroke="black" d="M1088.38,-83C1088.38,-83 1047.62,-83 1047.62,-83 1041.62,-83 1035.62,-77 1035.62,-71 1035.62,-71 1035.62,-59 1035.62,-59 1035.62,-53 1041.62,-47 1047.62,-47 1047.62,-47 1088.38,-47 1088.38,-47 1094.38,-47 1100.38,-53 1100.38,-59 1100.38,-59 1100.38,-71 1100.38,-71 1100.38,-77 1094.38,-83 1088.38,-83"/>
<text text-anchor="middle" x="1068" y="-60.7" font-family="Times,serif" font-size="14.00">reviews</text>
</g>
<!-- SERVICE:ingest&#45;worker -->
<g id="node2" class="node">
<title>SERVICE:ingest&#45;worker</title>
<path fill="#eef6ff" stroke="black" d="M96.62,-349C96.62,-349 14.62,-349 14.62,-349 8.62,-349 2.62,-343 2.62,-337 2.62,-337 2.62,-325 2.62,-325 2.62,-319 8.62,-313 14.62,-313 14.62,-313 96.62,-313 96.62,-313 102.62,-313 108.62,-319 108.62,-325 108.62,-325 108.62,-337 108.62,-337 108.62,-343 102.62,-349 96.62,-349"/>
<text text-anchor="middle" x="55.62" y="-326.7" font-family="Times,serif" font-size="14.00">ingest&#45;worker</text>
</g>
<!-- SERVICE:validator -->
<g id="node3" class="node">
<title>SERVICE:validator</title>
<path fill="#eef6ff" stroke="black" d="M331.62,-349C331.62,-349 283.38,-349 283.38,-349 277.38,-349 271.38,-343 271.38,-337 271.38,-337 271.38,-325 271.38,-325 271.38,-319 277.38,-313 283.38,-313 283.38,-313 331.62,-313 331.62,-313 337.62,-313 343.62,-319 343.62,-325 343.62,-325 343.62,-337 343.62,-337 343.62,-343 337.62,-349 331.62,-349"/>
<text text-anchor="middle" x="307.5" y="-326.7" font-family="Times,serif" font-size="14.00">validator</text>
</g>
<!-- SERVICE:ingest&#45;worker&#45;&gt;SERVICE:validator -->
<g id="edge3" class="edge">
<title>SERVICE:ingest&#45;worker&#45;&gt;SERVICE:validator</title>
<g id="a_edge3"><a xlink:title="edge#2">
<path fill="none" stroke="black" d="M109.01,-331C153.48,-331 216.73,-331 259.57,-331"/>
<polygon fill="black" stroke="black" points="259.57,-334.5 269.57,-331 259.57,-327.5 259.57,-334.5"/>
</a>
</g>
<text text-anchor="middle" x="188.12" y="-335.7" font-family="Times,serif" font-size="14.00">CALLS [rest] (sync)</text>
</g>
<!-- SERVICE:enricher -->
<g id="node4" class="node">
<title>SERVICE:enricher</title>
<path fill="#eef6ff" stroke="black" d="M573.38,-349C573.38,-349 528.88,-349 528.88,-349 522.88,-349 516.88,-343 516.88,-337 516.88,-337 516.88,-325 516.88,-325 516.88,-319 522.88,-313 528.88,-313 528.88,-313 573.38,-313 573.38,-313 579.38,-313 585.38,-319 585.38,-325 585.38,-325 585.38,-337 585.38,-337 585.38,-343 579.38,-349 573.38,-349"/>
<text text-anchor="middle" x="551.12" y="-326.7" font-family="Times,serif" font-size="14.00">enricher</text>
</g>
<!-- SERVICE:validator&#45;&gt;SERVICE:enricher -->
<g id="edge4" class="edge">
<title>SERVICE:validator&#45;&gt;SERVICE:enricher</title>
<g id="a_edge4"><a xlink:title="edge#3">
<path fill="none" stroke="black" d="M343.89,-331C386.67,-331 458.7,-331 505.31,-331"/>
<polygon fill="black" stroke="black" points="505.07,-334.5 515.07,-331 505.07,-327.5 505.07,-334.5"/>
</a>
</g>
<text text-anchor="middle" x="426.88" y="-335.7" font-family="Times,serif" font-size="14.00">CALLS [rest] (sync)</text>
</g>
<!-- SERVICE:writer -->
<g id="node13" class="node">
<title>SERVICE:writer</title>
<path fill="#eef6ff" stroke="black" d="M832,-349C832,-349 801.75,-349 801.75,-349 795.75,-349 789.75,-343 789.75,-337 789.75,-337 789.75,-325 789.75,-325 789.75,-319 795.75,-313 801.75,-313 801.75,-313 832,-313 832,-313 838,-313 844,-319 844,-325 844,-325 844,-337 844,-337 844,-343 838,-349 832,-349"/>
<text text-anchor="middle" x="816.88" y="-326.7" font-family="Times,serif" font-size="14.00">writer</text>
</g>
<!-- SERVICE:enricher&#45;&gt;SERVICE:writer -->
<g id="edge5" class="edge">
<title>SERVICE:enricher&#45;&gt;SERVICE:writer</title>
<g id="a_edge5"><a xlink:title="edge#4">
<path fill="none" stroke="black" d="M585.8,-331C635.14,-331 726.81,-331 778.29,-331"/>
<polygon fill="black" stroke="black" points="778.03,-334.5 788.03,-331 778.03,-327.5 778.03,-334.5"/>
</a>
</g>
<text text-anchor="middle" x="675.38" y="-335.7" font-family="Times,serif" font-size="14.00">CALLS [rest] (sync)</text>
</g>
<!-- SERVICE:support -->
<g id="node5" class="node">
<title>SERVICE:support</title>
<path fill="#eef6ff" stroke="black" d="M1088.75,-254C1088.75,-254 1047.25,-254 1047.25,-254 1041.25,-254 1035.25,-248 1035.25,-242 1035.25,-242 1035.25,-230 1035.25,-230 1035.25,-224 1041.25,-218 1047.25,-218 1047.25,-218 1088.75,-218 1088.75,-218 1094.75,-218 1100.75,-224 1100.75,-230 1100.75,-230 1100.75,-242 1100.75,-242 1100.75,-248 1094.75,-254 1088.75,-254"/>
<text text-anchor="middle" x="1068" y="-231.7" font-family="Times,serif" font-size="14.00">support</text>
</g>
<!-- SERVICE:settlement&#45;api -->
<g id="node6" class="node">
<title>SERVICE:settlement&#45;api</title>
<path fill="#eef6ff" stroke="black" d="M99.25,-511C99.25,-511 12,-511 12,-511 6,-511 0,-505 0,-499 0,-499 0,-487 0,-487 0,-481 6,-475 12,-475 12,-475 99.25,-475 99.25,-475 105.25,-475 111.25,-481 111.25,-487 111.25,-487 111.25,-499 111.25,-499 111.25,-505 105.25,-511 99.25,-511"/>
<text text-anchor="middle" x="55.62" y="-488.7" font-family="Times,serif" font-size="14.00">settlement&#45;api</text>
</g>
<!-- DATABASE:finance&#45;db -->
<g id="node7" class="node">
<title>DATABASE:finance&#45;db</title>
<path fill="#fff3cd" stroke="black" d="M350,-453.73C350,-455.53 330.95,-457 307.5,-457 284.05,-457 265,-455.53 265,-453.73 265,-453.73 265,-424.27 265,-424.27 265,-422.47 284.05,-421 307.5,-421 330.95,-421 350,-422.47 350,-424.27 350,-424.27 350,-453.73 350,-453.73"/>
<path fill="none" stroke="black" d="M350,-453.73C350,-451.92 330.95,-450.45 307.5,-450.45 284.05,-450.45 265,-451.92 265,-453.73"/>
<text text-anchor="middle" x="307.5" y="-434.7" font-family="Times,serif" font-size="14.00">finance&#45;db</text>
</g>
<!-- SERVICE:settlement&#45;api&#45;&gt;DATABASE:finance&#45;db -->
<g id="edge8" class="edge">
<title>SERVICE:settlement&#45;api&#45;&gt;DATABASE:finance&#45;db</title>
<g id="a_edge8"><a xlink:title="edge#7">
<path fill="none" stroke="black" d="M111.36,-486.57C149.73,-481.4 201.98,-472.99 247,-461 249.24,-460.4 251.52,-459.75 253.82,-459.07"/>
<polygon fill="black" stroke="black" points="254.67,-462.47 263.12,-456.08 252.53,-455.8 254.67,-462.47"/>
</a>
</g>
<text text-anchor="middle" x="188.12" y="-487.7" font-family="Times,serif" font-size="14.00">CALLS [rest] (sync)</text>
</g>
<!-- SERVICE:web&#45;ui_split -->
<g id="node8" class="node">
<title>SERVICE:web&#45;ui_split</title>
<path fill="#eef6ff" stroke="black" d="M586.5,-198C586.5,-198 515.75,-198 515.75,-198 509.75,-198 503.75,-192 503.75,-186 503.75,-186 503.75,-174 503.75,-174 503.75,-168 509.75,-162 515.75,-162 515.75,-162 586.5,-162 586.5,-162 592.5,-162 598.5,-168 598.5,-174 598.5,-174 598.5,-186 598.5,-186 598.5,-192 592.5,-198 586.5,-198"/>
<text text-anchor="middle" x="551.12" y="-175.7" font-family="Times,serif" font-size="14.00">web&#45;ui_split</text>
</g>
<!-- SERVICE:bff&#45;2 -->
<g id="node10" class="node">
<title>SERVICE:bff&#45;2</title>
<path fill="#eef6ff" stroke="black" d="M831.88,-198C831.88,-198 801.88,-198 801.88,-198 795.88,-198 789.88,-192 789.88,-186 789.88,-186 789.88,-174 789.88,-174 789.88,-168 795.88,-162 801.88,-162 801.88,-162 831.88,-162 831.88,-162 837.88,-162 843.88,-168 843.88,-174 843.88,-174 843.88,-186 843.88,-186 843.88,-192 837.88,-198 831.88,-198"/>
<text text-anchor="middle" x="816.88" y="-175.7" font-family="Times,serif" font-size="14.00">bff&#45;2</text>
</g>
<!-- SERVICE:web&#45;ui_split&#45;&gt;SERVICE:bff&#45;2 -->
<g id="edge19" class="edge">
<title>SERVICE:web&#45;ui_split&#45;&gt;SERVICE:bff&#45;2</title>
<g id="a_edge19"><a xlink:title="edge#18">
<path fill="none" stroke="black" d="M598.97,-180C650.15,-180 731.1,-180 778.29,-180"/>
<polygon fill="black" stroke="black" points="778.01,-183.5 788.01,-180 778.01,-176.5 778.01,-183.5"/>
</a>
</g>
<text text-anchor="middle" x="675.38" y="-184.7" font-family="Times,serif" font-size="14.00">CALLS [rest] (sync)</text>
</g>
<!-- SERVICE:web&#45;ui_split_split -->
<g id="node17" class="node">
<title>SERVICE:web&#45;ui_split_split</title>
<path fill="#eef6ff" stroke="black" d="M869.5,-295C869.5,-295 764.25,-295 764.25,-295 758.25,-295 752.25,-289 752.25,-283 752.25,-283 752.25,-271 752.25,-271 752.25,-265 758.25,-259 764.25,-259 764.25,-259 869.5,-259 869.5,-259 875.5,-259 881.5,-265 881.5,-271 881.5,-271 881.5,-283 881.5,-283 881.5,-289 875.5,-295 869.5,-295"/>
<text text-anchor="middle" x="816.88" y="-272.7" font-family="Times,serif" font-size="14.00">web&#45;ui_split_split</text>
</g>
<!-- SERVICE:web&#45;ui_split&#45;&gt;SERVICE:web&#45;ui_split_split -->
<g id="edge15" class="edge">
<title>SERVICE:web&#45;ui_split&#45;&gt;SERVICE:web&#45;ui_split_split</title>
<g id="a_edge15"><a xlink:title="edge#14">
<path fill="none" stroke="black" d="M598.97,-197.23C642.51,-213.24 707.59,-237.18 755.11,-254.65"/>
<polygon fill="black" stroke="black" points="753.86,-257.92 764.45,-258.09 756.28,-251.35 753.86,-257.92"/>
</a>
</g>
<text text-anchor="middle" x="675.38" y="-250.7" font-family="Times,serif" font-size="14.00">CALLS [rest] (sync)</text>
</g>
<!-- SERVICE:bff&#45;1 -->
<g id="node9" class="node">
<title>SERVICE:bff&#45;1</title>
<path fill="#eef6ff" stroke="black" d="M322.5,-172C322.5,-172 292.5,-172 292.5,-172 286.5,-172 280.5,-166 280.5,-160 280.5,-160 280.5,-148 280.5,-148 280.5,-142 286.5,-136 292.5,-136 292.5,-136 322.5,-136 322.5,-136 328.5,-136 334.5,-142 334.5,-148 334.5,-148 334.5,-160 334.5,-160 334.5,-166 328.5,-172 322.5,-172"/>
<text text-anchor="middle" x="307.5" y="-149.7" font-family="Times,serif" font-size="14.00">bff&#45;1</text>
</g>
<!-- SERVICE:bff&#45;1&#45;&gt;SERVICE:web&#45;ui_split -->
<g id="edge17" class="edge">
<title>SERVICE:bff&#45;1&#45;&gt;SERVICE:web&#45;ui_split</title>
<g id="a_edge17"><a xlink:title="edge#16">
<path fill="none" stroke="black" d="M334.82,-156.83C372.38,-160.87 442.33,-168.4 492.31,-173.78"/>
<polygon fill="black" stroke="black" points="491.78,-177.24 502.1,-174.83 492.53,-170.28 491.78,-177.24"/>
</a>
</g>
<text text-anchor="middle" x="426.88" y="-178.7" font-family="Times,serif" font-size="14.00">CALLS [rest] (sync)</text>
</g>
<!-- SERVICE:bff -->
<g id="node19" class="node">
<title>SERVICE:bff</title>
<path fill="#eef6ff" stroke="black" d="M566.12,-121C566.12,-121 536.12,-121 536.12,-121 530.12,-121 524.12,-115 524.12,-109 524.12,-109 524.12,-97 524.12,-97 524.12,-91 530.12,-85 536.12,-85 536.12,-85 566.12,-85 566.12,-85 572.12,-85 578.12,-91 578.12,-97 578.12,-97 578.12,-109 578.12,-109 578.12,-115 572.12,-121 566.12,-121"/>
<text text-anchor="middle" x="551.12" y="-98.7" font-family="Times,serif" font-size="14.00">bff</text>
</g>
<!-- SERVICE:bff&#45;1&#45;&gt;SERVICE:bff -->
<g id="edge18" class="edge">
<title>SERVICE:bff&#45;1&#45;&gt;SERVICE:bff</title>
<g id="a_edge18"><a xlink:title="edge#17">
<path fill="none" stroke="black" d="M334.79,-147.06C345.12,-144.42 357.09,-141.45 368,-139 417.8,-127.81 475.68,-116.69 512.59,-109.83"/>
<polygon fill="black" stroke="black" points="513.11,-113.29 522.31,-108.04 511.84,-106.41 513.11,-113.29"/>
</a>
</g>
<text text-anchor="middle" x="426.88" y="-143.7" font-family="Times,serif" font-size="14.00">CALLS [rest] (sync)</text>
</g>
<!-- SERVICE:bff&#45;2&#45;&gt;SERVICE:reviews -->
<g id="edge20" class="edge">
<title>SERVICE:bff&#45;2&#45;&gt;SERVICE:reviews</title>
<g id="a_edge20"><a xlink:title="edge#19">
<path fill="none" stroke="black" d="M844.08,-172.51C856.3,-168.16 870.53,-161.76 881.5,-153 892.2,-144.45 888.4,-136.02 899.5,-128 943.97,-95.88 966.58,-112.01 1017.25,-91 1019.85,-89.92 1022.5,-88.76 1025.14,-87.54"/>
<polygon fill="black" stroke="black" points="1026.44,-90.8 1033.92,-83.29 1023.39,-84.5 1026.44,-90.8"/>
</a>
</g>
<text text-anchor="middle" x="958.38" y="-132.7" font-family="Times,serif" font-size="14.00">CALLS [rest] (sync)</text>
</g>
<!-- SERVICE:bff&#45;2&#45;&gt;SERVICE:support -->
<g id="edge21" class="edge">
<title>SERVICE:bff&#45;2&#45;&gt;SERVICE:support</title>
<g id="a_edge21"><a xlink:title="edge#20">
<path fill="none" stroke="black" d="M844.09,-193C859.8,-200.27 880.38,-208.86 899.5,-214 940.8,-225.1 989.39,-230.7 1023.57,-233.45"/>
<polygon fill="black" stroke="black" points="1023.28,-236.94 1033.51,-234.2 1023.8,-229.96 1023.28,-236.94"/>
</a>
</g>
<text text-anchor="middle" x="958.38" y="-237.7" font-family="Times,serif" font-size="14.00">CALLS [rest] (sync)</text>
</g>
<!-- SERVICE:profile -->
<g id="node12" class="node">
<title>SERVICE:profile</title>
<path fill="#eef6ff" stroke="black" d="M1084.62,-172C1084.62,-172 1051.38,-172 1051.38,-172 1045.38,-172 1039.38,-166 1039.38,-160 1039.38,-160 1039.38,-148 1039.38,-148 1039.38,-142 1045.38,-136 1051.38,-136 1051.38,-136 1084.62,-136 1084.62,-136 1090.62,-136 1096.62,-142 1096.62,-148 1096.62,-148 1096.62,-160 1096.62,-160 1096.62,-166 1090.62,-172 1084.62,-172"/>
<text text-anchor="middle" x="1068" y="-149.7" font-family="Times,serif" font-size="14.00">profile</text>
</g>
<!-- SERVICE:bff&#45;2&#45;&gt;SERVICE:profile -->
<g id="edge22" class="edge">
<title>SERVICE:bff&#45;2&#45;&gt;SERVICE:profile</title>
<g id="a_edge22"><a xlink:title="edge#21">
<path fill="none" stroke="black" d="M844.26,-169.78C860.02,-164.21 880.6,-157.89 899.5,-155 942.96,-148.36 993.5,-149.21 1027.61,-151.03"/>
<polygon fill="black" stroke="black" points="1027.25,-154.51 1037.44,-151.61 1027.66,-147.52 1027.25,-154.51"/>
</a>
</g>
<text text-anchor="middle" x="958.38" y="-159.7" font-family="Times,serif" font-size="14.00">CALLS [rest] (sync)</text>
</g>
<!-- SERVICE:web&#45;ui -->
<g id="node11" class="node">
<title>SERVICE:web&#45;ui</title>
<path fill="#eef6ff" stroke="black" d="M73.75,-172C73.75,-172 37.5,-172 37.5,-172 31.5,-172 25.5,-166 25.5,-160 25.5,-160 25.5,-148 25.5,-148 25.5,-142 31.5,-136 37.5,-136 37.5,-136 73.75,-136 73.75,-136 79.75,-136 85.75,-142 85.75,-148 85.75,-148 85.75,-160 85.75,-160 85.75,-166 79.75,-172 73.75,-172"/>
<text text-anchor="middle" x="55.62" y="-149.7" font-family="Times,serif" font-size="14.00">web&#45;ui</text>
</g>
<!-- SERVICE:web&#45;ui&#45;&gt;SERVICE:bff&#45;1 -->
<g id="edge16" class="edge">
<title>SERVICE:web&#45;ui&#45;&gt;SERVICE:bff&#45;1</title>
<g id="a_edge16"><a xlink:title="edge#15">
<path fill="none" stroke="black" d="M85.78,-154C131.19,-154 218.78,-154 268.89,-154"/>
<polygon fill="black" stroke="black" points="268.67,-157.5 278.67,-154 268.67,-150.5 268.67,-157.5"/>
</a>
</g>
<text text-anchor="middle" x="188.12" y="-158.7" font-family="Times,serif" font-size="14.00">CALLS [rest] (sync)</text>
</g>
<!-- SERVICE:billing&#45;api -->
<g id="node14" class="node">
<title>SERVICE:billing&#45;api</title>
<path fill="#eef6ff" stroke="black" d="M84.25,-457C84.25,-457 27,-457 27,-457 21,-457 15,-451 15,-445 15,-445 15,-433 15,-433 15,-427 21,-421 27,-421 27,-421 84.25,-421 84.25,-421 90.25,-421 96.25,-427 96.25,-433 96.25,-433 96.25,-445 96.25,-445 96.25,-451 90.25,-457 84.25,-457"/>
<text text-anchor="middle" x="55.62" y="-434.7" font-family="Times,serif" font-size="14.00">billing&#45;api</text>
</g>
<!-- SERVICE:billing&#45;api&#45;&gt;DATABASE:finance&#45;db -->
<g id="edge6" class="edge">
<title>SERVICE:billing&#45;api&#45;&gt;DATABASE:finance&#45;db</title>
<g id="a_edge6"><a xlink:title="edge#5">
<path fill="none" stroke="black" d="M96.49,-439C138.92,-439 206.27,-439 253.22,-439"/>
<polygon fill="black" stroke="black" points="253.18,-442.5 263.18,-439 253.18,-435.5 253.18,-442.5"/>
</a>
</g>
<text text-anchor="middle" x="188.12" y="-443.7" font-family="Times,serif" font-size="14.00">CALLS [rest] (sync)</text>
</g>
<!-- SERVICE:refund&#45;api -->
<g id="node15" class="node">
<title>SERVICE:refund&#45;api</title>
<path fill="#eef6ff" stroke="black" d="M85,-403C85,-403 26.25,-403 26.25,-403 20.25,-403 14.25,-397 14.25,-391 14.25,-391 14.25,-379 14.25,-379 14.25,-373 20.25,-367 26.25,-367 26.25,-367 85,-367 85,-367 91,-367 97,-373 97,-379 97,-379 97,-391 97,-391 97,-397 91,-403 85,-403"/>
<text text-anchor="middle" x="55.62" y="-380.7" font-family="Times,serif" font-size="14.00">refund&#45;api</text>
</g>
<!-- SERVICE:refund&#45;api&#45;&gt;DATABASE:finance&#45;db -->
<g id="edge7" class="edge">
<title>SERVICE:refund&#45;api&#45;&gt;DATABASE:finance&#45;db</title>
<g id="a_edge7"><a xlink:title="edge#6">
<path fill="none" stroke="black" d="M97.21,-389.58C136.07,-394.49 196.15,-403.46 247,-417 249.24,-417.6 251.52,-418.25 253.82,-418.93"/>
<polygon fill="black" stroke="black" points="252.53,-422.2 263.12,-421.92 254.67,-415.53 252.53,-422.2"/>
</a>
</g>
<text text-anchor="middle" x="188.12" y="-421.7" font-family="Times,serif" font-size="14.00">CALLS [rest] (sync)</text>
</g>
<!-- SERVICE:bff_split -->
<g id="node16" class="node">
<title>SERVICE:bff_split</title>
<path fill="#eef6ff" stroke="black" d="M838.75,-90C838.75,-90 795,-90 795,-90 789,-90 783,-84 783,-78 783,-78 783,-66 783,-66 783,-60 789,-54 795,-54 795,-54 838.75,-54 838.75,-54 844.75,-54 850.75,-60 850.75,-66 850.75,-66 850.75,-78 850.75,-78 850.75,-84 844.75,-90 838.75,-90"/>
<text text-anchor="middle" x="816.88" y="-67.7" font-family="Times,serif" font-size="14.00">bff_split</text>
</g>
<!-- SERVICE:bff_split&#45;&gt;SERVICE:reviews -->
<g id="edge11" class="edge">
<title>SERVICE:bff_split&#45;&gt;SERVICE:reviews</title>
<g id="a_edge11"><a xlink:title="edge#10">
<path fill="none" stroke="black" d="M851.24,-59.49C861.2,-55.33 871.99,-50.36 881.5,-45 890.1,-40.15 890.11,-35.04 899.5,-32 949.29,-15.9 967.14,-16.89 1017.25,-32 1023.61,-33.92 1029.9,-36.94 1035.76,-40.4"/>
<polygon fill="black" stroke="black" points="1033.59,-43.16 1043.88,-45.68 1037.4,-37.29 1033.59,-43.16"/>
</a>
</g>
<text text-anchor="middle" x="958.38" y="-36.7" font-family="Times,serif" font-size="14.00">CALLS [rest] (sync)</text>
</g>
<!-- SERVICE:bff_split&#45;&gt;SERVICE:support -->
<g id="edge12" class="edge">
<title>SERVICE:bff_split&#45;&gt;SERVICE:support</title>
<g id="a_edge12"><a xlink:title="edge#11">
<path fill="none" stroke="black" d="M850.98,-79.55C862.1,-83.61 873.66,-89.76 881.5,-99 903.41,-124.8 874.64,-150.03 899.5,-173 938.43,-208.98 969.34,-169.32 1017.25,-192 1026.54,-196.4 1035.39,-203.06 1042.98,-209.89"/>
<polygon fill="black" stroke="black" points="1040.54,-212.4 1050.18,-216.8 1045.39,-207.35 1040.54,-212.4"/>
</a>
</g>
<text text-anchor="middle" x="958.38" y="-196.7" font-family="Times,serif" font-size="14.00">CALLS [rest] (sync)</text>
</g>
<!-- SERVICE:bff_split&#45;&gt;SERVICE:profile -->
<g id="edge13" class="edge">
<title>SERVICE:bff_split&#45;&gt;SERVICE:profile</title>
<g id="a_edge13"><a xlink:title="edge#12">
<path fill="none" stroke="black" d="M851.06,-62.9C892.78,-53.45 965.21,-43.72 1017.25,-73 1027.83,-78.95 1042.68,-104.82 1053.4,-125.75"/>
<polygon fill="black" stroke="black" points="1050.16,-127.08 1057.76,-134.45 1056.42,-123.95 1050.16,-127.08"/>
</a>
</g>
<text text-anchor="middle" x="958.38" y="-77.7" font-family="Times,serif" font-size="14.00">CALLS [rest] (sync)</text>
</g>
<!-- SERVICE:web&#45;ui_split_split&#45;&gt;SERVICE:support -->
<g id="edge1" class="edge">
<title>SERVICE:web&#45;ui_split_split&#45;&gt;SERVICE:support</title>
<g id="a_edge1"><a xlink:title="edge#0">
<path fill="none" stroke="black" d="M867.84,-295.48C909.71,-307.84 970.05,-318.18 1017.25,-296 1031.55,-289.28 1043.16,-276.2 1051.55,-263.97"/>
<polygon fill="black" stroke="black" points="1054.36,-266.07 1056.77,-255.76 1048.46,-262.32 1054.36,-266.07"/>
</a>
</g>
<text text-anchor="middle" x="958.38" y="-313.7" font-family="Times,serif" font-size="14.00">CALLS [rest] (sync)</text>
</g>
<!-- SERVICE:web&#45;ui_split_split&#45;&gt;SERVICE:profile -->
<g id="edge2" class="edge">
<title>SERVICE:web&#45;ui_split_split&#45;&gt;SERVICE:profile</title>
<g id="a_edge2"><a xlink:title="edge#1">
<path fill="none" stroke="black" d="M881.75,-273.24C935.94,-269.52 1006.56,-263.19 1017.25,-255 1034.68,-241.65 1025.74,-228.78 1035.25,-209 1039.53,-200.1 1044.7,-190.69 1049.62,-182.23"/>
<polygon fill="black" stroke="black" points="1052.55,-184.15 1054.64,-173.76 1046.53,-180.58 1052.55,-184.15"/>
</a>
</g>
<text text-anchor="middle" x="958.38" y="-276.7" font-family="Times,serif" font-size="14.00">CALLS [rest] (sync)</text>
</g>
<!-- SERVICE:auth -->
<g id="node18" class="node">
<title>SERVICE:auth</title>
<path fill="#eef6ff" stroke="black" d="M831.88,-36C831.88,-36 801.88,-36 801.88,-36 795.88,-36 789.88,-30 789.88,-24 789.88,-24 789.88,-12 789.88,-12 789.88,-6 795.88,0 801.88,0 801.88,0 831.88,0 831.88,0 837.88,0 843.88,-6 843.88,-12 843.88,-12 843.88,-24 843.88,-24 843.88,-30 837.88,-36 831.88,-36"/>
<text text-anchor="middle" x="816.88" y="-13.7" font-family="Times,serif" font-size="14.00">auth</text>
</g>
<!-- SERVICE:bff&#45;&gt;SERVICE:bff_split -->
<g id="edge14" class="edge">
<title>SERVICE:bff&#45;&gt;SERVICE:bff_split</title>
<g id="a_edge14"><a xlink:title="edge#13">
<path fill="none" stroke="black" d="M578.57,-95.9C590.14,-93.04 603.91,-89.96 616.5,-88 669.28,-79.78 730.61,-75.66 771.16,-73.68"/>
<polygon fill="black" stroke="black" points="771.2,-77.19 781.03,-73.23 770.87,-70.19 771.2,-77.19"/>
</a>
</g>
<text text-anchor="middle" x="675.38" y="-92.7" font-family="Times,serif" font-size="14.00">CALLS [rest] (sync)</text>
</g>
<!-- SERVICE:bff&#45;&gt;SERVICE:auth -->
<g id="edge9" class="edge">
<title>SERVICE:bff&#45;&gt;SERVICE:auth</title>
<g id="a_edge9"><a xlink:title="edge#8">
<path fill="none" stroke="black" d="M571.77,-84.6C583.8,-74.34 600.02,-62.2 616.5,-55 669.64,-31.77 736.95,-23.12 778.19,-19.9"/>
<polygon fill="black" stroke="black" points="778.36,-23.39 788.09,-19.2 777.87,-16.41 778.36,-23.39"/>
</a>
</g>
<text text-anchor="middle" x="675.38" y="-59.7" font-family="Times,serif" font-size="14.00">CALLS [rest] (sync)</text>
</g>
<!-- SERVICE:catalog -->
<g id="node20" class="node">
<title>SERVICE:catalog</title>
<path fill="#eef6ff" stroke="black" d="M836.5,-144C836.5,-144 797.25,-144 797.25,-144 791.25,-144 785.25,-138 785.25,-132 785.25,-132 785.25,-120 785.25,-120 785.25,-114 791.25,-108 797.25,-108 797.25,-108 836.5,-108 836.5,-108 842.5,-108 848.5,-114 848.5,-120 848.5,-120 848.5,-132 848.5,-132 848.5,-138 842.5,-144 836.5,-144"/>
<text text-anchor="middle" x="816.88" y="-121.7" font-family="Times,serif" font-size="14.00">catalog</text>
</g>
<!-- SERVICE:bff&#45;&gt;SERVICE:catalog -->
<g id="edge10" class="edge">
<title>SERVICE:bff&#45;&gt;SERVICE:catalog</title>
<g id="a_edge10"><a xlink:title="edge#9">
<path fill="none" stroke="black" d="M578.38,-105.29C624.02,-109.27 718.38,-117.5 773.43,-122.3"/>
<polygon fill="black" stroke="black" points="773.1,-125.78 783.37,-123.17 773.71,-118.81 773.1,-125.78"/>
</a>
</g>
<text text-anchor="middle" x="675.38" y="-123.7" font-family="Times,serif" font-size="14.00">CALLS [rest] (sync)</text>
</g>
</g>
</svg>
