<?xml version="1.0" encoding="UTF-8" standalone="no"?>
<!DOCTYPE svg PUBLIC "-//W3C//DTD SVG 1.1//EN"
 "http://www.w3.org/Graphics/SVG/1.1/DTD/svg11.dtd">
<!-- Generated by graphviz version 9.0.0 (20230911.1827)
 -->
<!-- Title: G Pages: 1 -->
<svg width="1462pt" height="180pt"
 viewBox="0.00 0.00 1461.75 180.33" xmlns="http://www.w3.org/2000/svg" xmlns:xlink="http://www.w3.org/1999/xlink">
<g id="graph0" class="graph" transform="scale(1 1) rotate(0) translate(4 176.33)">
<title>G</title>
<polygon fill="white" stroke="none" points="-4,4 -4,-176.33 1457.75,-176.33 1457.75,4 -4,4"/>
<text text-anchor="middle" x="726.88" y="-155.03" font-family="Helvetica,sans-Serif" font-size="14.00">Architecture</text>
<!-- SERVICE:user -->
<g id="node1" class="node">
<title>SERVICE:user</title>
<path fill="#eef6ff" stroke="black" d="M53.75,-69.33C53.75,-69.33 23.75,-69.33 23.75,-69.33 17.75,-69.33 11.75,-63.33 11.75,-57.33 11.75,-57.33 11.75,-45.33 11.75,-45.33 11.75,-39.33 17.75,-33.33 23.75,-33.33 23.75,-33.33 53.75,-33.33 53.75,-33.33 59.75,-33.33 65.75,-39.33 65.75,-45.33 65.75,-45.33 65.75,-57.33 65.75,-57.33 65.75,-63.33 59.75,-69.33 53.75,-69.33"/>
<text text-anchor="middle" x="38.75" y="-47.03" font-family="Times,serif" font-size="14.00">user</text>
</g>
<!-- SERVICE:orders -->
<g id="node2" class="node">
<title>SERVICE:orders</title>
<path fill="#eef6ff" stroke="black" d="M942,-49.33C942,-49.33 908.75,-49.33 908.75,-49.33 902.75,-49.33 896.75,-43.33 896.75,-37.33 896.75,-37.33 896.75,-25.33 896.75,-25.33 896.75,-19.33 902.75,-13.33 908.75,-13.33 908.75,-13.33 942,-13.33 942,-13.33 948,-13.33 954,-19.33 954,-25.33 954,-25.33 954,-37.33 954,-37.33 954,-43.33 948,-49.33 942,-49.33"/>
<text text-anchor="middle" x="925.38" y="-27.03" font-family="Times,serif" font-size="14.00">orders</text>
</g>
<!-- SERVICE:payments -->
<g id="node3" class="node">
<title>SERVICE:payments</title>
<path fill="#eef6ff" stroke="black" d="M1194.12,-99.33C1194.12,-99.33 1139.12,-99.33 1139.12,-99.33 1133.12,-99.33 1127.12,-93.33 1127.12,-87.33 1127.12,-87.33 1127.12,-75.33 1127.12,-75.33 1127.12,-69.33 1133.12,-63.33 1139.12,-63.33 1139.12,-63.33 1194.12,-63.33 1194.12,-63.33 1200.12,-63.33 1206.12,-69.33 1206.12,-75.33 1206.12,-75.33 1206.12,-87.33 1206.12,-87.33 1206.12,-93.33 1200.12,-99.33 1194.12,-99.33"/>
<text text-anchor="middle" x="1166.62" y="-77.03" font-family="Times,serif" font-size="14.00">payments</text>
</g>
<!-- SERVICE:orders&#45;&gt;SERVICE:payments -->
<g id="edge6" class="edge">
<title>SERVICE:orders&#45;&gt;SERVICE:payments</title>
<g id="a_edge6"><a xlink:title="edge#5">
<path fill="none" stroke="black" d="M954.43,-33.86C987.21,-37.18 1042.95,-43.97 1089.75,-55.33 1098.31,-57.4 1107.28,-60.04 1115.93,-62.84"/>
<polygon fill="black" stroke="black" points="1114.62,-66.09 1125.22,-65.95 1116.85,-59.46 1114.62,-66.09"/>
</a>
</g>
<text text-anchor="middle" x="1030.88" y="-60.03" font-family="Times,serif" font-size="14.00">CALLS [rest] (sync)</text>
</g>
<!-- DATABASE:database -->
<g id="node4" class="node">
<title>DATABASE:database</title>
<path fill="#fff3cd" stroke="black" d="M1453.75,-36.05C1453.75,-37.86 1437.05,-39.33 1416.5,-39.33 1395.95,-39.33 1379.25,-37.86 1379.25,-36.05 1379.25,-36.05 1379.25,-6.6 1379.25,-6.6 1379.25,-4.79 1395.95,-3.33 1416.5,-3.33 1437.05,-3.33 1453.75,-4.79 1453.75,-6.6 1453.75,-6.6 1453.75,-36.05 1453.75,-36.05"/>
<path fill="none" stroke="black" d="M1453.75,-36.05C1453.75,-34.25 1437.05,-32.78 1416.5,-32.78 1395.95,-32.78 1379.25,-34.25 1379.25,-36.05"/>
<text text-anchor="middle" x="1416.5" y="-17.03" font-family="Times,serif" font-size="14.00">database</text>
</g>
<!-- SERVICE:orders&#45;&gt;DATABASE:database -->
<g id="edge2" class="edge">
<title>SERVICE:orders&#45;&gt;DATABASE:database</title>
<g id="a_edge2"><a xlink:title="edge#1">
<path fill="none" stroke="black" d="M954.43,-30.75C1034.78,-29.11 1266.47,-24.37 1367.47,-22.31"/>
<polygon fill="black" stroke="black" points="1367.4,-25.81 1377.32,-22.11 1367.25,-18.81 1367.4,-25.81"/>
</a>
</g>
<text text-anchor="middle" x="1166.62" y="-33.03" font-family="Times,serif" font-size="14.00">CALLS [rest] (sync)</text>
</g>
<!-- SERVICE:payments&#45;&gt;DATABASE:database -->
<g id="edge4" class="edge">
<title>SERVICE:payments&#45;&gt;DATABASE:database</title>
<g id="a_edge4"><a xlink:title="edge#3">
<path fill="none" stroke="black" d="M1206.62,-72.29C1245.76,-63.17 1307.76,-48.58 1361.25,-35.33 1363.37,-34.8 1365.54,-34.26 1367.74,-33.71"/>
<polygon fill="black" stroke="black" points="1368.46,-37.13 1377.29,-31.28 1366.73,-30.35 1368.46,-37.13"/>
</a>
</g>
<text text-anchor="middle" x="1302.38" y="-67.03" font-family="Times,serif" font-size="14.00">CALLS [rest] (sync)</text>
</g>
<!-- SERVICE:web page_split -->
<g id="node5" class="node">
<title>SERVICE:web page_split</title>
<path fill="#eef6ff" stroke="black" d="M617.62,-146.33C617.62,-146.33 529.62,-146.33 529.62,-146.33 523.62,-146.33 517.62,-140.33 517.62,-134.33 517.62,-134.33 517.62,-122.33 517.62,-122.33 517.62,-116.33 523.62,-110.33 529.62,-110.33 529.62,-110.33 617.62,-110.33 617.62,-110.33 623.62,-110.33 629.62,-116.33 629.62,-122.33 629.62,-122.33 629.62,-134.33 629.62,-134.33 629.62,-140.33 623.62,-146.33 617.62,-146.33"/>
<text text-anchor="middle" x="573.62" y="-124.03" font-family="Times,serif" font-size="14.00">web page_split</text>
</g>
<!-- SERVICE:web page_split&#45;&gt;SERVICE:payments -->
<g id="edge1" class="edge">
<title>SERVICE:web page_split&#45;&gt;SERVICE:payments</title>
<g id="a_edge1"><a xlink:title="edge#0">
<path fill="none" stroke="black" d="M629.9,-129.13C724.63,-129.69 923.85,-127.26 1089.75,-101.33 1098.27,-99.99 1107.21,-98.1 1115.84,-96"/>
<polygon fill="black" stroke="black" points="1116.67,-99.4 1125.49,-93.53 1114.94,-92.62 1116.67,-99.4"/>
</a>
</g>
<text text-anchor="middle" x="819.88" y="-132.03" font-family="Times,serif" font-size="14.00">CALLS [rest] (sync)</text>
</g>
<!-- SERVICE:bff&#45;1 -->
<g id="node6" class="node">
<title>SERVICE:bff&#45;1</title>
<path fill="#eef6ff" stroke="black" d="M273.25,-123.33C273.25,-123.33 243.25,-123.33 243.25,-123.33 237.25,-123.33 231.25,-117.33 231.25,-111.33 231.25,-111.33 231.25,-99.33 231.25,-99.33 231.25,-93.33 237.25,-87.33 243.25,-87.33 243.25,-87.33 273.25,-87.33 273.25,-87.33 279.25,-87.33 285.25,-93.33 285.25,-99.33 285.25,-99.33 285.25,-111.33 285.25,-111.33 285.25,-117.33 279.25,-123.33 273.25,-123.33"/>
<text text-anchor="middle" x="258.25" y="-101.03" font-family="Times,serif" font-size="14.00">bff&#45;1</text>
</g>
<!-- SERVICE:bff&#45;1&#45;&gt;SERVICE:web page_split -->
<g id="edge11" class="edge">
<title>SERVICE:bff&#45;1&#45;&gt;SERVICE:web page_split</title>
<g id="a_edge11"><a xlink:title="edge#10">
<path fill="none" stroke="black" d="M285.7,-107.27C333.92,-110.81 437.48,-118.41 506.09,-123.44"/>
<polygon fill="black" stroke="black" points="505.47,-126.91 515.7,-124.15 505.98,-119.92 505.47,-126.91"/>
</a>
</g>
<text text-anchor="middle" x="362.12" y="-121.03" font-family="Times,serif" font-size="14.00">CALLS [rest] (sync)</text>
</g>
<!-- SERVICE:bff -->
<g id="node9" class="node">
<title>SERVICE:bff</title>
<path fill="#eef6ff" stroke="black" d="M481,-100.33C481,-100.33 451,-100.33 451,-100.33 445,-100.33 439,-94.33 439,-88.33 439,-88.33 439,-76.33 439,-76.33 439,-70.33 445,-64.33 451,-64.33 451,-64.33 481,-64.33 481,-64.33 487,-64.33 493,-70.33 493,-76.33 493,-76.33 493,-88.33 493,-88.33 493,-94.33 487,-100.33 481,-100.33"/>
<text text-anchor="middle" x="466" y="-78.03" font-family="Times,serif" font-size="14.00">bff</text>
</g>
<!-- SERVICE:bff&#45;1&#45;&gt;SERVICE:bff -->
<g id="edge10" class="edge">
<title>SERVICE:bff&#45;1&#45;&gt;SERVICE:bff</title>
<g id="a_edge10"><a xlink:title="edge#9">
<path fill="none" stroke="black" d="M285.35,-93.62C291.13,-91.48 297.31,-89.55 303.25,-88.33 345.05,-79.73 394.17,-79.22 427.22,-80.23"/>
<polygon fill="black" stroke="black" points="426.99,-83.72 437.12,-80.6 427.25,-76.73 426.99,-83.72"/>
</a>
</g>
<text text-anchor="middle" x="362.12" y="-93.03" font-family="Times,serif" font-size="14.00">CALLS [rest] (sync)</text>
</g>
<!-- SERVICE:web page -->
<g id="node7" class="node">
<title>SERVICE:web page</title>
<path fill="#eef6ff" stroke="black" d="M65.5,-123.33C65.5,-123.33 12,-123.33 12,-123.33 6,-123.33 0,-117.33 0,-111.33 0,-111.33 0,-99.33 0,-99.33 0,-93.33 6,-87.33 12,-87.33 12,-87.33 65.5,-87.33 65.5,-87.33 71.5,-87.33 77.5,-93.33 77.5,-99.33 77.5,-99.33 77.5,-111.33 77.5,-111.33 77.5,-117.33 71.5,-123.33 65.5,-123.33"/>
<text text-anchor="middle" x="38.75" y="-101.03" font-family="Times,serif" font-size="14.00">web page</text>
</g>
<!-- SERVICE:web page&#45;&gt;SERVICE:bff&#45;1 -->
<g id="edge9" class="edge">
<title>SERVICE:web page&#45;&gt;SERVICE:bff&#45;1</title>
<g id="a_edge9"><a xlink:title="edge#8">
<path fill="none" stroke="black" d="M77.88,-105.33C117.72,-105.33 179.82,-105.33 219.51,-105.33"/>
<polygon fill="black" stroke="black" points="219.29,-108.83 229.29,-105.33 219.29,-101.83 219.29,-108.83"/>
</a>
</g>
<text text-anchor="middle" x="154.38" y="-110.03" font-family="Times,serif" font-size="14.00">CALLS [rest] (sync)</text>
</g>
<!-- SERVICE:restaurants -->
<g id="node8" class="node">
<title>SERVICE:restaurants</title>
<path fill="#eef6ff" stroke="black" d="M731,-49.33C731,-49.33 666.25,-49.33 666.25,-49.33 660.25,-49.33 654.25,-43.33 654.25,-37.33 654.25,-37.33 654.25,-25.33 654.25,-25.33 654.25,-19.33 660.25,-13.33 666.25,-13.33 666.25,-13.33 731,-13.33 731,-13.33 737,-13.33 743,-19.33 743,-25.33 743,-25.33 743,-37.33 743,-37.33 743,-43.33 737,-49.33 731,-49.33"/>
<text text-anchor="middle" x="698.62" y="-27.03" font-family="Times,serif" font-size="14.00">restaurants</text>
</g>
<!-- SERVICE:restaurants&#45;&gt;SERVICE:orders -->
<g id="edge5" class="edge">
<title>SERVICE:restaurants&#45;&gt;SERVICE:orders</title>
<g id="a_edge5"><a xlink:title="edge#4">
<path fill="none" stroke="black" d="M743.49,-31.33C784.68,-31.33 845.72,-31.33 885.28,-31.33"/>
<polygon fill="black" stroke="black" points="885.06,-34.83 895.06,-31.33 885.06,-27.83 885.06,-34.83"/>
</a>
</g>
<text text-anchor="middle" x="819.88" y="-36.03" font-family="Times,serif" font-size="14.00">CALLS [rest] (sync)</text>
</g>
<!-- SERVICE:restaurants&#45;&gt;DATABASE:database -->
<g id="edge3" class="edge">
<title>SERVICE:restaurants&#45;&gt;DATABASE:database</title>
<g id="a_edge3"><a xlink:title="edge#2">
<path fill="none" stroke="black" d="M743.29,-23.6C783.12,-16.98 843.68,-7.94 896.75,-4.33 1069.86,7.48 1276.05,-8.09 1367.61,-16.54"/>
<polygon fill="black" stroke="black" points="1367.19,-20.01 1377.47,-17.46 1367.84,-13.04 1367.19,-20.01"/>
</a>
</g>
<text text-anchor="middle" x="1030.88" y="-6.03" font-family="Times,serif" font-size="14.00">CALLS [rest] (sync)</text>
</g>
<!-- SERVICE:bff&#45;&gt;SERVICE:payments -->
<g id="edge8" class="edge">
<title>SERVICE:bff&#45;&gt;SERVICE:payments</title>
<g id="a_edge8"><a xlink:title="edge#7">
<path fill="none" stroke="black" d="M493.11,-82.29C596.37,-82.14 977.27,-81.59 1115.28,-81.4"/>
<polygon fill="black" stroke="black" points="1115.2,-84.9 1125.2,-81.38 1115.19,-77.9 1115.2,-84.9"/>
</a>
</g>
<text text-anchor="middle" x="819.88" y="-86.03" font-family="Times,serif" font-size="14.00">CALLS [rest] (sync)</text>
</g>
<!-- SERVICE:bff&#45;&gt;SERVICE:restaurants -->
<g id="edge7" class="edge">
<title>SERVICE:bff&#45;&gt;SERVICE:restaurants</title>
<g id="a_edge7"><a xlink:title="edge#6">
<path fill="none" stroke="black" d="M493.09,-63.86C498.77,-60.55 504.91,-57.47 511,-55.33 553.58,-40.31 604.57,-34.51 642.49,-32.35"/>
<polygon fill="black" stroke="black" points="642.49,-35.86 652.3,-31.87 642.14,-28.87 642.49,-35.86"/>
</a>
</g>
<text text-anchor="middle" x="573.62" y="-60.03" font-family="Times,serif" font-size="14.00">CALLS [rest] (async)</text>
</g>
</g>
</svg>
