<?xml version="1.0" encoding="UTF-8" standalone="no"?>
<!DOCTYPE svg PUBLIC "-//W3C//DTD SVG 1.1//EN"
 "http://www.w3.org/Graphics/SVG/1.1/DTD/svg11.dtd">
<!-- Generated by graphviz version 9.0.0 (20230911.1827)
 -->
<!-- Title: G Pages: 1 -->
<svg width="1226pt" height="454pt"
 viewBox="0.00 0.00 1225.75 454.00" xmlns="http://www.w3.org/2000/svg" xmlns:xlink="http://www.w3.org/1999/xlink">
<g id="graph0" class="graph" transform="scale(1 1) rotate(0) translate(4 450)">
<title>G</title>
<polygon fill="white" stroke="none" points="-4,4 -4,-450 1221.75,-450 1221.75,4 -4,4"/>
<text text-anchor="middle" x="608.88" y="-428.7" font-family="Helvetica,sans-Serif" font-size="14.00">Architecture</text>
<!-- DATABASE:users&#45;db -->
<g id="node1" class="node">
<title>DATABASE:users&#45;db</title>
<path fill="#fff3cd" stroke="black" d="M967.75,-376.73C967.75,-378.53 951.56,-380 931.62,-380 911.69,-380 895.5,-378.53 895.5,-376.73 895.5,-376.73 895.5,-347.27 895.5,-347.27 895.5,-345.47 911.69,-344 931.62,-344 951.56,-344 967.75,-345.47 967.75,-347.27 967.75,-347.27 967.75,-376.73 967.75,-376.73"/>
<path fill="none" stroke="black" d="M967.75,-376.73C967.75,-374.92 951.56,-373.45 931.62,-373.45 911.69,-373.45 895.5,-374.92 895.5,-376.73"/>
<text text-anchor="middle" x="931.62" y="-357.7" font-family="Times,serif" font-size="14.00">users&#45;db</text>
</g>
<!-- DATABASE:orders&#45;db_order&#45;service -->
<g id="node2" class="node">
<title>DATABASE:orders&#45;db_order&#45;service</title>
<path fill="#fff3cd" stroke="black" d="M675.75,-277.73C675.75,-279.53 637.37,-281 590.12,-281 542.88,-281 504.5,-279.53 504.5,-277.73 504.5,-277.73 504.5,-248.27 504.5,-248.27 504.5,-246.47 542.88,-245 590.12,-245 637.37,-245 675.75,-246.47 675.75,-248.27 675.75,-248.27 675.75,-277.73 675.75,-277.73"/>
<path fill="none" stroke="black" d="M675.75,-277.73C675.75,-275.92 637.37,-274.45 590.12,-274.45 542.88,-274.45 504.5,-275.92 504.5,-277.73"/>
<text text-anchor="middle" x="590.12" y="-258.7" font-family="Times,serif" font-size="14.00">orders&#45;db_order&#45;service</text>
</g>
<!-- DATABASE:orders&#45;db_inventory&#45;service -->
<g id="node3" class="node">
<title>DATABASE:orders&#45;db_inventory&#45;service</title>
<path fill="#fff3cd" stroke="black" d="M1030,-260.73C1030,-262.53 985.91,-264 931.62,-264 877.34,-264 833.25,-262.53 833.25,-260.73 833.25,-260.73 833.25,-231.27 833.25,-231.27 833.25,-229.47 877.34,-228 931.62,-228 985.91,-228 1030,-229.47 1030,-231.27 1030,-231.27 1030,-260.73 1030,-260.73"/>
<path fill="none" stroke="black" d="M1030,-260.73C1030,-258.92 985.91,-257.45 931.62,-257.45 877.34,-257.45 833.25,-258.92 833.25,-260.73"/>
<text text-anchor="middle" x="931.62" y="-241.7" font-family="Times,serif" font-size="14.00">orders&#45;db_inventory&#45;service</text>
</g>
<!-- SERVICE:order&#45;service -->
<g id="node4" class="node">
<title>SERVICE:order&#45;service</title>
<path fill="#eef6ff" stroke="black" d="M334.25,-227C334.25,-227 257.5,-227 257.5,-227 251.5,-227 245.5,-221 245.5,-215 245.5,-215 245.5,-203 245.5,-203 245.5,-197 251.5,-191 257.5,-191 257.5,-191 334.25,-191 334.25,-191 340.25,-191 346.25,-197 346.25,-203 346.25,-203 346.25,-215 346.25,-215 346.25,-221 340.25,-227 334.25,-227"/>
<text text-anchor="middle" x="295.88" y="-204.7" font-family="Times,serif" font-size="14.00">order&#45;service</text>
</g>
<!-- SERVICE:order&#45;service&#45;&gt;DATABASE:users&#45;db -->
<g id="edge7" class="edge">
<title>SERVICE:order&#45;service&#45;&gt;DATABASE:users&#45;db</title>
<g id="a_edge7"><a xlink:title="edge#6">
<path fill="none" stroke="black" d="M301.08,-227.37C308.53,-255.27 326.92,-307.67 364.25,-332 528.85,-439.26 780.91,-397.55 884.12,-373.93"/>
<polygon fill="black" stroke="black" points="884.68,-377.39 893.61,-371.7 883.08,-370.57 884.68,-377.39"/>
</a>
</g>
<text text-anchor="middle" x="590.12" y="-406.7" font-family="Times,serif" font-size="14.00">READS</text>
</g>
<!-- SERVICE:order&#45;service&#45;&gt;DATABASE:orders&#45;db_order&#45;service -->
<g id="edge8" class="edge">
<title>SERVICE:order&#45;service&#45;&gt;DATABASE:orders&#45;db_order&#45;service</title>
<g id="a_edge8"><a xlink:title="edge#7">
<path fill="none" stroke="black" d="M346.64,-226.32C352.53,-228.05 358.5,-229.66 364.25,-231 405.94,-240.69 452.7,-247.92 492.74,-253.03"/>
<polygon fill="black" stroke="black" points="492.26,-256.5 502.62,-254.26 493.13,-249.55 492.26,-256.5"/>
</a>
</g>
<text text-anchor="middle" x="425.38" y="-257.7" font-family="Times,serif" font-size="14.00">WRITES</text>
</g>
<!-- SERVICE:user&#45;service -->
<g id="node6" class="node">
<title>SERVICE:user&#45;service</title>
<path fill="#eef6ff" stroke="black" d="M624.75,-335C624.75,-335 555.5,-335 555.5,-335 549.5,-335 543.5,-329 543.5,-323 543.5,-323 543.5,-311 543.5,-311 543.5,-305 549.5,-299 555.5,-299 555.5,-299 624.75,-299 624.75,-299 630.75,-299 636.75,-305 636.75,-311 636.75,-311 636.75,-323 636.75,-323 636.75,-329 630.75,-335 624.75,-335"/>
<text text-anchor="middle" x="590.12" y="-312.7" font-family="Times,serif" font-size="14.00">user&#45;service</text>
</g>
<!-- SERVICE:order&#45;service&#45;&gt;SERVICE:user&#45;service -->
<g id="edge3" class="edge">
<title>SERVICE:order&#45;service&#45;&gt;SERVICE:user&#45;service</title>
<g id="a_edge3"><a xlink:title="edge#2">
<path fill="none" stroke="black" d="M310.51,-227.44C322.82,-242.67 342.32,-263.59 364.25,-275 416.81,-302.36 484.49,-312.09 531.81,-315.45"/>
<polygon fill="black" stroke="black" points="531.37,-318.93 541.57,-316.07 531.81,-311.95 531.37,-318.93"/>
</a>
</g>
<text text-anchor="middle" x="425.38" y="-314.7" font-family="Times,serif" font-size="14.00">calls (1 ep), 260rpm</text>
</g>
<!-- SERVICE:inventory&#45;service -->
<g id="node9" class="node">
<title>SERVICE:inventory&#45;service</title>
<path fill="#eef6ff" stroke="black" d="M641.25,-227C641.25,-227 539,-227 539,-227 533,-227 527,-221 527,-215 527,-215 527,-203 527,-203 527,-197 533,-191 539,-191 539,-191 641.25,-191 641.25,-191 647.25,-191 653.25,-197 653.25,-203 653.25,-203 653.25,-215 653.25,-215 653.25,-221 647.25,-227 641.25,-227"/>
<text text-anchor="middle" x="590.12" y="-204.7" font-family="Times,serif" font-size="14.00">inventory&#45;service</text>
</g>
<!-- SERVICE:order&#45;service&#45;&gt;SERVICE:inventory&#45;service -->
<g id="edge2" class="edge">
<title>SERVICE:order&#45;service&#45;&gt;SERVICE:inventory&#45;service</title>
<g id="a_edge2"><a xlink:title="edge#1">
<path fill="none" stroke="black" d="M346.45,-209C392.73,-209 462.38,-209 515.21,-209"/>
<polygon fill="black" stroke="black" points="515.04,-212.5 525.04,-209 515.04,-205.5 515.04,-212.5"/>
</a>
</g>
<text text-anchor="middle" x="425.38" y="-213.7" font-family="Times,serif" font-size="14.00">calls (1 ep), 95rpm</text>
</g>
<!-- SERVICE:notification&#45;service -->
<g id="node10" class="node">
<title>SERVICE:notification&#45;service</title>
<path fill="#eef6ff" stroke="black" d="M989.5,-127C989.5,-127 873.75,-127 873.75,-127 867.75,-127 861.75,-121 861.75,-115 861.75,-115 861.75,-103 861.75,-103 861.75,-97 867.75,-91 873.75,-91 873.75,-91 989.5,-91 989.5,-91 995.5,-91 1001.5,-97 1001.5,-103 1001.5,-103 1001.5,-115 1001.5,-115 1001.5,-121 995.5,-127 989.5,-127"/>
<text text-anchor="middle" x="931.62" y="-104.7" font-family="Times,serif" font-size="14.00">notification&#45;service</text>
</g>
<!-- SERVICE:order&#45;service&#45;&gt;SERVICE:notification&#45;service -->
<g id="edge5" class="edge">
<title>SERVICE:order&#45;service&#45;&gt;SERVICE:notification&#45;service</title>
<g id="a_edge5"><a xlink:title="edge#4">
<path fill="none" stroke="black" d="M317.39,-190.55C330.23,-179.59 347.48,-165.95 364.25,-156 422.56,-121.41 439.31,-114.62 504.5,-96 637.88,-57.91 678.65,-42.91 815.25,-67 837.12,-70.86 860.31,-78.53 880.11,-86.28"/>
<polygon fill="black" stroke="black" points="878.75,-89.5 889.33,-90 881.36,-83.01 878.75,-89.5"/>
</a>
</g>
<text text-anchor="middle" x="590.12" y="-100.7" font-family="Times,serif" font-size="14.00">calls (1 ep), 220rpm</text>
</g>
<!-- SERVICE:search&#45;service -->
<g id="node11" class="node">
<title>SERVICE:search&#45;service</title>
<path fill="#eef6ff" stroke="black" d="M973.75,-36C973.75,-36 889.5,-36 889.5,-36 883.5,-36 877.5,-30 877.5,-24 877.5,-24 877.5,-12 877.5,-12 877.5,-6 883.5,0 889.5,0 889.5,0 973.75,0 973.75,0 979.75,0 985.75,-6 985.75,-12 985.75,-12 985.75,-24 985.75,-24 985.75,-30 979.75,-36 973.75,-36"/>
<text text-anchor="middle" x="931.62" y="-13.7" font-family="Times,serif" font-size="14.00">search&#45;service</text>
</g>
<!-- SERVICE:order&#45;service&#45;&gt;SERVICE:search&#45;service -->
<g id="edge6" class="edge">
<title>SERVICE:order&#45;service&#45;&gt;SERVICE:search&#45;service</title>
<g id="a_edge6"><a xlink:title="edge#5">
<path fill="none" stroke="black" d="M303.96,-190.54C314.06,-166.4 334.69,-124.12 364.25,-98 415.46,-52.75 437.98,-50.65 504.5,-35 629.78,-5.53 781.39,-8.24 865.82,-13.02"/>
<polygon fill="black" stroke="black" points="865.57,-16.51 875.76,-13.62 865.99,-9.52 865.57,-16.51"/>
</a>
</g>
<text text-anchor="middle" x="590.12" y="-39.7" font-family="Times,serif" font-size="14.00">calls (1 ep), 180rpm</text>
</g>
<!-- SERVICE:order&#45;service_split -->
<g id="node12" class="node">
<title>SERVICE:order&#45;service_split</title>
<path fill="#eef6ff" stroke="black" d="M645.75,-159C645.75,-159 534.5,-159 534.5,-159 528.5,-159 522.5,-153 522.5,-147 522.5,-147 522.5,-135 522.5,-135 522.5,-129 528.5,-123 534.5,-123 534.5,-123 645.75,-123 645.75,-123 651.75,-123 657.75,-129 657.75,-135 657.75,-135 657.75,-147 657.75,-147 657.75,-153 651.75,-159 645.75,-159"/>
<text text-anchor="middle" x="590.12" y="-136.7" font-family="Times,serif" font-size="14.00">order&#45;service_split</text>
</g>
<!-- SERVICE:order&#45;service&#45;&gt;SERVICE:order&#45;service_split -->
<g id="edge4" class="edge">
<title>SERVICE:order&#45;service&#45;&gt;SERVICE:order&#45;service_split</title>
<g id="a_edge4"><a xlink:title="edge#3">
<path fill="none" stroke="black" d="M346.72,-192.02C352.6,-190.23 358.54,-188.51 364.25,-187 412.62,-174.2 467.65,-162.89 511.16,-154.69"/>
<polygon fill="black" stroke="black" points="511.57,-158.17 520.76,-152.89 510.28,-151.29 511.57,-158.17"/>
</a>
</g>
<text text-anchor="middle" x="425.38" y="-191.7" font-family="Times,serif" font-size="14.00">calls (1 ep), 30rpm</text>
</g>
<!-- SERVICE:billing&#45;service -->
<g id="node5" class="node">
<title>SERVICE:billing&#45;service</title>
<path fill="#eef6ff" stroke="black" d="M972.62,-206C972.62,-206 890.62,-206 890.62,-206 884.62,-206 878.62,-200 878.62,-194 878.62,-194 878.62,-182 878.62,-182 878.62,-176 884.62,-170 890.62,-170 890.62,-170 972.62,-170 972.62,-170 978.62,-170 984.62,-176 984.62,-182 984.62,-182 984.62,-194 984.62,-194 984.62,-200 978.62,-206 972.62,-206"/>
<text text-anchor="middle" x="931.62" y="-183.7" font-family="Times,serif" font-size="14.00">billing&#45;service</text>
</g>
<!-- DATABASE:payments&#45;db -->
<g id="node7" class="node">
<title>DATABASE:payments&#45;db</title>
<path fill="#fff3cd" stroke="black" d="M1217.75,-201.73C1217.75,-203.53 1195,-205 1167,-205 1139,-205 1116.25,-203.53 1116.25,-201.73 1116.25,-201.73 1116.25,-172.27 1116.25,-172.27 1116.25,-170.47 1139,-169 1167,-169 1195,-169 1217.75,-170.47 1217.75,-172.27 1217.75,-172.27 1217.75,-201.73 1217.75,-201.73"/>
<path fill="none" stroke="black" d="M1217.75,-201.73C1217.75,-199.92 1195,-198.45 1167,-198.45 1139,-198.45 1116.25,-199.92 1116.25,-201.73"/>
<text text-anchor="middle" x="1167" y="-182.7" font-family="Times,serif" font-size="14.00">payments&#45;db</text>
</g>
<!-- SERVICE:billing&#45;service&#45;&gt;DATABASE:payments&#45;db -->
<g id="edge12" class="edge">
<title>SERVICE:billing&#45;service&#45;&gt;DATABASE:payments&#45;db</title>
<g id="a_edge12"><a xlink:title="edge#11">
<path fill="none" stroke="black" d="M985,-187.78C1020.44,-187.62 1067.39,-187.42 1104.59,-187.26"/>
<polygon fill="black" stroke="black" points="1104.3,-190.76 1114.29,-187.22 1104.27,-183.76 1104.3,-190.76"/>
</a>
</g>
<text text-anchor="middle" x="1073.12" y="-192.7" font-family="Times,serif" font-size="14.00">READS</text>
</g>
<!-- SERVICE:billing&#45;service&#45;&gt;DATABASE:payments&#45;db -->
<g id="edge13" class="edge">
<title>SERVICE:billing&#45;service&#45;&gt;DATABASE:payments&#45;db</title>
<g id="a_edge13"><a xlink:title="edge#12">
<path fill="none" stroke="black" d="M984.91,-173.48C1017.54,-166.3 1060.39,-160.27 1098.25,-166 1100.87,-166.4 1103.53,-166.88 1106.2,-167.42"/>
<polygon fill="black" stroke="black" points="1105.18,-170.78 1115.72,-169.63 1106.77,-163.96 1105.18,-170.78"/>
</a>
</g>
<text text-anchor="middle" x="1073.12" y="-170.7" font-family="Times,serif" font-size="14.00">WRITES</text>
</g>
<!-- SERVICE:user&#45;service&#45;&gt;DATABASE:users&#45;db -->
<g id="edge14" class="edge">
<title>SERVICE:user&#45;service&#45;&gt;DATABASE:users&#45;db</title>
<g id="a_edge14"><a xlink:title="edge#13">
<path fill="none" stroke="black" d="M637.22,-320.18C682.64,-323.64 753.95,-329.9 815.25,-339 838.01,-342.38 863.07,-347.23 884.01,-351.62"/>
<polygon fill="black" stroke="black" points="883.19,-355.02 893.7,-353.68 884.65,-348.17 883.19,-355.02"/>
</a>
</g>
<text text-anchor="middle" x="754.5" y="-343.7" font-family="Times,serif" font-size="14.00">READS</text>
</g>
<!-- SERVICE:api&#45;gateway -->
<g id="node8" class="node">
<title>SERVICE:api&#45;gateway</title>
<path fill="#eef6ff" stroke="black" d="M83.5,-227C83.5,-227 12,-227 12,-227 6,-227 0,-221 0,-215 0,-215 0,-203 0,-203 0,-197 6,-191 12,-191 12,-191 83.5,-191 83.5,-191 89.5,-191 95.5,-197 95.5,-203 95.5,-203 95.5,-215 95.5,-215 95.5,-221 89.5,-227 83.5,-227"/>
<text text-anchor="middle" x="47.75" y="-204.7" font-family="Times,serif" font-size="14.00">api&#45;gateway</text>
</g>
<!-- SERVICE:api&#45;gateway&#45;&gt;SERVICE:order&#45;service -->
<g id="edge1" class="edge">
<title>SERVICE:api&#45;gateway&#45;&gt;SERVICE:order&#45;service</title>
<g id="a_edge1"><a xlink:title="edge#0">
<path fill="none" stroke="black" d="M95.91,-209C135.17,-209 191.32,-209 233.97,-209"/>
<polygon fill="black" stroke="black" points="233.82,-212.5 243.82,-209 233.82,-205.5 233.82,-212.5"/>
</a>
</g>
<text text-anchor="middle" x="170.5" y="-213.7" font-family="Times,serif" font-size="14.00">calls (1 ep), 30rpm</text>
</g>
<!-- SERVICE:inventory&#45;service&#45;&gt;DATABASE:orders&#45;db_inventory&#45;service -->
<g id="edge11" class="edge">
<title>SERVICE:inventory&#45;service&#45;&gt;DATABASE:orders&#45;db_inventory&#45;service</title>
<g id="a_edge11"><a xlink:title="edge#10">
<path fill="none" stroke="black" d="M653.72,-219.43C666.92,-221.44 680.77,-223.41 693.75,-225 735.33,-230.08 781.17,-234.43 821.35,-237.83"/>
<polygon fill="black" stroke="black" points="821.04,-241.32 831.29,-238.67 821.62,-234.34 821.04,-241.32"/>
</a>
</g>
<text text-anchor="middle" x="754.5" y="-241.7" font-family="Times,serif" font-size="14.00">WRITES</text>
</g>
<!-- SERVICE:inventory&#45;service&#45;&gt;SERVICE:billing&#45;service -->
<g id="edge9" class="edge">
<title>SERVICE:inventory&#45;service&#45;&gt;SERVICE:billing&#45;service</title>
<g id="a_edge9"><a xlink:title="edge#8">
<path fill="none" stroke="black" d="M653.39,-205.15C714,-201.4 805.66,-195.73 866.79,-191.95"/>
<polygon fill="black" stroke="black" points="866.94,-195.45 876.7,-191.34 866.5,-188.46 866.94,-195.45"/>
</a>
</g>
<text text-anchor="middle" x="754.5" y="-207.7" font-family="Times,serif" font-size="14.00">calls (1 ep), 32rpm</text>
</g>
<!-- DATABASE:orders&#45;db -->
<g id="node13" class="node">
<title>DATABASE:orders&#45;db</title>
<path fill="#fff3cd" stroke="black" d="M971.5,-314.73C971.5,-316.53 953.63,-318 931.62,-318 909.62,-318 891.75,-316.53 891.75,-314.73 891.75,-314.73 891.75,-285.27 891.75,-285.27 891.75,-283.47 909.62,-282 931.62,-282 953.63,-282 971.5,-283.47 971.5,-285.27 971.5,-285.27 971.5,-314.73 971.5,-314.73"/>
<path fill="none" stroke="black" d="M971.5,-314.73C971.5,-312.92 953.63,-311.45 931.62,-311.45 909.62,-311.45 891.75,-312.92 891.75,-314.73"/>
<text text-anchor="middle" x="931.62" y="-295.7" font-family="Times,serif" font-size="14.00">orders&#45;db</text>
</g>
<!-- SERVICE:inventory&#45;service&#45;&gt;DATABASE:orders&#45;db -->
<g id="edge10" class="edge">
<title>SERVICE:inventory&#45;service&#45;&gt;DATABASE:orders&#45;db</title>
<g id="a_edge10"><a xlink:title="edge#9">
<path fill="none" stroke="black" d="M653.71,-224.2C661.48,-227.44 669.04,-231.33 675.75,-236 686.41,-243.41 682.61,-252.34 693.75,-259 751.24,-293.39 829.75,-300.77 880.32,-301.5"/>
<polygon fill="black" stroke="black" points="880.08,-304.99 890.1,-301.55 880.12,-297.99 880.08,-304.99"/>
</a>
</g>
<text text-anchor="middle" x="754.5" y="-300.7" font-family="Times,serif" font-size="14.00">READS</text>
</g>
<!-- SERVICE:order&#45;service_split&#45;&gt;SERVICE:billing&#45;service -->
<g id="edge15" class="edge">
<title>SERVICE:order&#45;service_split&#45;&gt;SERVICE:billing&#45;service</title>
<g id="a_edge15"><a xlink:title="edge#14">
<path fill="none" stroke="black" d="M658.2,-150.29C718.83,-158.68 807.47,-170.95 867.01,-179.19"/>
<polygon fill="black" stroke="black" points="866.26,-182.62 876.64,-180.53 867.22,-175.69 866.26,-182.62"/>
</a>
</g>
<text text-anchor="middle" x="754.5" y="-176.7" font-family="Times,serif" font-size="14.00">calls (1 ep), 36rpm</text>
</g>
<!-- SERVICE:order&#45;service_split&#45;&gt;SERVICE:notification&#45;service -->
<g id="edge16" class="edge">
<title>SERVICE:order&#45;service_split&#45;&gt;SERVICE:notification&#45;service</title>
<g id="a_edge16"><a xlink:title="edge#15">
<path fill="none" stroke="black" d="M658.15,-132.06C670,-130.61 682.23,-129.19 693.75,-128 745.67,-122.63 804.13,-117.93 849.99,-114.54"/>
<polygon fill="black" stroke="black" points="850.13,-118.04 859.85,-113.82 849.62,-111.06 850.13,-118.04"/>
</a>
</g>
<text text-anchor="middle" x="754.5" y="-132.7" font-family="Times,serif" font-size="14.00">calls (1 ep), 220rpm</text>
</g>
<!-- SERVICE:order&#45;service_split&#45;&gt;SERVICE:search&#45;service -->
<g id="edge17" class="edge">
<title>SERVICE:order&#45;service_split&#45;&gt;SERVICE:search&#45;service</title>
<g id="a_edge17"><a xlink:title="edge#16">
<path fill="none" stroke="black" d="M630.72,-122.59C649.63,-114.07 672.67,-104.07 693.75,-96 751.52,-73.88 818.58,-52.16 866.58,-37.28"/>
<polygon fill="black" stroke="black" points="867.46,-40.67 875.99,-34.37 865.4,-33.98 867.46,-40.67"/>
</a>
</g>
<text text-anchor="middle" x="754.5" y="-100.7" font-family="Times,serif" font-size="14.00">calls (1 ep), 180rpm</text>
</g>
</g>
</svg>
