<?xml version="1.0" encoding="UTF-8" standalone="no"?>
<!DOCTYPE svg PUBLIC "-//W3C//DTD SVG 1.1//EN"
 "http://www.w3.org/Graphics/SVG/1.1/DTD/svg11.dtd">
<!-- Generated by graphviz version 14.0.1 (20251006.0113)
 -->
<!-- Title: G Pages: 1 -->
<svg width="496pt" height="282pt"
 viewBox="0.00 0.00 496.00 282.00" xmlns="http://www.w3.org/2000/svg" xmlns:xlink="http://www.w3.org/1999/xlink">
<g id="graph0" class="graph" transform="scale(1 1) rotate(0) translate(4 278)">
<title>G</title>
<polygon fill="white" stroke="none" points="-4,4 -4,-278 491.75,-278 491.75,4 -4,4"/>
<!-- order&#45;service -->
<g id="node1" class="node">
<title>order&#45;service</title>
<path fill="lightgrey" stroke="black" d="M202.62,-274C202.62,-274 139.38,-274 139.38,-274 133.38,-274 127.38,-268 127.38,-262 127.38,-262 127.38,-250 127.38,-250 127.38,-244 133.38,-238 139.38,-238 139.38,-238 202.62,-238 202.62,-238 208.62,-238 214.62,-244 214.62,-250 214.62,-250 214.62,-262 214.62,-262 214.62,-268 208.62,-274 202.62,-274"/>
<text xml:space="preserve" text-anchor="middle" x="171" y="-250.95" font-family="Times New Roman,serif" font-size="14.00">order&#45;service</text>
</g>
<!-- catalog&#45;service -->
<g id="node2" class="node">
<title>catalog&#45;service</title>
<path fill="lightgrey" stroke="black" d="M345.75,-251C345.75,-251 272,-251 272,-251 266,-251 260,-245 260,-239 260,-239 260,-227 260,-227 260,-221 266,-215 272,-215 272,-215 345.75,-215 345.75,-215 351.75,-215 357.75,-221 357.75,-227 357.75,-227 357.75,-239 357.75,-239 357.75,-245 351.75,-251 345.75,-251"/>
<text xml:space="preserve" text-anchor="middle" x="308.88" y="-227.95" font-family="Times New Roman,serif" font-size="14.00">catalog&#45;service</text>
</g>
<!-- order&#45;service&#45;&gt;catalog&#45;service -->
<g id="edge12" class="edge">
<title>order&#45;service&#45;&gt;catalog&#45;service</title>
<path fill="none" stroke="black" d="M214.99,-242.39C225.72,-240.2 237.41,-238.1 248.77,-236.31"/>
<polygon fill="black" stroke="black" points="249.1,-239.8 258.47,-234.85 248.07,-232.87 249.1,-239.8"/>
</g>
<!-- catalog&#45;service&#45;&gt;order&#45;service -->
<g id="edge1" class="edge">
<title>catalog&#45;service&#45;&gt;order&#45;service</title>
<path fill="none" stroke="black" d="M259.97,-247.59C249.09,-249.73 237.47,-251.75 226.35,-253.43"/>
<polygon fill="black" stroke="black" points="225.89,-249.96 216.49,-254.84 226.88,-256.89 225.89,-249.96"/>
</g>
<!-- search&#45;service -->
<g id="node3" class="node">
<title>search&#45;service</title>
<path fill="lightgrey" stroke="black" d="M205.62,-182C205.62,-182 136.38,-182 136.38,-182 130.38,-182 124.38,-176 124.38,-170 124.38,-170 124.38,-158 124.38,-158 124.38,-152 130.38,-146 136.38,-146 136.38,-146 205.62,-146 205.62,-146 211.62,-146 217.62,-152 217.62,-158 217.62,-158 217.62,-170 217.62,-170 217.62,-176 211.62,-182 205.62,-182"/>
<text xml:space="preserve" text-anchor="middle" x="171" y="-158.95" font-family="Times New Roman,serif" font-size="14.00">search&#45;service</text>
</g>
<!-- search&#45;service&#45;&gt;catalog&#45;service -->
<g id="edge2" class="edge">
<title>search&#45;service&#45;&gt;catalog&#45;service</title>
<path fill="none" stroke="black" d="M208.41,-182.49C224.84,-190.83 244.43,-200.78 261.86,-209.63"/>
<polygon fill="black" stroke="black" points="259.98,-212.6 270.48,-214.01 263.15,-206.36 259.98,-212.6"/>
</g>
<!-- api&#45;gateway -->
<g id="node4" class="node">
<title>api&#45;gateway</title>
<path fill="lightgrey" stroke="black" d="M70,-159C70,-159 12,-159 12,-159 6,-159 0,-153 0,-147 0,-147 0,-135 0,-135 0,-129 6,-123 12,-123 12,-123 70,-123 70,-123 76,-123 82,-129 82,-135 82,-135 82,-147 82,-147 82,-153 76,-159 70,-159"/>
<text xml:space="preserve" text-anchor="middle" x="41" y="-135.95" font-family="Times New Roman,serif" font-size="14.00">api&#45;gateway</text>
</g>
<!-- api&#45;gateway&#45;&gt;order&#45;service -->
<g id="edge5" class="edge">
<title>api&#45;gateway&#45;&gt;order&#45;service</title>
<path fill="none" stroke="black" d="M56.15,-159.2C70.53,-176.99 94.05,-204.21 118,-224 120.99,-226.47 124.19,-228.89 127.48,-231.22"/>
<polygon fill="black" stroke="black" points="125.36,-234.02 135.61,-236.69 129.26,-228.21 125.36,-234.02"/>
</g>
<!-- api&#45;gateway&#45;&gt;catalog&#45;service -->
<g id="edge6" class="edge">
<title>api&#45;gateway&#45;&gt;catalog&#45;service</title>
<path fill="none" stroke="black" d="M65.03,-159.36C79.49,-170.04 98.94,-182.95 118,-191 159.89,-208.7 210.27,-219.4 248.6,-225.57"/>
<polygon fill="black" stroke="black" points="247.67,-228.97 258.09,-227.04 248.74,-222.05 247.67,-228.97"/>
</g>
<!-- api&#45;gateway&#45;&gt;search&#45;service -->
<g id="edge7" class="edge">
<title>api&#45;gateway&#45;&gt;search&#45;service</title>
<path fill="none" stroke="black" d="M82.5,-148.28C92.08,-150 102.47,-151.87 112.64,-153.69"/>
<polygon fill="black" stroke="black" points="112.02,-157.14 122.48,-155.46 113.26,-150.25 112.02,-157.14"/>
</g>
<!-- auth&#45;service -->
<g id="node5" class="node">
<title>auth&#45;service</title>
<path fill="lightgrey" stroke="black" d="M200,-90C200,-90 142,-90 142,-90 136,-90 130,-84 130,-78 130,-78 130,-66 130,-66 130,-60 136,-54 142,-54 142,-54 200,-54 200,-54 206,-54 212,-60 212,-66 212,-66 212,-78 212,-78 212,-84 206,-90 200,-90"/>
<text xml:space="preserve" text-anchor="middle" x="171" y="-66.95" font-family="Times New Roman,serif" font-size="14.00">auth&#45;service</text>
</g>
<!-- api&#45;gateway&#45;&gt;auth&#45;service -->
<g id="edge3" class="edge">
<title>api&#45;gateway&#45;&gt;auth&#45;service</title>
<path fill="none" stroke="black" d="M76.3,-122.51C91.63,-114.24 109.89,-104.41 126.19,-95.62"/>
<polygon fill="black" stroke="black" points="127.57,-98.85 134.72,-91.02 124.25,-92.68 127.57,-98.85"/>
</g>
<!-- user&#45;service -->
<g id="node6" class="node">
<title>user&#45;service</title>
<path fill="lightgrey" stroke="black" d="M337.5,-136C337.5,-136 280.25,-136 280.25,-136 274.25,-136 268.25,-130 268.25,-124 268.25,-124 268.25,-112 268.25,-112 268.25,-106 274.25,-100 280.25,-100 280.25,-100 337.5,-100 337.5,-100 343.5,-100 349.5,-106 349.5,-112 349.5,-112 349.5,-124 349.5,-124 349.5,-130 343.5,-136 337.5,-136"/>
<text xml:space="preserve" text-anchor="middle" x="308.88" y="-112.95" font-family="Times New Roman,serif" font-size="14.00">user&#45;service</text>
</g>
<!-- api&#45;gateway&#45;&gt;user&#45;service -->
<g id="edge4" class="edge">
<title>api&#45;gateway&#45;&gt;user&#45;service</title>
<path fill="none" stroke="black" d="M82.38,-137.51C129.01,-133.47 205.81,-126.83 256.61,-122.43"/>
<polygon fill="black" stroke="black" points="256.82,-125.93 266.48,-121.58 256.21,-118.96 256.82,-125.93"/>
</g>
<!-- payment&#45;service -->
<g id="node8" class="node">
<title>payment&#45;service</title>
<path fill="lightgrey" stroke="black" d="M212,-36C212,-36 130,-36 130,-36 124,-36 118,-30 118,-24 118,-24 118,-12 118,-12 118,-6 124,0 130,0 130,0 212,0 212,0 218,0 224,-6 224,-12 224,-12 224,-24 224,-24 224,-30 218,-36 212,-36"/>
<text xml:space="preserve" text-anchor="middle" x="171" y="-12.95" font-family="Times New Roman,serif" font-size="14.00">payment&#45;service</text>
</g>
<!-- api&#45;gateway&#45;&gt;payment&#45;service -->
<g id="edge8" class="edge">
<title>api&#45;gateway&#45;&gt;payment&#45;service</title>
<path fill="none" stroke="black" d="M53,-122.83C66.33,-101.97 90.46,-67.73 118,-45 118.94,-44.22 119.91,-43.46 120.9,-42.71"/>
<polygon fill="black" stroke="black" points="122.7,-45.72 129,-37.2 118.77,-39.93 122.7,-45.72"/>
</g>
<!-- auth&#45;service&#45;&gt;user&#45;service -->
<g id="edge9" class="edge">
<title>auth&#45;service&#45;&gt;user&#45;service</title>
<path fill="none" stroke="black" d="M212.4,-85.68C226.5,-90.45 242.51,-95.87 257.33,-100.89"/>
<polygon fill="black" stroke="black" points="255.84,-104.08 266.43,-103.97 258.08,-97.45 255.84,-104.08"/>
</g>
<!-- billing&#45;service -->
<g id="node7" class="node">
<title>billing&#45;service</title>
<path fill="lightgrey" stroke="black" d="M475.75,-113C475.75,-113 405.75,-113 405.75,-113 399.75,-113 393.75,-107 393.75,-101 393.75,-101 393.75,-89 393.75,-89 393.75,-83 399.75,-77 405.75,-77 405.75,-77 475.75,-77 475.75,-77 481.75,-77 487.75,-83 487.75,-89 487.75,-89 487.75,-101 487.75,-101 487.75,-107 481.75,-113 475.75,-113"/>
<text xml:space="preserve" text-anchor="middle" x="440.75" y="-89.95" font-family="Times New Roman,serif" font-size="14.00">billing&#45;service</text>
</g>
<!-- user&#45;service&#45;&gt;billing&#45;service -->
<g id="edge10" class="edge">
<title>user&#45;service&#45;&gt;billing&#45;service</title>
<path fill="none" stroke="black" d="M349.9,-110.91C360.08,-109.11 371.22,-107.14 382.09,-105.21"/>
<polygon fill="black" stroke="black" points="382.53,-108.69 391.77,-103.5 381.31,-101.79 382.53,-108.69"/>
</g>
<!-- billing&#45;service&#45;&gt;auth&#45;service -->
<g id="edge11" class="edge">
<title>billing&#45;service&#45;&gt;auth&#45;service</title>
<path fill="none" stroke="black" d="M393.65,-91.04C346.36,-86.98 272.96,-80.67 223.72,-76.44"/>
<polygon fill="black" stroke="black" points="224.15,-72.97 213.88,-75.6 223.55,-79.94 224.15,-72.97"/>
</g>
</g>
</svg>
