<?xml version="1.0" encoding="UTF-8" standalone="no"?>
<!DOCTYPE svg PUBLIC "-//W3C//DTD SVG 1.1//EN"
 "http://www.w3.org/Graphics/SVG/1.1/DTD/svg11.dtd">
<!-- Generated by graphviz version 9.0.0 (20230911.1827)
 -->
<!-- Title: G Pages: 1 -->
<svg width="838pt" height="233pt"
 viewBox="0.00 0.00 837.75 233.00" xmlns="http://www.w3.org/2000/svg" xmlns:xlink="http://www.w3.org/1999/xlink">
<g id="graph0" class="graph" transform="scale(1 1) rotate(0) translate(4 229)">
<title>G</title>
<polygon fill="white" stroke="none" points="-4,4 -4,-229 833.75,-229 833.75,4 -4,4"/>
<text text-anchor="middle" x="414.88" y="-207.7" font-family="Helvetica,sans-Serif" font-size="14.00">Anti&#45;Pattern Detection and Graph Generation</text>
<!-- DATABASE:payments&#45;db -->
<g id="node1" class="node">
<title>DATABASE:payments&#45;db</title>
<path fill="#fff3cd" stroke="black" d="M829.75,-59.73C829.75,-61.53 807,-63 779,-63 751,-63 728.25,-61.53 728.25,-59.73 728.25,-59.73 728.25,-30.27 728.25,-30.27 728.25,-28.47 751,-27 779,-27 807,-27 829.75,-28.47 829.75,-30.27 829.75,-30.27 829.75,-59.73 829.75,-59.73"/>
<path fill="none" stroke="black" d="M829.75,-59.73C829.75,-57.92 807,-56.45 779,-56.45 751,-56.45 728.25,-57.92 728.25,-59.73"/>
<text text-anchor="middle" x="779" y="-40.7" font-family="Times,serif" font-size="14.00">payments&#45;db</text>
</g>
<!-- SERVICE:api&#45;gateway -->
<g id="node2" class="node">
<title>SERVICE:api&#45;gateway</title>
<path fill="#eef6ff" stroke="black" d="M83.5,-116C83.5,-116 12,-116 12,-116 6,-116 0,-110 0,-104 0,-104 0,-92 0,-92 0,-86 6,-80 12,-80 12,-80 83.5,-80 83.5,-80 89.5,-80 95.5,-86 95.5,-92 95.5,-92 95.5,-104 95.5,-104 95.5,-110 89.5,-116 83.5,-116"/>
<text text-anchor="middle" x="47.75" y="-93.7" font-family="Times,serif" font-size="14.00">api&#45;gateway</text>
</g>
<!-- SERVICE:user&#45;service -->
<g id="node3" class="node">
<title>SERVICE:user&#45;service</title>
<path fill="#eef6ff" stroke="black" d="M342.12,-144C342.12,-144 272.88,-144 272.88,-144 266.88,-144 260.88,-138 260.88,-132 260.88,-132 260.88,-120 260.88,-120 260.88,-114 266.88,-108 272.88,-108 272.88,-108 342.12,-108 342.12,-108 348.12,-108 354.12,-114 354.12,-120 354.12,-120 354.12,-132 354.12,-132 354.12,-138 348.12,-144 342.12,-144"/>
<text text-anchor="middle" x="307.5" y="-121.7" font-family="Times,serif" font-size="14.00">user&#45;service</text>
</g>
<!-- SERVICE:api&#45;gateway&#45;&gt;SERVICE:user&#45;service -->
<g id="edge1" class="edge">
<title>SERVICE:api&#45;gateway&#45;&gt;SERVICE:user&#45;service</title>
<g id="a_edge1"><a xlink:title="edge#0">
<path fill="none" stroke="black" d="M95.73,-103.1C138.96,-107.8 203.2,-114.78 249.38,-119.8"/>
<polygon fill="black" stroke="black" points="248.89,-123.26 259.21,-120.86 249.65,-116.3 248.89,-123.26"/>
</a>
</g>
<text text-anchor="middle" x="175" y="-121.7" font-family="Times,serif" font-size="14.00">calls (1 ep), 600rpm</text>
</g>
<!-- SERVICE:billing&#45;service -->
<g id="node5" class="node">
<title>SERVICE:billing&#45;service</title>
<path fill="#eef6ff" stroke="black" d="M348.5,-90C348.5,-90 266.5,-90 266.5,-90 260.5,-90 254.5,-84 254.5,-78 254.5,-78 254.5,-66 254.5,-66 254.5,-60 260.5,-54 266.5,-54 266.5,-54 348.5,-54 348.5,-54 354.5,-54 360.5,-60 360.5,-66 360.5,-66 360.5,-78 360.5,-78 360.5,-84 354.5,-90 348.5,-90"/>
<text text-anchor="middle" x="307.5" y="-67.7" font-family="Times,serif" font-size="14.00">billing&#45;service</text>
</g>
<!-- SERVICE:api&#45;gateway&#45;&gt;SERVICE:billing&#45;service -->
<g id="edge2" class="edge">
<title>SERVICE:api&#45;gateway&#45;&gt;SERVICE:billing&#45;service</title>
<g id="a_edge2"><a xlink:title="edge#1">
<path fill="none" stroke="black" d="M95.93,-85.24C101.81,-83.98 107.77,-82.85 113.5,-82 156.36,-75.65 205.09,-73.16 242.87,-72.26"/>
<polygon fill="black" stroke="black" points="242.78,-75.76 252.7,-72.06 242.63,-68.76 242.78,-75.76"/>
</a>
</g>
<text text-anchor="middle" x="175" y="-86.7" font-family="Times,serif" font-size="14.00">calls (1 ep), 300rpm</text>
</g>
<!-- SERVICE:auth&#45;service -->
<g id="node4" class="node">
<title>SERVICE:auth&#45;service</title>
<path fill="#eef6ff" stroke="black" d="M616.12,-198C616.12,-198 545.38,-198 545.38,-198 539.38,-198 533.38,-192 533.38,-186 533.38,-186 533.38,-174 533.38,-174 533.38,-168 539.38,-162 545.38,-162 545.38,-162 616.12,-162 616.12,-162 622.12,-162 628.12,-168 628.12,-174 628.12,-174 628.12,-186 628.12,-186 628.12,-192 622.12,-198 616.12,-198"/>
<text text-anchor="middle" x="580.75" y="-175.7" font-family="Times,serif" font-size="14.00">auth&#45;service</text>
</g>
<!-- SERVICE:user&#45;service&#45;&gt;SERVICE:auth&#45;service -->
<g id="edge3" class="edge">
<title>SERVICE:user&#45;service&#45;&gt;SERVICE:auth&#45;service</title>
<g id="a_edge3"><a xlink:title="edge#2">
<path fill="none" stroke="black" d="M354.44,-135.2C362.46,-136.8 370.72,-138.45 378.5,-140 426.77,-149.62 481.57,-160.51 521.78,-168.5"/>
<polygon fill="black" stroke="black" points="521.01,-171.91 531.5,-170.43 522.37,-165.05 521.01,-171.91"/>
</a>
</g>
<text text-anchor="middle" x="440" y="-167.7" font-family="Times,serif" font-size="14.00">calls (1 ep), 600rpm</text>
</g>
<!-- DATABASE:users&#45;db -->
<g id="node7" class="node">
<title>DATABASE:users&#45;db</title>
<path fill="#fff3cd" stroke="black" d="M815.12,-173.73C815.12,-175.53 798.93,-177 779,-177 759.07,-177 742.88,-175.53 742.88,-173.73 742.88,-173.73 742.88,-144.27 742.88,-144.27 742.88,-142.47 759.07,-141 779,-141 798.93,-141 815.12,-142.47 815.12,-144.27 815.12,-144.27 815.12,-173.73 815.12,-173.73"/>
<path fill="none" stroke="black" d="M815.12,-173.73C815.12,-171.92 798.93,-170.45 779,-170.45 759.07,-170.45 742.88,-171.92 742.88,-173.73"/>
<text text-anchor="middle" x="779" y="-154.7" font-family="Times,serif" font-size="14.00">users&#45;db</text>
</g>
<!-- SERVICE:user&#45;service&#45;&gt;DATABASE:users&#45;db -->
<g id="edge4" class="edge">
<title>SERVICE:user&#45;service&#45;&gt;DATABASE:users&#45;db</title>
<g id="a_edge4"><a xlink:title="edge#3">
<path fill="none" stroke="black" d="M354.49,-125.1C418.94,-124.33 539.71,-124.65 642,-135 671.92,-138.03 705.17,-143.85 731.31,-149"/>
<polygon fill="black" stroke="black" points="730.43,-152.4 740.92,-150.94 731.81,-145.53 730.43,-152.4"/>
</a>
</g>
<text text-anchor="middle" x="580.75" y="-139.7" font-family="Times,serif" font-size="14.00">READS</text>
</g>
<!-- SERVICE:auth&#45;service&#45;&gt;DATABASE:users&#45;db -->
<g id="edge5" class="edge">
<title>SERVICE:auth&#45;service&#45;&gt;DATABASE:users&#45;db</title>
<g id="a_edge5"><a xlink:title="edge#4">
<path fill="none" stroke="black" d="M628.37,-182.15C652.87,-182.56 683.31,-181.92 710.25,-178 717.23,-176.98 724.51,-175.46 731.6,-173.71"/>
<polygon fill="black" stroke="black" points="732.28,-177.15 741.04,-171.2 730.48,-170.38 732.28,-177.15"/>
</a>
</g>
<text text-anchor="middle" x="685.12" y="-185.7" font-family="Times,serif" font-size="14.00">READS</text>
</g>
<!-- SERVICE:auth&#45;service&#45;&gt;DATABASE:users&#45;db -->
<g id="edge6" class="edge">
<title>SERVICE:auth&#45;service&#45;&gt;DATABASE:users&#45;db</title>
<g id="a_edge6"><a xlink:title="edge#5">
<path fill="none" stroke="black" d="M628.4,-163.22C638.68,-160.22 649.6,-157.56 660,-156 682.09,-152.69 687.92,-155.51 710.25,-156 716.96,-156.15 724.04,-156.38 731,-156.65"/>
<polygon fill="black" stroke="black" points="730.85,-160.15 740.98,-157.07 731.14,-153.15 730.85,-160.15"/>
</a>
</g>
<text text-anchor="middle" x="685.12" y="-160.7" font-family="Times,serif" font-size="14.00">WRITES</text>
</g>
<!-- SERVICE:billing&#45;service&#45;&gt;DATABASE:payments&#45;db -->
<g id="edge8" class="edge">
<title>SERVICE:billing&#45;service&#45;&gt;DATABASE:payments&#45;db</title>
<g id="a_edge8"><a xlink:title="edge#7">
<path fill="none" stroke="black" d="M360.69,-72.75C437.51,-73.27 585.42,-72.07 710.25,-58 712.3,-57.77 714.39,-57.51 716.49,-57.23"/>
<polygon fill="black" stroke="black" points="716.95,-60.7 726.32,-55.75 715.91,-53.77 716.95,-60.7"/>
</a>
</g>
<text text-anchor="middle" x="580.75" y="-75.7" font-family="Times,serif" font-size="14.00">READS</text>
</g>
<!-- SERVICE:payment&#45;service -->
<g id="node6" class="node">
<title>SERVICE:payment&#45;service</title>
<path fill="#eef6ff" stroke="black" d="M630,-36C630,-36 531.5,-36 531.5,-36 525.5,-36 519.5,-30 519.5,-24 519.5,-24 519.5,-12 519.5,-12 519.5,-6 525.5,0 531.5,0 531.5,0 630,0 630,0 636,0 642,-6 642,-12 642,-12 642,-24 642,-24 642,-30 636,-36 630,-36"/>
<text text-anchor="middle" x="580.75" y="-13.7" font-family="Times,serif" font-size="14.00">payment&#45;service</text>
</g>
<!-- SERVICE:billing&#45;service&#45;&gt;SERVICE:payment&#45;service -->
<g id="edge7" class="edge">
<title>SERVICE:billing&#45;service&#45;&gt;SERVICE:payment&#45;service</title>
<g id="a_edge7"><a xlink:title="edge#6">
<path fill="none" stroke="black" d="M342.93,-53.62C354.01,-48.43 366.52,-43.3 378.5,-40 420.51,-28.43 469.02,-22.9 507.89,-20.28"/>
<polygon fill="black" stroke="black" points="508.09,-23.78 517.86,-19.67 507.66,-16.79 508.09,-23.78"/>
</a>
</g>
<text text-anchor="middle" x="440" y="-44.7" font-family="Times,serif" font-size="14.00">calls (1 ep), 500rpm</text>
</g>
<!-- SERVICE:payment&#45;service&#45;&gt;DATABASE:payments&#45;db -->
<g id="edge9" class="edge">
<title>SERVICE:payment&#45;service&#45;&gt;DATABASE:payments&#45;db</title>
<g id="a_edge9"><a xlink:title="edge#8">
<path fill="none" stroke="black" d="M642.23,-26.32C665.85,-29.57 692.89,-33.29 716.6,-36.55"/>
<polygon fill="black" stroke="black" points="716.05,-40.01 726.43,-37.91 717.01,-33.08 716.05,-40.01"/>
</a>
</g>
<text text-anchor="middle" x="685.12" y="-40.7" font-family="Times,serif" font-size="14.00">WRITES</text>
</g>
</g>
</svg>
