<?xml version="1.0" encoding="UTF-8" standalone="no"?>
<!DOCTYPE svg PUBLIC "-//W3C//DTD SVG 1.1//EN"
 "http://www.w3.org/Graphics/SVG/1.1/DTD/svg11.dtd">
<!-- Generated by graphviz version 9.0.0 (20230911.1827)
 -->
<!-- Title: G Pages: 1 -->
<svg width="875pt" height="287pt"
 viewBox="0.00 0.00 875.00 287.00" xmlns="http://www.w3.org/2000/svg" xmlns:xlink="http://www.w3.org/1999/xlink">
<g id="graph0" class="graph" transform="scale(1 1) rotate(0) translate(4 283)">
<title>G</title>
<polygon fill="white" stroke="none" points="-4,4 -4,-283 871,-283 871,4 -4,4"/>
<text text-anchor="middle" x="433.5" y="-261.7" font-family="Helvetica,sans-Serif" font-size="14.00">Edited architecture</text>
<!-- SERVICE:user&#45;service -->
<g id="node1" class="node">
<title>SERVICE:user&#45;service</title>
<path fill="#eef6ff" stroke="black" d="M360.75,-198C360.75,-198 291.5,-198 291.5,-198 285.5,-198 279.5,-192 279.5,-186 279.5,-186 279.5,-174 279.5,-174 279.5,-168 285.5,-162 291.5,-162 291.5,-162 360.75,-162 360.75,-162 366.75,-162 372.75,-168 372.75,-174 372.75,-174 372.75,-186 372.75,-186 372.75,-192 366.75,-198 360.75,-198"/>
<text text-anchor="middle" x="326.12" y="-175.7" font-family="Times,serif" font-size="14.00">user&#45;service</text>
</g>
<!-- SERVICE:auth&#45;service -->
<g id="node4" class="node">
<title>SERVICE:auth&#45;service</title>
<path fill="#eef6ff" stroke="black" d="M653.38,-252C653.38,-252 582.62,-252 582.62,-252 576.62,-252 570.62,-246 570.62,-240 570.62,-240 570.62,-228 570.62,-228 570.62,-222 576.62,-216 582.62,-216 582.62,-216 653.38,-216 653.38,-216 659.38,-216 665.38,-222 665.38,-228 665.38,-228 665.38,-240 665.38,-240 665.38,-246 659.38,-252 653.38,-252"/>
<text text-anchor="middle" x="618" y="-229.7" font-family="Times,serif" font-size="14.00">auth&#45;service</text>
</g>
<!-- SERVICE:user&#45;service&#45;&gt;SERVICE:auth&#45;service -->
<g id="edge9" class="edge">
<title>SERVICE:user&#45;service&#45;&gt;SERVICE:auth&#45;service</title>
<g id="a_edge9"><a xlink:title="edge#8">
<path fill="none" stroke="black" d="M373.06,-188.56C423.43,-197.94 504.37,-213.02 559.07,-223.21"/>
<polygon fill="black" stroke="black" points="558.36,-226.64 568.84,-225.03 559.65,-219.76 558.36,-226.64"/>
</a>
</g>
<text text-anchor="middle" x="473.88" y="-222.7" font-family="Times,serif" font-size="14.00">calls (1 ep), 600rpm</text>
</g>
<!-- DATABASE:users&#45;db -->
<g id="node9" class="node">
<title>DATABASE:users&#45;db</title>
<path fill="#fff3cd" stroke="black" d="M852.38,-227.73C852.38,-229.53 836.18,-231 816.25,-231 796.32,-231 780.12,-229.53 780.12,-227.73 780.12,-227.73 780.12,-198.27 780.12,-198.27 780.12,-196.47 796.32,-195 816.25,-195 836.18,-195 852.38,-196.47 852.38,-198.27 852.38,-198.27 852.38,-227.73 852.38,-227.73"/>
<path fill="none" stroke="black" d="M852.38,-227.73C852.38,-225.92 836.18,-224.45 816.25,-224.45 796.32,-224.45 780.12,-225.92 780.12,-227.73"/>
<text text-anchor="middle" x="816.25" y="-208.7" font-family="Times,serif" font-size="14.00">users&#45;db</text>
</g>
<!-- SERVICE:user&#45;service&#45;&gt;DATABASE:users&#45;db -->
<g id="edge10" class="edge">
<title>SERVICE:user&#45;service&#45;&gt;DATABASE:users&#45;db</title>
<g id="a_edge10"><a xlink:title="edge#9">
<path fill="none" stroke="black" d="M373.12,-179C440.49,-178.02 569.88,-178.01 679.25,-189 709.17,-192.01 742.43,-197.83 768.56,-202.99"/>
<polygon fill="black" stroke="black" points="767.68,-206.38 778.18,-204.92 769.06,-199.52 767.68,-206.38"/>
</a>
</g>
<text text-anchor="middle" x="618" y="-193.7" font-family="Times,serif" font-size="14.00">READS</text>
</g>
<!-- DATABASE:payments&#45;db -->
<g id="node2" class="node">
<title>DATABASE:payments&#45;db</title>
<path fill="#fff3cd" stroke="black" d="M867,-119.73C867,-121.53 844.25,-123 816.25,-123 788.25,-123 765.5,-121.53 765.5,-119.73 765.5,-119.73 765.5,-90.27 765.5,-90.27 765.5,-88.47 788.25,-87 816.25,-87 844.25,-87 867,-88.47 867,-90.27 867,-90.27 867,-119.73 867,-119.73"/>
<path fill="none" stroke="black" d="M867,-119.73C867,-117.92 844.25,-116.45 816.25,-116.45 788.25,-116.45 765.5,-117.92 765.5,-119.73"/>
<text text-anchor="middle" x="816.25" y="-100.7" font-family="Times,serif" font-size="14.00">payments&#45;db</text>
</g>
<!-- SERVICE:api&#45;gateway -->
<g id="node3" class="node">
<title>SERVICE:api&#45;gateway</title>
<path fill="#eef6ff" stroke="black" d="M83.5,-116C83.5,-116 12,-116 12,-116 6,-116 0,-110 0,-104 0,-104 0,-92 0,-92 0,-86 6,-80 12,-80 12,-80 83.5,-80 83.5,-80 89.5,-80 95.5,-86 95.5,-92 95.5,-92 95.5,-104 95.5,-104 95.5,-110 89.5,-116 83.5,-116"/>
<text text-anchor="middle" x="47.75" y="-93.7" font-family="Times,serif" font-size="14.00">api&#45;gateway</text>
</g>
<!-- SERVICE:api&#45;gateway&#45;&gt;SERVICE:user&#45;service -->
<g id="edge1" class="edge">
<title>SERVICE:api&#45;gateway&#45;&gt;SERVICE:user&#45;service</title>
<g id="a_edge1"><a xlink:title="edge#0">
<path fill="none" stroke="black" d="M73.78,-116.38C85.36,-124.1 99.6,-132.54 113.5,-138 163.74,-157.75 224.48,-168.58 267.98,-174.27"/>
<polygon fill="black" stroke="black" points="267.35,-177.71 277.71,-175.48 268.22,-170.77 267.35,-177.71"/>
</a>
</g>
<text text-anchor="middle" x="178.38" y="-174.7" font-family="Times,serif" font-size="14.00">calls (1 ep), 600rpm</text>
</g>
<!-- SERVICE:billing&#45;service -->
<g id="node5" class="node">
<title>SERVICE:billing&#45;service</title>
<path fill="#eef6ff" stroke="black" d="M367.12,-144C367.12,-144 285.12,-144 285.12,-144 279.12,-144 273.12,-138 273.12,-132 273.12,-132 273.12,-120 273.12,-120 273.12,-114 279.12,-108 285.12,-108 285.12,-108 367.12,-108 367.12,-108 373.12,-108 379.12,-114 379.12,-120 379.12,-120 379.12,-132 379.12,-132 379.12,-138 373.12,-144 367.12,-144"/>
<text text-anchor="middle" x="326.12" y="-121.7" font-family="Times,serif" font-size="14.00">billing&#45;service</text>
</g>
<!-- SERVICE:api&#45;gateway&#45;&gt;SERVICE:billing&#45;service -->
<g id="edge2" class="edge">
<title>SERVICE:api&#45;gateway&#45;&gt;SERVICE:billing&#45;service</title>
<g id="a_edge2"><a xlink:title="edge#1">
<path fill="none" stroke="black" d="M95.95,-102.78C141.57,-107.4 211.02,-114.44 261.51,-119.56"/>
<polygon fill="black" stroke="black" points="261.14,-123.04 271.44,-120.56 261.84,-116.07 261.14,-123.04"/>
</a>
</g>
<text text-anchor="middle" x="178.38" y="-120.7" font-family="Times,serif" font-size="14.00">calls (1 ep), 300rpm</text>
</g>
<!-- SERVICE:new&#45;service&#45;2 -->
<g id="node7" class="node">
<title>SERVICE:new&#45;service&#45;2</title>
<path fill="#eef6ff" stroke="black" d="M367.5,-90C367.5,-90 284.75,-90 284.75,-90 278.75,-90 272.75,-84 272.75,-78 272.75,-78 272.75,-66 272.75,-66 272.75,-60 278.75,-54 284.75,-54 284.75,-54 367.5,-54 367.5,-54 373.5,-54 379.5,-60 379.5,-66 379.5,-66 379.5,-78 379.5,-78 379.5,-84 373.5,-90 367.5,-90"/>
<text text-anchor="middle" x="326.12" y="-67.7" font-family="Times,serif" font-size="14.00">new&#45;service&#45;2</text>
</g>
<!-- SERVICE:api&#45;gateway&#45;&gt;SERVICE:new&#45;service&#45;2 -->
<g id="edge3" class="edge">
<title>SERVICE:api&#45;gateway&#45;&gt;SERVICE:new&#45;service&#45;2</title>
<g id="a_edge3"><a xlink:title="edge#2">
<path fill="none" stroke="black" d="M95.93,-85.21C101.81,-83.95 107.77,-82.84 113.5,-82 162.74,-74.82 219.03,-72.44 261.18,-71.79"/>
<polygon fill="black" stroke="black" points="261.2,-75.29 271.16,-71.66 261.12,-68.29 261.2,-75.29"/>
</a>
</g>
<text text-anchor="middle" x="178.38" y="-86.7" font-family="Times,serif" font-size="14.00">calls (15 ep), 500rpm</text>
</g>
<!-- SERVICE:auth&#45;service&#45;&gt;DATABASE:users&#45;db -->
<g id="edge4" class="edge">
<title>SERVICE:auth&#45;service&#45;&gt;DATABASE:users&#45;db</title>
<g id="a_edge4"><a xlink:title="edge#3">
<path fill="none" stroke="black" d="M665.62,-236.15C690.12,-236.56 720.56,-235.92 747.5,-232 754.48,-230.98 761.76,-229.46 768.85,-227.71"/>
<polygon fill="black" stroke="black" points="769.53,-231.15 778.29,-225.2 767.73,-224.38 769.53,-231.15"/>
</a>
</g>
<text text-anchor="middle" x="722.38" y="-239.7" font-family="Times,serif" font-size="14.00">READS</text>
</g>
<!-- SERVICE:auth&#45;service&#45;&gt;DATABASE:users&#45;db -->
<g id="edge5" class="edge">
<title>SERVICE:auth&#45;service&#45;&gt;DATABASE:users&#45;db</title>
<g id="a_edge5"><a xlink:title="edge#4">
<path fill="none" stroke="black" d="M665.65,-217.22C675.93,-214.22 686.85,-211.56 697.25,-210 719.34,-206.69 725.17,-209.51 747.5,-210 754.21,-210.15 761.29,-210.38 768.25,-210.65"/>
<polygon fill="black" stroke="black" points="768.1,-214.15 778.23,-211.07 768.39,-207.15 768.1,-214.15"/>
</a>
</g>
<text text-anchor="middle" x="722.38" y="-214.7" font-family="Times,serif" font-size="14.00">WRITES</text>
</g>
<!-- SERVICE:billing&#45;service&#45;&gt;DATABASE:payments&#45;db -->
<g id="edge7" class="edge">
<title>SERVICE:billing&#45;service&#45;&gt;DATABASE:payments&#45;db</title>
<g id="a_edge7"><a xlink:title="edge#6">
<path fill="none" stroke="black" d="M379.61,-125.43C459.23,-124.29 615.27,-121.02 747.5,-112 749.67,-111.85 751.87,-111.69 754.1,-111.51"/>
<polygon fill="black" stroke="black" points="754.16,-115.02 763.83,-110.68 753.57,-108.05 754.16,-115.02"/>
</a>
</g>
<text text-anchor="middle" x="618" y="-125.7" font-family="Times,serif" font-size="14.00">READS</text>
</g>
<!-- SERVICE:payment&#45;service -->
<g id="node6" class="node">
<title>SERVICE:payment&#45;service</title>
<path fill="#eef6ff" stroke="black" d="M667.25,-90C667.25,-90 568.75,-90 568.75,-90 562.75,-90 556.75,-84 556.75,-78 556.75,-78 556.75,-66 556.75,-66 556.75,-60 562.75,-54 568.75,-54 568.75,-54 667.25,-54 667.25,-54 673.25,-54 679.25,-60 679.25,-66 679.25,-66 679.25,-78 679.25,-78 679.25,-84 673.25,-90 667.25,-90"/>
<text text-anchor="middle" x="618" y="-67.7" font-family="Times,serif" font-size="14.00">payment&#45;service</text>
</g>
<!-- SERVICE:billing&#45;service&#45;&gt;SERVICE:payment&#45;service -->
<g id="edge6" class="edge">
<title>SERVICE:billing&#45;service&#45;&gt;SERVICE:payment&#45;service</title>
<g id="a_edge6"><a xlink:title="edge#5">
<path fill="none" stroke="black" d="M368.08,-107.52C380.95,-102.39 395.36,-97.32 409,-94 453.57,-83.14 504.8,-77.64 545.27,-74.86"/>
<polygon fill="black" stroke="black" points="545.38,-78.36 555.14,-74.22 544.94,-71.37 545.38,-78.36"/>
</a>
</g>
<text text-anchor="middle" x="473.88" y="-98.7" font-family="Times,serif" font-size="14.00">calls (1 ep), 500rpm</text>
</g>
<!-- SERVICE:payment&#45;service&#45;&gt;DATABASE:payments&#45;db -->
<g id="edge8" class="edge">
<title>SERVICE:payment&#45;service&#45;&gt;DATABASE:payments&#45;db</title>
<g id="a_edge8"><a xlink:title="edge#7">
<path fill="none" stroke="black" d="M679.48,-82.17C703.1,-86.14 730.14,-90.69 753.85,-94.67"/>
<polygon fill="black" stroke="black" points="753.25,-98.12 763.69,-96.33 754.41,-91.22 753.25,-98.12"/>
</a>
</g>
<text text-anchor="middle" x="722.38" y="-97.7" font-family="Times,serif" font-size="14.00">WRITES</text>
</g>
<!-- SERVICE:new&#45;service&#45;1 -->
<g id="node8" class="node">
<title>SERVICE:new&#45;service&#45;1</title>
<path fill="#eef6ff" stroke="black" d="M658.62,-36C658.62,-36 577.38,-36 577.38,-36 571.38,-36 565.38,-30 565.38,-24 565.38,-24 565.38,-12 565.38,-12 565.38,-6 571.38,0 577.38,0 577.38,0 658.62,0 658.62,0 664.62,0 670.62,-6 670.62,-12 670.62,-12 670.62,-24 670.62,-24 670.62,-30 664.62,-36 658.62,-36"/>
<text text-anchor="middle" x="618" y="-13.7" font-family="Times,serif" font-size="14.00">new&#45;service&#45;1</text>
</g>
<!-- SERVICE:new&#45;service&#45;2&#45;&gt;SERVICE:new&#45;service&#45;1 -->
<g id="edge11" class="edge">
<title>SERVICE:new&#45;service&#45;2&#45;&gt;SERVICE:new&#45;service&#45;1</title>
<g id="a_edge11"><a xlink:title="edge#10">
<path fill="none" stroke="black" d="M379.87,-59.26C389.54,-57.07 399.56,-54.89 409,-53 457.41,-43.32 512.52,-34.13 553.85,-27.59"/>
<polygon fill="black" stroke="black" points="554.29,-31.07 563.63,-26.06 553.21,-24.15 554.29,-31.07"/>
</a>
</g>
<text text-anchor="middle" x="473.88" y="-57.7" font-family="Times,serif" font-size="14.00">calls (15 ep), 500rpm</text>
</g>
<!-- SERVICE:new&#45;service&#45;1&#45;&gt;SERVICE:api&#45;gateway -->
<g id="edge12" class="edge">
<title>SERVICE:new&#45;service&#45;1&#45;&gt;SERVICE:api&#45;gateway</title>
<g id="a_edge12"><a xlink:title="edge#11">
<path fill="none" stroke="black" d="M565.11,-15.36C495.53,-12.71 368.34,-11.04 261.25,-27 193.85,-37.05 177.46,-44.49 113.5,-68 107.76,-70.11 101.82,-72.52 95.98,-75.04"/>
<polygon fill="black" stroke="black" points="94.73,-71.77 87.02,-79.03 97.57,-78.16 94.73,-71.77"/>
</a>
</g>
<text text-anchor="middle" x="326.12" y="-31.7" font-family="Times,serif" font-size="14.00">calls (15 ep), 500rpm</text>
</g>
</g>
</svg>
