<?xml version="1.0" encoding="UTF-8" standalone="no"?>
<!DOCTYPE svg PUBLIC "-//W3C//DTD SVG 1.1//EN"
 "http://www.w3.org/Graphics/SVG/1.1/DTD/svg11.dtd">
<!-- Generated by graphviz version 9.0.0 (20230911.1827)
 -->
<!-- Title: G Pages: 1 -->
<svg width="838pt" height="209pt"
 viewBox="0.00 0.00 837.75 209.04" xmlns="http://www.w3.org/2000/svg" xmlns:xlink="http://www.w3.org/1999/xlink">
<g id="graph0" class="graph" transform="scale(1 1) rotate(0) translate(4 205.04)">
<title>G</title>
<polygon fill="white" stroke="none" points="-4,4 -4,-205.04 833.75,-205.04 833.75,4 -4,4"/>
<text text-anchor="middle" x="414.88" y="-183.74" font-family="Helvetica,sans-Serif" font-size="14.00">dsada</text>
<!-- SERVICE:auth&#45;service -->
<g id="node1" class="node">
<title>SERVICE:auth&#45;service</title>
<path fill="#eef6ff" stroke="black" d="M616.12,-67.04C616.12,-67.04 545.38,-67.04 545.38,-67.04 539.38,-67.04 533.38,-61.04 533.38,-55.04 533.38,-55.04 533.38,-43.04 533.38,-43.04 533.38,-37.04 539.38,-31.04 545.38,-31.04 545.38,-31.04 616.12,-31.04 616.12,-31.04 622.12,-31.04 628.12,-37.04 628.12,-43.04 628.12,-43.04 628.12,-55.04 628.12,-55.04 628.12,-61.04 622.12,-67.04 616.12,-67.04"/>
<text text-anchor="middle" x="580.75" y="-44.74" font-family="Times,serif" font-size="14.00">auth&#45;service</text>
</g>
<!-- DATABASE:users&#45;db -->
<g id="node4" class="node">
<title>DATABASE:users&#45;db</title>
<path fill="#fff3cd" stroke="black" d="M815.12,-42.77C815.12,-44.58 798.93,-46.04 779,-46.04 759.07,-46.04 742.88,-44.58 742.88,-42.77 742.88,-42.77 742.88,-13.31 742.88,-13.31 742.88,-11.51 759.07,-10.04 779,-10.04 798.93,-10.04 815.12,-11.51 815.12,-13.31 815.12,-13.31 815.12,-42.77 815.12,-42.77"/>
<path fill="none" stroke="black" d="M815.12,-42.77C815.12,-40.96 798.93,-39.5 779,-39.5 759.07,-39.5 742.88,-40.96 742.88,-42.77"/>
<text text-anchor="middle" x="779" y="-23.74" font-family="Times,serif" font-size="14.00">users&#45;db</text>
</g>
<!-- SERVICE:auth&#45;service&#45;&gt;DATABASE:users&#45;db -->
<g id="edge5" class="edge">
<title>SERVICE:auth&#45;service&#45;&gt;DATABASE:users&#45;db</title>
<g id="a_edge5"><a xlink:title="edge#4">
<path fill="none" stroke="black" d="M628.37,-51.19C652.87,-51.6 683.31,-50.96 710.25,-47.04 717.23,-46.03 724.51,-44.5 731.6,-42.75"/>
<polygon fill="black" stroke="black" points="732.28,-46.19 741.04,-40.24 730.48,-39.43 732.28,-46.19"/>
</a>
</g>
<text text-anchor="middle" x="685.12" y="-54.74" font-family="Times,serif" font-size="14.00">READS</text>
</g>
<!-- SERVICE:auth&#45;service&#45;&gt;DATABASE:users&#45;db -->
<g id="edge6" class="edge">
<title>SERVICE:auth&#45;service&#45;&gt;DATABASE:users&#45;db</title>
<g id="a_edge6"><a xlink:title="edge#5">
<path fill="none" stroke="black" d="M628.4,-32.26C638.68,-29.26 649.6,-26.6 660,-25.04 682.09,-21.73 687.92,-24.55 710.25,-25.04 716.96,-25.19 724.04,-25.42 731,-25.69"/>
<polygon fill="black" stroke="black" points="730.85,-29.19 740.98,-26.11 731.14,-22.19 730.85,-29.19"/>
</a>
</g>
<text text-anchor="middle" x="685.12" y="-29.74" font-family="Times,serif" font-size="14.00">WRITES</text>
</g>
<!-- SERVICE:billing&#45;service -->
<g id="node2" class="node">
<title>SERVICE:billing&#45;service</title>
<path fill="#eef6ff" stroke="black" d="M348.5,-121.04C348.5,-121.04 266.5,-121.04 266.5,-121.04 260.5,-121.04 254.5,-115.04 254.5,-109.04 254.5,-109.04 254.5,-97.04 254.5,-97.04 254.5,-91.04 260.5,-85.04 266.5,-85.04 266.5,-85.04 348.5,-85.04 348.5,-85.04 354.5,-85.04 360.5,-91.04 360.5,-97.04 360.5,-97.04 360.5,-109.04 360.5,-109.04 360.5,-115.04 354.5,-121.04 348.5,-121.04"/>
<text text-anchor="middle" x="307.5" y="-98.74" font-family="Times,serif" font-size="14.00">billing&#45;service</text>
</g>
<!-- SERVICE:payment&#45;service -->
<g id="node3" class="node">
<title>SERVICE:payment&#45;service</title>
<path fill="#eef6ff" stroke="black" d="M630,-175.04C630,-175.04 531.5,-175.04 531.5,-175.04 525.5,-175.04 519.5,-169.04 519.5,-163.04 519.5,-163.04 519.5,-151.04 519.5,-151.04 519.5,-145.04 525.5,-139.04 531.5,-139.04 531.5,-139.04 630,-139.04 630,-139.04 636,-139.04 642,-145.04 642,-151.04 642,-151.04 642,-163.04 642,-163.04 642,-169.04 636,-175.04 630,-175.04"/>
<text text-anchor="middle" x="580.75" y="-152.74" font-family="Times,serif" font-size="14.00">payment&#45;service</text>
</g>
<!-- SERVICE:billing&#45;service&#45;&gt;SERVICE:payment&#45;service -->
<g id="edge7" class="edge">
<title>SERVICE:billing&#45;service&#45;&gt;SERVICE:payment&#45;service</title>
<g id="a_edge7"><a xlink:title="edge#6">
<path fill="none" stroke="black" d="M360.87,-113.52C366.81,-114.71 372.79,-115.9 378.5,-117.04 421.58,-125.63 469.86,-135.23 508.33,-142.87"/>
<polygon fill="black" stroke="black" points="507.45,-146.26 517.94,-144.78 508.81,-139.4 507.45,-146.26"/>
</a>
</g>
<text text-anchor="middle" x="440" y="-144.74" font-family="Times,serif" font-size="14.00">calls (1 ep), 500rpm</text>
</g>
<!-- DATABASE:payments&#45;db -->
<g id="node5" class="node">
<title>DATABASE:payments&#45;db</title>
<path fill="#fff3cd" stroke="black" d="M829.75,-133.77C829.75,-135.58 807,-137.04 779,-137.04 751,-137.04 728.25,-135.58 728.25,-133.77 728.25,-133.77 728.25,-104.31 728.25,-104.31 728.25,-102.51 751,-101.04 779,-101.04 807,-101.04 829.75,-102.51 829.75,-104.31 829.75,-104.31 829.75,-133.77 829.75,-133.77"/>
<path fill="none" stroke="black" d="M829.75,-133.77C829.75,-131.96 807,-130.5 779,-130.5 751,-130.5 728.25,-131.96 728.25,-133.77"/>
<text text-anchor="middle" x="779" y="-114.74" font-family="Times,serif" font-size="14.00">payments&#45;db</text>
</g>
<!-- SERVICE:billing&#45;service&#45;&gt;DATABASE:payments&#45;db -->
<g id="edge8" class="edge">
<title>SERVICE:billing&#45;service&#45;&gt;DATABASE:payments&#45;db</title>
<g id="a_edge8"><a xlink:title="edge#7">
<path fill="none" stroke="black" d="M360.79,-104.06C426.46,-105.42 542.6,-108.14 642,-112.04 666.35,-113 693.14,-114.32 716.46,-115.56"/>
<polygon fill="black" stroke="black" points="716.27,-119.05 726.44,-116.09 716.65,-112.06 716.27,-119.05"/>
</a>
</g>
<text text-anchor="middle" x="580.75" y="-116.74" font-family="Times,serif" font-size="14.00">READS</text>
</g>
<!-- SERVICE:payment&#45;service&#45;&gt;DATABASE:payments&#45;db -->
<g id="edge9" class="edge">
<title>SERVICE:payment&#45;service&#45;&gt;DATABASE:payments&#45;db</title>
<g id="a_edge9"><a xlink:title="edge#8">
<path fill="none" stroke="black" d="M642.23,-145.33C665.96,-140.74 693.14,-135.47 716.92,-130.87"/>
<polygon fill="black" stroke="black" points="717.3,-134.36 726.45,-129.02 715.97,-127.49 717.3,-134.36"/>
</a>
</g>
<text text-anchor="middle" x="685.12" y="-145.74" font-family="Times,serif" font-size="14.00">WRITES</text>
</g>
<!-- SERVICE:api&#45;gateway -->
<g id="node6" class="node">
<title>SERVICE:api&#45;gateway</title>
<path fill="#eef6ff" stroke="black" d="M83.5,-93.04C83.5,-93.04 12,-93.04 12,-93.04 6,-93.04 0,-87.04 0,-81.04 0,-81.04 0,-69.04 0,-69.04 0,-63.04 6,-57.04 12,-57.04 12,-57.04 83.5,-57.04 83.5,-57.04 89.5,-57.04 95.5,-63.04 95.5,-69.04 95.5,-69.04 95.5,-81.04 95.5,-81.04 95.5,-87.04 89.5,-93.04 83.5,-93.04"/>
<text text-anchor="middle" x="47.75" y="-70.74" font-family="Times,serif" font-size="14.00">api&#45;gateway</text>
</g>
<!-- SERVICE:api&#45;gateway&#45;&gt;SERVICE:billing&#45;service -->
<g id="edge2" class="edge">
<title>SERVICE:api&#45;gateway&#45;&gt;SERVICE:billing&#45;service</title>
<g id="a_edge2"><a xlink:title="edge#1">
<path fill="none" stroke="black" d="M95.73,-80.15C136.95,-84.62 197.28,-91.18 242.84,-96.13"/>
<polygon fill="black" stroke="black" points="242.26,-99.58 252.58,-97.18 243.01,-92.62 242.26,-99.58"/>
</a>
</g>
<text text-anchor="middle" x="175" y="-98.74" font-family="Times,serif" font-size="14.00">calls (1 ep), 300rpm</text>
</g>
<!-- SERVICE:user&#45;service -->
<g id="node7" class="node">
<title>SERVICE:user&#45;service</title>
<path fill="#eef6ff" stroke="black" d="M342.12,-67.04C342.12,-67.04 272.88,-67.04 272.88,-67.04 266.88,-67.04 260.88,-61.04 260.88,-55.04 260.88,-55.04 260.88,-43.04 260.88,-43.04 260.88,-37.04 266.88,-31.04 272.88,-31.04 272.88,-31.04 342.12,-31.04 342.12,-31.04 348.12,-31.04 354.12,-37.04 354.12,-43.04 354.12,-43.04 354.12,-55.04 354.12,-55.04 354.12,-61.04 348.12,-67.04 342.12,-67.04"/>
<text text-anchor="middle" x="307.5" y="-44.74" font-family="Times,serif" font-size="14.00">user&#45;service</text>
</g>
<!-- SERVICE:api&#45;gateway&#45;&gt;SERVICE:user&#45;service -->
<g id="edge1" class="edge">
<title>SERVICE:api&#45;gateway&#45;&gt;SERVICE:user&#45;service</title>
<g id="a_edge1"><a xlink:title="edge#0">
<path fill="none" stroke="black" d="M95.93,-62.28C101.81,-61.02 107.77,-59.89 113.5,-59.04 158.77,-52.34 210.58,-49.94 249.12,-49.16"/>
<polygon fill="black" stroke="black" points="249.18,-52.66 259.12,-48.99 249.06,-45.66 249.18,-52.66"/>
</a>
</g>
<text text-anchor="middle" x="175" y="-63.74" font-family="Times,serif" font-size="14.00">calls (1 ep), 600rpm</text>
</g>
<!-- SERVICE:user&#45;service&#45;&gt;SERVICE:auth&#45;service -->
<g id="edge3" class="edge">
<title>SERVICE:user&#45;service&#45;&gt;SERVICE:auth&#45;service</title>
<g id="a_edge3"><a xlink:title="edge#2">
<path fill="none" stroke="black" d="M354.51,-49.04C400.65,-49.04 471.82,-49.04 521.79,-49.04"/>
<polygon fill="black" stroke="black" points="521.54,-52.54 531.54,-49.04 521.54,-45.54 521.54,-52.54"/>
</a>
</g>
<text text-anchor="middle" x="440" y="-53.74" font-family="Times,serif" font-size="14.00">calls (1 ep), 600rpm</text>
</g>
<!-- SERVICE:user&#45;service&#45;&gt;DATABASE:users&#45;db -->
<g id="edge4" class="edge">
<title>SERVICE:user&#45;service&#45;&gt;DATABASE:users&#45;db</title>
<g id="a_edge4"><a xlink:title="edge#3">
<path fill="none" stroke="black" d="M354.56,-36.29C397.01,-25.24 461.95,-10.11 519.5,-4.04 573.64,1.67 587.76,0.71 642,-4.04 671.96,-6.67 705.21,-12.48 731.34,-17.73"/>
<polygon fill="black" stroke="black" points="730.45,-21.12 740.95,-19.7 731.86,-14.26 730.45,-21.12"/>
</a>
</g>
<text text-anchor="middle" x="580.75" y="-8.74" font-family="Times,serif" font-size="14.00">READS</text>
</g>
</g>
</svg>
