<?xml version="1.0" encoding="UTF-8" standalone="no"?>
<!DOCTYPE svg PUBLIC "-//W3C//DTD SVG 1.1//EN"
 "http://www.w3.org/Graphics/SVG/1.1/DTD/svg11.dtd">
<!-- Generated by graphviz version 9.0.0 (20230911.1827)
 -->
<!-- Title: G Pages: 1 -->
<svg width="1247pt" height="196pt"
 viewBox="0.00 0.00 1246.50 196.00" xmlns="http://www.w3.org/2000/svg" xmlns:xlink="http://www.w3.org/1999/xlink">
<g id="graph0" class="graph" transform="scale(1 1) rotate(0) translate(4 192)">
<title>G</title>
<polygon fill="white" stroke="none" points="-4,4 -4,-192 1242.5,-192 1242.5,4 -4,4"/>
<text text-anchor="middle" x="619.25" y="-170.7" font-family="Helvetica,sans-Serif" font-size="14.00">vc</text>
<!-- SERVICE:bff -->
<g id="node1" class="node">
<title>SERVICE:bff</title>
<path fill="#eef6ff" stroke="black" d="M273.25,-82C273.25,-82 243.25,-82 243.25,-82 237.25,-82 231.25,-76 231.25,-70 231.25,-70 231.25,-58 231.25,-58 231.25,-52 237.25,-46 243.25,-46 243.25,-46 273.25,-46 273.25,-46 279.25,-46 285.25,-52 285.25,-58 285.25,-58 285.25,-70 285.25,-70 285.25,-76 279.25,-82 273.25,-82"/>
<text text-anchor="middle" x="258.25" y="-59.7" font-family="Times,serif" font-size="14.00">bff</text>
</g>
<!-- SERVICE:restaurants -->
<g id="node5" class="node">
<title>SERVICE:restaurants</title>
<path fill="#eef6ff" stroke="black" d="M515.75,-133C515.75,-133 451,-133 451,-133 445,-133 439,-127 439,-121 439,-121 439,-109 439,-109 439,-103 445,-97 451,-97 451,-97 515.75,-97 515.75,-97 521.75,-97 527.75,-103 527.75,-109 527.75,-109 527.75,-121 527.75,-121 527.75,-127 521.75,-133 515.75,-133"/>
<text text-anchor="middle" x="483.38" y="-110.7" font-family="Times,serif" font-size="14.00">restaurants</text>
</g>
<!-- SERVICE:bff&#45;&gt;SERVICE:restaurants -->
<g id="edge9" class="edge">
<title>SERVICE:bff&#45;&gt;SERVICE:restaurants</title>
<g id="a_edge9"><a xlink:title="edge#8">
<path fill="none" stroke="black" d="M285.72,-70.05C320.52,-78 382.51,-92.17 427.61,-102.48"/>
<polygon fill="black" stroke="black" points="426.69,-105.86 437.21,-104.68 428.25,-99.04 426.69,-105.86"/>
</a>
</g>
<text text-anchor="middle" x="362.12" y="-103.7" font-family="Times,serif" font-size="14.00">CALLS [rest] (sync)</text>
</g>
<!-- SERVICE:payments -->
<g id="node6" class="node">
<title>SERVICE:payments</title>
<path fill="#eef6ff" stroke="black" d="M978.88,-83C978.88,-83 923.88,-83 923.88,-83 917.88,-83 911.88,-77 911.88,-71 911.88,-71 911.88,-59 911.88,-59 911.88,-53 917.88,-47 923.88,-47 923.88,-47 978.88,-47 978.88,-47 984.88,-47 990.88,-53 990.88,-59 990.88,-59 990.88,-71 990.88,-71 990.88,-77 984.88,-83 978.88,-83"/>
<text text-anchor="middle" x="951.38" y="-60.7" font-family="Times,serif" font-size="14.00">payments</text>
</g>
<!-- SERVICE:bff&#45;&gt;SERVICE:payments -->
<g id="edge10" class="edge">
<title>SERVICE:bff&#45;&gt;SERVICE:payments</title>
<g id="a_edge10"><a xlink:title="edge#9">
<path fill="none" stroke="black" d="M285.5,-64.04C388.16,-64.19 763.54,-64.73 900.19,-64.93"/>
<polygon fill="black" stroke="black" points="900,-68.43 910.01,-64.94 900.01,-61.43 900,-68.43"/>
</a>
</g>
<text text-anchor="middle" x="604.62" y="-68.7" font-family="Times,serif" font-size="14.00">CALLS [rest] (sync)</text>
</g>
<!-- SERVICE:user -->
<g id="node2" class="node">
<title>SERVICE:user</title>
<path fill="#eef6ff" stroke="black" d="M53.75,-111C53.75,-111 23.75,-111 23.75,-111 17.75,-111 11.75,-105 11.75,-99 11.75,-99 11.75,-87 11.75,-87 11.75,-81 17.75,-75 23.75,-75 23.75,-75 53.75,-75 53.75,-75 59.75,-75 65.75,-81 65.75,-87 65.75,-87 65.75,-99 65.75,-99 65.75,-105 59.75,-111 53.75,-111"/>
<text text-anchor="middle" x="38.75" y="-88.7" font-family="Times,serif" font-size="14.00">user</text>
</g>
<!-- SERVICE:web page -->
<g id="node3" class="node">
<title>SERVICE:web page</title>
<path fill="#eef6ff" stroke="black" d="M65.5,-57C65.5,-57 12,-57 12,-57 6,-57 0,-51 0,-45 0,-45 0,-33 0,-33 0,-27 6,-21 12,-21 12,-21 65.5,-21 65.5,-21 71.5,-21 77.5,-27 77.5,-33 77.5,-33 77.5,-45 77.5,-45 77.5,-51 71.5,-57 65.5,-57"/>
<text text-anchor="middle" x="38.75" y="-34.7" font-family="Times,serif" font-size="14.00">web page</text>
</g>
<!-- SERVICE:web page&#45;&gt;SERVICE:bff -->
<g id="edge8" class="edge">
<title>SERVICE:web page&#45;&gt;SERVICE:bff</title>
<g id="a_edge8"><a xlink:title="edge#7">
<path fill="none" stroke="black" d="M77.88,-43.38C117.72,-47.96 179.82,-55.1 219.51,-59.66"/>
<polygon fill="black" stroke="black" points="218.97,-63.12 229.3,-60.79 219.77,-56.17 218.97,-63.12"/>
</a>
</g>
<text text-anchor="middle" x="154.38" y="-62.7" font-family="Times,serif" font-size="14.00">CALLS [rest] (sync)</text>
</g>
<!-- SERVICE:web page_split -->
<g id="node8" class="node">
<title>SERVICE:web page_split</title>
<path fill="#eef6ff" stroke="black" d="M406.12,-36C406.12,-36 318.12,-36 318.12,-36 312.12,-36 306.12,-30 306.12,-24 306.12,-24 306.12,-12 306.12,-12 306.12,-6 312.12,0 318.12,0 318.12,0 406.12,0 406.12,0 412.12,0 418.12,-6 418.12,-12 418.12,-12 418.12,-24 418.12,-24 418.12,-30 412.12,-36 406.12,-36"/>
<text text-anchor="middle" x="362.12" y="-13.7" font-family="Times,serif" font-size="14.00">web page_split</text>
</g>
<!-- SERVICE:web page&#45;&gt;SERVICE:web page_split -->
<g id="edge7" class="edge">
<title>SERVICE:web page&#45;&gt;SERVICE:web page_split</title>
<g id="a_edge7"><a xlink:title="edge#6">
<path fill="none" stroke="black" d="M77.85,-26.65C83.7,-25.16 89.72,-23.87 95.5,-23 162.64,-12.91 240.39,-12.77 294.35,-14.47"/>
<polygon fill="black" stroke="black" points="294.2,-17.97 304.32,-14.82 294.45,-10.98 294.2,-17.97"/>
</a>
</g>
<text text-anchor="middle" x="154.38" y="-27.7" font-family="Times,serif" font-size="14.00">CALLS [rest] (sync)</text>
</g>
<!-- SERVICE:orders -->
<g id="node4" class="node">
<title>SERVICE:orders</title>
<path fill="#eef6ff" stroke="black" d="M726.75,-133C726.75,-133 693.5,-133 693.5,-133 687.5,-133 681.5,-127 681.5,-121 681.5,-121 681.5,-109 681.5,-109 681.5,-103 687.5,-97 693.5,-97 693.5,-97 726.75,-97 726.75,-97 732.75,-97 738.75,-103 738.75,-109 738.75,-109 738.75,-121 738.75,-121 738.75,-127 732.75,-133 726.75,-133"/>
<text text-anchor="middle" x="710.12" y="-110.7" font-family="Times,serif" font-size="14.00">orders</text>
</g>
<!-- SERVICE:orders&#45;&gt;SERVICE:payments -->
<g id="edge6" class="edge">
<title>SERVICE:orders&#45;&gt;SERVICE:payments</title>
<g id="a_edge6"><a xlink:title="edge#5">
<path fill="none" stroke="black" d="M739.06,-99.88C744.78,-97.26 750.86,-94.8 756.75,-93 804.2,-78.51 860.55,-71.44 900.18,-68.04"/>
<polygon fill="black" stroke="black" points="900.21,-71.55 909.9,-67.26 899.65,-64.57 900.21,-71.55"/>
</a>
</g>
<text text-anchor="middle" x="815.62" y="-97.7" font-family="Times,serif" font-size="14.00">CALLS [rest] (sync)</text>
</g>
<!-- DATABASE:database -->
<g id="node7" class="node">
<title>DATABASE:database</title>
<path fill="#fff3cd" stroke="black" d="M1238.5,-139.73C1238.5,-141.53 1221.8,-143 1201.25,-143 1180.7,-143 1164,-141.53 1164,-139.73 1164,-139.73 1164,-110.27 1164,-110.27 1164,-108.47 1180.7,-107 1201.25,-107 1221.8,-107 1238.5,-108.47 1238.5,-110.27 1238.5,-110.27 1238.5,-139.73 1238.5,-139.73"/>
<path fill="none" stroke="black" d="M1238.5,-139.73C1238.5,-137.92 1221.8,-136.45 1201.25,-136.45 1180.7,-136.45 1164,-137.92 1164,-139.73"/>
<text text-anchor="middle" x="1201.25" y="-120.7" font-family="Times,serif" font-size="14.00">database</text>
</g>
<!-- SERVICE:orders&#45;&gt;DATABASE:database -->
<g id="edge2" class="edge">
<title>SERVICE:orders&#45;&gt;DATABASE:database</title>
<g id="a_edge2"><a xlink:title="edge#1">
<path fill="none" stroke="black" d="M739.18,-115.57C819.53,-117.22 1051.22,-121.95 1152.22,-124.02"/>
<polygon fill="black" stroke="black" points="1152,-127.51 1162.07,-124.22 1152.15,-120.52 1152,-127.51"/>
</a>
</g>
<text text-anchor="middle" x="951.38" y="-124.7" font-family="Times,serif" font-size="14.00">CALLS [rest] (sync)</text>
</g>
<!-- SERVICE:restaurants&#45;&gt;SERVICE:orders -->
<g id="edge5" class="edge">
<title>SERVICE:restaurants&#45;&gt;SERVICE:orders</title>
<g id="a_edge5"><a xlink:title="edge#4">
<path fill="none" stroke="black" d="M528.24,-115C569.43,-115 630.47,-115 670.03,-115"/>
<polygon fill="black" stroke="black" points="669.81,-118.5 679.81,-115 669.81,-111.5 669.81,-118.5"/>
</a>
</g>
<text text-anchor="middle" x="604.62" y="-119.7" font-family="Times,serif" font-size="14.00">CALLS [rest] (sync)</text>
</g>
<!-- SERVICE:restaurants&#45;&gt;DATABASE:database -->
<g id="edge3" class="edge">
<title>SERVICE:restaurants&#45;&gt;DATABASE:database</title>
<g id="a_edge3"><a xlink:title="edge#2">
<path fill="none" stroke="black" d="M528.17,-132.52C534.01,-134.32 539.97,-135.89 545.75,-137 605.03,-148.43 621.14,-140.89 681.5,-142 827.59,-144.69 864.17,-145.23 1010.25,-142 1070.63,-140.67 1086.06,-143.36 1146,-136 1148.06,-135.75 1150.15,-135.46 1152.26,-135.14"/>
<polygon fill="black" stroke="black" points="1152.83,-138.6 1162.12,-133.49 1151.67,-131.69 1152.83,-138.6"/>
</a>
</g>
<text text-anchor="middle" x="815.62" y="-148.7" font-family="Times,serif" font-size="14.00">CALLS [rest] (sync)</text>
</g>
<!-- SERVICE:payments&#45;&gt;DATABASE:database -->
<g id="edge4" class="edge">
<title>SERVICE:payments&#45;&gt;DATABASE:database</title>
<g id="a_edge4"><a xlink:title="edge#3">
<path fill="none" stroke="black" d="M991.27,-66.21C1031.13,-68.46 1094.42,-74.85 1146,-93 1152.34,-95.23 1158.77,-98.24 1164.87,-101.52"/>
<polygon fill="black" stroke="black" points="1163.04,-104.5 1173.46,-106.45 1166.53,-98.43 1163.04,-104.5"/>
</a>
</g>
<text text-anchor="middle" x="1087.12" y="-97.7" font-family="Times,serif" font-size="14.00">CALLS [rest] (sync)</text>
</g>
<!-- SERVICE:web page_split&#45;&gt;SERVICE:payments -->
<g id="edge1" class="edge">
<title>SERVICE:web page_split&#45;&gt;SERVICE:payments</title>
<g id="a_edge1"><a xlink:title="edge#0">
<path fill="none" stroke="black" d="M418.55,-16.21C478.88,-14.72 578.15,-13.62 663.5,-19 757.8,-24.95 781.72,-27.14 874.5,-45 882.96,-46.63 891.88,-48.67 900.51,-50.83"/>
<polygon fill="black" stroke="black" points="899.59,-54.21 910.15,-53.33 901.35,-47.43 899.59,-54.21"/>
</a>
</g>
<text text-anchor="middle" x="604.62" y="-23.7" font-family="Times,serif" font-size="14.00">CALLS [rest] (sync)</text>
</g>
</g>
</svg>
