<?xml version="1.0" encoding="UTF-8" standalone="no"?>
<!DOCTYPE svg PUBLIC "-//W3C//DTD SVG 1.1//EN"
 "http://www.w3.org/Graphics/SVG/1.1/DTD/svg11.dtd">
<!-- Generated by graphviz version 9.0.0 (20230911.1827)
 -->
<!-- Title: G Pages: 1 -->
<svg width="565pt" height="108pt"
 viewBox="0.00 0.00 565.00 108.00" xmlns="http://www.w3.org/2000/svg" xmlns:xlink="http://www.w3.org/1999/xlink">
<g id="graph0" class="graph" transform="scale(1 1) rotate(0) translate(4 104)">
<title>G</title>
<polygon fill="white" stroke="none" points="-4,4 -4,-104 561,-104 561,4 -4,4"/>
<text text-anchor="middle" x="278.5" y="-82.7" font-family="Helvetica,sans-Serif" font-size="14.00">Cycles Only</text>
<!-- SERVICE:service&#45;c -->
<g id="node1" class="node">
<title>SERVICE:service&#45;c</title>
<path fill="#eef6ff" stroke="black" d="M61,-36C61,-36 12,-36 12,-36 6,-36 0,-30 0,-24 0,-24 0,-12 0,-12 0,-6 6,0 12,0 12,0 61,0 61,0 67,0 73,-6 73,-12 73,-12 73,-24 73,-24 73,-30 67,-36 61,-36"/>
<text text-anchor="middle" x="36.5" y="-13.7" font-family="Times,serif" font-size="14.00">service&#45;c</text>
</g>
<!-- SERVICE:service&#45;a -->
<g id="node2" class="node">
<title>SERVICE:service&#45;a</title>
<path fill="#eef6ff" stroke="black" d="M302.62,-74C302.62,-74 252.88,-74 252.88,-74 246.88,-74 240.88,-68 240.88,-62 240.88,-62 240.88,-50 240.88,-50 240.88,-44 246.88,-38 252.88,-38 252.88,-38 302.62,-38 302.62,-38 308.62,-38 314.62,-44 314.62,-50 314.62,-50 314.62,-62 314.62,-62 314.62,-68 308.62,-74 302.62,-74"/>
<text text-anchor="middle" x="277.75" y="-51.7" font-family="Times,serif" font-size="14.00">service&#45;a</text>
</g>
<!-- SERVICE:service&#45;c&#45;&gt;SERVICE:service&#45;a -->
<g id="edge3" class="edge">
<title>SERVICE:service&#45;c&#45;&gt;SERVICE:service&#45;a</title>
<g id="a_edge3"><a xlink:title="edge#2">
<path fill="none" stroke="black" d="M73.32,-23.69C114.9,-30.29 183.62,-41.21 229.54,-48.5"/>
<polygon fill="black" stroke="black" points="228.77,-51.92 239.19,-50.03 229.87,-45.01 228.77,-51.92"/>
</a>
</g>
<text text-anchor="middle" x="147.25" y="-47.7" font-family="Times,serif" font-size="14.00">calls (1 ep), 10rpm</text>
</g>
<!-- SERVICE:service&#45;b -->
<g id="node3" class="node">
<title>SERVICE:service&#45;b</title>
<path fill="#eef6ff" stroke="black" d="M545,-36C545,-36 494.5,-36 494.5,-36 488.5,-36 482.5,-30 482.5,-24 482.5,-24 482.5,-12 482.5,-12 482.5,-6 488.5,0 494.5,0 494.5,0 545,0 545,0 551,0 557,-6 557,-12 557,-12 557,-24 557,-24 557,-30 551,-36 545,-36"/>
<text text-anchor="middle" x="519.75" y="-13.7" font-family="Times,serif" font-size="14.00">service&#45;b</text>
</g>
<!-- SERVICE:service&#45;a&#45;&gt;SERVICE:service&#45;b -->
<g id="edge1" class="edge">
<title>SERVICE:service&#45;a&#45;&gt;SERVICE:service&#45;b</title>
<g id="a_edge1"><a xlink:title="edge#0">
<path fill="none" stroke="black" d="M314.94,-50.27C356.59,-43.68 425.14,-32.82 471.1,-25.54"/>
<polygon fill="black" stroke="black" points="471.44,-29.03 480.77,-24.01 470.35,-22.12 471.44,-29.03"/>
</a>
</g>
<text text-anchor="middle" x="408.25" y="-47.7" font-family="Times,serif" font-size="14.00">calls (1 ep), 10rpm</text>
</g>
<!-- SERVICE:service&#45;b&#45;&gt;SERVICE:service&#45;c -->
<g id="edge2" class="edge">
<title>SERVICE:service&#45;b&#45;&gt;SERVICE:service&#45;c</title>
<g id="a_edge2"><a xlink:title="edge#1">
<path fill="none" stroke="black" d="M482.3,-16.21C445.05,-14.48 385.51,-11.98 334,-11 284.01,-10.05 271.49,-10.05 221.5,-11 175.07,-11.88 122.08,-14.02 84.93,-15.7"/>
<polygon fill="black" stroke="black" points="84.79,-12.2 74.96,-16.16 85.11,-19.19 84.79,-12.2"/>
</a>
</g>
<text text-anchor="middle" x="277.75" y="-15.7" font-family="Times,serif" font-size="14.00">calls (1 ep), 10rpm</text>
</g>
</g>
</svg>
