<?xml version="1.0" encoding="UTF-8" standalone="no"?>
<!DOCTYPE svg PUBLIC "-//W3C//DTD SVG 1.1//EN"
 "http://www.w3.org/Graphics/SVG/1.1/DTD/svg11.dtd">
<!-- Generated by graphviz version 9.0.0 (20230911.1827)
 -->
<!-- Title: G Pages: 1 -->
<svg width="838pt" height="211pt"
 viewBox="0.00 0.00 837.75 211.00" xmlns="http://www.w3.org/2000/svg" xmlns:xlink="http://www.w3.org/1999/xlink">
<g id="graph0" class="graph" transform="scale(1 1) rotate(0) translate(4 207)">
<title>G</title>
<polygon fill="white" stroke="none" points="-4,4 -4,-207 833.75,-207 833.75,4 -4,4"/>
<text text-anchor="middle" x="414.88" y="-185.7" font-family="Helvetica,sans-Serif" font-size="14.00">dsada</text>
<!-- SERVICE:api&#45;gateway -->
<g id="node1" class="node">
<title>SERVICE:api&#45;gateway</title>
<path fill="#eef6ff" stroke="black" d="M83.5,-94C83.5,-94 12,-94 12,-94 6,-94 0,-88 0,-82 0,-82 0,-70 0,-70 0,-64 6,-58 12,-58 12,-58 83.5,-58 83.5,-58 89.5,-58 95.5,-64 95.5,-70 95.5,-70 95.5,-82 95.5,-82 95.5,-88 89.5,-94 83.5,-94"/>
<text text-anchor="middle" x="47.75" y="-71.7" font-family="Times,serif" font-size="14.00">api&#45;gateway</text>
</g>
<!-- SERVICE:user&#45;service -->
<g id="node2" class="node">
<title>SERVICE:user&#45;service</title>
<path fill="#eef6ff" stroke="black" d="M342.12,-122C342.12,-122 272.88,-122 272.88,-122 266.88,-122 260.88,-116 260.88,-110 260.88,-110 260.88,-98 260.88,-98 260.88,-92 266.88,-86 272.88,-86 272.88,-86 342.12,-86 342.12,-86 348.12,-86 354.12,-92 354.12,-98 354.12,-98 354.12,-110 354.12,-110 354.12,-116 348.12,-122 342.12,-122"/>
<text text-anchor="middle" x="307.5" y="-99.7" font-family="Times,serif" font-size="14.00">user&#45;service</text>
</g>
<!-- SERVICE:api&#45;gateway&#45;&gt;SERVICE:user&#45;service -->
<g id="edge1" class="edge">
<title>SERVICE:api&#45;gateway&#45;&gt;SERVICE:user&#45;service</title>
<g id="a_edge1"><a xlink:title="edge#0">
<path fill="none" stroke="black" d="M95.73,-81.1C138.96,-85.8 203.2,-92.78 249.38,-97.8"/>
<polygon fill="black" stroke="black" points="248.89,-101.26 259.21,-98.86 249.65,-94.3 248.89,-101.26"/>
</a>
</g>
<text text-anchor="middle" x="175" y="-99.7" font-family="Times,serif" font-size="14.00">calls (1 ep), 600rpm</text>
</g>
<!-- SERVICE:billing&#45;service -->
<g id="node4" class="node">
<title>SERVICE:billing&#45;service</title>
<path fill="#eef6ff" stroke="black" d="M348.5,-68C348.5,-68 266.5,-68 266.5,-68 260.5,-68 254.5,-62 254.5,-56 254.5,-56 254.5,-44 254.5,-44 254.5,-38 260.5,-32 266.5,-32 266.5,-32 348.5,-32 348.5,-32 354.5,-32 360.5,-38 360.5,-44 360.5,-44 360.5,-56 360.5,-56 360.5,-62 354.5,-68 348.5,-68"/>
<text text-anchor="middle" x="307.5" y="-45.7" font-family="Times,serif" font-size="14.00">billing&#45;service</text>
</g>
<!-- SERVICE:api&#45;gateway&#45;&gt;SERVICE:billing&#45;service -->
<g id="edge2" class="edge">
<title>SERVICE:api&#45;gateway&#45;&gt;SERVICE:billing&#45;service</title>
<g id="a_edge2"><a xlink:title="edge#1">
<path fill="none" stroke="black" d="M95.93,-63.24C101.81,-61.98 107.77,-60.85 113.5,-60 156.36,-53.65 205.09,-51.16 242.87,-50.26"/>
<polygon fill="black" stroke="black" points="242.78,-53.76 252.7,-50.06 242.63,-46.76 242.78,-53.76"/>
</a>
</g>
<text text-anchor="middle" x="175" y="-64.7" font-family="Times,serif" font-size="14.00">calls (1 ep), 300rpm</text>
</g>
<!-- SERVICE:auth&#45;service -->
<g id="node3" class="node">
<title>SERVICE:auth&#45;service</title>
<path fill="#eef6ff" stroke="black" d="M616.12,-176C616.12,-176 545.38,-176 545.38,-176 539.38,-176 533.38,-170 533.38,-164 533.38,-164 533.38,-152 533.38,-152 533.38,-146 539.38,-140 545.38,-140 545.38,-140 616.12,-140 616.12,-140 622.12,-140 628.12,-146 628.12,-152 628.12,-152 628.12,-164 628.12,-164 628.12,-170 622.12,-176 616.12,-176"/>
<text text-anchor="middle" x="580.75" y="-153.7" font-family="Times,serif" font-size="14.00">auth&#45;service</text>
</g>
<!-- SERVICE:user&#45;service&#45;&gt;SERVICE:auth&#45;service -->
<g id="edge3" class="edge">
<title>SERVICE:user&#45;service&#45;&gt;SERVICE:auth&#45;service</title>
<g id="a_edge3"><a xlink:title="edge#2">
<path fill="none" stroke="black" d="M354.44,-113.2C362.46,-114.8 370.72,-116.45 378.5,-118 426.77,-127.62 481.57,-138.51 521.78,-146.5"/>
<polygon fill="black" stroke="black" points="521.01,-149.91 531.5,-148.43 522.37,-143.05 521.01,-149.91"/>
</a>
</g>
<text text-anchor="middle" x="440" y="-145.7" font-family="Times,serif" font-size="14.00">calls (1 ep), 600rpm</text>
</g>
<!-- DATABASE:users&#45;db -->
<g id="node6" class="node">
<title>DATABASE:users&#45;db</title>
<path fill="#fff3cd" stroke="black" d="M815.12,-151.73C815.12,-153.53 798.93,-155 779,-155 759.07,-155 742.88,-153.53 742.88,-151.73 742.88,-151.73 742.88,-122.27 742.88,-122.27 742.88,-120.47 759.07,-119 779,-119 798.93,-119 815.12,-120.47 815.12,-122.27 815.12,-122.27 815.12,-151.73 815.12,-151.73"/>
<path fill="none" stroke="black" d="M815.12,-151.73C815.12,-149.92 798.93,-148.45 779,-148.45 759.07,-148.45 742.88,-149.92 742.88,-151.73"/>
<text text-anchor="middle" x="779" y="-132.7" font-family="Times,serif" font-size="14.00">users&#45;db</text>
</g>
<!-- SERVICE:user&#45;service&#45;&gt;DATABASE:users&#45;db -->
<g id="edge4" class="edge">
<title>SERVICE:user&#45;service&#45;&gt;DATABASE:users&#45;db</title>
<g id="a_edge4"><a xlink:title="edge#3">
<path fill="none" stroke="black" d="M354.49,-103.1C418.94,-102.33 539.71,-102.65 642,-113 671.92,-116.03 705.17,-121.85 731.31,-127"/>
<polygon fill="black" stroke="black" points="730.43,-130.4 740.92,-128.94 731.81,-123.53 730.43,-130.4"/>
</a>
</g>
<text text-anchor="middle" x="580.75" y="-117.7" font-family="Times,serif" font-size="14.00">READS</text>
</g>
<!-- SERVICE:auth&#45;service&#45;&gt;DATABASE:users&#45;db -->
<g id="edge5" class="edge">
<title>SERVICE:auth&#45;service&#45;&gt;DATABASE:users&#45;db</title>
<g id="a_edge5"><a xlink:title="edge#4">
<path fill="none" stroke="black" d="M628.37,-160.15C652.87,-160.56 683.31,-159.92 710.25,-156 717.23,-154.98 724.51,-153.46 731.6,-151.71"/>
<polygon fill="black" stroke="black" points="732.28,-155.15 741.04,-149.2 730.48,-148.38 732.28,-155.15"/>
</a>
</g>
<text text-anchor="middle" x="685.12" y="-163.7" font-family="Times,serif" font-size="14.00">READS</text>
</g>
<!-- SERVICE:auth&#45;service&#45;&gt;DATABASE:users&#45;db -->
<g id="edge6" class="edge">
<title>SERVICE:auth&#45;service&#45;&gt;DATABASE:users&#45;db</title>
<g id="a_edge6"><a xlink:title="edge#5">
<path fill="none" stroke="black" d="M628.4,-141.22C638.68,-138.22 649.6,-135.56 660,-134 682.09,-130.69 687.92,-133.51 710.25,-134 716.96,-134.15 724.04,-134.38 731,-134.65"/>
<polygon fill="black" stroke="black" points="730.85,-138.15 740.98,-135.07 731.14,-131.15 730.85,-138.15"/>
</a>
</g>
<text text-anchor="middle" x="685.12" y="-138.7" font-family="Times,serif" font-size="14.00">WRITES</text>
</g>
<!-- SERVICE:payment&#45;service -->
<g id="node5" class="node">
<title>SERVICE:payment&#45;service</title>
<path fill="#eef6ff" stroke="black" d="M630,-68C630,-68 531.5,-68 531.5,-68 525.5,-68 519.5,-62 519.5,-56 519.5,-56 519.5,-44 519.5,-44 519.5,-38 525.5,-32 531.5,-32 531.5,-32 630,-32 630,-32 636,-32 642,-38 642,-44 642,-44 642,-56 642,-56 642,-62 636,-68 630,-68"/>
<text text-anchor="middle" x="580.75" y="-45.7" font-family="Times,serif" font-size="14.00">payment&#45;service</text>
</g>
<!-- SERVICE:billing&#45;service&#45;&gt;SERVICE:payment&#45;service -->
<g id="edge7" class="edge">
<title>SERVICE:billing&#45;service&#45;&gt;SERVICE:payment&#45;service</title>
<g id="a_edge7"><a xlink:title="edge#6">
<path fill="none" stroke="black" d="M360.8,-50C402.52,-50 461.43,-50 507.63,-50"/>
<polygon fill="black" stroke="black" points="507.57,-53.5 517.57,-50 507.57,-46.5 507.57,-53.5"/>
</a>
</g>
<text text-anchor="middle" x="440" y="-54.7" font-family="Times,serif" font-size="14.00">calls (1 ep), 500rpm</text>
</g>
<!-- DATABASE:payments&#45;db -->
<g id="node7" class="node">
<title>DATABASE:payments&#45;db</title>
<path fill="#fff3cd" stroke="black" d="M829.75,-32.73C829.75,-34.53 807,-36 779,-36 751,-36 728.25,-34.53 728.25,-32.73 728.25,-32.73 728.25,-3.27 728.25,-3.27 728.25,-1.47 751,0 779,0 807,0 829.75,-1.47 829.75,-3.27 829.75,-3.27 829.75,-32.73 829.75,-32.73"/>
<path fill="none" stroke="black" d="M829.75,-32.73C829.75,-30.92 807,-29.45 779,-29.45 751,-29.45 728.25,-30.92 728.25,-32.73"/>
<text text-anchor="middle" x="779" y="-13.7" font-family="Times,serif" font-size="14.00">payments&#45;db</text>
</g>
<!-- SERVICE:billing&#45;service&#45;&gt;DATABASE:payments&#45;db -->
<g id="edge8" class="edge">
<title>SERVICE:billing&#45;service&#45;&gt;DATABASE:payments&#45;db</title>
<g id="a_edge8"><a xlink:title="edge#7">
<path fill="none" stroke="black" d="M360.9,-35.61C403.3,-24.75 464.74,-10.77 519.5,-5 573.64,0.71 587.62,-2.41 642,-5 666.53,-6.17 693.47,-8.52 716.86,-10.91"/>
<polygon fill="black" stroke="black" points="716.21,-14.36 726.52,-11.92 716.94,-7.39 716.21,-14.36"/>
</a>
</g>
<text text-anchor="middle" x="580.75" y="-9.7" font-family="Times,serif" font-size="14.00">READS</text>
</g>
<!-- SERVICE:payment&#45;service&#45;&gt;DATABASE:payments&#45;db -->
<g id="edge9" class="edge">
<title>SERVICE:payment&#45;service&#45;&gt;DATABASE:payments&#45;db</title>
<g id="a_edge9"><a xlink:title="edge#8">
<path fill="none" stroke="black" d="M642.23,-40.14C665.85,-36.29 692.89,-31.88 716.6,-28.01"/>
<polygon fill="black" stroke="black" points="717.13,-31.47 726.44,-26.41 716.01,-24.56 717.13,-31.47"/>
</a>
</g>
<text text-anchor="middle" x="685.12" y="-40.7" font-family="Times,serif" font-size="14.00">WRITES</text>
</g>
</g>
</svg>
