<?xml version="1.0" encoding="UTF-8" standalone="no"?>
<!DOCTYPE svg PUBLIC "-//W3C//DTD SVG 1.1//EN"
 "http://www.w3.org/Graphics/SVG/1.1/DTD/svg11.dtd">
<!-- Generated by graphviz version 9.0.0 (20230911.1827)
 -->
<!-- Title: G Pages: 1 -->
<svg width="1296pt" height="512pt"
 viewBox="0.00 0.00 1295.50 511.54" xmlns="http://www.w3.org/2000/svg" xmlns:xlink="http://www.w3.org/1999/xlink">
<g id="graph0" class="graph" transform="scale(1 1) rotate(0) translate(4 507.54)">
<title>G</title>
<polygon fill="white" stroke="none" points="-4,4 -4,-507.54 1291.5,-507.54 1291.5,4 -4,4"/>
<text text-anchor="middle" x="643.75" y="-486.24" font-family="Helvetica,sans-Serif" font-size="14.00">Architecture</text>
<!-- SERVICE:notification&#45;service -->
<g id="node1" class="node">
<title>SERVICE:notification&#45;service</title>
<path fill="#eef6ff" stroke="black" d="M1087.75,-291.54C1087.75,-291.54 972,-291.54 972,-291.54 966,-291.54 960,-285.54 960,-279.54 960,-279.54 960,-267.54 960,-267.54 960,-261.54 966,-255.54 972,-255.54 972,-255.54 1087.75,-255.54 1087.75,-255.54 1093.75,-255.54 1099.75,-261.54 1099.75,-267.54 1099.75,-267.54 1099.75,-279.54 1099.75,-279.54 1099.75,-285.54 1093.75,-291.54 1087.75,-291.54"/>
<text text-anchor="middle" x="1029.88" y="-269.24" font-family="Times,serif" font-size="14.00">notification&#45;service</text>
</g>
<!-- SERVICE:order&#45;service_split -->
<g id="node2" class="node">
<title>SERVICE:order&#45;service_split</title>
<path fill="#eef6ff" stroke="black" d="M772.5,-293.54C772.5,-293.54 661.25,-293.54 661.25,-293.54 655.25,-293.54 649.25,-287.54 649.25,-281.54 649.25,-281.54 649.25,-269.54 649.25,-269.54 649.25,-263.54 655.25,-257.54 661.25,-257.54 661.25,-257.54 772.5,-257.54 772.5,-257.54 778.5,-257.54 784.5,-263.54 784.5,-269.54 784.5,-269.54 784.5,-281.54 784.5,-281.54 784.5,-287.54 778.5,-293.54 772.5,-293.54"/>
<text text-anchor="middle" x="716.88" y="-271.24" font-family="Times,serif" font-size="14.00">order&#45;service_split</text>
</g>
<!-- SERVICE:order&#45;service_split&#45;&gt;SERVICE:notification&#45;service -->
<g id="edge17" class="edge">
<title>SERVICE:order&#45;service_split&#45;&gt;SERVICE:notification&#45;service</title>
<g id="a_edge17"><a xlink:title="edge#16">
<path fill="none" stroke="black" d="M784.97,-275.1C832.95,-274.79 897.74,-274.38 948.48,-274.05"/>
<polygon fill="black" stroke="black" points="948.25,-277.55 958.23,-273.99 948.21,-270.55 948.25,-277.55"/>
</a>
</g>
<text text-anchor="middle" x="881.25" y="-280.24" font-family="Times,serif" font-size="14.00">calls (1 ep), 220rpm</text>
</g>
<!-- SERVICE:billing&#45;service -->
<g id="node6" class="node">
<title>SERVICE:billing&#45;service</title>
<path fill="#eef6ff" stroke="black" d="M1070.88,-355.54C1070.88,-355.54 988.88,-355.54 988.88,-355.54 982.88,-355.54 976.88,-349.54 976.88,-343.54 976.88,-343.54 976.88,-331.54 976.88,-331.54 976.88,-325.54 982.88,-319.54 988.88,-319.54 988.88,-319.54 1070.88,-319.54 1070.88,-319.54 1076.88,-319.54 1082.88,-325.54 1082.88,-331.54 1082.88,-331.54 1082.88,-343.54 1082.88,-343.54 1082.88,-349.54 1076.88,-355.54 1070.88,-355.54"/>
<text text-anchor="middle" x="1029.88" y="-333.24" font-family="Times,serif" font-size="14.00">billing&#45;service</text>
</g>
<!-- SERVICE:order&#45;service_split&#45;&gt;SERVICE:billing&#45;service -->
<g id="edge16" class="edge">
<title>SERVICE:order&#45;service_split&#45;&gt;SERVICE:billing&#45;service</title>
<g id="a_edge16"><a xlink:title="edge#15">
<path fill="none" stroke="black" d="M784.9,-290.12C796.75,-292.64 808.98,-295.2 820.5,-297.54 869.01,-307.39 924,-317.92 965.31,-325.7"/>
<polygon fill="black" stroke="black" points="964.61,-329.13 975.09,-327.54 965.91,-322.25 964.61,-329.13"/>
</a>
</g>
<text text-anchor="middle" x="881.25" y="-325.24" font-family="Times,serif" font-size="14.00">calls (1 ep), 36rpm</text>
</g>
<!-- SERVICE:search&#45;service -->
<g id="node8" class="node">
<title>SERVICE:search&#45;service</title>
<path fill="#eef6ff" stroke="black" d="M1072,-217.54C1072,-217.54 987.75,-217.54 987.75,-217.54 981.75,-217.54 975.75,-211.54 975.75,-205.54 975.75,-205.54 975.75,-193.54 975.75,-193.54 975.75,-187.54 981.75,-181.54 987.75,-181.54 987.75,-181.54 1072,-181.54 1072,-181.54 1078,-181.54 1084,-187.54 1084,-193.54 1084,-193.54 1084,-205.54 1084,-205.54 1084,-211.54 1078,-217.54 1072,-217.54"/>
<text text-anchor="middle" x="1029.88" y="-195.24" font-family="Times,serif" font-size="14.00">search&#45;service</text>
</g>
<!-- SERVICE:order&#45;service_split&#45;&gt;SERVICE:search&#45;service -->
<g id="edge18" class="edge">
<title>SERVICE:order&#45;service_split&#45;&gt;SERVICE:search&#45;service</title>
<g id="a_edge18"><a xlink:title="edge#17">
<path fill="none" stroke="black" d="M784.97,-259.14C838.15,-246.14 911.99,-228.1 964.46,-215.28"/>
<polygon fill="black" stroke="black" points="964.96,-218.76 973.84,-212.98 963.3,-211.96 964.96,-218.76"/>
</a>
</g>
<text text-anchor="middle" x="881.25" y="-254.24" font-family="Times,serif" font-size="14.00">calls (1 ep), 180rpm</text>
</g>
<!-- DATABASE:orders&#45;db_inventory&#45;service -->
<g id="node3" class="node">
<title>DATABASE:orders&#45;db_inventory&#45;service</title>
<path fill="#fff3cd" stroke="black" d="M473,-474.26C473,-476.07 428.91,-477.54 374.62,-477.54 320.34,-477.54 276.25,-476.07 276.25,-474.26 276.25,-474.26 276.25,-444.81 276.25,-444.81 276.25,-443 320.34,-441.54 374.62,-441.54 428.91,-441.54 473,-443 473,-444.81 473,-444.81 473,-474.26 473,-474.26"/>
<path fill="none" stroke="black" d="M473,-474.26C473,-472.46 428.91,-470.99 374.62,-470.99 320.34,-470.99 276.25,-472.46 276.25,-474.26"/>
<text text-anchor="middle" x="374.62" y="-455.24" font-family="Times,serif" font-size="14.00">orders&#45;db_inventory&#45;service</text>
</g>
<!-- SERVICE:api&#45;gateway -->
<g id="node4" class="node">
<title>SERVICE:api&#45;gateway</title>
<path fill="#eef6ff" stroke="black" d="M98.88,-207.54C98.88,-207.54 27.38,-207.54 27.38,-207.54 21.38,-207.54 15.38,-201.54 15.38,-195.54 15.38,-195.54 15.38,-183.54 15.38,-183.54 15.38,-177.54 21.38,-171.54 27.38,-171.54 27.38,-171.54 98.88,-171.54 98.88,-171.54 104.88,-171.54 110.88,-177.54 110.88,-183.54 110.88,-183.54 110.88,-195.54 110.88,-195.54 110.88,-201.54 104.88,-207.54 98.88,-207.54"/>
<text text-anchor="middle" x="63.12" y="-185.24" font-family="Times,serif" font-size="14.00">api&#45;gateway</text>
</g>
<!-- SERVICE:order&#45;service -->
<g id="node13" class="node">
<title>SERVICE:order&#45;service</title>
<path fill="#eef6ff" stroke="black" d="M413,-207.54C413,-207.54 336.25,-207.54 336.25,-207.54 330.25,-207.54 324.25,-201.54 324.25,-195.54 324.25,-195.54 324.25,-183.54 324.25,-183.54 324.25,-177.54 330.25,-171.54 336.25,-171.54 336.25,-171.54 413,-171.54 413,-171.54 419,-171.54 425,-177.54 425,-183.54 425,-183.54 425,-195.54 425,-195.54 425,-201.54 419,-207.54 413,-207.54"/>
<text text-anchor="middle" x="374.62" y="-185.24" font-family="Times,serif" font-size="14.00">order&#45;service</text>
</g>
<!-- SERVICE:api&#45;gateway&#45;&gt;SERVICE:order&#45;service -->
<g id="edge1" class="edge">
<title>SERVICE:api&#45;gateway&#45;&gt;SERVICE:order&#45;service</title>
<g id="a_edge1"><a xlink:title="edge#0">
<path fill="none" stroke="black" d="M111.13,-189.54C164.95,-189.54 253.3,-189.54 312.44,-189.54"/>
<polygon fill="black" stroke="black" points="312.35,-193.04 322.35,-189.54 312.35,-186.04 312.35,-193.04"/>
</a>
</g>
<text text-anchor="middle" x="201.25" y="-194.24" font-family="Times,serif" font-size="14.00">calls (1 ep), 30rpm</text>
</g>
<!-- SERVICE:inventory&#45;service -->
<g id="node5" class="node">
<title>SERVICE:inventory&#45;service</title>
<path fill="#eef6ff" stroke="black" d="M114.25,-377.54C114.25,-377.54 12,-377.54 12,-377.54 6,-377.54 0,-371.54 0,-365.54 0,-365.54 0,-353.54 0,-353.54 0,-347.54 6,-341.54 12,-341.54 12,-341.54 114.25,-341.54 114.25,-341.54 120.25,-341.54 126.25,-347.54 126.25,-353.54 126.25,-353.54 126.25,-365.54 126.25,-365.54 126.25,-371.54 120.25,-377.54 114.25,-377.54"/>
<text text-anchor="middle" x="63.12" y="-355.24" font-family="Times,serif" font-size="14.00">inventory&#45;service</text>
</g>
<!-- SERVICE:inventory&#45;service&#45;&gt;DATABASE:orders&#45;db_inventory&#45;service -->
<g id="edge12" class="edge">
<title>SERVICE:inventory&#45;service&#45;&gt;DATABASE:orders&#45;db_inventory&#45;service</title>
<g id="a_edge12"><a xlink:title="edge#11">
<path fill="none" stroke="black" d="M87.37,-377.94C102.72,-389.22 123.71,-403.07 144.25,-411.54 182.16,-427.16 225.77,-437.92 264.72,-445.23"/>
<polygon fill="black" stroke="black" points="263.89,-448.64 274.35,-446.98 265.14,-441.75 263.89,-448.64"/>
</a>
</g>
<text text-anchor="middle" x="201.25" y="-447.24" font-family="Times,serif" font-size="14.00">WRITES</text>
</g>
<!-- SERVICE:inventory&#45;service&#45;&gt;SERVICE:billing&#45;service -->
<g id="edge10" class="edge">
<title>SERVICE:inventory&#45;service&#45;&gt;SERVICE:billing&#45;service</title>
<g id="a_edge10"><a xlink:title="edge#9">
<path fill="none" stroke="black" d="M126.68,-359.14C270.62,-358.06 636.4,-354.28 942,-342.54 949.51,-342.25 957.37,-341.88 965.18,-341.48"/>
<polygon fill="black" stroke="black" points="965.21,-344.98 975.01,-340.95 964.83,-337.99 965.21,-344.98"/>
</a>
</g>
<text text-anchor="middle" x="552.12" y="-358.24" font-family="Times,serif" font-size="14.00">calls (1 ep), 32rpm</text>
</g>
<!-- DATABASE:orders&#45;db -->
<g id="node9" class="node">
<title>DATABASE:orders&#45;db</title>
<path fill="#fff3cd" stroke="black" d="M414.5,-420.26C414.5,-422.07 396.63,-423.54 374.62,-423.54 352.62,-423.54 334.75,-422.07 334.75,-420.26 334.75,-420.26 334.75,-390.81 334.75,-390.81 334.75,-389 352.62,-387.54 374.62,-387.54 396.63,-387.54 414.5,-389 414.5,-390.81 414.5,-390.81 414.5,-420.26 414.5,-420.26"/>
<path fill="none" stroke="black" d="M414.5,-420.26C414.5,-418.46 396.63,-416.99 374.62,-416.99 352.62,-416.99 334.75,-418.46 334.75,-420.26"/>
<text text-anchor="middle" x="374.62" y="-401.24" font-family="Times,serif" font-size="14.00">orders&#45;db</text>
</g>
<!-- SERVICE:inventory&#45;service&#45;&gt;DATABASE:orders&#45;db -->
<g id="edge11" class="edge">
<title>SERVICE:inventory&#45;service&#45;&gt;DATABASE:orders&#45;db</title>
<g id="a_edge11"><a xlink:title="edge#10">
<path fill="none" stroke="black" d="M126.64,-370.67C132.59,-371.67 138.53,-372.64 144.25,-373.54 205.77,-383.2 276.8,-392.88 323.32,-399.02"/>
<polygon fill="black" stroke="black" points="322.73,-402.48 333.1,-400.31 323.64,-395.54 322.73,-402.48"/>
</a>
</g>
<text text-anchor="middle" x="201.25" y="-394.24" font-family="Times,serif" font-size="14.00">READS</text>
</g>
<!-- SERVICE:inventory&#45;service&#45;&gt;SERVICE:order&#45;service -->
<g id="edge9" class="edge">
<title>SERVICE:inventory&#45;service&#45;&gt;SERVICE:order&#45;service</title>
<g id="a_edge9"><a xlink:title="edge#8">
<path fill="none" stroke="black" d="M108.85,-341.07C120.33,-336.49 132.7,-331.71 144.25,-327.54 194.35,-309.42 211.93,-316.84 258.25,-290.54 293.56,-270.49 327.74,-238.48 349.62,-215.88"/>
<polygon fill="black" stroke="black" points="351.97,-218.47 356.33,-208.82 346.9,-213.65 351.97,-218.47"/>
</a>
</g>
<text text-anchor="middle" x="201.25" y="-332.24" font-family="Times,serif" font-size="14.00">calls (1 ep), 82rpm</text>
</g>
<!-- DATABASE:payments&#45;db -->
<g id="node10" class="node">
<title>DATABASE:payments&#45;db</title>
<path fill="#fff3cd" stroke="black" d="M1287.5,-351.26C1287.5,-353.07 1264.75,-354.54 1236.75,-354.54 1208.75,-354.54 1186,-353.07 1186,-351.26 1186,-351.26 1186,-321.81 1186,-321.81 1186,-320 1208.75,-318.54 1236.75,-318.54 1264.75,-318.54 1287.5,-320 1287.5,-321.81 1287.5,-321.81 1287.5,-351.26 1287.5,-351.26"/>
<path fill="none" stroke="black" d="M1287.5,-351.26C1287.5,-349.46 1264.75,-347.99 1236.75,-347.99 1208.75,-347.99 1186,-349.46 1186,-351.26"/>
<text text-anchor="middle" x="1236.75" y="-332.24" font-family="Times,serif" font-size="14.00">payments&#45;db</text>
</g>
<!-- SERVICE:billing&#45;service&#45;&gt;DATABASE:payments&#45;db -->
<g id="edge13" class="edge">
<title>SERVICE:billing&#45;service&#45;&gt;DATABASE:payments&#45;db</title>
<g id="a_edge13"><a xlink:title="edge#12">
<path fill="none" stroke="black" d="M1083.37,-337.28C1111.11,-337.14 1145.31,-336.98 1174.28,-336.84"/>
<polygon fill="black" stroke="black" points="1174.02,-340.34 1184,-336.79 1173.98,-333.34 1174.02,-340.34"/>
</a>
</g>
<text text-anchor="middle" x="1142.88" y="-341.24" font-family="Times,serif" font-size="14.00">READS</text>
</g>
<!-- SERVICE:billing&#45;service&#45;&gt;DATABASE:payments&#45;db -->
<g id="edge14" class="edge">
<title>SERVICE:billing&#45;service&#45;&gt;DATABASE:payments&#45;db</title>
<g id="a_edge14"><a xlink:title="edge#13">
<path fill="none" stroke="black" d="M1083.26,-320.73C1108.8,-314.58 1139.99,-310.1 1168,-314.54 1171.37,-315.07 1174.81,-315.74 1178.25,-316.52"/>
<polygon fill="black" stroke="black" points="1177.18,-319.86 1187.74,-318.94 1178.91,-313.08 1177.18,-319.86"/>
</a>
</g>
<text text-anchor="middle" x="1142.88" y="-319.24" font-family="Times,serif" font-size="14.00">WRITES</text>
</g>
<!-- SERVICE:user&#45;service -->
<g id="node7" class="node">
<title>SERVICE:user&#45;service</title>
<path fill="#eef6ff" stroke="black" d="M751.5,-126.54C751.5,-126.54 682.25,-126.54 682.25,-126.54 676.25,-126.54 670.25,-120.54 670.25,-114.54 670.25,-114.54 670.25,-102.54 670.25,-102.54 670.25,-96.54 676.25,-90.54 682.25,-90.54 682.25,-90.54 751.5,-90.54 751.5,-90.54 757.5,-90.54 763.5,-96.54 763.5,-102.54 763.5,-102.54 763.5,-114.54 763.5,-114.54 763.5,-120.54 757.5,-126.54 751.5,-126.54"/>
<text text-anchor="middle" x="716.88" y="-104.24" font-family="Times,serif" font-size="14.00">user&#45;service</text>
</g>
<!-- DATABASE:users&#45;db -->
<g id="node11" class="node">
<title>DATABASE:users&#45;db</title>
<path fill="#fff3cd" stroke="black" d="M1066,-42.26C1066,-44.07 1049.81,-45.54 1029.88,-45.54 1009.94,-45.54 993.75,-44.07 993.75,-42.26 993.75,-42.26 993.75,-12.81 993.75,-12.81 993.75,-11 1009.94,-9.54 1029.88,-9.54 1049.81,-9.54 1066,-11 1066,-12.81 1066,-12.81 1066,-42.26 1066,-42.26"/>
<path fill="none" stroke="black" d="M1066,-42.26C1066,-40.46 1049.81,-38.99 1029.88,-38.99 1009.94,-38.99 993.75,-40.46 993.75,-42.26"/>
<text text-anchor="middle" x="1029.88" y="-23.24" font-family="Times,serif" font-size="14.00">users&#45;db</text>
</g>
<!-- SERVICE:user&#45;service&#45;&gt;DATABASE:users&#45;db -->
<g id="edge15" class="edge">
<title>SERVICE:user&#45;service&#45;&gt;DATABASE:users&#45;db</title>
<g id="a_edge15"><a xlink:title="edge#14">
<path fill="none" stroke="black" d="M763.76,-96.58C822.5,-81.29 923.67,-54.93 982.59,-39.59"/>
<polygon fill="black" stroke="black" points="983.18,-43.05 991.97,-37.15 981.41,-36.28 983.18,-43.05"/>
</a>
</g>
<text text-anchor="middle" x="881.25" y="-85.24" font-family="Times,serif" font-size="14.00">READS</text>
</g>
<!-- DATABASE:orders&#45;db_order&#45;service -->
<g id="node12" class="node">
<title>DATABASE:orders&#45;db_order&#45;service</title>
<path fill="#fff3cd" stroke="black" d="M802.5,-69.26C802.5,-71.07 764.12,-72.54 716.88,-72.54 669.63,-72.54 631.25,-71.07 631.25,-69.26 631.25,-69.26 631.25,-39.81 631.25,-39.81 631.25,-38 669.63,-36.54 716.88,-36.54 764.12,-36.54 802.5,-38 802.5,-39.81 802.5,-39.81 802.5,-69.26 802.5,-69.26"/>
<path fill="none" stroke="black" d="M802.5,-69.26C802.5,-67.46 764.12,-65.99 716.88,-65.99 669.63,-65.99 631.25,-67.46 631.25,-69.26"/>
<text text-anchor="middle" x="716.88" y="-50.24" font-family="Times,serif" font-size="14.00">orders&#45;db_order&#45;service</text>
</g>
<!-- SERVICE:order&#45;service&#45;&gt;SERVICE:notification&#45;service -->
<g id="edge5" class="edge">
<title>SERVICE:order&#45;service&#45;&gt;SERVICE:notification&#45;service</title>
<g id="a_edge5"><a xlink:title="edge#4">
<path fill="none" stroke="black" d="M425.49,-191.45C554.6,-196.6 893.17,-211.28 942,-225.54 959.91,-230.77 978.21,-240.16 993.37,-249.26"/>
<polygon fill="black" stroke="black" points="991.22,-252.04 1001.56,-254.35 994.91,-246.09 991.22,-252.04"/>
</a>
</g>
<text text-anchor="middle" x="716.88" y="-215.24" font-family="Times,serif" font-size="14.00">calls (1 ep), 220rpm</text>
</g>
<!-- SERVICE:order&#45;service&#45;&gt;SERVICE:order&#45;service_split -->
<g id="edge4" class="edge">
<title>SERVICE:order&#45;service&#45;&gt;SERVICE:order&#45;service_split</title>
<g id="a_edge4"><a xlink:title="edge#3">
<path fill="none" stroke="black" d="M422.57,-207.95C443.32,-215.63 468.15,-224.22 491,-230.54 539.19,-243.84 594.21,-254.92 637.76,-262.76"/>
<polygon fill="black" stroke="black" points="636.92,-266.16 647.38,-264.47 638.14,-259.27 636.92,-266.16"/>
</a>
</g>
<text text-anchor="middle" x="552.12" y="-263.24" font-family="Times,serif" font-size="14.00">calls (1 ep), 30rpm</text>
</g>
<!-- SERVICE:order&#45;service&#45;&gt;SERVICE:inventory&#45;service -->
<g id="edge2" class="edge">
<title>SERVICE:order&#45;service&#45;&gt;SERVICE:inventory&#45;service</title>
<g id="a_edge2"><a xlink:title="edge#1">
<path fill="none" stroke="black" d="M323.94,-200.19C275.22,-212.26 200.32,-235.25 144.25,-272.54 120.26,-288.49 98.5,-313.08 83.73,-332.06"/>
<polygon fill="black" stroke="black" points="81.03,-329.84 77.78,-339.92 86.61,-334.06 81.03,-329.84"/>
</a>
</g>
<text text-anchor="middle" x="201.25" y="-277.24" font-family="Times,serif" font-size="14.00">calls (1 ep), 95rpm</text>
</g>
<!-- SERVICE:order&#45;service&#45;&gt;SERVICE:user&#45;service -->
<g id="edge3" class="edge">
<title>SERVICE:order&#45;service&#45;&gt;SERVICE:user&#45;service</title>
<g id="a_edge3"><a xlink:title="edge#2">
<path fill="none" stroke="black" d="M404.23,-171.05C426.84,-157.42 459.7,-139.71 491,-130.54 546.52,-114.26 612.72,-109.44 658.85,-108.27"/>
<polygon fill="black" stroke="black" points="658.69,-111.77 668.62,-108.08 658.55,-104.78 658.69,-111.77"/>
</a>
</g>
<text text-anchor="middle" x="552.12" y="-135.24" font-family="Times,serif" font-size="14.00">calls (1 ep), 260rpm</text>
</g>
<!-- SERVICE:order&#45;service&#45;&gt;SERVICE:search&#45;service -->
<g id="edge6" class="edge">
<title>SERVICE:order&#45;service&#45;&gt;SERVICE:search&#45;service</title>
<g id="a_edge6"><a xlink:title="edge#5">
<path fill="none" stroke="black" d="M425.27,-185.41C504.9,-179.39 666.06,-169.62 802.5,-176.54 857.12,-179.3 918.87,-185.8 964.07,-191.19"/>
<polygon fill="black" stroke="black" points="963.63,-194.66 973.97,-192.39 964.47,-187.71 963.63,-194.66"/>
</a>
</g>
<text text-anchor="middle" x="716.88" y="-181.24" font-family="Times,serif" font-size="14.00">calls (1 ep), 180rpm</text>
</g>
<!-- SERVICE:order&#45;service&#45;&gt;DATABASE:users&#45;db -->
<g id="edge7" class="edge">
<title>SERVICE:order&#45;service&#45;&gt;DATABASE:users&#45;db</title>
<g id="a_edge7"><a xlink:title="edge#6">
<path fill="none" stroke="black" d="M386.72,-171.14C404.97,-142.4 444.01,-86.89 491,-55.54 545.57,-19.12 566.47,-19.89 631.25,-9.54 756.91,10.55 907.53,-7.58 982.18,-19.33"/>
<polygon fill="black" stroke="black" points="981.57,-22.78 992,-20.92 982.69,-15.87 981.57,-22.78"/>
</a>
</g>
<text text-anchor="middle" x="716.88" y="-14.24" font-family="Times,serif" font-size="14.00">READS</text>
</g>
<!-- SERVICE:order&#45;service&#45;&gt;DATABASE:orders&#45;db_order&#45;service -->
<g id="edge8" class="edge">
<title>SERVICE:order&#45;service&#45;&gt;DATABASE:orders&#45;db_order&#45;service</title>
<g id="a_edge8"><a xlink:title="edge#7">
<path fill="none" stroke="black" d="M390.68,-171.3C410.9,-148.16 449.16,-108.94 491,-89.54 530.81,-71.07 578.4,-62.04 619.53,-57.73"/>
<polygon fill="black" stroke="black" points="619.82,-61.22 629.44,-56.78 619.15,-54.25 619.82,-61.22"/>
</a>
</g>
<text text-anchor="middle" x="552.12" y="-94.24" font-family="Times,serif" font-size="14.00">WRITES</text>
</g>
</g>
</svg>
