<?xml version="1.0" encoding="UTF-8" standalone="no"?>
<!DOCTYPE svg PUBLIC "-//W3C//DTD SVG 1.1//EN"
 "http://www.w3.org/Graphics/SVG/1.1/DTD/svg11.dtd">
<!-- Generated by graphviz version 9.0.0 (20230911.1827)
 -->
<!-- Title: G Pages: 1 -->
<svg width="760pt" height="128pt"
 viewBox="0.00 0.00 759.75 128.00" xmlns="http://www.w3.org/2000/svg" xmlns:xlink="http://www.w3.org/1999/xlink">
<g id="graph0" class="graph" transform="scale(1 1) rotate(0) translate(4 124)">
<title>G</title>
<polygon fill="white" stroke="none" points="-4,4 -4,-124 755.75,-124 755.75,4 -4,4"/>
<text text-anchor="middle" x="375.88" y="-102.7" font-family="Helvetica,sans-Serif" font-size="14.00">Architecture</text>
<!-- SERVICE:ui -->
<g id="node1" class="node">
<title>SERVICE:ui</title>
<path fill="#eef6ff" stroke="black" d="M42,-63C42,-63 12,-63 12,-63 6,-63 0,-57 0,-51 0,-51 0,-39 0,-39 0,-33 6,-27 12,-27 12,-27 42,-27 42,-27 48,-27 54,-33 54,-39 54,-39 54,-51 54,-51 54,-57 48,-63 42,-63"/>
<text text-anchor="middle" x="27" y="-40.7" font-family="Times,serif" font-size="14.00">ui</text>
</g>
<!-- SERVICE:bff -->
<g id="node4" class="node">
<title>SERVICE:bff</title>
<path fill="#eef6ff" stroke="black" d="M249.75,-63C249.75,-63 219.75,-63 219.75,-63 213.75,-63 207.75,-57 207.75,-51 207.75,-51 207.75,-39 207.75,-39 207.75,-33 213.75,-27 219.75,-27 219.75,-27 249.75,-27 249.75,-27 255.75,-27 261.75,-33 261.75,-39 261.75,-39 261.75,-51 261.75,-51 261.75,-57 255.75,-63 249.75,-63"/>
<text text-anchor="middle" x="234.75" y="-40.7" font-family="Times,serif" font-size="14.00">bff</text>
</g>
<!-- SERVICE:ui&#45;&gt;SERVICE:bff -->
<g id="edge2" class="edge">
<title>SERVICE:ui&#45;&gt;SERVICE:bff</title>
<g id="a_edge2"><a xlink:title="edge#1">
<path fill="none" stroke="black" d="M54.48,-45C90.43,-45 154.92,-45 195.96,-45"/>
<polygon fill="black" stroke="black" points="195.86,-48.5 205.86,-45 195.86,-41.5 195.86,-48.5"/>
</a>
</g>
<text text-anchor="middle" x="130.88" y="-49.7" font-family="Times,serif" font-size="14.00">CALLS [rest] (sync)</text>
</g>
<!-- SERVICE:orders -->
<g id="node2" class="node">
<title>SERVICE:orders</title>
<path fill="#eef6ff" stroke="black" d="M739.75,-63C739.75,-63 706.5,-63 706.5,-63 700.5,-63 694.5,-57 694.5,-51 694.5,-51 694.5,-39 694.5,-39 694.5,-33 700.5,-27 706.5,-27 706.5,-27 739.75,-27 739.75,-27 745.75,-27 751.75,-33 751.75,-39 751.75,-39 751.75,-51 751.75,-51 751.75,-57 745.75,-63 739.75,-63"/>
<text text-anchor="middle" x="723.12" y="-40.7" font-family="Times,serif" font-size="14.00">orders</text>
</g>
<!-- SERVICE:payments -->
<g id="node3" class="node">
<title>SERVICE:payments</title>
<path fill="#eef6ff" stroke="black" d="M501.88,-36C501.88,-36 446.88,-36 446.88,-36 440.88,-36 434.88,-30 434.88,-24 434.88,-24 434.88,-12 434.88,-12 434.88,-6 440.88,0 446.88,0 446.88,0 501.88,0 501.88,0 507.88,0 513.88,-6 513.88,-12 513.88,-12 513.88,-24 513.88,-24 513.88,-30 507.88,-36 501.88,-36"/>
<text text-anchor="middle" x="474.38" y="-13.7" font-family="Times,serif" font-size="14.00">payments</text>
</g>
<!-- SERVICE:payments&#45;&gt;SERVICE:orders -->
<g id="edge1" class="edge">
<title>SERVICE:payments&#45;&gt;SERVICE:orders</title>
<g id="a_edge1"><a xlink:title="edge#0">
<path fill="none" stroke="black" d="M514.31,-22.26C554.82,-26.69 620.11,-33.83 676.5,-40 678.55,-40.22 680.65,-40.45 682.77,-40.69"/>
<polygon fill="black" stroke="black" points="682.31,-44.16 692.63,-41.77 683.07,-37.2 682.31,-44.16"/>
</a>
</g>
<text text-anchor="middle" x="613.88" y="-44.7" font-family="Times,serif" font-size="14.00">CALLS [rest] (async)</text>
</g>
<!-- SERVICE:bff&#45;&gt;SERVICE:orders -->
<g id="edge3" class="edge">
<title>SERVICE:bff&#45;&gt;SERVICE:orders</title>
<g id="a_edge3"><a xlink:title="edge#2">
<path fill="none" stroke="black" d="M262,-54.09C267.78,-55.71 273.92,-57.16 279.75,-58 454.27,-83.24 501.86,-82.39 676.5,-58 678.7,-57.69 680.95,-57.3 683.2,-56.86"/>
<polygon fill="black" stroke="black" points="683.99,-60.27 692.93,-54.57 682.39,-53.45 683.99,-60.27"/>
</a>
</g>
<text text-anchor="middle" x="474.38" y="-80.7" font-family="Times,serif" font-size="14.00">CALLS [rest] (sync)</text>
</g>
<!-- SERVICE:bff&#45;&gt;SERVICE:payments -->
<g id="edge4" class="edge">
<title>SERVICE:bff&#45;&gt;SERVICE:payments</title>
<g id="a_edge4"><a xlink:title="edge#3">
<path fill="none" stroke="black" d="M262.09,-42.01C300.91,-37.6 374.19,-29.27 423.41,-23.68"/>
<polygon fill="black" stroke="black" points="423.71,-27.17 433.25,-22.56 422.92,-20.21 423.71,-27.17"/>
</a>
</g>
<text text-anchor="middle" x="338.62" y="-43.7" font-family="Times,serif" font-size="14.00">CALLS [rest] (sync)</text>
</g>
</g>
</svg>
