<?xml version="1.0" encoding="UTF-8" standalone="no"?>
<!DOCTYPE svg PUBLIC "-//W3C//DTD SVG 1.1//EN"
 "http://www.w3.org/Graphics/SVG/1.1/DTD/svg11.dtd">
<!-- Generated by graphviz version 9.0.0 (20230911.1827)
 -->
<!-- Title: G Pages: 1 -->
<svg width="851pt" height="206pt"
 viewBox="0.00 0.00 851.00 206.00" xmlns="http://www.w3.org/2000/svg" xmlns:xlink="http://www.w3.org/1999/xlink">
<g id="graph0" class="graph" transform="scale(1 1) rotate(0) translate(4 202)">
<title>G</title>
<polygon fill="white" stroke="none" points="-4,4 -4,-202 847,-202 847,4 -4,4"/>
<text text-anchor="middle" x="421.5" y="-180.7" font-family="Helvetica,sans-Serif" font-size="14.00">Architecture</text>
<!-- SERVICE:orders -->
<g id="node1" class="node">
<title>SERVICE:orders</title>
<path fill="#eef6ff" stroke="black" d="M303.88,-172C303.88,-172 270.62,-172 270.62,-172 264.62,-172 258.62,-166 258.62,-160 258.62,-160 258.62,-148 258.62,-148 258.62,-142 264.62,-136 270.62,-136 270.62,-136 303.88,-136 303.88,-136 309.88,-136 315.88,-142 315.88,-148 315.88,-148 315.88,-160 315.88,-160 315.88,-166 309.88,-172 303.88,-172"/>
<text text-anchor="middle" x="287.25" y="-149.7" font-family="Times,serif" font-size="14.00">orders</text>
</g>
<!-- SERVICE:payments -->
<g id="node3" class="node">
<title>SERVICE:payments</title>
<path fill="#eef6ff" stroke="black" d="M583.38,-108C583.38,-108 528.38,-108 528.38,-108 522.38,-108 516.38,-102 516.38,-96 516.38,-96 516.38,-84 516.38,-84 516.38,-78 522.38,-72 528.38,-72 528.38,-72 583.38,-72 583.38,-72 589.38,-72 595.38,-78 595.38,-84 595.38,-84 595.38,-96 595.38,-96 595.38,-102 589.38,-108 583.38,-108"/>
<text text-anchor="middle" x="555.88" y="-85.7" font-family="Times,serif" font-size="14.00">payments</text>
</g>
<!-- SERVICE:orders&#45;&gt;SERVICE:payments -->
<g id="edge5" class="edge">
<title>SERVICE:orders&#45;&gt;SERVICE:payments</title>
<g id="a_edge5"><a xlink:title="edge#4">
<path fill="none" stroke="black" d="M316.15,-144.88C329.68,-140.64 346.22,-135.72 361.25,-132 413.01,-119.18 426.95,-120.59 479,-109 487.39,-107.13 496.26,-105.03 504.87,-102.92"/>
<polygon fill="black" stroke="black" points="505.65,-106.33 514.51,-100.52 503.96,-99.54 505.65,-106.33"/>
</a>
</g>
<text text-anchor="middle" x="420.12" y="-136.7" font-family="Times,serif" font-size="14.00">CALLS [rest] (sync)</text>
</g>
<!-- DATABASE:database -->
<g id="node4" class="node">
<title>DATABASE:database</title>
<path fill="#fff3cd" stroke="black" d="M843,-104.73C843,-106.53 826.3,-108 805.75,-108 785.2,-108 768.5,-106.53 768.5,-104.73 768.5,-104.73 768.5,-75.27 768.5,-75.27 768.5,-73.47 785.2,-72 805.75,-72 826.3,-72 843,-73.47 843,-75.27 843,-75.27 843,-104.73 843,-104.73"/>
<path fill="none" stroke="black" d="M843,-104.73C843,-102.92 826.3,-101.45 805.75,-101.45 785.2,-101.45 768.5,-102.92 768.5,-104.73"/>
<text text-anchor="middle" x="805.75" y="-85.7" font-family="Times,serif" font-size="14.00">database</text>
</g>
<!-- SERVICE:orders&#45;&gt;DATABASE:database -->
<g id="edge2" class="edge">
<title>SERVICE:orders&#45;&gt;DATABASE:database</title>
<g id="a_edge2"><a xlink:title="edge#1">
<path fill="none" stroke="black" d="M316.18,-154.75C389.04,-156 590.37,-154.97 750.5,-112 752.76,-111.39 755.06,-110.72 757.36,-109.99"/>
<polygon fill="black" stroke="black" points="758.37,-113.34 766.67,-106.77 756.08,-106.73 758.37,-113.34"/>
</a>
</g>
<text text-anchor="middle" x="555.88" y="-153.7" font-family="Times,serif" font-size="14.00">CALLS [rest] (sync)</text>
</g>
<!-- SERVICE:restaurants -->
<g id="node2" class="node">
<title>SERVICE:restaurants</title>
<path fill="#eef6ff" stroke="black" d="M588.25,-36C588.25,-36 523.5,-36 523.5,-36 517.5,-36 511.5,-30 511.5,-24 511.5,-24 511.5,-12 511.5,-12 511.5,-6 517.5,0 523.5,0 523.5,0 588.25,0 588.25,0 594.25,0 600.25,-6 600.25,-12 600.25,-12 600.25,-24 600.25,-24 600.25,-30 594.25,-36 588.25,-36"/>
<text text-anchor="middle" x="555.88" y="-13.7" font-family="Times,serif" font-size="14.00">restaurants</text>
</g>
<!-- SERVICE:restaurants&#45;&gt;DATABASE:database -->
<g id="edge3" class="edge">
<title>SERVICE:restaurants&#45;&gt;DATABASE:database</title>
<g id="a_edge3"><a xlink:title="edge#2">
<path fill="none" stroke="black" d="M600.42,-27.5C639.98,-36.54 699.73,-51.23 750.5,-68 752.85,-68.78 755.25,-69.61 757.66,-70.47"/>
<polygon fill="black" stroke="black" points="756.22,-73.67 766.81,-73.89 758.67,-67.11 756.22,-73.67"/>
</a>
</g>
<text text-anchor="middle" x="691.62" y="-72.7" font-family="Times,serif" font-size="14.00">CALLS [rest] (sync)</text>
</g>
<!-- SERVICE:payments&#45;&gt;DATABASE:database -->
<g id="edge4" class="edge">
<title>SERVICE:payments&#45;&gt;DATABASE:database</title>
<g id="a_edge4"><a xlink:title="edge#3">
<path fill="none" stroke="black" d="M595.61,-90C639.16,-90 709.93,-90 756.91,-90"/>
<polygon fill="black" stroke="black" points="756.79,-93.5 766.79,-90 756.79,-86.5 756.79,-93.5"/>
</a>
</g>
<text text-anchor="middle" x="691.62" y="-94.7" font-family="Times,serif" font-size="14.00">CALLS [rest] (sync)</text>
</g>
<!-- SERVICE:web page_split -->
<g id="node5" class="node">
<title>SERVICE:web page_split</title>
<path fill="#eef6ff" stroke="black" d="M331.25,-108C331.25,-108 243.25,-108 243.25,-108 237.25,-108 231.25,-102 231.25,-96 231.25,-96 231.25,-84 231.25,-84 231.25,-78 237.25,-72 243.25,-72 243.25,-72 331.25,-72 331.25,-72 337.25,-72 343.25,-78 343.25,-84 343.25,-84 343.25,-96 343.25,-96 343.25,-102 337.25,-108 331.25,-108"/>
<text text-anchor="middle" x="287.25" y="-85.7" font-family="Times,serif" font-size="14.00">web page_split</text>
</g>
<!-- SERVICE:web page_split&#45;&gt;SERVICE:payments -->
<g id="edge1" class="edge">
<title>SERVICE:web page_split&#45;&gt;SERVICE:payments</title>
<g id="a_edge1"><a xlink:title="edge#0">
<path fill="none" stroke="black" d="M343.49,-90C390.92,-90 458.7,-90 504.62,-90"/>
<polygon fill="black" stroke="black" points="504.58,-93.5 514.58,-90 504.58,-86.5 504.58,-93.5"/>
</a>
</g>
<text text-anchor="middle" x="420.12" y="-94.7" font-family="Times,serif" font-size="14.00">CALLS [rest] (sync)</text>
</g>
<!-- SERVICE:bff -->
<g id="node6" class="node">
<title>SERVICE:bff</title>
<path fill="#eef6ff" stroke="black" d="M302.25,-54C302.25,-54 272.25,-54 272.25,-54 266.25,-54 260.25,-48 260.25,-42 260.25,-42 260.25,-30 260.25,-30 260.25,-24 266.25,-18 272.25,-18 272.25,-18 302.25,-18 302.25,-18 308.25,-18 314.25,-24 314.25,-30 314.25,-30 314.25,-42 314.25,-42 314.25,-48 308.25,-54 302.25,-54"/>
<text text-anchor="middle" x="287.25" y="-31.7" font-family="Times,serif" font-size="14.00">bff</text>
</g>
<!-- SERVICE:bff&#45;&gt;SERVICE:restaurants -->
<g id="edge8" class="edge">
<title>SERVICE:bff&#45;&gt;SERVICE:restaurants</title>
<g id="a_edge8"><a xlink:title="edge#7">
<path fill="none" stroke="black" d="M314.65,-23.66C328.25,-17.97 345.29,-11.86 361.25,-9 407.43,-0.73 460.73,-4.14 499.71,-8.96"/>
<polygon fill="black" stroke="black" points="499.19,-12.42 509.56,-10.25 500.11,-5.48 499.19,-12.42"/>
</a>
</g>
<text text-anchor="middle" x="420.12" y="-13.7" font-family="Times,serif" font-size="14.00">CALLS [rest] (sync)</text>
</g>
<!-- SERVICE:bff&#45;&gt;SERVICE:payments -->
<g id="edge9" class="edge">
<title>SERVICE:bff&#45;&gt;SERVICE:payments</title>
<g id="a_edge9"><a xlink:title="edge#8">
<path fill="none" stroke="black" d="M314.67,-39.44C351.66,-44.49 420.89,-54.75 479,-68 487.56,-69.95 496.57,-72.3 505.29,-74.73"/>
<polygon fill="black" stroke="black" points="504.08,-78.02 514.66,-77.41 506,-71.29 504.08,-78.02"/>
</a>
</g>
<text text-anchor="middle" x="420.12" y="-72.7" font-family="Times,serif" font-size="14.00">CALLS [rest] (sync)</text>
</g>
<!-- SERVICE:user -->
<g id="node7" class="node">
<title>SERVICE:user</title>
<path fill="#eef6ff" stroke="black" d="M53.75,-134C53.75,-134 23.75,-134 23.75,-134 17.75,-134 11.75,-128 11.75,-122 11.75,-122 11.75,-110 11.75,-110 11.75,-104 17.75,-98 23.75,-98 23.75,-98 53.75,-98 53.75,-98 59.75,-98 65.75,-104 65.75,-110 65.75,-110 65.75,-122 65.75,-122 65.75,-128 59.75,-134 53.75,-134"/>
<text text-anchor="middle" x="38.75" y="-111.7" font-family="Times,serif" font-size="14.00">user</text>
</g>
<!-- SERVICE:web page -->
<g id="node8" class="node">
<title>SERVICE:web page</title>
<path fill="#eef6ff" stroke="black" d="M65.5,-80C65.5,-80 12,-80 12,-80 6,-80 0,-74 0,-68 0,-68 0,-56 0,-56 0,-50 6,-44 12,-44 12,-44 65.5,-44 65.5,-44 71.5,-44 77.5,-50 77.5,-56 77.5,-56 77.5,-68 77.5,-68 77.5,-74 71.5,-80 65.5,-80"/>
<text text-anchor="middle" x="38.75" y="-57.7" font-family="Times,serif" font-size="14.00">web page</text>
</g>
<!-- SERVICE:web page&#45;&gt;SERVICE:web page_split -->
<g id="edge6" class="edge">
<title>SERVICE:web page&#45;&gt;SERVICE:web page_split</title>
<g id="a_edge6"><a xlink:title="edge#5">
<path fill="none" stroke="black" d="M78,-66.34C115.77,-70.63 174.31,-77.28 219.72,-82.44"/>
<polygon fill="black" stroke="black" points="219.12,-85.9 229.45,-83.55 219.91,-78.94 219.12,-85.9"/>
</a>
</g>
<text text-anchor="middle" x="154.38" y="-84.7" font-family="Times,serif" font-size="14.00">CALLS [rest] (sync)</text>
</g>
<!-- SERVICE:web page&#45;&gt;SERVICE:bff -->
<g id="edge7" class="edge">
<title>SERVICE:web page&#45;&gt;SERVICE:bff</title>
<g id="a_edge7"><a xlink:title="edge#6">
<path fill="none" stroke="black" d="M77.87,-49.82C83.73,-48.31 89.74,-46.96 95.5,-46 148,-37.21 209.65,-35.51 248.34,-35.47"/>
<polygon fill="black" stroke="black" points="248.29,-38.97 258.3,-35.5 248.32,-31.97 248.29,-38.97"/>
</a>
</g>
<text text-anchor="middle" x="154.38" y="-50.7" font-family="Times,serif" font-size="14.00">CALLS [rest] (sync)</text>
</g>
</g>
</svg>
