<?xml version="1.0" encoding="UTF-8" standalone="no"?>
<!DOCTYPE svg PUBLIC "-//W3C//DTD SVG 1.1//EN"
 "http://www.w3.org/Graphics/SVG/1.1/DTD/svg11.dtd">
<!-- Generated by graphviz version 9.0.0 (20230911.1827)
 -->
<!-- Title: G Pages: 1 -->
<svg width="838pt" height="213pt"
 viewBox="0.00 0.00 837.75 213.00" xmlns="http://www.w3.org/2000/svg" xmlns:xlink="http://www.w3.org/1999/xlink">
<g id="graph0" class="graph" transform="scale(1 1) rotate(0) translate(4 209)">
<title>G</title>
<polygon fill="white" stroke="none" points="-4,4 -4,-209 833.75,-209 833.75,4 -4,4"/>
<text text-anchor="middle" x="414.88" y="-187.7" font-family="Helvetica,sans-Serif" font-size="14.00">Architecture</text>
<!-- DATABASE:users&#45;db -->
<g id="node1" class="node">
<title>DATABASE:users&#45;db</title>
<path fill="#fff3cd" stroke="black" d="M815.12,-161.73C815.12,-163.53 798.93,-165 779,-165 759.07,-165 742.88,-163.53 742.88,-161.73 742.88,-161.73 742.88,-132.27 742.88,-132.27 742.88,-130.47 759.07,-129 779,-129 798.93,-129 815.12,-130.47 815.12,-132.27 815.12,-132.27 815.12,-161.73 815.12,-161.73"/>
<path fill="none" stroke="black" d="M815.12,-161.73C815.12,-159.92 798.93,-158.45 779,-158.45 759.07,-158.45 742.88,-159.92 742.88,-161.73"/>
<text text-anchor="middle" x="779" y="-142.7" font-family="Times,serif" font-size="14.00">users&#45;db</text>
</g>
<!-- DATABASE:payments&#45;db -->
<g id="node2" class="node">
<title>DATABASE:payments&#45;db</title>
<path fill="#fff3cd" stroke="black" d="M829.75,-70.73C829.75,-72.53 807,-74 779,-74 751,-74 728.25,-72.53 728.25,-70.73 728.25,-70.73 728.25,-41.27 728.25,-41.27 728.25,-39.47 751,-38 779,-38 807,-38 829.75,-39.47 829.75,-41.27 829.75,-41.27 829.75,-70.73 829.75,-70.73"/>
<path fill="none" stroke="black" d="M829.75,-70.73C829.75,-68.92 807,-67.45 779,-67.45 751,-67.45 728.25,-68.92 728.25,-70.73"/>
<text text-anchor="middle" x="779" y="-51.7" font-family="Times,serif" font-size="14.00">payments&#45;db</text>
</g>
<!-- SERVICE:api&#45;gateway -->
<g id="node3" class="node">
<title>SERVICE:api&#45;gateway</title>
<path fill="#eef6ff" stroke="black" d="M83.5,-116C83.5,-116 12,-116 12,-116 6,-116 0,-110 0,-104 0,-104 0,-92 0,-92 0,-86 6,-80 12,-80 12,-80 83.5,-80 83.5,-80 89.5,-80 95.5,-86 95.5,-92 95.5,-92 95.5,-104 95.5,-104 95.5,-110 89.5,-116 83.5,-116"/>
<text text-anchor="middle" x="47.75" y="-93.7" font-family="Times,serif" font-size="14.00">api&#45;gateway</text>
</g>
<!-- SERVICE:user&#45;service -->
<g id="node4" class="node">
<title>SERVICE:user&#45;service</title>
<path fill="#eef6ff" stroke="black" d="M342.12,-144C342.12,-144 272.88,-144 272.88,-144 266.88,-144 260.88,-138 260.88,-132 260.88,-132 260.88,-120 260.88,-120 260.88,-114 266.88,-108 272.88,-108 272.88,-108 342.12,-108 342.12,-108 348.12,-108 354.12,-114 354.12,-120 354.12,-120 354.12,-132 354.12,-132 354.12,-138 348.12,-144 342.12,-144"/>
<text text-anchor="middle" x="307.5" y="-121.7" font-family="Times,serif" font-size="14.00">user&#45;service</text>
</g>
<!-- SERVICE:api&#45;gateway&#45;&gt;SERVICE:user&#45;service -->
<g id="edge1" class="edge">
<title>SERVICE:api&#45;gateway&#45;&gt;SERVICE:user&#45;service</title>
<g id="a_edge1"><a xlink:title="edge#0">
<path fill="none" stroke="black" d="M95.73,-103.1C138.96,-107.8 203.2,-114.78 249.38,-119.8"/>
<polygon fill="black" stroke="black" points="248.89,-123.26 259.21,-120.86 249.65,-116.3 248.89,-123.26"/>
</a>
</g>
<text text-anchor="middle" x="175" y="-121.7" font-family="Times,serif" font-size="14.00">calls (1 ep), 600rpm</text>
</g>
<!-- SERVICE:billing&#45;service -->
<g id="node6" class="node">
<title>SERVICE:billing&#45;service</title>
<path fill="#eef6ff" stroke="black" d="M348.5,-90C348.5,-90 266.5,-90 266.5,-90 260.5,-90 254.5,-84 254.5,-78 254.5,-78 254.5,-66 254.5,-66 254.5,-60 260.5,-54 266.5,-54 266.5,-54 348.5,-54 348.5,-54 354.5,-54 360.5,-60 360.5,-66 360.5,-66 360.5,-78 360.5,-78 360.5,-84 354.5,-90 348.5,-90"/>
<text text-anchor="middle" x="307.5" y="-67.7" font-family="Times,serif" font-size="14.00">billing&#45;service</text>
</g>
<!-- SERVICE:api&#45;gateway&#45;&gt;SERVICE:billing&#45;service -->
<g id="edge2" class="edge">
<title>SERVICE:api&#45;gateway&#45;&gt;SERVICE:billing&#45;service</title>
<g id="a_edge2"><a xlink:title="edge#1">
<path fill="none" stroke="black" d="M95.93,-85.24C101.81,-83.98 107.77,-82.85 113.5,-82 156.36,-75.65 205.09,-73.16 242.87,-72.26"/>
<polygon fill="black" stroke="black" points="242.78,-75.76 252.7,-72.06 242.63,-68.76 242.78,-75.76"/>
</a>
</g>
<text text-anchor="middle" x="175" y="-86.7" font-family="Times,serif" font-size="14.00">calls (1 ep), 300rpm</text>
</g>
<!-- SERVICE:user&#45;service&#45;&gt;DATABASE:users&#45;db -->
<g id="edge4" class="edge">
<title>SERVICE:user&#45;service&#45;&gt;DATABASE:users&#45;db</title>
<g id="a_edge4"><a xlink:title="edge#3">
<path fill="none" stroke="black" d="M354.39,-142.27C362.35,-144.56 370.6,-146.6 378.5,-148 501.82,-169.85 534.79,-158.11 660,-161 682.33,-161.52 688.03,-163.27 710.25,-161 717.15,-160.29 724.38,-159.2 731.44,-157.92"/>
<polygon fill="black" stroke="black" points="732.07,-161.36 741.21,-156 730.73,-154.49 732.07,-161.36"/>
</a>
</g>
<text text-anchor="middle" x="580.75" y="-165.7" font-family="Times,serif" font-size="14.00">READS</text>
</g>
<!-- SERVICE:auth&#45;service -->
<g id="node5" class="node">
<title>SERVICE:auth&#45;service</title>
<path fill="#eef6ff" stroke="black" d="M616.12,-144C616.12,-144 545.38,-144 545.38,-144 539.38,-144 533.38,-138 533.38,-132 533.38,-132 533.38,-120 533.38,-120 533.38,-114 539.38,-108 545.38,-108 545.38,-108 616.12,-108 616.12,-108 622.12,-108 628.12,-114 628.12,-120 628.12,-120 628.12,-132 628.12,-132 628.12,-138 622.12,-144 616.12,-144"/>
<text text-anchor="middle" x="580.75" y="-121.7" font-family="Times,serif" font-size="14.00">auth&#45;service</text>
</g>
<!-- SERVICE:user&#45;service&#45;&gt;SERVICE:auth&#45;service -->
<g id="edge3" class="edge">
<title>SERVICE:user&#45;service&#45;&gt;SERVICE:auth&#45;service</title>
<g id="a_edge3"><a xlink:title="edge#2">
<path fill="none" stroke="black" d="M354.51,-126C400.65,-126 471.82,-126 521.79,-126"/>
<polygon fill="black" stroke="black" points="521.54,-129.5 531.54,-126 521.54,-122.5 521.54,-129.5"/>
</a>
</g>
<text text-anchor="middle" x="440" y="-130.7" font-family="Times,serif" font-size="14.00">calls (1 ep), 600rpm</text>
</g>
<!-- SERVICE:auth&#45;service&#45;&gt;DATABASE:users&#45;db -->
<g id="edge5" class="edge">
<title>SERVICE:auth&#45;service&#45;&gt;DATABASE:users&#45;db</title>
<g id="a_edge5"><a xlink:title="edge#4">
<path fill="none" stroke="black" d="M628.26,-130.98C659.32,-134.3 700.02,-138.66 731.14,-141.99"/>
<polygon fill="black" stroke="black" points="730.74,-145.46 741.06,-143.05 731.49,-138.5 730.74,-145.46"/>
</a>
</g>
<text text-anchor="middle" x="685.12" y="-143.7" font-family="Times,serif" font-size="14.00">READS</text>
</g>
<!-- SERVICE:auth&#45;service&#45;&gt;DATABASE:users&#45;db -->
<g id="edge6" class="edge">
<title>SERVICE:auth&#45;service&#45;&gt;DATABASE:users&#45;db</title>
<g id="a_edge6"><a xlink:title="edge#5">
<path fill="none" stroke="black" d="M628.35,-113.25C652.97,-108.43 683.54,-105.51 710.25,-112 720.74,-114.55 731.41,-119.02 741.1,-123.94"/>
<polygon fill="black" stroke="black" points="739.37,-126.98 749.83,-128.65 742.69,-120.82 739.37,-126.98"/>
</a>
</g>
<text text-anchor="middle" x="685.12" y="-116.7" font-family="Times,serif" font-size="14.00">WRITES</text>
</g>
<!-- SERVICE:billing&#45;service&#45;&gt;DATABASE:payments&#45;db -->
<g id="edge8" class="edge">
<title>SERVICE:billing&#45;service&#45;&gt;DATABASE:payments&#45;db</title>
<g id="a_edge8"><a xlink:title="edge#7">
<path fill="none" stroke="black" d="M360.99,-70.21C448.42,-67.23 623.43,-61.27 716.5,-58.1"/>
<polygon fill="black" stroke="black" points="716.59,-61.59 726.46,-57.76 716.35,-54.6 716.59,-61.59"/>
</a>
</g>
<text text-anchor="middle" x="580.75" y="-68.7" font-family="Times,serif" font-size="14.00">READS</text>
</g>
<!-- SERVICE:payment&#45;service -->
<g id="node7" class="node">
<title>SERVICE:payment&#45;service</title>
<path fill="#eef6ff" stroke="black" d="M630,-36C630,-36 531.5,-36 531.5,-36 525.5,-36 519.5,-30 519.5,-24 519.5,-24 519.5,-12 519.5,-12 519.5,-6 525.5,0 531.5,0 531.5,0 630,0 630,0 636,0 642,-6 642,-12 642,-12 642,-24 642,-24 642,-30 636,-36 630,-36"/>
<text text-anchor="middle" x="580.75" y="-13.7" font-family="Times,serif" font-size="14.00">payment&#45;service</text>
</g>
<!-- SERVICE:billing&#45;service&#45;&gt;SERVICE:payment&#45;service -->
<g id="edge7" class="edge">
<title>SERVICE:billing&#45;service&#45;&gt;SERVICE:payment&#45;service</title>
<g id="a_edge7"><a xlink:title="edge#6">
<path fill="none" stroke="black" d="M342.93,-53.62C354.01,-48.43 366.52,-43.3 378.5,-40 420.51,-28.43 469.02,-22.9 507.89,-20.28"/>
<polygon fill="black" stroke="black" points="508.09,-23.78 517.86,-19.67 507.66,-16.79 508.09,-23.78"/>
</a>
</g>
<text text-anchor="middle" x="440" y="-44.7" font-family="Times,serif" font-size="14.00">calls (1 ep), 500rpm</text>
</g>
<!-- SERVICE:payment&#45;service&#45;&gt;DATABASE:payments&#45;db -->
<g id="edge9" class="edge">
<title>SERVICE:payment&#45;service&#45;&gt;DATABASE:payments&#45;db</title>
<g id="a_edge9"><a xlink:title="edge#8">
<path fill="none" stroke="black" d="M642.36,-27.58C663.86,-31.19 688.18,-35.51 710.25,-40 712.38,-40.43 714.55,-40.89 716.74,-41.35"/>
<polygon fill="black" stroke="black" points="715.76,-44.72 726.28,-43.44 717.26,-37.88 715.76,-44.72"/>
</a>
</g>
<text text-anchor="middle" x="685.12" y="-44.7" font-family="Times,serif" font-size="14.00">WRITES</text>
</g>
</g>
</svg>
