<?xml version="1.0" encoding="UTF-8" standalone="no"?>
<!DOCTYPE svg PUBLIC "-//W3C//DTD SVG 1.1//EN"
 "http://www.w3.org/Graphics/SVG/1.1/DTD/svg11.dtd">
<!-- Generated by graphviz version 9.0.0 (20230911.1827)
 -->
<!-- Title: G Pages: 1 -->
<svg width="715pt" height="124pt"
 viewBox="0.00 0.00 715.00 124.00" xmlns="http://www.w3.org/2000/svg" xmlns:xlink="http://www.w3.org/1999/xlink">
<g id="graph0" class="graph" transform="scale(1 1) rotate(0) translate(4 120)">
<title>G</title>
<polygon fill="white" stroke="none" points="-4,4 -4,-120 711,-120 711,4 -4,4"/>
<text text-anchor="middle" x="353.5" y="-98.7" font-family="Helvetica,sans-Serif" font-size="14.00">Architecture</text>
<!-- DATABASE:database -->
<g id="node1" class="node">
<title>DATABASE:database</title>
<path fill="#fff3cd" stroke="black" d="M707,-32.73C707,-34.53 690.3,-36 669.75,-36 649.2,-36 632.5,-34.53 632.5,-32.73 632.5,-32.73 632.5,-3.27 632.5,-3.27 632.5,-1.47 649.2,0 669.75,0 690.3,0 707,-1.47 707,-3.27 707,-3.27 707,-32.73 707,-32.73"/>
<path fill="none" stroke="black" d="M707,-32.73C707,-30.92 690.3,-29.45 669.75,-29.45 649.2,-29.45 632.5,-30.92 632.5,-32.73"/>
<text text-anchor="middle" x="669.75" y="-13.7" font-family="Times,serif" font-size="14.00">database</text>
</g>
<!-- SERVICE:bff -->
<g id="node2" class="node">
<title>SERVICE:bff</title>
<path fill="#eef6ff" stroke="black" d="M249.75,-63C249.75,-63 219.75,-63 219.75,-63 213.75,-63 207.75,-57 207.75,-51 207.75,-51 207.75,-39 207.75,-39 207.75,-33 213.75,-27 219.75,-27 219.75,-27 249.75,-27 249.75,-27 255.75,-27 261.75,-33 261.75,-39 261.75,-39 261.75,-51 261.75,-51 261.75,-57 255.75,-63 249.75,-63"/>
<text text-anchor="middle" x="234.75" y="-40.7" font-family="Times,serif" font-size="14.00">bff</text>
</g>
<!-- SERVICE:auth -->
<g id="node4" class="node">
<title>SERVICE:auth</title>
<path fill="#eef6ff" stroke="black" d="M462.12,-90C462.12,-90 432.12,-90 432.12,-90 426.12,-90 420.12,-84 420.12,-78 420.12,-78 420.12,-66 420.12,-66 420.12,-60 426.12,-54 432.12,-54 432.12,-54 462.12,-54 462.12,-54 468.12,-54 474.12,-60 474.12,-66 474.12,-66 474.12,-78 474.12,-78 474.12,-84 468.12,-90 462.12,-90"/>
<text text-anchor="middle" x="447.12" y="-67.7" font-family="Times,serif" font-size="14.00">auth</text>
</g>
<!-- SERVICE:bff&#45;&gt;SERVICE:auth -->
<g id="edge3" class="edge">
<title>SERVICE:bff&#45;&gt;SERVICE:auth</title>
<g id="a_edge3"><a xlink:title="edge#2">
<path fill="none" stroke="black" d="M261.97,-48.36C298.92,-53.11 366.5,-61.78 408.72,-67.2"/>
<polygon fill="black" stroke="black" points="408.04,-70.64 418.41,-68.44 408.93,-63.7 408.04,-70.64"/>
</a>
</g>
<text text-anchor="middle" x="338.62" y="-69.7" font-family="Times,serif" font-size="14.00">CALLS [rest] (sync)</text>
</g>
<!-- SERVICE:catalog -->
<g id="node5" class="node">
<title>SERVICE:catalog</title>
<path fill="#eef6ff" stroke="black" d="M466.75,-36C466.75,-36 427.5,-36 427.5,-36 421.5,-36 415.5,-30 415.5,-24 415.5,-24 415.5,-12 415.5,-12 415.5,-6 421.5,0 427.5,0 427.5,0 466.75,0 466.75,0 472.75,0 478.75,-6 478.75,-12 478.75,-12 478.75,-24 478.75,-24 478.75,-30 472.75,-36 466.75,-36"/>
<text text-anchor="middle" x="447.12" y="-13.7" font-family="Times,serif" font-size="14.00">catalog</text>
</g>
<!-- SERVICE:bff&#45;&gt;SERVICE:catalog -->
<g id="edge4" class="edge">
<title>SERVICE:bff&#45;&gt;SERVICE:catalog</title>
<g id="a_edge4"><a xlink:title="edge#3">
<path fill="none" stroke="black" d="M261.87,-33.39C267.65,-31.25 273.83,-29.29 279.75,-28 321.23,-18.97 369.81,-17.01 403.72,-16.97"/>
<polygon fill="black" stroke="black" points="403.54,-20.47 413.56,-17.03 403.58,-13.47 403.54,-20.47"/>
</a>
</g>
<text text-anchor="middle" x="338.62" y="-32.7" font-family="Times,serif" font-size="14.00">CALLS [rest] (sync)</text>
</g>
<!-- SERVICE:web -->
<g id="node3" class="node">
<title>SERVICE:web</title>
<path fill="#eef6ff" stroke="black" d="M42,-63C42,-63 12,-63 12,-63 6,-63 0,-57 0,-51 0,-51 0,-39 0,-39 0,-33 6,-27 12,-27 12,-27 42,-27 42,-27 48,-27 54,-33 54,-39 54,-39 54,-51 54,-51 54,-57 48,-63 42,-63"/>
<text text-anchor="middle" x="27" y="-40.7" font-family="Times,serif" font-size="14.00">web</text>
</g>
<!-- SERVICE:web&#45;&gt;SERVICE:bff -->
<g id="edge2" class="edge">
<title>SERVICE:web&#45;&gt;SERVICE:bff</title>
<g id="a_edge2"><a xlink:title="edge#1">
<path fill="none" stroke="black" d="M54.48,-45C90.43,-45 154.92,-45 195.96,-45"/>
<polygon fill="black" stroke="black" points="195.86,-48.5 205.86,-45 195.86,-41.5 195.86,-48.5"/>
</a>
</g>
<text text-anchor="middle" x="130.88" y="-49.7" font-family="Times,serif" font-size="14.00">CALLS [rest] (sync)</text>
</g>
<!-- SERVICE:catalog&#45;&gt;DATABASE:database -->
<g id="edge1" class="edge">
<title>SERVICE:catalog&#45;&gt;DATABASE:database</title>
<g id="a_edge1"><a xlink:title="edge#0">
<path fill="none" stroke="black" d="M478.8,-18C515.57,-18 577.61,-18 620.74,-18"/>
<polygon fill="black" stroke="black" points="620.58,-21.5 630.58,-18 620.58,-14.5 620.58,-21.5"/>
</a>
</g>
<text text-anchor="middle" x="555.62" y="-22.7" font-family="Times,serif" font-size="14.00">CALLS [rest] (sync)</text>
</g>
</g>
</svg>
