<?xml version="1.0" encoding="UTF-8" standalone="no"?>
<!DOCTYPE svg PUBLIC "-//W3C//DTD SVG 1.1//EN"
 "http://www.w3.org/Graphics/SVG/1.1/DTD/svg11.dtd">
<!-- Generated by graphviz version 9.0.0 (20230911.1827)
 -->
<!-- Title: G Pages: 1 -->
<svg width="1974pt" height="340pt"
 viewBox="0.00 0.00 1973.50 340.00" xmlns="http://www.w3.org/2000/svg" xmlns:xlink="http://www.w3.org/1999/xlink">
<g id="graph0" class="graph" transform="scale(1 1) rotate(0) translate(4 336)">
<title>G</title>
<polygon fill="white" stroke="none" points="-4,4 -4,-336 1969.5,-336 1969.5,4 -4,4"/>
<text text-anchor="middle" x="982.75" y="-314.7" font-family="Helvetica,sans-Serif" font-size="14.00">Architecture</text>
<!-- SERVICE:pricing -->
<g id="node1" class="node">
<title>SERVICE:pricing</title>
<path fill="#eef6ff" stroke="black" d="M74.12,-36C74.12,-36 37.88,-36 37.88,-36 31.88,-36 25.88,-30 25.88,-24 25.88,-24 25.88,-12 25.88,-12 25.88,-6 31.88,0 37.88,0 37.88,0 74.12,0 74.12,0 80.12,0 86.12,-6 86.12,-12 86.12,-12 86.12,-24 86.12,-24 86.12,-30 80.12,-36 74.12,-36"/>
<text text-anchor="middle" x="56" y="-13.7" font-family="Times,serif" font-size="14.00">pricing</text>
</g>
<!-- SERVICE:discount -->
<g id="node13" class="node">
<title>SERVICE:discount</title>
<path fill="#eef6ff" stroke="black" d="M324.5,-36C324.5,-36 277.75,-36 277.75,-36 271.75,-36 265.75,-30 265.75,-24 265.75,-24 265.75,-12 265.75,-12 265.75,-6 271.75,0 277.75,0 277.75,0 324.5,0 324.5,0 330.5,0 336.5,-6 336.5,-12 336.5,-12 336.5,-24 336.5,-24 336.5,-30 330.5,-36 324.5,-36"/>
<text text-anchor="middle" x="301.12" y="-13.7" font-family="Times,serif" font-size="14.00">discount</text>
</g>
<!-- SERVICE:pricing&#45;&gt;SERVICE:discount -->
<g id="edge1" class="edge">
<title>SERVICE:pricing&#45;&gt;SERVICE:discount</title>
<g id="a_edge1"><a xlink:title="edge#0">
<path fill="none" stroke="black" d="M86.33,-18C128.07,-18 205.01,-18 254.31,-18"/>
<polygon fill="black" stroke="black" points="254.09,-21.5 264.09,-18 254.09,-14.5 254.09,-21.5"/>
</a>
</g>
<text text-anchor="middle" x="188.88" y="-22.7" font-family="Times,serif" font-size="14.00">CALLS [rest] (sync)</text>
</g>
<!-- SERVICE:scheduler -->
<g id="node2" class="node">
<title>SERVICE:scheduler</title>
<path fill="#eef6ff" stroke="black" d="M82.75,-144C82.75,-144 29.25,-144 29.25,-144 23.25,-144 17.25,-138 17.25,-132 17.25,-132 17.25,-120 17.25,-120 17.25,-114 23.25,-108 29.25,-108 29.25,-108 82.75,-108 82.75,-108 88.75,-108 94.75,-114 94.75,-120 94.75,-120 94.75,-132 94.75,-132 94.75,-138 88.75,-144 82.75,-144"/>
<text text-anchor="middle" x="56" y="-121.7" font-family="Times,serif" font-size="14.00">scheduler</text>
</g>
<!-- SERVICE:ops&#45;hub -->
<g id="node15" class="node">
<title>SERVICE:ops&#45;hub</title>
<path fill="#eef6ff" stroke="black" d="M323.75,-117C323.75,-117 278.5,-117 278.5,-117 272.5,-117 266.5,-111 266.5,-105 266.5,-105 266.5,-93 266.5,-93 266.5,-87 272.5,-81 278.5,-81 278.5,-81 323.75,-81 323.75,-81 329.75,-81 335.75,-87 335.75,-93 335.75,-93 335.75,-105 335.75,-105 335.75,-111 329.75,-117 323.75,-117"/>
<text text-anchor="middle" x="301.12" y="-94.7" font-family="Times,serif" font-size="14.00">ops&#45;hub</text>
</g>
<!-- SERVICE:scheduler&#45;&gt;SERVICE:ops&#45;hub -->
<g id="edge3" class="edge">
<title>SERVICE:scheduler&#45;&gt;SERVICE:ops&#45;hub</title>
<g id="a_edge3"><a xlink:title="edge#2">
<path fill="none" stroke="black" d="M94.99,-121.78C138.23,-116.98 208.83,-109.14 254.88,-104.02"/>
<polygon fill="black" stroke="black" points="255.26,-107.5 264.82,-102.92 254.49,-100.55 255.26,-107.5"/>
</a>
</g>
<text text-anchor="middle" x="188.88" y="-122.7" font-family="Times,serif" font-size="14.00">CALLS [rest] (sync)</text>
</g>
<!-- SERVICE:admin&#45;console -->
<g id="node3" class="node">
<title>SERVICE:admin&#45;console</title>
<path fill="#eef6ff" stroke="black" d="M100,-90C100,-90 12,-90 12,-90 6,-90 0,-84 0,-78 0,-78 0,-66 0,-66 0,-60 6,-54 12,-54 12,-54 100,-54 100,-54 106,-54 112,-60 112,-66 112,-66 112,-78 112,-78 112,-84 106,-90 100,-90"/>
<text text-anchor="middle" x="56" y="-67.7" font-family="Times,serif" font-size="14.00">admin&#45;console</text>
</g>
<!-- SERVICE:admin&#45;console&#45;&gt;SERVICE:ops&#45;hub -->
<g id="edge4" class="edge">
<title>SERVICE:admin&#45;console&#45;&gt;SERVICE:ops&#45;hub</title>
<g id="a_edge4"><a xlink:title="edge#3">
<path fill="none" stroke="black" d="M112.5,-71.72C150.78,-72.37 202.69,-74.94 247.75,-83 250.18,-83.44 252.66,-83.95 255.15,-84.52"/>
<polygon fill="black" stroke="black" points="254.02,-87.84 264.58,-86.93 255.76,-81.06 254.02,-87.84"/>
</a>
</g>
<text text-anchor="middle" x="188.88" y="-87.7" font-family="Times,serif" font-size="14.00">CALLS [rest] (sync)</text>
</g>
<!-- SERVICE:audit&#45;log -->
<g id="node4" class="node">
<title>SERVICE:audit&#45;log</title>
<path fill="#eef6ff" stroke="black" d="M1386.38,-158C1386.38,-158 1335.88,-158 1335.88,-158 1329.88,-158 1323.88,-152 1323.88,-146 1323.88,-146 1323.88,-134 1323.88,-134 1323.88,-128 1329.88,-122 1335.88,-122 1335.88,-122 1386.38,-122 1386.38,-122 1392.38,-122 1398.38,-128 1398.38,-134 1398.38,-134 1398.38,-146 1398.38,-146 1398.38,-152 1392.38,-158 1386.38,-158"/>
<text text-anchor="middle" x="1361.12" y="-135.7" font-family="Times,serif" font-size="14.00">audit&#45;log</text>
</g>
<!-- SERVICE:ops&#45;hub_split_split -->
<g id="node5" class="node">
<title>SERVICE:ops&#45;hub_split_split</title>
<path fill="#eef6ff" stroke="black" d="M1693,-138C1693,-138 1578.75,-138 1578.75,-138 1572.75,-138 1566.75,-132 1566.75,-126 1566.75,-126 1566.75,-114 1566.75,-114 1566.75,-108 1572.75,-102 1578.75,-102 1578.75,-102 1693,-102 1693,-102 1699,-102 1705,-108 1705,-114 1705,-114 1705,-126 1705,-126 1705,-132 1699,-138 1693,-138"/>
<text text-anchor="middle" x="1635.88" y="-115.7" font-family="Times,serif" font-size="14.00">ops&#45;hub_split_split</text>
</g>
<!-- SERVICE:report&#45;export -->
<g id="node8" class="node">
<title>SERVICE:report&#45;export</title>
<path fill="#eef6ff" stroke="black" d="M1951.62,-165C1951.62,-165 1872.62,-165 1872.62,-165 1866.62,-165 1860.62,-159 1860.62,-153 1860.62,-153 1860.62,-141 1860.62,-141 1860.62,-135 1866.62,-129 1872.62,-129 1872.62,-129 1951.62,-129 1951.62,-129 1957.62,-129 1963.62,-135 1963.62,-141 1963.62,-141 1963.62,-153 1963.62,-153 1963.62,-159 1957.62,-165 1951.62,-165"/>
<text text-anchor="middle" x="1912.12" y="-142.7" font-family="Times,serif" font-size="14.00">report&#45;export</text>
</g>
<!-- SERVICE:ops&#45;hub_split_split&#45;&gt;SERVICE:report&#45;export -->
<g id="edge10" class="edge">
<title>SERVICE:ops&#45;hub_split_split&#45;&gt;SERVICE:report&#45;export</title>
<g id="a_edge10"><a xlink:title="edge#9">
<path fill="none" stroke="black" d="M1705.37,-126.74C1749.41,-131.08 1806.16,-136.67 1848.91,-140.87"/>
<polygon fill="black" stroke="black" points="1848.49,-144.35 1858.79,-141.85 1849.18,-137.38 1848.49,-144.35"/>
</a>
</g>
<text text-anchor="middle" x="1781.88" y="-144.7" font-family="Times,serif" font-size="14.00">CALLS [rest] (sync)</text>
</g>
<!-- SERVICE:metrics&#45;agent -->
<g id="node11" class="node">
<title>SERVICE:metrics&#45;agent</title>
<path fill="#eef6ff" stroke="black" d="M1953.5,-111C1953.5,-111 1870.75,-111 1870.75,-111 1864.75,-111 1858.75,-105 1858.75,-99 1858.75,-99 1858.75,-87 1858.75,-87 1858.75,-81 1864.75,-75 1870.75,-75 1870.75,-75 1953.5,-75 1953.5,-75 1959.5,-75 1965.5,-81 1965.5,-87 1965.5,-87 1965.5,-99 1965.5,-99 1965.5,-105 1959.5,-111 1953.5,-111"/>
<text text-anchor="middle" x="1912.12" y="-88.7" font-family="Times,serif" font-size="14.00">metrics&#45;agent</text>
</g>
<!-- SERVICE:ops&#45;hub_split_split&#45;&gt;SERVICE:metrics&#45;agent -->
<g id="edge9" class="edge">
<title>SERVICE:ops&#45;hub_split_split&#45;&gt;SERVICE:metrics&#45;agent</title>
<g id="a_edge9"><a xlink:title="edge#8">
<path fill="none" stroke="black" d="M1705.45,-109.17C1711.38,-108.38 1717.29,-107.64 1723,-107 1764.11,-102.37 1810.46,-98.9 1846.87,-96.58"/>
<polygon fill="black" stroke="black" points="1847.04,-100.07 1856.81,-95.96 1846.61,-93.09 1847.04,-100.07"/>
</a>
</g>
<text text-anchor="middle" x="1781.88" y="-111.7" font-family="Times,serif" font-size="14.00">CALLS [rest] (sync)</text>
</g>
<!-- SERVICE:ops&#45;hub_split&#45;3 -->
<g id="node6" class="node">
<title>SERVICE:ops&#45;hub_split&#45;3</title>
<path fill="#eef6ff" stroke="black" d="M595.5,-158C595.5,-158 502.25,-158 502.25,-158 496.25,-158 490.25,-152 490.25,-146 490.25,-146 490.25,-134 490.25,-134 490.25,-128 496.25,-122 502.25,-122 502.25,-122 595.5,-122 595.5,-122 601.5,-122 607.5,-128 607.5,-134 607.5,-134 607.5,-146 607.5,-146 607.5,-152 601.5,-158 595.5,-158"/>
<text text-anchor="middle" x="548.88" y="-135.7" font-family="Times,serif" font-size="14.00">ops&#45;hub_split&#45;3</text>
</g>
<!-- SERVICE:ops&#45;hub_split&#45;2 -->
<g id="node20" class="node">
<title>SERVICE:ops&#45;hub_split&#45;2</title>
<path fill="#eef6ff" stroke="black" d="M866.5,-158C866.5,-158 773.25,-158 773.25,-158 767.25,-158 761.25,-152 761.25,-146 761.25,-146 761.25,-134 761.25,-134 761.25,-128 767.25,-122 773.25,-122 773.25,-122 866.5,-122 866.5,-122 872.5,-122 878.5,-128 878.5,-134 878.5,-134 878.5,-146 878.5,-146 878.5,-152 872.5,-158 866.5,-158"/>
<text text-anchor="middle" x="819.88" y="-135.7" font-family="Times,serif" font-size="14.00">ops&#45;hub_split&#45;2</text>
</g>
<!-- SERVICE:ops&#45;hub_split&#45;3&#45;&gt;SERVICE:ops&#45;hub_split&#45;2 -->
<g id="edge17" class="edge">
<title>SERVICE:ops&#45;hub_split&#45;3&#45;&gt;SERVICE:ops&#45;hub_split&#45;2</title>
<g id="a_edge17"><a xlink:title="edge#16">
<path fill="none" stroke="black" d="M607.91,-140C649.45,-140 705.57,-140 749.48,-140"/>
<polygon fill="black" stroke="black" points="749.43,-143.5 759.43,-140 749.43,-136.5 749.43,-143.5"/>
</a>
</g>
<text text-anchor="middle" x="684.38" y="-144.7" font-family="Times,serif" font-size="14.00">CALLS [rest] (sync)</text>
</g>
<!-- SERVICE:sms&#45;gateway -->
<g id="node7" class="node">
<title>SERVICE:sms&#45;gateway</title>
<path fill="#eef6ff" stroke="black" d="M1129.25,-185C1129.25,-185 1051,-185 1051,-185 1045,-185 1039,-179 1039,-173 1039,-173 1039,-161 1039,-161 1039,-155 1045,-149 1051,-149 1051,-149 1129.25,-149 1129.25,-149 1135.25,-149 1141.25,-155 1141.25,-161 1141.25,-161 1141.25,-173 1141.25,-173 1141.25,-179 1135.25,-185 1129.25,-185"/>
<text text-anchor="middle" x="1090.12" y="-162.7" font-family="Times,serif" font-size="14.00">sms&#45;gateway</text>
</g>
<!-- SERVICE:notifications -->
<g id="node9" class="node">
<title>SERVICE:notifications</title>
<path fill="#eef6ff" stroke="black" d="M92.12,-306C92.12,-306 19.88,-306 19.88,-306 13.88,-306 7.88,-300 7.88,-294 7.88,-294 7.88,-282 7.88,-282 7.88,-276 13.88,-270 19.88,-270 19.88,-270 92.12,-270 92.12,-270 98.12,-270 104.12,-276 104.12,-282 104.12,-282 104.12,-294 104.12,-294 104.12,-300 98.12,-306 92.12,-306"/>
<text text-anchor="middle" x="56" y="-283.7" font-family="Times,serif" font-size="14.00">notifications</text>
</g>
<!-- DATABASE:user&#45;db -->
<g id="node10" class="node">
<title>DATABASE:user&#45;db</title>
<path fill="#fff3cd" stroke="black" d="M333.88,-248.73C333.88,-250.53 319.2,-252 301.12,-252 283.05,-252 268.38,-250.53 268.38,-248.73 268.38,-248.73 268.38,-219.27 268.38,-219.27 268.38,-217.47 283.05,-216 301.12,-216 319.2,-216 333.88,-217.47 333.88,-219.27 333.88,-219.27 333.88,-248.73 333.88,-248.73"/>
<path fill="none" stroke="black" d="M333.88,-248.73C333.88,-246.92 319.2,-245.45 301.12,-245.45 283.05,-245.45 268.38,-246.92 268.38,-248.73"/>
<text text-anchor="middle" x="301.12" y="-229.7" font-family="Times,serif" font-size="14.00">user&#45;db</text>
</g>
<!-- SERVICE:notifications&#45;&gt;DATABASE:user&#45;db -->
<g id="edge13" class="edge">
<title>SERVICE:notifications&#45;&gt;DATABASE:user&#45;db</title>
<g id="a_edge13"><a xlink:title="edge#12">
<path fill="none" stroke="black" d="M104.32,-283.15C143.34,-278.42 199.85,-269.87 247.75,-256 251.01,-255.06 254.34,-253.97 257.66,-252.79"/>
<polygon fill="black" stroke="black" points="258.62,-256.17 266.72,-249.35 256.13,-249.63 258.62,-256.17"/>
</a>
</g>
<text text-anchor="middle" x="188.88" y="-283.7" font-family="Times,serif" font-size="14.00">CALLS [rest] (sync)</text>
</g>
<!-- SERVICE:preferences -->
<g id="node12" class="node">
<title>SERVICE:preferences</title>
<path fill="#eef6ff" stroke="black" d="M89.5,-252C89.5,-252 22.5,-252 22.5,-252 16.5,-252 10.5,-246 10.5,-240 10.5,-240 10.5,-228 10.5,-228 10.5,-222 16.5,-216 22.5,-216 22.5,-216 89.5,-216 89.5,-216 95.5,-216 101.5,-222 101.5,-228 101.5,-228 101.5,-240 101.5,-240 101.5,-246 95.5,-252 89.5,-252"/>
<text text-anchor="middle" x="56" y="-229.7" font-family="Times,serif" font-size="14.00">preferences</text>
</g>
<!-- SERVICE:preferences&#45;&gt;DATABASE:user&#45;db -->
<g id="edge12" class="edge">
<title>SERVICE:preferences&#45;&gt;DATABASE:user&#45;db</title>
<g id="a_edge12"><a xlink:title="edge#11">
<path fill="none" stroke="black" d="M101.88,-234C145.99,-234 212.88,-234 256.54,-234"/>
<polygon fill="black" stroke="black" points="256.42,-237.5 266.42,-234 256.42,-230.5 256.42,-237.5"/>
</a>
</g>
<text text-anchor="middle" x="188.88" y="-238.7" font-family="Times,serif" font-size="14.00">CALLS [rest] (sync)</text>
</g>
<!-- SERVICE:tax -->
<g id="node14" class="node">
<title>SERVICE:tax</title>
<path fill="#eef6ff" stroke="black" d="M563.88,-36C563.88,-36 533.88,-36 533.88,-36 527.88,-36 521.88,-30 521.88,-24 521.88,-24 521.88,-12 521.88,-12 521.88,-6 527.88,0 533.88,0 533.88,0 563.88,0 563.88,0 569.88,0 575.88,-6 575.88,-12 575.88,-12 575.88,-24 575.88,-24 575.88,-30 569.88,-36 563.88,-36"/>
<text text-anchor="middle" x="548.88" y="-13.7" font-family="Times,serif" font-size="14.00">tax</text>
</g>
<!-- SERVICE:discount&#45;&gt;SERVICE:tax -->
<g id="edge2" class="edge">
<title>SERVICE:discount&#45;&gt;SERVICE:tax</title>
<g id="a_edge2"><a xlink:title="edge#1">
<path fill="none" stroke="black" d="M336.81,-18C382.67,-18 463.18,-18 510.39,-18"/>
<polygon fill="black" stroke="black" points="510.13,-21.5 520.13,-18 510.13,-14.5 510.13,-21.5"/>
</a>
</g>
<text text-anchor="middle" x="413.38" y="-22.7" font-family="Times,serif" font-size="14.00">CALLS [rest] (sync)</text>
</g>
<!-- SERVICE:ops&#45;hub&#45;&gt;SERVICE:ops&#45;hub_split&#45;3 -->
<g id="edge18" class="edge">
<title>SERVICE:ops&#45;hub&#45;&gt;SERVICE:ops&#45;hub_split&#45;3</title>
<g id="a_edge18"><a xlink:title="edge#17">
<path fill="none" stroke="black" d="M336.14,-107.19C342.23,-108.54 348.54,-109.87 354.5,-111 395.61,-118.78 441.96,-125.79 478.97,-130.97"/>
<polygon fill="black" stroke="black" points="478.26,-134.4 488.64,-132.31 479.22,-127.47 478.26,-134.4"/>
</a>
</g>
<text text-anchor="middle" x="413.38" y="-134.7" font-family="Times,serif" font-size="14.00">CALLS [rest] (sync)</text>
</g>
<!-- SERVICE:emailer -->
<g id="node16" class="node">
<title>SERVICE:emailer</title>
<path fill="#eef6ff" stroke="black" d="M568.88,-104C568.88,-104 528.88,-104 528.88,-104 522.88,-104 516.88,-98 516.88,-92 516.88,-92 516.88,-80 516.88,-80 516.88,-74 522.88,-68 528.88,-68 528.88,-68 568.88,-68 568.88,-68 574.88,-68 580.88,-74 580.88,-80 580.88,-80 580.88,-92 580.88,-92 580.88,-98 574.88,-104 568.88,-104"/>
<text text-anchor="middle" x="548.88" y="-81.7" font-family="Times,serif" font-size="14.00">emailer</text>
</g>
<!-- SERVICE:ops&#45;hub&#45;&gt;SERVICE:emailer -->
<g id="edge5" class="edge">
<title>SERVICE:ops&#45;hub&#45;&gt;SERVICE:emailer</title>
<g id="a_edge5"><a xlink:title="edge#4">
<path fill="none" stroke="black" d="M336.18,-94.71C342.27,-94.05 348.57,-93.45 354.5,-93 406.26,-89.1 465.99,-87.36 505.2,-86.59"/>
<polygon fill="black" stroke="black" points="505.24,-90.09 515.17,-86.41 505.11,-83.09 505.24,-90.09"/>
</a>
</g>
<text text-anchor="middle" x="413.38" y="-97.7" font-family="Times,serif" font-size="14.00">CALLS [rest] (sync)</text>
</g>
<!-- SERVICE:ops&#45;hub_split&#45;1 -->
<g id="node17" class="node">
<title>SERVICE:ops&#45;hub_split&#45;1</title>
<path fill="#eef6ff" stroke="black" d="M1136,-131C1136,-131 1044.25,-131 1044.25,-131 1038.25,-131 1032.25,-125 1032.25,-119 1032.25,-119 1032.25,-107 1032.25,-107 1032.25,-101 1038.25,-95 1044.25,-95 1044.25,-95 1136,-95 1136,-95 1142,-95 1148,-101 1148,-107 1148,-107 1148,-119 1148,-119 1148,-125 1142,-131 1136,-131"/>
<text text-anchor="middle" x="1090.12" y="-108.7" font-family="Times,serif" font-size="14.00">ops&#45;hub_split&#45;1</text>
</g>
<!-- SERVICE:ops&#45;hub_split&#45;1&#45;&gt;SERVICE:audit&#45;log -->
<g id="edge7" class="edge">
<title>SERVICE:ops&#45;hub_split&#45;1&#45;&gt;SERVICE:audit&#45;log</title>
<g id="a_edge7"><a xlink:title="edge#6">
<path fill="none" stroke="black" d="M1148.17,-118.73C1196.84,-123.61 1266.02,-130.55 1311.95,-135.16"/>
<polygon fill="black" stroke="black" points="1311.58,-138.64 1321.88,-136.16 1312.28,-131.68 1311.58,-138.64"/>
</a>
</g>
<text text-anchor="middle" x="1228.62" y="-137.7" font-family="Times,serif" font-size="14.00">CALLS [rest] (sync)</text>
</g>
<!-- SERVICE:ops&#45;hub_split -->
<g id="node19" class="node">
<title>SERVICE:ops&#45;hub_split</title>
<path fill="#eef6ff" stroke="black" d="M1401,-104C1401,-104 1321.25,-104 1321.25,-104 1315.25,-104 1309.25,-98 1309.25,-92 1309.25,-92 1309.25,-80 1309.25,-80 1309.25,-74 1315.25,-68 1321.25,-68 1321.25,-68 1401,-68 1401,-68 1407,-68 1413,-74 1413,-80 1413,-80 1413,-92 1413,-92 1413,-98 1407,-104 1401,-104"/>
<text text-anchor="middle" x="1361.12" y="-81.7" font-family="Times,serif" font-size="14.00">ops&#45;hub_split</text>
</g>
<!-- SERVICE:ops&#45;hub_split&#45;1&#45;&gt;SERVICE:ops&#45;hub_split -->
<g id="edge14" class="edge">
<title>SERVICE:ops&#45;hub_split&#45;1&#45;&gt;SERVICE:ops&#45;hub_split</title>
<g id="a_edge14"><a xlink:title="edge#13">
<path fill="none" stroke="black" d="M1148.25,-101.6C1154.23,-100.62 1160.23,-99.73 1166,-99 1209.73,-93.47 1259.32,-90.2 1297.44,-88.32"/>
<polygon fill="black" stroke="black" points="1297.54,-91.82 1307.36,-87.85 1297.21,-84.83 1297.54,-91.82"/>
</a>
</g>
<text text-anchor="middle" x="1228.62" y="-103.7" font-family="Times,serif" font-size="14.00">CALLS [rest] (async)</text>
</g>
<!-- SERVICE:cache&#45;proxy -->
<g id="node18" class="node">
<title>SERVICE:cache&#45;proxy</title>
<path fill="#eef6ff" stroke="black" d="M1670.88,-84C1670.88,-84 1600.88,-84 1600.88,-84 1594.88,-84 1588.88,-78 1588.88,-72 1588.88,-72 1588.88,-60 1588.88,-60 1588.88,-54 1594.88,-48 1600.88,-48 1600.88,-48 1670.88,-48 1670.88,-48 1676.88,-48 1682.88,-54 1682.88,-60 1682.88,-60 1682.88,-72 1682.88,-72 1682.88,-78 1676.88,-84 1670.88,-84"/>
<text text-anchor="middle" x="1635.88" y="-61.7" font-family="Times,serif" font-size="14.00">cache&#45;proxy</text>
</g>
<!-- SERVICE:ops&#45;hub_split&#45;&gt;SERVICE:ops&#45;hub_split_split -->
<g id="edge16" class="edge">
<title>SERVICE:ops&#45;hub_split&#45;&gt;SERVICE:ops&#45;hub_split_split</title>
<g id="a_edge16"><a xlink:title="edge#15">
<path fill="none" stroke="black" d="M1413.43,-92.4C1453.26,-97.36 1509.21,-104.34 1554.91,-110.03"/>
<polygon fill="black" stroke="black" points="1554.43,-113.5 1564.79,-111.26 1555.3,-106.55 1554.43,-113.5"/>
</a>
</g>
<text text-anchor="middle" x="1489.88" y="-114.7" font-family="Times,serif" font-size="14.00">CALLS [rest] (sync)</text>
</g>
<!-- SERVICE:ops&#45;hub_split&#45;&gt;SERVICE:cache&#45;proxy -->
<g id="edge8" class="edge">
<title>SERVICE:ops&#45;hub_split&#45;&gt;SERVICE:cache&#45;proxy</title>
<g id="a_edge8"><a xlink:title="edge#7">
<path fill="none" stroke="black" d="M1413.15,-75.47C1419.14,-74.5 1425.19,-73.64 1431,-73 1480.12,-67.55 1536.27,-65.96 1577.19,-65.65"/>
<polygon fill="black" stroke="black" points="1577.08,-69.15 1587.06,-65.6 1577.05,-62.15 1577.08,-69.15"/>
</a>
</g>
<text text-anchor="middle" x="1489.88" y="-77.7" font-family="Times,serif" font-size="14.00">CALLS [rest] (sync)</text>
</g>
<!-- SERVICE:ops&#45;hub_split&#45;2&#45;&gt;SERVICE:sms&#45;gateway -->
<g id="edge6" class="edge">
<title>SERVICE:ops&#45;hub_split&#45;2&#45;&gt;SERVICE:sms&#45;gateway</title>
<g id="a_edge6"><a xlink:title="edge#5">
<path fill="none" stroke="black" d="M878.75,-145.83C922.53,-150.23 982.54,-156.27 1027.27,-160.77"/>
<polygon fill="black" stroke="black" points="1026.78,-164.24 1037.08,-161.76 1027.48,-157.28 1026.78,-164.24"/>
</a>
</g>
<text text-anchor="middle" x="955.38" y="-164.7" font-family="Times,serif" font-size="14.00">CALLS [rest] (sync)</text>
</g>
<!-- SERVICE:ops&#45;hub_split&#45;2&#45;&gt;SERVICE:ops&#45;hub_split&#45;1 -->
<g id="edge15" class="edge">
<title>SERVICE:ops&#45;hub_split&#45;2&#45;&gt;SERVICE:ops&#45;hub_split&#45;1</title>
<g id="a_edge15"><a xlink:title="edge#14">
<path fill="none" stroke="black" d="M878.99,-128.54C884.89,-127.59 890.8,-126.72 896.5,-126 937.64,-120.82 984,-117.61 1020.92,-115.68"/>
<polygon fill="black" stroke="black" points="1020.74,-119.19 1030.55,-115.19 1020.39,-112.2 1020.74,-119.19"/>
</a>
</g>
<text text-anchor="middle" x="955.38" y="-130.7" font-family="Times,serif" font-size="14.00">CALLS [rest] (sync)</text>
</g>
<!-- SERVICE:user&#45;profile -->
<g id="node21" class="node">
<title>SERVICE:user&#45;profile</title>
<path fill="#eef6ff" stroke="black" d="M89.12,-198C89.12,-198 22.88,-198 22.88,-198 16.88,-198 10.88,-192 10.88,-186 10.88,-186 10.88,-174 10.88,-174 10.88,-168 16.88,-162 22.88,-162 22.88,-162 89.12,-162 89.12,-162 95.12,-162 101.12,-168 101.12,-174 101.12,-174 101.12,-186 101.12,-186 101.12,-192 95.12,-198 89.12,-198"/>
<text text-anchor="middle" x="56" y="-175.7" font-family="Times,serif" font-size="14.00">user&#45;profile</text>
</g>
<!-- SERVICE:user&#45;profile&#45;&gt;DATABASE:user&#45;db -->
<g id="edge11" class="edge">
<title>SERVICE:user&#45;profile&#45;&gt;DATABASE:user&#45;db</title>
<g id="a_edge11"><a xlink:title="edge#10">
<path fill="none" stroke="black" d="M101.59,-184.52C140.67,-189.18 198.72,-197.8 247.75,-212 251.01,-212.94 254.34,-214.03 257.66,-215.21"/>
<polygon fill="black" stroke="black" points="256.13,-218.37 266.72,-218.65 258.62,-211.83 256.13,-218.37"/>
</a>
</g>
<text text-anchor="middle" x="188.88" y="-216.7" font-family="Times,serif" font-size="14.00">CALLS [rest] (sync)</text>
</g>
</g>
</svg>
