<?xml version="1.0" encoding="UTF-8" standalone="no"?>
<!DOCTYPE svg PUBLIC "-//W3C//DTD SVG 1.1//EN"
 "http://www.w3.org/Graphics/SVG/1.1/DTD/svg11.dtd">
<!-- Generated by graphviz version 9.0.0 (20230911.1827)
 -->
<!-- Title: G Pages: 1 -->
<svg width="1424pt" height="367pt"
 viewBox="0.00 0.00 1424.00 367.00" xmlns="http://www.w3.org/2000/svg" xmlns:xlink="http://www.w3.org/1999/xlink">
<g id="graph0" class="graph" transform="scale(1 1) rotate(0) translate(4 363)">
<title>G</title>
<polygon fill="white" stroke="none" points="-4,4 -4,-363 1420,-363 1420,4 -4,4"/>
<text text-anchor="middle" x="708" y="-341.7" font-family="Helvetica,sans-Serif" font-size="14.00">Architecture</text>
<!-- DATABASE:user&#45;db -->
<g id="node1" class="node">
<title>DATABASE:user&#45;db</title>
<path fill="#fff3cd" stroke="black" d="M333.88,-86.73C333.88,-88.53 319.2,-90 301.12,-90 283.05,-90 268.38,-88.53 268.38,-86.73 268.38,-86.73 268.38,-57.27 268.38,-57.27 268.38,-55.47 283.05,-54 301.12,-54 319.2,-54 333.88,-55.47 333.88,-57.27 333.88,-57.27 333.88,-86.73 333.88,-86.73"/>
<path fill="none" stroke="black" d="M333.88,-86.73C333.88,-84.92 319.2,-83.45 301.12,-83.45 283.05,-83.45 268.38,-84.92 268.38,-86.73"/>
<text text-anchor="middle" x="301.12" y="-67.7" font-family="Times,serif" font-size="14.00">user&#45;db</text>
</g>
<!-- SERVICE:ops&#45;hub_split_split -->
<g id="node2" class="node">
<title>SERVICE:ops&#45;hub_split_split</title>
<path fill="#eef6ff" stroke="black" d="M1143.5,-285C1143.5,-285 1029.25,-285 1029.25,-285 1023.25,-285 1017.25,-279 1017.25,-273 1017.25,-273 1017.25,-261 1017.25,-261 1017.25,-255 1023.25,-249 1029.25,-249 1029.25,-249 1143.5,-249 1143.5,-249 1149.5,-249 1155.5,-255 1155.5,-261 1155.5,-261 1155.5,-273 1155.5,-273 1155.5,-279 1149.5,-285 1143.5,-285"/>
<text text-anchor="middle" x="1086.38" y="-262.7" font-family="Times,serif" font-size="14.00">ops&#45;hub_split_split</text>
</g>
<!-- SERVICE:metrics&#45;agent -->
<g id="node4" class="node">
<title>SERVICE:metrics&#45;agent</title>
<path fill="#eef6ff" stroke="black" d="M1404,-312C1404,-312 1321.25,-312 1321.25,-312 1315.25,-312 1309.25,-306 1309.25,-300 1309.25,-300 1309.25,-288 1309.25,-288 1309.25,-282 1315.25,-276 1321.25,-276 1321.25,-276 1404,-276 1404,-276 1410,-276 1416,-282 1416,-288 1416,-288 1416,-300 1416,-300 1416,-306 1410,-312 1404,-312"/>
<text text-anchor="middle" x="1362.62" y="-289.7" font-family="Times,serif" font-size="14.00">metrics&#45;agent</text>
</g>
<!-- SERVICE:ops&#45;hub_split_split&#45;&gt;SERVICE:metrics&#45;agent -->
<g id="edge9" class="edge">
<title>SERVICE:ops&#45;hub_split_split&#45;&gt;SERVICE:metrics&#45;agent</title>
<g id="a_edge9"><a xlink:title="edge#8">
<path fill="none" stroke="black" d="M1155.87,-273.74C1199.33,-278.02 1255.17,-283.52 1297.71,-287.71"/>
<polygon fill="black" stroke="black" points="1297.25,-291.18 1307.55,-288.68 1297.94,-284.21 1297.25,-291.18"/>
</a>
</g>
<text text-anchor="middle" x="1232.38" y="-290.7" font-family="Times,serif" font-size="14.00">CALLS [rest] (sync)</text>
</g>
<!-- SERVICE:report&#45;export -->
<g id="node18" class="node">
<title>SERVICE:report&#45;export</title>
<path fill="#eef6ff" stroke="black" d="M1402.12,-258C1402.12,-258 1323.12,-258 1323.12,-258 1317.12,-258 1311.12,-252 1311.12,-246 1311.12,-246 1311.12,-234 1311.12,-234 1311.12,-228 1317.12,-222 1323.12,-222 1323.12,-222 1402.12,-222 1402.12,-222 1408.12,-222 1414.12,-228 1414.12,-234 1414.12,-234 1414.12,-246 1414.12,-246 1414.12,-252 1408.12,-258 1402.12,-258"/>
<text text-anchor="middle" x="1362.62" y="-235.7" font-family="Times,serif" font-size="14.00">report&#45;export</text>
</g>
<!-- SERVICE:ops&#45;hub_split_split&#45;&gt;SERVICE:report&#45;export -->
<g id="edge10" class="edge">
<title>SERVICE:ops&#45;hub_split_split&#45;&gt;SERVICE:report&#45;export</title>
<g id="a_edge10"><a xlink:title="edge#9">
<path fill="none" stroke="black" d="M1155.93,-255.27C1161.86,-254.43 1167.78,-253.66 1173.5,-253 1215.5,-248.15 1263,-244.88 1299.76,-242.84"/>
<polygon fill="black" stroke="black" points="1299.5,-246.36 1309.3,-242.32 1299.12,-239.37 1299.5,-246.36"/>
</a>
</g>
<text text-anchor="middle" x="1232.38" y="-257.7" font-family="Times,serif" font-size="14.00">CALLS [rest] (sync)</text>
</g>
<!-- SERVICE:discount -->
<g id="node3" class="node">
<title>SERVICE:discount</title>
<path fill="#eef6ff" stroke="black" d="M324.5,-333C324.5,-333 277.75,-333 277.75,-333 271.75,-333 265.75,-327 265.75,-321 265.75,-321 265.75,-309 265.75,-309 265.75,-303 271.75,-297 277.75,-297 277.75,-297 324.5,-297 324.5,-297 330.5,-297 336.5,-303 336.5,-309 336.5,-309 336.5,-321 336.5,-321 336.5,-327 330.5,-333 324.5,-333"/>
<text text-anchor="middle" x="301.12" y="-310.7" font-family="Times,serif" font-size="14.00">discount</text>
</g>
<!-- SERVICE:tax -->
<g id="node6" class="node">
<title>SERVICE:tax</title>
<path fill="#eef6ff" stroke="black" d="M563.12,-333C563.12,-333 533.12,-333 533.12,-333 527.12,-333 521.12,-327 521.12,-321 521.12,-321 521.12,-309 521.12,-309 521.12,-303 527.12,-297 533.12,-297 533.12,-297 563.12,-297 563.12,-297 569.12,-297 575.12,-303 575.12,-309 575.12,-309 575.12,-321 575.12,-321 575.12,-327 569.12,-333 563.12,-333"/>
<text text-anchor="middle" x="548.12" y="-310.7" font-family="Times,serif" font-size="14.00">tax</text>
</g>
<!-- SERVICE:discount&#45;&gt;SERVICE:tax -->
<g id="edge2" class="edge">
<title>SERVICE:discount&#45;&gt;SERVICE:tax</title>
<g id="a_edge2"><a xlink:title="edge#1">
<path fill="none" stroke="black" d="M336.97,-315C382.54,-315 462.11,-315 509.17,-315"/>
<polygon fill="black" stroke="black" points="509.16,-318.5 519.16,-315 509.16,-311.5 509.16,-318.5"/>
</a>
</g>
<text text-anchor="middle" x="413.38" y="-319.7" font-family="Times,serif" font-size="14.00">CALLS [rest] (sync)</text>
</g>
<!-- SERVICE:pricing -->
<g id="node5" class="node">
<title>SERVICE:pricing</title>
<path fill="#eef6ff" stroke="black" d="M74.12,-333C74.12,-333 37.88,-333 37.88,-333 31.88,-333 25.88,-327 25.88,-321 25.88,-321 25.88,-309 25.88,-309 25.88,-303 31.88,-297 37.88,-297 37.88,-297 74.12,-297 74.12,-297 80.12,-297 86.12,-303 86.12,-309 86.12,-309 86.12,-321 86.12,-321 86.12,-327 80.12,-333 74.12,-333"/>
<text text-anchor="middle" x="56" y="-310.7" font-family="Times,serif" font-size="14.00">pricing</text>
</g>
<!-- SERVICE:pricing&#45;&gt;SERVICE:discount -->
<g id="edge1" class="edge">
<title>SERVICE:pricing&#45;&gt;SERVICE:discount</title>
<g id="a_edge1"><a xlink:title="edge#0">
<path fill="none" stroke="black" d="M86.33,-315C128.07,-315 205.01,-315 254.31,-315"/>
<polygon fill="black" stroke="black" points="254.09,-318.5 264.09,-315 254.09,-311.5 254.09,-318.5"/>
</a>
</g>
<text text-anchor="middle" x="188.88" y="-319.7" font-family="Times,serif" font-size="14.00">CALLS [rest] (sync)</text>
</g>
<!-- SERVICE:admin&#45;console -->
<g id="node7" class="node">
<title>SERVICE:admin&#45;console</title>
<path fill="#eef6ff" stroke="black" d="M100,-252C100,-252 12,-252 12,-252 6,-252 0,-246 0,-240 0,-240 0,-228 0,-228 0,-222 6,-216 12,-216 12,-216 100,-216 100,-216 106,-216 112,-222 112,-228 112,-228 112,-240 112,-240 112,-246 106,-252 100,-252"/>
<text text-anchor="middle" x="56" y="-229.7" font-family="Times,serif" font-size="14.00">admin&#45;console</text>
</g>
<!-- SERVICE:ops&#45;hub -->
<g id="node13" class="node">
<title>SERVICE:ops&#45;hub</title>
<path fill="#eef6ff" stroke="black" d="M323.75,-225C323.75,-225 278.5,-225 278.5,-225 272.5,-225 266.5,-219 266.5,-213 266.5,-213 266.5,-201 266.5,-201 266.5,-195 272.5,-189 278.5,-189 278.5,-189 323.75,-189 323.75,-189 329.75,-189 335.75,-195 335.75,-201 335.75,-201 335.75,-213 335.75,-213 335.75,-219 329.75,-225 323.75,-225"/>
<text text-anchor="middle" x="301.12" y="-202.7" font-family="Times,serif" font-size="14.00">ops&#45;hub</text>
</g>
<!-- SERVICE:admin&#45;console&#45;&gt;SERVICE:ops&#45;hub -->
<g id="edge4" class="edge">
<title>SERVICE:admin&#45;console&#45;&gt;SERVICE:ops&#45;hub</title>
<g id="a_edge4"><a xlink:title="edge#3">
<path fill="none" stroke="black" d="M112.47,-227.84C155.59,-223.05 214.64,-216.49 254.91,-212.02"/>
<polygon fill="black" stroke="black" points="255.19,-215.51 264.75,-210.93 254.42,-208.55 255.19,-215.51"/>
</a>
</g>
<text text-anchor="middle" x="188.88" y="-229.7" font-family="Times,serif" font-size="14.00">CALLS [rest] (sync)</text>
</g>
<!-- SERVICE:emailer -->
<g id="node8" class="node">
<title>SERVICE:emailer</title>
<path fill="#eef6ff" stroke="black" d="M568.12,-279C568.12,-279 528.12,-279 528.12,-279 522.12,-279 516.12,-273 516.12,-267 516.12,-267 516.12,-255 516.12,-255 516.12,-249 522.12,-243 528.12,-243 528.12,-243 568.12,-243 568.12,-243 574.12,-243 580.12,-249 580.12,-255 580.12,-255 580.12,-267 580.12,-267 580.12,-273 574.12,-279 568.12,-279"/>
<text text-anchor="middle" x="548.12" y="-256.7" font-family="Times,serif" font-size="14.00">emailer</text>
</g>
<!-- SERVICE:cache&#45;proxy -->
<g id="node9" class="node">
<title>SERVICE:cache&#45;proxy</title>
<path fill="#eef6ff" stroke="black" d="M1121.38,-231C1121.38,-231 1051.38,-231 1051.38,-231 1045.38,-231 1039.38,-225 1039.38,-219 1039.38,-219 1039.38,-207 1039.38,-207 1039.38,-201 1045.38,-195 1051.38,-195 1051.38,-195 1121.38,-195 1121.38,-195 1127.38,-195 1133.38,-201 1133.38,-207 1133.38,-207 1133.38,-219 1133.38,-219 1133.38,-225 1127.38,-231 1121.38,-231"/>
<text text-anchor="middle" x="1086.38" y="-208.7" font-family="Times,serif" font-size="14.00">cache&#45;proxy</text>
</g>
<!-- SERVICE:notifications -->
<g id="node10" class="node">
<title>SERVICE:notifications</title>
<path fill="#eef6ff" stroke="black" d="M92.12,-144C92.12,-144 19.88,-144 19.88,-144 13.88,-144 7.88,-138 7.88,-132 7.88,-132 7.88,-120 7.88,-120 7.88,-114 13.88,-108 19.88,-108 19.88,-108 92.12,-108 92.12,-108 98.12,-108 104.12,-114 104.12,-120 104.12,-120 104.12,-132 104.12,-132 104.12,-138 98.12,-144 92.12,-144"/>
<text text-anchor="middle" x="56" y="-121.7" font-family="Times,serif" font-size="14.00">notifications</text>
</g>
<!-- SERVICE:notifications&#45;&gt;DATABASE:user&#45;db -->
<g id="edge13" class="edge">
<title>SERVICE:notifications&#45;&gt;DATABASE:user&#45;db</title>
<g id="a_edge13"><a xlink:title="edge#12">
<path fill="none" stroke="black" d="M104.32,-121.15C143.34,-116.42 199.85,-107.87 247.75,-94 251.01,-93.06 254.34,-91.97 257.66,-90.79"/>
<polygon fill="black" stroke="black" points="258.62,-94.17 266.72,-87.35 256.13,-87.63 258.62,-94.17"/>
</a>
</g>
<text text-anchor="middle" x="188.88" y="-122.7" font-family="Times,serif" font-size="14.00">CALLS [rest] (sync)</text>
</g>
<!-- SERVICE:ops&#45;hub_split&#45;1 -->
<g id="node11" class="node">
<title>SERVICE:ops&#45;hub_split&#45;1</title>
<path fill="#eef6ff" stroke="black" d="M594,-225C594,-225 502.25,-225 502.25,-225 496.25,-225 490.25,-219 490.25,-213 490.25,-213 490.25,-201 490.25,-201 490.25,-195 496.25,-189 502.25,-189 502.25,-189 594,-189 594,-189 600,-189 606,-195 606,-201 606,-201 606,-213 606,-213 606,-219 600,-225 594,-225"/>
<text text-anchor="middle" x="548.12" y="-202.7" font-family="Times,serif" font-size="14.00">ops&#45;hub_split&#45;1</text>
</g>
<!-- SERVICE:ops&#45;hub_split -->
<g id="node15" class="node">
<title>SERVICE:ops&#45;hub_split</title>
<path fill="#eef6ff" stroke="black" d="M851.5,-255C851.5,-255 771.75,-255 771.75,-255 765.75,-255 759.75,-249 759.75,-243 759.75,-243 759.75,-231 759.75,-231 759.75,-225 765.75,-219 771.75,-219 771.75,-219 851.5,-219 851.5,-219 857.5,-219 863.5,-225 863.5,-231 863.5,-231 863.5,-243 863.5,-243 863.5,-249 857.5,-255 851.5,-255"/>
<text text-anchor="middle" x="811.62" y="-232.7" font-family="Times,serif" font-size="14.00">ops&#45;hub_split</text>
</g>
<!-- SERVICE:ops&#45;hub_split&#45;1&#45;&gt;SERVICE:ops&#45;hub_split -->
<g id="edge14" class="edge">
<title>SERVICE:ops&#45;hub_split&#45;1&#45;&gt;SERVICE:ops&#45;hub_split</title>
<g id="a_edge14"><a xlink:title="edge#13">
<path fill="none" stroke="black" d="M606.19,-213.55C648.13,-218.36 705.08,-224.89 748.22,-229.84"/>
<polygon fill="black" stroke="black" points="747.6,-233.29 757.93,-230.96 748.4,-226.34 747.6,-233.29"/>
</a>
</g>
<text text-anchor="middle" x="682.88" y="-232.7" font-family="Times,serif" font-size="14.00">CALLS [rest] (sync)</text>
</g>
<!-- SERVICE:audit&#45;log -->
<g id="node17" class="node">
<title>SERVICE:audit&#45;log</title>
<path fill="#eef6ff" stroke="black" d="M836.88,-201C836.88,-201 786.38,-201 786.38,-201 780.38,-201 774.38,-195 774.38,-189 774.38,-189 774.38,-177 774.38,-177 774.38,-171 780.38,-165 786.38,-165 786.38,-165 836.88,-165 836.88,-165 842.88,-165 848.88,-171 848.88,-177 848.88,-177 848.88,-189 848.88,-189 848.88,-195 842.88,-201 836.88,-201"/>
<text text-anchor="middle" x="811.62" y="-178.7" font-family="Times,serif" font-size="14.00">audit&#45;log</text>
</g>
<!-- SERVICE:ops&#45;hub_split&#45;1&#45;&gt;SERVICE:audit&#45;log -->
<g id="edge7" class="edge">
<title>SERVICE:ops&#45;hub_split&#45;1&#45;&gt;SERVICE:audit&#45;log</title>
<g id="a_edge7"><a xlink:title="edge#6">
<path fill="none" stroke="black" d="M606.16,-192.9C612.16,-191.77 618.18,-190.76 624,-190 670.91,-183.85 724.97,-182.44 762.79,-182.36"/>
<polygon fill="black" stroke="black" points="762.46,-185.86 772.47,-182.37 762.47,-178.86 762.46,-185.86"/>
</a>
</g>
<text text-anchor="middle" x="682.88" y="-194.7" font-family="Times,serif" font-size="14.00">CALLS [rest] (sync)</text>
</g>
<!-- SERVICE:scheduler -->
<g id="node12" class="node">
<title>SERVICE:scheduler</title>
<path fill="#eef6ff" stroke="black" d="M82.75,-198C82.75,-198 29.25,-198 29.25,-198 23.25,-198 17.25,-192 17.25,-186 17.25,-186 17.25,-174 17.25,-174 17.25,-168 23.25,-162 29.25,-162 29.25,-162 82.75,-162 82.75,-162 88.75,-162 94.75,-168 94.75,-174 94.75,-174 94.75,-186 94.75,-186 94.75,-192 88.75,-198 82.75,-198"/>
<text text-anchor="middle" x="56" y="-175.7" font-family="Times,serif" font-size="14.00">scheduler</text>
</g>
<!-- SERVICE:scheduler&#45;&gt;SERVICE:ops&#45;hub -->
<g id="edge3" class="edge">
<title>SERVICE:scheduler&#45;&gt;SERVICE:ops&#45;hub</title>
<g id="a_edge3"><a xlink:title="edge#2">
<path fill="none" stroke="black" d="M95.22,-180.9C133.89,-182.25 195.29,-185.63 247.75,-194 250.19,-194.39 252.69,-194.84 255.2,-195.33"/>
<polygon fill="black" stroke="black" points="254.22,-198.7 264.73,-197.37 255.69,-191.85 254.22,-198.7"/>
</a>
</g>
<text text-anchor="middle" x="188.88" y="-198.7" font-family="Times,serif" font-size="14.00">CALLS [rest] (sync)</text>
</g>
<!-- SERVICE:ops&#45;hub&#45;&gt;SERVICE:emailer -->
<g id="edge5" class="edge">
<title>SERVICE:ops&#45;hub&#45;&gt;SERVICE:emailer</title>
<g id="a_edge5"><a xlink:title="edge#4">
<path fill="none" stroke="black" d="M336.08,-222.61C342.13,-225 348.44,-227.25 354.5,-229 405.08,-243.61 465.18,-252.27 504.64,-256.82"/>
<polygon fill="black" stroke="black" points="504.11,-260.28 514.43,-257.91 504.88,-253.33 504.11,-260.28"/>
</a>
</g>
<text text-anchor="middle" x="413.38" y="-256.7" font-family="Times,serif" font-size="14.00">CALLS [rest] (sync)</text>
</g>
<!-- SERVICE:ops&#45;hub&#45;&gt;SERVICE:ops&#45;hub_split&#45;1 -->
<g id="edge15" class="edge">
<title>SERVICE:ops&#45;hub&#45;&gt;SERVICE:ops&#45;hub_split&#45;1</title>
<g id="a_edge15"><a xlink:title="edge#14">
<path fill="none" stroke="black" d="M336.19,-207C372.8,-207 431.96,-207 478.33,-207"/>
<polygon fill="black" stroke="black" points="478.31,-210.5 488.31,-207 478.31,-203.5 478.31,-210.5"/>
</a>
</g>
<text text-anchor="middle" x="413.38" y="-211.7" font-family="Times,serif" font-size="14.00">CALLS [rest] (sync)</text>
</g>
<!-- SERVICE:sms&#45;gateway -->
<g id="node16" class="node">
<title>SERVICE:sms&#45;gateway</title>
<path fill="#eef6ff" stroke="black" d="M587.25,-171C587.25,-171 509,-171 509,-171 503,-171 497,-165 497,-159 497,-159 497,-147 497,-147 497,-141 503,-135 509,-135 509,-135 587.25,-135 587.25,-135 593.25,-135 599.25,-141 599.25,-147 599.25,-147 599.25,-159 599.25,-159 599.25,-165 593.25,-171 587.25,-171"/>
<text text-anchor="middle" x="548.12" y="-148.7" font-family="Times,serif" font-size="14.00">sms&#45;gateway</text>
</g>
<!-- SERVICE:ops&#45;hub&#45;&gt;SERVICE:sms&#45;gateway -->
<g id="edge6" class="edge">
<title>SERVICE:ops&#45;hub&#45;&gt;SERVICE:sms&#45;gateway</title>
<g id="a_edge6"><a xlink:title="edge#5">
<path fill="none" stroke="black" d="M336.08,-191.39C342.13,-189 348.44,-186.75 354.5,-185 397.48,-172.59 447.34,-164.47 485.56,-159.51"/>
<polygon fill="black" stroke="black" points="485.53,-163.05 495.02,-158.33 484.66,-156.1 485.53,-163.05"/>
</a>
</g>
<text text-anchor="middle" x="413.38" y="-189.7" font-family="Times,serif" font-size="14.00">CALLS [rest] (sync)</text>
</g>
<!-- SERVICE:user&#45;profile -->
<g id="node14" class="node">
<title>SERVICE:user&#45;profile</title>
<path fill="#eef6ff" stroke="black" d="M89.12,-90C89.12,-90 22.88,-90 22.88,-90 16.88,-90 10.88,-84 10.88,-78 10.88,-78 10.88,-66 10.88,-66 10.88,-60 16.88,-54 22.88,-54 22.88,-54 89.12,-54 89.12,-54 95.12,-54 101.12,-60 101.12,-66 101.12,-66 101.12,-78 101.12,-78 101.12,-84 95.12,-90 89.12,-90"/>
<text text-anchor="middle" x="56" y="-67.7" font-family="Times,serif" font-size="14.00">user&#45;profile</text>
</g>
<!-- SERVICE:user&#45;profile&#45;&gt;DATABASE:user&#45;db -->
<g id="edge11" class="edge">
<title>SERVICE:user&#45;profile&#45;&gt;DATABASE:user&#45;db</title>
<g id="a_edge11"><a xlink:title="edge#10">
<path fill="none" stroke="black" d="M101.59,-72C145.79,-72 213.06,-72 256.81,-72"/>
<polygon fill="black" stroke="black" points="256.7,-75.5 266.7,-72 256.7,-68.5 256.7,-75.5"/>
</a>
</g>
<text text-anchor="middle" x="188.88" y="-76.7" font-family="Times,serif" font-size="14.00">CALLS [rest] (sync)</text>
</g>
<!-- SERVICE:ops&#45;hub_split&#45;&gt;SERVICE:ops&#45;hub_split_split -->
<g id="edge16" class="edge">
<title>SERVICE:ops&#45;hub_split&#45;&gt;SERVICE:ops&#45;hub_split_split</title>
<g id="a_edge16"><a xlink:title="edge#15">
<path fill="none" stroke="black" d="M863.93,-242.64C903.76,-247.02 959.71,-253.18 1005.41,-258.2"/>
<polygon fill="black" stroke="black" points="1004.96,-261.68 1015.29,-259.29 1005.73,-254.72 1004.96,-261.68"/>
</a>
</g>
<text text-anchor="middle" x="940.38" y="-261.7" font-family="Times,serif" font-size="14.00">CALLS [rest] (sync)</text>
</g>
<!-- SERVICE:ops&#45;hub_split&#45;&gt;SERVICE:cache&#45;proxy -->
<g id="edge8" class="edge">
<title>SERVICE:ops&#45;hub_split&#45;&gt;SERVICE:cache&#45;proxy</title>
<g id="a_edge8"><a xlink:title="edge#7">
<path fill="none" stroke="black" d="M863.92,-223.1C869.82,-221.87 875.77,-220.8 881.5,-220 930.45,-213.19 986.62,-211.73 1027.59,-211.8"/>
<polygon fill="black" stroke="black" points="1027.45,-215.3 1037.47,-211.86 1027.49,-208.3 1027.45,-215.3"/>
</a>
</g>
<text text-anchor="middle" x="940.38" y="-224.7" font-family="Times,serif" font-size="14.00">CALLS [rest] (sync)</text>
</g>
<!-- SERVICE:preferences -->
<g id="node19" class="node">
<title>SERVICE:preferences</title>
<path fill="#eef6ff" stroke="black" d="M89.5,-36C89.5,-36 22.5,-36 22.5,-36 16.5,-36 10.5,-30 10.5,-24 10.5,-24 10.5,-12 10.5,-12 10.5,-6 16.5,0 22.5,0 22.5,0 89.5,0 89.5,0 95.5,0 101.5,-6 101.5,-12 101.5,-12 101.5,-24 101.5,-24 101.5,-30 95.5,-36 89.5,-36"/>
<text text-anchor="middle" x="56" y="-13.7" font-family="Times,serif" font-size="14.00">preferences</text>
</g>
<!-- SERVICE:preferences&#45;&gt;DATABASE:user&#45;db -->
<g id="edge12" class="edge">
<title>SERVICE:preferences&#45;&gt;DATABASE:user&#45;db</title>
<g id="a_edge12"><a xlink:title="edge#11">
<path fill="none" stroke="black" d="M101.98,-22.57C141.05,-27.24 198.89,-35.85 247.75,-50 251.01,-50.94 254.34,-52.03 257.66,-53.21"/>
<polygon fill="black" stroke="black" points="256.13,-56.37 266.72,-56.65 258.62,-49.83 256.13,-56.37"/>
</a>
</g>
<text text-anchor="middle" x="188.88" y="-54.7" font-family="Times,serif" font-size="14.00">CALLS [rest] (sync)</text>
</g>
</g>
</svg>
