<?xml version="1.0" encoding="UTF-8" standalone="no"?>
<!DOCTYPE svg PUBLIC "-//W3C//DTD SVG 1.1//EN"
 "http://www.w3.org/Graphics/SVG/1.1/DTD/svg11.dtd">
<!-- Generated by graphviz version 9.0.0 (20230911.1827)
 -->
<!-- Title: G Pages: 1 -->
<svg width="808pt" height="226pt"
 viewBox="0.00 0.00 807.50 226.00" xmlns="http://www.w3.org/2000/svg" xmlns:xlink="http://www.w3.org/1999/xlink">
<g id="graph0" class="graph" transform="scale(1 1) rotate(0) translate(4 222)">
<title>G</title>
<polygon fill="white" stroke="none" points="-4,4 -4,-222 803.5,-222 803.5,4 -4,4"/>
<text text-anchor="middle" x="399.75" y="-200.7" font-family="Helvetica,sans-Serif" font-size="14.00">Architecture</text>
<!-- SERVICE:payments -->
<g id="node1" class="node">
<title>SERVICE:payments</title>
<path fill="#eef6ff" stroke="black" d="M554.38,-164C554.38,-164 499.38,-164 499.38,-164 493.38,-164 487.38,-158 487.38,-152 487.38,-152 487.38,-140 487.38,-140 487.38,-134 493.38,-128 499.38,-128 499.38,-128 554.38,-128 554.38,-128 560.38,-128 566.38,-134 566.38,-140 566.38,-140 566.38,-152 566.38,-152 566.38,-158 560.38,-164 554.38,-164"/>
<text text-anchor="middle" x="526.88" y="-141.7" font-family="Times,serif" font-size="14.00">payments</text>
</g>
<!-- DATABASE:database -->
<g id="node2" class="node">
<title>DATABASE:database</title>
<path fill="#fff3cd" stroke="black" d="M799.5,-160.73C799.5,-162.53 782.8,-164 762.25,-164 741.7,-164 725,-162.53 725,-160.73 725,-160.73 725,-131.27 725,-131.27 725,-129.47 741.7,-128 762.25,-128 782.8,-128 799.5,-129.47 799.5,-131.27 799.5,-131.27 799.5,-160.73 799.5,-160.73"/>
<path fill="none" stroke="black" d="M799.5,-160.73C799.5,-158.92 782.8,-157.45 762.25,-157.45 741.7,-157.45 725,-158.92 725,-160.73"/>
<text text-anchor="middle" x="762.25" y="-141.7" font-family="Times,serif" font-size="14.00">database</text>
</g>
<!-- SERVICE:payments&#45;&gt;DATABASE:database -->
<g id="edge7" class="edge">
<title>SERVICE:payments&#45;&gt;DATABASE:database</title>
<g id="a_edge7"><a xlink:title="edge#6">
<path fill="none" stroke="black" d="M566.67,-146C606.92,-146 669.92,-146 713.27,-146"/>
<polygon fill="black" stroke="black" points="713.15,-149.5 723.15,-146 713.15,-142.5 713.15,-149.5"/>
</a>
</g>
<text text-anchor="middle" x="648.12" y="-150.7" font-family="Times,serif" font-size="14.00">CALLS [rest] (sync)</text>
</g>
<!-- SERVICE:user -->
<g id="node3" class="node">
<title>SERVICE:user</title>
<path fill="#eef6ff" stroke="black" d="M43.62,-36C43.62,-36 13.62,-36 13.62,-36 7.62,-36 1.62,-30 1.62,-24 1.62,-24 1.62,-12 1.62,-12 1.62,-6 7.62,0 13.62,0 13.62,0 43.62,0 43.62,0 49.62,0 55.62,-6 55.62,-12 55.62,-12 55.62,-24 55.62,-24 55.62,-30 49.62,-36 43.62,-36"/>
<text text-anchor="middle" x="28.62" y="-13.7" font-family="Times,serif" font-size="14.00">user</text>
</g>
<!-- SERVICE:web page -->
<g id="node4" class="node">
<title>SERVICE:web page</title>
<path fill="#eef6ff" stroke="black" d="M296.62,-46C296.62,-46 243.12,-46 243.12,-46 237.12,-46 231.12,-40 231.12,-34 231.12,-34 231.12,-22 231.12,-22 231.12,-16 237.12,-10 243.12,-10 243.12,-10 296.62,-10 296.62,-10 302.62,-10 308.62,-16 308.62,-22 308.62,-22 308.62,-34 308.62,-34 308.62,-40 302.62,-46 296.62,-46"/>
<text text-anchor="middle" x="269.88" y="-23.7" font-family="Times,serif" font-size="14.00">web page</text>
</g>
<!-- SERVICE:user&#45;&gt;SERVICE:web page -->
<g id="edge1" class="edge">
<title>SERVICE:user&#45;&gt;SERVICE:web page</title>
<g id="a_edge1"><a xlink:title="edge#0">
<path fill="none" stroke="black" d="M55.97,-17.26C88.29,-16.55 144.73,-16 193,-19 201.56,-19.53 210.64,-20.37 219.42,-21.32"/>
<polygon fill="black" stroke="black" points="218.9,-24.79 229.24,-22.46 219.7,-17.83 218.9,-24.79"/>
</a>
</g>
<text text-anchor="middle" x="134.12" y="-23.7" font-family="Times,serif" font-size="14.00">CALLS [rest] (sync)</text>
</g>
<!-- SERVICE:web page&#45;&gt;SERVICE:payments -->
<g id="edge4" class="edge">
<title>SERVICE:web page&#45;&gt;SERVICE:payments</title>
<g id="a_edge4"><a xlink:title="edge#3">
<path fill="none" stroke="black" d="M309.04,-44.11C348.33,-60.9 411.16,-88.28 464.5,-114 469.98,-116.64 475.69,-119.49 481.33,-122.36"/>
<polygon fill="black" stroke="black" points="479.5,-125.35 489.99,-126.82 482.7,-119.13 479.5,-125.35"/>
</a>
</g>
<text text-anchor="middle" x="405.62" y="-118.7" font-family="Times,serif" font-size="14.00">CALLS [rest] (sync)</text>
</g>
<!-- SERVICE:restaurants -->
<g id="node6" class="node">
<title>SERVICE:restaurants</title>
<path fill="#eef6ff" stroke="black" d="M559.25,-110C559.25,-110 494.5,-110 494.5,-110 488.5,-110 482.5,-104 482.5,-98 482.5,-98 482.5,-86 482.5,-86 482.5,-80 488.5,-74 494.5,-74 494.5,-74 559.25,-74 559.25,-74 565.25,-74 571.25,-80 571.25,-86 571.25,-86 571.25,-98 571.25,-98 571.25,-104 565.25,-110 559.25,-110"/>
<text text-anchor="middle" x="526.88" y="-87.7" font-family="Times,serif" font-size="14.00">restaurants</text>
</g>
<!-- SERVICE:web page&#45;&gt;SERVICE:restaurants -->
<g id="edge3" class="edge">
<title>SERVICE:web page&#45;&gt;SERVICE:restaurants</title>
<g id="a_edge3"><a xlink:title="edge#2">
<path fill="none" stroke="black" d="M308.91,-16.23C349.48,-5.88 414.62,4.23 464.5,-19 484.39,-28.26 500.13,-47.49 510.69,-63.89"/>
<polygon fill="black" stroke="black" points="507.63,-65.59 515.8,-72.33 513.61,-61.96 507.63,-65.59"/>
</a>
</g>
<text text-anchor="middle" x="405.62" y="-23.7" font-family="Times,serif" font-size="14.00">CALLS [rest] (sync)</text>
</g>
<!-- SERVICE:orders -->
<g id="node5" class="node">
<title>SERVICE:orders</title>
<path fill="#eef6ff" stroke="black" d="M45.25,-137C45.25,-137 12,-137 12,-137 6,-137 0,-131 0,-125 0,-125 0,-113 0,-113 0,-107 6,-101 12,-101 12,-101 45.25,-101 45.25,-101 51.25,-101 57.25,-107 57.25,-113 57.25,-113 57.25,-125 57.25,-125 57.25,-131 51.25,-137 45.25,-137"/>
<text text-anchor="middle" x="28.62" y="-114.7" font-family="Times,serif" font-size="14.00">orders</text>
</g>
<!-- SERVICE:orders&#45;&gt;SERVICE:payments -->
<g id="edge9" class="edge">
<title>SERVICE:orders&#45;&gt;SERVICE:payments</title>
<g id="a_edge9"><a xlink:title="edge#8">
<path fill="none" stroke="black" d="M57.57,-123.05C63.4,-123.79 69.52,-124.49 75.25,-125 220.2,-137.89 392.13,-143.13 475.52,-145.04"/>
<polygon fill="black" stroke="black" points="475.33,-148.53 485.41,-145.25 475.49,-141.53 475.33,-148.53"/>
</a>
</g>
<text text-anchor="middle" x="269.88" y="-144.7" font-family="Times,serif" font-size="14.00">CALLS [rest] (sync)</text>
</g>
<!-- SERVICE:orders&#45;&gt;DATABASE:database -->
<g id="edge5" class="edge">
<title>SERVICE:orders&#45;&gt;DATABASE:database</title>
<g id="a_edge5"><a xlink:title="edge#4">
<path fill="none" stroke="black" d="M57.44,-135.56C63.17,-138.41 69.29,-141.08 75.25,-143 133.24,-161.68 150.32,-156.54 211,-162 370.54,-176.36 411.09,-175.95 571.25,-173 631.61,-171.89 647.97,-180.65 707,-168 709.29,-167.51 711.61,-166.93 713.93,-166.28"/>
<polygon fill="black" stroke="black" points="714.85,-169.66 723.29,-163.27 712.7,-163 714.85,-169.66"/>
</a>
</g>
<text text-anchor="middle" x="405.62" y="-178.7" font-family="Times,serif" font-size="14.00">CALLS [rest] (sync)</text>
</g>
<!-- SERVICE:orders&#45;&gt;SERVICE:web page -->
<g id="edge2" class="edge">
<title>SERVICE:orders&#45;&gt;SERVICE:web page</title>
<g id="a_edge2"><a xlink:title="edge#1">
<path fill="none" stroke="black" d="M38.83,-100.77C46.63,-87.27 59.13,-69.62 75.25,-60 87.48,-52.7 166.36,-41.28 219.59,-34.24"/>
<polygon fill="black" stroke="black" points="219.89,-37.73 229.35,-32.96 218.98,-30.79 219.89,-37.73"/>
</a>
</g>
<text text-anchor="middle" x="134.12" y="-64.7" font-family="Times,serif" font-size="14.00">CALLS [rest] (sync)</text>
</g>
<!-- SERVICE:restaurants&#45;&gt;DATABASE:database -->
<g id="edge6" class="edge">
<title>SERVICE:restaurants&#45;&gt;DATABASE:database</title>
<g id="a_edge6"><a xlink:title="edge#5">
<path fill="none" stroke="black" d="M571.53,-97.21C608.16,-102.19 661.62,-110.9 707,-124 709.25,-124.65 711.54,-125.36 713.83,-126.12"/>
<polygon fill="black" stroke="black" points="712.53,-129.37 723.12,-129.42 714.87,-122.77 712.53,-129.37"/>
</a>
</g>
<text text-anchor="middle" x="648.12" y="-128.7" font-family="Times,serif" font-size="14.00">CALLS [rest] (sync)</text>
</g>
<!-- SERVICE:restaurants&#45;&gt;SERVICE:orders -->
<g id="edge8" class="edge">
<title>SERVICE:restaurants&#45;&gt;SERVICE:orders</title>
<g id="a_edge8"><a xlink:title="edge#7">
<path fill="none" stroke="black" d="M482.05,-93.57C421.2,-95.84 307.69,-100.39 211,-106 161.94,-108.85 105.49,-113.04 68.77,-115.89"/>
<polygon fill="black" stroke="black" points="68.78,-112.37 59.08,-116.64 69.33,-119.35 68.78,-112.37"/>
</a>
</g>
<text text-anchor="middle" x="269.88" y="-110.7" font-family="Times,serif" font-size="14.00">CALLS [rest] (sync)</text>
</g>
</g>
</svg>
