<?xml version="1.0" encoding="UTF-8" standalone="no"?>
<!DOCTYPE svg PUBLIC "-//W3C//DTD SVG 1.1//EN"
 "http://www.w3.org/Graphics/SVG/1.1/DTD/svg11.dtd">
<!-- Generated by graphviz version 9.0.0 (20230911.1827)
 -->
<!-- Title: G Pages: 1 -->
<svg width="1112pt" height="531pt"
 viewBox="0.00 0.00 1111.75 531.00" xmlns="http://www.w3.org/2000/svg" xmlns:xlink="http://www.w3.org/1999/xlink">
<g id="graph0" class="graph" transform="scale(1 1) rotate(0) translate(4 527)">
<title>G</title>
<polygon fill="white" stroke="none" points="-4,4 -4,-527 1107.75,-527 1107.75,4 -4,4"/>
<text text-anchor="middle" x="551.88" y="-505.7" font-family="Helvetica,sans-Serif" font-size="14.00">Architecture</text>
<!-- DATABASE:users&#45;db -->
<g id="node1" class="node">
<title>DATABASE:users&#45;db</title>
<path fill="#fff3cd" stroke="black" d="M899.12,-447.73C899.12,-449.53 882.93,-451 863,-451 843.07,-451 826.88,-449.53 826.88,-447.73 826.88,-447.73 826.88,-418.27 826.88,-418.27 826.88,-416.47 843.07,-415 863,-415 882.93,-415 899.12,-416.47 899.12,-418.27 899.12,-418.27 899.12,-447.73 899.12,-447.73"/>
<path fill="none" stroke="black" d="M899.12,-447.73C899.12,-445.92 882.93,-444.45 863,-444.45 843.07,-444.45 826.88,-445.92 826.88,-447.73"/>
<text text-anchor="middle" x="863" y="-428.7" font-family="Times,serif" font-size="14.00">users&#45;db</text>
</g>
<!-- SERVICE:api&#45;gateway -->
<g id="node2" class="node">
<title>SERVICE:api&#45;gateway</title>
<path fill="#eef6ff" stroke="black" d="M83.5,-251C83.5,-251 12,-251 12,-251 6,-251 0,-245 0,-239 0,-239 0,-227 0,-227 0,-221 6,-215 12,-215 12,-215 83.5,-215 83.5,-215 89.5,-215 95.5,-221 95.5,-227 95.5,-227 95.5,-239 95.5,-239 95.5,-245 89.5,-251 83.5,-251"/>
<text text-anchor="middle" x="47.75" y="-228.7" font-family="Times,serif" font-size="14.00">api&#45;gateway</text>
</g>
<!-- SERVICE:order&#45;service -->
<g id="node3" class="node">
<title>SERVICE:order&#45;service</title>
<path fill="#eef6ff" stroke="black" d="M342.5,-251C342.5,-251 265.75,-251 265.75,-251 259.75,-251 253.75,-245 253.75,-239 253.75,-239 253.75,-227 253.75,-227 253.75,-221 259.75,-215 265.75,-215 265.75,-215 342.5,-215 342.5,-215 348.5,-215 354.5,-221 354.5,-227 354.5,-227 354.5,-239 354.5,-239 354.5,-245 348.5,-251 342.5,-251"/>
<text text-anchor="middle" x="304.12" y="-228.7" font-family="Times,serif" font-size="14.00">order&#45;service</text>
</g>
<!-- SERVICE:api&#45;gateway&#45;&gt;SERVICE:order&#45;service -->
<g id="edge1" class="edge">
<title>SERVICE:api&#45;gateway&#45;&gt;SERVICE:order&#45;service</title>
<g id="a_edge1"><a xlink:title="edge#0">
<path fill="none" stroke="black" d="M96,-233C137.24,-233 197.33,-233 242.18,-233"/>
<polygon fill="black" stroke="black" points="242.01,-236.5 252.01,-233 242.01,-229.5 242.01,-236.5"/>
</a>
</g>
<text text-anchor="middle" x="174.62" y="-237.7" font-family="Times,serif" font-size="14.00">calls (1 ep), 300rpm</text>
</g>
<!-- SERVICE:order&#45;service&#45;&gt;DATABASE:users&#45;db -->
<g id="edge8" class="edge">
<title>SERVICE:order&#45;service&#45;&gt;DATABASE:users&#45;db</title>
<g id="a_edge8"><a xlink:title="edge#7">
<path fill="none" stroke="black" d="M305.66,-251.42C307.86,-289.55 318.82,-376.88 372.5,-417 505.86,-516.65 721.55,-473.23 815.64,-447.3"/>
<polygon fill="black" stroke="black" points="816.36,-450.73 825.04,-444.64 814.46,-443.99 816.36,-450.73"/>
</a>
</g>
<text text-anchor="middle" x="582.62" y="-483.7" font-family="Times,serif" font-size="14.00">READS</text>
</g>
<!-- SERVICE:inventory&#45;service -->
<g id="node4" class="node">
<title>SERVICE:inventory&#45;service</title>
<path fill="#eef6ff" stroke="black" d="M633.75,-252C633.75,-252 531.5,-252 531.5,-252 525.5,-252 519.5,-246 519.5,-240 519.5,-240 519.5,-228 519.5,-228 519.5,-222 525.5,-216 531.5,-216 531.5,-216 633.75,-216 633.75,-216 639.75,-216 645.75,-222 645.75,-228 645.75,-228 645.75,-240 645.75,-240 645.75,-246 639.75,-252 633.75,-252"/>
<text text-anchor="middle" x="582.62" y="-229.7" font-family="Times,serif" font-size="14.00">inventory&#45;service</text>
</g>
<!-- SERVICE:order&#45;service&#45;&gt;SERVICE:inventory&#45;service -->
<g id="edge2" class="edge">
<title>SERVICE:order&#45;service&#45;&gt;SERVICE:inventory&#45;service</title>
<g id="a_edge2"><a xlink:title="edge#1">
<path fill="none" stroke="black" d="M354.88,-233.18C397.48,-233.33 459.44,-233.56 507.82,-233.73"/>
<polygon fill="black" stroke="black" points="507.65,-237.23 517.67,-233.77 507.68,-230.23 507.65,-237.23"/>
</a>
</g>
<text text-anchor="middle" x="433.62" y="-238.7" font-family="Times,serif" font-size="14.00">calls (1 ep), 950rpm</text>
</g>
<!-- SERVICE:search&#45;service -->
<g id="node5" class="node">
<title>SERVICE:search&#45;service</title>
<path fill="#eef6ff" stroke="black" d="M624.75,-90C624.75,-90 540.5,-90 540.5,-90 534.5,-90 528.5,-84 528.5,-78 528.5,-78 528.5,-66 528.5,-66 528.5,-60 534.5,-54 540.5,-54 540.5,-54 624.75,-54 624.75,-54 630.75,-54 636.75,-60 636.75,-66 636.75,-66 636.75,-78 636.75,-78 636.75,-84 630.75,-90 624.75,-90"/>
<text text-anchor="middle" x="582.62" y="-67.7" font-family="Times,serif" font-size="14.00">search&#45;service</text>
</g>
<!-- SERVICE:order&#45;service&#45;&gt;SERVICE:search&#45;service -->
<g id="edge6" class="edge">
<title>SERVICE:order&#45;service&#45;&gt;SERVICE:search&#45;service</title>
<g id="a_edge6"><a xlink:title="edge#5">
<path fill="none" stroke="black" d="M308.13,-214.92C314.24,-184.35 331.24,-122.97 372.5,-94 414.14,-64.76 472.42,-60.84 516.89,-63.33"/>
<polygon fill="black" stroke="black" points="516.43,-66.81 526.65,-64.01 516.92,-59.83 516.43,-66.81"/>
</a>
</g>
<text text-anchor="middle" x="433.62" y="-98.7" font-family="Times,serif" font-size="14.00">calls (1 ep), 180rpm</text>
</g>
<!-- DATABASE:orders&#45;db -->
<g id="node6" class="node">
<title>DATABASE:orders&#45;db</title>
<path fill="#fff3cd" stroke="black" d="M902.88,-305.73C902.88,-307.53 885,-309 863,-309 841,-309 823.12,-307.53 823.12,-305.73 823.12,-305.73 823.12,-276.27 823.12,-276.27 823.12,-274.47 841,-273 863,-273 885,-273 902.88,-274.47 902.88,-276.27 902.88,-276.27 902.88,-305.73 902.88,-305.73"/>
<path fill="none" stroke="black" d="M902.88,-305.73C902.88,-303.92 885,-302.45 863,-302.45 841,-302.45 823.12,-303.92 823.12,-305.73"/>
<text text-anchor="middle" x="863" y="-286.7" font-family="Times,serif" font-size="14.00">orders&#45;db</text>
</g>
<!-- SERVICE:order&#45;service&#45;&gt;DATABASE:orders&#45;db -->
<g id="edge7" class="edge">
<title>SERVICE:order&#45;service&#45;&gt;DATABASE:orders&#45;db</title>
<g id="a_edge7"><a xlink:title="edge#6">
<path fill="none" stroke="black" d="M317.08,-251.35C328.95,-267.83 348.78,-291.06 372.5,-302 457.25,-341.09 700.69,-341.31 792,-322 801.24,-320.04 810.75,-316.78 819.67,-313.09"/>
<polygon fill="black" stroke="black" points="821.07,-316.3 828.8,-309.05 818.24,-309.9 821.07,-316.3"/>
</a>
</g>
<text text-anchor="middle" x="582.62" y="-338.7" font-family="Times,serif" font-size="14.00">READS</text>
</g>
<!-- SERVICE:order&#45;service&#45;&gt;DATABASE:orders&#45;db -->
<g id="edge9" class="edge">
<title>SERVICE:order&#45;service&#45;&gt;DATABASE:orders&#45;db</title>
<g id="a_edge9"><a xlink:title="edge#8">
<path fill="none" stroke="black" d="M354.84,-251.22C360.74,-253.01 366.72,-254.66 372.5,-256 554.87,-298.3 604.84,-298.01 792,-294 798.39,-293.86 805.1,-293.66 811.74,-293.41"/>
<polygon fill="black" stroke="black" points="811.4,-296.93 821.25,-293.04 811.12,-289.94 811.4,-296.93"/>
</a>
</g>
<text text-anchor="middle" x="582.62" y="-300.7" font-family="Times,serif" font-size="14.00">WRITES</text>
</g>
<!-- SERVICE:billing&#45;service -->
<g id="node7" class="node">
<title>SERVICE:billing&#45;service</title>
<path fill="#eef6ff" stroke="black" d="M904,-178C904,-178 822,-178 822,-178 816,-178 810,-172 810,-166 810,-166 810,-154 810,-154 810,-148 816,-142 822,-142 822,-142 904,-142 904,-142 910,-142 916,-148 916,-154 916,-154 916,-166 916,-166 916,-172 910,-178 904,-178"/>
<text text-anchor="middle" x="863" y="-155.7" font-family="Times,serif" font-size="14.00">billing&#45;service</text>
</g>
<!-- SERVICE:order&#45;service&#45;&gt;SERVICE:billing&#45;service -->
<g id="edge4" class="edge">
<title>SERVICE:order&#45;service&#45;&gt;SERVICE:billing&#45;service</title>
<g id="a_edge4"><a xlink:title="edge#3">
<path fill="none" stroke="black" d="M340.72,-214.62C350.76,-210.13 361.86,-205.82 372.5,-203 521.32,-163.54 703.59,-158.34 798.18,-158.72"/>
<polygon fill="black" stroke="black" points="798.01,-162.21 808.04,-158.78 798.06,-155.21 798.01,-162.21"/>
</a>
</g>
<text text-anchor="middle" x="582.62" y="-179.7" font-family="Times,serif" font-size="14.00">calls (1 ep), 360rpm</text>
</g>
<!-- SERVICE:user&#45;service -->
<g id="node8" class="node">
<title>SERVICE:user&#45;service</title>
<path fill="#eef6ff" stroke="black" d="M617.25,-414C617.25,-414 548,-414 548,-414 542,-414 536,-408 536,-402 536,-402 536,-390 536,-390 536,-384 542,-378 548,-378 548,-378 617.25,-378 617.25,-378 623.25,-378 629.25,-384 629.25,-390 629.25,-390 629.25,-402 629.25,-402 629.25,-408 623.25,-414 617.25,-414"/>
<text text-anchor="middle" x="582.62" y="-391.7" font-family="Times,serif" font-size="14.00">user&#45;service</text>
</g>
<!-- SERVICE:order&#45;service&#45;&gt;SERVICE:user&#45;service -->
<g id="edge3" class="edge">
<title>SERVICE:order&#45;service&#45;&gt;SERVICE:user&#45;service</title>
<g id="a_edge3"><a xlink:title="edge#2">
<path fill="none" stroke="black" d="M309.78,-251.35C317.74,-278.75 336.68,-329.92 372.5,-356 416.48,-388.02 479.02,-396.45 524.24,-397.82"/>
<polygon fill="black" stroke="black" points="524.05,-401.32 534.11,-398 524.18,-394.32 524.05,-401.32"/>
</a>
</g>
<text text-anchor="middle" x="433.62" y="-399.7" font-family="Times,serif" font-size="14.00">calls (1 ep), 260rpm</text>
</g>
<!-- SERVICE:notification&#45;service -->
<g id="node9" class="node">
<title>SERVICE:notification&#45;service</title>
<path fill="#eef6ff" stroke="black" d="M640.5,-36C640.5,-36 524.75,-36 524.75,-36 518.75,-36 512.75,-30 512.75,-24 512.75,-24 512.75,-12 512.75,-12 512.75,-6 518.75,0 524.75,0 524.75,0 640.5,0 640.5,0 646.5,0 652.5,-6 652.5,-12 652.5,-12 652.5,-24 652.5,-24 652.5,-30 646.5,-36 640.5,-36"/>
<text text-anchor="middle" x="582.62" y="-13.7" font-family="Times,serif" font-size="14.00">notification&#45;service</text>
</g>
<!-- SERVICE:order&#45;service&#45;&gt;SERVICE:notification&#45;service -->
<g id="edge5" class="edge">
<title>SERVICE:order&#45;service&#45;&gt;SERVICE:notification&#45;service</title>
<g id="a_edge5"><a xlink:title="edge#4">
<path fill="none" stroke="black" d="M305.5,-214.6C307.38,-175.57 317.74,-84.51 372.5,-41 408.13,-12.69 458.6,-6.49 501.04,-7.58"/>
<polygon fill="black" stroke="black" points="500.84,-11.08 510.98,-7.99 501.13,-4.08 500.84,-11.08"/>
</a>
</g>
<text text-anchor="middle" x="433.62" y="-45.7" font-family="Times,serif" font-size="14.00">calls (1 ep), 220rpm</text>
</g>
<!-- SERVICE:inventory&#45;service&#45;&gt;SERVICE:order&#45;service -->
<g id="edge10" class="edge">
<title>SERVICE:inventory&#45;service&#45;&gt;SERVICE:order&#45;service</title>
<g id="a_edge10"><a xlink:title="edge#9">
<path fill="none" stroke="black" d="M519.34,-216.26C511.13,-214.5 502.78,-213 494.75,-212 440.83,-205.28 426.21,-203.82 372.5,-212 370.32,-212.33 368.11,-212.72 365.89,-213.16"/>
<polygon fill="black" stroke="black" points="365.22,-209.72 356.24,-215.35 366.77,-216.55 365.22,-209.72"/>
</a>
</g>
<text text-anchor="middle" x="433.62" y="-216.7" font-family="Times,serif" font-size="14.00">calls (1 ep), 820rpm</text>
</g>
<!-- SERVICE:inventory&#45;service&#45;&gt;DATABASE:orders&#45;db -->
<g id="edge12" class="edge">
<title>SERVICE:inventory&#45;service&#45;&gt;DATABASE:orders&#45;db</title>
<g id="a_edge12"><a xlink:title="edge#11">
<path fill="none" stroke="black" d="M646.22,-247.91C654.38,-249.66 662.63,-251.4 670.5,-253 724.35,-263.98 738.13,-265.13 792,-276 798.4,-277.29 805.12,-278.68 811.76,-280.08"/>
<polygon fill="black" stroke="black" points="810.8,-283.46 821.31,-282.11 812.26,-276.61 810.8,-283.46"/>
</a>
</g>
<text text-anchor="middle" x="731.25" y="-280.7" font-family="Times,serif" font-size="14.00">READS</text>
</g>
<!-- SERVICE:inventory&#45;service&#45;&gt;DATABASE:orders&#45;db -->
<g id="edge13" class="edge">
<title>SERVICE:inventory&#45;service&#45;&gt;DATABASE:orders&#45;db</title>
<g id="a_edge13"><a xlink:title="edge#12">
<path fill="none" stroke="black" d="M646.24,-221.57C688.69,-215.89 745.34,-213.74 792,-231 810.35,-237.79 827.13,-251.77 839.66,-264.53"/>
<polygon fill="black" stroke="black" points="836.84,-266.63 846.23,-271.55 841.95,-261.85 836.84,-266.63"/>
</a>
</g>
<text text-anchor="middle" x="731.25" y="-235.7" font-family="Times,serif" font-size="14.00">WRITES</text>
</g>
<!-- SERVICE:inventory&#45;service&#45;&gt;SERVICE:billing&#45;service -->
<g id="edge11" class="edge">
<title>SERVICE:inventory&#45;service&#45;&gt;SERVICE:billing&#45;service</title>
<g id="a_edge11"><a xlink:title="edge#10">
<path fill="none" stroke="black" d="M620.55,-215.64C635.73,-208.68 653.67,-201.19 670.5,-196 693.94,-188.77 752.29,-178.18 798.47,-170.35"/>
<polygon fill="black" stroke="black" points="798.85,-173.84 808.13,-168.73 797.68,-166.94 798.85,-173.84"/>
</a>
</g>
<text text-anchor="middle" x="731.25" y="-200.7" font-family="Times,serif" font-size="14.00">calls (1 ep), 320rpm</text>
</g>
<!-- SERVICE:billing&#45;service&#45;&gt;SERVICE:order&#45;service -->
<g id="edge14" class="edge">
<title>SERVICE:billing&#45;service&#45;&gt;SERVICE:order&#45;service</title>
<g id="a_edge14"><a xlink:title="edge#13">
<path fill="none" stroke="black" d="M809.74,-151.43C741.28,-141.52 617.62,-128.11 512.75,-141 448.98,-148.84 429.68,-146.71 372.5,-176 357.14,-183.87 342.25,-195.85 330.39,-206.8"/>
<polygon fill="black" stroke="black" points="328.23,-204.03 323.42,-213.47 333.07,-209.09 328.23,-204.03"/>
</a>
</g>
<text text-anchor="middle" x="582.62" y="-145.7" font-family="Times,serif" font-size="14.00">calls (1 ep), 260rpm</text>
</g>
<!-- DATABASE:payments&#45;db -->
<g id="node10" class="node">
<title>DATABASE:payments&#45;db</title>
<path fill="#fff3cd" stroke="black" d="M1103.75,-174.73C1103.75,-176.53 1081,-178 1053,-178 1025,-178 1002.25,-176.53 1002.25,-174.73 1002.25,-174.73 1002.25,-145.27 1002.25,-145.27 1002.25,-143.47 1025,-142 1053,-142 1081,-142 1103.75,-143.47 1103.75,-145.27 1103.75,-145.27 1103.75,-174.73 1103.75,-174.73"/>
<path fill="none" stroke="black" d="M1103.75,-174.73C1103.75,-172.92 1081,-171.45 1053,-171.45 1025,-171.45 1002.25,-172.92 1002.25,-174.73"/>
<text text-anchor="middle" x="1053" y="-155.7" font-family="Times,serif" font-size="14.00">payments&#45;db</text>
</g>
<!-- SERVICE:billing&#45;service&#45;&gt;DATABASE:payments&#45;db -->
<g id="edge15" class="edge">
<title>SERVICE:billing&#45;service&#45;&gt;DATABASE:payments&#45;db</title>
<g id="a_edge15"><a xlink:title="edge#14">
<path fill="none" stroke="black" d="M916.37,-160C939.34,-160 966.46,-160 990.39,-160"/>
<polygon fill="black" stroke="black" points="990.34,-163.5 1000.34,-160 990.34,-156.5 990.34,-163.5"/>
</a>
</g>
<text text-anchor="middle" x="959.12" y="-164.7" font-family="Times,serif" font-size="14.00">READS</text>
</g>
<!-- SERVICE:billing&#45;service&#45;&gt;DATABASE:payments&#45;db -->
<g id="edge16" class="edge">
<title>SERVICE:billing&#45;service&#45;&gt;DATABASE:payments&#45;db</title>
<g id="a_edge16"><a xlink:title="edge#15">
<path fill="none" stroke="black" d="M916.34,-141.67C922.24,-140.17 928.21,-138.89 934,-138 956.07,-134.61 962.19,-134.51 984.25,-138 987.62,-138.53 991.06,-139.21 994.5,-139.99"/>
<polygon fill="black" stroke="black" points="993.43,-143.33 1003.99,-142.41 995.16,-136.54 993.43,-143.33"/>
</a>
</g>
<text text-anchor="middle" x="959.12" y="-142.7" font-family="Times,serif" font-size="14.00">WRITES</text>
</g>
<!-- SERVICE:user&#45;service&#45;&gt;DATABASE:users&#45;db -->
<g id="edge17" class="edge">
<title>SERVICE:user&#45;service&#45;&gt;DATABASE:users&#45;db</title>
<g id="a_edge17"><a xlink:title="edge#16">
<path fill="none" stroke="black" d="M629.75,-399.46C672.09,-402.97 736.5,-409.15 792,-418 799.59,-419.21 807.59,-420.71 815.37,-422.29"/>
<polygon fill="black" stroke="black" points="814.54,-425.69 825.04,-424.32 815.98,-418.84 814.54,-425.69"/>
</a>
</g>
<text text-anchor="middle" x="731.25" y="-422.7" font-family="Times,serif" font-size="14.00">READS</text>
</g>
</g>
</svg>
