<?xml version="1.0" encoding="UTF-8" standalone="no"?>
<!DOCTYPE svg PUBLIC "-//W3C//DTD SVG 1.1//EN"
 "http://www.w3.org/Graphics/SVG/1.1/DTD/svg11.dtd">
<!-- Generated by graphviz version 9.0.0 (20230911.1827)
 -->
<!-- Title: G Pages: 1 -->
<svg width="798pt" height="584pt"
 viewBox="0.00 0.00 798.00 584.00" xmlns="http://www.w3.org/2000/svg" xmlns:xlink="http://www.w3.org/1999/xlink">
<g id="graph0" class="graph" transform="scale(1 1) rotate(0) translate(4 580)">
<title>G</title>
<polygon fill="white" stroke="none" points="-4,4 -4,-580 794,-580 794,4 -4,4"/>
<text text-anchor="middle" x="395" y="-558.7" font-family="Helvetica,sans-Serif" font-size="14.00">Architecture</text>
<!-- SERVICE:profile -->
<g id="node1" class="node">
<title>SERVICE:profile</title>
<path fill="#eef6ff" stroke="black" d="M564.38,-325C564.38,-325 531.12,-325 531.12,-325 525.12,-325 519.12,-319 519.12,-313 519.12,-313 519.12,-301 519.12,-301 519.12,-295 525.12,-289 531.12,-289 531.12,-289 564.38,-289 564.38,-289 570.38,-289 576.38,-295 576.38,-301 576.38,-301 576.38,-313 576.38,-313 576.38,-319 570.38,-325 564.38,-325"/>
<text text-anchor="middle" x="547.75" y="-302.7" font-family="Times,serif" font-size="14.00">profile</text>
</g>
<!-- SERVICE:ingest&#45;worker -->
<g id="node2" class="node">
<title>SERVICE:ingest&#45;worker</title>
<path fill="#eef6ff" stroke="black" d="M96.62,-388C96.62,-388 14.62,-388 14.62,-388 8.62,-388 2.62,-382 2.62,-376 2.62,-376 2.62,-364 2.62,-364 2.62,-358 8.62,-352 14.62,-352 14.62,-352 96.62,-352 96.62,-352 102.62,-352 108.62,-358 108.62,-364 108.62,-364 108.62,-376 108.62,-376 108.62,-382 102.62,-388 96.62,-388"/>
<text text-anchor="middle" x="55.62" y="-365.7" font-family="Times,serif" font-size="14.00">ingest&#45;worker</text>
</g>
<!-- SERVICE:validator -->
<g id="node3" class="node">
<title>SERVICE:validator</title>
<path fill="#eef6ff" stroke="black" d="M336.5,-388C336.5,-388 288.25,-388 288.25,-388 282.25,-388 276.25,-382 276.25,-376 276.25,-376 276.25,-364 276.25,-364 276.25,-358 282.25,-352 288.25,-352 288.25,-352 336.5,-352 336.5,-352 342.5,-352 348.5,-358 348.5,-364 348.5,-364 348.5,-376 348.5,-376 348.5,-382 342.5,-388 336.5,-388"/>
<text text-anchor="middle" x="312.38" y="-365.7" font-family="Times,serif" font-size="14.00">validator</text>
</g>
<!-- SERVICE:ingest&#45;worker&#45;&gt;SERVICE:validator -->
<g id="edge4" class="edge">
<title>SERVICE:ingest&#45;worker&#45;&gt;SERVICE:validator</title>
<g id="a_edge4"><a xlink:title="edge#3">
<path fill="none" stroke="black" d="M109.1,-370C154.83,-370 220.53,-370 264.52,-370"/>
<polygon fill="black" stroke="black" points="264.25,-373.5 274.25,-370 264.25,-366.5 264.25,-373.5"/>
</a>
</g>
<text text-anchor="middle" x="188.12" y="-374.7" font-family="Times,serif" font-size="14.00">CALLS [rest] (sync)</text>
</g>
<!-- SERVICE:enricher -->
<g id="node14" class="node">
<title>SERVICE:enricher</title>
<path fill="#eef6ff" stroke="black" d="M570,-388C570,-388 525.5,-388 525.5,-388 519.5,-388 513.5,-382 513.5,-376 513.5,-376 513.5,-364 513.5,-364 513.5,-358 519.5,-352 525.5,-352 525.5,-352 570,-352 570,-352 576,-352 582,-358 582,-364 582,-364 582,-376 582,-376 582,-382 576,-388 570,-388"/>
<text text-anchor="middle" x="547.75" y="-365.7" font-family="Times,serif" font-size="14.00">enricher</text>
</g>
<!-- SERVICE:validator&#45;&gt;SERVICE:enricher -->
<g id="edge5" class="edge">
<title>SERVICE:validator&#45;&gt;SERVICE:enricher</title>
<g id="a_edge5"><a xlink:title="edge#4">
<path fill="none" stroke="black" d="M348.82,-370C389.79,-370 457.28,-370 501.88,-370"/>
<polygon fill="black" stroke="black" points="501.73,-373.5 511.73,-370 501.73,-366.5 501.73,-373.5"/>
</a>
</g>
<text text-anchor="middle" x="436.62" y="-374.7" font-family="Times,serif" font-size="14.00">CALLS [rest] (sync)</text>
</g>
<!-- SERVICE:writer -->
<g id="node4" class="node">
<title>SERVICE:writer</title>
<path fill="#eef6ff" stroke="black" d="M778,-388C778,-388 747.75,-388 747.75,-388 741.75,-388 735.75,-382 735.75,-376 735.75,-376 735.75,-364 735.75,-364 735.75,-358 741.75,-352 747.75,-352 747.75,-352 778,-352 778,-352 784,-352 790,-358 790,-364 790,-364 790,-376 790,-376 790,-382 784,-388 778,-388"/>
<text text-anchor="middle" x="762.88" y="-365.7" font-family="Times,serif" font-size="14.00">writer</text>
</g>
<!-- SERVICE:billing&#45;api -->
<g id="node5" class="node">
<title>SERVICE:billing&#45;api</title>
<path fill="#eef6ff" stroke="black" d="M84.25,-550C84.25,-550 27,-550 27,-550 21,-550 15,-544 15,-538 15,-538 15,-526 15,-526 15,-520 21,-514 27,-514 27,-514 84.25,-514 84.25,-514 90.25,-514 96.25,-520 96.25,-526 96.25,-526 96.25,-538 96.25,-538 96.25,-544 90.25,-550 84.25,-550"/>
<text text-anchor="middle" x="55.62" y="-527.7" font-family="Times,serif" font-size="14.00">billing&#45;api</text>
</g>
<!-- DATABASE:finance&#45;db -->
<g id="node15" class="node">
<title>DATABASE:finance&#45;db</title>
<path fill="#fff3cd" stroke="black" d="M354.88,-492.73C354.88,-494.53 335.83,-496 312.38,-496 288.92,-496 269.88,-494.53 269.88,-492.73 269.88,-492.73 269.88,-463.27 269.88,-463.27 269.88,-461.47 288.92,-460 312.38,-460 335.83,-460 354.88,-461.47 354.88,-463.27 354.88,-463.27 354.88,-492.73 354.88,-492.73"/>
<path fill="none" stroke="black" d="M354.88,-492.73C354.88,-490.92 335.83,-489.45 312.38,-489.45 288.92,-489.45 269.88,-490.92 269.88,-492.73"/>
<text text-anchor="middle" x="312.38" y="-473.7" font-family="Times,serif" font-size="14.00">finance&#45;db</text>
</g>
<!-- SERVICE:billing&#45;api&#45;&gt;DATABASE:finance&#45;db -->
<g id="edge7" class="edge">
<title>SERVICE:billing&#45;api&#45;&gt;DATABASE:finance&#45;db</title>
<g id="a_edge7"><a xlink:title="edge#6">
<path fill="none" stroke="black" d="M96.39,-527.23C135.18,-522.14 195.67,-512.99 247,-500 250.78,-499.04 254.65,-497.97 258.53,-496.82"/>
<polygon fill="black" stroke="black" points="259.47,-500.19 267.98,-493.88 257.39,-493.51 259.47,-500.19"/>
</a>
</g>
<text text-anchor="middle" x="188.12" y="-527.7" font-family="Times,serif" font-size="14.00">CALLS [rest] (sync)</text>
</g>
<!-- SERVICE:refund&#45;api -->
<g id="node6" class="node">
<title>SERVICE:refund&#45;api</title>
<path fill="#eef6ff" stroke="black" d="M85,-496C85,-496 26.25,-496 26.25,-496 20.25,-496 14.25,-490 14.25,-484 14.25,-484 14.25,-472 14.25,-472 14.25,-466 20.25,-460 26.25,-460 26.25,-460 85,-460 85,-460 91,-460 97,-466 97,-472 97,-472 97,-484 97,-484 97,-490 91,-496 85,-496"/>
<text text-anchor="middle" x="55.62" y="-473.7" font-family="Times,serif" font-size="14.00">refund&#45;api</text>
</g>
<!-- SERVICE:refund&#45;api&#45;&gt;DATABASE:finance&#45;db -->
<g id="edge8" class="edge">
<title>SERVICE:refund&#45;api&#45;&gt;DATABASE:finance&#45;db</title>
<g id="a_edge8"><a xlink:title="edge#7">
<path fill="none" stroke="black" d="M97.27,-478C140.88,-478 210.3,-478 258.22,-478"/>
<polygon fill="black" stroke="black" points="258.09,-481.5 268.09,-478 258.09,-474.5 258.09,-481.5"/>
</a>
</g>
<text text-anchor="middle" x="188.12" y="-482.7" font-family="Times,serif" font-size="14.00">CALLS [rest] (sync)</text>
</g>
<!-- SERVICE:web&#45;ui -->
<g id="node7" class="node">
<title>SERVICE:web&#45;ui</title>
<path fill="#eef6ff" stroke="black" d="M73.75,-189C73.75,-189 37.5,-189 37.5,-189 31.5,-189 25.5,-183 25.5,-177 25.5,-177 25.5,-165 25.5,-165 25.5,-159 31.5,-153 37.5,-153 37.5,-153 73.75,-153 73.75,-153 79.75,-153 85.75,-159 85.75,-165 85.75,-165 85.75,-177 85.75,-177 85.75,-183 79.75,-189 73.75,-189"/>
<text text-anchor="middle" x="55.62" y="-166.7" font-family="Times,serif" font-size="14.00">web&#45;ui</text>
</g>
<!-- SERVICE:web&#45;ui_split -->
<g id="node11" class="node">
<title>SERVICE:web&#45;ui_split</title>
<path fill="#eef6ff" stroke="black" d="M347.75,-261C347.75,-261 277,-261 277,-261 271,-261 265,-255 265,-249 265,-249 265,-237 265,-237 265,-231 271,-225 277,-225 277,-225 347.75,-225 347.75,-225 353.75,-225 359.75,-231 359.75,-237 359.75,-237 359.75,-249 359.75,-249 359.75,-255 353.75,-261 347.75,-261"/>
<text text-anchor="middle" x="312.38" y="-238.7" font-family="Times,serif" font-size="14.00">web&#45;ui_split</text>
</g>
<!-- SERVICE:web&#45;ui&#45;&gt;SERVICE:web&#45;ui_split -->
<g id="edge10" class="edge">
<title>SERVICE:web&#45;ui&#45;&gt;SERVICE:web&#45;ui_split</title>
<g id="a_edge10"><a xlink:title="edge#9">
<path fill="none" stroke="black" d="M86.1,-179.33C127.06,-190.91 202.04,-212.1 254.19,-226.84"/>
<polygon fill="black" stroke="black" points="252.92,-230.12 263.49,-229.47 254.82,-223.38 252.92,-230.12"/>
</a>
</g>
<text text-anchor="middle" x="188.12" y="-228.7" font-family="Times,serif" font-size="14.00">CALLS [rest] (sync)</text>
</g>
<!-- SERVICE:bff -->
<g id="node12" class="node">
<title>SERVICE:bff</title>
<path fill="#eef6ff" stroke="black" d="M327.38,-152C327.38,-152 297.38,-152 297.38,-152 291.38,-152 285.38,-146 285.38,-140 285.38,-140 285.38,-128 285.38,-128 285.38,-122 291.38,-116 297.38,-116 297.38,-116 327.38,-116 327.38,-116 333.38,-116 339.38,-122 339.38,-128 339.38,-128 339.38,-140 339.38,-140 339.38,-146 333.38,-152 327.38,-152"/>
<text text-anchor="middle" x="312.38" y="-129.7" font-family="Times,serif" font-size="14.00">bff</text>
</g>
<!-- SERVICE:web&#45;ui&#45;&gt;SERVICE:bff -->
<g id="edge11" class="edge">
<title>SERVICE:web&#45;ui&#45;&gt;SERVICE:bff</title>
<g id="a_edge11"><a xlink:title="edge#10">
<path fill="none" stroke="black" d="M86.1,-166.72C132.63,-159.96 223.08,-146.82 274.07,-139.42"/>
<polygon fill="black" stroke="black" points="274.34,-142.92 283.73,-138.01 273.33,-135.99 274.34,-142.92"/>
</a>
</g>
<text text-anchor="middle" x="188.12" y="-165.7" font-family="Times,serif" font-size="14.00">CALLS [rest] (sync)</text>
</g>
<!-- SERVICE:auth -->
<g id="node8" class="node">
<title>SERVICE:auth</title>
<path fill="#eef6ff" stroke="black" d="M562.75,-36C562.75,-36 532.75,-36 532.75,-36 526.75,-36 520.75,-30 520.75,-24 520.75,-24 520.75,-12 520.75,-12 520.75,-6 526.75,0 532.75,0 532.75,0 562.75,0 562.75,0 568.75,0 574.75,-6 574.75,-12 574.75,-12 574.75,-24 574.75,-24 574.75,-30 568.75,-36 562.75,-36"/>
<text text-anchor="middle" x="547.75" y="-13.7" font-family="Times,serif" font-size="14.00">auth</text>
</g>
<!-- SERVICE:catalog -->
<g id="node9" class="node">
<title>SERVICE:catalog</title>
<path fill="#eef6ff" stroke="black" d="M567.38,-90C567.38,-90 528.12,-90 528.12,-90 522.12,-90 516.12,-84 516.12,-78 516.12,-78 516.12,-66 516.12,-66 516.12,-60 522.12,-54 528.12,-54 528.12,-54 567.38,-54 567.38,-54 573.38,-54 579.38,-60 579.38,-66 579.38,-66 579.38,-78 579.38,-78 579.38,-84 573.38,-90 567.38,-90"/>
<text text-anchor="middle" x="547.75" y="-67.7" font-family="Times,serif" font-size="14.00">catalog</text>
</g>
<!-- SERVICE:settlement&#45;api -->
<g id="node10" class="node">
<title>SERVICE:settlement&#45;api</title>
<path fill="#eef6ff" stroke="black" d="M99.25,-442C99.25,-442 12,-442 12,-442 6,-442 0,-436 0,-430 0,-430 0,-418 0,-418 0,-412 6,-406 12,-406 12,-406 99.25,-406 99.25,-406 105.25,-406 111.25,-412 111.25,-418 111.25,-418 111.25,-430 111.25,-430 111.25,-436 105.25,-442 99.25,-442"/>
<text text-anchor="middle" x="55.62" y="-419.7" font-family="Times,serif" font-size="14.00">settlement&#45;api</text>
</g>
<!-- SERVICE:settlement&#45;api&#45;&gt;DATABASE:finance&#45;db -->
<g id="edge9" class="edge">
<title>SERVICE:settlement&#45;api&#45;&gt;DATABASE:finance&#45;db</title>
<g id="a_edge9"><a xlink:title="edge#8">
<path fill="none" stroke="black" d="M111.69,-430.84C149.97,-436.18 202,-444.61 247,-456 250.78,-456.96 254.65,-458.03 258.53,-459.18"/>
<polygon fill="black" stroke="black" points="257.39,-462.49 267.98,-462.12 259.47,-455.81 257.39,-462.49"/>
</a>
</g>
<text text-anchor="middle" x="188.12" y="-460.7" font-family="Times,serif" font-size="14.00">CALLS [rest] (sync)</text>
</g>
<!-- SERVICE:web&#45;ui_split&#45;&gt;SERVICE:profile -->
<g id="edge3" class="edge">
<title>SERVICE:web&#45;ui_split&#45;&gt;SERVICE:profile</title>
<g id="a_edge3"><a xlink:title="edge#2">
<path fill="none" stroke="black" d="M338.5,-261.43C349.94,-268.95 363.98,-277.04 377.75,-282 420.49,-297.4 472.6,-303.32 507.55,-305.59"/>
<polygon fill="black" stroke="black" points="507.01,-309.07 517.2,-306.15 507.41,-302.08 507.01,-309.07"/>
</a>
</g>
<text text-anchor="middle" x="436.62" y="-309.7" font-family="Times,serif" font-size="14.00">CALLS [rest] (sync)</text>
</g>
<!-- SERVICE:support -->
<g id="node13" class="node">
<title>SERVICE:support</title>
<path fill="#eef6ff" stroke="black" d="M568.5,-253C568.5,-253 527,-253 527,-253 521,-253 515,-247 515,-241 515,-241 515,-229 515,-229 515,-223 521,-217 527,-217 527,-217 568.5,-217 568.5,-217 574.5,-217 580.5,-223 580.5,-229 580.5,-229 580.5,-241 580.5,-241 580.5,-247 574.5,-253 568.5,-253"/>
<text text-anchor="middle" x="547.75" y="-230.7" font-family="Times,serif" font-size="14.00">support</text>
</g>
<!-- SERVICE:web&#45;ui_split&#45;&gt;SERVICE:support -->
<g id="edge2" class="edge">
<title>SERVICE:web&#45;ui_split&#45;&gt;SERVICE:support</title>
<g id="a_edge2"><a xlink:title="edge#1">
<path fill="none" stroke="black" d="M360.17,-252.48C397.19,-258.45 450.03,-263.56 495.5,-255 498.29,-254.47 501.13,-253.8 503.96,-253.02"/>
<polygon fill="black" stroke="black" points="504.85,-256.41 513.31,-250.03 502.72,-249.74 504.85,-256.41"/>
</a>
</g>
<text text-anchor="middle" x="436.62" y="-264.7" font-family="Times,serif" font-size="14.00">CALLS [rest] (sync)</text>
</g>
<!-- SERVICE:reviews -->
<g id="node16" class="node">
<title>SERVICE:reviews</title>
<path fill="#eef6ff" stroke="black" d="M568.12,-179C568.12,-179 527.38,-179 527.38,-179 521.38,-179 515.38,-173 515.38,-167 515.38,-167 515.38,-155 515.38,-155 515.38,-149 521.38,-143 527.38,-143 527.38,-143 568.12,-143 568.12,-143 574.12,-143 580.12,-149 580.12,-155 580.12,-155 580.12,-167 580.12,-167 580.12,-173 574.12,-179 568.12,-179"/>
<text text-anchor="middle" x="547.75" y="-156.7" font-family="Times,serif" font-size="14.00">reviews</text>
</g>
<!-- SERVICE:web&#45;ui_split&#45;&gt;SERVICE:reviews -->
<g id="edge1" class="edge">
<title>SERVICE:web&#45;ui_split&#45;&gt;SERVICE:reviews</title>
<g id="a_edge1"><a xlink:title="edge#0">
<path fill="none" stroke="black" d="M333.67,-224.58C345.68,-214.66 361.64,-203.03 377.75,-196 426.62,-174.66 443.37,-184.19 495.5,-173 498.28,-172.4 501.13,-171.78 504.01,-171.13"/>
<polygon fill="black" stroke="black" points="504.63,-174.58 513.6,-168.95 503.07,-167.76 504.63,-174.58"/>
</a>
</g>
<text text-anchor="middle" x="436.62" y="-200.7" font-family="Times,serif" font-size="14.00">CALLS [rest] (sync)</text>
</g>
<!-- SERVICE:bff&#45;&gt;SERVICE:profile -->
<g id="edge16" class="edge">
<title>SERVICE:bff&#45;&gt;SERVICE:profile</title>
<g id="a_edge16"><a xlink:title="edge#15">
<path fill="none" stroke="black" d="M322.74,-152.22C333.4,-170.96 352.63,-199.4 377.75,-214 423.58,-240.64 451.38,-203.61 495.5,-233 508.13,-241.41 504.99,-249.44 513.5,-262 517.51,-267.91 521.95,-274.13 526.26,-280.01"/>
<polygon fill="black" stroke="black" points="523.15,-281.69 531.92,-287.63 528.77,-277.52 523.15,-281.69"/>
</a>
</g>
<text text-anchor="middle" x="436.62" y="-237.7" font-family="Times,serif" font-size="14.00">CALLS [rest] (sync)</text>
</g>
<!-- SERVICE:bff&#45;&gt;SERVICE:auth -->
<g id="edge12" class="edge">
<title>SERVICE:bff&#45;&gt;SERVICE:auth</title>
<g id="a_edge12"><a xlink:title="edge#11">
<path fill="none" stroke="black" d="M321.37,-115.86C331.41,-95.36 350.67,-62.67 377.75,-46 417.86,-21.31 473.02,-16.46 509.25,-16.34"/>
<polygon fill="black" stroke="black" points="508.77,-19.83 518.8,-16.43 508.83,-12.84 508.77,-19.83"/>
</a>
</g>
<text text-anchor="middle" x="436.62" y="-50.7" font-family="Times,serif" font-size="14.00">CALLS [rest] (sync)</text>
</g>
<!-- SERVICE:bff&#45;&gt;SERVICE:catalog -->
<g id="edge13" class="edge">
<title>SERVICE:bff&#45;&gt;SERVICE:catalog</title>
<g id="a_edge13"><a xlink:title="edge#12">
<path fill="none" stroke="black" d="M330.36,-115.73C342.37,-104.13 359.52,-90.02 377.75,-83 418.67,-67.25 469.27,-66.11 504.38,-67.91"/>
<polygon fill="black" stroke="black" points="503.95,-71.39 514.15,-68.53 504.39,-64.41 503.95,-71.39"/>
</a>
</g>
<text text-anchor="middle" x="436.62" y="-87.7" font-family="Times,serif" font-size="14.00">CALLS [rest] (sync)</text>
</g>
<!-- SERVICE:bff&#45;&gt;SERVICE:support -->
<g id="edge15" class="edge">
<title>SERVICE:bff&#45;&gt;SERVICE:support</title>
<g id="a_edge15"><a xlink:title="edge#14">
<path fill="none" stroke="black" d="M339.55,-133.37C383.78,-132.8 470.89,-133.96 495.5,-151 510.54,-161.41 504.19,-172.26 513.5,-188 517.31,-194.44 521.73,-201.12 526.08,-207.37"/>
<polygon fill="black" stroke="black" points="523.22,-209.38 531.88,-215.48 528.91,-205.31 523.22,-209.38"/>
</a>
</g>
<text text-anchor="middle" x="436.62" y="-155.7" font-family="Times,serif" font-size="14.00">CALLS [rest] (sync)</text>
</g>
<!-- SERVICE:bff&#45;&gt;SERVICE:reviews -->
<g id="edge14" class="edge">
<title>SERVICE:bff&#45;&gt;SERVICE:reviews</title>
<g id="a_edge14"><a xlink:title="edge#13">
<path fill="none" stroke="black" d="M339.71,-123.63C376.05,-110.96 443.03,-93.58 495.5,-114 506.64,-118.33 516.83,-126.34 525.13,-134.54"/>
<polygon fill="black" stroke="black" points="522.34,-136.68 531.74,-141.57 527.44,-131.88 522.34,-136.68"/>
</a>
</g>
<text text-anchor="middle" x="436.62" y="-118.7" font-family="Times,serif" font-size="14.00">CALLS [rest] (sync)</text>
</g>
<!-- SERVICE:enricher&#45;&gt;SERVICE:writer -->
<g id="edge6" class="edge">
<title>SERVICE:enricher&#45;&gt;SERVICE:writer</title>
<g id="a_edge6"><a xlink:title="edge#5">
<path fill="none" stroke="black" d="M582.05,-370C620.54,-370 683.75,-370 724.06,-370"/>
<polygon fill="black" stroke="black" points="724.01,-373.5 734.01,-370 724.01,-366.5 724.01,-373.5"/>
</a>
</g>
<text text-anchor="middle" x="658.88" y="-374.7" font-family="Times,serif" font-size="14.00">CALLS [rest] (sync)</text>
</g>
</g>
</svg>
