<?xml version="1.0" encoding="UTF-8" standalone="no"?>
<!DOCTYPE svg PUBLIC "-//W3C//DTD SVG 1.1//EN"
 "http://www.w3.org/Graphics/SVG/1.1/DTD/svg11.dtd">
<!-- Generated by graphviz version 9.0.0 (20230911.1827)
 -->
<!-- Title: G Pages: 1 -->
<svg width="1435pt" height="346pt"
 viewBox="0.00 0.00 1434.75 346.22" xmlns="http://www.w3.org/2000/svg" xmlns:xlink="http://www.w3.org/1999/xlink">
<g id="graph0" class="graph" transform="scale(1 1) rotate(0) translate(4 342.22)">
<title>G</title>
<polygon fill="white" stroke="none" points="-4,4 -4,-342.22 1430.75,-342.22 1430.75,4 -4,4"/>
<text text-anchor="middle" x="713.38" y="-320.92" font-family="Helvetica,sans-Serif" font-size="14.00">Architecture</text>
<!-- SERVICE:search -->
<g id="node1" class="node">
<title>SERVICE:search</title>
<path fill="#eef6ff" stroke="black" d="M690.88,-280.22C690.88,-280.22 656.88,-280.22 656.88,-280.22 650.88,-280.22 644.88,-274.22 644.88,-268.22 644.88,-268.22 644.88,-256.22 644.88,-256.22 644.88,-250.22 650.88,-244.22 656.88,-244.22 656.88,-244.22 690.88,-244.22 690.88,-244.22 696.88,-244.22 702.88,-250.22 702.88,-256.22 702.88,-256.22 702.88,-268.22 702.88,-268.22 702.88,-274.22 696.88,-280.22 690.88,-280.22"/>
<text text-anchor="middle" x="673.88" y="-257.92" font-family="Times,serif" font-size="14.00">search</text>
</g>
<!-- DATABASE:shared&#45;db -->
<g id="node7" class="node">
<title>DATABASE:shared&#45;db</title>
<path fill="#fff3cd" stroke="black" d="M1401.25,-184.95C1401.25,-186.76 1382.87,-188.22 1360.25,-188.22 1337.63,-188.22 1319.25,-186.76 1319.25,-184.95 1319.25,-184.95 1319.25,-155.49 1319.25,-155.49 1319.25,-153.69 1337.63,-152.22 1360.25,-152.22 1382.87,-152.22 1401.25,-153.69 1401.25,-155.49 1401.25,-155.49 1401.25,-184.95 1401.25,-184.95"/>
<path fill="none" stroke="black" d="M1401.25,-184.95C1401.25,-183.14 1382.87,-181.68 1360.25,-181.68 1337.63,-181.68 1319.25,-183.14 1319.25,-184.95"/>
<text text-anchor="middle" x="1360.25" y="-165.92" font-family="Times,serif" font-size="14.00">shared&#45;db</text>
</g>
<!-- SERVICE:search&#45;&gt;DATABASE:shared&#45;db -->
<g id="edge11" class="edge">
<title>SERVICE:search&#45;&gt;DATABASE:shared&#45;db</title>
<g id="a_edge11"><a xlink:title="edge#10">
<path fill="none" stroke="black" d="M703.16,-263.33C790.52,-265.95 1062.94,-268.08 1275.75,-204.22 1287.34,-200.74 1299.54,-196.27 1310.93,-191.71"/>
<polygon fill="black" stroke="black" points="1312.23,-194.96 1320.16,-187.92 1309.58,-188.48 1312.23,-194.96"/>
</a>
</g>
<text text-anchor="middle" x="945.38" y="-265.92" font-family="Times,serif" font-size="14.00">CALLS [rest] (sync)</text>
</g>
<!-- SERVICE:profile -->
<g id="node2" class="node">
<title>SERVICE:profile</title>
<path fill="#eef6ff" stroke="black" d="M1097.75,-60.22C1097.75,-60.22 1064.5,-60.22 1064.5,-60.22 1058.5,-60.22 1052.5,-54.22 1052.5,-48.22 1052.5,-48.22 1052.5,-36.22 1052.5,-36.22 1052.5,-30.22 1058.5,-24.22 1064.5,-24.22 1064.5,-24.22 1097.75,-24.22 1097.75,-24.22 1103.75,-24.22 1109.75,-30.22 1109.75,-36.22 1109.75,-36.22 1109.75,-48.22 1109.75,-48.22 1109.75,-54.22 1103.75,-60.22 1097.75,-60.22"/>
<text text-anchor="middle" x="1081.12" y="-37.92" font-family="Times,serif" font-size="14.00">profile</text>
</g>
<!-- SERVICE:profile&#45;&gt;DATABASE:shared&#45;db -->
<g id="edge12" class="edge">
<title>SERVICE:profile&#45;&gt;DATABASE:shared&#45;db</title>
<g id="a_edge12"><a xlink:title="edge#11">
<path fill="none" stroke="black" d="M1109.96,-48.15C1163.1,-59.49 1273.92,-83.21 1275.75,-84.22 1301.7,-98.63 1324.66,-123.69 1339.9,-143.05"/>
<polygon fill="black" stroke="black" points="1336.98,-144.99 1345.83,-150.82 1342.55,-140.75 1336.98,-144.99"/>
</a>
</g>
<text text-anchor="middle" x="1216.88" y="-88.92" font-family="Times,serif" font-size="14.00">CALLS [rest] (sync)</text>
</g>
<!-- SERVICE:recommendations -->
<g id="node10" class="node">
<title>SERVICE:recommendations</title>
<path fill="#eef6ff" stroke="black" d="M1414.75,-39.22C1414.75,-39.22 1305.75,-39.22 1305.75,-39.22 1299.75,-39.22 1293.75,-33.22 1293.75,-27.22 1293.75,-27.22 1293.75,-15.22 1293.75,-15.22 1293.75,-9.22 1299.75,-3.22 1305.75,-3.22 1305.75,-3.22 1414.75,-3.22 1414.75,-3.22 1420.75,-3.22 1426.75,-9.22 1426.75,-15.22 1426.75,-15.22 1426.75,-27.22 1426.75,-27.22 1426.75,-33.22 1420.75,-39.22 1414.75,-39.22"/>
<text text-anchor="middle" x="1360.25" y="-16.92" font-family="Times,serif" font-size="14.00">recommendations</text>
</g>
<!-- SERVICE:profile&#45;&gt;SERVICE:recommendations -->
<g id="edge9" class="edge">
<title>SERVICE:profile&#45;&gt;SERVICE:recommendations</title>
<g id="a_edge9"><a xlink:title="edge#8">
<path fill="none" stroke="black" d="M1110.22,-40.09C1150.21,-37.06 1225.04,-31.39 1282.27,-27.06"/>
<polygon fill="black" stroke="black" points="1282.25,-30.57 1291.96,-26.32 1281.72,-23.59 1282.25,-30.57"/>
</a>
</g>
<text text-anchor="middle" x="1216.88" y="-40.92" font-family="Times,serif" font-size="14.00">CALLS [rest] (sync)</text>
</g>
<!-- SERVICE:feed -->
<g id="node3" class="node">
<title>SERVICE:feed</title>
<path fill="#eef6ff" stroke="black" d="M281.62,-134.22C281.62,-134.22 251.62,-134.22 251.62,-134.22 245.62,-134.22 239.62,-128.22 239.62,-122.22 239.62,-122.22 239.62,-110.22 239.62,-110.22 239.62,-104.22 245.62,-98.22 251.62,-98.22 251.62,-98.22 281.62,-98.22 281.62,-98.22 287.62,-98.22 293.62,-104.22 293.62,-110.22 293.62,-110.22 293.62,-122.22 293.62,-122.22 293.62,-128.22 287.62,-134.22 281.62,-134.22"/>
<text text-anchor="middle" x="266.62" y="-111.92" font-family="Times,serif" font-size="14.00">feed</text>
</g>
<!-- SERVICE:feed&#45;&gt;DATABASE:shared&#45;db -->
<g id="edge13" class="edge">
<title>SERVICE:feed&#45;&gt;DATABASE:shared&#45;db</title>
<g id="a_edge13"><a xlink:title="edge#12">
<path fill="none" stroke="black" d="M294.02,-116.22C342.28,-116.22 447.99,-116.22 537.12,-116.22 537.12,-116.22 537.12,-116.22 1082.12,-116.22 1162.15,-116.22 1252.81,-138.18 1307.99,-154.09"/>
<polygon fill="black" stroke="black" points="1306.85,-157.41 1317.43,-156.86 1308.82,-150.69 1306.85,-157.41"/>
</a>
</g>
<text text-anchor="middle" x="809.62" y="-120.92" font-family="Times,serif" font-size="14.00">CALLS [rest] (sync)</text>
</g>
<!-- SERVICE:ranking -->
<g id="node9" class="node">
<title>SERVICE:ranking</title>
<path fill="#eef6ff" stroke="black" d="M558.12,-88.22C558.12,-88.22 518.12,-88.22 518.12,-88.22 512.12,-88.22 506.12,-82.22 506.12,-76.22 506.12,-76.22 506.12,-64.22 506.12,-64.22 506.12,-58.22 512.12,-52.22 518.12,-52.22 518.12,-52.22 558.12,-52.22 558.12,-52.22 564.12,-52.22 570.12,-58.22 570.12,-64.22 570.12,-64.22 570.12,-76.22 570.12,-76.22 570.12,-82.22 564.12,-88.22 558.12,-88.22"/>
<text text-anchor="middle" x="538.12" y="-65.92" font-family="Times,serif" font-size="14.00">ranking</text>
</g>
<!-- SERVICE:feed&#45;&gt;SERVICE:ranking -->
<g id="edge6" class="edge">
<title>SERVICE:feed&#45;&gt;SERVICE:ranking</title>
<g id="a_edge6"><a xlink:title="edge#5">
<path fill="none" stroke="black" d="M293.94,-102.61C308.22,-95.88 326.4,-88.33 343.5,-84.22 394.4,-72 454.8,-69.46 494.44,-69.34"/>
<polygon fill="black" stroke="black" points="494.27,-72.84 504.28,-69.37 494.29,-65.84 494.27,-72.84"/>
</a>
</g>
<text text-anchor="middle" x="402.38" y="-88.92" font-family="Times,serif" font-size="14.00">CALLS [rest] (sync)</text>
</g>
<!-- SERVICE:notifications -->
<g id="node4" class="node">
<title>SERVICE:notifications</title>
<path fill="#eef6ff" stroke="black" d="M981.5,-234.22C981.5,-234.22 909.25,-234.22 909.25,-234.22 903.25,-234.22 897.25,-228.22 897.25,-222.22 897.25,-222.22 897.25,-210.22 897.25,-210.22 897.25,-204.22 903.25,-198.22 909.25,-198.22 909.25,-198.22 981.5,-198.22 981.5,-198.22 987.5,-198.22 993.5,-204.22 993.5,-210.22 993.5,-210.22 993.5,-222.22 993.5,-222.22 993.5,-228.22 987.5,-234.22 981.5,-234.22"/>
<text text-anchor="middle" x="945.38" y="-211.92" font-family="Times,serif" font-size="14.00">notifications</text>
</g>
<!-- SERVICE:notifications&#45;&gt;DATABASE:shared&#45;db -->
<g id="edge14" class="edge">
<title>SERVICE:notifications&#45;&gt;DATABASE:shared&#45;db</title>
<g id="a_edge14"><a xlink:title="edge#13">
<path fill="none" stroke="black" d="M993.95,-212.64C1058.09,-207.57 1175.79,-197.44 1275.75,-184.22 1286.13,-182.85 1297.2,-181.16 1307.77,-179.43"/>
<polygon fill="black" stroke="black" points="1308.21,-182.9 1317.49,-177.8 1307.05,-176 1308.21,-182.9"/>
</a>
</g>
<text text-anchor="middle" x="1081.12" y="-213.92" font-family="Times,serif" font-size="14.00">CALLS [rest] (sync)</text>
</g>
<!-- SERVICE:analytics -->
<g id="node5" class="node">
<title>SERVICE:analytics</title>
<path fill="#eef6ff" stroke="black" d="M426.5,-188.22C426.5,-188.22 378.25,-188.22 378.25,-188.22 372.25,-188.22 366.25,-182.22 366.25,-176.22 366.25,-176.22 366.25,-164.22 366.25,-164.22 366.25,-158.22 372.25,-152.22 378.25,-152.22 378.25,-152.22 426.5,-152.22 426.5,-152.22 432.5,-152.22 438.5,-158.22 438.5,-164.22 438.5,-164.22 438.5,-176.22 438.5,-176.22 438.5,-182.22 432.5,-188.22 426.5,-188.22"/>
<text text-anchor="middle" x="402.38" y="-165.92" font-family="Times,serif" font-size="14.00">analytics</text>
</g>
<!-- SERVICE:analytics&#45;&gt;DATABASE:shared&#45;db -->
<g id="edge15" class="edge">
<title>SERVICE:analytics&#45;&gt;DATABASE:shared&#45;db</title>
<g id="a_edge15"><a xlink:title="edge#14">
<path fill="none" stroke="black" d="M438.69,-170.22C490.18,-170.22 588.89,-170.22 672.88,-170.22 672.88,-170.22 672.88,-170.22 1082.12,-170.22 1160.73,-170.22 1251.88,-170.22 1307.54,-170.22"/>
<polygon fill="black" stroke="black" points="1307.35,-173.72 1317.35,-170.22 1307.35,-166.72 1307.35,-173.72"/>
</a>
</g>
<text text-anchor="middle" x="809.62" y="-174.92" font-family="Times,serif" font-size="14.00">CALLS [rest] (sync)</text>
</g>
<!-- SERVICE:graph -->
<g id="node6" class="node">
<title>SERVICE:graph</title>
<path fill="#eef6ff" stroke="black" d="M824.62,-80.22C824.62,-80.22 794.62,-80.22 794.62,-80.22 788.62,-80.22 782.62,-74.22 782.62,-68.22 782.62,-68.22 782.62,-56.22 782.62,-56.22 782.62,-50.22 788.62,-44.22 794.62,-44.22 794.62,-44.22 824.62,-44.22 824.62,-44.22 830.62,-44.22 836.62,-50.22 836.62,-56.22 836.62,-56.22 836.62,-68.22 836.62,-68.22 836.62,-74.22 830.62,-80.22 824.62,-80.22"/>
<text text-anchor="middle" x="809.62" y="-57.92" font-family="Times,serif" font-size="14.00">graph</text>
</g>
<!-- SERVICE:graph&#45;&gt;SERVICE:profile -->
<g id="edge8" class="edge">
<title>SERVICE:graph&#45;&gt;SERVICE:profile</title>
<g id="a_edge8"><a xlink:title="edge#7">
<path fill="none" stroke="black" d="M836.96,-60.27C884.56,-56.74 985.17,-49.27 1040.9,-45.13"/>
<polygon fill="black" stroke="black" points="1040.85,-48.65 1050.57,-44.42 1040.33,-41.67 1040.85,-48.65"/>
</a>
</g>
<text text-anchor="middle" x="945.38" y="-61.92" font-family="Times,serif" font-size="14.00">CALLS [rest] (sync)</text>
</g>
<!-- SERVICE:ui -->
<g id="node8" class="node">
<title>SERVICE:ui</title>
<path fill="#eef6ff" stroke="black" d="M42,-188.22C42,-188.22 12,-188.22 12,-188.22 6,-188.22 0,-182.22 0,-176.22 0,-176.22 0,-164.22 0,-164.22 0,-158.22 6,-152.22 12,-152.22 12,-152.22 42,-152.22 42,-152.22 48,-152.22 54,-158.22 54,-164.22 54,-164.22 54,-176.22 54,-176.22 54,-182.22 48,-188.22 42,-188.22"/>
<text text-anchor="middle" x="27" y="-165.92" font-family="Times,serif" font-size="14.00">ui</text>
</g>
<!-- SERVICE:ui&#45;&gt;SERVICE:search -->
<g id="edge1" class="edge">
<title>SERVICE:ui&#45;&gt;SERVICE:search</title>
<g id="a_edge1"><a xlink:title="edge#0">
<path fill="none" stroke="black" d="M36.05,-188.68C43.27,-202.75 55.3,-221.19 72,-230.22 260.5,-332.13 532.71,-291.27 633.45,-271.01"/>
<polygon fill="black" stroke="black" points="634.03,-274.46 643.11,-269.01 632.61,-267.61 634.03,-274.46"/>
</a>
</g>
<text text-anchor="middle" x="266.62" y="-298.92" font-family="Times,serif" font-size="14.00">CALLS [rest] (sync)</text>
</g>
<!-- SERVICE:ui&#45;&gt;SERVICE:profile -->
<g id="edge2" class="edge">
<title>SERVICE:ui&#45;&gt;SERVICE:profile</title>
<g id="a_edge2"><a xlink:title="edge#1">
<path fill="none" stroke="black" d="M37.3,-151.99C45.06,-138.24 57.21,-119.69 72,-107.22 144.71,-45.95 170.54,-16.22 265.62,-16.22 265.62,-16.22 265.62,-16.22 810.62,-16.22 893,-16.22 988.89,-28.41 1041.18,-36.09"/>
<polygon fill="black" stroke="black" points="1040.37,-39.51 1050.78,-37.53 1041.41,-32.59 1040.37,-39.51"/>
</a>
</g>
<text text-anchor="middle" x="538.12" y="-20.92" font-family="Times,serif" font-size="14.00">CALLS [rest] (sync)</text>
</g>
<!-- SERVICE:ui&#45;&gt;SERVICE:feed -->
<g id="edge3" class="edge">
<title>SERVICE:ui&#45;&gt;SERVICE:feed</title>
<g id="a_edge3"><a xlink:title="edge#2">
<path fill="none" stroke="black" d="M42.81,-152.07C50.58,-143.9 60.8,-135.02 72,-130.22 122.64,-108.51 187.56,-108.82 227.88,-111.88"/>
<polygon fill="black" stroke="black" points="227.53,-115.36 237.8,-112.74 228.14,-108.39 227.53,-115.36"/>
</a>
</g>
<text text-anchor="middle" x="130.88" y="-134.92" font-family="Times,serif" font-size="14.00">CALLS [rest] (sync)</text>
</g>
<!-- SERVICE:ui&#45;&gt;SERVICE:notifications -->
<g id="edge4" class="edge">
<title>SERVICE:ui&#45;&gt;SERVICE:notifications</title>
<g id="a_edge4"><a xlink:title="edge#3">
<path fill="none" stroke="black" d="M54.39,-185.22C60.06,-187.92 66.11,-190.44 72,-192.22 155.01,-217.31 178.91,-216.22 265.62,-216.22 265.62,-216.22 265.62,-216.22 674.88,-216.22 747.6,-216.22 831.37,-216.22 885.96,-216.22"/>
<polygon fill="black" stroke="black" points="885.64,-219.72 895.64,-216.22 885.64,-212.72 885.64,-219.72"/>
</a>
</g>
<text text-anchor="middle" x="402.38" y="-220.92" font-family="Times,serif" font-size="14.00">CALLS [rest] (sync)</text>
</g>
<!-- SERVICE:ui&#45;&gt;SERVICE:analytics -->
<g id="edge5" class="edge">
<title>SERVICE:ui&#45;&gt;SERVICE:analytics</title>
<g id="a_edge5"><a xlink:title="edge#4">
<path fill="none" stroke="black" d="M54.26,-170.22C116.83,-170.22 275.42,-170.22 354.73,-170.22"/>
<polygon fill="black" stroke="black" points="354.32,-173.72 364.32,-170.22 354.32,-166.72 354.32,-173.72"/>
</a>
</g>
<text text-anchor="middle" x="130.88" y="-174.92" font-family="Times,serif" font-size="14.00">CALLS [rest] (sync)</text>
</g>
<!-- SERVICE:ranking&#45;&gt;SERVICE:graph -->
<g id="edge7" class="edge">
<title>SERVICE:ranking&#45;&gt;SERVICE:graph</title>
<g id="a_edge7"><a xlink:title="edge#6">
<path fill="none" stroke="black" d="M570.57,-69.29C620.4,-67.81 717.32,-64.93 770.85,-63.34"/>
<polygon fill="black" stroke="black" points="770.8,-66.85 780.69,-63.05 770.59,-59.85 770.8,-66.85"/>
</a>
</g>
<text text-anchor="middle" x="673.88" y="-72.92" font-family="Times,serif" font-size="14.00">CALLS [rest] (sync)</text>
</g>
<!-- SERVICE:recommendations&#45;&gt;SERVICE:profile -->
<g id="edge10" class="edge">
<title>SERVICE:recommendations&#45;&gt;SERVICE:profile</title>
<g id="a_edge10"><a xlink:title="edge#9">
<path fill="none" stroke="black" d="M1293.28,-6.63C1253.64,-0.24 1202.43,3.78 1158,-6.22 1145.26,-9.09 1132.14,-14.36 1120.48,-20"/>
<polygon fill="black" stroke="black" points="1118.89,-16.88 1111.57,-24.54 1122.07,-23.12 1118.89,-16.88"/>
</a>
</g>
<text text-anchor="middle" x="1216.88" y="-10.92" font-family="Times,serif" font-size="14.00">CALLS [rest] (sync)</text>
</g>
</g>
</svg>
