<?xml version="1.0" encoding="UTF-8" standalone="no"?>
<!DOCTYPE svg PUBLIC "-//W3C//DTD SVG 1.1//EN"
 "http://www.w3.org/Graphics/SVG/1.1/DTD/svg11.dtd">
<!-- Generated by graphviz version 9.0.0 (20230911.1827)
 -->
<!-- Title: G Pages: 1 -->
<svg width="1320pt" height="322pt"
 viewBox="0.00 0.00 1320.00 322.00" xmlns="http://www.w3.org/2000/svg" xmlns:xlink="http://www.w3.org/1999/xlink">
<g id="graph0" class="graph" transform="scale(1 1) rotate(0) translate(4 318)">
<title>G</title>
<polygon fill="white" stroke="none" points="-4,4 -4,-318 1316,-318 1316,4 -4,4"/>
<text text-anchor="middle" x="656" y="-296.7" font-family="Helvetica,sans-Serif" font-size="14.00">Architecture</text>
<!-- SERVICE:web&#45;ui_split -->
<g id="node1" class="node">
<title>SERVICE:web&#45;ui_split</title>
<path fill="#eef6ff" stroke="black" d="M296.75,-243C296.75,-243 226,-243 226,-243 220,-243 214,-237 214,-231 214,-231 214,-219 214,-219 214,-213 220,-207 226,-207 226,-207 296.75,-207 296.75,-207 302.75,-207 308.75,-213 308.75,-219 308.75,-219 308.75,-231 308.75,-231 308.75,-237 302.75,-243 296.75,-243"/>
<text text-anchor="middle" x="261.38" y="-220.7" font-family="Times,serif" font-size="14.00">web&#45;ui_split</text>
</g>
<!-- SERVICE:cart -->
<g id="node5" class="node">
<title>SERVICE:cart</title>
<path fill="#eef6ff" stroke="black" d="M536.38,-144C536.38,-144 506.38,-144 506.38,-144 500.38,-144 494.38,-138 494.38,-132 494.38,-132 494.38,-120 494.38,-120 494.38,-114 500.38,-108 506.38,-108 506.38,-108 536.38,-108 536.38,-108 542.38,-108 548.38,-114 548.38,-120 548.38,-120 548.38,-132 548.38,-132 548.38,-138 542.38,-144 536.38,-144"/>
<text text-anchor="middle" x="521.38" y="-121.7" font-family="Times,serif" font-size="14.00">cart</text>
</g>
<!-- SERVICE:web&#45;ui_split&#45;&gt;SERVICE:cart -->
<g id="edge1" class="edge">
<title>SERVICE:web&#45;ui_split&#45;&gt;SERVICE:cart</title>
<g id="a_edge1"><a xlink:title="edge#0">
<path fill="none" stroke="black" d="M278.64,-206.68C290.72,-194.21 308.23,-178.34 326.75,-169 377.12,-143.59 442.32,-133.09 482.74,-128.83"/>
<polygon fill="black" stroke="black" points="482.82,-132.34 492.44,-127.88 482.15,-125.37 482.82,-132.34"/>
</a>
</g>
<text text-anchor="middle" x="385.62" y="-173.7" font-family="Times,serif" font-size="14.00">CALLS [rest] (sync)</text>
</g>
<!-- SERVICE:orders -->
<g id="node6" class="node">
<title>SERVICE:orders</title>
<path fill="#eef6ff" stroke="black" d="M789.75,-219C789.75,-219 756.5,-219 756.5,-219 750.5,-219 744.5,-213 744.5,-207 744.5,-207 744.5,-195 744.5,-195 744.5,-189 750.5,-183 756.5,-183 756.5,-183 789.75,-183 789.75,-183 795.75,-183 801.75,-189 801.75,-195 801.75,-195 801.75,-207 801.75,-207 801.75,-213 795.75,-219 789.75,-219"/>
<text text-anchor="middle" x="773.12" y="-196.7" font-family="Times,serif" font-size="14.00">orders</text>
</g>
<!-- SERVICE:web&#45;ui_split&#45;&gt;SERVICE:orders -->
<g id="edge2" class="edge">
<title>SERVICE:web&#45;ui_split&#45;&gt;SERVICE:orders</title>
<g id="a_edge2"><a xlink:title="edge#1">
<path fill="none" stroke="black" d="M294.14,-243.49C304.24,-248.48 315.67,-253.26 326.75,-256 436.13,-283.09 467.74,-267.26 580.25,-261 644.21,-257.44 665.09,-271.32 723.5,-245 732.75,-240.83 741.45,-234.23 748.87,-227.4"/>
<polygon fill="black" stroke="black" points="751.22,-229.99 755.86,-220.47 746.3,-225.02 751.22,-229.99"/>
</a>
</g>
<text text-anchor="middle" x="521.38" y="-274.7" font-family="Times,serif" font-size="14.00">CALLS [rest] (sync)</text>
</g>
<!-- SERVICE:payments -->
<g id="node7" class="node">
<title>SERVICE:payments</title>
<path fill="#eef6ff" stroke="black" d="M548.88,-252C548.88,-252 493.88,-252 493.88,-252 487.88,-252 481.88,-246 481.88,-240 481.88,-240 481.88,-228 481.88,-228 481.88,-222 487.88,-216 493.88,-216 493.88,-216 548.88,-216 548.88,-216 554.88,-216 560.88,-222 560.88,-228 560.88,-228 560.88,-240 560.88,-240 560.88,-246 554.88,-252 548.88,-252"/>
<text text-anchor="middle" x="521.38" y="-229.7" font-family="Times,serif" font-size="14.00">payments</text>
</g>
<!-- SERVICE:web&#45;ui_split&#45;&gt;SERVICE:payments -->
<g id="edge3" class="edge">
<title>SERVICE:web&#45;ui_split&#45;&gt;SERVICE:payments</title>
<g id="a_edge3"><a xlink:title="edge#2">
<path fill="none" stroke="black" d="M309.09,-230.62C315.03,-231.18 321.03,-231.66 326.75,-232 375.36,-234.89 430.96,-235.15 470.07,-234.83"/>
<polygon fill="black" stroke="black" points="469.92,-238.33 479.88,-234.73 469.85,-231.33 469.92,-238.33"/>
</a>
</g>
<text text-anchor="middle" x="385.62" y="-238.7" font-family="Times,serif" font-size="14.00">CALLS [rest] (sync)</text>
</g>
<!-- SERVICE:orders_split -->
<g id="node2" class="node">
<title>SERVICE:orders_split</title>
<path fill="#eef6ff" stroke="black" d="M1051.25,-219C1051.25,-219 983.5,-219 983.5,-219 977.5,-219 971.5,-213 971.5,-207 971.5,-207 971.5,-195 971.5,-195 971.5,-189 977.5,-183 983.5,-183 983.5,-183 1051.25,-183 1051.25,-183 1057.25,-183 1063.25,-189 1063.25,-195 1063.25,-195 1063.25,-207 1063.25,-207 1063.25,-213 1057.25,-219 1051.25,-219"/>
<text text-anchor="middle" x="1017.38" y="-196.7" font-family="Times,serif" font-size="14.00">orders_split</text>
</g>
<!-- DATABASE:shared&#45;db -->
<g id="node9" class="node">
<title>DATABASE:shared&#45;db</title>
<path fill="#fff3cd" stroke="black" d="M1312,-152.73C1312,-154.53 1293.62,-156 1271,-156 1248.38,-156 1230,-154.53 1230,-152.73 1230,-152.73 1230,-123.27 1230,-123.27 1230,-121.47 1248.38,-120 1271,-120 1293.62,-120 1312,-121.47 1312,-123.27 1312,-123.27 1312,-152.73 1312,-152.73"/>
<path fill="none" stroke="black" d="M1312,-152.73C1312,-150.92 1293.62,-149.45 1271,-149.45 1248.38,-149.45 1230,-150.92 1230,-152.73"/>
<text text-anchor="middle" x="1271" y="-133.7" font-family="Times,serif" font-size="14.00">shared&#45;db</text>
</g>
<!-- SERVICE:orders_split&#45;&gt;DATABASE:shared&#45;db -->
<g id="edge9" class="edge">
<title>SERVICE:orders_split&#45;&gt;DATABASE:shared&#45;db</title>
<g id="a_edge9"><a xlink:title="edge#8">
<path fill="none" stroke="black" d="M1063.6,-197.73C1103.51,-193.86 1162.8,-185.71 1212,-169 1218.3,-166.86 1224.74,-164.09 1230.93,-161.08"/>
<polygon fill="black" stroke="black" points="1232.41,-164.26 1239.69,-156.56 1229.2,-158.04 1232.41,-164.26"/>
</a>
</g>
<text text-anchor="middle" x="1153.12" y="-198.7" font-family="Times,serif" font-size="14.00">CALLS [rest] (sync)</text>
</g>
<!-- SERVICE:web&#45;ui -->
<g id="node3" class="node">
<title>SERVICE:web&#45;ui</title>
<path fill="#eef6ff" stroke="black" d="M48.25,-187C48.25,-187 12,-187 12,-187 6,-187 0,-181 0,-175 0,-175 0,-163 0,-163 0,-157 6,-151 12,-151 12,-151 48.25,-151 48.25,-151 54.25,-151 60.25,-157 60.25,-163 60.25,-163 60.25,-175 60.25,-175 60.25,-181 54.25,-187 48.25,-187"/>
<text text-anchor="middle" x="30.12" y="-164.7" font-family="Times,serif" font-size="14.00">web&#45;ui</text>
</g>
<!-- SERVICE:web&#45;ui&#45;&gt;SERVICE:web&#45;ui_split -->
<g id="edge11" class="edge">
<title>SERVICE:web&#45;ui&#45;&gt;SERVICE:web&#45;ui_split</title>
<g id="a_edge11"><a xlink:title="edge#10">
<path fill="none" stroke="black" d="M60.63,-176.21C96.41,-184.95 157.56,-199.88 202.79,-210.93"/>
<polygon fill="black" stroke="black" points="201.91,-214.32 212.46,-213.29 203.57,-207.52 201.91,-214.32"/>
</a>
</g>
<text text-anchor="middle" x="137.12" y="-212.7" font-family="Times,serif" font-size="14.00">CALLS [rest] (sync)</text>
</g>
<!-- SERVICE:bff -->
<g id="node10" class="node">
<title>SERVICE:bff</title>
<path fill="#eef6ff" stroke="black" d="M276.38,-161C276.38,-161 246.38,-161 246.38,-161 240.38,-161 234.38,-155 234.38,-149 234.38,-149 234.38,-137 234.38,-137 234.38,-131 240.38,-125 246.38,-125 246.38,-125 276.38,-125 276.38,-125 282.38,-125 288.38,-131 288.38,-137 288.38,-137 288.38,-149 288.38,-149 288.38,-155 282.38,-161 276.38,-161"/>
<text text-anchor="middle" x="261.38" y="-138.7" font-family="Times,serif" font-size="14.00">bff</text>
</g>
<!-- SERVICE:web&#45;ui&#45;&gt;SERVICE:bff -->
<g id="edge13" class="edge">
<title>SERVICE:web&#45;ui&#45;&gt;SERVICE:bff</title>
<g id="a_edge13"><a xlink:title="edge#12">
<path fill="none" stroke="black" d="M60.71,-157.59C66.45,-155.77 72.48,-154.12 78.25,-153 127.63,-143.45 185.83,-141.9 222.91,-142.1"/>
<polygon fill="black" stroke="black" points="222.62,-145.6 232.65,-142.2 222.69,-138.6 222.62,-145.6"/>
</a>
</g>
<text text-anchor="middle" x="137.12" y="-157.7" font-family="Times,serif" font-size="14.00">CALLS [rest] (sync)</text>
</g>
<!-- SERVICE:auth -->
<g id="node4" class="node">
<title>SERVICE:auth</title>
<path fill="#eef6ff" stroke="black" d="M536.38,-36C536.38,-36 506.38,-36 506.38,-36 500.38,-36 494.38,-30 494.38,-24 494.38,-24 494.38,-12 494.38,-12 494.38,-6 500.38,0 506.38,0 506.38,0 536.38,0 536.38,0 542.38,0 548.38,-6 548.38,-12 548.38,-12 548.38,-24 548.38,-24 548.38,-30 542.38,-36 536.38,-36"/>
<text text-anchor="middle" x="521.38" y="-13.7" font-family="Times,serif" font-size="14.00">auth</text>
</g>
<!-- SERVICE:cart&#45;&gt;DATABASE:shared&#45;db -->
<g id="edge8" class="edge">
<title>SERVICE:cart&#45;&gt;DATABASE:shared&#45;db</title>
<g id="a_edge8"><a xlink:title="edge#7">
<path fill="none" stroke="black" d="M548.65,-129.81C563.23,-131.75 581.7,-133.92 598.25,-135 818.24,-149.34 873.79,-139.67 1094.25,-141 1146.58,-141.32 1159.68,-142.35 1212,-141 1214.06,-140.95 1216.17,-140.88 1218.3,-140.81"/>
<polygon fill="black" stroke="black" points="1218.4,-144.31 1228.25,-140.41 1218.12,-137.31 1218.4,-144.31"/>
</a>
</g>
<text text-anchor="middle" x="881.62" y="-147.7" font-family="Times,serif" font-size="14.00">CALLS [rest] (sync)</text>
</g>
<!-- SERVICE:catalog -->
<g id="node11" class="node">
<title>SERVICE:catalog</title>
<path fill="#eef6ff" stroke="black" d="M792.75,-90C792.75,-90 753.5,-90 753.5,-90 747.5,-90 741.5,-84 741.5,-78 741.5,-78 741.5,-66 741.5,-66 741.5,-60 747.5,-54 753.5,-54 753.5,-54 792.75,-54 792.75,-54 798.75,-54 804.75,-60 804.75,-66 804.75,-66 804.75,-78 804.75,-78 804.75,-84 798.75,-90 792.75,-90"/>
<text text-anchor="middle" x="773.12" y="-67.7" font-family="Times,serif" font-size="14.00">catalog</text>
</g>
<!-- SERVICE:cart&#45;&gt;SERVICE:catalog -->
<g id="edge4" class="edge">
<title>SERVICE:cart&#45;&gt;SERVICE:catalog</title>
<g id="a_edge4"><a xlink:title="edge#3">
<path fill="none" stroke="black" d="M548.56,-121.52C587.09,-114.76 661.23,-101.13 723.5,-86 725.64,-85.48 727.84,-84.93 730.05,-84.35"/>
<polygon fill="black" stroke="black" points="730.9,-87.74 739.64,-81.75 729.07,-80.99 730.9,-87.74"/>
</a>
</g>
<text text-anchor="middle" x="660.88" y="-117.7" font-family="Times,serif" font-size="14.00">CALLS [rest] (sync)</text>
</g>
<!-- SERVICE:orders&#45;&gt;SERVICE:orders_split -->
<g id="edge12" class="edge">
<title>SERVICE:orders&#45;&gt;SERVICE:orders_split</title>
<g id="a_edge12"><a xlink:title="edge#11">
<path fill="none" stroke="black" d="M801.91,-201C840.23,-201 910.15,-201 959.73,-201"/>
<polygon fill="black" stroke="black" points="959.73,-204.5 969.73,-201 959.73,-197.5 959.73,-204.5"/>
</a>
</g>
<text text-anchor="middle" x="881.62" y="-205.7" font-family="Times,serif" font-size="14.00">CALLS [rest] (sync)</text>
</g>
<!-- SERVICE:inventory -->
<g id="node8" class="node">
<title>SERVICE:inventory</title>
<path fill="#eef6ff" stroke="black" d="M1043.38,-127C1043.38,-127 991.38,-127 991.38,-127 985.38,-127 979.38,-121 979.38,-115 979.38,-115 979.38,-103 979.38,-103 979.38,-97 985.38,-91 991.38,-91 991.38,-91 1043.38,-91 1043.38,-91 1049.38,-91 1055.38,-97 1055.38,-103 1055.38,-103 1055.38,-115 1055.38,-115 1055.38,-121 1049.38,-127 1043.38,-127"/>
<text text-anchor="middle" x="1017.38" y="-104.7" font-family="Times,serif" font-size="14.00">inventory</text>
</g>
<!-- SERVICE:orders&#45;&gt;SERVICE:inventory -->
<g id="edge5" class="edge">
<title>SERVICE:orders&#45;&gt;SERVICE:inventory</title>
<g id="a_edge5"><a xlink:title="edge#4">
<path fill="none" stroke="black" d="M778.67,-182.78C784.85,-162.28 798.09,-129.9 822.75,-115 866.42,-88.61 926.35,-91.39 967.92,-98.04"/>
<polygon fill="black" stroke="black" points="967.18,-101.46 977.63,-99.74 968.38,-94.57 967.18,-101.46"/>
</a>
</g>
<text text-anchor="middle" x="881.62" y="-119.7" font-family="Times,serif" font-size="14.00">CALLS [rest] (sync)</text>
</g>
<!-- SERVICE:payments&#45;&gt;SERVICE:orders -->
<g id="edge6" class="edge">
<title>SERVICE:payments&#45;&gt;SERVICE:orders</title>
<g id="a_edge6"><a xlink:title="edge#5">
<path fill="none" stroke="black" d="M561.12,-228.88C607.86,-222.7 685.97,-212.38 732.91,-206.18"/>
<polygon fill="black" stroke="black" points="733.18,-209.68 742.64,-204.9 732.26,-202.74 733.18,-209.68"/>
</a>
</g>
<text text-anchor="middle" x="660.88" y="-227.7" font-family="Times,serif" font-size="14.00">CALLS [rest] (async)</text>
</g>
<!-- SERVICE:inventory&#45;&gt;DATABASE:shared&#45;db -->
<g id="edge10" class="edge">
<title>SERVICE:inventory&#45;&gt;DATABASE:shared&#45;db</title>
<g id="a_edge10"><a xlink:title="edge#9">
<path fill="none" stroke="black" d="M1055.73,-109.7C1094.9,-110.9 1158.12,-114.16 1212,-123 1214.16,-123.35 1216.35,-123.75 1218.56,-124.18"/>
<polygon fill="black" stroke="black" points="1217.64,-127.56 1228.16,-126.25 1219.12,-120.72 1217.64,-127.56"/>
</a>
</g>
<text text-anchor="middle" x="1153.12" y="-127.7" font-family="Times,serif" font-size="14.00">CALLS [rest] (sync)</text>
</g>
<!-- SERVICE:bff&#45;&gt;SERVICE:auth -->
<g id="edge15" class="edge">
<title>SERVICE:bff&#45;&gt;SERVICE:auth</title>
<g id="a_edge15"><a xlink:title="edge#14">
<path fill="none" stroke="black" d="M268.26,-124.5C276.92,-100.59 295.54,-59.69 326.75,-40 374.12,-10.12 441.2,-9.69 482.68,-13.11"/>
<polygon fill="black" stroke="black" points="482.13,-16.57 492.41,-14.04 482.79,-9.6 482.13,-16.57"/>
</a>
</g>
<text text-anchor="middle" x="385.62" y="-44.7" font-family="Times,serif" font-size="14.00">CALLS [rest] (sync)</text>
</g>
<!-- SERVICE:bff&#45;&gt;SERVICE:cart -->
<g id="edge17" class="edge">
<title>SERVICE:bff&#45;&gt;SERVICE:cart</title>
<g id="a_edge17"><a xlink:title="edge#16">
<path fill="none" stroke="black" d="M288.32,-124.5C299.57,-117.57 313.24,-110.52 326.75,-107 379.85,-93.16 443.54,-104.54 482.98,-114.7"/>
<polygon fill="black" stroke="black" points="481.9,-118.03 492.46,-117.26 483.72,-111.27 481.9,-118.03"/>
</a>
</g>
<text text-anchor="middle" x="385.62" y="-111.7" font-family="Times,serif" font-size="14.00">CALLS [rest] (sync)</text>
</g>
<!-- SERVICE:bff&#45;&gt;SERVICE:orders -->
<g id="edge18" class="edge">
<title>SERVICE:bff&#45;&gt;SERVICE:orders</title>
<g id="a_edge18"><a xlink:title="edge#17">
<path fill="none" stroke="black" d="M288.85,-154.24C300.3,-158.64 313.98,-163.27 326.75,-166 365.87,-174.37 631.25,-191.98 732.75,-198.5"/>
<polygon fill="black" stroke="black" points="732.3,-201.98 742.5,-199.13 732.75,-195 732.3,-201.98"/>
</a>
</g>
<text text-anchor="middle" x="521.38" y="-192.7" font-family="Times,serif" font-size="14.00">CALLS [rest] (sync)</text>
</g>
<!-- SERVICE:bff&#45;&gt;SERVICE:payments -->
<g id="edge14" class="edge">
<title>SERVICE:bff&#45;&gt;SERVICE:payments</title>
<g id="a_edge14"><a xlink:title="edge#13">
<path fill="none" stroke="black" d="M281.68,-161.3C293.72,-171.67 310.06,-183.94 326.75,-191 375.57,-211.66 392.92,-197.75 444.5,-210 453.1,-212.04 462.14,-214.56 470.87,-217.2"/>
<polygon fill="black" stroke="black" points="469.66,-220.48 480.25,-220.11 471.74,-213.8 469.66,-220.48"/>
</a>
</g>
<text text-anchor="middle" x="385.62" y="-214.7" font-family="Times,serif" font-size="14.00">CALLS [rest] (sync)</text>
</g>
<!-- SERVICE:bff&#45;&gt;SERVICE:catalog -->
<g id="edge16" class="edge">
<title>SERVICE:bff&#45;&gt;SERVICE:catalog</title>
<g id="a_edge16"><a xlink:title="edge#15">
<path fill="none" stroke="black" d="M282.54,-124.52C294.51,-114.66 310.48,-103.29 326.75,-97 466.17,-43.1 648.52,-56.27 729.82,-66.01"/>
<polygon fill="black" stroke="black" points="729.21,-69.46 739.56,-67.22 730.07,-62.51 729.21,-69.46"/>
</a>
</g>
<text text-anchor="middle" x="521.38" y="-69.7" font-family="Times,serif" font-size="14.00">CALLS [rest] (sync)</text>
</g>
<!-- SERVICE:catalog&#45;&gt;DATABASE:shared&#45;db -->
<g id="edge7" class="edge">
<title>SERVICE:catalog&#45;&gt;DATABASE:shared&#45;db</title>
<g id="a_edge7"><a xlink:title="edge#6">
<path fill="none" stroke="black" d="M805.25,-67.46C860.3,-60.26 978.3,-48.52 1076.25,-64 1138.9,-73.9 1153.47,-83.57 1212,-108 1217.29,-110.21 1222.76,-112.72 1228.12,-115.32"/>
<polygon fill="black" stroke="black" points="1226.37,-118.36 1236.88,-119.7 1229.51,-112.1 1226.37,-118.36"/>
</a>
</g>
<text text-anchor="middle" x="1017.38" y="-68.7" font-family="Times,serif" font-size="14.00">CALLS [rest] (sync)</text>
</g>
</g>
</svg>
