<?xml version="1.0" encoding="UTF-8" standalone="no"?>
<!DOCTYPE svg PUBLIC "-//W3C//DTD SVG 1.1//EN"
 "http://www.w3.org/Graphics/SVG/1.1/DTD/svg11.dtd">
<!-- Generated by graphviz version 9.0.0 (20230911.1827)
 -->
<!-- Title: G Pages: 1 -->
<svg width="798pt" height="422pt"
 viewBox="0.00 0.00 798.00 422.00" xmlns="http://www.w3.org/2000/svg" xmlns:xlink="http://www.w3.org/1999/xlink">
<g id="graph0" class="graph" transform="scale(1 1) rotate(0) translate(4 418)">
<title>G</title>
<polygon fill="white" stroke="none" points="-4,4 -4,-418 794,-418 794,4 -4,4"/>
<text text-anchor="middle" x="395" y="-396.7" font-family="Helvetica,sans-Serif" font-size="14.00">Architecture</text>
<!-- SERVICE:catalog -->
<g id="node1" class="node">
<title>SERVICE:catalog</title>
<path fill="#eef6ff" stroke="black" d="M567.38,-90C567.38,-90 528.12,-90 528.12,-90 522.12,-90 516.12,-84 516.12,-78 516.12,-78 516.12,-66 516.12,-66 516.12,-60 522.12,-54 528.12,-54 528.12,-54 567.38,-54 567.38,-54 573.38,-54 579.38,-60 579.38,-66 579.38,-66 579.38,-78 579.38,-78 579.38,-84 573.38,-90 567.38,-90"/>
<text text-anchor="middle" x="547.75" y="-67.7" font-family="Times,serif" font-size="14.00">catalog</text>
</g>
<!-- SERVICE:support -->
<g id="node2" class="node">
<title>SERVICE:support</title>
<path fill="#eef6ff" stroke="black" d="M568.5,-253C568.5,-253 527,-253 527,-253 521,-253 515,-247 515,-241 515,-241 515,-229 515,-229 515,-223 521,-217 527,-217 527,-217 568.5,-217 568.5,-217 574.5,-217 580.5,-223 580.5,-229 580.5,-229 580.5,-241 580.5,-241 580.5,-247 574.5,-253 568.5,-253"/>
<text text-anchor="middle" x="547.75" y="-230.7" font-family="Times,serif" font-size="14.00">support</text>
</g>
<!-- SERVICE:billing&#45;api -->
<g id="node3" class="node">
<title>SERVICE:billing&#45;api</title>
<path fill="#eef6ff" stroke="black" d="M84.25,-330C84.25,-330 27,-330 27,-330 21,-330 15,-324 15,-318 15,-318 15,-306 15,-306 15,-300 21,-294 27,-294 27,-294 84.25,-294 84.25,-294 90.25,-294 96.25,-300 96.25,-306 96.25,-306 96.25,-318 96.25,-318 96.25,-324 90.25,-330 84.25,-330"/>
<text text-anchor="middle" x="55.62" y="-307.7" font-family="Times,serif" font-size="14.00">billing&#45;api</text>
</g>
<!-- DATABASE:finance&#45;db -->
<g id="node10" class="node">
<title>DATABASE:finance&#45;db</title>
<path fill="#fff3cd" stroke="black" d="M354.88,-272.73C354.88,-274.53 335.83,-276 312.38,-276 288.92,-276 269.88,-274.53 269.88,-272.73 269.88,-272.73 269.88,-243.27 269.88,-243.27 269.88,-241.47 288.92,-240 312.38,-240 335.83,-240 354.88,-241.47 354.88,-243.27 354.88,-243.27 354.88,-272.73 354.88,-272.73"/>
<path fill="none" stroke="black" d="M354.88,-272.73C354.88,-270.92 335.83,-269.45 312.38,-269.45 288.92,-269.45 269.88,-270.92 269.88,-272.73"/>
<text text-anchor="middle" x="312.38" y="-253.7" font-family="Times,serif" font-size="14.00">finance&#45;db</text>
</g>
<!-- SERVICE:billing&#45;api&#45;&gt;DATABASE:finance&#45;db -->
<g id="edge7" class="edge">
<title>SERVICE:billing&#45;api&#45;&gt;DATABASE:finance&#45;db</title>
<g id="a_edge7"><a xlink:title="edge#6">
<path fill="none" stroke="black" d="M96.39,-307.23C135.18,-302.14 195.67,-292.99 247,-280 250.78,-279.04 254.65,-277.97 258.53,-276.82"/>
<polygon fill="black" stroke="black" points="259.47,-280.19 267.98,-273.88 257.39,-273.51 259.47,-280.19"/>
</a>
</g>
<text text-anchor="middle" x="188.12" y="-307.7" font-family="Times,serif" font-size="14.00">CALLS [rest] (sync)</text>
</g>
<!-- SERVICE:refund&#45;api -->
<g id="node4" class="node">
<title>SERVICE:refund&#45;api</title>
<path fill="#eef6ff" stroke="black" d="M85,-276C85,-276 26.25,-276 26.25,-276 20.25,-276 14.25,-270 14.25,-264 14.25,-264 14.25,-252 14.25,-252 14.25,-246 20.25,-240 26.25,-240 26.25,-240 85,-240 85,-240 91,-240 97,-246 97,-252 97,-252 97,-264 97,-264 97,-270 91,-276 85,-276"/>
<text text-anchor="middle" x="55.62" y="-253.7" font-family="Times,serif" font-size="14.00">refund&#45;api</text>
</g>
<!-- SERVICE:refund&#45;api&#45;&gt;DATABASE:finance&#45;db -->
<g id="edge8" class="edge">
<title>SERVICE:refund&#45;api&#45;&gt;DATABASE:finance&#45;db</title>
<g id="a_edge8"><a xlink:title="edge#7">
<path fill="none" stroke="black" d="M97.27,-258C140.88,-258 210.3,-258 258.22,-258"/>
<polygon fill="black" stroke="black" points="258.09,-261.5 268.09,-258 258.09,-254.5 258.09,-261.5"/>
</a>
</g>
<text text-anchor="middle" x="188.12" y="-262.7" font-family="Times,serif" font-size="14.00">CALLS [rest] (sync)</text>
</g>
<!-- SERVICE:auth -->
<g id="node5" class="node">
<title>SERVICE:auth</title>
<path fill="#eef6ff" stroke="black" d="M562.75,-36C562.75,-36 532.75,-36 532.75,-36 526.75,-36 520.75,-30 520.75,-24 520.75,-24 520.75,-12 520.75,-12 520.75,-6 526.75,0 532.75,0 532.75,0 562.75,0 562.75,0 568.75,0 574.75,-6 574.75,-12 574.75,-12 574.75,-24 574.75,-24 574.75,-30 568.75,-36 562.75,-36"/>
<text text-anchor="middle" x="547.75" y="-13.7" font-family="Times,serif" font-size="14.00">auth</text>
</g>
<!-- SERVICE:writer -->
<g id="node6" class="node">
<title>SERVICE:writer</title>
<path fill="#eef6ff" stroke="black" d="M778,-388C778,-388 747.75,-388 747.75,-388 741.75,-388 735.75,-382 735.75,-376 735.75,-376 735.75,-364 735.75,-364 735.75,-358 741.75,-352 747.75,-352 747.75,-352 778,-352 778,-352 784,-352 790,-358 790,-364 790,-364 790,-376 790,-376 790,-382 784,-388 778,-388"/>
<text text-anchor="middle" x="762.88" y="-365.7" font-family="Times,serif" font-size="14.00">writer</text>
</g>
<!-- SERVICE:profile -->
<g id="node7" class="node">
<title>SERVICE:profile</title>
<path fill="#eef6ff" stroke="black" d="M564.38,-179C564.38,-179 531.12,-179 531.12,-179 525.12,-179 519.12,-173 519.12,-167 519.12,-167 519.12,-155 519.12,-155 519.12,-149 525.12,-143 531.12,-143 531.12,-143 564.38,-143 564.38,-143 570.38,-143 576.38,-149 576.38,-155 576.38,-155 576.38,-167 576.38,-167 576.38,-173 570.38,-179 564.38,-179"/>
<text text-anchor="middle" x="547.75" y="-156.7" font-family="Times,serif" font-size="14.00">profile</text>
</g>
<!-- SERVICE:validator -->
<g id="node8" class="node">
<title>SERVICE:validator</title>
<path fill="#eef6ff" stroke="black" d="M336.5,-388C336.5,-388 288.25,-388 288.25,-388 282.25,-388 276.25,-382 276.25,-376 276.25,-376 276.25,-364 276.25,-364 276.25,-358 282.25,-352 288.25,-352 288.25,-352 336.5,-352 336.5,-352 342.5,-352 348.5,-358 348.5,-364 348.5,-364 348.5,-376 348.5,-376 348.5,-382 342.5,-388 336.5,-388"/>
<text text-anchor="middle" x="312.38" y="-365.7" font-family="Times,serif" font-size="14.00">validator</text>
</g>
<!-- SERVICE:enricher -->
<g id="node14" class="node">
<title>SERVICE:enricher</title>
<path fill="#eef6ff" stroke="black" d="M570,-388C570,-388 525.5,-388 525.5,-388 519.5,-388 513.5,-382 513.5,-376 513.5,-376 513.5,-364 513.5,-364 513.5,-358 519.5,-352 525.5,-352 525.5,-352 570,-352 570,-352 576,-352 582,-358 582,-364 582,-364 582,-376 582,-376 582,-382 576,-388 570,-388"/>
<text text-anchor="middle" x="547.75" y="-365.7" font-family="Times,serif" font-size="14.00">enricher</text>
</g>
<!-- SERVICE:validator&#45;&gt;SERVICE:enricher -->
<g id="edge5" class="edge">
<title>SERVICE:validator&#45;&gt;SERVICE:enricher</title>
<g id="a_edge5"><a xlink:title="edge#4">
<path fill="none" stroke="black" d="M348.82,-370C389.79,-370 457.28,-370 501.88,-370"/>
<polygon fill="black" stroke="black" points="501.73,-373.5 511.73,-370 501.73,-366.5 501.73,-373.5"/>
</a>
</g>
<text text-anchor="middle" x="436.62" y="-374.7" font-family="Times,serif" font-size="14.00">CALLS [rest] (sync)</text>
</g>
<!-- SERVICE:settlement&#45;api -->
<g id="node9" class="node">
<title>SERVICE:settlement&#45;api</title>
<path fill="#eef6ff" stroke="black" d="M99.25,-222C99.25,-222 12,-222 12,-222 6,-222 0,-216 0,-210 0,-210 0,-198 0,-198 0,-192 6,-186 12,-186 12,-186 99.25,-186 99.25,-186 105.25,-186 111.25,-192 111.25,-198 111.25,-198 111.25,-210 111.25,-210 111.25,-216 105.25,-222 99.25,-222"/>
<text text-anchor="middle" x="55.62" y="-199.7" font-family="Times,serif" font-size="14.00">settlement&#45;api</text>
</g>
<!-- SERVICE:settlement&#45;api&#45;&gt;DATABASE:finance&#45;db -->
<g id="edge9" class="edge">
<title>SERVICE:settlement&#45;api&#45;&gt;DATABASE:finance&#45;db</title>
<g id="a_edge9"><a xlink:title="edge#8">
<path fill="none" stroke="black" d="M111.69,-210.84C149.97,-216.18 202,-224.61 247,-236 250.78,-236.96 254.65,-238.03 258.53,-239.18"/>
<polygon fill="black" stroke="black" points="257.39,-242.49 267.98,-242.12 259.47,-235.81 257.39,-242.49"/>
</a>
</g>
<text text-anchor="middle" x="188.12" y="-240.7" font-family="Times,serif" font-size="14.00">CALLS [rest] (sync)</text>
</g>
<!-- SERVICE:web&#45;ui_split -->
<g id="node11" class="node">
<title>SERVICE:web&#45;ui_split</title>
<path fill="#eef6ff" stroke="black" d="M347.75,-219C347.75,-219 277,-219 277,-219 271,-219 265,-213 265,-207 265,-207 265,-195 265,-195 265,-189 271,-183 277,-183 277,-183 347.75,-183 347.75,-183 353.75,-183 359.75,-189 359.75,-195 359.75,-195 359.75,-207 359.75,-207 359.75,-213 353.75,-219 347.75,-219"/>
<text text-anchor="middle" x="312.38" y="-196.7" font-family="Times,serif" font-size="14.00">web&#45;ui_split</text>
</g>
<!-- SERVICE:web&#45;ui_split&#45;&gt;SERVICE:support -->
<g id="edge2" class="edge">
<title>SERVICE:web&#45;ui_split&#45;&gt;SERVICE:support</title>
<g id="a_edge2"><a xlink:title="edge#1">
<path fill="none" stroke="black" d="M344.93,-219.25C350.12,-222.85 355.26,-226.81 359.75,-231 369.5,-240.1 365.82,-249.04 377.75,-255 417.38,-274.82 468.59,-264.55 504.2,-252.64"/>
<polygon fill="black" stroke="black" points="505.03,-256.06 513.29,-249.43 502.7,-249.46 505.03,-256.06"/>
</a>
</g>
<text text-anchor="middle" x="436.62" y="-271.7" font-family="Times,serif" font-size="14.00">CALLS [rest] (sync)</text>
</g>
<!-- SERVICE:web&#45;ui_split&#45;&gt;SERVICE:profile -->
<g id="edge3" class="edge">
<title>SERVICE:web&#45;ui_split&#45;&gt;SERVICE:profile</title>
<g id="a_edge3"><a xlink:title="edge#2">
<path fill="none" stroke="black" d="M359.96,-194.85C396.86,-189.74 449.65,-181.88 495.5,-173 499.39,-172.25 503.42,-171.41 507.45,-170.53"/>
<polygon fill="black" stroke="black" points="508.18,-173.95 517.16,-168.33 506.64,-167.12 508.18,-173.95"/>
</a>
</g>
<text text-anchor="middle" x="436.62" y="-197.7" font-family="Times,serif" font-size="14.00">CALLS [rest] (sync)</text>
</g>
<!-- SERVICE:reviews -->
<g id="node12" class="node">
<title>SERVICE:reviews</title>
<path fill="#eef6ff" stroke="black" d="M568.12,-325C568.12,-325 527.38,-325 527.38,-325 521.38,-325 515.38,-319 515.38,-313 515.38,-313 515.38,-301 515.38,-301 515.38,-295 521.38,-289 527.38,-289 527.38,-289 568.12,-289 568.12,-289 574.12,-289 580.12,-295 580.12,-301 580.12,-301 580.12,-313 580.12,-313 580.12,-319 574.12,-325 568.12,-325"/>
<text text-anchor="middle" x="547.75" y="-302.7" font-family="Times,serif" font-size="14.00">reviews</text>
</g>
<!-- SERVICE:web&#45;ui_split&#45;&gt;SERVICE:reviews -->
<g id="edge1" class="edge">
<title>SERVICE:web&#45;ui_split&#45;&gt;SERVICE:reviews</title>
<g id="a_edge1"><a xlink:title="edge#0">
<path fill="none" stroke="black" d="M348.12,-219.49C352.46,-222.88 356.51,-226.72 359.75,-231 376.06,-252.51 356.9,-271.86 377.75,-289 412.76,-317.78 466.61,-318.5 504.07,-314.48"/>
<polygon fill="black" stroke="black" points="504.14,-318 513.64,-313.29 503.28,-311.05 504.14,-318"/>
</a>
</g>
<text text-anchor="middle" x="436.62" y="-321.7" font-family="Times,serif" font-size="14.00">CALLS [rest] (sync)</text>
</g>
<!-- SERVICE:ingest&#45;worker -->
<g id="node13" class="node">
<title>SERVICE:ingest&#45;worker</title>
<path fill="#eef6ff" stroke="black" d="M96.62,-388C96.62,-388 14.62,-388 14.62,-388 8.62,-388 2.62,-382 2.62,-376 2.62,-376 2.62,-364 2.62,-364 2.62,-358 8.62,-352 14.62,-352 14.62,-352 96.62,-352 96.62,-352 102.62,-352 108.62,-358 108.62,-364 108.62,-364 108.62,-376 108.62,-376 108.62,-382 102.62,-388 96.62,-388"/>
<text text-anchor="middle" x="55.62" y="-365.7" font-family="Times,serif" font-size="14.00">ingest&#45;worker</text>
</g>
<!-- SERVICE:ingest&#45;worker&#45;&gt;SERVICE:validator -->
<g id="edge4" class="edge">
<title>SERVICE:ingest&#45;worker&#45;&gt;SERVICE:validator</title>
<g id="a_edge4"><a xlink:title="edge#3">
<path fill="none" stroke="black" d="M109.1,-370C154.83,-370 220.53,-370 264.52,-370"/>
<polygon fill="black" stroke="black" points="264.25,-373.5 274.25,-370 264.25,-366.5 264.25,-373.5"/>
</a>
</g>
<text text-anchor="middle" x="188.12" y="-374.7" font-family="Times,serif" font-size="14.00">CALLS [rest] (sync)</text>
</g>
<!-- SERVICE:enricher&#45;&gt;SERVICE:writer -->
<g id="edge6" class="edge">
<title>SERVICE:enricher&#45;&gt;SERVICE:writer</title>
<g id="a_edge6"><a xlink:title="edge#5">
<path fill="none" stroke="black" d="M582.05,-370C620.54,-370 683.75,-370 724.06,-370"/>
<polygon fill="black" stroke="black" points="724.01,-373.5 734.01,-370 724.01,-366.5 724.01,-373.5"/>
</a>
</g>
<text text-anchor="middle" x="658.88" y="-374.7" font-family="Times,serif" font-size="14.00">CALLS [rest] (sync)</text>
</g>
<!-- SERVICE:bff -->
<g id="node15" class="node">
<title>SERVICE:bff</title>
<path fill="#eef6ff" stroke="black" d="M327.38,-131C327.38,-131 297.38,-131 297.38,-131 291.38,-131 285.38,-125 285.38,-119 285.38,-119 285.38,-107 285.38,-107 285.38,-101 291.38,-95 297.38,-95 297.38,-95 327.38,-95 327.38,-95 333.38,-95 339.38,-101 339.38,-107 339.38,-107 339.38,-119 339.38,-119 339.38,-125 333.38,-131 327.38,-131"/>
<text text-anchor="middle" x="312.38" y="-108.7" font-family="Times,serif" font-size="14.00">bff</text>
</g>
<!-- SERVICE:bff&#45;&gt;SERVICE:catalog -->
<g id="edge13" class="edge">
<title>SERVICE:bff&#45;&gt;SERVICE:catalog</title>
<g id="a_edge13"><a xlink:title="edge#12">
<path fill="none" stroke="black" d="M336.03,-94.62C347.74,-86.29 362.71,-77.34 377.75,-73 419.67,-60.9 469.9,-62.52 504.66,-66"/>
<polygon fill="black" stroke="black" points="503.98,-69.45 514.31,-67.07 504.75,-62.49 503.98,-69.45"/>
</a>
</g>
<text text-anchor="middle" x="436.62" y="-77.7" font-family="Times,serif" font-size="14.00">CALLS [rest] (sync)</text>
</g>
<!-- SERVICE:bff&#45;&gt;SERVICE:support -->
<g id="edge15" class="edge">
<title>SERVICE:bff&#45;&gt;SERVICE:support</title>
<g id="a_edge15"><a xlink:title="edge#14">
<path fill="none" stroke="black" d="M339.8,-121.62C351.36,-125.18 365.14,-129.13 377.75,-132 429.44,-143.75 452.95,-119.39 495.5,-151 510.18,-161.91 504.19,-172.26 513.5,-188 517.31,-194.44 521.73,-201.12 526.08,-207.37"/>
<polygon fill="black" stroke="black" points="523.22,-209.38 531.88,-215.48 528.91,-205.31 523.22,-209.38"/>
</a>
</g>
<text text-anchor="middle" x="436.62" y="-155.7" font-family="Times,serif" font-size="14.00">CALLS [rest] (sync)</text>
</g>
<!-- SERVICE:bff&#45;&gt;SERVICE:auth -->
<g id="edge12" class="edge">
<title>SERVICE:bff&#45;&gt;SERVICE:auth</title>
<g id="a_edge12"><a xlink:title="edge#11">
<path fill="none" stroke="black" d="M324.67,-94.53C335.93,-77.87 354.82,-54.16 377.75,-42 418.91,-20.17 473.26,-16.1 509.07,-16.21"/>
<polygon fill="black" stroke="black" points="508.89,-19.71 518.95,-16.37 509,-12.71 508.89,-19.71"/>
</a>
</g>
<text text-anchor="middle" x="436.62" y="-46.7" font-family="Times,serif" font-size="14.00">CALLS [rest] (sync)</text>
</g>
<!-- SERVICE:bff&#45;&gt;SERVICE:profile -->
<g id="edge16" class="edge">
<title>SERVICE:bff&#45;&gt;SERVICE:profile</title>
<g id="a_edge16"><a xlink:title="edge#15">
<path fill="none" stroke="black" d="M339.82,-107.39C376.28,-100.91 443.4,-93.56 495.5,-114 506.63,-118.36 516.81,-126.38 525.12,-134.58"/>
<polygon fill="black" stroke="black" points="522.33,-136.71 531.73,-141.6 527.42,-131.92 522.33,-136.71"/>
</a>
</g>
<text text-anchor="middle" x="436.62" y="-118.7" font-family="Times,serif" font-size="14.00">CALLS [rest] (sync)</text>
</g>
<!-- SERVICE:bff&#45;&gt;SERVICE:reviews -->
<g id="edge14" class="edge">
<title>SERVICE:bff&#45;&gt;SERVICE:reviews</title>
<g id="a_edge14"><a xlink:title="edge#13">
<path fill="none" stroke="black" d="M329.16,-131.45C338.73,-143.16 350.78,-158.91 359.75,-174 369.71,-190.76 362.28,-202.14 377.75,-214 419.82,-246.25 451.38,-203.61 495.5,-233 508.13,-241.41 504.99,-249.44 513.5,-262 517.51,-267.91 521.95,-274.13 526.26,-280.01"/>
<polygon fill="black" stroke="black" points="523.15,-281.69 531.92,-287.63 528.77,-277.52 523.15,-281.69"/>
</a>
</g>
<text text-anchor="middle" x="436.62" y="-237.7" font-family="Times,serif" font-size="14.00">CALLS [rest] (sync)</text>
</g>
<!-- SERVICE:web&#45;ui -->
<g id="node16" class="node">
<title>SERVICE:web&#45;ui</title>
<path fill="#eef6ff" stroke="black" d="M73.75,-154C73.75,-154 37.5,-154 37.5,-154 31.5,-154 25.5,-148 25.5,-142 25.5,-142 25.5,-130 25.5,-130 25.5,-124 31.5,-118 37.5,-118 37.5,-118 73.75,-118 73.75,-118 79.75,-118 85.75,-124 85.75,-130 85.75,-130 85.75,-142 85.75,-142 85.75,-148 79.75,-154 73.75,-154"/>
<text text-anchor="middle" x="55.62" y="-131.7" font-family="Times,serif" font-size="14.00">web&#45;ui</text>
</g>
<!-- SERVICE:web&#45;ui&#45;&gt;SERVICE:web&#45;ui_split -->
<g id="edge10" class="edge">
<title>SERVICE:web&#45;ui&#45;&gt;SERVICE:web&#45;ui_split</title>
<g id="a_edge10"><a xlink:title="edge#9">
<path fill="none" stroke="black" d="M86.1,-143.52C126.97,-153.95 201.72,-173.02 253.86,-186.33"/>
<polygon fill="black" stroke="black" points="252.93,-189.7 263.48,-188.78 254.66,-182.92 252.93,-189.7"/>
</a>
</g>
<text text-anchor="middle" x="188.12" y="-188.7" font-family="Times,serif" font-size="14.00">CALLS [rest] (sync)</text>
</g>
<!-- SERVICE:web&#45;ui&#45;&gt;SERVICE:bff -->
<g id="edge11" class="edge">
<title>SERVICE:web&#45;ui&#45;&gt;SERVICE:bff</title>
<g id="a_edge11"><a xlink:title="edge#10">
<path fill="none" stroke="black" d="M86.21,-124.92C99.22,-120.61 114.79,-116.18 129.25,-114 178.76,-106.53 236.71,-107.92 273.71,-110.06"/>
<polygon fill="black" stroke="black" points="273.24,-113.54 283.44,-110.68 273.68,-106.55 273.24,-113.54"/>
</a>
</g>
<text text-anchor="middle" x="188.12" y="-118.7" font-family="Times,serif" font-size="14.00">CALLS [rest] (sync)</text>
</g>
</g>
</svg>
