<?xml version="1.0" encoding="UTF-8" standalone="no"?>
<!DOCTYPE svg PUBLIC "-//W3C//DTD SVG 1.1//EN"
 "http://www.w3.org/Graphics/SVG/1.1/DTD/svg11.dtd">
<!-- Generated by graphviz version 9.0.0 (20230911.1827)
 -->
<!-- Title: G Pages: 1 -->
<svg width="652pt" height="481pt"
 viewBox="0.00 0.00 652.00 481.00" xmlns="http://www.w3.org/2000/svg" xmlns:xlink="http://www.w3.org/1999/xlink">
<g id="graph0" class="graph" transform="scale(1 1) rotate(0) translate(4 477)">
<title>G</title>
<polygon fill="white" stroke="none" points="-4,4 -4,-477 648,-477 648,4 -4,4"/>
<text text-anchor="middle" x="322" y="-455.7" font-family="Helvetica,sans-Serif" font-size="14.00">Architecture</text>
<!-- SERVICE:scheduler -->
<g id="node1" class="node">
<title>SERVICE:scheduler</title>
<path fill="#eef6ff" stroke="black" d="M82.75,-198C82.75,-198 29.25,-198 29.25,-198 23.25,-198 17.25,-192 17.25,-186 17.25,-186 17.25,-174 17.25,-174 17.25,-168 23.25,-162 29.25,-162 29.25,-162 82.75,-162 82.75,-162 88.75,-162 94.75,-168 94.75,-174 94.75,-174 94.75,-186 94.75,-186 94.75,-192 88.75,-198 82.75,-198"/>
<text text-anchor="middle" x="56" y="-175.7" font-family="Times,serif" font-size="14.00">scheduler</text>
</g>
<!-- SERVICE:ops&#45;hub -->
<g id="node6" class="node">
<title>SERVICE:ops&#45;hub</title>
<path fill="#eef6ff" stroke="black" d="M347.25,-171C347.25,-171 302,-171 302,-171 296,-171 290,-165 290,-159 290,-159 290,-147 290,-147 290,-141 296,-135 302,-135 302,-135 347.25,-135 347.25,-135 353.25,-135 359.25,-141 359.25,-147 359.25,-147 359.25,-159 359.25,-159 359.25,-165 353.25,-171 347.25,-171"/>
<text text-anchor="middle" x="324.62" y="-148.7" font-family="Times,serif" font-size="14.00">ops&#45;hub</text>
</g>
<!-- SERVICE:scheduler&#45;&gt;SERVICE:ops&#45;hub -->
<g id="edge4" class="edge">
<title>SERVICE:scheduler&#45;&gt;SERVICE:ops&#45;hub</title>
<g id="a_edge4"><a xlink:title="edge#3">
<path fill="none" stroke="black" d="M95.2,-176.13C143.56,-171.23 226.76,-162.81 278.28,-157.59"/>
<polygon fill="black" stroke="black" points="278.61,-161.08 288.21,-156.59 277.91,-154.11 278.61,-161.08"/>
</a>
</g>
<text text-anchor="middle" x="188.88" y="-177.7" font-family="Times,serif" font-size="14.00">CALLS [rest] (sync)</text>
</g>
<!-- SERVICE:sms&#45;gateway -->
<g id="node2" class="node">
<title>SERVICE:sms&#45;gateway</title>
<path fill="#eef6ff" stroke="black" d="M629.75,-306C629.75,-306 551.5,-306 551.5,-306 545.5,-306 539.5,-300 539.5,-294 539.5,-294 539.5,-282 539.5,-282 539.5,-276 545.5,-270 551.5,-270 551.5,-270 629.75,-270 629.75,-270 635.75,-270 641.75,-276 641.75,-282 641.75,-282 641.75,-294 641.75,-294 641.75,-300 635.75,-306 629.75,-306"/>
<text text-anchor="middle" x="590.62" y="-283.7" font-family="Times,serif" font-size="14.00">sms&#45;gateway</text>
</g>
<!-- SERVICE:cache&#45;proxy -->
<g id="node3" class="node">
<title>SERVICE:cache&#45;proxy</title>
<path fill="#eef6ff" stroke="black" d="M625.62,-252C625.62,-252 555.62,-252 555.62,-252 549.62,-252 543.62,-246 543.62,-240 543.62,-240 543.62,-228 543.62,-228 543.62,-222 549.62,-216 555.62,-216 555.62,-216 625.62,-216 625.62,-216 631.62,-216 637.62,-222 637.62,-228 637.62,-228 637.62,-240 637.62,-240 637.62,-246 631.62,-252 625.62,-252"/>
<text text-anchor="middle" x="590.62" y="-229.7" font-family="Times,serif" font-size="14.00">cache&#45;proxy</text>
</g>
<!-- SERVICE:preferences -->
<g id="node4" class="node">
<title>SERVICE:preferences</title>
<path fill="#eef6ff" stroke="black" d="M89.5,-360C89.5,-360 22.5,-360 22.5,-360 16.5,-360 10.5,-354 10.5,-348 10.5,-348 10.5,-336 10.5,-336 10.5,-330 16.5,-324 22.5,-324 22.5,-324 89.5,-324 89.5,-324 95.5,-324 101.5,-330 101.5,-336 101.5,-336 101.5,-348 101.5,-348 101.5,-354 95.5,-360 89.5,-360"/>
<text text-anchor="middle" x="56" y="-337.7" font-family="Times,serif" font-size="14.00">preferences</text>
</g>
<!-- DATABASE:user&#45;db -->
<g id="node16" class="node">
<title>DATABASE:user&#45;db</title>
<path fill="#fff3cd" stroke="black" d="M357.38,-302.73C357.38,-304.53 342.7,-306 324.62,-306 306.55,-306 291.88,-304.53 291.88,-302.73 291.88,-302.73 291.88,-273.27 291.88,-273.27 291.88,-271.47 306.55,-270 324.62,-270 342.7,-270 357.38,-271.47 357.38,-273.27 357.38,-273.27 357.38,-302.73 357.38,-302.73"/>
<path fill="none" stroke="black" d="M357.38,-302.73C357.38,-300.92 342.7,-299.45 324.62,-299.45 306.55,-299.45 291.88,-300.92 291.88,-302.73"/>
<text text-anchor="middle" x="324.62" y="-283.7" font-family="Times,serif" font-size="14.00">user&#45;db</text>
</g>
<!-- SERVICE:preferences&#45;&gt;DATABASE:user&#45;db -->
<g id="edge13" class="edge">
<title>SERVICE:preferences&#45;&gt;DATABASE:user&#45;db</title>
<g id="a_edge13"><a xlink:title="edge#12">
<path fill="none" stroke="black" d="M102,-335.96C140.83,-330.38 198.31,-321.27 247.75,-310 258.57,-307.53 270.13,-304.43 280.88,-301.34"/>
<polygon fill="black" stroke="black" points="281.66,-304.75 290.27,-298.57 279.69,-298.04 281.66,-304.75"/>
</a>
</g>
<text text-anchor="middle" x="188.88" y="-335.7" font-family="Times,serif" font-size="14.00">CALLS [rest] (sync)</text>
</g>
<!-- SERVICE:tax -->
<g id="node5" class="node">
<title>SERVICE:tax</title>
<path fill="#eef6ff" stroke="black" d="M71,-423C71,-423 41,-423 41,-423 35,-423 29,-417 29,-411 29,-411 29,-399 29,-399 29,-393 35,-387 41,-387 41,-387 71,-387 71,-387 77,-387 83,-393 83,-399 83,-399 83,-411 83,-411 83,-417 77,-423 71,-423"/>
<text text-anchor="middle" x="56" y="-400.7" font-family="Times,serif" font-size="14.00">tax</text>
</g>
<!-- SERVICE:pricing -->
<g id="node8" class="node">
<title>SERVICE:pricing</title>
<path fill="#eef6ff" stroke="black" d="M342.75,-447C342.75,-447 306.5,-447 306.5,-447 300.5,-447 294.5,-441 294.5,-435 294.5,-435 294.5,-423 294.5,-423 294.5,-417 300.5,-411 306.5,-411 306.5,-411 342.75,-411 342.75,-411 348.75,-411 354.75,-417 354.75,-423 354.75,-423 354.75,-435 354.75,-435 354.75,-441 348.75,-447 342.75,-447"/>
<text text-anchor="middle" x="324.62" y="-424.7" font-family="Times,serif" font-size="14.00">pricing</text>
</g>
<!-- SERVICE:tax&#45;&gt;SERVICE:pricing -->
<g id="edge3" class="edge">
<title>SERVICE:tax&#45;&gt;SERVICE:pricing</title>
<g id="a_edge3"><a xlink:title="edge#2">
<path fill="none" stroke="black" d="M83.05,-407.34C129.66,-411.54 227.62,-420.36 283.08,-425.35"/>
<polygon fill="black" stroke="black" points="282.46,-428.81 292.73,-426.22 283.09,-421.84 282.46,-428.81"/>
</a>
</g>
<text text-anchor="middle" x="188.88" y="-425.7" font-family="Times,serif" font-size="14.00">CALLS [rest] (sync)</text>
</g>
<!-- SERVICE:ops&#45;hub&#45;&gt;SERVICE:sms&#45;gateway -->
<g id="edge7" class="edge">
<title>SERVICE:ops&#45;hub&#45;&gt;SERVICE:sms&#45;gateway</title>
<g id="a_edge7"><a xlink:title="edge#6">
<path fill="none" stroke="black" d="M335.29,-171.36C347.66,-192.96 371.16,-228.27 401.5,-247 439.55,-270.5 489.22,-280.63 527.96,-284.95"/>
<polygon fill="black" stroke="black" points="527.29,-288.4 537.59,-285.92 527.99,-281.44 527.29,-288.4"/>
</a>
</g>
<text text-anchor="middle" x="460.38" y="-287.7" font-family="Times,serif" font-size="14.00">CALLS [rest] (sync)</text>
</g>
<!-- SERVICE:ops&#45;hub&#45;&gt;SERVICE:cache&#45;proxy -->
<g id="edge9" class="edge">
<title>SERVICE:ops&#45;hub&#45;&gt;SERVICE:cache&#45;proxy</title>
<g id="a_edge9"><a xlink:title="edge#8">
<path fill="none" stroke="black" d="M354.19,-171.5C368.01,-179.74 385.12,-188.93 401.5,-195 443.87,-210.71 494.09,-220.71 531.98,-226.65"/>
<polygon fill="black" stroke="black" points="531.41,-230.11 541.82,-228.14 532.45,-223.18 531.41,-230.11"/>
</a>
</g>
<text text-anchor="middle" x="460.38" y="-229.7" font-family="Times,serif" font-size="14.00">CALLS [rest] (sync)</text>
</g>
<!-- SERVICE:emailer -->
<g id="node7" class="node">
<title>SERVICE:emailer</title>
<path fill="#eef6ff" stroke="black" d="M610.62,-198C610.62,-198 570.62,-198 570.62,-198 564.62,-198 558.62,-192 558.62,-186 558.62,-186 558.62,-174 558.62,-174 558.62,-168 564.62,-162 570.62,-162 570.62,-162 610.62,-162 610.62,-162 616.62,-162 622.62,-168 622.62,-174 622.62,-174 622.62,-186 622.62,-186 622.62,-192 616.62,-198 610.62,-198"/>
<text text-anchor="middle" x="590.62" y="-175.7" font-family="Times,serif" font-size="14.00">emailer</text>
</g>
<!-- SERVICE:ops&#45;hub&#45;&gt;SERVICE:emailer -->
<g id="edge6" class="edge">
<title>SERVICE:ops&#45;hub&#45;&gt;SERVICE:emailer</title>
<g id="a_edge6"><a xlink:title="edge#5">
<path fill="none" stroke="black" d="M359.6,-156.47C407.5,-161.37 494.87,-170.31 547.05,-175.65"/>
<polygon fill="black" stroke="black" points="546.44,-179.1 556.74,-176.64 547.15,-172.14 546.44,-179.1"/>
</a>
</g>
<text text-anchor="middle" x="460.38" y="-177.7" font-family="Times,serif" font-size="14.00">CALLS [rest] (sync)</text>
</g>
<!-- SERVICE:audit&#45;log -->
<g id="node12" class="node">
<title>SERVICE:audit&#45;log</title>
<path fill="#eef6ff" stroke="black" d="M615.88,-144C615.88,-144 565.38,-144 565.38,-144 559.38,-144 553.38,-138 553.38,-132 553.38,-132 553.38,-120 553.38,-120 553.38,-114 559.38,-108 565.38,-108 565.38,-108 615.88,-108 615.88,-108 621.88,-108 627.88,-114 627.88,-120 627.88,-120 627.88,-132 627.88,-132 627.88,-138 621.88,-144 615.88,-144"/>
<text text-anchor="middle" x="590.62" y="-121.7" font-family="Times,serif" font-size="14.00">audit&#45;log</text>
</g>
<!-- SERVICE:ops&#45;hub&#45;&gt;SERVICE:audit&#45;log -->
<g id="edge8" class="edge">
<title>SERVICE:ops&#45;hub&#45;&gt;SERVICE:audit&#45;log</title>
<g id="a_edge8"><a xlink:title="edge#7">
<path fill="none" stroke="black" d="M359.49,-145.9C372.57,-143.38 387.68,-140.75 401.5,-139 449.04,-132.99 503.71,-129.6 541.82,-127.8"/>
<polygon fill="black" stroke="black" points="541.75,-131.31 551.58,-127.36 541.43,-124.32 541.75,-131.31"/>
</a>
</g>
<text text-anchor="middle" x="460.38" y="-143.7" font-family="Times,serif" font-size="14.00">CALLS [rest] (sync)</text>
</g>
<!-- SERVICE:metrics&#45;agent -->
<g id="node13" class="node">
<title>SERVICE:metrics&#45;agent</title>
<path fill="#eef6ff" stroke="black" d="M632,-90C632,-90 549.25,-90 549.25,-90 543.25,-90 537.25,-84 537.25,-78 537.25,-78 537.25,-66 537.25,-66 537.25,-60 543.25,-54 549.25,-54 549.25,-54 632,-54 632,-54 638,-54 644,-60 644,-66 644,-66 644,-78 644,-78 644,-84 638,-90 632,-90"/>
<text text-anchor="middle" x="590.62" y="-67.7" font-family="Times,serif" font-size="14.00">metrics&#45;agent</text>
</g>
<!-- SERVICE:ops&#45;hub&#45;&gt;SERVICE:metrics&#45;agent -->
<g id="edge10" class="edge">
<title>SERVICE:ops&#45;hub&#45;&gt;SERVICE:metrics&#45;agent</title>
<g id="a_edge10"><a xlink:title="edge#9">
<path fill="none" stroke="black" d="M351.52,-134.59C365.68,-125.32 383.88,-114.67 401.5,-108 441.38,-92.89 488.51,-83.89 525.62,-78.66"/>
<polygon fill="black" stroke="black" points="525.85,-82.16 535.29,-77.36 524.92,-75.22 525.85,-82.16"/>
</a>
</g>
<text text-anchor="middle" x="460.38" y="-112.7" font-family="Times,serif" font-size="14.00">CALLS [rest] (sync)</text>
</g>
<!-- SERVICE:report&#45;export -->
<g id="node14" class="node">
<title>SERVICE:report&#45;export</title>
<path fill="#eef6ff" stroke="black" d="M630.12,-36C630.12,-36 551.12,-36 551.12,-36 545.12,-36 539.12,-30 539.12,-24 539.12,-24 539.12,-12 539.12,-12 539.12,-6 545.12,0 551.12,0 551.12,0 630.12,0 630.12,0 636.12,0 642.12,-6 642.12,-12 642.12,-12 642.12,-24 642.12,-24 642.12,-30 636.12,-36 630.12,-36"/>
<text text-anchor="middle" x="590.62" y="-13.7" font-family="Times,serif" font-size="14.00">report&#45;export</text>
</g>
<!-- SERVICE:ops&#45;hub&#45;&gt;SERVICE:report&#45;export -->
<g id="edge11" class="edge">
<title>SERVICE:ops&#45;hub&#45;&gt;SERVICE:report&#45;export</title>
<g id="a_edge11"><a xlink:title="edge#10">
<path fill="none" stroke="black" d="M335.29,-134.64C347.66,-113.04 371.16,-77.73 401.5,-59 439.42,-35.58 488.88,-25.44 527.56,-21.09"/>
<polygon fill="black" stroke="black" points="527.58,-24.61 537.18,-20.12 526.88,-17.64 527.58,-24.61"/>
</a>
</g>
<text text-anchor="middle" x="460.38" y="-63.7" font-family="Times,serif" font-size="14.00">CALLS [rest] (sync)</text>
</g>
<!-- SERVICE:discount -->
<g id="node9" class="node">
<title>SERVICE:discount</title>
<path fill="#eef6ff" stroke="black" d="M614,-410C614,-410 567.25,-410 567.25,-410 561.25,-410 555.25,-404 555.25,-398 555.25,-398 555.25,-386 555.25,-386 555.25,-380 561.25,-374 567.25,-374 567.25,-374 614,-374 614,-374 620,-374 626,-380 626,-386 626,-386 626,-398 626,-398 626,-404 620,-410 614,-410"/>
<text text-anchor="middle" x="590.62" y="-387.7" font-family="Times,serif" font-size="14.00">discount</text>
</g>
<!-- SERVICE:pricing&#45;&gt;SERVICE:discount -->
<g id="edge1" class="edge">
<title>SERVICE:pricing&#45;&gt;SERVICE:discount</title>
<g id="a_edge1"><a xlink:title="edge#0">
<path fill="none" stroke="black" d="M355.14,-424.86C400.89,-418.45 489.31,-406.06 543.53,-398.46"/>
<polygon fill="black" stroke="black" points="543.97,-401.93 553.38,-397.08 542.99,-395 543.97,-401.93"/>
</a>
</g>
<text text-anchor="middle" x="460.38" y="-422.7" font-family="Times,serif" font-size="14.00">CALLS [rest] (sync)</text>
</g>
<!-- SERVICE:discount&#45;&gt;SERVICE:tax -->
<g id="edge2" class="edge">
<title>SERVICE:discount&#45;&gt;SERVICE:tax</title>
<g id="a_edge2"><a xlink:title="edge#1">
<path fill="none" stroke="black" d="M554.99,-390.25C514.04,-388.27 443.83,-385.17 383.5,-384 331.18,-382.99 318.02,-381.38 265.75,-384 205.69,-387.01 136.28,-394.87 94.56,-400.08"/>
<polygon fill="black" stroke="black" points="94.28,-396.58 84.8,-401.31 95.16,-403.53 94.28,-396.58"/>
</a>
</g>
<text text-anchor="middle" x="324.62" y="-388.7" font-family="Times,serif" font-size="14.00">CALLS [rest] (sync)</text>
</g>
<!-- SERVICE:notifications -->
<g id="node10" class="node">
<title>SERVICE:notifications</title>
<path fill="#eef6ff" stroke="black" d="M92.12,-306C92.12,-306 19.88,-306 19.88,-306 13.88,-306 7.88,-300 7.88,-294 7.88,-294 7.88,-282 7.88,-282 7.88,-276 13.88,-270 19.88,-270 19.88,-270 92.12,-270 92.12,-270 98.12,-270 104.12,-276 104.12,-282 104.12,-282 104.12,-294 104.12,-294 104.12,-300 98.12,-306 92.12,-306"/>
<text text-anchor="middle" x="56" y="-283.7" font-family="Times,serif" font-size="14.00">notifications</text>
</g>
<!-- SERVICE:notifications&#45;&gt;DATABASE:user&#45;db -->
<g id="edge14" class="edge">
<title>SERVICE:notifications&#45;&gt;DATABASE:user&#45;db</title>
<g id="a_edge14"><a xlink:title="edge#13">
<path fill="none" stroke="black" d="M104.36,-288C154.27,-288 232.19,-288 280.45,-288"/>
<polygon fill="black" stroke="black" points="280.24,-291.5 290.24,-288 280.24,-284.5 280.24,-291.5"/>
</a>
</g>
<text text-anchor="middle" x="188.88" y="-292.7" font-family="Times,serif" font-size="14.00">CALLS [rest] (sync)</text>
</g>
<!-- SERVICE:admin&#45;console -->
<g id="node11" class="node">
<title>SERVICE:admin&#45;console</title>
<path fill="#eef6ff" stroke="black" d="M100,-144C100,-144 12,-144 12,-144 6,-144 0,-138 0,-132 0,-132 0,-120 0,-120 0,-114 6,-108 12,-108 12,-108 100,-108 100,-108 106,-108 112,-114 112,-120 112,-120 112,-132 112,-132 112,-138 106,-144 100,-144"/>
<text text-anchor="middle" x="56" y="-121.7" font-family="Times,serif" font-size="14.00">admin&#45;console</text>
</g>
<!-- SERVICE:admin&#45;console&#45;&gt;SERVICE:ops&#45;hub -->
<g id="edge5" class="edge">
<title>SERVICE:admin&#45;console&#45;&gt;SERVICE:ops&#45;hub</title>
<g id="a_edge5"><a xlink:title="edge#4">
<path fill="none" stroke="black" d="M112.25,-128.09C150.42,-129.95 202.3,-133.28 247.75,-139 257.79,-140.26 268.52,-142 278.65,-143.82"/>
<polygon fill="black" stroke="black" points="277.8,-147.23 288.27,-145.62 279.08,-140.34 277.8,-147.23"/>
</a>
</g>
<text text-anchor="middle" x="188.88" y="-143.7" font-family="Times,serif" font-size="14.00">CALLS [rest] (sync)</text>
</g>
<!-- SERVICE:user&#45;profile -->
<g id="node15" class="node">
<title>SERVICE:user&#45;profile</title>
<path fill="#eef6ff" stroke="black" d="M89.12,-252C89.12,-252 22.88,-252 22.88,-252 16.88,-252 10.88,-246 10.88,-240 10.88,-240 10.88,-228 10.88,-228 10.88,-222 16.88,-216 22.88,-216 22.88,-216 89.12,-216 89.12,-216 95.12,-216 101.12,-222 101.12,-228 101.12,-228 101.12,-240 101.12,-240 101.12,-246 95.12,-252 89.12,-252"/>
<text text-anchor="middle" x="56" y="-229.7" font-family="Times,serif" font-size="14.00">user&#45;profile</text>
</g>
<!-- SERVICE:user&#45;profile&#45;&gt;DATABASE:user&#45;db -->
<g id="edge12" class="edge">
<title>SERVICE:user&#45;profile&#45;&gt;DATABASE:user&#45;db</title>
<g id="a_edge12"><a xlink:title="edge#11">
<path fill="none" stroke="black" d="M101.61,-239.99C140.45,-245.56 198.15,-254.69 247.75,-266 258.57,-268.47 270.13,-271.57 280.88,-274.66"/>
<polygon fill="black" stroke="black" points="279.69,-277.96 290.27,-277.43 281.66,-271.25 279.69,-277.96"/>
</a>
</g>
<text text-anchor="middle" x="188.88" y="-270.7" font-family="Times,serif" font-size="14.00">CALLS [rest] (sync)</text>
</g>
</g>
</svg>
