<?xml version="1.0" encoding="UTF-8" standalone="no"?>
<!DOCTYPE svg PUBLIC "-//W3C//DTD SVG 1.1//EN"
 "http://www.w3.org/Graphics/SVG/1.1/DTD/svg11.dtd">
<!-- Generated by graphviz version 9.0.0 (20230911.1827)
 -->
<!-- Title: G Pages: 1 -->
<svg width="1291pt" height="361pt"
 viewBox="0.00 0.00 1291.25 361.00" xmlns="http://www.w3.org/2000/svg" xmlns:xlink="http://www.w3.org/1999/xlink">
<g id="graph0" class="graph" transform="scale(1 1) rotate(0) translate(4 357)">
<title>G</title>
<polygon fill="white" stroke="none" points="-4,4 -4,-357 1287.25,-357 1287.25,4 -4,4"/>
<text text-anchor="middle" x="641.62" y="-335.7" font-family="Helvetica,sans-Serif" font-size="14.00">Architecture</text>
<!-- SERVICE:order&#45;service_split -->
<g id="node1" class="node">
<title>SERVICE:order&#45;service_split</title>
<path fill="#eef6ff" stroke="black" d="M123.25,-192C123.25,-192 12,-192 12,-192 6,-192 0,-186 0,-180 0,-180 0,-168 0,-168 0,-162 6,-156 12,-156 12,-156 123.25,-156 123.25,-156 129.25,-156 135.25,-162 135.25,-168 135.25,-168 135.25,-180 135.25,-180 135.25,-186 129.25,-192 123.25,-192"/>
<text text-anchor="middle" x="67.62" y="-169.7" font-family="Times,serif" font-size="14.00">order&#45;service_split</text>
</g>
<!-- SERVICE:billing&#45;service -->
<g id="node11" class="node">
<title>SERVICE:billing&#45;service</title>
<path fill="#eef6ff" stroke="black" d="M383.25,-229C383.25,-229 301.25,-229 301.25,-229 295.25,-229 289.25,-223 289.25,-217 289.25,-217 289.25,-205 289.25,-205 289.25,-199 295.25,-193 301.25,-193 301.25,-193 383.25,-193 383.25,-193 389.25,-193 395.25,-199 395.25,-205 395.25,-205 395.25,-217 395.25,-217 395.25,-223 389.25,-229 383.25,-229"/>
<text text-anchor="middle" x="342.25" y="-206.7" font-family="Times,serif" font-size="14.00">billing&#45;service</text>
</g>
<!-- SERVICE:order&#45;service_split&#45;&gt;SERVICE:billing&#45;service -->
<g id="edge16" class="edge">
<title>SERVICE:order&#45;service_split&#45;&gt;SERVICE:billing&#45;service</title>
<g id="a_edge16"><a xlink:title="edge#15">
<path fill="none" stroke="black" d="M135.67,-183.1C178.99,-188.98 235.03,-196.58 277.66,-202.37"/>
<polygon fill="black" stroke="black" points="277.15,-205.83 287.53,-203.71 278.09,-198.9 277.15,-205.83"/>
</a>
</g>
<text text-anchor="middle" x="210.25" y="-205.7" font-family="Times,serif" font-size="14.00">calls (1 ep), 36rpm</text>
</g>
<!-- SERVICE:notification&#45;service -->
<g id="node12" class="node">
<title>SERVICE:notification&#45;service</title>
<path fill="#eef6ff" stroke="black" d="M972.5,-327C972.5,-327 856.75,-327 856.75,-327 850.75,-327 844.75,-321 844.75,-315 844.75,-315 844.75,-303 844.75,-303 844.75,-297 850.75,-291 856.75,-291 856.75,-291 972.5,-291 972.5,-291 978.5,-291 984.5,-297 984.5,-303 984.5,-303 984.5,-315 984.5,-315 984.5,-321 978.5,-327 972.5,-327"/>
<text text-anchor="middle" x="914.62" y="-304.7" font-family="Times,serif" font-size="14.00">notification&#45;service</text>
</g>
<!-- SERVICE:order&#45;service_split&#45;&gt;SERVICE:notification&#45;service -->
<g id="edge17" class="edge">
<title>SERVICE:order&#45;service_split&#45;&gt;SERVICE:notification&#45;service</title>
<g id="a_edge17"><a xlink:title="edge#16">
<path fill="none" stroke="black" d="M95.39,-192.3C111.54,-202.62 132.86,-215 153.25,-223 324.32,-290.17 374.55,-292.55 557.5,-310 607.61,-314.78 620.42,-310.1 670.75,-310 724.8,-309.89 785.61,-309.64 832.87,-309.42"/>
<polygon fill="black" stroke="black" points="832.77,-312.92 842.75,-309.37 832.74,-305.92 832.77,-312.92"/>
</a>
</g>
<text text-anchor="middle" x="478.38" y="-312.7" font-family="Times,serif" font-size="14.00">calls (1 ep), 220rpm</text>
</g>
<!-- SERVICE:search&#45;service -->
<g id="node13" class="node">
<title>SERVICE:search&#45;service</title>
<path fill="#eef6ff" stroke="black" d="M956.75,-36C956.75,-36 872.5,-36 872.5,-36 866.5,-36 860.5,-30 860.5,-24 860.5,-24 860.5,-12 860.5,-12 860.5,-6 866.5,0 872.5,0 872.5,0 956.75,0 956.75,0 962.75,0 968.75,-6 968.75,-12 968.75,-12 968.75,-24 968.75,-24 968.75,-30 962.75,-36 956.75,-36"/>
<text text-anchor="middle" x="914.62" y="-13.7" font-family="Times,serif" font-size="14.00">search&#45;service</text>
</g>
<!-- SERVICE:order&#45;service_split&#45;&gt;SERVICE:search&#45;service -->
<g id="edge18" class="edge">
<title>SERVICE:order&#45;service_split&#45;&gt;SERVICE:search&#45;service</title>
<g id="a_edge18"><a xlink:title="edge#17">
<path fill="none" stroke="black" d="M93.68,-155.51C132.45,-128.08 210.33,-77.51 285.25,-56 484.31,1.15 732.97,-5.48 848.73,-12.79"/>
<polygon fill="black" stroke="black" points="848.46,-16.28 858.67,-13.44 848.92,-9.29 848.46,-16.28"/>
</a>
</g>
<text text-anchor="middle" x="478.38" y="-32.7" font-family="Times,serif" font-size="14.00">calls (1 ep), 180rpm</text>
</g>
<!-- DATABASE:orders&#45;db -->
<g id="node2" class="node">
<title>DATABASE:orders&#45;db</title>
<path fill="#fff3cd" stroke="black" d="M1224.75,-230.73C1224.75,-232.53 1206.88,-234 1184.88,-234 1162.87,-234 1145,-232.53 1145,-230.73 1145,-230.73 1145,-201.27 1145,-201.27 1145,-199.47 1162.87,-198 1184.88,-198 1206.88,-198 1224.75,-199.47 1224.75,-201.27 1224.75,-201.27 1224.75,-230.73 1224.75,-230.73"/>
<path fill="none" stroke="black" d="M1224.75,-230.73C1224.75,-228.92 1206.88,-227.45 1184.88,-227.45 1162.87,-227.45 1145,-228.92 1145,-230.73"/>
<text text-anchor="middle" x="1184.88" y="-211.7" font-family="Times,serif" font-size="14.00">orders&#45;db</text>
</g>
<!-- DATABASE:orders&#45;db_order&#45;service -->
<g id="node3" class="node">
<title>DATABASE:orders&#45;db_order&#45;service</title>
<path fill="#fff3cd" stroke="black" d="M1000.25,-86.73C1000.25,-88.53 961.87,-90 914.62,-90 867.38,-90 829,-88.53 829,-86.73 829,-86.73 829,-57.27 829,-57.27 829,-55.47 867.38,-54 914.62,-54 961.87,-54 1000.25,-55.47 1000.25,-57.27 1000.25,-57.27 1000.25,-86.73 1000.25,-86.73"/>
<path fill="none" stroke="black" d="M1000.25,-86.73C1000.25,-84.92 961.87,-83.45 914.62,-83.45 867.38,-83.45 829,-84.92 829,-86.73"/>
<text text-anchor="middle" x="914.62" y="-67.7" font-family="Times,serif" font-size="14.00">orders&#45;db_order&#45;service</text>
</g>
<!-- SERVICE:api&#45;gateway -->
<g id="node4" class="node">
<title>SERVICE:api&#45;gateway</title>
<path fill="#eef6ff" stroke="black" d="M378,-101C378,-101 306.5,-101 306.5,-101 300.5,-101 294.5,-95 294.5,-89 294.5,-89 294.5,-77 294.5,-77 294.5,-71 300.5,-65 306.5,-65 306.5,-65 378,-65 378,-65 384,-65 390,-71 390,-77 390,-77 390,-89 390,-89 390,-95 384,-101 378,-101"/>
<text text-anchor="middle" x="342.25" y="-78.7" font-family="Times,serif" font-size="14.00">api&#45;gateway</text>
</g>
<!-- SERVICE:order&#45;service -->
<g id="node5" class="node">
<title>SERVICE:order&#45;service</title>
<path fill="#eef6ff" stroke="black" d="M652.5,-155C652.5,-155 575.75,-155 575.75,-155 569.75,-155 563.75,-149 563.75,-143 563.75,-143 563.75,-131 563.75,-131 563.75,-125 569.75,-119 575.75,-119 575.75,-119 652.5,-119 652.5,-119 658.5,-119 664.5,-125 664.5,-131 664.5,-131 664.5,-143 664.5,-143 664.5,-149 658.5,-155 652.5,-155"/>
<text text-anchor="middle" x="614.12" y="-132.7" font-family="Times,serif" font-size="14.00">order&#45;service</text>
</g>
<!-- SERVICE:api&#45;gateway&#45;&gt;SERVICE:order&#45;service -->
<g id="edge1" class="edge">
<title>SERVICE:api&#45;gateway&#45;&gt;SERVICE:order&#45;service</title>
<g id="a_edge1"><a xlink:title="edge#0">
<path fill="none" stroke="black" d="M390.37,-84.35C430.58,-86.43 489.65,-91.69 539.5,-105 548.4,-107.38 557.62,-110.66 566.39,-114.22"/>
<polygon fill="black" stroke="black" points="564.86,-117.37 575.43,-118.07 567.6,-110.93 564.86,-117.37"/>
</a>
</g>
<text text-anchor="middle" x="478.38" y="-109.7" font-family="Times,serif" font-size="14.00">calls (1 ep), 30rpm</text>
</g>
<!-- SERVICE:order&#45;service&#45;&gt;SERVICE:order&#45;service_split -->
<g id="edge4" class="edge">
<title>SERVICE:order&#45;service&#45;&gt;SERVICE:order&#45;service_split</title>
<g id="a_edge4"><a xlink:title="edge#3">
<path fill="none" stroke="black" d="M563.6,-140.37C468.78,-146.81 260.93,-160.93 147.06,-168.67"/>
<polygon fill="black" stroke="black" points="146.91,-165.17 137.17,-169.34 147.39,-172.16 146.91,-165.17"/>
</a>
</g>
<text text-anchor="middle" x="342.25" y="-164.7" font-family="Times,serif" font-size="14.00">calls (1 ep), 30rpm</text>
</g>
<!-- SERVICE:order&#45;service&#45;&gt;DATABASE:orders&#45;db_order&#45;service -->
<g id="edge8" class="edge">
<title>SERVICE:order&#45;service&#45;&gt;DATABASE:orders&#45;db_order&#45;service</title>
<g id="a_edge8"><a xlink:title="edge#7">
<path fill="none" stroke="black" d="M657.42,-118.54C667.54,-114.62 678.41,-110.83 688.75,-108 730.32,-96.63 777.26,-88.42 817.46,-82.73"/>
<polygon fill="black" stroke="black" points="817.68,-86.23 827.11,-81.4 816.72,-79.3 817.68,-86.23"/>
</a>
</g>
<text text-anchor="middle" x="749.88" y="-112.7" font-family="Times,serif" font-size="14.00">WRITES</text>
</g>
<!-- SERVICE:user&#45;service -->
<g id="node6" class="node">
<title>SERVICE:user&#45;service</title>
<path fill="#eef6ff" stroke="black" d="M949.25,-144C949.25,-144 880,-144 880,-144 874,-144 868,-138 868,-132 868,-132 868,-120 868,-120 868,-114 874,-108 880,-108 880,-108 949.25,-108 949.25,-108 955.25,-108 961.25,-114 961.25,-120 961.25,-120 961.25,-132 961.25,-132 961.25,-138 955.25,-144 949.25,-144"/>
<text text-anchor="middle" x="914.62" y="-121.7" font-family="Times,serif" font-size="14.00">user&#45;service</text>
</g>
<!-- SERVICE:order&#45;service&#45;&gt;SERVICE:user&#45;service -->
<g id="edge3" class="edge">
<title>SERVICE:order&#45;service&#45;&gt;SERVICE:user&#45;service</title>
<g id="a_edge3"><a xlink:title="edge#2">
<path fill="none" stroke="black" d="M664.75,-135.17C717.53,-133.23 800.89,-130.15 856.4,-128.11"/>
<polygon fill="black" stroke="black" points="856.43,-131.61 866.29,-127.74 856.17,-124.62 856.43,-131.61"/>
</a>
</g>
<text text-anchor="middle" x="749.88" y="-139.7" font-family="Times,serif" font-size="14.00">calls (1 ep), 260rpm</text>
</g>
<!-- DATABASE:users&#45;db -->
<g id="node8" class="node">
<title>DATABASE:users&#45;db</title>
<path fill="#fff3cd" stroke="black" d="M1221,-170.73C1221,-172.53 1204.81,-174 1184.88,-174 1164.94,-174 1148.75,-172.53 1148.75,-170.73 1148.75,-170.73 1148.75,-141.27 1148.75,-141.27 1148.75,-139.47 1164.94,-138 1184.88,-138 1204.81,-138 1221,-139.47 1221,-141.27 1221,-141.27 1221,-170.73 1221,-170.73"/>
<path fill="none" stroke="black" d="M1221,-170.73C1221,-168.92 1204.81,-167.45 1184.88,-167.45 1164.94,-167.45 1148.75,-168.92 1148.75,-170.73"/>
<text text-anchor="middle" x="1184.88" y="-151.7" font-family="Times,serif" font-size="14.00">users&#45;db</text>
</g>
<!-- SERVICE:order&#45;service&#45;&gt;DATABASE:users&#45;db -->
<g id="edge7" class="edge">
<title>SERVICE:order&#45;service&#45;&gt;DATABASE:users&#45;db</title>
<g id="a_edge7"><a xlink:title="edge#6">
<path fill="none" stroke="black" d="M664.68,-152.2C672.66,-154.15 680.89,-155.85 688.75,-157 855.8,-181.35 899.81,-171.57 1068.5,-165 1091.11,-164.12 1116.16,-162.27 1137.13,-160.48"/>
<polygon fill="black" stroke="black" points="1137.15,-163.99 1146.81,-159.63 1136.54,-157.02 1137.15,-163.99"/>
</a>
</g>
<text text-anchor="middle" x="914.62" y="-177.7" font-family="Times,serif" font-size="14.00">READS</text>
</g>
<!-- SERVICE:inventory&#45;service -->
<g id="node10" class="node">
<title>SERVICE:inventory&#45;service</title>
<path fill="#eef6ff" stroke="black" d="M965.75,-270C965.75,-270 863.5,-270 863.5,-270 857.5,-270 851.5,-264 851.5,-258 851.5,-258 851.5,-246 851.5,-246 851.5,-240 857.5,-234 863.5,-234 863.5,-234 965.75,-234 965.75,-234 971.75,-234 977.75,-240 977.75,-246 977.75,-246 977.75,-258 977.75,-258 977.75,-264 971.75,-270 965.75,-270"/>
<text text-anchor="middle" x="914.62" y="-247.7" font-family="Times,serif" font-size="14.00">inventory&#45;service</text>
</g>
<!-- SERVICE:order&#45;service&#45;&gt;SERVICE:inventory&#45;service -->
<g id="edge2" class="edge">
<title>SERVICE:order&#45;service&#45;&gt;SERVICE:inventory&#45;service</title>
<g id="a_edge2"><a xlink:title="edge#1">
<path fill="none" stroke="black" d="M635.88,-155.35C649.88,-166.75 669.3,-180.76 688.75,-189 739.66,-210.55 757.85,-196.78 811,-212 827.74,-216.79 845.55,-223.24 861.56,-229.55"/>
<polygon fill="black" stroke="black" points="859.8,-232.61 870.39,-233.1 862.41,-226.12 859.8,-232.61"/>
</a>
</g>
<text text-anchor="middle" x="749.88" y="-216.7" font-family="Times,serif" font-size="14.00">calls (1 ep), 95rpm</text>
</g>
<!-- SERVICE:order&#45;service&#45;&gt;SERVICE:notification&#45;service -->
<g id="edge5" class="edge">
<title>SERVICE:order&#45;service&#45;&gt;SERVICE:notification&#45;service</title>
<g id="a_edge5"><a xlink:title="edge#4">
<path fill="none" stroke="black" d="M636.04,-155.44C647.23,-166 660.73,-179.92 670.75,-194 681.12,-208.58 675.33,-218.17 688.75,-230 729.2,-265.65 786.73,-285.48 833.48,-296.35"/>
<polygon fill="black" stroke="black" points="832.5,-299.72 843.02,-298.47 834.02,-292.89 832.5,-299.72"/>
</a>
</g>
<text text-anchor="middle" x="749.88" y="-293.7" font-family="Times,serif" font-size="14.00">calls (1 ep), 220rpm</text>
</g>
<!-- SERVICE:order&#45;service&#45;&gt;SERVICE:search&#45;service -->
<g id="edge6" class="edge">
<title>SERVICE:order&#45;service&#45;&gt;SERVICE:search&#45;service</title>
<g id="a_edge6"><a xlink:title="edge#5">
<path fill="none" stroke="black" d="M627.82,-118.78C640.99,-101.35 663.21,-75.75 688.75,-62 715.87,-47.4 792.44,-34.36 848.73,-26.34"/>
<polygon fill="black" stroke="black" points="849.13,-29.82 858.55,-24.97 848.16,-22.89 849.13,-29.82"/>
</a>
</g>
<text text-anchor="middle" x="749.88" y="-66.7" font-family="Times,serif" font-size="14.00">calls (1 ep), 180rpm</text>
</g>
<!-- SERVICE:user&#45;service&#45;&gt;DATABASE:users&#45;db -->
<g id="edge15" class="edge">
<title>SERVICE:user&#45;service&#45;&gt;DATABASE:users&#45;db</title>
<g id="a_edge15"><a xlink:title="edge#14">
<path fill="none" stroke="black" d="M961.74,-131.16C1010.83,-136.65 1088.09,-145.29 1137.34,-150.8"/>
<polygon fill="black" stroke="black" points="1136.79,-154.26 1147.11,-151.89 1137.57,-147.3 1136.79,-154.26"/>
</a>
</g>
<text text-anchor="middle" x="1043.38" y="-147.7" font-family="Times,serif" font-size="14.00">READS</text>
</g>
<!-- DATABASE:payments&#45;db -->
<g id="node7" class="node">
<title>DATABASE:payments&#45;db</title>
<path fill="#fff3cd" stroke="black" d="M664.88,-235.73C664.88,-237.53 642.13,-239 614.12,-239 586.12,-239 563.38,-237.53 563.38,-235.73 563.38,-235.73 563.38,-206.27 563.38,-206.27 563.38,-204.47 586.12,-203 614.12,-203 642.13,-203 664.88,-204.47 664.88,-206.27 664.88,-206.27 664.88,-235.73 664.88,-235.73"/>
<path fill="none" stroke="black" d="M664.88,-235.73C664.88,-233.92 642.13,-232.45 614.12,-232.45 586.12,-232.45 563.38,-233.92 563.38,-235.73"/>
<text text-anchor="middle" x="614.12" y="-216.7" font-family="Times,serif" font-size="14.00">payments&#45;db</text>
</g>
<!-- DATABASE:orders&#45;db_inventory&#45;service -->
<g id="node9" class="node">
<title>DATABASE:orders&#45;db_inventory&#45;service</title>
<path fill="#fff3cd" stroke="black" d="M1283.25,-284.73C1283.25,-286.53 1239.16,-288 1184.88,-288 1130.59,-288 1086.5,-286.53 1086.5,-284.73 1086.5,-284.73 1086.5,-255.27 1086.5,-255.27 1086.5,-253.47 1130.59,-252 1184.88,-252 1239.16,-252 1283.25,-253.47 1283.25,-255.27 1283.25,-255.27 1283.25,-284.73 1283.25,-284.73"/>
<path fill="none" stroke="black" d="M1283.25,-284.73C1283.25,-282.92 1239.16,-281.45 1184.88,-281.45 1130.59,-281.45 1086.5,-282.92 1086.5,-284.73"/>
<text text-anchor="middle" x="1184.88" y="-265.7" font-family="Times,serif" font-size="14.00">orders&#45;db_inventory&#45;service</text>
</g>
<!-- SERVICE:inventory&#45;service&#45;&gt;DATABASE:orders&#45;db -->
<g id="edge10" class="edge">
<title>SERVICE:inventory&#45;service&#45;&gt;DATABASE:orders&#45;db</title>
<g id="a_edge10"><a xlink:title="edge#9">
<path fill="none" stroke="black" d="M978.01,-242.69C991.29,-240.76 1005.23,-238.78 1018.25,-237 1056.91,-231.72 1100.72,-226.19 1133.56,-222.13"/>
<polygon fill="black" stroke="black" points="1133.7,-225.64 1143.19,-220.94 1132.84,-218.69 1133.7,-225.64"/>
</a>
</g>
<text text-anchor="middle" x="1043.38" y="-241.7" font-family="Times,serif" font-size="14.00">READS</text>
</g>
<!-- SERVICE:inventory&#45;service&#45;&gt;DATABASE:orders&#45;db_inventory&#45;service -->
<g id="edge11" class="edge">
<title>SERVICE:inventory&#45;service&#45;&gt;DATABASE:orders&#45;db_inventory&#45;service</title>
<g id="a_edge11"><a xlink:title="edge#10">
<path fill="none" stroke="black" d="M978.18,-256.2C1007.04,-258.13 1042.16,-260.49 1075.14,-262.7"/>
<polygon fill="black" stroke="black" points="1074.51,-266.17 1084.73,-263.35 1074.98,-259.19 1074.51,-266.17"/>
</a>
</g>
<text text-anchor="middle" x="1043.38" y="-266.7" font-family="Times,serif" font-size="14.00">WRITES</text>
</g>
<!-- SERVICE:inventory&#45;service&#45;&gt;SERVICE:billing&#45;service -->
<g id="edge9" class="edge">
<title>SERVICE:inventory&#45;service&#45;&gt;SERVICE:billing&#45;service</title>
<g id="a_edge9"><a xlink:title="edge#8">
<path fill="none" stroke="black" d="M851.19,-265.44C837.98,-267.75 824.08,-269.8 811,-271 636.59,-287.01 584.69,-306.37 417.25,-255 403.3,-250.72 389.22,-243.3 377.14,-235.76"/>
<polygon fill="black" stroke="black" points="379.07,-232.84 368.79,-230.3 375.24,-238.7 379.07,-232.84"/>
</a>
</g>
<text text-anchor="middle" x="614.12" y="-292.7" font-family="Times,serif" font-size="14.00">calls (1 ep), 32rpm</text>
</g>
<!-- SERVICE:billing&#45;service&#45;&gt;SERVICE:order&#45;service -->
<g id="edge12" class="edge">
<title>SERVICE:billing&#45;service&#45;&gt;SERVICE:order&#45;service</title>
<g id="a_edge12"><a xlink:title="edge#11">
<path fill="none" stroke="black" d="M391.15,-192.62C399.78,-189.57 408.74,-186.56 417.25,-184 462.05,-170.5 513.52,-158.27 552.46,-149.68"/>
<polygon fill="black" stroke="black" points="553.1,-153.12 562.13,-147.56 551.61,-146.28 553.1,-153.12"/>
</a>
</g>
<text text-anchor="middle" x="478.38" y="-188.7" font-family="Times,serif" font-size="14.00">calls (1 ep), 260rpm</text>
</g>
<!-- SERVICE:billing&#45;service&#45;&gt;DATABASE:payments&#45;db -->
<g id="edge13" class="edge">
<title>SERVICE:billing&#45;service&#45;&gt;DATABASE:payments&#45;db</title>
<g id="a_edge13"><a xlink:title="edge#12">
<path fill="none" stroke="black" d="M395.49,-226.14C402.74,-227.74 410.14,-229.1 417.25,-230 462.13,-235.67 513.19,-233.03 551.93,-229.18"/>
<polygon fill="black" stroke="black" points="551.94,-232.7 561.52,-228.17 551.21,-225.73 551.94,-232.7"/>
</a>
</g>
<text text-anchor="middle" x="478.38" y="-237.7" font-family="Times,serif" font-size="14.00">READS</text>
</g>
<!-- SERVICE:billing&#45;service&#45;&gt;DATABASE:payments&#45;db -->
<g id="edge14" class="edge">
<title>SERVICE:billing&#45;service&#45;&gt;DATABASE:payments&#45;db</title>
<g id="a_edge14"><a xlink:title="edge#13">
<path fill="none" stroke="black" d="M395.42,-207.3C435.02,-205.19 490.79,-203.73 539.5,-208 543.55,-208.36 547.72,-208.82 551.9,-209.36"/>
<polygon fill="black" stroke="black" points="551.09,-212.78 561.48,-210.73 552.08,-205.85 551.09,-212.78"/>
</a>
</g>
<text text-anchor="middle" x="478.38" y="-212.7" font-family="Times,serif" font-size="14.00">WRITES</text>
</g>
</g>
</svg>
