<?xml version="1.0" encoding="UTF-8" standalone="no"?>
<!DOCTYPE svg PUBLIC "-//W3C//DTD SVG 1.1//EN"
 "http://www.w3.org/Graphics/SVG/1.1/DTD/svg11.dtd">
<!-- Generated by graphviz version 9.0.0 (20230911.1827)
 -->
<!-- Title: G Pages: 1 -->
<svg width="780pt" height="154pt"
 viewBox="0.00 0.00 780.25 153.66" xmlns="http://www.w3.org/2000/svg" xmlns:xlink="http://www.w3.org/1999/xlink">
<g id="graph0" class="graph" transform="scale(1 1) rotate(0) translate(4 149.66)">
<title>G</title>
<polygon fill="white" stroke="none" points="-4,4 -4,-149.66 776.25,-149.66 776.25,4 -4,4"/>
<text text-anchor="middle" x="386.12" y="-128.36" font-family="Helvetica,sans-Serif" font-size="14.00">Architecture</text>
<!-- SERVICE:web -->
<g id="node1" class="node">
<title>SERVICE:web</title>
<path fill="#eef6ff" stroke="black" d="M42,-92.66C42,-92.66 12,-92.66 12,-92.66 6,-92.66 0,-86.66 0,-80.66 0,-80.66 0,-68.66 0,-68.66 0,-62.66 6,-56.66 12,-56.66 12,-56.66 42,-56.66 42,-56.66 48,-56.66 54,-62.66 54,-68.66 54,-68.66 54,-80.66 54,-80.66 54,-86.66 48,-92.66 42,-92.66"/>
<text text-anchor="middle" x="27" y="-70.36" font-family="Times,serif" font-size="14.00">web</text>
</g>
<!-- SERVICE:auth -->
<g id="node2" class="node">
<title>SERVICE:auth</title>
<path fill="#eef6ff" stroke="black" d="M356.88,-119.66C356.88,-119.66 326.88,-119.66 326.88,-119.66 320.88,-119.66 314.88,-113.66 314.88,-107.66 314.88,-107.66 314.88,-95.66 314.88,-95.66 314.88,-89.66 320.88,-83.66 326.88,-83.66 326.88,-83.66 356.88,-83.66 356.88,-83.66 362.88,-83.66 368.88,-89.66 368.88,-95.66 368.88,-95.66 368.88,-107.66 368.88,-107.66 368.88,-113.66 362.88,-119.66 356.88,-119.66"/>
<text text-anchor="middle" x="341.88" y="-97.36" font-family="Times,serif" font-size="14.00">auth</text>
</g>
<!-- SERVICE:web&#45;&gt;SERVICE:auth -->
<g id="edge1" class="edge">
<title>SERVICE:web&#45;&gt;SERVICE:auth</title>
<g id="a_edge1"><a xlink:title="edge#0">
<path fill="none" stroke="black" d="M54.41,-76.94C110.02,-81.74 239.36,-92.9 303.47,-98.44"/>
<polygon fill="black" stroke="black" points="302.88,-101.9 313.14,-99.27 303.48,-94.92 302.88,-101.9"/>
</a>
</g>
<text text-anchor="middle" x="130.88" y="-92.36" font-family="Times,serif" font-size="14.00">CALLS [rest] (sync)</text>
</g>
<!-- SERVICE:orders -->
<g id="node3" class="node">
<title>SERVICE:orders</title>
<path fill="#eef6ff" stroke="black" d="M253,-67.66C253,-67.66 219.75,-67.66 219.75,-67.66 213.75,-67.66 207.75,-61.66 207.75,-55.66 207.75,-55.66 207.75,-43.66 207.75,-43.66 207.75,-37.66 213.75,-31.66 219.75,-31.66 219.75,-31.66 253,-31.66 253,-31.66 259,-31.66 265,-37.66 265,-43.66 265,-43.66 265,-55.66 265,-55.66 265,-61.66 259,-67.66 253,-67.66"/>
<text text-anchor="middle" x="236.38" y="-45.36" font-family="Times,serif" font-size="14.00">orders</text>
</g>
<!-- SERVICE:web&#45;&gt;SERVICE:orders -->
<g id="edge2" class="edge">
<title>SERVICE:web&#45;&gt;SERVICE:orders</title>
<g id="a_edge2"><a xlink:title="edge#1">
<path fill="none" stroke="black" d="M54.11,-63.01C59.89,-60.87 66.07,-58.92 72,-57.66 113.75,-48.82 162.78,-47.6 196.16,-48.1"/>
<polygon fill="black" stroke="black" points="195.69,-51.59 205.76,-48.31 195.84,-44.6 195.69,-51.59"/>
</a>
</g>
<text text-anchor="middle" x="130.88" y="-62.36" font-family="Times,serif" font-size="14.00">CALLS [rest] (sync)</text>
</g>
<!-- DATABASE:shared&#45;db -->
<g id="node5" class="node">
<title>DATABASE:shared&#45;db</title>
<path fill="#fff3cd" stroke="black" d="M772.25,-64.39C772.25,-66.2 753.87,-67.66 731.25,-67.66 708.63,-67.66 690.25,-66.2 690.25,-64.39 690.25,-64.39 690.25,-34.94 690.25,-34.94 690.25,-33.13 708.63,-31.66 731.25,-31.66 753.87,-31.66 772.25,-33.13 772.25,-34.94 772.25,-34.94 772.25,-64.39 772.25,-64.39"/>
<path fill="none" stroke="black" d="M772.25,-64.39C772.25,-62.59 753.87,-61.12 731.25,-61.12 708.63,-61.12 690.25,-62.59 690.25,-64.39"/>
<text text-anchor="middle" x="731.25" y="-45.36" font-family="Times,serif" font-size="14.00">shared&#45;db</text>
</g>
<!-- SERVICE:auth&#45;&gt;DATABASE:shared&#45;db -->
<g id="edge6" class="edge">
<title>SERVICE:auth&#45;&gt;DATABASE:shared&#45;db</title>
<g id="a_edge6"><a xlink:title="edge#5">
<path fill="none" stroke="black" d="M369.3,-101.67C425.71,-101.17 561.75,-97.15 672.25,-71.66 674.41,-71.16 676.61,-70.6 678.81,-69.99"/>
<polygon fill="black" stroke="black" points="679.84,-73.34 688.36,-67.04 677.77,-66.65 679.84,-73.34"/>
</a>
</g>
<text text-anchor="middle" x="477.62" y="-104.36" font-family="Times,serif" font-size="14.00">CALLS [rest] (sync)</text>
</g>
<!-- SERVICE:inventory -->
<g id="node4" class="node">
<title>SERVICE:inventory</title>
<path fill="#eef6ff" stroke="black" d="M503.62,-67.66C503.62,-67.66 451.62,-67.66 451.62,-67.66 445.62,-67.66 439.62,-61.66 439.62,-55.66 439.62,-55.66 439.62,-43.66 439.62,-43.66 439.62,-37.66 445.62,-31.66 451.62,-31.66 451.62,-31.66 503.62,-31.66 503.62,-31.66 509.62,-31.66 515.62,-37.66 515.62,-43.66 515.62,-43.66 515.62,-55.66 515.62,-55.66 515.62,-61.66 509.62,-67.66 503.62,-67.66"/>
<text text-anchor="middle" x="477.62" y="-45.36" font-family="Times,serif" font-size="14.00">inventory</text>
</g>
<!-- SERVICE:orders&#45;&gt;SERVICE:inventory -->
<g id="edge3" class="edge">
<title>SERVICE:orders&#45;&gt;SERVICE:inventory</title>
<g id="a_edge3"><a xlink:title="edge#2">
<path fill="none" stroke="black" d="M265.29,-49.66C305.23,-49.66 379.26,-49.66 428.23,-49.66"/>
<polygon fill="black" stroke="black" points="427.99,-53.16 437.99,-49.66 427.98,-46.16 427.99,-53.16"/>
</a>
</g>
<text text-anchor="middle" x="341.88" y="-54.36" font-family="Times,serif" font-size="14.00">CALLS [rest] (sync)</text>
</g>
<!-- SERVICE:orders&#45;&gt;DATABASE:shared&#45;db -->
<g id="edge4" class="edge">
<title>SERVICE:orders&#45;&gt;DATABASE:shared&#45;db</title>
<g id="a_edge4"><a xlink:title="edge#3">
<path fill="none" stroke="black" d="M265.25,-40.49C300.52,-29.42 363.36,-11.43 418.75,-4.66 470.7,1.68 484.51,1.29 536.5,-4.66 585.52,-10.28 640.19,-23.65 678.92,-34.36"/>
<polygon fill="black" stroke="black" points="677.87,-37.7 688.44,-37.04 679.76,-30.97 677.87,-37.7"/>
</a>
</g>
<text text-anchor="middle" x="477.62" y="-9.36" font-family="Times,serif" font-size="14.00">CALLS [rest] (sync)</text>
</g>
<!-- SERVICE:inventory&#45;&gt;DATABASE:shared&#45;db -->
<g id="edge5" class="edge">
<title>SERVICE:inventory&#45;&gt;DATABASE:shared&#45;db</title>
<g id="a_edge5"><a xlink:title="edge#4">
<path fill="none" stroke="black" d="M516.02,-49.66C559.15,-49.66 630.31,-49.66 678.68,-49.66"/>
<polygon fill="black" stroke="black" points="678.63,-53.16 688.63,-49.66 678.63,-46.16 678.63,-53.16"/>
</a>
</g>
<text text-anchor="middle" x="613.38" y="-54.36" font-family="Times,serif" font-size="14.00">CALLS [rest] (sync)</text>
</g>
</g>
</svg>
