<?xml version="1.0" encoding="UTF-8" standalone="no"?>
<!DOCTYPE svg PUBLIC "-//W3C//DTD SVG 1.1//EN"
 "http://www.w3.org/Graphics/SVG/1.1/DTD/svg11.dtd">
<!-- Generated by graphviz version 9.0.0 (20230911.1827)
 -->
<!-- Title: G Pages: 1 -->
<svg width="1703pt" height="398pt"
 viewBox="0.00 0.00 1702.50 398.00" xmlns="http://www.w3.org/2000/svg" xmlns:xlink="http://www.w3.org/1999/xlink">
<g id="graph0" class="graph" transform="scale(1 1) rotate(0) translate(4 394)">
<title>G</title>
<polygon fill="white" stroke="none" points="-4,4 -4,-394 1698.5,-394 1698.5,4 -4,4"/>
<text text-anchor="middle" x="847.25" y="-372.7" font-family="Helvetica,sans-Serif" font-size="14.00">Architecture</text>
<!-- SERVICE:ops&#45;hub -->
<g id="node1" class="node">
<title>SERVICE:ops&#45;hub</title>
<path fill="#eef6ff" stroke="black" d="M323.75,-121C323.75,-121 278.5,-121 278.5,-121 272.5,-121 266.5,-115 266.5,-109 266.5,-109 266.5,-97 266.5,-97 266.5,-91 272.5,-85 278.5,-85 278.5,-85 323.75,-85 323.75,-85 329.75,-85 335.75,-91 335.75,-97 335.75,-97 335.75,-109 335.75,-109 335.75,-115 329.75,-121 323.75,-121"/>
<text text-anchor="middle" x="301.12" y="-98.7" font-family="Times,serif" font-size="14.00">ops&#45;hub</text>
</g>
<!-- SERVICE:ops&#45;hub_split&#45;2 -->
<g id="node16" class="node">
<title>SERVICE:ops&#45;hub_split&#45;2</title>
<path fill="#eef6ff" stroke="black" d="M595.5,-148C595.5,-148 502.25,-148 502.25,-148 496.25,-148 490.25,-142 490.25,-136 490.25,-136 490.25,-124 490.25,-124 490.25,-118 496.25,-112 502.25,-112 502.25,-112 595.5,-112 595.5,-112 601.5,-112 607.5,-118 607.5,-124 607.5,-124 607.5,-136 607.5,-136 607.5,-142 601.5,-148 595.5,-148"/>
<text text-anchor="middle" x="548.88" y="-125.7" font-family="Times,serif" font-size="14.00">ops&#45;hub_split&#45;2</text>
</g>
<!-- SERVICE:ops&#45;hub&#45;&gt;SERVICE:ops&#45;hub_split&#45;2 -->
<g id="edge17" class="edge">
<title>SERVICE:ops&#45;hub&#45;&gt;SERVICE:ops&#45;hub_split&#45;2</title>
<g id="a_edge17"><a xlink:title="edge#16">
<path fill="none" stroke="black" d="M336.04,-106.73C372.65,-110.75 431.98,-117.27 478.55,-122.38"/>
<polygon fill="black" stroke="black" points="477.96,-125.84 488.29,-123.45 478.73,-118.88 477.96,-125.84"/>
</a>
</g>
<text text-anchor="middle" x="413.38" y="-126.7" font-family="Times,serif" font-size="14.00">CALLS [rest] (sync)</text>
</g>
<!-- SERVICE:emailer -->
<g id="node17" class="node">
<title>SERVICE:emailer</title>
<path fill="#eef6ff" stroke="black" d="M568.88,-94C568.88,-94 528.88,-94 528.88,-94 522.88,-94 516.88,-88 516.88,-82 516.88,-82 516.88,-70 516.88,-70 516.88,-64 522.88,-58 528.88,-58 528.88,-58 568.88,-58 568.88,-58 574.88,-58 580.88,-64 580.88,-70 580.88,-70 580.88,-82 580.88,-82 580.88,-88 574.88,-94 568.88,-94"/>
<text text-anchor="middle" x="548.88" y="-71.7" font-family="Times,serif" font-size="14.00">emailer</text>
</g>
<!-- SERVICE:ops&#45;hub&#45;&gt;SERVICE:emailer -->
<g id="edge5" class="edge">
<title>SERVICE:ops&#45;hub&#45;&gt;SERVICE:emailer</title>
<g id="a_edge5"><a xlink:title="edge#4">
<path fill="none" stroke="black" d="M336.07,-88.99C342.12,-86.98 348.43,-85.2 354.5,-84 405.55,-73.93 465.59,-73.12 505.07,-74.05"/>
<polygon fill="black" stroke="black" points="504.77,-77.54 514.87,-74.33 504.97,-70.54 504.77,-77.54"/>
</a>
</g>
<text text-anchor="middle" x="413.38" y="-88.7" font-family="Times,serif" font-size="14.00">CALLS [rest] (sync)</text>
</g>
<!-- SERVICE:sms&#45;gateway -->
<g id="node2" class="node">
<title>SERVICE:sms&#45;gateway</title>
<path fill="#eef6ff" stroke="black" d="M858.25,-171C858.25,-171 780,-171 780,-171 774,-171 768,-165 768,-159 768,-159 768,-147 768,-147 768,-141 774,-135 780,-135 780,-135 858.25,-135 858.25,-135 864.25,-135 870.25,-141 870.25,-147 870.25,-147 870.25,-159 870.25,-159 870.25,-165 864.25,-171 858.25,-171"/>
<text text-anchor="middle" x="819.12" y="-148.7" font-family="Times,serif" font-size="14.00">sms&#45;gateway</text>
</g>
<!-- SERVICE:audit&#45;log -->
<g id="node3" class="node">
<title>SERVICE:audit&#45;log</title>
<path fill="#eef6ff" stroke="black" d="M1115.38,-144C1115.38,-144 1064.88,-144 1064.88,-144 1058.88,-144 1052.88,-138 1052.88,-132 1052.88,-132 1052.88,-120 1052.88,-120 1052.88,-114 1058.88,-108 1064.88,-108 1064.88,-108 1115.38,-108 1115.38,-108 1121.38,-108 1127.38,-114 1127.38,-120 1127.38,-120 1127.38,-132 1127.38,-132 1127.38,-138 1121.38,-144 1115.38,-144"/>
<text text-anchor="middle" x="1090.12" y="-121.7" font-family="Times,serif" font-size="14.00">audit&#45;log</text>
</g>
<!-- SERVICE:cache&#45;proxy -->
<g id="node4" class="node">
<title>SERVICE:cache&#45;proxy</title>
<path fill="#eef6ff" stroke="black" d="M1399.88,-117C1399.88,-117 1329.88,-117 1329.88,-117 1323.88,-117 1317.88,-111 1317.88,-105 1317.88,-105 1317.88,-93 1317.88,-93 1317.88,-87 1323.88,-81 1329.88,-81 1329.88,-81 1399.88,-81 1399.88,-81 1405.88,-81 1411.88,-87 1411.88,-93 1411.88,-93 1411.88,-105 1411.88,-105 1411.88,-111 1405.88,-117 1399.88,-117"/>
<text text-anchor="middle" x="1364.88" y="-94.7" font-family="Times,serif" font-size="14.00">cache&#45;proxy</text>
</g>
<!-- SERVICE:report&#45;export -->
<g id="node5" class="node">
<title>SERVICE:report&#45;export</title>
<path fill="#eef6ff" stroke="black" d="M1680.62,-90C1680.62,-90 1601.62,-90 1601.62,-90 1595.62,-90 1589.62,-84 1589.62,-78 1589.62,-78 1589.62,-66 1589.62,-66 1589.62,-60 1595.62,-54 1601.62,-54 1601.62,-54 1680.62,-54 1680.62,-54 1686.62,-54 1692.62,-60 1692.62,-66 1692.62,-66 1692.62,-78 1692.62,-78 1692.62,-84 1686.62,-90 1680.62,-90"/>
<text text-anchor="middle" x="1641.12" y="-67.7" font-family="Times,serif" font-size="14.00">report&#45;export</text>
</g>
<!-- SERVICE:preferences -->
<g id="node6" class="node">
<title>SERVICE:preferences</title>
<path fill="#eef6ff" stroke="black" d="M89.5,-310C89.5,-310 22.5,-310 22.5,-310 16.5,-310 10.5,-304 10.5,-298 10.5,-298 10.5,-286 10.5,-286 10.5,-280 16.5,-274 22.5,-274 22.5,-274 89.5,-274 89.5,-274 95.5,-274 101.5,-280 101.5,-286 101.5,-286 101.5,-298 101.5,-298 101.5,-304 95.5,-310 89.5,-310"/>
<text text-anchor="middle" x="56" y="-287.7" font-family="Times,serif" font-size="14.00">preferences</text>
</g>
<!-- DATABASE:user&#45;db -->
<g id="node14" class="node">
<title>DATABASE:user&#45;db</title>
<path fill="#fff3cd" stroke="black" d="M333.88,-252.73C333.88,-254.53 319.2,-256 301.12,-256 283.05,-256 268.38,-254.53 268.38,-252.73 268.38,-252.73 268.38,-223.27 268.38,-223.27 268.38,-221.47 283.05,-220 301.12,-220 319.2,-220 333.88,-221.47 333.88,-223.27 333.88,-223.27 333.88,-252.73 333.88,-252.73"/>
<path fill="none" stroke="black" d="M333.88,-252.73C333.88,-250.92 319.2,-249.45 301.12,-249.45 283.05,-249.45 268.38,-250.92 268.38,-252.73"/>
<text text-anchor="middle" x="301.12" y="-233.7" font-family="Times,serif" font-size="14.00">user&#45;db</text>
</g>
<!-- SERVICE:preferences&#45;&gt;DATABASE:user&#45;db -->
<g id="edge12" class="edge">
<title>SERVICE:preferences&#45;&gt;DATABASE:user&#45;db</title>
<g id="a_edge12"><a xlink:title="edge#11">
<path fill="none" stroke="black" d="M101.98,-287.43C141.05,-282.76 198.89,-274.15 247.75,-260 251.01,-259.06 254.34,-257.97 257.66,-256.79"/>
<polygon fill="black" stroke="black" points="258.62,-260.17 266.72,-253.35 256.13,-253.63 258.62,-260.17"/>
</a>
</g>
<text text-anchor="middle" x="188.88" y="-287.7" font-family="Times,serif" font-size="14.00">CALLS [rest] (sync)</text>
</g>
<!-- SERVICE:notifications -->
<g id="node7" class="node">
<title>SERVICE:notifications</title>
<path fill="#eef6ff" stroke="black" d="M92.12,-256C92.12,-256 19.88,-256 19.88,-256 13.88,-256 7.88,-250 7.88,-244 7.88,-244 7.88,-232 7.88,-232 7.88,-226 13.88,-220 19.88,-220 19.88,-220 92.12,-220 92.12,-220 98.12,-220 104.12,-226 104.12,-232 104.12,-232 104.12,-244 104.12,-244 104.12,-250 98.12,-256 92.12,-256"/>
<text text-anchor="middle" x="56" y="-233.7" font-family="Times,serif" font-size="14.00">notifications</text>
</g>
<!-- SERVICE:notifications&#45;&gt;DATABASE:user&#45;db -->
<g id="edge13" class="edge">
<title>SERVICE:notifications&#45;&gt;DATABASE:user&#45;db</title>
<g id="a_edge13"><a xlink:title="edge#12">
<path fill="none" stroke="black" d="M104.45,-238C148.54,-238 213.65,-238 256.47,-238"/>
<polygon fill="black" stroke="black" points="256.41,-241.5 266.41,-238 256.41,-234.5 256.41,-241.5"/>
</a>
</g>
<text text-anchor="middle" x="188.88" y="-242.7" font-family="Times,serif" font-size="14.00">CALLS [rest] (sync)</text>
</g>
<!-- SERVICE:tax -->
<g id="node8" class="node">
<title>SERVICE:tax</title>
<path fill="#eef6ff" stroke="black" d="M563.88,-364C563.88,-364 533.88,-364 533.88,-364 527.88,-364 521.88,-358 521.88,-352 521.88,-352 521.88,-340 521.88,-340 521.88,-334 527.88,-328 533.88,-328 533.88,-328 563.88,-328 563.88,-328 569.88,-328 575.88,-334 575.88,-340 575.88,-340 575.88,-352 575.88,-352 575.88,-358 569.88,-364 563.88,-364"/>
<text text-anchor="middle" x="548.88" y="-341.7" font-family="Times,serif" font-size="14.00">tax</text>
</g>
<!-- SERVICE:scheduler -->
<g id="node9" class="node">
<title>SERVICE:scheduler</title>
<path fill="#eef6ff" stroke="black" d="M82.75,-148C82.75,-148 29.25,-148 29.25,-148 23.25,-148 17.25,-142 17.25,-136 17.25,-136 17.25,-124 17.25,-124 17.25,-118 23.25,-112 29.25,-112 29.25,-112 82.75,-112 82.75,-112 88.75,-112 94.75,-118 94.75,-124 94.75,-124 94.75,-136 94.75,-136 94.75,-142 88.75,-148 82.75,-148"/>
<text text-anchor="middle" x="56" y="-125.7" font-family="Times,serif" font-size="14.00">scheduler</text>
</g>
<!-- SERVICE:scheduler&#45;&gt;SERVICE:ops&#45;hub -->
<g id="edge3" class="edge">
<title>SERVICE:scheduler&#45;&gt;SERVICE:ops&#45;hub</title>
<g id="a_edge3"><a xlink:title="edge#2">
<path fill="none" stroke="black" d="M94.99,-125.78C138.23,-120.98 208.83,-113.14 254.88,-108.02"/>
<polygon fill="black" stroke="black" points="255.26,-111.5 264.82,-106.92 254.49,-104.55 255.26,-111.5"/>
</a>
</g>
<text text-anchor="middle" x="188.88" y="-126.7" font-family="Times,serif" font-size="14.00">CALLS [rest] (sync)</text>
</g>
<!-- SERVICE:admin&#45;console -->
<g id="node10" class="node">
<title>SERVICE:admin&#45;console</title>
<path fill="#eef6ff" stroke="black" d="M100,-94C100,-94 12,-94 12,-94 6,-94 0,-88 0,-82 0,-82 0,-70 0,-70 0,-64 6,-58 12,-58 12,-58 100,-58 100,-58 106,-58 112,-64 112,-70 112,-70 112,-82 112,-82 112,-88 106,-94 100,-94"/>
<text text-anchor="middle" x="56" y="-71.7" font-family="Times,serif" font-size="14.00">admin&#45;console</text>
</g>
<!-- SERVICE:admin&#45;console&#45;&gt;SERVICE:ops&#45;hub -->
<g id="edge4" class="edge">
<title>SERVICE:admin&#45;console&#45;&gt;SERVICE:ops&#45;hub</title>
<g id="a_edge4"><a xlink:title="edge#3">
<path fill="none" stroke="black" d="M112.5,-75.72C150.78,-76.37 202.69,-78.94 247.75,-87 250.18,-87.44 252.66,-87.95 255.15,-88.52"/>
<polygon fill="black" stroke="black" points="254.02,-91.84 264.58,-90.93 255.76,-85.06 254.02,-91.84"/>
</a>
</g>
<text text-anchor="middle" x="188.88" y="-91.7" font-family="Times,serif" font-size="14.00">CALLS [rest] (sync)</text>
</g>
<!-- SERVICE:ops&#45;hub_split -->
<g id="node11" class="node">
<title>SERVICE:ops&#45;hub_split</title>
<path fill="#eef6ff" stroke="black" d="M1130,-90C1130,-90 1050.25,-90 1050.25,-90 1044.25,-90 1038.25,-84 1038.25,-78 1038.25,-78 1038.25,-66 1038.25,-66 1038.25,-60 1044.25,-54 1050.25,-54 1050.25,-54 1130,-54 1130,-54 1136,-54 1142,-60 1142,-66 1142,-66 1142,-78 1142,-78 1142,-84 1136,-90 1130,-90"/>
<text text-anchor="middle" x="1090.12" y="-67.7" font-family="Times,serif" font-size="14.00">ops&#45;hub_split</text>
</g>
<!-- SERVICE:ops&#45;hub_split&#45;&gt;SERVICE:cache&#45;proxy -->
<g id="edge8" class="edge">
<title>SERVICE:ops&#45;hub_split&#45;&gt;SERVICE:cache&#45;proxy</title>
<g id="a_edge8"><a xlink:title="edge#7">
<path fill="none" stroke="black" d="M1142.43,-77.08C1189.14,-81.7 1258.03,-88.52 1306.54,-93.32"/>
<polygon fill="black" stroke="black" points="1305.99,-96.79 1316.29,-94.29 1306.68,-89.82 1305.99,-96.79"/>
</a>
</g>
<text text-anchor="middle" x="1218.88" y="-95.7" font-family="Times,serif" font-size="14.00">CALLS [rest] (sync)</text>
</g>
<!-- SERVICE:ops&#45;hub_split_split -->
<g id="node20" class="node">
<title>SERVICE:ops&#45;hub_split_split</title>
<path fill="#eef6ff" stroke="black" d="M1422,-63C1422,-63 1307.75,-63 1307.75,-63 1301.75,-63 1295.75,-57 1295.75,-51 1295.75,-51 1295.75,-39 1295.75,-39 1295.75,-33 1301.75,-27 1307.75,-27 1307.75,-27 1422,-27 1422,-27 1428,-27 1434,-33 1434,-39 1434,-39 1434,-51 1434,-51 1434,-57 1428,-63 1422,-63"/>
<text text-anchor="middle" x="1364.88" y="-40.7" font-family="Times,serif" font-size="14.00">ops&#45;hub_split_split</text>
</g>
<!-- SERVICE:ops&#45;hub_split&#45;&gt;SERVICE:ops&#45;hub_split_split -->
<g id="edge16" class="edge">
<title>SERVICE:ops&#45;hub_split&#45;&gt;SERVICE:ops&#45;hub_split_split</title>
<g id="a_edge16"><a xlink:title="edge#15">
<path fill="none" stroke="black" d="M1142.15,-60.82C1148.14,-59.75 1154.19,-58.77 1160,-58 1200.78,-52.58 1246.47,-49.4 1284.24,-47.55"/>
<polygon fill="black" stroke="black" points="1284.35,-51.05 1294.18,-47.09 1284.02,-44.06 1284.35,-51.05"/>
</a>
</g>
<text text-anchor="middle" x="1218.88" y="-62.7" font-family="Times,serif" font-size="14.00">CALLS [rest] (sync)</text>
</g>
<!-- SERVICE:pricing -->
<g id="node12" class="node">
<title>SERVICE:pricing</title>
<path fill="#eef6ff" stroke="black" d="M74.12,-364C74.12,-364 37.88,-364 37.88,-364 31.88,-364 25.88,-358 25.88,-352 25.88,-352 25.88,-340 25.88,-340 25.88,-334 31.88,-328 37.88,-328 37.88,-328 74.12,-328 74.12,-328 80.12,-328 86.12,-334 86.12,-340 86.12,-340 86.12,-352 86.12,-352 86.12,-358 80.12,-364 74.12,-364"/>
<text text-anchor="middle" x="56" y="-341.7" font-family="Times,serif" font-size="14.00">pricing</text>
</g>
<!-- SERVICE:discount -->
<g id="node13" class="node">
<title>SERVICE:discount</title>
<path fill="#eef6ff" stroke="black" d="M324.5,-364C324.5,-364 277.75,-364 277.75,-364 271.75,-364 265.75,-358 265.75,-352 265.75,-352 265.75,-340 265.75,-340 265.75,-334 271.75,-328 277.75,-328 277.75,-328 324.5,-328 324.5,-328 330.5,-328 336.5,-334 336.5,-340 336.5,-340 336.5,-352 336.5,-352 336.5,-358 330.5,-364 324.5,-364"/>
<text text-anchor="middle" x="301.12" y="-341.7" font-family="Times,serif" font-size="14.00">discount</text>
</g>
<!-- SERVICE:pricing&#45;&gt;SERVICE:discount -->
<g id="edge1" class="edge">
<title>SERVICE:pricing&#45;&gt;SERVICE:discount</title>
<g id="a_edge1"><a xlink:title="edge#0">
<path fill="none" stroke="black" d="M86.33,-346C128.07,-346 205.01,-346 254.31,-346"/>
<polygon fill="black" stroke="black" points="254.09,-349.5 264.09,-346 254.09,-342.5 254.09,-349.5"/>
</a>
</g>
<text text-anchor="middle" x="188.88" y="-350.7" font-family="Times,serif" font-size="14.00">CALLS [rest] (sync)</text>
</g>
<!-- SERVICE:discount&#45;&gt;SERVICE:tax -->
<g id="edge2" class="edge">
<title>SERVICE:discount&#45;&gt;SERVICE:tax</title>
<g id="a_edge2"><a xlink:title="edge#1">
<path fill="none" stroke="black" d="M336.81,-346C382.67,-346 463.18,-346 510.39,-346"/>
<polygon fill="black" stroke="black" points="510.13,-349.5 520.13,-346 510.13,-342.5 510.13,-349.5"/>
</a>
</g>
<text text-anchor="middle" x="413.38" y="-350.7" font-family="Times,serif" font-size="14.00">CALLS [rest] (sync)</text>
</g>
<!-- SERVICE:ops&#45;hub_split&#45;1 -->
<g id="node15" class="node">
<title>SERVICE:ops&#45;hub_split&#45;1</title>
<path fill="#eef6ff" stroke="black" d="M865,-117C865,-117 773.25,-117 773.25,-117 767.25,-117 761.25,-111 761.25,-105 761.25,-105 761.25,-93 761.25,-93 761.25,-87 767.25,-81 773.25,-81 773.25,-81 865,-81 865,-81 871,-81 877,-87 877,-93 877,-93 877,-105 877,-105 877,-111 871,-117 865,-117"/>
<text text-anchor="middle" x="819.12" y="-94.7" font-family="Times,serif" font-size="14.00">ops&#45;hub_split&#45;1</text>
</g>
<!-- SERVICE:ops&#45;hub_split&#45;1&#45;&gt;SERVICE:audit&#45;log -->
<g id="edge7" class="edge">
<title>SERVICE:ops&#45;hub_split&#45;1&#45;&gt;SERVICE:audit&#45;log</title>
<g id="a_edge7"><a xlink:title="edge#6">
<path fill="none" stroke="black" d="M877.17,-104.73C925.84,-109.61 995.02,-116.55 1040.95,-121.16"/>
<polygon fill="black" stroke="black" points="1040.58,-124.64 1050.88,-122.16 1041.28,-117.68 1040.58,-124.64"/>
</a>
</g>
<text text-anchor="middle" x="957.62" y="-123.7" font-family="Times,serif" font-size="14.00">CALLS [rest] (sync)</text>
</g>
<!-- SERVICE:ops&#45;hub_split&#45;1&#45;&gt;SERVICE:ops&#45;hub_split -->
<g id="edge14" class="edge">
<title>SERVICE:ops&#45;hub_split&#45;1&#45;&gt;SERVICE:ops&#45;hub_split</title>
<g id="a_edge14"><a xlink:title="edge#13">
<path fill="none" stroke="black" d="M877.25,-87.6C883.23,-86.62 889.23,-85.73 895,-85 938.73,-79.47 988.32,-76.2 1026.44,-74.32"/>
<polygon fill="black" stroke="black" points="1026.54,-77.82 1036.36,-73.85 1026.21,-70.83 1026.54,-77.82"/>
</a>
</g>
<text text-anchor="middle" x="957.62" y="-89.7" font-family="Times,serif" font-size="14.00">CALLS [rest] (async)</text>
</g>
<!-- SERVICE:ops&#45;hub_split&#45;2&#45;&gt;SERVICE:sms&#45;gateway -->
<g id="edge6" class="edge">
<title>SERVICE:ops&#45;hub_split&#45;2&#45;&gt;SERVICE:sms&#45;gateway</title>
<g id="a_edge6"><a xlink:title="edge#5">
<path fill="none" stroke="black" d="M607.75,-134.96C651.53,-138.72 711.54,-143.86 756.27,-147.7"/>
<polygon fill="black" stroke="black" points="755.81,-151.17 766.07,-148.54 756.41,-144.2 755.81,-151.17"/>
</a>
</g>
<text text-anchor="middle" x="684.38" y="-151.7" font-family="Times,serif" font-size="14.00">CALLS [rest] (sync)</text>
</g>
<!-- SERVICE:ops&#45;hub_split&#45;2&#45;&gt;SERVICE:ops&#45;hub_split&#45;1 -->
<g id="edge15" class="edge">
<title>SERVICE:ops&#45;hub_split&#45;2&#45;&gt;SERVICE:ops&#45;hub_split&#45;1</title>
<g id="a_edge15"><a xlink:title="edge#14">
<path fill="none" stroke="black" d="M607.98,-117.79C613.88,-116.75 619.8,-115.8 625.5,-115 666.61,-109.23 712.97,-105.31 749.9,-102.78"/>
<polygon fill="black" stroke="black" points="749.79,-106.3 759.53,-102.15 749.33,-99.31 749.79,-106.3"/>
</a>
</g>
<text text-anchor="middle" x="684.38" y="-119.7" font-family="Times,serif" font-size="14.00">CALLS [rest] (sync)</text>
</g>
<!-- SERVICE:metrics&#45;agent -->
<g id="node18" class="node">
<title>SERVICE:metrics&#45;agent</title>
<path fill="#eef6ff" stroke="black" d="M1682.5,-36C1682.5,-36 1599.75,-36 1599.75,-36 1593.75,-36 1587.75,-30 1587.75,-24 1587.75,-24 1587.75,-12 1587.75,-12 1587.75,-6 1593.75,0 1599.75,0 1599.75,0 1682.5,0 1682.5,0 1688.5,0 1694.5,-6 1694.5,-12 1694.5,-12 1694.5,-24 1694.5,-24 1694.5,-30 1688.5,-36 1682.5,-36"/>
<text text-anchor="middle" x="1641.12" y="-13.7" font-family="Times,serif" font-size="14.00">metrics&#45;agent</text>
</g>
<!-- SERVICE:user&#45;profile -->
<g id="node19" class="node">
<title>SERVICE:user&#45;profile</title>
<path fill="#eef6ff" stroke="black" d="M89.12,-202C89.12,-202 22.88,-202 22.88,-202 16.88,-202 10.88,-196 10.88,-190 10.88,-190 10.88,-178 10.88,-178 10.88,-172 16.88,-166 22.88,-166 22.88,-166 89.12,-166 89.12,-166 95.12,-166 101.12,-172 101.12,-178 101.12,-178 101.12,-190 101.12,-190 101.12,-196 95.12,-202 89.12,-202"/>
<text text-anchor="middle" x="56" y="-179.7" font-family="Times,serif" font-size="14.00">user&#45;profile</text>
</g>
<!-- SERVICE:user&#45;profile&#45;&gt;DATABASE:user&#45;db -->
<g id="edge11" class="edge">
<title>SERVICE:user&#45;profile&#45;&gt;DATABASE:user&#45;db</title>
<g id="a_edge11"><a xlink:title="edge#10">
<path fill="none" stroke="black" d="M101.59,-188.52C140.67,-193.18 198.72,-201.8 247.75,-216 251.01,-216.94 254.34,-218.03 257.66,-219.21"/>
<polygon fill="black" stroke="black" points="256.13,-222.37 266.72,-222.65 258.62,-215.83 256.13,-222.37"/>
</a>
</g>
<text text-anchor="middle" x="188.88" y="-220.7" font-family="Times,serif" font-size="14.00">CALLS [rest] (sync)</text>
</g>
<!-- SERVICE:ops&#45;hub_split_split&#45;&gt;SERVICE:report&#45;export -->
<g id="edge10" class="edge">
<title>SERVICE:ops&#45;hub_split_split&#45;&gt;SERVICE:report&#45;export</title>
<g id="a_edge10"><a xlink:title="edge#9">
<path fill="none" stroke="black" d="M1434.37,-51.74C1478.41,-56.08 1535.16,-61.67 1577.91,-65.87"/>
<polygon fill="black" stroke="black" points="1577.49,-69.35 1587.79,-66.85 1578.18,-62.38 1577.49,-69.35"/>
</a>
</g>
<text text-anchor="middle" x="1510.88" y="-69.7" font-family="Times,serif" font-size="14.00">CALLS [rest] (sync)</text>
</g>
<!-- SERVICE:ops&#45;hub_split_split&#45;&gt;SERVICE:metrics&#45;agent -->
<g id="edge9" class="edge">
<title>SERVICE:ops&#45;hub_split_split&#45;&gt;SERVICE:metrics&#45;agent</title>
<g id="a_edge9"><a xlink:title="edge#8">
<path fill="none" stroke="black" d="M1434.45,-34.17C1440.38,-33.38 1446.29,-32.64 1452,-32 1493.11,-27.37 1539.46,-23.9 1575.87,-21.58"/>
<polygon fill="black" stroke="black" points="1576.04,-25.07 1585.81,-20.96 1575.61,-18.09 1576.04,-25.07"/>
</a>
</g>
<text text-anchor="middle" x="1510.88" y="-36.7" font-family="Times,serif" font-size="14.00">CALLS [rest] (sync)</text>
</g>
</g>
</svg>
