<?xml version="1.0" encoding="UTF-8" standalone="no"?>
<!DOCTYPE svg PUBLIC "-//W3C//DTD SVG 1.1//EN"
 "http://www.w3.org/Graphics/SVG/1.1/DTD/svg11.dtd">
<!-- Generated by graphviz version 9.0.0 (20230911.1827)
 -->
<!-- Title: G Pages: 1 -->
<svg width="1064pt" height="286pt"
 viewBox="0.00 0.00 1064.00 286.00" xmlns="http://www.w3.org/2000/svg" xmlns:xlink="http://www.w3.org/1999/xlink">
<g id="graph0" class="graph" transform="scale(1 1) rotate(0) translate(4 282)">
<title>G</title>
<polygon fill="white" stroke="none" points="-4,4 -4,-282 1060,-282 1060,4 -4,4"/>
<text text-anchor="middle" x="528" y="-260.7" font-family="Helvetica,sans-Serif" font-size="14.00">Architecture</text>
<!-- SERVICE:payments -->
<g id="node1" class="node">
<title>SERVICE:payments</title>
<path fill="#eef6ff" stroke="black" d="M300.38,-252C300.38,-252 245.38,-252 245.38,-252 239.38,-252 233.38,-246 233.38,-240 233.38,-240 233.38,-228 233.38,-228 233.38,-222 239.38,-216 245.38,-216 245.38,-216 300.38,-216 300.38,-216 306.38,-216 312.38,-222 312.38,-228 312.38,-228 312.38,-240 312.38,-240 312.38,-246 306.38,-252 300.38,-252"/>
<text text-anchor="middle" x="272.88" y="-229.7" font-family="Times,serif" font-size="14.00">payments</text>
</g>
<!-- SERVICE:orders -->
<g id="node8" class="node">
<title>SERVICE:orders</title>
<path fill="#eef6ff" stroke="black" d="M533.75,-188C533.75,-188 500.5,-188 500.5,-188 494.5,-188 488.5,-182 488.5,-176 488.5,-176 488.5,-164 488.5,-164 488.5,-158 494.5,-152 500.5,-152 500.5,-152 533.75,-152 533.75,-152 539.75,-152 545.75,-158 545.75,-164 545.75,-164 545.75,-176 545.75,-176 545.75,-182 539.75,-188 533.75,-188"/>
<text text-anchor="middle" x="517.12" y="-165.7" font-family="Times,serif" font-size="14.00">orders</text>
</g>
<!-- SERVICE:payments&#45;&gt;SERVICE:orders -->
<g id="edge9" class="edge">
<title>SERVICE:payments&#45;&gt;SERVICE:orders</title>
<g id="a_edge9"><a xlink:title="edge#8">
<path fill="none" stroke="black" d="M312.81,-233.91C352.99,-232.56 416.77,-226.88 467.5,-206 474.26,-203.22 480.93,-199.29 487.07,-195.05"/>
<polygon fill="black" stroke="black" points="489.07,-197.92 495,-189.13 484.89,-192.31 489.07,-197.92"/>
</a>
</g>
<text text-anchor="middle" x="408.62" y="-235.7" font-family="Times,serif" font-size="14.00">CALLS [rest] (sync)</text>
</g>
<!-- SERVICE:inventory -->
<g id="node2" class="node">
<title>SERVICE:inventory</title>
<path fill="#eef6ff" stroke="black" d="M787.38,-188C787.38,-188 735.38,-188 735.38,-188 729.38,-188 723.38,-182 723.38,-176 723.38,-176 723.38,-164 723.38,-164 723.38,-158 729.38,-152 735.38,-152 735.38,-152 787.38,-152 787.38,-152 793.38,-152 799.38,-158 799.38,-164 799.38,-164 799.38,-176 799.38,-176 799.38,-182 793.38,-188 787.38,-188"/>
<text text-anchor="middle" x="761.38" y="-165.7" font-family="Times,serif" font-size="14.00">inventory</text>
</g>
<!-- DATABASE:shared&#45;db -->
<g id="node3" class="node">
<title>DATABASE:shared&#45;db</title>
<path fill="#fff3cd" stroke="black" d="M1056,-103.73C1056,-105.53 1037.62,-107 1015,-107 992.38,-107 974,-105.53 974,-103.73 974,-103.73 974,-74.27 974,-74.27 974,-72.47 992.38,-71 1015,-71 1037.62,-71 1056,-72.47 1056,-74.27 1056,-74.27 1056,-103.73 1056,-103.73"/>
<path fill="none" stroke="black" d="M1056,-103.73C1056,-101.92 1037.62,-100.45 1015,-100.45 992.38,-100.45 974,-101.92 974,-103.73"/>
<text text-anchor="middle" x="1015" y="-84.7" font-family="Times,serif" font-size="14.00">shared&#45;db</text>
</g>
<!-- SERVICE:inventory&#45;&gt;DATABASE:shared&#45;db -->
<g id="edge13" class="edge">
<title>SERVICE:inventory&#45;&gt;DATABASE:shared&#45;db</title>
<g id="a_edge13"><a xlink:title="edge#12">
<path fill="none" stroke="black" d="M799.78,-166.86C839.82,-162.46 904.52,-152.35 956,-130 965.45,-125.9 974.91,-120.11 983.37,-114.16"/>
<polygon fill="black" stroke="black" points="985.25,-117.13 991.22,-108.37 981.09,-111.49 985.25,-117.13"/>
</a>
</g>
<text text-anchor="middle" x="897.12" y="-165.7" font-family="Times,serif" font-size="14.00">CALLS [rest] (sync)</text>
</g>
<!-- SERVICE:web&#45;ui -->
<g id="node4" class="node">
<title>SERVICE:web&#45;ui</title>
<path fill="#eef6ff" stroke="black" d="M48.25,-144C48.25,-144 12,-144 12,-144 6,-144 0,-138 0,-132 0,-132 0,-120 0,-120 0,-114 6,-108 12,-108 12,-108 48.25,-108 48.25,-108 54.25,-108 60.25,-114 60.25,-120 60.25,-120 60.25,-132 60.25,-132 60.25,-138 54.25,-144 48.25,-144"/>
<text text-anchor="middle" x="30.12" y="-121.7" font-family="Times,serif" font-size="14.00">web&#45;ui</text>
</g>
<!-- SERVICE:web&#45;ui&#45;&gt;SERVICE:payments -->
<g id="edge5" class="edge">
<title>SERVICE:web&#45;ui&#45;&gt;SERVICE:payments</title>
<g id="a_edge5"><a xlink:title="edge#4">
<path fill="none" stroke="black" d="M40.67,-144.22C48.84,-158.02 61.86,-176.36 78.25,-187 121.52,-215.08 180.09,-226.39 221.44,-230.95"/>
<polygon fill="black" stroke="black" points="221.09,-234.43 231.38,-231.93 221.78,-227.46 221.09,-234.43"/>
</a>
</g>
<text text-anchor="middle" x="137.12" y="-231.7" font-family="Times,serif" font-size="14.00">CALLS [rest] (sync)</text>
</g>
<!-- SERVICE:auth -->
<g id="node5" class="node">
<title>SERVICE:auth</title>
<path fill="#eef6ff" stroke="black" d="M287.88,-198C287.88,-198 257.88,-198 257.88,-198 251.88,-198 245.88,-192 245.88,-186 245.88,-186 245.88,-174 245.88,-174 245.88,-168 251.88,-162 257.88,-162 257.88,-162 287.88,-162 287.88,-162 293.88,-162 299.88,-168 299.88,-174 299.88,-174 299.88,-186 299.88,-186 299.88,-192 293.88,-198 287.88,-198"/>
<text text-anchor="middle" x="272.88" y="-175.7" font-family="Times,serif" font-size="14.00">auth</text>
</g>
<!-- SERVICE:web&#45;ui&#45;&gt;SERVICE:auth -->
<g id="edge1" class="edge">
<title>SERVICE:web&#45;ui&#45;&gt;SERVICE:auth</title>
<g id="a_edge1"><a xlink:title="edge#0">
<path fill="none" stroke="black" d="M60.68,-135.2C66.48,-136.89 72.54,-138.56 78.25,-140 132.07,-153.53 195.13,-165.92 234.3,-173.22"/>
<polygon fill="black" stroke="black" points="233.45,-176.62 243.92,-175 234.72,-169.74 233.45,-176.62"/>
</a>
</g>
<text text-anchor="middle" x="137.12" y="-169.7" font-family="Times,serif" font-size="14.00">CALLS [rest] (sync)</text>
</g>
<!-- SERVICE:catalog -->
<g id="node6" class="node">
<title>SERVICE:catalog</title>
<path fill="#eef6ff" stroke="black" d="M536.75,-80C536.75,-80 497.5,-80 497.5,-80 491.5,-80 485.5,-74 485.5,-68 485.5,-68 485.5,-56 485.5,-56 485.5,-50 491.5,-44 497.5,-44 497.5,-44 536.75,-44 536.75,-44 542.75,-44 548.75,-50 548.75,-56 548.75,-56 548.75,-68 548.75,-68 548.75,-74 542.75,-80 536.75,-80"/>
<text text-anchor="middle" x="517.12" y="-57.7" font-family="Times,serif" font-size="14.00">catalog</text>
</g>
<!-- SERVICE:web&#45;ui&#45;&gt;SERVICE:catalog -->
<g id="edge2" class="edge">
<title>SERVICE:web&#45;ui&#45;&gt;SERVICE:catalog</title>
<g id="a_edge2"><a xlink:title="edge#1">
<path fill="none" stroke="black" d="M60.73,-122.09C143.46,-111.18 377.25,-80.33 473.71,-67.6"/>
<polygon fill="black" stroke="black" points="474.08,-71.08 483.54,-66.3 473.17,-64.14 474.08,-71.08"/>
</a>
</g>
<text text-anchor="middle" x="272.88" y="-105.7" font-family="Times,serif" font-size="14.00">CALLS [rest] (sync)</text>
</g>
<!-- SERVICE:cart -->
<g id="node7" class="node">
<title>SERVICE:cart</title>
<path fill="#eef6ff" stroke="black" d="M287.88,-36C287.88,-36 257.88,-36 257.88,-36 251.88,-36 245.88,-30 245.88,-24 245.88,-24 245.88,-12 245.88,-12 245.88,-6 251.88,0 257.88,0 257.88,0 287.88,0 287.88,0 293.88,0 299.88,-6 299.88,-12 299.88,-12 299.88,-24 299.88,-24 299.88,-30 293.88,-36 287.88,-36"/>
<text text-anchor="middle" x="272.88" y="-13.7" font-family="Times,serif" font-size="14.00">cart</text>
</g>
<!-- SERVICE:web&#45;ui&#45;&gt;SERVICE:cart -->
<g id="edge3" class="edge">
<title>SERVICE:web&#45;ui&#45;&gt;SERVICE:cart</title>
<g id="a_edge3"><a xlink:title="edge#2">
<path fill="none" stroke="black" d="M35.69,-107.79C41.78,-87.62 54.65,-55.85 78.25,-40 124.88,-8.69 192.45,-8.74 234.2,-12.64"/>
<polygon fill="black" stroke="black" points="233.69,-16.1 244,-13.69 234.43,-9.14 233.69,-16.1"/>
</a>
</g>
<text text-anchor="middle" x="137.12" y="-44.7" font-family="Times,serif" font-size="14.00">CALLS [rest] (sync)</text>
</g>
<!-- SERVICE:web&#45;ui&#45;&gt;SERVICE:orders -->
<g id="edge4" class="edge">
<title>SERVICE:web&#45;ui&#45;&gt;SERVICE:orders</title>
<g id="a_edge4"><a xlink:title="edge#3">
<path fill="none" stroke="black" d="M60.67,-125.35C114.68,-124.49 232.87,-124.2 331.75,-135 382.53,-140.54 440.26,-152.43 477.39,-160.8"/>
<polygon fill="black" stroke="black" points="476.22,-164.12 486.74,-162.94 477.78,-157.3 476.22,-164.12"/>
</a>
</g>
<text text-anchor="middle" x="272.88" y="-139.7" font-family="Times,serif" font-size="14.00">CALLS [rest] (sync)</text>
</g>
<!-- SERVICE:catalog&#45;&gt;DATABASE:shared&#45;db -->
<g id="edge10" class="edge">
<title>SERVICE:catalog&#45;&gt;DATABASE:shared&#45;db</title>
<g id="a_edge10"><a xlink:title="edge#9">
<path fill="none" stroke="black" d="M549.02,-63.22C603.71,-65.43 721.17,-70.38 820.25,-76 868.4,-78.73 923.23,-82.47 962.24,-85.24"/>
<polygon fill="black" stroke="black" points="961.83,-88.71 972.06,-85.93 962.33,-81.73 961.83,-88.71"/>
</a>
</g>
<text text-anchor="middle" x="761.38" y="-80.7" font-family="Times,serif" font-size="14.00">CALLS [rest] (sync)</text>
</g>
<!-- SERVICE:cart&#45;&gt;DATABASE:shared&#45;db -->
<g id="edge11" class="edge">
<title>SERVICE:cart&#45;&gt;DATABASE:shared&#45;db</title>
<g id="a_edge11"><a xlink:title="edge#10">
<path fill="none" stroke="black" d="M300.21,-17.48C337.49,-16.92 407.76,-16.53 467.5,-20 507.97,-22.35 951.76,-72.19 956,-73 958.15,-73.41 960.35,-73.87 962.55,-74.35"/>
<polygon fill="black" stroke="black" points="961.62,-77.73 972.16,-76.63 963.24,-70.92 961.62,-77.73"/>
</a>
</g>
<text text-anchor="middle" x="625.62" y="-47.7" font-family="Times,serif" font-size="14.00">CALLS [rest] (sync)</text>
</g>
<!-- SERVICE:cart&#45;&gt;SERVICE:catalog -->
<g id="edge6" class="edge">
<title>SERVICE:cart&#45;&gt;SERVICE:catalog</title>
<g id="a_edge6"><a xlink:title="edge#5">
<path fill="none" stroke="black" d="M300.36,-18.42C338.11,-19.59 409.28,-23.95 467.5,-40 469.77,-40.63 472.06,-41.34 474.36,-42.13"/>
<polygon fill="black" stroke="black" points="473,-45.36 483.6,-45.67 475.51,-38.82 473,-45.36"/>
</a>
</g>
<text text-anchor="middle" x="408.62" y="-44.7" font-family="Times,serif" font-size="14.00">CALLS [rest] (sync)</text>
</g>
<!-- SERVICE:orders&#45;&gt;SERVICE:payments -->
<g id="edge8" class="edge">
<title>SERVICE:orders&#45;&gt;SERVICE:payments</title>
<g id="a_edge8"><a xlink:title="edge#7">
<path fill="none" stroke="black" d="M488,-167.34C453.54,-165.32 394.26,-165.94 349.75,-188 339.33,-193.17 341.19,-200.2 331.75,-207 328.83,-209.11 325.71,-211.11 322.5,-213.01"/>
<polygon fill="black" stroke="black" points="321.11,-209.78 314.02,-217.65 324.47,-215.93 321.11,-209.78"/>
</a>
</g>
<text text-anchor="middle" x="408.62" y="-192.7" font-family="Times,serif" font-size="14.00">CALLS [rest] (sync)</text>
</g>
<!-- SERVICE:orders&#45;&gt;SERVICE:inventory -->
<g id="edge7" class="edge">
<title>SERVICE:orders&#45;&gt;SERVICE:inventory</title>
<g id="a_edge7"><a xlink:title="edge#6">
<path fill="none" stroke="black" d="M545.91,-170C586.3,-170 661.81,-170 711.59,-170"/>
<polygon fill="black" stroke="black" points="711.52,-173.5 721.52,-170 711.52,-166.5 711.52,-173.5"/>
</a>
</g>
<text text-anchor="middle" x="625.62" y="-174.7" font-family="Times,serif" font-size="14.00">CALLS [rest] (sync)</text>
</g>
<!-- SERVICE:orders&#45;&gt;DATABASE:shared&#45;db -->
<g id="edge12" class="edge">
<title>SERVICE:orders&#45;&gt;DATABASE:shared&#45;db</title>
<g id="a_edge12"><a xlink:title="edge#11">
<path fill="none" stroke="black" d="M546.01,-162.05C581.92,-152.07 646.39,-135.05 702.5,-125 751.11,-116.29 887.29,-101.85 962.49,-94.17"/>
<polygon fill="black" stroke="black" points="962.47,-97.69 972.06,-93.19 961.76,-90.72 962.47,-97.69"/>
</a>
</g>
<text text-anchor="middle" x="761.38" y="-129.7" font-family="Times,serif" font-size="14.00">CALLS [rest] (sync)</text>
</g>
</g>
</svg>
