<?xml version="1.0" encoding="UTF-8" standalone="no"?>
<!DOCTYPE svg PUBLIC "-//W3C//DTD SVG 1.1//EN"
 "http://www.w3.org/Graphics/SVG/1.1/DTD/svg11.dtd">
<!-- Generated by graphviz version 9.0.0 (20230911.1827)
 -->
<!-- Title: G Pages: 1 -->
<svg width="1112pt" height="523pt"
 viewBox="0.00 0.00 1111.75 523.05" xmlns="http://www.w3.org/2000/svg" xmlns:xlink="http://www.w3.org/1999/xlink">
<g id="graph0" class="graph" transform="scale(1 1) rotate(0) translate(4 519.05)">
<title>G</title>
<polygon fill="white" stroke="none" points="-4,4 -4,-519.05 1107.75,-519.05 1107.75,4 -4,4"/>
<text text-anchor="middle" x="551.88" y="-497.75" font-family="Helvetica,sans-Serif" font-size="14.00">Architecture</text>
<!-- SERVICE:order&#45;service -->
<g id="node1" class="node">
<title>SERVICE:order&#45;service</title>
<path fill="#eef6ff" stroke="black" d="M342.5,-277.05C342.5,-277.05 265.75,-277.05 265.75,-277.05 259.75,-277.05 253.75,-271.05 253.75,-265.05 253.75,-265.05 253.75,-253.05 253.75,-253.05 253.75,-247.05 259.75,-241.05 265.75,-241.05 265.75,-241.05 342.5,-241.05 342.5,-241.05 348.5,-241.05 354.5,-247.05 354.5,-253.05 354.5,-253.05 354.5,-265.05 354.5,-265.05 354.5,-271.05 348.5,-277.05 342.5,-277.05"/>
<text text-anchor="middle" x="304.12" y="-254.75" font-family="Times,serif" font-size="14.00">order&#45;service</text>
</g>
<!-- SERVICE:inventory&#45;service -->
<g id="node2" class="node">
<title>SERVICE:inventory&#45;service</title>
<path fill="#eef6ff" stroke="black" d="M633.75,-369.05C633.75,-369.05 531.5,-369.05 531.5,-369.05 525.5,-369.05 519.5,-363.05 519.5,-357.05 519.5,-357.05 519.5,-345.05 519.5,-345.05 519.5,-339.05 525.5,-333.05 531.5,-333.05 531.5,-333.05 633.75,-333.05 633.75,-333.05 639.75,-333.05 645.75,-339.05 645.75,-345.05 645.75,-345.05 645.75,-357.05 645.75,-357.05 645.75,-363.05 639.75,-369.05 633.75,-369.05"/>
<text text-anchor="middle" x="582.62" y="-346.75" font-family="Times,serif" font-size="14.00">inventory&#45;service</text>
</g>
<!-- SERVICE:order&#45;service&#45;&gt;SERVICE:inventory&#45;service -->
<g id="edge2" class="edge">
<title>SERVICE:order&#45;service&#45;&gt;SERVICE:inventory&#45;service</title>
<g id="a_edge2"><a xlink:title="edge#1">
<path fill="none" stroke="black" d="M315.29,-277.39C326.6,-295.8 346.74,-323.23 372.5,-336.05 414.05,-356.73 466.09,-360.53 507.87,-359.14"/>
<polygon fill="black" stroke="black" points="508.02,-362.64 517.85,-358.69 507.7,-355.64 508.02,-362.64"/>
</a>
</g>
<text text-anchor="middle" x="433.62" y="-363.75" font-family="Times,serif" font-size="14.00">calls (1 ep), 950rpm</text>
</g>
<!-- SERVICE:billing&#45;service -->
<g id="node3" class="node">
<title>SERVICE:billing&#45;service</title>
<path fill="#eef6ff" stroke="black" d="M904,-423.05C904,-423.05 822,-423.05 822,-423.05 816,-423.05 810,-417.05 810,-411.05 810,-411.05 810,-399.05 810,-399.05 810,-393.05 816,-387.05 822,-387.05 822,-387.05 904,-387.05 904,-387.05 910,-387.05 916,-393.05 916,-399.05 916,-399.05 916,-411.05 916,-411.05 916,-417.05 910,-423.05 904,-423.05"/>
<text text-anchor="middle" x="863" y="-400.75" font-family="Times,serif" font-size="14.00">billing&#45;service</text>
</g>
<!-- SERVICE:order&#45;service&#45;&gt;SERVICE:billing&#45;service -->
<g id="edge4" class="edge">
<title>SERVICE:order&#45;service&#45;&gt;SERVICE:billing&#45;service</title>
<g id="a_edge4"><a xlink:title="edge#3">
<path fill="none" stroke="black" d="M306.76,-277.53C310.89,-311.99 325.1,-385.6 372.5,-419.05 502.88,-511.08 705.24,-460.62 803.92,-427.15"/>
<polygon fill="black" stroke="black" points="804.84,-430.54 813.15,-423.97 802.55,-423.93 804.84,-430.54"/>
</a>
</g>
<text text-anchor="middle" x="582.62" y="-475.75" font-family="Times,serif" font-size="14.00">calls (1 ep), 360rpm</text>
</g>
<!-- SERVICE:user&#45;service -->
<g id="node4" class="node">
<title>SERVICE:user&#45;service</title>
<path fill="#eef6ff" stroke="black" d="M617.25,-99.05C617.25,-99.05 548,-99.05 548,-99.05 542,-99.05 536,-93.05 536,-87.05 536,-87.05 536,-75.05 536,-75.05 536,-69.05 542,-63.05 548,-63.05 548,-63.05 617.25,-63.05 617.25,-63.05 623.25,-63.05 629.25,-69.05 629.25,-75.05 629.25,-75.05 629.25,-87.05 629.25,-87.05 629.25,-93.05 623.25,-99.05 617.25,-99.05"/>
<text text-anchor="middle" x="582.62" y="-76.75" font-family="Times,serif" font-size="14.00">user&#45;service</text>
</g>
<!-- SERVICE:order&#45;service&#45;&gt;SERVICE:user&#45;service -->
<g id="edge3" class="edge">
<title>SERVICE:order&#45;service&#45;&gt;SERVICE:user&#45;service</title>
<g id="a_edge3"><a xlink:title="edge#2">
<path fill="none" stroke="black" d="M307.37,-240.59C312.46,-207.62 328.07,-138.96 372.5,-106.05 415.88,-73.92 478.79,-70.54 524.26,-73.43"/>
<polygon fill="black" stroke="black" points="523.97,-76.92 534.21,-74.2 524.51,-69.94 523.97,-76.92"/>
</a>
</g>
<text text-anchor="middle" x="433.62" y="-110.75" font-family="Times,serif" font-size="14.00">calls (1 ep), 260rpm</text>
</g>
<!-- SERVICE:notification&#45;service -->
<g id="node5" class="node">
<title>SERVICE:notification&#45;service</title>
<path fill="#eef6ff" stroke="black" d="M640.5,-315.05C640.5,-315.05 524.75,-315.05 524.75,-315.05 518.75,-315.05 512.75,-309.05 512.75,-303.05 512.75,-303.05 512.75,-291.05 512.75,-291.05 512.75,-285.05 518.75,-279.05 524.75,-279.05 524.75,-279.05 640.5,-279.05 640.5,-279.05 646.5,-279.05 652.5,-285.05 652.5,-291.05 652.5,-291.05 652.5,-303.05 652.5,-303.05 652.5,-309.05 646.5,-315.05 640.5,-315.05"/>
<text text-anchor="middle" x="582.62" y="-292.75" font-family="Times,serif" font-size="14.00">notification&#45;service</text>
</g>
<!-- SERVICE:order&#45;service&#45;&gt;SERVICE:notification&#45;service -->
<g id="edge5" class="edge">
<title>SERVICE:order&#45;service&#45;&gt;SERVICE:notification&#45;service</title>
<g id="a_edge5"><a xlink:title="edge#4">
<path fill="none" stroke="black" d="M354.86,-261.98C393.24,-264.67 447.58,-269.42 494.75,-277.05 496.93,-277.41 499.13,-277.78 501.35,-278.18"/>
<polygon fill="black" stroke="black" points="500.59,-281.59 511.07,-280.01 501.89,-274.71 500.59,-281.59"/>
</a>
</g>
<text text-anchor="middle" x="433.62" y="-281.75" font-family="Times,serif" font-size="14.00">calls (1 ep), 220rpm</text>
</g>
<!-- DATABASE:orders&#45;db -->
<g id="node6" class="node">
<title>DATABASE:orders&#45;db</title>
<path fill="#fff3cd" stroke="black" d="M902.88,-281.78C902.88,-283.59 885,-285.05 863,-285.05 841,-285.05 823.12,-283.59 823.12,-281.78 823.12,-281.78 823.12,-252.33 823.12,-252.33 823.12,-250.52 841,-249.05 863,-249.05 885,-249.05 902.88,-250.52 902.88,-252.33 902.88,-252.33 902.88,-281.78 902.88,-281.78"/>
<path fill="none" stroke="black" d="M902.88,-281.78C902.88,-279.97 885,-278.51 863,-278.51 841,-278.51 823.12,-279.97 823.12,-281.78"/>
<text text-anchor="middle" x="863" y="-262.75" font-family="Times,serif" font-size="14.00">orders&#45;db</text>
</g>
<!-- SERVICE:order&#45;service&#45;&gt;DATABASE:orders&#45;db -->
<g id="edge7" class="edge">
<title>SERVICE:order&#45;service&#45;&gt;DATABASE:orders&#45;db</title>
<g id="a_edge7"><a xlink:title="edge#6">
<path fill="none" stroke="black" d="M342.29,-240.63C351.96,-236.36 362.47,-232.17 372.5,-229.05 491.86,-191.99 528.05,-191.56 652.5,-203.05 715.3,-208.86 732.56,-207.97 792,-229.05 802.85,-232.9 814.05,-238.27 824.21,-243.75"/>
<polygon fill="black" stroke="black" points="822.24,-246.66 832.67,-248.49 825.66,-240.55 822.24,-246.66"/>
</a>
</g>
<text text-anchor="middle" x="582.62" y="-207.75" font-family="Times,serif" font-size="14.00">READS</text>
</g>
<!-- SERVICE:order&#45;service&#45;&gt;DATABASE:orders&#45;db -->
<g id="edge9" class="edge">
<title>SERVICE:order&#45;service&#45;&gt;DATABASE:orders&#45;db</title>
<g id="a_edge9"><a xlink:title="edge#8">
<path fill="none" stroke="black" d="M354.67,-255.82C442.83,-250.74 632.66,-242.86 792,-257.05 798.42,-257.63 805.16,-258.38 811.81,-259.23"/>
<polygon fill="black" stroke="black" points="810.96,-262.65 821.34,-260.51 811.9,-255.71 810.96,-262.65"/>
</a>
</g>
<text text-anchor="middle" x="582.62" y="-254.75" font-family="Times,serif" font-size="14.00">WRITES</text>
</g>
<!-- SERVICE:search&#45;service -->
<g id="node7" class="node">
<title>SERVICE:search&#45;service</title>
<path fill="#eef6ff" stroke="black" d="M624.75,-153.05C624.75,-153.05 540.5,-153.05 540.5,-153.05 534.5,-153.05 528.5,-147.05 528.5,-141.05 528.5,-141.05 528.5,-129.05 528.5,-129.05 528.5,-123.05 534.5,-117.05 540.5,-117.05 540.5,-117.05 624.75,-117.05 624.75,-117.05 630.75,-117.05 636.75,-123.05 636.75,-129.05 636.75,-129.05 636.75,-141.05 636.75,-141.05 636.75,-147.05 630.75,-153.05 624.75,-153.05"/>
<text text-anchor="middle" x="582.62" y="-130.75" font-family="Times,serif" font-size="14.00">search&#45;service</text>
</g>
<!-- SERVICE:order&#45;service&#45;&gt;SERVICE:search&#45;service -->
<g id="edge6" class="edge">
<title>SERVICE:order&#45;service&#45;&gt;SERVICE:search&#45;service</title>
<g id="a_edge6"><a xlink:title="edge#5">
<path fill="none" stroke="black" d="M311.56,-240.67C320.93,-216.92 340.76,-176.34 372.5,-157.05 415.6,-130.87 473.09,-126.54 516.88,-128.1"/>
<polygon fill="black" stroke="black" points="516.6,-131.59 526.76,-128.58 516.94,-124.6 516.6,-131.59"/>
</a>
</g>
<text text-anchor="middle" x="433.62" y="-161.75" font-family="Times,serif" font-size="14.00">calls (1 ep), 180rpm</text>
</g>
<!-- DATABASE:users&#45;db -->
<g id="node9" class="node">
<title>DATABASE:users&#45;db</title>
<path fill="#fff3cd" stroke="black" d="M899.12,-68.78C899.12,-70.59 882.93,-72.05 863,-72.05 843.07,-72.05 826.88,-70.59 826.88,-68.78 826.88,-68.78 826.88,-39.33 826.88,-39.33 826.88,-37.52 843.07,-36.05 863,-36.05 882.93,-36.05 899.12,-37.52 899.12,-39.33 899.12,-39.33 899.12,-68.78 899.12,-68.78"/>
<path fill="none" stroke="black" d="M899.12,-68.78C899.12,-66.97 882.93,-65.51 863,-65.51 843.07,-65.51 826.88,-66.97 826.88,-68.78"/>
<text text-anchor="middle" x="863" y="-49.75" font-family="Times,serif" font-size="14.00">users&#45;db</text>
</g>
<!-- SERVICE:order&#45;service&#45;&gt;DATABASE:users&#45;db -->
<g id="edge8" class="edge">
<title>SERVICE:order&#45;service&#45;&gt;DATABASE:users&#45;db</title>
<g id="a_edge8"><a xlink:title="edge#7">
<path fill="none" stroke="black" d="M306.03,-240.76C308.93,-202.77 321.15,-115.06 372.5,-69.05 497.22,42.69 719.76,-8.63 815.79,-38.25"/>
<polygon fill="black" stroke="black" points="814.56,-41.53 825.15,-41.19 816.66,-34.85 814.56,-41.53"/>
</a>
</g>
<text text-anchor="middle" x="582.62" y="-10.75" font-family="Times,serif" font-size="14.00">READS</text>
</g>
<!-- SERVICE:inventory&#45;service&#45;&gt;SERVICE:order&#45;service -->
<g id="edge10" class="edge">
<title>SERVICE:inventory&#45;service&#45;&gt;SERVICE:order&#45;service</title>
<g id="a_edge10"><a xlink:title="edge#9">
<path fill="none" stroke="black" d="M532.37,-332.67C525.72,-329.92 519.02,-327.01 512.75,-324.05 504.47,-320.15 503.41,-317.02 494.75,-314.05 442.74,-296.2 424.65,-312.48 372.5,-295.05 363,-291.88 353.23,-287.44 344.19,-282.76"/>
<polygon fill="black" stroke="black" points="346.13,-279.83 335.67,-278.15 342.8,-285.99 346.13,-279.83"/>
</a>
</g>
<text text-anchor="middle" x="433.62" y="-318.75" font-family="Times,serif" font-size="14.00">calls (1 ep), 820rpm</text>
</g>
<!-- SERVICE:inventory&#45;service&#45;&gt;SERVICE:billing&#45;service -->
<g id="edge11" class="edge">
<title>SERVICE:inventory&#45;service&#45;&gt;SERVICE:billing&#45;service</title>
<g id="a_edge11"><a xlink:title="edge#10">
<path fill="none" stroke="black" d="M646.14,-352.4C688.04,-354.57 744.1,-359.95 792,-373.05 800.33,-375.33 808.92,-378.5 817.11,-381.97"/>
<polygon fill="black" stroke="black" points="815.64,-385.14 826.2,-386.03 818.49,-378.75 815.64,-385.14"/>
</a>
</g>
<text text-anchor="middle" x="731.25" y="-377.75" font-family="Times,serif" font-size="14.00">calls (1 ep), 320rpm</text>
</g>
<!-- SERVICE:inventory&#45;service&#45;&gt;DATABASE:orders&#45;db -->
<g id="edge12" class="edge">
<title>SERVICE:inventory&#45;service&#45;&gt;DATABASE:orders&#45;db</title>
<g id="a_edge12"><a xlink:title="edge#11">
<path fill="none" stroke="black" d="M640.94,-332.66C645.09,-330.13 649.01,-327.28 652.5,-324.05 665.93,-311.64 655.52,-297.55 670.5,-287.05 711.54,-258.3 770.18,-256.37 811.74,-259.7"/>
<polygon fill="black" stroke="black" points="811.18,-263.16 821.47,-260.62 811.84,-256.19 811.18,-263.16"/>
</a>
</g>
<text text-anchor="middle" x="731.25" y="-291.75" font-family="Times,serif" font-size="14.00">READS</text>
</g>
<!-- SERVICE:inventory&#45;service&#45;&gt;DATABASE:orders&#45;db -->
<g id="edge13" class="edge">
<title>SERVICE:inventory&#45;service&#45;&gt;DATABASE:orders&#45;db</title>
<g id="a_edge13"><a xlink:title="edge#12">
<path fill="none" stroke="black" d="M646,-337.39C706.75,-324.07 790.24,-305.71 792,-305.05 802.58,-301.11 813.53,-295.81 823.54,-290.43"/>
<polygon fill="black" stroke="black" points="825.21,-293.5 832.25,-285.58 821.81,-287.39 825.21,-293.5"/>
</a>
</g>
<text text-anchor="middle" x="731.25" y="-335.75" font-family="Times,serif" font-size="14.00">WRITES</text>
</g>
<!-- SERVICE:billing&#45;service&#45;&gt;SERVICE:order&#45;service -->
<g id="edge14" class="edge">
<title>SERVICE:billing&#45;service&#45;&gt;SERVICE:order&#45;service</title>
<g id="a_edge14"><a xlink:title="edge#13">
<path fill="none" stroke="black" d="M809.85,-408.73C698.99,-415.56 444.15,-425.74 372.5,-381.05 339.33,-360.37 321.19,-317.2 312.33,-288.17"/>
<polygon fill="black" stroke="black" points="315.79,-287.56 309.69,-278.9 309.06,-289.47 315.79,-287.56"/>
</a>
</g>
<text text-anchor="middle" x="582.62" y="-418.75" font-family="Times,serif" font-size="14.00">calls (1 ep), 260rpm</text>
</g>
<!-- DATABASE:payments&#45;db -->
<g id="node8" class="node">
<title>DATABASE:payments&#45;db</title>
<path fill="#fff3cd" stroke="black" d="M1103.75,-418.78C1103.75,-420.59 1081,-422.05 1053,-422.05 1025,-422.05 1002.25,-420.59 1002.25,-418.78 1002.25,-418.78 1002.25,-389.33 1002.25,-389.33 1002.25,-387.52 1025,-386.05 1053,-386.05 1081,-386.05 1103.75,-387.52 1103.75,-389.33 1103.75,-389.33 1103.75,-418.78 1103.75,-418.78"/>
<path fill="none" stroke="black" d="M1103.75,-418.78C1103.75,-416.97 1081,-415.51 1053,-415.51 1025,-415.51 1002.25,-416.97 1002.25,-418.78"/>
<text text-anchor="middle" x="1053" y="-399.75" font-family="Times,serif" font-size="14.00">payments&#45;db</text>
</g>
<!-- SERVICE:billing&#45;service&#45;&gt;DATABASE:payments&#45;db -->
<g id="edge15" class="edge">
<title>SERVICE:billing&#45;service&#45;&gt;DATABASE:payments&#45;db</title>
<g id="a_edge15"><a xlink:title="edge#14">
<path fill="none" stroke="black" d="M916.37,-404.77C939.34,-404.65 966.46,-404.51 990.39,-404.38"/>
<polygon fill="black" stroke="black" points="990.36,-407.88 1000.34,-404.33 990.32,-400.88 990.36,-407.88"/>
</a>
</g>
<text text-anchor="middle" x="959.12" y="-408.75" font-family="Times,serif" font-size="14.00">READS</text>
</g>
<!-- SERVICE:billing&#45;service&#45;&gt;DATABASE:payments&#45;db -->
<g id="edge16" class="edge">
<title>SERVICE:billing&#45;service&#45;&gt;DATABASE:payments&#45;db</title>
<g id="a_edge16"><a xlink:title="edge#15">
<path fill="none" stroke="black" d="M913.61,-386.62C920.38,-384.74 927.31,-383.13 934,-382.05 956.05,-378.52 962.19,-378.56 984.25,-382.05 987.62,-382.59 991.06,-383.26 994.5,-384.04"/>
<polygon fill="black" stroke="black" points="993.43,-387.38 1003.99,-386.46 995.16,-380.6 993.43,-387.38"/>
</a>
</g>
<text text-anchor="middle" x="959.12" y="-386.75" font-family="Times,serif" font-size="14.00">WRITES</text>
</g>
<!-- SERVICE:user&#45;service&#45;&gt;DATABASE:users&#45;db -->
<g id="edge17" class="edge">
<title>SERVICE:user&#45;service&#45;&gt;DATABASE:users&#45;db</title>
<g id="a_edge17"><a xlink:title="edge#16">
<path fill="none" stroke="black" d="M629.59,-76.59C680.99,-71.61 763.77,-63.58 815.42,-58.57"/>
<polygon fill="black" stroke="black" points="815.45,-62.08 825.07,-57.64 814.78,-55.12 815.45,-62.08"/>
</a>
</g>
<text text-anchor="middle" x="731.25" y="-77.75" font-family="Times,serif" font-size="14.00">READS</text>
</g>
<!-- SERVICE:api&#45;gateway -->
<g id="node10" class="node">
<title>SERVICE:api&#45;gateway</title>
<path fill="#eef6ff" stroke="black" d="M83.5,-277.05C83.5,-277.05 12,-277.05 12,-277.05 6,-277.05 0,-271.05 0,-265.05 0,-265.05 0,-253.05 0,-253.05 0,-247.05 6,-241.05 12,-241.05 12,-241.05 83.5,-241.05 83.5,-241.05 89.5,-241.05 95.5,-247.05 95.5,-253.05 95.5,-253.05 95.5,-265.05 95.5,-265.05 95.5,-271.05 89.5,-277.05 83.5,-277.05"/>
<text text-anchor="middle" x="47.75" y="-254.75" font-family="Times,serif" font-size="14.00">api&#45;gateway</text>
</g>
<!-- SERVICE:api&#45;gateway&#45;&gt;SERVICE:order&#45;service -->
<g id="edge1" class="edge">
<title>SERVICE:api&#45;gateway&#45;&gt;SERVICE:order&#45;service</title>
<g id="a_edge1"><a xlink:title="edge#0">
<path fill="none" stroke="black" d="M96,-259.05C137.24,-259.05 197.33,-259.05 242.18,-259.05"/>
<polygon fill="black" stroke="black" points="242.01,-262.55 252.01,-259.05 242.01,-255.55 242.01,-262.55"/>
</a>
</g>
<text text-anchor="middle" x="174.62" y="-263.75" font-family="Times,serif" font-size="14.00">calls (1 ep), 300rpm</text>
</g>
</g>
</svg>
