<?xml version="1.0" encoding="UTF-8" standalone="no"?>
<!DOCTYPE svg PUBLIC "-//W3C//DTD SVG 1.1//EN"
 "http://www.w3.org/Graphics/SVG/1.1/DTD/svg11.dtd">
<!-- Generated by graphviz version 9.0.0 (20230911.1827)
 -->
<!-- Title: G Pages: 1 -->
<svg width="847pt" height="369pt"
 viewBox="0.00 0.00 847.00 369.00" xmlns="http://www.w3.org/2000/svg" xmlns:xlink="http://www.w3.org/1999/xlink">
<g id="graph0" class="graph" transform="scale(1 1) rotate(0) translate(4 365)">
<title>G</title>
<polygon fill="white" stroke="none" points="-4,4 -4,-365 843,-365 843,4 -4,4"/>
<text text-anchor="middle" x="419.5" y="-343.7" font-family="Helvetica,sans-Serif" font-size="14.00">Architecture</text>
<!-- SERVICE:auth -->
<g id="node1" class="node">
<title>SERVICE:auth</title>
<path fill="#eef6ff" stroke="black" d="M287.88,-335C287.88,-335 257.88,-335 257.88,-335 251.88,-335 245.88,-329 245.88,-323 245.88,-323 245.88,-311 245.88,-311 245.88,-305 251.88,-299 257.88,-299 257.88,-299 287.88,-299 287.88,-299 293.88,-299 299.88,-305 299.88,-311 299.88,-311 299.88,-323 299.88,-323 299.88,-329 293.88,-335 287.88,-335"/>
<text text-anchor="middle" x="272.88" y="-312.7" font-family="Times,serif" font-size="14.00">auth</text>
</g>
<!-- SERVICE:catalog -->
<g id="node2" class="node">
<title>SERVICE:catalog</title>
<path fill="#eef6ff" stroke="black" d="M564,-252C564,-252 524.75,-252 524.75,-252 518.75,-252 512.75,-246 512.75,-240 512.75,-240 512.75,-228 512.75,-228 512.75,-222 518.75,-216 524.75,-216 524.75,-216 564,-216 564,-216 570,-216 576,-222 576,-228 576,-228 576,-240 576,-240 576,-246 570,-252 564,-252"/>
<text text-anchor="middle" x="544.38" y="-229.7" font-family="Times,serif" font-size="14.00">catalog</text>
</g>
<!-- DATABASE:shared&#45;db -->
<g id="node7" class="node">
<title>DATABASE:shared&#45;db</title>
<path fill="#fff3cd" stroke="black" d="M839,-167.73C839,-169.53 820.62,-171 798,-171 775.38,-171 757,-169.53 757,-167.73 757,-167.73 757,-138.27 757,-138.27 757,-136.47 775.38,-135 798,-135 820.62,-135 839,-136.47 839,-138.27 839,-138.27 839,-167.73 839,-167.73"/>
<path fill="none" stroke="black" d="M839,-167.73C839,-165.92 820.62,-164.45 798,-164.45 775.38,-164.45 757,-165.92 757,-167.73"/>
<text text-anchor="middle" x="798" y="-148.7" font-family="Times,serif" font-size="14.00">shared&#45;db</text>
</g>
<!-- SERVICE:catalog&#45;&gt;DATABASE:shared&#45;db -->
<g id="edge10" class="edge">
<title>SERVICE:catalog&#45;&gt;DATABASE:shared&#45;db</title>
<g id="a_edge10"><a xlink:title="edge#9">
<path fill="none" stroke="black" d="M576.4,-231.53C615.65,-227.54 684.69,-217.58 739,-194 748.45,-189.9 757.91,-184.1 766.37,-178.16"/>
<polygon fill="black" stroke="black" points="768.25,-181.13 774.22,-172.37 764.09,-175.49 768.25,-181.13"/>
</a>
</g>
<text text-anchor="middle" x="680.12" y="-229.7" font-family="Times,serif" font-size="14.00">CALLS [rest] (sync)</text>
</g>
<!-- SERVICE:cart -->
<g id="node3" class="node">
<title>SERVICE:cart</title>
<path fill="#eef6ff" stroke="black" d="M287.88,-227C287.88,-227 257.88,-227 257.88,-227 251.88,-227 245.88,-221 245.88,-215 245.88,-215 245.88,-203 245.88,-203 245.88,-197 251.88,-191 257.88,-191 257.88,-191 287.88,-191 287.88,-191 293.88,-191 299.88,-197 299.88,-203 299.88,-203 299.88,-215 299.88,-215 299.88,-221 293.88,-227 287.88,-227"/>
<text text-anchor="middle" x="272.88" y="-204.7" font-family="Times,serif" font-size="14.00">cart</text>
</g>
<!-- SERVICE:cart&#45;&gt;SERVICE:catalog -->
<g id="edge6" class="edge">
<title>SERVICE:cart&#45;&gt;SERVICE:catalog</title>
<g id="a_edge6"><a xlink:title="edge#5">
<path fill="none" stroke="black" d="M300.21,-211.44C346.95,-215.78 444.78,-224.85 501.07,-230.07"/>
<polygon fill="black" stroke="black" points="500.63,-233.55 510.91,-230.99 501.27,-226.58 500.63,-233.55"/>
</a>
</g>
<text text-anchor="middle" x="408.62" y="-230.7" font-family="Times,serif" font-size="14.00">CALLS [rest] (sync)</text>
</g>
<!-- SERVICE:cart&#45;&gt;DATABASE:shared&#45;db -->
<g id="edge11" class="edge">
<title>SERVICE:cart&#45;&gt;DATABASE:shared&#45;db</title>
<g id="a_edge11"><a xlink:title="edge#10">
<path fill="none" stroke="black" d="M300.18,-206.18C382.34,-197.39 635.26,-170.31 745.14,-158.55"/>
<polygon fill="black" stroke="black" points="745.49,-162.03 755.06,-157.49 744.75,-155.07 745.49,-162.03"/>
</a>
</g>
<text text-anchor="middle" x="544.38" y="-189.7" font-family="Times,serif" font-size="14.00">CALLS [rest] (sync)</text>
</g>
<!-- SERVICE:orders -->
<g id="node4" class="node">
<title>SERVICE:orders</title>
<path fill="#eef6ff" stroke="black" d="M289.5,-99C289.5,-99 256.25,-99 256.25,-99 250.25,-99 244.25,-93 244.25,-87 244.25,-87 244.25,-75 244.25,-75 244.25,-69 250.25,-63 256.25,-63 256.25,-63 289.5,-63 289.5,-63 295.5,-63 301.5,-69 301.5,-75 301.5,-75 301.5,-87 301.5,-87 301.5,-93 295.5,-99 289.5,-99"/>
<text text-anchor="middle" x="272.88" y="-76.7" font-family="Times,serif" font-size="14.00">orders</text>
</g>
<!-- SERVICE:payments -->
<g id="node5" class="node">
<title>SERVICE:payments</title>
<path fill="#eef6ff" stroke="black" d="M571.88,-140C571.88,-140 516.88,-140 516.88,-140 510.88,-140 504.88,-134 504.88,-128 504.88,-128 504.88,-116 504.88,-116 504.88,-110 510.88,-104 516.88,-104 516.88,-104 571.88,-104 571.88,-104 577.88,-104 583.88,-110 583.88,-116 583.88,-116 583.88,-128 583.88,-128 583.88,-134 577.88,-140 571.88,-140"/>
<text text-anchor="middle" x="544.38" y="-117.7" font-family="Times,serif" font-size="14.00">payments</text>
</g>
<!-- SERVICE:orders&#45;&gt;SERVICE:payments -->
<g id="edge8" class="edge">
<title>SERVICE:orders&#45;&gt;SERVICE:payments</title>
<g id="a_edge8"><a xlink:title="edge#7">
<path fill="none" stroke="black" d="M301.97,-77.02C340.11,-72.55 410.11,-67.64 467.5,-82 468.5,-82.25 482.89,-89.8 498.88,-98.27"/>
<polygon fill="black" stroke="black" points="497.12,-101.3 507.59,-102.9 500.4,-95.12 497.12,-101.3"/>
</a>
</g>
<text text-anchor="middle" x="408.62" y="-86.7" font-family="Times,serif" font-size="14.00">CALLS [rest] (sync)</text>
</g>
<!-- SERVICE:inventory -->
<g id="node6" class="node">
<title>SERVICE:inventory</title>
<path fill="#eef6ff" stroke="black" d="M570.38,-82C570.38,-82 518.38,-82 518.38,-82 512.38,-82 506.38,-76 506.38,-70 506.38,-70 506.38,-58 506.38,-58 506.38,-52 512.38,-46 518.38,-46 518.38,-46 570.38,-46 570.38,-46 576.38,-46 582.38,-52 582.38,-58 582.38,-58 582.38,-70 582.38,-70 582.38,-76 576.38,-82 570.38,-82"/>
<text text-anchor="middle" x="544.38" y="-59.7" font-family="Times,serif" font-size="14.00">inventory</text>
</g>
<!-- SERVICE:orders&#45;&gt;SERVICE:inventory -->
<g id="edge7" class="edge">
<title>SERVICE:orders&#45;&gt;SERVICE:inventory</title>
<g id="a_edge7"><a xlink:title="edge#6">
<path fill="none" stroke="black" d="M301.03,-62.55C314.94,-54.2 332.55,-45.26 349.75,-41 400.55,-28.43 415.73,-33.33 467.5,-41 476.6,-42.35 486.12,-44.56 495.22,-47.09"/>
<polygon fill="black" stroke="black" points="494.02,-50.39 504.6,-49.87 496.01,-43.68 494.02,-50.39"/>
</a>
</g>
<text text-anchor="middle" x="408.62" y="-45.7" font-family="Times,serif" font-size="14.00">CALLS [rest] (sync)</text>
</g>
<!-- SERVICE:orders&#45;&gt;DATABASE:shared&#45;db -->
<g id="edge12" class="edge">
<title>SERVICE:orders&#45;&gt;DATABASE:shared&#45;db</title>
<g id="a_edge12"><a xlink:title="edge#11">
<path fill="none" stroke="black" d="M294.83,-62.58C309.23,-51.07 329.37,-37.12 349.75,-30 456.2,7.22 493.58,7.27 603.25,-19 669.07,-34.77 685.38,-46.7 739,-88 753.08,-98.84 766.45,-113.42 776.8,-126.03"/>
<polygon fill="black" stroke="black" points="773.86,-127.95 782.82,-133.59 779.33,-123.59 773.86,-127.95"/>
</a>
</g>
<text text-anchor="middle" x="544.38" y="-23.7" font-family="Times,serif" font-size="14.00">CALLS [rest] (sync)</text>
</g>
<!-- SERVICE:payments&#45;&gt;SERVICE:orders -->
<g id="edge9" class="edge">
<title>SERVICE:payments&#45;&gt;SERVICE:orders</title>
<g id="a_edge9"><a xlink:title="edge#8">
<path fill="none" stroke="black" d="M504.58,-119.11C465.33,-115.83 403.01,-109.65 349.75,-100 337.6,-97.8 324.51,-94.76 312.67,-91.76"/>
<polygon fill="black" stroke="black" points="313.81,-88.44 303.25,-89.31 312.05,-95.22 313.81,-88.44"/>
</a>
</g>
<text text-anchor="middle" x="408.62" y="-119.7" font-family="Times,serif" font-size="14.00">CALLS [rest] (sync)</text>
</g>
<!-- SERVICE:inventory&#45;&gt;DATABASE:shared&#45;db -->
<g id="edge13" class="edge">
<title>SERVICE:inventory&#45;&gt;DATABASE:shared&#45;db</title>
<g id="a_edge13"><a xlink:title="edge#12">
<path fill="none" stroke="black" d="M582.77,-77.23C626.18,-92.58 697.96,-117.97 746.34,-135.08"/>
<polygon fill="black" stroke="black" points="744.87,-138.28 755.47,-138.31 747.21,-131.68 744.87,-138.28"/>
</a>
</g>
<text text-anchor="middle" x="680.12" y="-135.7" font-family="Times,serif" font-size="14.00">CALLS [rest] (sync)</text>
</g>
<!-- SERVICE:web&#45;ui -->
<g id="node8" class="node">
<title>SERVICE:web&#45;ui</title>
<path fill="#eef6ff" stroke="black" d="M48.25,-227C48.25,-227 12,-227 12,-227 6,-227 0,-221 0,-215 0,-215 0,-203 0,-203 0,-197 6,-191 12,-191 12,-191 48.25,-191 48.25,-191 54.25,-191 60.25,-197 60.25,-203 60.25,-203 60.25,-215 60.25,-215 60.25,-221 54.25,-227 48.25,-227"/>
<text text-anchor="middle" x="30.12" y="-204.7" font-family="Times,serif" font-size="14.00">web&#45;ui</text>
</g>
<!-- SERVICE:web&#45;ui&#45;&gt;SERVICE:auth -->
<g id="edge1" class="edge">
<title>SERVICE:web&#45;ui&#45;&gt;SERVICE:auth</title>
<g id="a_edge1"><a xlink:title="edge#0">
<path fill="none" stroke="black" d="M38.97,-227.28C46.67,-242.96 59.92,-264.88 78.25,-277 125.55,-308.28 192.43,-315.84 233.92,-317.28"/>
<polygon fill="black" stroke="black" points="233.84,-320.78 243.91,-317.5 234,-313.78 233.84,-320.78"/>
</a>
</g>
<text text-anchor="middle" x="137.12" y="-318.7" font-family="Times,serif" font-size="14.00">CALLS [rest] (sync)</text>
</g>
<!-- SERVICE:web&#45;ui&#45;&gt;SERVICE:catalog -->
<g id="edge2" class="edge">
<title>SERVICE:web&#45;ui&#45;&gt;SERVICE:catalog</title>
<g id="a_edge2"><a xlink:title="edge#1">
<path fill="none" stroke="black" d="M60.67,-224.82C66.37,-227.29 72.39,-229.5 78.25,-231 246.05,-273.78 295.06,-263.78 467.5,-248 478.59,-246.99 490.48,-245.15 501.47,-243.14"/>
<polygon fill="black" stroke="black" points="501.9,-246.62 511.06,-241.29 500.57,-239.75 501.9,-246.62"/>
</a>
</g>
<text text-anchor="middle" x="272.88" y="-265.7" font-family="Times,serif" font-size="14.00">CALLS [rest] (sync)</text>
</g>
<!-- SERVICE:web&#45;ui&#45;&gt;SERVICE:cart -->
<g id="edge3" class="edge">
<title>SERVICE:web&#45;ui&#45;&gt;SERVICE:cart</title>
<g id="a_edge3"><a xlink:title="edge#2">
<path fill="none" stroke="black" d="M60.65,-209C104.28,-209 186.01,-209 234,-209"/>
<polygon fill="black" stroke="black" points="233.92,-212.5 243.92,-209 233.92,-205.5 233.92,-212.5"/>
</a>
</g>
<text text-anchor="middle" x="137.12" y="-213.7" font-family="Times,serif" font-size="14.00">CALLS [rest] (sync)</text>
</g>
<!-- SERVICE:web&#45;ui&#45;&gt;SERVICE:orders -->
<g id="edge4" class="edge">
<title>SERVICE:web&#45;ui&#45;&gt;SERVICE:orders</title>
<g id="a_edge4"><a xlink:title="edge#3">
<path fill="none" stroke="black" d="M36.11,-190.86C42.51,-171.05 55.61,-139.91 78.25,-123 123.49,-89.2 190.34,-81.48 232.48,-80.29"/>
<polygon fill="black" stroke="black" points="232.47,-83.79 242.41,-80.13 232.36,-76.79 232.47,-83.79"/>
</a>
</g>
<text text-anchor="middle" x="137.12" y="-127.7" font-family="Times,serif" font-size="14.00">CALLS [rest] (sync)</text>
</g>
<!-- SERVICE:web&#45;ui&#45;&gt;SERVICE:payments -->
<g id="edge5" class="edge">
<title>SERVICE:web&#45;ui&#45;&gt;SERVICE:payments</title>
<g id="a_edge5"><a xlink:title="edge#4">
<path fill="none" stroke="black" d="M60.64,-200.43C96.57,-190.3 159.25,-173.61 214,-164 325.6,-144.42 355.48,-154 467.5,-137 475.9,-135.72 484.78,-134.16 493.4,-132.54"/>
<polygon fill="black" stroke="black" points="493.87,-136.01 503.02,-130.66 492.53,-129.14 493.87,-136.01"/>
</a>
</g>
<text text-anchor="middle" x="272.88" y="-168.7" font-family="Times,serif" font-size="14.00">CALLS [rest] (sync)</text>
</g>
</g>
</svg>
