<?xml version="1.0" encoding="UTF-8" standalone="no"?>
<!DOCTYPE svg PUBLIC "-//W3C//DTD SVG 1.1//EN"
 "http://www.w3.org/Graphics/SVG/1.1/DTD/svg11.dtd">
<!-- Generated by graphviz version 9.0.0 (20230911.1827)
 -->
<!-- Title: G Pages: 1 -->
<svg width="821pt" height="141pt"
 viewBox="0.00 0.00 821.25 141.00" xmlns="http://www.w3.org/2000/svg" xmlns:xlink="http://www.w3.org/1999/xlink">
<g id="graph0" class="graph" transform="scale(1 1) rotate(0) translate(4 137)">
<title>G</title>
<polygon fill="white" stroke="none" points="-4,4 -4,-137 817.25,-137 817.25,4 -4,4"/>
<text text-anchor="middle" x="406.62" y="-115.7" font-family="Helvetica,sans-Serif" font-size="14.00">Architecture</text>
<!-- SERVICE:user&#45;service -->
<g id="node1" class="node">
<title>SERVICE:user&#45;service</title>
<path fill="#eef6ff" stroke="black" d="M333.88,-90C333.88,-90 264.62,-90 264.62,-90 258.62,-90 252.62,-84 252.62,-78 252.62,-78 252.62,-66 252.62,-66 252.62,-60 258.62,-54 264.62,-54 264.62,-54 333.88,-54 333.88,-54 339.88,-54 345.88,-60 345.88,-66 345.88,-66 345.88,-78 345.88,-78 345.88,-84 339.88,-90 333.88,-90"/>
<text text-anchor="middle" x="299.25" y="-67.7" font-family="Times,serif" font-size="14.00">user&#45;service</text>
</g>
<!-- SERVICE:auth&#45;service -->
<g id="node2" class="node">
<title>SERVICE:auth&#45;service</title>
<path fill="#eef6ff" stroke="black" d="M599.62,-90C599.62,-90 528.88,-90 528.88,-90 522.88,-90 516.88,-84 516.88,-78 516.88,-78 516.88,-66 516.88,-66 516.88,-60 522.88,-54 528.88,-54 528.88,-54 599.62,-54 599.62,-54 605.62,-54 611.62,-60 611.62,-66 611.62,-66 611.62,-78 611.62,-78 611.62,-84 605.62,-90 599.62,-90"/>
<text text-anchor="middle" x="564.25" y="-67.7" font-family="Times,serif" font-size="14.00">auth&#45;service</text>
</g>
<!-- SERVICE:user&#45;service&#45;&gt;SERVICE:auth&#45;service -->
<g id="edge3" class="edge">
<title>SERVICE:user&#45;service&#45;&gt;SERVICE:auth&#45;service</title>
<g id="a_edge3"><a xlink:title="edge#2">
<path fill="none" stroke="black" d="M346.36,-72C390.59,-72 457.53,-72 505.34,-72"/>
<polygon fill="black" stroke="black" points="505.23,-75.5 515.23,-72 505.23,-68.5 505.23,-75.5"/>
</a>
</g>
<text text-anchor="middle" x="427.62" y="-76.7" font-family="Times,serif" font-size="14.00">calls (1 ep), 60rpm</text>
</g>
<!-- DATABASE:users&#45;db -->
<g id="node5" class="node">
<title>DATABASE:users&#45;db</title>
<path fill="#fff3cd" stroke="black" d="M798.62,-103.73C798.62,-105.53 782.43,-107 762.5,-107 742.57,-107 726.38,-105.53 726.38,-103.73 726.38,-103.73 726.38,-74.27 726.38,-74.27 726.38,-72.47 742.57,-71 762.5,-71 782.43,-71 798.62,-72.47 798.62,-74.27 798.62,-74.27 798.62,-103.73 798.62,-103.73"/>
<path fill="none" stroke="black" d="M798.62,-103.73C798.62,-101.92 782.43,-100.45 762.5,-100.45 742.57,-100.45 726.38,-101.92 726.38,-103.73"/>
<text text-anchor="middle" x="762.5" y="-84.7" font-family="Times,serif" font-size="14.00">users&#45;db</text>
</g>
<!-- SERVICE:auth&#45;service&#45;&gt;DATABASE:users&#45;db -->
<g id="edge4" class="edge">
<title>SERVICE:auth&#45;service&#45;&gt;DATABASE:users&#45;db</title>
<g id="a_edge4"><a xlink:title="edge#3">
<path fill="none" stroke="black" d="M611.9,-80.01C622.28,-81.55 633.24,-83 643.5,-84 666.94,-86.29 693.1,-87.53 714.82,-88.2"/>
<polygon fill="black" stroke="black" points="714.45,-91.69 724.55,-88.47 714.65,-84.7 714.45,-91.69"/>
</a>
</g>
<text text-anchor="middle" x="668.62" y="-91.7" font-family="Times,serif" font-size="14.00">READS</text>
</g>
<!-- SERVICE:auth&#45;service&#45;&gt;DATABASE:users&#45;db -->
<g id="edge5" class="edge">
<title>SERVICE:auth&#45;service&#45;&gt;DATABASE:users&#45;db</title>
<g id="a_edge5"><a xlink:title="edge#4">
<path fill="none" stroke="black" d="M611.98,-62.42C636.5,-58.88 666.94,-56.85 693.75,-62 701.02,-63.39 708.5,-65.56 715.71,-68.07"/>
<polygon fill="black" stroke="black" points="714.39,-71.31 724.98,-71.56 716.86,-64.76 714.39,-71.31"/>
</a>
</g>
<text text-anchor="middle" x="668.62" y="-66.7" font-family="Times,serif" font-size="14.00">WRITES</text>
</g>
<!-- SERVICE:billing&#45;service -->
<g id="node3" class="node">
<title>SERVICE:billing&#45;service</title>
<path fill="#eef6ff" stroke="black" d="M340.25,-36C340.25,-36 258.25,-36 258.25,-36 252.25,-36 246.25,-30 246.25,-24 246.25,-24 246.25,-12 246.25,-12 246.25,-6 252.25,0 258.25,0 258.25,0 340.25,0 340.25,0 346.25,0 352.25,-6 352.25,-12 352.25,-12 352.25,-24 352.25,-24 352.25,-30 346.25,-36 340.25,-36"/>
<text text-anchor="middle" x="299.25" y="-13.7" font-family="Times,serif" font-size="14.00">billing&#45;service</text>
</g>
<!-- SERVICE:payment&#45;service -->
<g id="node4" class="node">
<title>SERVICE:payment&#45;service</title>
<path fill="#eef6ff" stroke="black" d="M613.5,-36C613.5,-36 515,-36 515,-36 509,-36 503,-30 503,-24 503,-24 503,-12 503,-12 503,-6 509,0 515,0 515,0 613.5,0 613.5,0 619.5,0 625.5,-6 625.5,-12 625.5,-12 625.5,-24 625.5,-24 625.5,-30 619.5,-36 613.5,-36"/>
<text text-anchor="middle" x="564.25" y="-13.7" font-family="Times,serif" font-size="14.00">payment&#45;service</text>
</g>
<!-- SERVICE:billing&#45;service&#45;&gt;SERVICE:payment&#45;service -->
<g id="edge6" class="edge">
<title>SERVICE:billing&#45;service&#45;&gt;SERVICE:payment&#45;service</title>
<g id="a_edge6"><a xlink:title="edge#5">
<path fill="none" stroke="black" d="M352.52,-18C392.27,-18 447.4,-18 491.3,-18"/>
<polygon fill="black" stroke="black" points="491.27,-21.5 501.27,-18 491.27,-14.5 491.27,-21.5"/>
</a>
</g>
<text text-anchor="middle" x="427.62" y="-22.7" font-family="Times,serif" font-size="14.00">calls (1 ep), 50rpm</text>
</g>
<!-- DATABASE:payments&#45;db -->
<g id="node6" class="node">
<title>DATABASE:payments&#45;db</title>
<path fill="#fff3cd" stroke="black" d="M813.25,-32.73C813.25,-34.53 790.5,-36 762.5,-36 734.5,-36 711.75,-34.53 711.75,-32.73 711.75,-32.73 711.75,-3.27 711.75,-3.27 711.75,-1.47 734.5,0 762.5,0 790.5,0 813.25,-1.47 813.25,-3.27 813.25,-3.27 813.25,-32.73 813.25,-32.73"/>
<path fill="none" stroke="black" d="M813.25,-32.73C813.25,-30.92 790.5,-29.45 762.5,-29.45 734.5,-29.45 711.75,-30.92 711.75,-32.73"/>
<text text-anchor="middle" x="762.5" y="-13.7" font-family="Times,serif" font-size="14.00">payments&#45;db</text>
</g>
<!-- SERVICE:payment&#45;service&#45;&gt;DATABASE:payments&#45;db -->
<g id="edge7" class="edge">
<title>SERVICE:payment&#45;service&#45;&gt;DATABASE:payments&#45;db</title>
<g id="a_edge7"><a xlink:title="edge#6">
<path fill="none" stroke="black" d="M625.73,-18C649.35,-18 676.39,-18 700.1,-18"/>
<polygon fill="black" stroke="black" points="699.92,-21.5 709.92,-18 699.92,-14.5 699.92,-21.5"/>
</a>
</g>
<text text-anchor="middle" x="668.62" y="-22.7" font-family="Times,serif" font-size="14.00">WRITES</text>
</g>
<!-- SERVICE:api&#45;gateway -->
<g id="node7" class="node">
<title>SERVICE:api&#45;gateway</title>
<path fill="#eef6ff" stroke="black" d="M83.5,-62C83.5,-62 12,-62 12,-62 6,-62 0,-56 0,-50 0,-50 0,-38 0,-38 0,-32 6,-26 12,-26 12,-26 83.5,-26 83.5,-26 89.5,-26 95.5,-32 95.5,-38 95.5,-38 95.5,-50 95.5,-50 95.5,-56 89.5,-62 83.5,-62"/>
<text text-anchor="middle" x="47.75" y="-39.7" font-family="Times,serif" font-size="14.00">api&#45;gateway</text>
</g>
<!-- SERVICE:api&#45;gateway&#45;&gt;SERVICE:user&#45;service -->
<g id="edge1" class="edge">
<title>SERVICE:api&#45;gateway&#45;&gt;SERVICE:user&#45;service</title>
<g id="a_edge1"><a xlink:title="edge#0">
<path fill="none" stroke="black" d="M95.97,-49.3C137.21,-53.93 197.18,-60.66 241.12,-65.59"/>
<polygon fill="black" stroke="black" points="240.65,-69.06 250.98,-66.7 241.43,-62.1 240.65,-69.06"/>
</a>
</g>
<text text-anchor="middle" x="170.88" y="-67.7" font-family="Times,serif" font-size="14.00">calls (1 ep), 60rpm</text>
</g>
<!-- SERVICE:api&#45;gateway&#45;&gt;SERVICE:billing&#45;service -->
<g id="edge2" class="edge">
<title>SERVICE:api&#45;gateway&#45;&gt;SERVICE:billing&#45;service</title>
<g id="a_edge2"><a xlink:title="edge#1">
<path fill="none" stroke="black" d="M95.93,-31.25C101.81,-29.99 107.77,-28.85 113.5,-28 153.49,-22.03 198.82,-19.51 234.57,-18.5"/>
<polygon fill="black" stroke="black" points="234.4,-22 244.31,-18.26 234.23,-15.01 234.4,-22"/>
</a>
</g>
<text text-anchor="middle" x="170.88" y="-32.7" font-family="Times,serif" font-size="14.00">calls (1 ep), 30rpm</text>
</g>
</g>
</svg>
