<?xml version="1.0" encoding="UTF-8" standalone="no"?>
<!DOCTYPE svg PUBLIC "-//W3C//DTD SVG 1.1//EN"
 "http://www.w3.org/Graphics/SVG/1.1/DTD/svg11.dtd">
<!-- Generated by graphviz version 9.0.0 (20230911.1827)
 -->
<!-- Title: G Pages: 1 -->
<svg width="1069pt" height="439pt"
 viewBox="0.00 0.00 1069.25 439.00" xmlns="http://www.w3.org/2000/svg" xmlns:xlink="http://www.w3.org/1999/xlink">
<g id="graph0" class="graph" transform="scale(1 1) rotate(0) translate(4 435)">
<title>G</title>
<polygon fill="white" stroke="none" points="-4,4 -4,-435 1065.25,-435 1065.25,4 -4,4"/>
<text text-anchor="middle" x="530.62" y="-413.7" font-family="Helvetica,sans-Serif" font-size="14.00">Architecture</text>
<!-- DATABASE:payments&#45;db -->
<g id="node1" class="node">
<title>DATABASE:payments&#45;db</title>
<path fill="#fff3cd" stroke="black" d="M371.62,-144.73C371.62,-146.53 348.88,-148 320.88,-148 292.87,-148 270.12,-146.53 270.12,-144.73 270.12,-144.73 270.12,-115.27 270.12,-115.27 270.12,-113.47 292.87,-112 320.88,-112 348.88,-112 371.62,-113.47 371.62,-115.27 371.62,-115.27 371.62,-144.73 371.62,-144.73"/>
<path fill="none" stroke="black" d="M371.62,-144.73C371.62,-142.92 348.88,-141.45 320.88,-141.45 292.87,-141.45 270.12,-142.92 270.12,-144.73"/>
<text text-anchor="middle" x="320.88" y="-125.7" font-family="Times,serif" font-size="14.00">payments&#45;db</text>
</g>
<!-- DATABASE:orders&#45;db_order&#45;service -->
<g id="node2" class="node">
<title>DATABASE:orders&#45;db_order&#45;service</title>
<path fill="#fff3cd" stroke="black" d="M707,-401.73C707,-403.53 668.62,-405 621.38,-405 574.13,-405 535.75,-403.53 535.75,-401.73 535.75,-401.73 535.75,-372.27 535.75,-372.27 535.75,-370.47 574.13,-369 621.38,-369 668.62,-369 707,-370.47 707,-372.27 707,-372.27 707,-401.73 707,-401.73"/>
<path fill="none" stroke="black" d="M707,-401.73C707,-399.92 668.62,-398.45 621.38,-398.45 574.13,-398.45 535.75,-399.92 535.75,-401.73"/>
<text text-anchor="middle" x="621.38" y="-382.7" font-family="Times,serif" font-size="14.00">orders&#45;db_order&#45;service</text>
</g>
<!-- SERVICE:api&#45;gateway -->
<g id="node3" class="node">
<title>SERVICE:api&#45;gateway</title>
<path fill="#eef6ff" stroke="black" d="M88.75,-242C88.75,-242 17.25,-242 17.25,-242 11.25,-242 5.25,-236 5.25,-230 5.25,-230 5.25,-218 5.25,-218 5.25,-212 11.25,-206 17.25,-206 17.25,-206 88.75,-206 88.75,-206 94.75,-206 100.75,-212 100.75,-218 100.75,-218 100.75,-230 100.75,-230 100.75,-236 94.75,-242 88.75,-242"/>
<text text-anchor="middle" x="53" y="-219.7" font-family="Times,serif" font-size="14.00">api&#45;gateway</text>
</g>
<!-- SERVICE:order&#45;service -->
<g id="node4" class="node">
<title>SERVICE:order&#45;service</title>
<path fill="#eef6ff" stroke="black" d="M359.25,-242C359.25,-242 282.5,-242 282.5,-242 276.5,-242 270.5,-236 270.5,-230 270.5,-230 270.5,-218 270.5,-218 270.5,-212 276.5,-206 282.5,-206 282.5,-206 359.25,-206 359.25,-206 365.25,-206 371.25,-212 371.25,-218 371.25,-218 371.25,-230 371.25,-230 371.25,-236 365.25,-242 359.25,-242"/>
<text text-anchor="middle" x="320.88" y="-219.7" font-family="Times,serif" font-size="14.00">order&#45;service</text>
</g>
<!-- SERVICE:api&#45;gateway&#45;&gt;SERVICE:order&#45;service -->
<g id="edge1" class="edge">
<title>SERVICE:api&#45;gateway&#45;&gt;SERVICE:order&#45;service</title>
<g id="a_edge1"><a xlink:title="edge#0">
<path fill="none" stroke="black" d="M101.23,-224C145.2,-224 210.99,-224 258.92,-224"/>
<polygon fill="black" stroke="black" points="258.87,-227.5 268.87,-224 258.87,-220.5 258.87,-227.5"/>
</a>
</g>
<text text-anchor="middle" x="185.12" y="-228.7" font-family="Times,serif" font-size="14.00">calls (1 ep), 30rpm</text>
</g>
<!-- SERVICE:order&#45;service&#45;&gt;DATABASE:orders&#45;db_order&#45;service -->
<g id="edge8" class="edge">
<title>SERVICE:order&#45;service&#45;&gt;DATABASE:orders&#45;db_order&#45;service</title>
<g id="a_edge8"><a xlink:title="edge#7">
<path fill="none" stroke="black" d="M327.43,-242.44C336.73,-269.97 358.21,-321.29 395.5,-347 432.81,-372.73 481.62,-383.46 524.24,-387.45"/>
<polygon fill="black" stroke="black" points="523.74,-390.92 533.99,-388.24 524.31,-383.94 523.74,-390.92"/>
</a>
</g>
<text text-anchor="middle" x="456.62" y="-390.7" font-family="Times,serif" font-size="14.00">WRITES</text>
</g>
<!-- SERVICE:search&#45;service -->
<g id="node6" class="node">
<title>SERVICE:search&#45;service</title>
<path fill="#eef6ff" stroke="black" d="M1005,-329C1005,-329 920.75,-329 920.75,-329 914.75,-329 908.75,-323 908.75,-317 908.75,-317 908.75,-305 908.75,-305 908.75,-299 914.75,-293 920.75,-293 920.75,-293 1005,-293 1005,-293 1011,-293 1017,-299 1017,-305 1017,-305 1017,-317 1017,-317 1017,-323 1011,-329 1005,-329"/>
<text text-anchor="middle" x="962.88" y="-306.7" font-family="Times,serif" font-size="14.00">search&#45;service</text>
</g>
<!-- SERVICE:order&#45;service&#45;&gt;SERVICE:search&#45;service -->
<g id="edge6" class="edge">
<title>SERVICE:order&#45;service&#45;&gt;SERVICE:search&#45;service</title>
<g id="a_edge6"><a xlink:title="edge#5">
<path fill="none" stroke="black" d="M339.45,-242.49C353.35,-255.93 373.95,-273.4 395.5,-283 563.78,-357.96 788.67,-338.29 897.49,-322.29"/>
<polygon fill="black" stroke="black" points="897.74,-325.79 907.11,-320.83 896.69,-318.87 897.74,-325.79"/>
</a>
</g>
<text text-anchor="middle" x="621.38" y="-341.7" font-family="Times,serif" font-size="14.00">calls (1 ep), 180rpm</text>
</g>
<!-- DATABASE:users&#45;db -->
<g id="node8" class="node">
<title>DATABASE:users&#45;db</title>
<path fill="#fff3cd" stroke="black" d="M999,-165.73C999,-167.53 982.81,-169 962.88,-169 942.94,-169 926.75,-167.53 926.75,-165.73 926.75,-165.73 926.75,-136.27 926.75,-136.27 926.75,-134.47 942.94,-133 962.88,-133 982.81,-133 999,-134.47 999,-136.27 999,-136.27 999,-165.73 999,-165.73"/>
<path fill="none" stroke="black" d="M999,-165.73C999,-163.92 982.81,-162.45 962.88,-162.45 942.94,-162.45 926.75,-163.92 926.75,-165.73"/>
<text text-anchor="middle" x="962.88" y="-146.7" font-family="Times,serif" font-size="14.00">users&#45;db</text>
</g>
<!-- SERVICE:order&#45;service&#45;&gt;DATABASE:users&#45;db -->
<g id="edge7" class="edge">
<title>SERVICE:order&#45;service&#45;&gt;DATABASE:users&#45;db</title>
<g id="a_edge7"><a xlink:title="edge#6">
<path fill="none" stroke="black" d="M371.56,-218.33C491.95,-204.6 797.96,-169.7 915.19,-156.32"/>
<polygon fill="black" stroke="black" points="915.55,-159.81 925.09,-155.2 914.75,-152.85 915.55,-159.81"/>
</a>
</g>
<text text-anchor="middle" x="621.38" y="-203.7" font-family="Times,serif" font-size="14.00">READS</text>
</g>
<!-- SERVICE:inventory&#45;service -->
<g id="node10" class="node">
<title>SERVICE:inventory&#45;service</title>
<path fill="#eef6ff" stroke="black" d="M672.5,-81C672.5,-81 570.25,-81 570.25,-81 564.25,-81 558.25,-75 558.25,-69 558.25,-69 558.25,-57 558.25,-57 558.25,-51 564.25,-45 570.25,-45 570.25,-45 672.5,-45 672.5,-45 678.5,-45 684.5,-51 684.5,-57 684.5,-57 684.5,-69 684.5,-69 684.5,-75 678.5,-81 672.5,-81"/>
<text text-anchor="middle" x="621.38" y="-58.7" font-family="Times,serif" font-size="14.00">inventory&#45;service</text>
</g>
<!-- SERVICE:order&#45;service&#45;&gt;SERVICE:inventory&#45;service -->
<g id="edge2" class="edge">
<title>SERVICE:order&#45;service&#45;&gt;SERVICE:inventory&#45;service</title>
<g id="a_edge2"><a xlink:title="edge#1">
<path fill="none" stroke="black" d="M340.62,-205.55C352.61,-192.85 367.7,-175.07 377.5,-157 390.37,-133.27 375.11,-116.68 395.5,-99 401.32,-93.95 483.44,-81.7 546.78,-72.89"/>
<polygon fill="black" stroke="black" points="547.03,-76.39 556.46,-71.55 546.08,-69.46 547.03,-76.39"/>
</a>
</g>
<text text-anchor="middle" x="456.62" y="-103.7" font-family="Times,serif" font-size="14.00">calls (1 ep), 95rpm</text>
</g>
<!-- SERVICE:user&#45;service -->
<g id="node11" class="node">
<title>SERVICE:user&#45;service</title>
<path fill="#eef6ff" stroke="black" d="M656,-135C656,-135 586.75,-135 586.75,-135 580.75,-135 574.75,-129 574.75,-123 574.75,-123 574.75,-111 574.75,-111 574.75,-105 580.75,-99 586.75,-99 586.75,-99 656,-99 656,-99 662,-99 668,-105 668,-111 668,-111 668,-123 668,-123 668,-129 662,-135 656,-135"/>
<text text-anchor="middle" x="621.38" y="-112.7" font-family="Times,serif" font-size="14.00">user&#45;service</text>
</g>
<!-- SERVICE:order&#45;service&#45;&gt;SERVICE:user&#45;service -->
<g id="edge3" class="edge">
<title>SERVICE:order&#45;service&#45;&gt;SERVICE:user&#45;service</title>
<g id="a_edge3"><a xlink:title="edge#2">
<path fill="none" stroke="black" d="M337.14,-205.69C357.55,-181.31 391.64,-141 395.5,-139 423.7,-124.42 506.13,-119.48 562.94,-117.82"/>
<polygon fill="black" stroke="black" points="562.88,-121.32 572.78,-117.56 562.69,-114.33 562.88,-121.32"/>
</a>
</g>
<text text-anchor="middle" x="456.62" y="-143.7" font-family="Times,serif" font-size="14.00">calls (1 ep), 260rpm</text>
</g>
<!-- SERVICE:notification&#45;service -->
<g id="node12" class="node">
<title>SERVICE:notification&#45;service</title>
<path fill="#eef6ff" stroke="black" d="M1020.75,-265C1020.75,-265 905,-265 905,-265 899,-265 893,-259 893,-253 893,-253 893,-241 893,-241 893,-235 899,-229 905,-229 905,-229 1020.75,-229 1020.75,-229 1026.75,-229 1032.75,-235 1032.75,-241 1032.75,-241 1032.75,-253 1032.75,-253 1032.75,-259 1026.75,-265 1020.75,-265"/>
<text text-anchor="middle" x="962.88" y="-242.7" font-family="Times,serif" font-size="14.00">notification&#45;service</text>
</g>
<!-- SERVICE:order&#45;service&#45;&gt;SERVICE:notification&#45;service -->
<g id="edge5" class="edge">
<title>SERVICE:order&#45;service&#45;&gt;SERVICE:notification&#45;service</title>
<g id="a_edge5"><a xlink:title="edge#4">
<path fill="none" stroke="black" d="M371.74,-224.9C445.17,-226.31 586.7,-229.37 707,-234 765.33,-236.24 831.12,-239.62 881.25,-242.37"/>
<polygon fill="black" stroke="black" points="880.97,-245.86 891.15,-242.92 881.36,-238.87 880.97,-245.86"/>
</a>
</g>
<text text-anchor="middle" x="621.38" y="-238.7" font-family="Times,serif" font-size="14.00">calls (1 ep), 220rpm</text>
</g>
<!-- SERVICE:order&#45;service_split -->
<g id="node13" class="node">
<title>SERVICE:order&#45;service_split</title>
<path fill="#eef6ff" stroke="black" d="M677,-297C677,-297 565.75,-297 565.75,-297 559.75,-297 553.75,-291 553.75,-285 553.75,-285 553.75,-273 553.75,-273 553.75,-267 559.75,-261 565.75,-261 565.75,-261 677,-261 677,-261 683,-261 689,-267 689,-273 689,-273 689,-285 689,-285 689,-291 683,-297 677,-297"/>
<text text-anchor="middle" x="621.38" y="-274.7" font-family="Times,serif" font-size="14.00">order&#45;service_split</text>
</g>
<!-- SERVICE:order&#45;service&#45;&gt;SERVICE:order&#45;service_split -->
<g id="edge4" class="edge">
<title>SERVICE:order&#45;service&#45;&gt;SERVICE:order&#45;service_split</title>
<g id="a_edge4"><a xlink:title="edge#3">
<path fill="none" stroke="black" d="M371.74,-234.34C379.68,-235.93 387.81,-237.53 395.5,-239 444.13,-248.28 498.81,-258.02 542.07,-265.57"/>
<polygon fill="black" stroke="black" points="541.44,-269.01 551.89,-267.27 542.64,-262.11 541.44,-269.01"/>
</a>
</g>
<text text-anchor="middle" x="456.62" y="-265.7" font-family="Times,serif" font-size="14.00">calls (1 ep), 30rpm</text>
</g>
<!-- SERVICE:billing&#45;service -->
<g id="node5" class="node">
<title>SERVICE:billing&#45;service</title>
<path fill="#eef6ff" stroke="black" d="M94,-137C94,-137 12,-137 12,-137 6,-137 0,-131 0,-125 0,-125 0,-113 0,-113 0,-107 6,-101 12,-101 12,-101 94,-101 94,-101 100,-101 106,-107 106,-113 106,-113 106,-125 106,-125 106,-131 100,-137 94,-137"/>
<text text-anchor="middle" x="53" y="-114.7" font-family="Times,serif" font-size="14.00">billing&#45;service</text>
</g>
<!-- SERVICE:billing&#45;service&#45;&gt;DATABASE:payments&#45;db -->
<g id="edge13" class="edge">
<title>SERVICE:billing&#45;service&#45;&gt;DATABASE:payments&#45;db</title>
<g id="a_edge13"><a xlink:title="edge#12">
<path fill="none" stroke="black" d="M106.44,-103.17C112.32,-101.87 118.26,-100.77 124,-100 177.86,-92.82 192.93,-89.55 246.25,-100 255.3,-101.77 264.65,-104.67 273.51,-107.97"/>
<polygon fill="black" stroke="black" points="272.04,-111.15 282.63,-111.6 274.63,-104.65 272.04,-111.15"/>
</a>
</g>
<text text-anchor="middle" x="185.12" y="-104.7" font-family="Times,serif" font-size="14.00">READS</text>
</g>
<!-- SERVICE:billing&#45;service&#45;&gt;DATABASE:payments&#45;db -->
<g id="edge14" class="edge">
<title>SERVICE:billing&#45;service&#45;&gt;DATABASE:payments&#45;db</title>
<g id="a_edge14"><a xlink:title="edge#13">
<path fill="none" stroke="black" d="M106.21,-121.16C149.99,-122.97 212.56,-125.56 258.68,-127.47"/>
<polygon fill="black" stroke="black" points="258.38,-130.96 268.52,-127.88 258.67,-123.96 258.38,-130.96"/>
</a>
</g>
<text text-anchor="middle" x="185.12" y="-131.7" font-family="Times,serif" font-size="14.00">WRITES</text>
</g>
<!-- SERVICE:billing&#45;service&#45;&gt;SERVICE:order&#45;service -->
<g id="edge12" class="edge">
<title>SERVICE:billing&#45;service&#45;&gt;SERVICE:order&#45;service</title>
<g id="a_edge12"><a xlink:title="edge#11">
<path fill="none" stroke="black" d="M96.09,-137.35C105.26,-141.26 114.93,-145.32 124,-149 169.19,-167.33 220.7,-187 259.55,-201.6"/>
<polygon fill="black" stroke="black" points="258.15,-204.81 268.74,-205.05 260.6,-198.26 258.15,-204.81"/>
</a>
</g>
<text text-anchor="middle" x="185.12" y="-200.7" font-family="Times,serif" font-size="14.00">calls (1 ep), 260rpm</text>
</g>
<!-- DATABASE:orders&#45;db -->
<g id="node7" class="node">
<title>DATABASE:orders&#45;db</title>
<path fill="#fff3cd" stroke="black" d="M1002.75,-86.73C1002.75,-88.53 984.88,-90 962.88,-90 940.87,-90 923,-88.53 923,-86.73 923,-86.73 923,-57.27 923,-57.27 923,-55.47 940.87,-54 962.88,-54 984.88,-54 1002.75,-55.47 1002.75,-57.27 1002.75,-57.27 1002.75,-86.73 1002.75,-86.73"/>
<path fill="none" stroke="black" d="M1002.75,-86.73C1002.75,-84.92 984.88,-83.45 962.88,-83.45 940.87,-83.45 923,-84.92 923,-86.73"/>
<text text-anchor="middle" x="962.88" y="-67.7" font-family="Times,serif" font-size="14.00">orders&#45;db</text>
</g>
<!-- DATABASE:orders&#45;db_inventory&#45;service -->
<g id="node9" class="node">
<title>DATABASE:orders&#45;db_inventory&#45;service</title>
<path fill="#fff3cd" stroke="black" d="M1061.25,-32.73C1061.25,-34.53 1017.16,-36 962.88,-36 908.59,-36 864.5,-34.53 864.5,-32.73 864.5,-32.73 864.5,-3.27 864.5,-3.27 864.5,-1.47 908.59,0 962.88,0 1017.16,0 1061.25,-1.47 1061.25,-3.27 1061.25,-3.27 1061.25,-32.73 1061.25,-32.73"/>
<path fill="none" stroke="black" d="M1061.25,-32.73C1061.25,-30.92 1017.16,-29.45 962.88,-29.45 908.59,-29.45 864.5,-30.92 864.5,-32.73"/>
<text text-anchor="middle" x="962.88" y="-13.7" font-family="Times,serif" font-size="14.00">orders&#45;db_inventory&#45;service</text>
</g>
<!-- SERVICE:inventory&#45;service&#45;&gt;SERVICE:billing&#45;service -->
<g id="edge9" class="edge">
<title>SERVICE:inventory&#45;service&#45;&gt;SERVICE:billing&#45;service</title>
<g id="a_edge9"><a xlink:title="edge#8">
<path fill="none" stroke="black" d="M557.93,-59.72C462.92,-56.22 276.95,-55.23 124,-90 116.84,-91.63 109.48,-93.92 102.35,-96.52"/>
<polygon fill="black" stroke="black" points="101.21,-93.2 93.16,-100.09 103.74,-99.73 101.21,-93.2"/>
</a>
</g>
<text text-anchor="middle" x="320.88" y="-72.7" font-family="Times,serif" font-size="14.00">calls (1 ep), 32rpm</text>
</g>
<!-- SERVICE:inventory&#45;service&#45;&gt;DATABASE:orders&#45;db -->
<g id="edge10" class="edge">
<title>SERVICE:inventory&#45;service&#45;&gt;DATABASE:orders&#45;db</title>
<g id="a_edge10"><a xlink:title="edge#9">
<path fill="none" stroke="black" d="M684.64,-64.65C749.93,-66.38 851.23,-69.07 911.62,-70.67"/>
<polygon fill="black" stroke="black" points="911.16,-74.16 921.25,-70.92 911.34,-67.16 911.16,-74.16"/>
</a>
</g>
<text text-anchor="middle" x="785.75" y="-73.7" font-family="Times,serif" font-size="14.00">READS</text>
</g>
<!-- SERVICE:inventory&#45;service&#45;&gt;DATABASE:orders&#45;db_inventory&#45;service -->
<g id="edge11" class="edge">
<title>SERVICE:inventory&#45;service&#45;&gt;DATABASE:orders&#45;db_inventory&#45;service</title>
<g id="a_edge11"><a xlink:title="edge#10">
<path fill="none" stroke="black" d="M684.94,-50.66C698.14,-48.27 712,-45.91 725,-44 766.71,-37.86 812.76,-32.49 853.07,-28.24"/>
<polygon fill="black" stroke="black" points="853.19,-31.75 862.78,-27.23 852.47,-24.79 853.19,-31.75"/>
</a>
</g>
<text text-anchor="middle" x="785.75" y="-48.7" font-family="Times,serif" font-size="14.00">WRITES</text>
</g>
<!-- SERVICE:user&#45;service&#45;&gt;DATABASE:users&#45;db -->
<g id="edge15" class="edge">
<title>SERVICE:user&#45;service&#45;&gt;DATABASE:users&#45;db</title>
<g id="a_edge15"><a xlink:title="edge#14">
<path fill="none" stroke="black" d="M668.31,-121.43C713.62,-125.82 784.84,-132.77 846.5,-139 869.07,-141.28 894.11,-143.88 915.09,-146.07"/>
<polygon fill="black" stroke="black" points="914.46,-149.53 924.77,-147.09 915.19,-142.56 914.46,-149.53"/>
</a>
</g>
<text text-anchor="middle" x="785.75" y="-143.7" font-family="Times,serif" font-size="14.00">READS</text>
</g>
<!-- SERVICE:order&#45;service_split&#45;&gt;SERVICE:search&#45;service -->
<g id="edge17" class="edge">
<title>SERVICE:order&#45;service_split&#45;&gt;SERVICE:search&#45;service</title>
<g id="a_edge17"><a xlink:title="edge#16">
<path fill="none" stroke="black" d="M689.45,-285.32C749.72,-291 837.66,-299.29 897.19,-304.9"/>
<polygon fill="black" stroke="black" points="896.53,-308.36 906.82,-305.81 897.19,-301.39 896.53,-308.36"/>
</a>
</g>
<text text-anchor="middle" x="785.75" y="-303.7" font-family="Times,serif" font-size="14.00">calls (1 ep), 180rpm</text>
</g>
<!-- SERVICE:order&#45;service_split&#45;&gt;SERVICE:notification&#45;service -->
<g id="edge16" class="edge">
<title>SERVICE:order&#45;service_split&#45;&gt;SERVICE:notification&#45;service</title>
<g id="a_edge16"><a xlink:title="edge#15">
<path fill="none" stroke="black" d="M689.26,-265.34C701.12,-263.28 713.4,-261.39 725,-260 776.84,-253.8 835.42,-250.56 881.35,-248.86"/>
<polygon fill="black" stroke="black" points="881.36,-252.36 891.23,-248.51 881.11,-245.36 881.36,-252.36"/>
</a>
</g>
<text text-anchor="middle" x="785.75" y="-264.7" font-family="Times,serif" font-size="14.00">calls (1 ep), 220rpm</text>
</g>
</g>
</svg>
