<?xml version="1.0" encoding="UTF-8" standalone="no"?>
<!DOCTYPE svg PUBLIC "-//W3C//DTD SVG 1.1//EN"
 "http://www.w3.org/Graphics/SVG/1.1/DTD/svg11.dtd">
<!-- Generated by graphviz version 9.0.0 (20230911.1827)
 -->
<!-- Title: G Pages: 1 -->
<svg width="854pt" height="153pt"
 viewBox="0.00 0.00 853.75 153.00" xmlns="http://www.w3.org/2000/svg" xmlns:xlink="http://www.w3.org/1999/xlink">
<g id="graph0" class="graph" transform="scale(1 1) rotate(0) translate(4 149)">
<title>G</title>
<polygon fill="white" stroke="none" points="-4,4 -4,-149 849.75,-149 849.75,4 -4,4"/>
<text text-anchor="middle" x="422.88" y="-127.7" font-family="Helvetica,sans-Serif" font-size="14.00">Architecture</text>
<!-- SERVICE:profile -->
<g id="node1" class="node">
<title>SERVICE:profile</title>
<path fill="#eef6ff" stroke="black" d="M283.25,-79C283.25,-79 250,-79 250,-79 244,-79 238,-73 238,-67 238,-67 238,-55 238,-55 238,-49 244,-43 250,-43 250,-43 283.25,-43 283.25,-43 289.25,-43 295.25,-49 295.25,-55 295.25,-55 295.25,-67 295.25,-67 295.25,-73 289.25,-79 283.25,-79"/>
<text text-anchor="middle" x="266.62" y="-56.7" font-family="Times,serif" font-size="14.00">profile</text>
</g>
<!-- SERVICE:recommendations -->
<g id="node2" class="node">
<title>SERVICE:recommendations</title>
<path fill="#eef6ff" stroke="black" d="M600.25,-58C600.25,-58 491.25,-58 491.25,-58 485.25,-58 479.25,-52 479.25,-46 479.25,-46 479.25,-34 479.25,-34 479.25,-28 485.25,-22 491.25,-22 491.25,-22 600.25,-22 600.25,-22 606.25,-22 612.25,-28 612.25,-34 612.25,-34 612.25,-46 612.25,-46 612.25,-52 606.25,-58 600.25,-58"/>
<text text-anchor="middle" x="545.75" y="-35.7" font-family="Times,serif" font-size="14.00">recommendations</text>
</g>
<!-- SERVICE:profile&#45;&gt;SERVICE:recommendations -->
<g id="edge4" class="edge">
<title>SERVICE:profile&#45;&gt;SERVICE:recommendations</title>
<g id="a_edge4"><a xlink:title="edge#3">
<path fill="none" stroke="black" d="M295.55,-59.67C333.21,-57.78 402.35,-54 461.25,-49 463.43,-48.82 465.64,-48.62 467.87,-48.42"/>
<polygon fill="black" stroke="black" points="468.01,-51.92 477.63,-47.5 467.35,-44.95 468.01,-51.92"/>
</a>
</g>
<text text-anchor="middle" x="402.38" y="-60.7" font-family="Times,serif" font-size="14.00">CALLS [rest] (sync)</text>
</g>
<!-- DATABASE:profile&#45;db -->
<g id="node3" class="node">
<title>DATABASE:profile&#45;db</title>
<path fill="#fff3cd" stroke="black" d="M845.75,-91.73C845.75,-93.53 827.88,-95 805.88,-95 783.87,-95 766,-93.53 766,-91.73 766,-91.73 766,-62.27 766,-62.27 766,-60.47 783.87,-59 805.88,-59 827.88,-59 845.75,-60.47 845.75,-62.27 845.75,-62.27 845.75,-91.73 845.75,-91.73"/>
<path fill="none" stroke="black" d="M845.75,-91.73C845.75,-89.92 827.88,-88.45 805.88,-88.45 783.87,-88.45 766,-89.92 766,-91.73"/>
<text text-anchor="middle" x="805.88" y="-72.7" font-family="Times,serif" font-size="14.00">profile&#45;db</text>
</g>
<!-- SERVICE:profile&#45;&gt;DATABASE:profile&#45;db -->
<g id="edge5" class="edge">
<title>SERVICE:profile&#45;&gt;DATABASE:profile&#45;db</title>
<g id="a_edge5"><a xlink:title="edge#4">
<path fill="none" stroke="black" d="M295.52,-68.5C309.76,-72.01 327.44,-75.88 343.5,-78 521.81,-101.52 569.28,-110.17 748,-90 750.06,-89.77 752.16,-89.49 754.27,-89.17"/>
<polygon fill="black" stroke="black" points="754.87,-92.62 764.11,-87.44 753.66,-85.73 754.87,-92.62"/>
</a>
</g>
<text text-anchor="middle" x="545.75" y="-105.7" font-family="Times,serif" font-size="14.00">CALLS [rest] (sync)</text>
</g>
<!-- SERVICE:recommendations&#45;&gt;SERVICE:profile -->
<g id="edge3" class="edge">
<title>SERVICE:recommendations&#45;&gt;SERVICE:profile</title>
<g id="a_edge3"><a xlink:title="edge#2">
<path fill="none" stroke="black" d="M478.94,-29.42C439.36,-24.94 388.16,-22.49 343.5,-31 330.93,-33.4 317.78,-37.84 306.03,-42.58"/>
<polygon fill="black" stroke="black" points="304.91,-39.25 297.08,-46.38 307.65,-45.69 304.91,-39.25"/>
</a>
</g>
<text text-anchor="middle" x="402.38" y="-35.7" font-family="Times,serif" font-size="14.00">CALLS [rest] (sync)</text>
</g>
<!-- SERVICE:recommendations&#45;&gt;DATABASE:profile&#45;db -->
<g id="edge6" class="edge">
<title>SERVICE:recommendations&#45;&gt;DATABASE:profile&#45;db</title>
<g id="a_edge6"><a xlink:title="edge#5">
<path fill="none" stroke="black" d="M612.55,-49.43C656.7,-55.76 713.95,-63.97 754.48,-69.78"/>
<polygon fill="black" stroke="black" points="753.81,-73.22 764.2,-71.17 754.8,-66.29 753.81,-73.22"/>
</a>
</g>
<text text-anchor="middle" x="689.12" y="-72.7" font-family="Times,serif" font-size="14.00">CALLS [rest] (sync)</text>
</g>
<!-- SERVICE:ui -->
<g id="node4" class="node">
<title>SERVICE:ui</title>
<path fill="#eef6ff" stroke="black" d="M42,-36C42,-36 12,-36 12,-36 6,-36 0,-30 0,-24 0,-24 0,-12 0,-12 0,-6 6,0 12,0 12,0 42,0 42,0 48,0 54,-6 54,-12 54,-12 54,-24 54,-24 54,-30 48,-36 42,-36"/>
<text text-anchor="middle" x="27" y="-13.7" font-family="Times,serif" font-size="14.00">ui</text>
</g>
<!-- SERVICE:ui&#45;&gt;SERVICE:profile -->
<g id="edge1" class="edge">
<title>SERVICE:ui&#45;&gt;SERVICE:profile</title>
<g id="a_edge1"><a xlink:title="edge#0">
<path fill="none" stroke="black" d="M54.34,-22.77C96.09,-30.32 177.71,-45.09 226.38,-53.9"/>
<polygon fill="black" stroke="black" points="225.75,-57.34 236.21,-55.68 226.99,-50.45 225.75,-57.34"/>
</a>
</g>
<text text-anchor="middle" x="130.88" y="-51.7" font-family="Times,serif" font-size="14.00">CALLS [rest] (sync)</text>
</g>
<!-- SERVICE:ui&#45;&gt;SERVICE:recommendations -->
<g id="edge2" class="edge">
<title>SERVICE:ui&#45;&gt;SERVICE:recommendations</title>
<g id="a_edge2"><a xlink:title="edge#1">
<path fill="none" stroke="black" d="M54.03,-15.96C121.6,-11.14 307.99,-0.92 461.25,-21 463.41,-21.28 465.59,-21.59 467.79,-21.93"/>
<polygon fill="black" stroke="black" points="466.93,-25.34 477.37,-23.56 468.1,-18.44 466.93,-25.34"/>
</a>
</g>
<text text-anchor="middle" x="266.62" y="-14.7" font-family="Times,serif" font-size="14.00">CALLS [rest] (sync)</text>
</g>
</g>
</svg>
