<?xml version="1.0" encoding="UTF-8" standalone="no"?>
<!DOCTYPE svg PUBLIC "-//W3C//DTD SVG 1.1//EN"
 "http://www.w3.org/Graphics/SVG/1.1/DTD/svg11.dtd">
<!-- Generated by graphviz version 9.0.0 (20230911.1827)
 -->
<!-- Title: G Pages: 1 -->
<svg width="1069pt" height="487pt"
 viewBox="0.00 0.00 1069.25 487.41" xmlns="http://www.w3.org/2000/svg" xmlns:xlink="http://www.w3.org/1999/xlink">
<g id="graph0" class="graph" transform="scale(1 1) rotate(0) translate(4 483.41)">
<title>G</title>
<polygon fill="white" stroke="none" points="-4,4 -4,-483.41 1065.25,-483.41 1065.25,4 -4,4"/>
<text text-anchor="middle" x="530.62" y="-462.11" font-family="Helvetica,sans-Serif" font-size="14.00">Architecture</text>
<!-- DATABASE:payments&#45;db -->
<g id="node1" class="node">
<title>DATABASE:payments&#45;db</title>
<path fill="#fff3cd" stroke="black" d="M371.62,-448.14C371.62,-449.95 348.88,-451.41 320.88,-451.41 292.87,-451.41 270.12,-449.95 270.12,-448.14 270.12,-448.14 270.12,-418.69 270.12,-418.69 270.12,-416.88 292.87,-415.41 320.88,-415.41 348.88,-415.41 371.62,-416.88 371.62,-418.69 371.62,-418.69 371.62,-448.14 371.62,-448.14"/>
<path fill="none" stroke="black" d="M371.62,-448.14C371.62,-446.34 348.88,-444.87 320.88,-444.87 292.87,-444.87 270.12,-446.34 270.12,-448.14"/>
<text text-anchor="middle" x="320.88" y="-429.11" font-family="Times,serif" font-size="14.00">payments&#45;db</text>
</g>
<!-- DATABASE:users&#45;db -->
<g id="node2" class="node">
<title>DATABASE:users&#45;db</title>
<path fill="#fff3cd" stroke="black" d="M999,-297.14C999,-298.95 982.81,-300.41 962.88,-300.41 942.94,-300.41 926.75,-298.95 926.75,-297.14 926.75,-297.14 926.75,-267.69 926.75,-267.69 926.75,-265.88 942.94,-264.41 962.88,-264.41 982.81,-264.41 999,-265.88 999,-267.69 999,-267.69 999,-297.14 999,-297.14"/>
<path fill="none" stroke="black" d="M999,-297.14C999,-295.34 982.81,-293.87 962.88,-293.87 942.94,-293.87 926.75,-295.34 926.75,-297.14"/>
<text text-anchor="middle" x="962.88" y="-278.11" font-family="Times,serif" font-size="14.00">users&#45;db</text>
</g>
<!-- DATABASE:orders&#45;db_order&#45;service -->
<g id="node3" class="node">
<title>DATABASE:orders&#45;db_order&#45;service</title>
<path fill="#fff3cd" stroke="black" d="M707,-210.14C707,-211.95 668.62,-213.41 621.38,-213.41 574.13,-213.41 535.75,-211.95 535.75,-210.14 535.75,-210.14 535.75,-180.69 535.75,-180.69 535.75,-178.88 574.13,-177.41 621.38,-177.41 668.62,-177.41 707,-178.88 707,-180.69 707,-180.69 707,-210.14 707,-210.14"/>
<path fill="none" stroke="black" d="M707,-210.14C707,-208.34 668.62,-206.87 621.38,-206.87 574.13,-206.87 535.75,-208.34 535.75,-210.14"/>
<text text-anchor="middle" x="621.38" y="-191.11" font-family="Times,serif" font-size="14.00">orders&#45;db_order&#45;service</text>
</g>
<!-- DATABASE:orders&#45;db_inventory&#45;service -->
<g id="node4" class="node">
<title>DATABASE:orders&#45;db_inventory&#45;service</title>
<path fill="#fff3cd" stroke="black" d="M1061.25,-421.14C1061.25,-422.95 1017.16,-424.41 962.88,-424.41 908.59,-424.41 864.5,-422.95 864.5,-421.14 864.5,-421.14 864.5,-391.69 864.5,-391.69 864.5,-389.88 908.59,-388.41 962.88,-388.41 1017.16,-388.41 1061.25,-389.88 1061.25,-391.69 1061.25,-391.69 1061.25,-421.14 1061.25,-421.14"/>
<path fill="none" stroke="black" d="M1061.25,-421.14C1061.25,-419.34 1017.16,-417.87 962.88,-417.87 908.59,-417.87 864.5,-419.34 864.5,-421.14"/>
<text text-anchor="middle" x="962.88" y="-402.11" font-family="Times,serif" font-size="14.00">orders&#45;db_inventory&#45;service</text>
</g>
<!-- SERVICE:api&#45;gateway -->
<g id="node5" class="node">
<title>SERVICE:api&#45;gateway</title>
<path fill="#eef6ff" stroke="black" d="M88.75,-234.41C88.75,-234.41 17.25,-234.41 17.25,-234.41 11.25,-234.41 5.25,-228.41 5.25,-222.41 5.25,-222.41 5.25,-210.41 5.25,-210.41 5.25,-204.41 11.25,-198.41 17.25,-198.41 17.25,-198.41 88.75,-198.41 88.75,-198.41 94.75,-198.41 100.75,-204.41 100.75,-210.41 100.75,-210.41 100.75,-222.41 100.75,-222.41 100.75,-228.41 94.75,-234.41 88.75,-234.41"/>
<text text-anchor="middle" x="53" y="-212.11" font-family="Times,serif" font-size="14.00">api&#45;gateway</text>
</g>
<!-- SERVICE:order&#45;service -->
<g id="node6" class="node">
<title>SERVICE:order&#45;service</title>
<path fill="#eef6ff" stroke="black" d="M359.25,-234.41C359.25,-234.41 282.5,-234.41 282.5,-234.41 276.5,-234.41 270.5,-228.41 270.5,-222.41 270.5,-222.41 270.5,-210.41 270.5,-210.41 270.5,-204.41 276.5,-198.41 282.5,-198.41 282.5,-198.41 359.25,-198.41 359.25,-198.41 365.25,-198.41 371.25,-204.41 371.25,-210.41 371.25,-210.41 371.25,-222.41 371.25,-222.41 371.25,-228.41 365.25,-234.41 359.25,-234.41"/>
<text text-anchor="middle" x="320.88" y="-212.11" font-family="Times,serif" font-size="14.00">order&#45;service</text>
</g>
<!-- SERVICE:api&#45;gateway&#45;&gt;SERVICE:order&#45;service -->
<g id="edge1" class="edge">
<title>SERVICE:api&#45;gateway&#45;&gt;SERVICE:order&#45;service</title>
<g id="a_edge1"><a xlink:title="edge#0">
<path fill="none" stroke="black" d="M101.23,-216.41C145.2,-216.41 210.99,-216.41 258.92,-216.41"/>
<polygon fill="black" stroke="black" points="258.87,-219.92 268.87,-216.41 258.87,-212.92 258.87,-219.92"/>
</a>
</g>
<text text-anchor="middle" x="185.12" y="-221.11" font-family="Times,serif" font-size="14.00">calls (1 ep), 30rpm</text>
</g>
<!-- SERVICE:order&#45;service&#45;&gt;DATABASE:users&#45;db -->
<g id="edge7" class="edge">
<title>SERVICE:order&#45;service&#45;&gt;DATABASE:users&#45;db</title>
<g id="a_edge7"><a xlink:title="edge#6">
<path fill="none" stroke="black" d="M346.46,-234.73C360.19,-243.99 378.01,-254.5 395.5,-260.41 585.77,-324.77 645.73,-295.5 846.5,-289.41 868.99,-288.73 893.91,-287.31 914.82,-285.92"/>
<polygon fill="black" stroke="black" points="915.05,-289.41 924.79,-285.24 914.57,-282.43 915.05,-289.41"/>
</a>
</g>
<text text-anchor="middle" x="621.38" y="-305.11" font-family="Times,serif" font-size="14.00">READS</text>
</g>
<!-- SERVICE:order&#45;service&#45;&gt;DATABASE:orders&#45;db_order&#45;service -->
<g id="edge8" class="edge">
<title>SERVICE:order&#45;service&#45;&gt;DATABASE:orders&#45;db_order&#45;service</title>
<g id="a_edge8"><a xlink:title="edge#7">
<path fill="none" stroke="black" d="M371.64,-206.66C379.6,-205.38 387.76,-204.23 395.5,-203.41 437.49,-198.98 484.11,-196.87 523.96,-195.9"/>
<polygon fill="black" stroke="black" points="523.85,-199.41 533.77,-195.69 523.7,-192.41 523.85,-199.41"/>
</a>
</g>
<text text-anchor="middle" x="456.62" y="-208.11" font-family="Times,serif" font-size="14.00">WRITES</text>
</g>
<!-- SERVICE:inventory&#45;service -->
<g id="node7" class="node">
<title>SERVICE:inventory&#45;service</title>
<path fill="#eef6ff" stroke="black" d="M672.5,-381.41C672.5,-381.41 570.25,-381.41 570.25,-381.41 564.25,-381.41 558.25,-375.41 558.25,-369.41 558.25,-369.41 558.25,-357.41 558.25,-357.41 558.25,-351.41 564.25,-345.41 570.25,-345.41 570.25,-345.41 672.5,-345.41 672.5,-345.41 678.5,-345.41 684.5,-351.41 684.5,-357.41 684.5,-357.41 684.5,-369.41 684.5,-369.41 684.5,-375.41 678.5,-381.41 672.5,-381.41"/>
<text text-anchor="middle" x="621.38" y="-359.11" font-family="Times,serif" font-size="14.00">inventory&#45;service</text>
</g>
<!-- SERVICE:order&#45;service&#45;&gt;SERVICE:inventory&#45;service -->
<g id="edge2" class="edge">
<title>SERVICE:order&#45;service&#45;&gt;SERVICE:inventory&#45;service</title>
<g id="a_edge2"><a xlink:title="edge#1">
<path fill="none" stroke="black" d="M330.41,-234.9C341.87,-257.49 364.42,-295.09 395.5,-314.41 442.45,-343.61 463.76,-325.51 517.75,-337.41 527.2,-339.5 537.11,-341.83 546.89,-344.21"/>
<polygon fill="black" stroke="black" points="545.82,-347.55 556.37,-346.55 547.5,-340.76 545.82,-347.55"/>
</a>
</g>
<text text-anchor="middle" x="456.62" y="-342.11" font-family="Times,serif" font-size="14.00">calls (1 ep), 95rpm</text>
</g>
<!-- SERVICE:user&#45;service -->
<g id="node8" class="node">
<title>SERVICE:user&#45;service</title>
<path fill="#eef6ff" stroke="black" d="M656,-267.41C656,-267.41 586.75,-267.41 586.75,-267.41 580.75,-267.41 574.75,-261.41 574.75,-255.41 574.75,-255.41 574.75,-243.41 574.75,-243.41 574.75,-237.41 580.75,-231.41 586.75,-231.41 586.75,-231.41 656,-231.41 656,-231.41 662,-231.41 668,-237.41 668,-243.41 668,-243.41 668,-255.41 668,-255.41 668,-261.41 662,-267.41 656,-267.41"/>
<text text-anchor="middle" x="621.38" y="-245.11" font-family="Times,serif" font-size="14.00">user&#45;service</text>
</g>
<!-- SERVICE:order&#45;service&#45;&gt;SERVICE:user&#45;service -->
<g id="edge3" class="edge">
<title>SERVICE:order&#45;service&#45;&gt;SERVICE:user&#45;service</title>
<g id="a_edge3"><a xlink:title="edge#2">
<path fill="none" stroke="black" d="M371.5,-221.9C424.28,-227.74 507.64,-236.95 563.15,-243.09"/>
<polygon fill="black" stroke="black" points="562.73,-246.56 573.05,-244.18 563.49,-239.61 562.73,-246.56"/>
</a>
</g>
<text text-anchor="middle" x="456.62" y="-243.11" font-family="Times,serif" font-size="14.00">calls (1 ep), 260rpm</text>
</g>
<!-- SERVICE:notification&#45;service -->
<g id="node11" class="node">
<title>SERVICE:notification&#45;service</title>
<path fill="#eef6ff" stroke="black" d="M1020.75,-149.41C1020.75,-149.41 905,-149.41 905,-149.41 899,-149.41 893,-143.41 893,-137.41 893,-137.41 893,-125.41 893,-125.41 893,-119.41 899,-113.41 905,-113.41 905,-113.41 1020.75,-113.41 1020.75,-113.41 1026.75,-113.41 1032.75,-119.41 1032.75,-125.41 1032.75,-125.41 1032.75,-137.41 1032.75,-137.41 1032.75,-143.41 1026.75,-149.41 1020.75,-149.41"/>
<text text-anchor="middle" x="962.88" y="-127.11" font-family="Times,serif" font-size="14.00">notification&#45;service</text>
</g>
<!-- SERVICE:order&#45;service&#45;&gt;SERVICE:notification&#45;service -->
<g id="edge5" class="edge">
<title>SERVICE:order&#45;service&#45;&gt;SERVICE:notification&#45;service</title>
<g id="a_edge5"><a xlink:title="edge#4">
<path fill="none" stroke="black" d="M368.99,-197.94C411.76,-182.12 476.94,-160.37 535.75,-150.41 654.89,-130.24 795.27,-128.06 881.42,-129.14"/>
<polygon fill="black" stroke="black" points="881.12,-132.64 891.17,-129.28 881.22,-125.64 881.12,-132.64"/>
</a>
</g>
<text text-anchor="middle" x="621.38" y="-155.11" font-family="Times,serif" font-size="14.00">calls (1 ep), 220rpm</text>
</g>
<!-- SERVICE:search&#45;service -->
<g id="node12" class="node">
<title>SERVICE:search&#45;service</title>
<path fill="#eef6ff" stroke="black" d="M1005,-68.41C1005,-68.41 920.75,-68.41 920.75,-68.41 914.75,-68.41 908.75,-62.41 908.75,-56.41 908.75,-56.41 908.75,-44.41 908.75,-44.41 908.75,-38.41 914.75,-32.41 920.75,-32.41 920.75,-32.41 1005,-32.41 1005,-32.41 1011,-32.41 1017,-38.41 1017,-44.41 1017,-44.41 1017,-56.41 1017,-56.41 1017,-62.41 1011,-68.41 1005,-68.41"/>
<text text-anchor="middle" x="962.88" y="-46.11" font-family="Times,serif" font-size="14.00">search&#45;service</text>
</g>
<!-- SERVICE:order&#45;service&#45;&gt;SERVICE:search&#45;service -->
<g id="edge6" class="edge">
<title>SERVICE:order&#45;service&#45;&gt;SERVICE:search&#45;service</title>
<g id="a_edge6"><a xlink:title="edge#5">
<path fill="none" stroke="black" d="M326.21,-198.27C334.38,-168.14 355,-107.99 395.5,-76.41 542.93,38.54 783.34,-2.77 897.62,-31.74"/>
<polygon fill="black" stroke="black" points="896.59,-35.09 907.15,-34.21 898.35,-28.31 896.59,-35.09"/>
</a>
</g>
<text text-anchor="middle" x="621.38" y="-17.11" font-family="Times,serif" font-size="14.00">calls (1 ep), 180rpm</text>
</g>
<!-- SERVICE:order&#45;service_split -->
<g id="node13" class="node">
<title>SERVICE:order&#45;service_split</title>
<path fill="#eef6ff" stroke="black" d="M677,-105.41C677,-105.41 565.75,-105.41 565.75,-105.41 559.75,-105.41 553.75,-99.41 553.75,-93.41 553.75,-93.41 553.75,-81.41 553.75,-81.41 553.75,-75.41 559.75,-69.41 565.75,-69.41 565.75,-69.41 677,-69.41 677,-69.41 683,-69.41 689,-75.41 689,-81.41 689,-81.41 689,-93.41 689,-93.41 689,-99.41 683,-105.41 677,-105.41"/>
<text text-anchor="middle" x="621.38" y="-83.11" font-family="Times,serif" font-size="14.00">order&#45;service_split</text>
</g>
<!-- SERVICE:order&#45;service&#45;&gt;SERVICE:order&#45;service_split -->
<g id="edge4" class="edge">
<title>SERVICE:order&#45;service&#45;&gt;SERVICE:order&#45;service_split</title>
<g id="a_edge4"><a xlink:title="edge#3">
<path fill="none" stroke="black" d="M328.76,-197.93C339.09,-173.08 361.12,-129.69 395.5,-109.41 439.27,-83.61 496.31,-78.28 541.99,-79.32"/>
<polygon fill="black" stroke="black" points="541.72,-82.81 551.83,-79.66 541.96,-75.82 541.72,-82.81"/>
</a>
</g>
<text text-anchor="middle" x="456.62" y="-114.11" font-family="Times,serif" font-size="14.00">calls (1 ep), 30rpm</text>
</g>
<!-- SERVICE:inventory&#45;service&#45;&gt;DATABASE:orders&#45;db_inventory&#45;service -->
<g id="edge11" class="edge">
<title>SERVICE:inventory&#45;service&#45;&gt;DATABASE:orders&#45;db_inventory&#45;service</title>
<g id="a_edge11"><a xlink:title="edge#10">
<path fill="none" stroke="black" d="M684.95,-375.09C698.15,-377.36 712.01,-379.59 725,-381.41 766.55,-387.25 812.38,-392.38 852.57,-396.46"/>
<polygon fill="black" stroke="black" points="852.21,-399.94 862.51,-397.45 852.91,-392.97 852.21,-399.94"/>
</a>
</g>
<text text-anchor="middle" x="785.75" y="-399.11" font-family="Times,serif" font-size="14.00">WRITES</text>
</g>
<!-- DATABASE:orders&#45;db -->
<g id="node9" class="node">
<title>DATABASE:orders&#45;db</title>
<path fill="#fff3cd" stroke="black" d="M1002.75,-367.14C1002.75,-368.95 984.88,-370.41 962.88,-370.41 940.87,-370.41 923,-368.95 923,-367.14 923,-367.14 923,-337.69 923,-337.69 923,-335.88 940.87,-334.41 962.88,-334.41 984.88,-334.41 1002.75,-335.88 1002.75,-337.69 1002.75,-337.69 1002.75,-367.14 1002.75,-367.14"/>
<path fill="none" stroke="black" d="M1002.75,-367.14C1002.75,-365.34 984.88,-363.87 962.88,-363.87 940.87,-363.87 923,-365.34 923,-367.14"/>
<text text-anchor="middle" x="962.88" y="-348.11" font-family="Times,serif" font-size="14.00">orders&#45;db</text>
</g>
<!-- SERVICE:inventory&#45;service&#45;&gt;DATABASE:orders&#45;db -->
<g id="edge10" class="edge">
<title>SERVICE:inventory&#45;service&#45;&gt;DATABASE:orders&#45;db</title>
<g id="a_edge10"><a xlink:title="edge#9">
<path fill="none" stroke="black" d="M684.64,-361.4C749.93,-359.28 851.23,-356 911.62,-354.04"/>
<polygon fill="black" stroke="black" points="911.37,-357.55 921.25,-353.73 911.14,-350.56 911.37,-357.55"/>
</a>
</g>
<text text-anchor="middle" x="785.75" y="-364.11" font-family="Times,serif" font-size="14.00">READS</text>
</g>
<!-- SERVICE:billing&#45;service -->
<g id="node10" class="node">
<title>SERVICE:billing&#45;service</title>
<path fill="#eef6ff" stroke="black" d="M94,-403.41C94,-403.41 12,-403.41 12,-403.41 6,-403.41 0,-397.41 0,-391.41 0,-391.41 0,-379.41 0,-379.41 0,-373.41 6,-367.41 12,-367.41 12,-367.41 94,-367.41 94,-367.41 100,-367.41 106,-373.41 106,-379.41 106,-379.41 106,-391.41 106,-391.41 106,-397.41 100,-403.41 94,-403.41"/>
<text text-anchor="middle" x="53" y="-381.11" font-family="Times,serif" font-size="14.00">billing&#45;service</text>
</g>
<!-- SERVICE:inventory&#45;service&#45;&gt;SERVICE:billing&#45;service -->
<g id="edge9" class="edge">
<title>SERVICE:inventory&#45;service&#45;&gt;SERVICE:billing&#45;service</title>
<g id="a_edge9"><a xlink:title="edge#8">
<path fill="none" stroke="black" d="M558.01,-365.84C449.52,-370.05 227.23,-378.69 117.77,-382.94"/>
<polygon fill="black" stroke="black" points="117.64,-379.44 107.78,-383.33 117.91,-386.44 117.64,-379.44"/>
</a>
</g>
<text text-anchor="middle" x="320.88" y="-381.11" font-family="Times,serif" font-size="14.00">calls (1 ep), 32rpm</text>
</g>
<!-- SERVICE:user&#45;service&#45;&gt;DATABASE:users&#45;db -->
<g id="edge15" class="edge">
<title>SERVICE:user&#45;service&#45;&gt;DATABASE:users&#45;db</title>
<g id="a_edge15"><a xlink:title="edge#14">
<path fill="none" stroke="black" d="M668.16,-253.87C732.87,-260.16 850.43,-271.58 915.48,-277.9"/>
<polygon fill="black" stroke="black" points="914.8,-281.36 925.09,-278.84 915.48,-274.39 914.8,-281.36"/>
</a>
</g>
<text text-anchor="middle" x="785.75" y="-276.11" font-family="Times,serif" font-size="14.00">READS</text>
</g>
<!-- SERVICE:billing&#45;service&#45;&gt;DATABASE:payments&#45;db -->
<g id="edge13" class="edge">
<title>SERVICE:billing&#45;service&#45;&gt;DATABASE:payments&#45;db</title>
<g id="a_edge13"><a xlink:title="edge#12">
<path fill="none" stroke="black" d="M83.21,-403.87C95.36,-410.62 109.9,-417.54 124,-421.41 167.86,-433.46 219.25,-436.21 258.38,-436.08"/>
<polygon fill="black" stroke="black" points="258.37,-439.58 268.34,-435.97 258.3,-432.58 258.37,-439.58"/>
</a>
</g>
<text text-anchor="middle" x="185.12" y="-440.11" font-family="Times,serif" font-size="14.00">READS</text>
</g>
<!-- SERVICE:billing&#45;service&#45;&gt;DATABASE:payments&#45;db -->
<g id="edge14" class="edge">
<title>SERVICE:billing&#45;service&#45;&gt;DATABASE:payments&#45;db</title>
<g id="a_edge14"><a xlink:title="edge#13">
<path fill="none" stroke="black" d="M106.22,-384.2C145.36,-384.49 199.91,-387.45 246.25,-399.41 256.56,-402.08 267.21,-406.13 277.09,-410.53"/>
<polygon fill="black" stroke="black" points="275.55,-413.67 286.09,-414.74 278.52,-407.33 275.55,-413.67"/>
</a>
</g>
<text text-anchor="middle" x="185.12" y="-404.11" font-family="Times,serif" font-size="14.00">WRITES</text>
</g>
<!-- SERVICE:billing&#45;service&#45;&gt;SERVICE:order&#45;service -->
<g id="edge12" class="edge">
<title>SERVICE:billing&#45;service&#45;&gt;SERVICE:order&#45;service</title>
<g id="a_edge12"><a xlink:title="edge#11">
<path fill="none" stroke="black" d="M80.06,-367.11C93.15,-358.03 109.31,-346.98 124,-337.41 177.11,-302.83 239.57,-264.67 279.43,-240.63"/>
<polygon fill="black" stroke="black" points="281,-243.77 287.76,-235.61 277.39,-237.77 281,-243.77"/>
</a>
</g>
<text text-anchor="middle" x="185.12" y="-342.11" font-family="Times,serif" font-size="14.00">calls (1 ep), 260rpm</text>
</g>
<!-- SERVICE:order&#45;service_split&#45;&gt;SERVICE:notification&#45;service -->
<g id="edge16" class="edge">
<title>SERVICE:order&#45;service_split&#45;&gt;SERVICE:notification&#45;service</title>
<g id="a_edge16"><a xlink:title="edge#15">
<path fill="none" stroke="black" d="M689.25,-92.39C733.91,-96.1 793.87,-101.83 846.5,-109.41 857.89,-111.06 869.87,-113.04 881.63,-115.15"/>
<polygon fill="black" stroke="black" points="880.85,-118.56 891.31,-116.92 882.1,-111.68 880.85,-118.56"/>
</a>
</g>
<text text-anchor="middle" x="785.75" y="-114.11" font-family="Times,serif" font-size="14.00">calls (1 ep), 220rpm</text>
</g>
<!-- SERVICE:order&#45;service_split&#45;&gt;SERVICE:search&#45;service -->
<g id="edge17" class="edge">
<title>SERVICE:order&#45;service_split&#45;&gt;SERVICE:search&#45;service</title>
<g id="a_edge17"><a xlink:title="edge#16">
<path fill="none" stroke="black" d="M689.28,-73.96C701.15,-71.88 713.41,-69.92 725,-68.41 783,-60.86 849.42,-56.16 897.15,-53.46"/>
<polygon fill="black" stroke="black" points="897.25,-56.96 907.04,-52.91 896.87,-49.97 897.25,-56.96"/>
</a>
</g>
<text text-anchor="middle" x="785.75" y="-73.11" font-family="Times,serif" font-size="14.00">calls (1 ep), 180rpm</text>
</g>
</g>
</svg>
