<?xml version="1.0" encoding="UTF-8" standalone="no"?>
<!DOCTYPE svg PUBLIC "-//W3C//DTD SVG 1.1//EN"
 "http://www.w3.org/Graphics/SVG/1.1/DTD/svg11.dtd">
<!-- Generated by graphviz version 9.0.0 (20230911.1827)
 -->
<!-- Title: G Pages: 1 -->
<svg width="1254pt" height="194pt"
 viewBox="0.00 0.00 1254.00 194.00" xmlns="http://www.w3.org/2000/svg" xmlns:xlink="http://www.w3.org/1999/xlink">
<g id="graph0" class="graph" transform="scale(1 1) rotate(0) translate(4 190)">
<title>G</title>
<polygon fill="white" stroke="none" points="-4,4 -4,-190 1250,-190 1250,4 -4,4"/>
<text text-anchor="middle" x="623" y="-168.7" font-family="Helvetica,sans-Serif" font-size="14.00">Architecture</text>
<!-- SERVICE:user -->
<g id="node1" class="node">
<title>SERVICE:user</title>
<path fill="#eef6ff" stroke="black" d="M53.75,-36C53.75,-36 23.75,-36 23.75,-36 17.75,-36 11.75,-30 11.75,-24 11.75,-24 11.75,-12 11.75,-12 11.75,-6 17.75,0 23.75,0 23.75,0 53.75,0 53.75,0 59.75,0 65.75,-6 65.75,-12 65.75,-12 65.75,-24 65.75,-24 65.75,-30 59.75,-36 53.75,-36"/>
<text text-anchor="middle" x="38.75" y="-13.7" font-family="Times,serif" font-size="14.00">user</text>
</g>
<!-- SERVICE:web page -->
<g id="node2" class="node">
<title>SERVICE:web page</title>
<path fill="#eef6ff" stroke="black" d="M65.5,-90C65.5,-90 12,-90 12,-90 6,-90 0,-84 0,-78 0,-78 0,-66 0,-66 0,-60 6,-54 12,-54 12,-54 65.5,-54 65.5,-54 71.5,-54 77.5,-60 77.5,-66 77.5,-66 77.5,-78 77.5,-78 77.5,-84 71.5,-90 65.5,-90"/>
<text text-anchor="middle" x="38.75" y="-67.7" font-family="Times,serif" font-size="14.00">web page</text>
</g>
<!-- SERVICE:bff -->
<g id="node7" class="node">
<title>SERVICE:bff</title>
<path fill="#eef6ff" stroke="black" d="M273.25,-90C273.25,-90 243.25,-90 243.25,-90 237.25,-90 231.25,-84 231.25,-78 231.25,-78 231.25,-66 231.25,-66 231.25,-60 237.25,-54 243.25,-54 243.25,-54 273.25,-54 273.25,-54 279.25,-54 285.25,-60 285.25,-66 285.25,-66 285.25,-78 285.25,-78 285.25,-84 279.25,-90 273.25,-90"/>
<text text-anchor="middle" x="258.25" y="-67.7" font-family="Times,serif" font-size="14.00">bff</text>
</g>
<!-- SERVICE:web page&#45;&gt;SERVICE:bff -->
<g id="edge6" class="edge">
<title>SERVICE:web page&#45;&gt;SERVICE:bff</title>
<g id="a_edge6"><a xlink:title="edge#5">
<path fill="none" stroke="black" d="M77.88,-72C117.72,-72 179.82,-72 219.51,-72"/>
<polygon fill="black" stroke="black" points="219.29,-75.5 229.29,-72 219.29,-68.5 219.29,-75.5"/>
</a>
</g>
<text text-anchor="middle" x="154.38" y="-76.7" font-family="Times,serif" font-size="14.00">CALLS [rest] (sync)</text>
</g>
<!-- SERVICE:orders -->
<g id="node3" class="node">
<title>SERVICE:orders</title>
<path fill="#eef6ff" stroke="black" d="M734.25,-132C734.25,-132 701,-132 701,-132 695,-132 689,-126 689,-120 689,-120 689,-108 689,-108 689,-102 695,-96 701,-96 701,-96 734.25,-96 734.25,-96 740.25,-96 746.25,-102 746.25,-108 746.25,-108 746.25,-120 746.25,-120 746.25,-126 740.25,-132 734.25,-132"/>
<text text-anchor="middle" x="717.62" y="-109.7" font-family="Times,serif" font-size="14.00">orders</text>
</g>
<!-- SERVICE:payments -->
<g id="node5" class="node">
<title>SERVICE:payments</title>
<path fill="#eef6ff" stroke="black" d="M986.38,-86C986.38,-86 931.38,-86 931.38,-86 925.38,-86 919.38,-80 919.38,-74 919.38,-74 919.38,-62 919.38,-62 919.38,-56 925.38,-50 931.38,-50 931.38,-50 986.38,-50 986.38,-50 992.38,-50 998.38,-56 998.38,-62 998.38,-62 998.38,-74 998.38,-74 998.38,-80 992.38,-86 986.38,-86"/>
<text text-anchor="middle" x="958.88" y="-63.7" font-family="Times,serif" font-size="14.00">payments</text>
</g>
<!-- SERVICE:orders&#45;&gt;SERVICE:payments -->
<g id="edge5" class="edge">
<title>SERVICE:orders&#45;&gt;SERVICE:payments</title>
<g id="a_edge5"><a xlink:title="edge#4">
<path fill="none" stroke="black" d="M746.4,-97.32C752.14,-94.47 758.26,-91.84 764.25,-90 811.53,-75.44 867.97,-70.34 907.68,-68.64"/>
<polygon fill="black" stroke="black" points="907.8,-72.13 917.67,-68.27 907.55,-65.14 907.8,-72.13"/>
</a>
</g>
<text text-anchor="middle" x="823.12" y="-94.7" font-family="Times,serif" font-size="14.00">CALLS [rest] (sync)</text>
</g>
<!-- DATABASE:database -->
<g id="node6" class="node">
<title>DATABASE:database</title>
<path fill="#fff3cd" stroke="black" d="M1246,-136.73C1246,-138.53 1229.3,-140 1208.75,-140 1188.2,-140 1171.5,-138.53 1171.5,-136.73 1171.5,-136.73 1171.5,-107.27 1171.5,-107.27 1171.5,-105.47 1188.2,-104 1208.75,-104 1229.3,-104 1246,-105.47 1246,-107.27 1246,-107.27 1246,-136.73 1246,-136.73"/>
<path fill="none" stroke="black" d="M1246,-136.73C1246,-134.92 1229.3,-133.45 1208.75,-133.45 1188.2,-133.45 1171.5,-134.92 1171.5,-136.73"/>
<text text-anchor="middle" x="1208.75" y="-117.7" font-family="Times,serif" font-size="14.00">database</text>
</g>
<!-- SERVICE:orders&#45;&gt;DATABASE:database -->
<g id="edge1" class="edge">
<title>SERVICE:orders&#45;&gt;DATABASE:database</title>
<g id="a_edge1"><a xlink:title="edge#0">
<path fill="none" stroke="black" d="M746.68,-114.46C827.03,-115.77 1058.72,-119.56 1159.72,-121.21"/>
<polygon fill="black" stroke="black" points="1159.52,-124.71 1169.57,-121.38 1159.63,-117.71 1159.52,-124.71"/>
</a>
</g>
<text text-anchor="middle" x="958.88" y="-122.7" font-family="Times,serif" font-size="14.00">CALLS [rest] (sync)</text>
</g>
<!-- SERVICE:restaurants -->
<g id="node4" class="node">
<title>SERVICE:restaurants</title>
<path fill="#eef6ff" stroke="black" d="M523.25,-132C523.25,-132 458.5,-132 458.5,-132 452.5,-132 446.5,-126 446.5,-120 446.5,-120 446.5,-108 446.5,-108 446.5,-102 452.5,-96 458.5,-96 458.5,-96 523.25,-96 523.25,-96 529.25,-96 535.25,-102 535.25,-108 535.25,-108 535.25,-120 535.25,-120 535.25,-126 529.25,-132 523.25,-132"/>
<text text-anchor="middle" x="490.88" y="-109.7" font-family="Times,serif" font-size="14.00">restaurants</text>
</g>
<!-- SERVICE:restaurants&#45;&gt;SERVICE:orders -->
<g id="edge4" class="edge">
<title>SERVICE:restaurants&#45;&gt;SERVICE:orders</title>
<g id="a_edge4"><a xlink:title="edge#3">
<path fill="none" stroke="black" d="M535.74,-114C576.93,-114 637.97,-114 677.53,-114"/>
<polygon fill="black" stroke="black" points="677.31,-117.5 687.31,-114 677.31,-110.5 677.31,-117.5"/>
</a>
</g>
<text text-anchor="middle" x="612.12" y="-118.7" font-family="Times,serif" font-size="14.00">CALLS [rest] (sync)</text>
</g>
<!-- SERVICE:restaurants&#45;&gt;DATABASE:database -->
<g id="edge2" class="edge">
<title>SERVICE:restaurants&#45;&gt;DATABASE:database</title>
<g id="a_edge2"><a xlink:title="edge#1">
<path fill="none" stroke="black" d="M535.67,-131.52C541.51,-133.32 547.47,-134.89 553.25,-136 612.53,-147.43 628.64,-139.89 689,-141 761.28,-142.33 813.7,-144.88 1017.75,-140 1078.12,-138.56 1093.62,-141.88 1153.5,-134 1155.65,-133.72 1157.84,-133.39 1160.05,-133.03"/>
<polygon fill="black" stroke="black" points="1160.44,-136.52 1169.65,-131.28 1159.18,-129.63 1160.44,-136.52"/>
</a>
</g>
<text text-anchor="middle" x="823.12" y="-146.7" font-family="Times,serif" font-size="14.00">CALLS [rest] (sync)</text>
</g>
<!-- SERVICE:payments&#45;&gt;DATABASE:database -->
<g id="edge3" class="edge">
<title>SERVICE:payments&#45;&gt;DATABASE:database</title>
<g id="a_edge3"><a xlink:title="edge#2">
<path fill="none" stroke="black" d="M998.74,-67.7C1038.58,-68.47 1101.85,-72.71 1153.5,-90 1159.88,-92.13 1166.32,-95.09 1172.43,-98.35"/>
<polygon fill="black" stroke="black" points="1170.6,-101.34 1181.02,-103.28 1174.09,-95.26 1170.6,-101.34"/>
</a>
</g>
<text text-anchor="middle" x="1094.62" y="-94.7" font-family="Times,serif" font-size="14.00">CALLS [rest] (sync)</text>
</g>
<!-- SERVICE:bff&#45;&gt;SERVICE:restaurants -->
<g id="edge7" class="edge">
<title>SERVICE:bff&#45;&gt;SERVICE:restaurants</title>
<g id="a_edge7"><a xlink:title="edge#6">
<path fill="none" stroke="black" d="M285.71,-76.82C321.89,-83.41 387.68,-95.39 434.8,-103.97"/>
<polygon fill="black" stroke="black" points="434.1,-107.4 444.56,-105.75 435.35,-100.51 434.1,-107.4"/>
</a>
</g>
<text text-anchor="middle" x="365.88" y="-106.7" font-family="Times,serif" font-size="14.00">CALLS [rest] (async)</text>
</g>
<!-- SERVICE:bff&#45;&gt;SERVICE:payments -->
<g id="edge8" class="edge">
<title>SERVICE:bff&#45;&gt;SERVICE:payments</title>
<g id="a_edge8"><a xlink:title="edge#7">
<path fill="none" stroke="black" d="M285.36,-71.85C388.62,-71.26 769.52,-69.08 907.53,-68.29"/>
<polygon fill="black" stroke="black" points="907.47,-71.79 917.45,-68.23 907.43,-64.79 907.47,-71.79"/>
</a>
</g>
<text text-anchor="middle" x="612.12" y="-74.7" font-family="Times,serif" font-size="14.00">CALLS [rest] (sync)</text>
</g>
</g>
</svg>
