<?xml version="1.0" encoding="UTF-8" standalone="no"?>
<!DOCTYPE svg PUBLIC "-//W3C//DTD SVG 1.1//EN"
 "http://www.w3.org/Graphics/SVG/1.1/DTD/svg11.dtd">
<!-- Generated by graphviz version 9.0.0 (20230911.1827)
 -->
<!-- Title: G Pages: 1 -->
<svg width="1247pt" height="143pt"
 viewBox="0.00 0.00 1246.50 143.00" xmlns="http://www.w3.org/2000/svg" xmlns:xlink="http://www.w3.org/1999/xlink">
<g id="graph0" class="graph" transform="scale(1 1) rotate(0) translate(4 139)">
<title>G</title>
<polygon fill="white" stroke="none" points="-4,4 -4,-139 1242.5,-139 1242.5,4 -4,4"/>
<text text-anchor="middle" x="619.25" y="-117.7" font-family="Helvetica,sans-Serif" font-size="14.00">Architecture</text>
<!-- SERVICE:restaurants -->
<g id="node1" class="node">
<title>SERVICE:restaurants</title>
<path fill="#eef6ff" stroke="black" d="M515.75,-80C515.75,-80 451,-80 451,-80 445,-80 439,-74 439,-68 439,-68 439,-56 439,-56 439,-50 445,-44 451,-44 451,-44 515.75,-44 515.75,-44 521.75,-44 527.75,-50 527.75,-56 527.75,-56 527.75,-68 527.75,-68 527.75,-74 521.75,-80 515.75,-80"/>
<text text-anchor="middle" x="483.38" y="-57.7" font-family="Times,serif" font-size="14.00">restaurants</text>
</g>
<!-- DATABASE:database -->
<g id="node3" class="node">
<title>DATABASE:database</title>
<path fill="#fff3cd" stroke="black" d="M1238.5,-86.73C1238.5,-88.53 1221.8,-90 1201.25,-90 1180.7,-90 1164,-88.53 1164,-86.73 1164,-86.73 1164,-57.27 1164,-57.27 1164,-55.47 1180.7,-54 1201.25,-54 1221.8,-54 1238.5,-55.47 1238.5,-57.27 1238.5,-57.27 1238.5,-86.73 1238.5,-86.73"/>
<path fill="none" stroke="black" d="M1238.5,-86.73C1238.5,-84.92 1221.8,-83.45 1201.25,-83.45 1180.7,-83.45 1164,-84.92 1164,-86.73"/>
<text text-anchor="middle" x="1201.25" y="-67.7" font-family="Times,serif" font-size="14.00">database</text>
</g>
<!-- SERVICE:restaurants&#45;&gt;DATABASE:database -->
<g id="edge2" class="edge">
<title>SERVICE:restaurants&#45;&gt;DATABASE:database</title>
<g id="a_edge2"><a xlink:title="edge#1">
<path fill="none" stroke="black" d="M528.17,-79.52C534.01,-81.32 539.97,-82.89 545.75,-84 605.03,-95.43 621.14,-87.89 681.5,-89 827.59,-91.69 864.17,-92.23 1010.25,-89 1070.63,-87.67 1086.06,-90.36 1146,-83 1148.06,-82.75 1150.15,-82.46 1152.26,-82.14"/>
<polygon fill="black" stroke="black" points="1152.83,-85.6 1162.12,-80.49 1151.67,-78.69 1152.83,-85.6"/>
</a>
</g>
<text text-anchor="middle" x="815.62" y="-95.7" font-family="Times,serif" font-size="14.00">CALLS [rest] (sync)</text>
</g>
<!-- SERVICE:orders -->
<g id="node7" class="node">
<title>SERVICE:orders</title>
<path fill="#eef6ff" stroke="black" d="M726.75,-80C726.75,-80 693.5,-80 693.5,-80 687.5,-80 681.5,-74 681.5,-68 681.5,-68 681.5,-56 681.5,-56 681.5,-50 687.5,-44 693.5,-44 693.5,-44 726.75,-44 726.75,-44 732.75,-44 738.75,-50 738.75,-56 738.75,-56 738.75,-68 738.75,-68 738.75,-74 732.75,-80 726.75,-80"/>
<text text-anchor="middle" x="710.12" y="-57.7" font-family="Times,serif" font-size="14.00">orders</text>
</g>
<!-- SERVICE:restaurants&#45;&gt;SERVICE:orders -->
<g id="edge4" class="edge">
<title>SERVICE:restaurants&#45;&gt;SERVICE:orders</title>
<g id="a_edge4"><a xlink:title="edge#3">
<path fill="none" stroke="black" d="M528.24,-62C569.43,-62 630.47,-62 670.03,-62"/>
<polygon fill="black" stroke="black" points="669.81,-65.5 679.81,-62 669.81,-58.5 669.81,-65.5"/>
</a>
</g>
<text text-anchor="middle" x="604.62" y="-66.7" font-family="Times,serif" font-size="14.00">CALLS [rest] (sync)</text>
</g>
<!-- SERVICE:payments -->
<g id="node2" class="node">
<title>SERVICE:payments</title>
<path fill="#eef6ff" stroke="black" d="M978.88,-36C978.88,-36 923.88,-36 923.88,-36 917.88,-36 911.88,-30 911.88,-24 911.88,-24 911.88,-12 911.88,-12 911.88,-6 917.88,0 923.88,0 923.88,0 978.88,0 978.88,0 984.88,0 990.88,-6 990.88,-12 990.88,-12 990.88,-24 990.88,-24 990.88,-30 984.88,-36 978.88,-36"/>
<text text-anchor="middle" x="951.38" y="-13.7" font-family="Times,serif" font-size="14.00">payments</text>
</g>
<!-- SERVICE:payments&#45;&gt;DATABASE:database -->
<g id="edge3" class="edge">
<title>SERVICE:payments&#45;&gt;DATABASE:database</title>
<g id="a_edge3"><a xlink:title="edge#2">
<path fill="none" stroke="black" d="M991.24,-17.7C1031.08,-18.47 1094.35,-22.71 1146,-40 1152.38,-42.13 1158.82,-45.09 1164.93,-48.35"/>
<polygon fill="black" stroke="black" points="1163.1,-51.34 1173.52,-53.28 1166.59,-45.26 1163.1,-51.34"/>
</a>
</g>
<text text-anchor="middle" x="1087.12" y="-44.7" font-family="Times,serif" font-size="14.00">CALLS [rest] (sync)</text>
</g>
<!-- SERVICE:bff -->
<g id="node4" class="node">
<title>SERVICE:bff</title>
<path fill="#eef6ff" stroke="black" d="M273.25,-40C273.25,-40 243.25,-40 243.25,-40 237.25,-40 231.25,-34 231.25,-28 231.25,-28 231.25,-16 231.25,-16 231.25,-10 237.25,-4 243.25,-4 243.25,-4 273.25,-4 273.25,-4 279.25,-4 285.25,-10 285.25,-16 285.25,-16 285.25,-28 285.25,-28 285.25,-34 279.25,-40 273.25,-40"/>
<text text-anchor="middle" x="258.25" y="-17.7" font-family="Times,serif" font-size="14.00">bff</text>
</g>
<!-- SERVICE:bff&#45;&gt;SERVICE:restaurants -->
<g id="edge7" class="edge">
<title>SERVICE:bff&#45;&gt;SERVICE:restaurants</title>
<g id="a_edge7"><a xlink:title="edge#6">
<path fill="none" stroke="black" d="M285.72,-26.75C320.52,-32.98 382.51,-44.1 427.61,-52.18"/>
<polygon fill="black" stroke="black" points="426.74,-55.58 437.2,-53.9 427.97,-48.69 426.74,-55.58"/>
</a>
</g>
<text text-anchor="middle" x="362.12" y="-54.7" font-family="Times,serif" font-size="14.00">CALLS [rest] (sync)</text>
</g>
<!-- SERVICE:bff&#45;&gt;SERVICE:payments -->
<g id="edge8" class="edge">
<title>SERVICE:bff&#45;&gt;SERVICE:payments</title>
<g id="a_edge8"><a xlink:title="edge#7">
<path fill="none" stroke="black" d="M285.5,-21.85C388.16,-21.25 763.54,-19.08 900.19,-18.29"/>
<polygon fill="black" stroke="black" points="900.03,-21.79 910.01,-18.23 899.99,-14.79 900.03,-21.79"/>
</a>
</g>
<text text-anchor="middle" x="604.62" y="-25.7" font-family="Times,serif" font-size="14.00">CALLS [rest] (sync)</text>
</g>
<!-- SERVICE:user -->
<g id="node5" class="node">
<title>SERVICE:user</title>
<path fill="#eef6ff" stroke="black" d="M53.75,-94C53.75,-94 23.75,-94 23.75,-94 17.75,-94 11.75,-88 11.75,-82 11.75,-82 11.75,-70 11.75,-70 11.75,-64 17.75,-58 23.75,-58 23.75,-58 53.75,-58 53.75,-58 59.75,-58 65.75,-64 65.75,-70 65.75,-70 65.75,-82 65.75,-82 65.75,-88 59.75,-94 53.75,-94"/>
<text text-anchor="middle" x="38.75" y="-71.7" font-family="Times,serif" font-size="14.00">user</text>
</g>
<!-- SERVICE:web page -->
<g id="node6" class="node">
<title>SERVICE:web page</title>
<path fill="#eef6ff" stroke="black" d="M65.5,-40C65.5,-40 12,-40 12,-40 6,-40 0,-34 0,-28 0,-28 0,-16 0,-16 0,-10 6,-4 12,-4 12,-4 65.5,-4 65.5,-4 71.5,-4 77.5,-10 77.5,-16 77.5,-16 77.5,-28 77.5,-28 77.5,-34 71.5,-40 65.5,-40"/>
<text text-anchor="middle" x="38.75" y="-17.7" font-family="Times,serif" font-size="14.00">web page</text>
</g>
<!-- SERVICE:web page&#45;&gt;SERVICE:bff -->
<g id="edge6" class="edge">
<title>SERVICE:web page&#45;&gt;SERVICE:bff</title>
<g id="a_edge6"><a xlink:title="edge#5">
<path fill="none" stroke="black" d="M77.88,-22C117.72,-22 179.82,-22 219.51,-22"/>
<polygon fill="black" stroke="black" points="219.29,-25.5 229.29,-22 219.29,-18.5 219.29,-25.5"/>
</a>
</g>
<text text-anchor="middle" x="154.38" y="-26.7" font-family="Times,serif" font-size="14.00">CALLS [rest] (sync)</text>
</g>
<!-- SERVICE:orders&#45;&gt;SERVICE:payments -->
<g id="edge5" class="edge">
<title>SERVICE:orders&#45;&gt;SERVICE:payments</title>
<g id="a_edge5"><a xlink:title="edge#4">
<path fill="none" stroke="black" d="M739.02,-46.74C744.75,-44.13 750.84,-41.71 756.75,-40 804.13,-26.31 860.33,-21.08 899.94,-19.11"/>
<polygon fill="black" stroke="black" points="900.07,-22.61 909.91,-18.68 899.77,-15.62 900.07,-22.61"/>
</a>
</g>
<text text-anchor="middle" x="815.62" y="-44.7" font-family="Times,serif" font-size="14.00">CALLS [rest] (sync)</text>
</g>
<!-- SERVICE:orders&#45;&gt;DATABASE:database -->
<g id="edge1" class="edge">
<title>SERVICE:orders&#45;&gt;DATABASE:database</title>
<g id="a_edge1"><a xlink:title="edge#0">
<path fill="none" stroke="black" d="M739.18,-62.57C819.53,-64.22 1051.22,-68.95 1152.22,-71.02"/>
<polygon fill="black" stroke="black" points="1152,-74.51 1162.07,-71.22 1152.15,-67.52 1152,-74.51"/>
</a>
</g>
<text text-anchor="middle" x="951.38" y="-71.7" font-family="Times,serif" font-size="14.00">CALLS [rest] (sync)</text>
</g>
</g>
</svg>
