<?xml version="1.0" encoding="UTF-8" standalone="no"?>
<!DOCTYPE svg PUBLIC "-//W3C//DTD SVG 1.1//EN"
 "http://www.w3.org/Graphics/SVG/1.1/DTD/svg11.dtd">
<!-- Generated by graphviz version 9.0.0 (20230911.1827)
 -->
<!-- Title: G Pages: 1 -->
<svg width="1176pt" height="390pt"
 viewBox="0.00 0.00 1176.00 390.00" xmlns="http://www.w3.org/2000/svg" xmlns:xlink="http://www.w3.org/1999/xlink">
<g id="graph0" class="graph" transform="scale(1 1) rotate(0) translate(4 386)">
<title>G</title>
<polygon fill="white" stroke="none" points="-4,4 -4,-386 1172,-386 1172,4 -4,4"/>
<text text-anchor="middle" x="584" y="-364.7" font-family="Helvetica,sans-Serif" font-size="14.00">Architecture</text>
<!-- SERVICE:restaurants -->
<g id="node1" class="node">
<title>SERVICE:restaurants</title>
<path fill="#eef6ff" stroke="black" d="M100,-156C100,-156 35.25,-156 35.25,-156 29.25,-156 23.25,-150 23.25,-144 23.25,-144 23.25,-132 23.25,-132 23.25,-126 29.25,-120 35.25,-120 35.25,-120 100,-120 100,-120 106,-120 112,-126 112,-132 112,-132 112,-144 112,-144 112,-150 106,-156 100,-156"/>
<text text-anchor="middle" x="67.62" y="-133.7" font-family="Times,serif" font-size="14.00">restaurants</text>
</g>
<!-- SERVICE:database -->
<g id="node3" class="node">
<title>SERVICE:database</title>
<path fill="#eef6ff" stroke="black" d="M1156,-202C1156,-202 1105.5,-202 1105.5,-202 1099.5,-202 1093.5,-196 1093.5,-190 1093.5,-190 1093.5,-178 1093.5,-178 1093.5,-172 1099.5,-166 1105.5,-166 1105.5,-166 1156,-166 1156,-166 1162,-166 1168,-172 1168,-178 1168,-178 1168,-190 1168,-190 1168,-196 1162,-202 1156,-202"/>
<text text-anchor="middle" x="1130.75" y="-179.7" font-family="Times,serif" font-size="14.00">database</text>
</g>
<!-- SERVICE:restaurants&#45;&gt;SERVICE:database -->
<g id="edge6" class="edge">
<title>SERVICE:restaurants&#45;&gt;SERVICE:database</title>
<g id="a_edge6"><a xlink:title="edge#5">
<path fill="none" stroke="black" d="M101.3,-156.4C152.15,-183.24 254.02,-230 346.88,-230 346.88,-230 346.88,-230 901.25,-230 964.8,-230 1036.38,-212.69 1082.21,-199.3"/>
<polygon fill="black" stroke="black" points="1082.97,-202.73 1091.55,-196.52 1080.97,-196.02 1082.97,-202.73"/>
</a>
</g>
<text text-anchor="middle" x="633.75" y="-234.7" font-family="Times,serif" font-size="14.00">CALLS [rest] (sync)</text>
</g>
<!-- SERVICE:orders -->
<g id="node8" class="node">
<title>SERVICE:orders</title>
<path fill="#eef6ff" stroke="black" d="M364.5,-156C364.5,-156 331.25,-156 331.25,-156 325.25,-156 319.25,-150 319.25,-144 319.25,-144 319.25,-132 319.25,-132 319.25,-126 325.25,-120 331.25,-120 331.25,-120 364.5,-120 364.5,-120 370.5,-120 376.5,-126 376.5,-132 376.5,-132 376.5,-144 376.5,-144 376.5,-150 370.5,-156 364.5,-156"/>
<text text-anchor="middle" x="347.88" y="-133.7" font-family="Times,serif" font-size="14.00">orders</text>
</g>
<!-- SERVICE:restaurants&#45;&gt;SERVICE:orders -->
<g id="edge8" class="edge">
<title>SERVICE:restaurants&#45;&gt;SERVICE:orders</title>
<g id="a_edge8"><a xlink:title="edge#7">
<path fill="none" stroke="black" d="M112.41,-138C166.08,-138 256.22,-138 307.7,-138"/>
<polygon fill="black" stroke="black" points="307.48,-141.5 317.48,-138 307.48,-134.5 307.48,-141.5"/>
</a>
</g>
<text text-anchor="middle" x="212.12" y="-142.7" font-family="Times,serif" font-size="14.00">CALLS [rest] (sync)</text>
</g>
<!-- SERVICE:payments -->
<g id="node2" class="node">
<title>SERVICE:payments</title>
<path fill="#eef6ff" stroke="black" d="M927.75,-156C927.75,-156 872.75,-156 872.75,-156 866.75,-156 860.75,-150 860.75,-144 860.75,-144 860.75,-132 860.75,-132 860.75,-126 866.75,-120 872.75,-120 872.75,-120 927.75,-120 927.75,-120 933.75,-120 939.75,-126 939.75,-132 939.75,-132 939.75,-144 939.75,-144 939.75,-150 933.75,-156 927.75,-156"/>
<text text-anchor="middle" x="900.25" y="-133.7" font-family="Times,serif" font-size="14.00">payments</text>
</g>
<!-- SERVICE:payments&#45;&gt;SERVICE:database -->
<g id="edge7" class="edge">
<title>SERVICE:payments&#45;&gt;SERVICE:database</title>
<g id="a_edge7"><a xlink:title="edge#6">
<path fill="none" stroke="black" d="M939.93,-136.19C975.88,-135.65 1030.51,-137.76 1075.5,-152 1081.78,-153.99 1088.1,-156.81 1094.11,-159.97"/>
<polygon fill="black" stroke="black" points="1092.11,-162.85 1102.53,-164.75 1095.57,-156.77 1092.11,-162.85"/>
</a>
</g>
<text text-anchor="middle" x="1016.62" y="-156.7" font-family="Times,serif" font-size="14.00">CALLS [rest] (sync)</text>
</g>
<!-- SERVICE:service:web page -->
<g id="node4" class="node">
<title>SERVICE:service:web page</title>
<path fill="#eef6ff" stroke="black" d="M123.25,-329C123.25,-329 12,-329 12,-329 6,-329 0,-323 0,-317 0,-317 0,-305 0,-305 0,-299 6,-293 12,-293 12,-293 123.25,-293 123.25,-293 129.25,-293 135.25,-299 135.25,-305 135.25,-305 135.25,-317 135.25,-317 135.25,-323 129.25,-329 123.25,-329"/>
<text text-anchor="middle" x="67.62" y="-306.7" font-family="Times,serif" font-size="14.00">SERVICE:web page</text>
</g>
<!-- SERVICE:bff -->
<g id="node9" class="node">
<title>SERVICE:bff</title>
<path fill="#eef6ff" stroke="black" d="M362.88,-329C362.88,-329 332.88,-329 332.88,-329 326.88,-329 320.88,-323 320.88,-317 320.88,-317 320.88,-305 320.88,-305 320.88,-299 326.88,-293 332.88,-293 332.88,-293 362.88,-293 362.88,-293 368.88,-293 374.88,-299 374.88,-305 374.88,-305 374.88,-317 374.88,-317 374.88,-323 368.88,-329 362.88,-329"/>
<text text-anchor="middle" x="347.88" y="-306.7" font-family="Times,serif" font-size="14.00">bff</text>
</g>
<!-- SERVICE:service:web page&#45;&gt;SERVICE:bff -->
<g id="edge10" class="edge">
<title>SERVICE:service:web page&#45;&gt;SERVICE:bff</title>
<g id="a_edge10"><a xlink:title="edge#9">
<path fill="none" stroke="black" d="M135.63,-311C189.98,-311 264.64,-311 309.1,-311"/>
<polygon fill="black" stroke="black" points="309.02,-314.5 319.02,-311 309.02,-307.5 309.02,-314.5"/>
</a>
</g>
<text text-anchor="middle" x="212.12" y="-315.7" font-family="Times,serif" font-size="14.00">CALLS [rest] (sync)</text>
</g>
<!-- SERVICE:service:payments -->
<g id="node5" class="node">
<title>SERVICE:service:payments</title>
<path fill="#eef6ff" stroke="black" d="M690.12,-356C690.12,-356 577.38,-356 577.38,-356 571.38,-356 565.38,-350 565.38,-344 565.38,-344 565.38,-332 565.38,-332 565.38,-326 571.38,-320 577.38,-320 577.38,-320 690.12,-320 690.12,-320 696.12,-320 702.12,-326 702.12,-332 702.12,-332 702.12,-344 702.12,-344 702.12,-350 696.12,-356 690.12,-356"/>
<text text-anchor="middle" x="633.75" y="-333.7" font-family="Times,serif" font-size="14.00">SERVICE:payments</text>
</g>
<!-- SERVICE:user -->
<g id="node6" class="node">
<title>SERVICE:user</title>
<path fill="#eef6ff" stroke="black" d="M362.88,-36C362.88,-36 332.88,-36 332.88,-36 326.88,-36 320.88,-30 320.88,-24 320.88,-24 320.88,-12 320.88,-12 320.88,-6 326.88,0 332.88,0 332.88,0 362.88,0 362.88,0 368.88,0 374.88,-6 374.88,-12 374.88,-12 374.88,-24 374.88,-24 374.88,-30 368.88,-36 362.88,-36"/>
<text text-anchor="middle" x="347.88" y="-13.7" font-family="Times,serif" font-size="14.00">user</text>
</g>
<!-- SERVICE:web page -->
<g id="node7" class="node">
<title>SERVICE:web page</title>
<path fill="#eef6ff" stroke="black" d="M660.5,-96C660.5,-96 607,-96 607,-96 601,-96 595,-90 595,-84 595,-84 595,-72 595,-72 595,-66 601,-60 607,-60 607,-60 660.5,-60 660.5,-60 666.5,-60 672.5,-66 672.5,-72 672.5,-72 672.5,-84 672.5,-84 672.5,-90 666.5,-96 660.5,-96"/>
<text text-anchor="middle" x="633.75" y="-73.7" font-family="Times,serif" font-size="14.00">web page</text>
</g>
<!-- SERVICE:user&#45;&gt;SERVICE:web page -->
<g id="edge1" class="edge">
<title>SERVICE:user&#45;&gt;SERVICE:web page</title>
<g id="a_edge1"><a xlink:title="edge#0">
<path fill="none" stroke="black" d="M375.3,-18.63C412.99,-20.05 484.08,-24.72 542.5,-40 556.78,-43.73 571.75,-49.3 585.3,-55.04"/>
<polygon fill="black" stroke="black" points="583.87,-58.23 594.44,-59.03 586.67,-51.82 583.87,-58.23"/>
</a>
</g>
<text text-anchor="middle" x="483.62" y="-44.7" font-family="Times,serif" font-size="14.00">CALLS [rest] (sync)</text>
</g>
<!-- SERVICE:web page&#45;&gt;SERVICE:restaurants -->
<g id="edge3" class="edge">
<title>SERVICE:web page&#45;&gt;SERVICE:restaurants</title>
<g id="a_edge3"><a xlink:title="edge#2">
<path fill="none" stroke="black" d="M594.79,-79.31C553.09,-80.79 484.14,-83.33 424.75,-86 364.4,-88.72 348.93,-85.38 289,-93 231.98,-100.25 167.68,-114.04 123.32,-124.45"/>
<polygon fill="black" stroke="black" points="122.6,-121.02 113.68,-126.74 124.22,-127.84 122.6,-121.02"/>
</a>
</g>
<text text-anchor="middle" x="347.88" y="-97.7" font-family="Times,serif" font-size="14.00">CALLS [rest] (sync)</text>
</g>
<!-- SERVICE:web page&#45;&gt;SERVICE:payments -->
<g id="edge4" class="edge">
<title>SERVICE:web page&#45;&gt;SERVICE:payments</title>
<g id="a_edge4"><a xlink:title="edge#3">
<path fill="none" stroke="black" d="M672.93,-78.81C715.41,-80.7 785.6,-86.77 842.75,-106 849.05,-108.12 855.44,-110.96 861.55,-114.07"/>
<polygon fill="black" stroke="black" points="859.71,-117.06 870.17,-118.78 863.07,-110.91 859.71,-117.06"/>
</a>
</g>
<text text-anchor="middle" x="783.88" y="-110.7" font-family="Times,serif" font-size="14.00">CALLS [rest] (sync)</text>
</g>
<!-- SERVICE:orders&#45;&gt;SERVICE:payments -->
<g id="edge9" class="edge">
<title>SERVICE:orders&#45;&gt;SERVICE:payments</title>
<g id="a_edge9"><a xlink:title="edge#8">
<path fill="none" stroke="black" d="M376.92,-138C464.83,-138 735.81,-138 848.88,-138"/>
<polygon fill="black" stroke="black" points="848.77,-141.5 858.77,-138 848.77,-134.5 848.77,-141.5"/>
</a>
</g>
<text text-anchor="middle" x="633.75" y="-142.7" font-family="Times,serif" font-size="14.00">CALLS [rest] (sync)</text>
</g>
<!-- SERVICE:orders&#45;&gt;SERVICE:database -->
<g id="edge5" class="edge">
<title>SERVICE:orders&#45;&gt;SERVICE:database</title>
<g id="a_edge5"><a xlink:title="edge#4">
<path fill="none" stroke="black" d="M376.85,-144.02C391.12,-146.87 408.79,-150.07 424.75,-152 484.75,-159.27 500.14,-156.95 560.5,-160 753.68,-169.76 983.89,-178.62 1081.83,-182.25"/>
<polygon fill="black" stroke="black" points="1081.48,-185.74 1091.6,-182.61 1081.74,-178.74 1081.48,-185.74"/>
</a>
</g>
<text text-anchor="middle" x="783.88" y="-176.7" font-family="Times,serif" font-size="14.00">CALLS [rest] (sync)</text>
</g>
<!-- SERVICE:orders&#45;&gt;SERVICE:web page -->
<g id="edge2" class="edge">
<title>SERVICE:orders&#45;&gt;SERVICE:web page</title>
<g id="a_edge2"><a xlink:title="edge#1">
<path fill="none" stroke="black" d="M376.71,-124.16C390.79,-117.71 408.34,-110.48 424.75,-106 477.76,-91.53 540.51,-84.39 583.11,-80.97"/>
<polygon fill="black" stroke="black" points="583.36,-84.46 593.06,-80.21 582.83,-77.48 583.36,-84.46"/>
</a>
</g>
<text text-anchor="middle" x="483.62" y="-110.7" font-family="Times,serif" font-size="14.00">CALLS [rest] (sync)</text>
</g>
<!-- SERVICE:bff&#45;&gt;SERVICE:service:payments -->
<g id="edge11" class="edge">
<title>SERVICE:bff&#45;&gt;SERVICE:service:payments</title>
<g id="a_edge11"><a xlink:title="edge#10">
<path fill="none" stroke="black" d="M375.33,-313.52C415.61,-317.35 493.94,-324.8 553.66,-330.48"/>
<polygon fill="black" stroke="black" points="553.17,-333.95 563.46,-331.41 553.83,-326.98 553.17,-333.95"/>
</a>
</g>
<text text-anchor="middle" x="483.62" y="-333.7" font-family="Times,serif" font-size="14.00">CALLS [rest] (sync)</text>
</g>
<!-- SERVICE:service:restaurants -->
<g id="node10" class="node">
<title>SERVICE:service:restaurants</title>
<path fill="#eef6ff" stroke="black" d="M695,-302C695,-302 572.5,-302 572.5,-302 566.5,-302 560.5,-296 560.5,-290 560.5,-290 560.5,-278 560.5,-278 560.5,-272 566.5,-266 572.5,-266 572.5,-266 695,-266 695,-266 701,-266 707,-272 707,-278 707,-278 707,-290 707,-290 707,-296 701,-302 695,-302"/>
<text text-anchor="middle" x="633.75" y="-279.7" font-family="Times,serif" font-size="14.00">SERVICE:restaurants</text>
</g>
<!-- SERVICE:bff&#45;&gt;SERVICE:service:restaurants -->
<g id="edge12" class="edge">
<title>SERVICE:bff&#45;&gt;SERVICE:service:restaurants</title>
<g id="a_edge12"><a xlink:title="edge#11">
<path fill="none" stroke="black" d="M375.07,-304.9C389.62,-301.74 408.1,-298.12 424.75,-296 465.57,-290.81 511.19,-287.87 549.28,-286.19"/>
<polygon fill="black" stroke="black" points="548.97,-289.71 558.82,-285.8 548.68,-282.71 548.97,-289.71"/>
</a>
</g>
<text text-anchor="middle" x="483.62" y="-300.7" font-family="Times,serif" font-size="14.00">CALLS [rest] (sync)</text>
</g>
</g>
</svg>
