<?xml version="1.0" encoding="UTF-8" standalone="no"?>
<!DOCTYPE svg PUBLIC "-//W3C//DTD SVG 1.1//EN"
 "http://www.w3.org/Graphics/SVG/1.1/DTD/svg11.dtd">
<!-- Generated by graphviz version 9.0.0 (20230911.1827)
 -->
<!-- Title: G Pages: 1 -->
<svg width="782pt" height="108pt"
 viewBox="0.00 0.00 781.50 108.00" xmlns="http://www.w3.org/2000/svg" xmlns:xlink="http://www.w3.org/1999/xlink">
<g id="graph0" class="graph" transform="scale(1 1) rotate(0) translate(4 104)">
<title>G</title>
<polygon fill="white" stroke="none" points="-4,4 -4,-104 777.5,-104 777.5,4 -4,4"/>
<text text-anchor="middle" x="386.75" y="-82.7" font-family="Helvetica,sans-Serif" font-size="14.00">Architecture</text>
<!-- SERVICE:ui -->
<g id="node1" class="node">
<title>SERVICE:ui</title>
<path fill="#eef6ff" stroke="black" d="M42,-36C42,-36 12,-36 12,-36 6,-36 0,-30 0,-24 0,-24 0,-12 0,-12 0,-6 6,0 12,0 12,0 42,0 42,0 48,0 54,-6 54,-12 54,-12 54,-24 54,-24 54,-30 48,-36 42,-36"/>
<text text-anchor="middle" x="27" y="-13.7" font-family="Times,serif" font-size="14.00">ui</text>
</g>
<!-- SERVICE:bff -->
<g id="node4" class="node">
<title>SERVICE:bff</title>
<path fill="#eef6ff" stroke="black" d="M249.75,-36C249.75,-36 219.75,-36 219.75,-36 213.75,-36 207.75,-30 207.75,-24 207.75,-24 207.75,-12 207.75,-12 207.75,-6 213.75,0 219.75,0 219.75,0 249.75,0 249.75,0 255.75,0 261.75,-6 261.75,-12 261.75,-12 261.75,-24 261.75,-24 261.75,-30 255.75,-36 249.75,-36"/>
<text text-anchor="middle" x="234.75" y="-13.7" font-family="Times,serif" font-size="14.00">bff</text>
</g>
<!-- SERVICE:ui&#45;&gt;SERVICE:bff -->
<g id="edge2" class="edge">
<title>SERVICE:ui&#45;&gt;SERVICE:bff</title>
<g id="a_edge2"><a xlink:title="edge#1">
<path fill="none" stroke="black" d="M54.48,-18C90.43,-18 154.92,-18 195.96,-18"/>
<polygon fill="black" stroke="black" points="195.86,-21.5 205.86,-18 195.86,-14.5 195.86,-21.5"/>
</a>
</g>
<text text-anchor="middle" x="130.88" y="-22.7" font-family="Times,serif" font-size="14.00">CALLS [rest] (sync)</text>
</g>
<!-- SERVICE:orders -->
<g id="node2" class="node">
<title>SERVICE:orders</title>
<path fill="#eef6ff" stroke="black" d="M491,-74C491,-74 457.75,-74 457.75,-74 451.75,-74 445.75,-68 445.75,-62 445.75,-62 445.75,-50 445.75,-50 445.75,-44 451.75,-38 457.75,-38 457.75,-38 491,-38 491,-38 497,-38 503,-44 503,-50 503,-50 503,-62 503,-62 503,-68 497,-74 491,-74"/>
<text text-anchor="middle" x="474.38" y="-51.7" font-family="Times,serif" font-size="14.00">orders</text>
</g>
<!-- SERVICE:payments -->
<g id="node3" class="node">
<title>SERVICE:payments</title>
<path fill="#eef6ff" stroke="black" d="M761.5,-36C761.5,-36 706.5,-36 706.5,-36 700.5,-36 694.5,-30 694.5,-24 694.5,-24 694.5,-12 694.5,-12 694.5,-6 700.5,0 706.5,0 706.5,0 761.5,0 761.5,0 767.5,0 773.5,-6 773.5,-12 773.5,-12 773.5,-24 773.5,-24 773.5,-30 767.5,-36 761.5,-36"/>
<text text-anchor="middle" x="734" y="-13.7" font-family="Times,serif" font-size="14.00">payments</text>
</g>
<!-- SERVICE:orders&#45;&gt;SERVICE:payments -->
<g id="edge1" class="edge">
<title>SERVICE:orders&#45;&gt;SERVICE:payments</title>
<g id="a_edge1"><a xlink:title="edge#0">
<path fill="none" stroke="black" d="M503.44,-51.86C546.45,-45.52 629.3,-33.3 682.82,-25.4"/>
<polygon fill="black" stroke="black" points="683.22,-28.88 692.6,-23.96 682.2,-21.96 683.22,-28.88"/>
</a>
</g>
<text text-anchor="middle" x="613.88" y="-48.7" font-family="Times,serif" font-size="14.00">CALLS [rest] (async)</text>
</g>
<!-- SERVICE:bff&#45;&gt;SERVICE:orders -->
<g id="edge3" class="edge">
<title>SERVICE:bff&#45;&gt;SERVICE:orders</title>
<g id="a_edge3"><a xlink:title="edge#2">
<path fill="none" stroke="black" d="M262.09,-22.21C303.84,-28.89 385.46,-41.94 434.13,-49.72"/>
<polygon fill="black" stroke="black" points="433.53,-53.17 443.96,-51.3 434.63,-46.26 433.53,-53.17"/>
</a>
</g>
<text text-anchor="middle" x="338.62" y="-47.7" font-family="Times,serif" font-size="14.00">CALLS [rest] (sync)</text>
</g>
<!-- SERVICE:bff&#45;&gt;SERVICE:payments -->
<g id="edge4" class="edge">
<title>SERVICE:bff&#45;&gt;SERVICE:payments</title>
<g id="a_edge4"><a xlink:title="edge#3">
<path fill="none" stroke="black" d="M262.24,-16.65C297.29,-14.93 361.01,-12.06 415.5,-11 467.82,-9.98 480.92,-10.08 533.25,-11 584.25,-11.89 642.54,-14.07 682.93,-15.76"/>
<polygon fill="black" stroke="black" points="682.69,-19.25 692.83,-16.18 682.99,-12.26 682.69,-19.25"/>
</a>
</g>
<text text-anchor="middle" x="474.38" y="-15.7" font-family="Times,serif" font-size="14.00">CALLS [rest] (sync)</text>
</g>
</g>
</svg>
