<?xml version="1.0" encoding="UTF-8" standalone="no"?>
<!DOCTYPE svg PUBLIC "-//W3C//DTD SVG 1.1//EN"
 "http://www.w3.org/Graphics/SVG/1.1/DTD/svg11.dtd">
<!-- Generated by graphviz version 9.0.0 (20230911.1827)
 -->
<!-- Title: G Pages: 1 -->
<svg width="652pt" height="472pt"
 viewBox="0.00 0.00 652.00 472.00" xmlns="http://www.w3.org/2000/svg" xmlns:xlink="http://www.w3.org/1999/xlink">
<g id="graph0" class="graph" transform="scale(1 1) rotate(0) translate(4 468)">
<title>G</title>
<polygon fill="white" stroke="none" points="-4,4 -4,-468 648,-468 648,4 -4,4"/>
<text text-anchor="middle" x="322" y="-446.7" font-family="Helvetica,sans-Serif" font-size="14.00">Architecture</text>
<!-- SERVICE:discount -->
<g id="node1" class="node">
<title>SERVICE:discount</title>
<path fill="#eef6ff" stroke="black" d="M79.38,-36C79.38,-36 32.62,-36 32.62,-36 26.62,-36 20.62,-30 20.62,-24 20.62,-24 20.62,-12 20.62,-12 20.62,-6 26.62,0 32.62,0 32.62,0 79.38,0 79.38,0 85.38,0 91.38,-6 91.38,-12 91.38,-12 91.38,-24 91.38,-24 91.38,-30 85.38,-36 79.38,-36"/>
<text text-anchor="middle" x="56" y="-13.7" font-family="Times,serif" font-size="14.00">discount</text>
</g>
<!-- SERVICE:tax -->
<g id="node9" class="node">
<title>SERVICE:tax</title>
<path fill="#eef6ff" stroke="black" d="M339.62,-73C339.62,-73 309.62,-73 309.62,-73 303.62,-73 297.62,-67 297.62,-61 297.62,-61 297.62,-49 297.62,-49 297.62,-43 303.62,-37 309.62,-37 309.62,-37 339.62,-37 339.62,-37 345.62,-37 351.62,-43 351.62,-49 351.62,-49 351.62,-61 351.62,-61 351.62,-67 345.62,-73 339.62,-73"/>
<text text-anchor="middle" x="324.62" y="-50.7" font-family="Times,serif" font-size="14.00">tax</text>
</g>
<!-- SERVICE:discount&#45;&gt;SERVICE:tax -->
<g id="edge2" class="edge">
<title>SERVICE:discount&#45;&gt;SERVICE:tax</title>
<g id="a_edge2"><a xlink:title="edge#1">
<path fill="none" stroke="black" d="M91.86,-22.84C142.01,-29.8 234.18,-42.59 285.89,-49.76"/>
<polygon fill="black" stroke="black" points="285.31,-53.22 295.7,-51.12 286.27,-46.28 285.31,-53.22"/>
</a>
</g>
<text text-anchor="middle" x="188.88" y="-49.7" font-family="Times,serif" font-size="14.00">CALLS [rest] (sync)</text>
</g>
<!-- SERVICE:ops&#45;hub -->
<g id="node2" class="node">
<title>SERVICE:ops&#45;hub</title>
<path fill="#eef6ff" stroke="black" d="M347.25,-249C347.25,-249 302,-249 302,-249 296,-249 290,-243 290,-237 290,-237 290,-225 290,-225 290,-219 296,-213 302,-213 302,-213 347.25,-213 347.25,-213 353.25,-213 359.25,-219 359.25,-225 359.25,-225 359.25,-237 359.25,-237 359.25,-243 353.25,-249 347.25,-249"/>
<text text-anchor="middle" x="324.62" y="-226.7" font-family="Times,serif" font-size="14.00">ops&#45;hub</text>
</g>
<!-- SERVICE:audit&#45;log -->
<g id="node3" class="node">
<title>SERVICE:audit&#45;log</title>
<path fill="#eef6ff" stroke="black" d="M615.88,-384C615.88,-384 565.38,-384 565.38,-384 559.38,-384 553.38,-378 553.38,-372 553.38,-372 553.38,-360 553.38,-360 553.38,-354 559.38,-348 565.38,-348 565.38,-348 615.88,-348 615.88,-348 621.88,-348 627.88,-354 627.88,-360 627.88,-360 627.88,-372 627.88,-372 627.88,-378 621.88,-384 615.88,-384"/>
<text text-anchor="middle" x="590.62" y="-361.7" font-family="Times,serif" font-size="14.00">audit&#45;log</text>
</g>
<!-- SERVICE:ops&#45;hub&#45;&gt;SERVICE:audit&#45;log -->
<g id="edge8" class="edge">
<title>SERVICE:ops&#45;hub&#45;&gt;SERVICE:audit&#45;log</title>
<g id="a_edge8"><a xlink:title="edge#7">
<path fill="none" stroke="black" d="M335.64,-249.29C348.2,-270.42 371.72,-304.62 401.5,-323 444.32,-349.42 501.64,-359.64 541.71,-363.58"/>
<polygon fill="black" stroke="black" points="541.27,-367.05 551.54,-364.44 541.88,-360.08 541.27,-367.05"/>
</a>
</g>
<text text-anchor="middle" x="460.38" y="-364.7" font-family="Times,serif" font-size="14.00">CALLS [rest] (sync)</text>
</g>
<!-- SERVICE:emailer -->
<g id="node5" class="node">
<title>SERVICE:emailer</title>
<path fill="#eef6ff" stroke="black" d="M610.62,-330C610.62,-330 570.62,-330 570.62,-330 564.62,-330 558.62,-324 558.62,-318 558.62,-318 558.62,-306 558.62,-306 558.62,-300 564.62,-294 570.62,-294 570.62,-294 610.62,-294 610.62,-294 616.62,-294 622.62,-300 622.62,-306 622.62,-306 622.62,-318 622.62,-318 622.62,-324 616.62,-330 610.62,-330"/>
<text text-anchor="middle" x="590.62" y="-307.7" font-family="Times,serif" font-size="14.00">emailer</text>
</g>
<!-- SERVICE:ops&#45;hub&#45;&gt;SERVICE:emailer -->
<g id="edge6" class="edge">
<title>SERVICE:ops&#45;hub&#45;&gt;SERVICE:emailer</title>
<g id="a_edge6"><a xlink:title="edge#5">
<path fill="none" stroke="black" d="M354.97,-249.41C368.68,-257.33 385.48,-266.11 401.5,-272 449.78,-289.76 508.08,-300.63 546.86,-306.47"/>
<polygon fill="black" stroke="black" points="546.34,-309.93 556.74,-307.91 547.34,-303 546.34,-309.93"/>
</a>
</g>
<text text-anchor="middle" x="460.38" y="-305.7" font-family="Times,serif" font-size="14.00">CALLS [rest] (sync)</text>
</g>
<!-- SERVICE:report&#45;export -->
<g id="node6" class="node">
<title>SERVICE:report&#45;export</title>
<path fill="#eef6ff" stroke="black" d="M630.12,-276C630.12,-276 551.12,-276 551.12,-276 545.12,-276 539.12,-270 539.12,-264 539.12,-264 539.12,-252 539.12,-252 539.12,-246 545.12,-240 551.12,-240 551.12,-240 630.12,-240 630.12,-240 636.12,-240 642.12,-246 642.12,-252 642.12,-252 642.12,-264 642.12,-264 642.12,-270 636.12,-276 630.12,-276"/>
<text text-anchor="middle" x="590.62" y="-253.7" font-family="Times,serif" font-size="14.00">report&#45;export</text>
</g>
<!-- SERVICE:ops&#45;hub&#45;&gt;SERVICE:report&#45;export -->
<g id="edge11" class="edge">
<title>SERVICE:ops&#45;hub&#45;&gt;SERVICE:report&#45;export</title>
<g id="a_edge11"><a xlink:title="edge#10">
<path fill="none" stroke="black" d="M359.6,-234.47C402.02,-238.81 475.4,-246.32 527.88,-251.68"/>
<polygon fill="black" stroke="black" points="527.26,-255.14 537.56,-252.68 527.97,-248.18 527.26,-255.14"/>
</a>
</g>
<text text-anchor="middle" x="460.38" y="-254.7" font-family="Times,serif" font-size="14.00">CALLS [rest] (sync)</text>
</g>
<!-- SERVICE:cache&#45;proxy -->
<g id="node11" class="node">
<title>SERVICE:cache&#45;proxy</title>
<path fill="#eef6ff" stroke="black" d="M625.62,-222C625.62,-222 555.62,-222 555.62,-222 549.62,-222 543.62,-216 543.62,-210 543.62,-210 543.62,-198 543.62,-198 543.62,-192 549.62,-186 555.62,-186 555.62,-186 625.62,-186 625.62,-186 631.62,-186 637.62,-192 637.62,-198 637.62,-198 637.62,-210 637.62,-210 637.62,-216 631.62,-222 625.62,-222"/>
<text text-anchor="middle" x="590.62" y="-199.7" font-family="Times,serif" font-size="14.00">cache&#45;proxy</text>
</g>
<!-- SERVICE:ops&#45;hub&#45;&gt;SERVICE:cache&#45;proxy -->
<g id="edge9" class="edge">
<title>SERVICE:ops&#45;hub&#45;&gt;SERVICE:cache&#45;proxy</title>
<g id="a_edge9"><a xlink:title="edge#8">
<path fill="none" stroke="black" d="M359.52,-224.48C372.59,-222.15 387.7,-219.69 401.5,-218 445.25,-212.64 494.99,-209.04 532.33,-206.84"/>
<polygon fill="black" stroke="black" points="532.21,-210.35 541.99,-206.29 531.81,-203.37 532.21,-210.35"/>
</a>
</g>
<text text-anchor="middle" x="460.38" y="-222.7" font-family="Times,serif" font-size="14.00">CALLS [rest] (sync)</text>
</g>
<!-- SERVICE:sms&#45;gateway -->
<g id="node14" class="node">
<title>SERVICE:sms&#45;gateway</title>
<path fill="#eef6ff" stroke="black" d="M629.75,-168C629.75,-168 551.5,-168 551.5,-168 545.5,-168 539.5,-162 539.5,-156 539.5,-156 539.5,-144 539.5,-144 539.5,-138 545.5,-132 551.5,-132 551.5,-132 629.75,-132 629.75,-132 635.75,-132 641.75,-138 641.75,-144 641.75,-144 641.75,-156 641.75,-156 641.75,-162 635.75,-168 629.75,-168"/>
<text text-anchor="middle" x="590.62" y="-145.7" font-family="Times,serif" font-size="14.00">sms&#45;gateway</text>
</g>
<!-- SERVICE:ops&#45;hub&#45;&gt;SERVICE:sms&#45;gateway -->
<g id="edge7" class="edge">
<title>SERVICE:ops&#45;hub&#45;&gt;SERVICE:sms&#45;gateway</title>
<g id="a_edge7"><a xlink:title="edge#6">
<path fill="none" stroke="black" d="M350.76,-212.58C365,-202.99 383.51,-191.86 401.5,-185 442.15,-169.49 490.43,-160.69 527.91,-155.79"/>
<polygon fill="black" stroke="black" points="528.18,-159.29 537.67,-154.58 527.32,-152.34 528.18,-159.29"/>
</a>
</g>
<text text-anchor="middle" x="460.38" y="-189.7" font-family="Times,serif" font-size="14.00">CALLS [rest] (sync)</text>
</g>
<!-- SERVICE:metrics&#45;agent -->
<g id="node15" class="node">
<title>SERVICE:metrics&#45;agent</title>
<path fill="#eef6ff" stroke="black" d="M632,-114C632,-114 549.25,-114 549.25,-114 543.25,-114 537.25,-108 537.25,-102 537.25,-102 537.25,-90 537.25,-90 537.25,-84 543.25,-78 549.25,-78 549.25,-78 632,-78 632,-78 638,-78 644,-84 644,-90 644,-90 644,-102 644,-102 644,-108 638,-114 632,-114"/>
<text text-anchor="middle" x="590.62" y="-91.7" font-family="Times,serif" font-size="14.00">metrics&#45;agent</text>
</g>
<!-- SERVICE:ops&#45;hub&#45;&gt;SERVICE:metrics&#45;agent -->
<g id="edge10" class="edge">
<title>SERVICE:ops&#45;hub&#45;&gt;SERVICE:metrics&#45;agent</title>
<g id="a_edge10"><a xlink:title="edge#9">
<path fill="none" stroke="black" d="M334.94,-212.59C347.12,-190.51 370.59,-154.09 401.5,-135 438.83,-111.95 487.45,-102.29 525.92,-98.35"/>
<polygon fill="black" stroke="black" points="525.84,-101.87 535.48,-97.48 525.2,-94.9 525.84,-101.87"/>
</a>
</g>
<text text-anchor="middle" x="460.38" y="-139.7" font-family="Times,serif" font-size="14.00">CALLS [rest] (sync)</text>
</g>
<!-- SERVICE:pricing -->
<g id="node4" class="node">
<title>SERVICE:pricing</title>
<path fill="#eef6ff" stroke="black" d="M608.75,-50C608.75,-50 572.5,-50 572.5,-50 566.5,-50 560.5,-44 560.5,-38 560.5,-38 560.5,-26 560.5,-26 560.5,-20 566.5,-14 572.5,-14 572.5,-14 608.75,-14 608.75,-14 614.75,-14 620.75,-20 620.75,-26 620.75,-26 620.75,-38 620.75,-38 620.75,-44 614.75,-50 608.75,-50"/>
<text text-anchor="middle" x="590.62" y="-27.7" font-family="Times,serif" font-size="14.00">pricing</text>
</g>
<!-- SERVICE:pricing&#45;&gt;SERVICE:discount -->
<g id="edge1" class="edge">
<title>SERVICE:pricing&#45;&gt;SERVICE:discount</title>
<g id="a_edge1"><a xlink:title="edge#0">
<path fill="none" stroke="black" d="M560.01,-27.84C520.04,-22.45 446.57,-13.36 383.5,-10 283.56,-4.68 166.21,-10.5 102.98,-14.63"/>
<polygon fill="black" stroke="black" points="103.07,-11.11 93.33,-15.27 103.54,-18.1 103.07,-11.11"/>
</a>
</g>
<text text-anchor="middle" x="324.62" y="-14.7" font-family="Times,serif" font-size="14.00">CALLS [rest] (sync)</text>
</g>
<!-- SERVICE:user&#45;profile -->
<g id="node7" class="node">
<title>SERVICE:user&#45;profile</title>
<path fill="#eef6ff" stroke="black" d="M89.12,-438C89.12,-438 22.88,-438 22.88,-438 16.88,-438 10.88,-432 10.88,-426 10.88,-426 10.88,-414 10.88,-414 10.88,-408 16.88,-402 22.88,-402 22.88,-402 89.12,-402 89.12,-402 95.12,-402 101.12,-408 101.12,-414 101.12,-414 101.12,-426 101.12,-426 101.12,-432 95.12,-438 89.12,-438"/>
<text text-anchor="middle" x="56" y="-415.7" font-family="Times,serif" font-size="14.00">user&#45;profile</text>
</g>
<!-- DATABASE:user&#45;db -->
<g id="node12" class="node">
<title>DATABASE:user&#45;db</title>
<path fill="#fff3cd" stroke="black" d="M357.38,-380.73C357.38,-382.53 342.7,-384 324.62,-384 306.55,-384 291.88,-382.53 291.88,-380.73 291.88,-380.73 291.88,-351.27 291.88,-351.27 291.88,-349.47 306.55,-348 324.62,-348 342.7,-348 357.38,-349.47 357.38,-351.27 357.38,-351.27 357.38,-380.73 357.38,-380.73"/>
<path fill="none" stroke="black" d="M357.38,-380.73C357.38,-378.92 342.7,-377.45 324.62,-377.45 306.55,-377.45 291.88,-378.92 291.88,-380.73"/>
<text text-anchor="middle" x="324.62" y="-361.7" font-family="Times,serif" font-size="14.00">user&#45;db</text>
</g>
<!-- SERVICE:user&#45;profile&#45;&gt;DATABASE:user&#45;db -->
<g id="edge12" class="edge">
<title>SERVICE:user&#45;profile&#45;&gt;DATABASE:user&#45;db</title>
<g id="a_edge12"><a xlink:title="edge#11">
<path fill="none" stroke="black" d="M101.61,-414.01C140.45,-408.44 198.15,-399.31 247.75,-388 258.57,-385.53 270.13,-382.43 280.88,-379.34"/>
<polygon fill="black" stroke="black" points="281.66,-382.75 290.27,-376.57 279.69,-376.04 281.66,-382.75"/>
</a>
</g>
<text text-anchor="middle" x="188.88" y="-413.7" font-family="Times,serif" font-size="14.00">CALLS [rest] (sync)</text>
</g>
<!-- SERVICE:notifications -->
<g id="node8" class="node">
<title>SERVICE:notifications</title>
<path fill="#eef6ff" stroke="black" d="M92.12,-384C92.12,-384 19.88,-384 19.88,-384 13.88,-384 7.88,-378 7.88,-372 7.88,-372 7.88,-360 7.88,-360 7.88,-354 13.88,-348 19.88,-348 19.88,-348 92.12,-348 92.12,-348 98.12,-348 104.12,-354 104.12,-360 104.12,-360 104.12,-372 104.12,-372 104.12,-378 98.12,-384 92.12,-384"/>
<text text-anchor="middle" x="56" y="-361.7" font-family="Times,serif" font-size="14.00">notifications</text>
</g>
<!-- SERVICE:notifications&#45;&gt;DATABASE:user&#45;db -->
<g id="edge14" class="edge">
<title>SERVICE:notifications&#45;&gt;DATABASE:user&#45;db</title>
<g id="a_edge14"><a xlink:title="edge#13">
<path fill="none" stroke="black" d="M104.36,-366C154.27,-366 232.19,-366 280.45,-366"/>
<polygon fill="black" stroke="black" points="280.24,-369.5 290.24,-366 280.24,-362.5 280.24,-369.5"/>
</a>
</g>
<text text-anchor="middle" x="188.88" y="-370.7" font-family="Times,serif" font-size="14.00">CALLS [rest] (sync)</text>
</g>
<!-- SERVICE:tax&#45;&gt;SERVICE:pricing -->
<g id="edge3" class="edge">
<title>SERVICE:tax&#45;&gt;SERVICE:pricing</title>
<g id="a_edge3"><a xlink:title="edge#2">
<path fill="none" stroke="black" d="M351.9,-52.71C398.08,-48.69 494.05,-40.33 548.88,-35.55"/>
<polygon fill="black" stroke="black" points="549.09,-39.05 558.74,-34.69 548.48,-32.07 549.09,-39.05"/>
</a>
</g>
<text text-anchor="middle" x="460.38" y="-53.7" font-family="Times,serif" font-size="14.00">CALLS [rest] (sync)</text>
</g>
<!-- SERVICE:scheduler -->
<g id="node10" class="node">
<title>SERVICE:scheduler</title>
<path fill="#eef6ff" stroke="black" d="M82.75,-276C82.75,-276 29.25,-276 29.25,-276 23.25,-276 17.25,-270 17.25,-264 17.25,-264 17.25,-252 17.25,-252 17.25,-246 23.25,-240 29.25,-240 29.25,-240 82.75,-240 82.75,-240 88.75,-240 94.75,-246 94.75,-252 94.75,-252 94.75,-264 94.75,-264 94.75,-270 88.75,-276 82.75,-276"/>
<text text-anchor="middle" x="56" y="-253.7" font-family="Times,serif" font-size="14.00">scheduler</text>
</g>
<!-- SERVICE:scheduler&#45;&gt;SERVICE:ops&#45;hub -->
<g id="edge4" class="edge">
<title>SERVICE:scheduler&#45;&gt;SERVICE:ops&#45;hub</title>
<g id="a_edge4"><a xlink:title="edge#3">
<path fill="none" stroke="black" d="M95.2,-254.13C143.56,-249.23 226.76,-240.81 278.28,-235.59"/>
<polygon fill="black" stroke="black" points="278.61,-239.08 288.21,-234.59 277.91,-232.11 278.61,-239.08"/>
</a>
</g>
<text text-anchor="middle" x="188.88" y="-254.7" font-family="Times,serif" font-size="14.00">CALLS [rest] (sync)</text>
</g>
<!-- SERVICE:admin&#45;console -->
<g id="node13" class="node">
<title>SERVICE:admin&#45;console</title>
<path fill="#eef6ff" stroke="black" d="M100,-222C100,-222 12,-222 12,-222 6,-222 0,-216 0,-210 0,-210 0,-198 0,-198 0,-192 6,-186 12,-186 12,-186 100,-186 100,-186 106,-186 112,-192 112,-198 112,-198 112,-210 112,-210 112,-216 106,-222 100,-222"/>
<text text-anchor="middle" x="56" y="-199.7" font-family="Times,serif" font-size="14.00">admin&#45;console</text>
</g>
<!-- SERVICE:admin&#45;console&#45;&gt;SERVICE:ops&#45;hub -->
<g id="edge5" class="edge">
<title>SERVICE:admin&#45;console&#45;&gt;SERVICE:ops&#45;hub</title>
<g id="a_edge5"><a xlink:title="edge#4">
<path fill="none" stroke="black" d="M112.28,-205.54C150.46,-207.08 202.34,-210.11 247.75,-216 257.81,-217.31 268.54,-219.15 278.68,-221.09"/>
<polygon fill="black" stroke="black" points="277.81,-224.49 288.31,-223.02 279.18,-217.63 277.81,-224.49"/>
</a>
</g>
<text text-anchor="middle" x="188.88" y="-220.7" font-family="Times,serif" font-size="14.00">CALLS [rest] (sync)</text>
</g>
<!-- SERVICE:preferences -->
<g id="node16" class="node">
<title>SERVICE:preferences</title>
<path fill="#eef6ff" stroke="black" d="M89.5,-330C89.5,-330 22.5,-330 22.5,-330 16.5,-330 10.5,-324 10.5,-318 10.5,-318 10.5,-306 10.5,-306 10.5,-300 16.5,-294 22.5,-294 22.5,-294 89.5,-294 89.5,-294 95.5,-294 101.5,-300 101.5,-306 101.5,-306 101.5,-318 101.5,-318 101.5,-324 95.5,-330 89.5,-330"/>
<text text-anchor="middle" x="56" y="-307.7" font-family="Times,serif" font-size="14.00">preferences</text>
</g>
<!-- SERVICE:preferences&#45;&gt;DATABASE:user&#45;db -->
<g id="edge13" class="edge">
<title>SERVICE:preferences&#45;&gt;DATABASE:user&#45;db</title>
<g id="a_edge13"><a xlink:title="edge#12">
<path fill="none" stroke="black" d="M102,-318.04C140.83,-323.62 198.31,-332.73 247.75,-344 258.57,-346.47 270.13,-349.57 280.88,-352.66"/>
<polygon fill="black" stroke="black" points="279.69,-355.96 290.27,-355.43 281.66,-349.25 279.69,-355.96"/>
</a>
</g>
<text text-anchor="middle" x="188.88" y="-348.7" font-family="Times,serif" font-size="14.00">CALLS [rest] (sync)</text>
</g>
</g>
</svg>
