<?xml version="1.0" encoding="UTF-8" standalone="no"?>
<!DOCTYPE svg PUBLIC "-//W3C//DTD SVG 1.1//EN"
 "http://www.w3.org/Graphics/SVG/1.1/DTD/svg11.dtd">
<!-- Generated by graphviz version 9.0.0 (20230911.1827)
 -->
<!-- Title: G Pages: 1 -->
<svg width="2797pt" height="304pt"
 viewBox="0.00 0.00 2797.25 304.00" xmlns="http://www.w3.org/2000/svg" xmlns:xlink="http://www.w3.org/1999/xlink">
<g id="graph0" class="graph" transform="scale(1 1) rotate(0) translate(4 300)">
<title>G</title>
<polygon fill="white" stroke="none" points="-4,4 -4,-300 2793.25,-300 2793.25,4 -4,4"/>
<text text-anchor="middle" x="1394.62" y="-278.7" font-family="Helvetica,sans-Serif" font-size="14.00">Architecture</text>
<!-- SERVICE:web&#45;ui -->
<g id="node1" class="node">
<title>SERVICE:web&#45;ui</title>
<path fill="#eef6ff" stroke="black" d="M48.25,-189C48.25,-189 12,-189 12,-189 6,-189 0,-183 0,-177 0,-177 0,-165 0,-165 0,-159 6,-153 12,-153 12,-153 48.25,-153 48.25,-153 54.25,-153 60.25,-159 60.25,-165 60.25,-165 60.25,-177 60.25,-177 60.25,-183 54.25,-189 48.25,-189"/>
<text text-anchor="middle" x="30.12" y="-166.7" font-family="Times,serif" font-size="14.00">web&#45;ui</text>
</g>
<!-- SERVICE:bff&#45;1 -->
<g id="node13" class="node">
<title>SERVICE:bff&#45;1</title>
<path fill="#eef6ff" stroke="black" d="M256,-189C256,-189 226,-189 226,-189 220,-189 214,-183 214,-177 214,-177 214,-165 214,-165 214,-159 220,-153 226,-153 226,-153 256,-153 256,-153 262,-153 268,-159 268,-165 268,-165 268,-177 268,-177 268,-183 262,-189 256,-189"/>
<text text-anchor="middle" x="241" y="-166.7" font-family="Times,serif" font-size="14.00">bff&#45;1</text>
</g>
<!-- SERVICE:web&#45;ui&#45;&gt;SERVICE:bff&#45;1 -->
<g id="edge16" class="edge">
<title>SERVICE:web&#45;ui&#45;&gt;SERVICE:bff&#45;1</title>
<g id="a_edge16"><a xlink:title="edge#15">
<path fill="none" stroke="black" d="M60.61,-171C97.76,-171 161.66,-171 202.32,-171"/>
<polygon fill="black" stroke="black" points="202.12,-174.5 212.12,-171 202.12,-167.5 202.12,-174.5"/>
</a>
</g>
<text text-anchor="middle" x="137.12" y="-175.7" font-family="Times,serif" font-size="14.00">CALLS [rest] (sync)</text>
</g>
<!-- SERVICE:auth -->
<g id="node2" class="node">
<title>SERVICE:auth</title>
<path fill="#eef6ff" stroke="black" d="M1002.12,-214C1002.12,-214 972.12,-214 972.12,-214 966.12,-214 960.12,-208 960.12,-202 960.12,-202 960.12,-190 960.12,-190 960.12,-184 966.12,-178 972.12,-178 972.12,-178 1002.12,-178 1002.12,-178 1008.12,-178 1014.12,-184 1014.12,-190 1014.12,-190 1014.12,-202 1014.12,-202 1014.12,-208 1008.12,-214 1002.12,-214"/>
<text text-anchor="middle" x="987.12" y="-191.7" font-family="Times,serif" font-size="14.00">auth</text>
</g>
<!-- SERVICE:catalog -->
<g id="node3" class="node">
<title>SERVICE:catalog</title>
<path fill="#eef6ff" stroke="black" d="M1744.5,-257C1744.5,-257 1705.25,-257 1705.25,-257 1699.25,-257 1693.25,-251 1693.25,-245 1693.25,-245 1693.25,-233 1693.25,-233 1693.25,-227 1699.25,-221 1705.25,-221 1705.25,-221 1744.5,-221 1744.5,-221 1750.5,-221 1756.5,-227 1756.5,-233 1756.5,-233 1756.5,-245 1756.5,-245 1756.5,-251 1750.5,-257 1744.5,-257"/>
<text text-anchor="middle" x="1724.88" y="-234.7" font-family="Times,serif" font-size="14.00">catalog</text>
</g>
<!-- DATABASE:shared&#45;db -->
<g id="node11" class="node">
<title>DATABASE:shared&#45;db</title>
<path fill="#fff3cd" stroke="black" d="M2789.25,-190.73C2789.25,-192.53 2770.87,-194 2748.25,-194 2725.63,-194 2707.25,-192.53 2707.25,-190.73 2707.25,-190.73 2707.25,-161.27 2707.25,-161.27 2707.25,-159.47 2725.63,-158 2748.25,-158 2770.87,-158 2789.25,-159.47 2789.25,-161.27 2789.25,-161.27 2789.25,-190.73 2789.25,-190.73"/>
<path fill="none" stroke="black" d="M2789.25,-190.73C2789.25,-188.92 2770.87,-187.45 2748.25,-187.45 2725.63,-187.45 2707.25,-188.92 2707.25,-190.73"/>
<text text-anchor="middle" x="2748.25" y="-171.7" font-family="Times,serif" font-size="14.00">shared&#45;db</text>
</g>
<!-- SERVICE:catalog&#45;&gt;DATABASE:shared&#45;db -->
<g id="edge4" class="edge">
<title>SERVICE:catalog&#45;&gt;DATABASE:shared&#45;db</title>
<g id="a_edge4"><a xlink:title="edge#3">
<path fill="none" stroke="black" d="M1756.73,-239C1804.98,-239 1901.22,-239 1982.88,-239 1982.88,-239 1982.88,-239 2508.62,-239 2590.15,-239 2612.2,-233.66 2689.25,-207 2695.54,-204.82 2701.97,-202.03 2708.16,-199.02"/>
<polygon fill="black" stroke="black" points="2709.64,-202.19 2716.92,-194.49 2706.43,-195.97 2709.64,-202.19"/>
</a>
</g>
<text text-anchor="middle" x="2249.12" y="-243.7" font-family="Times,serif" font-size="14.00">CALLS [rest] (sync)</text>
</g>
<!-- SERVICE:payments -->
<g id="node4" class="node">
<title>SERVICE:payments</title>
<path fill="#eef6ff" stroke="black" d="M1268.62,-78C1268.62,-78 1213.62,-78 1213.62,-78 1207.62,-78 1201.62,-72 1201.62,-66 1201.62,-66 1201.62,-54 1201.62,-54 1201.62,-48 1207.62,-42 1213.62,-42 1213.62,-42 1268.62,-42 1268.62,-42 1274.62,-42 1280.62,-48 1280.62,-54 1280.62,-54 1280.62,-66 1280.62,-66 1280.62,-72 1274.62,-78 1268.62,-78"/>
<text text-anchor="middle" x="1241.12" y="-55.7" font-family="Times,serif" font-size="14.00">payments</text>
</g>
<!-- SERVICE:orders -->
<g id="node10" class="node">
<title>SERVICE:orders</title>
<path fill="#eef6ff" stroke="black" d="M1506.5,-112C1506.5,-112 1473.25,-112 1473.25,-112 1467.25,-112 1461.25,-106 1461.25,-100 1461.25,-100 1461.25,-88 1461.25,-88 1461.25,-82 1467.25,-76 1473.25,-76 1473.25,-76 1506.5,-76 1506.5,-76 1512.5,-76 1518.5,-82 1518.5,-88 1518.5,-88 1518.5,-100 1518.5,-100 1518.5,-106 1512.5,-112 1506.5,-112"/>
<text text-anchor="middle" x="1489.88" y="-89.7" font-family="Times,serif" font-size="14.00">orders</text>
</g>
<!-- SERVICE:payments&#45;&gt;SERVICE:orders -->
<g id="edge3" class="edge">
<title>SERVICE:payments&#45;&gt;SERVICE:orders</title>
<g id="a_edge3"><a xlink:title="edge#2">
<path fill="none" stroke="black" d="M1280.79,-56.19C1321.93,-53.36 1388.49,-52.32 1443.25,-68 1445.84,-68.74 1448.44,-69.66 1451.01,-70.7"/>
<polygon fill="black" stroke="black" points="1449.43,-73.82 1459.96,-74.91 1452.4,-67.49 1449.43,-73.82"/>
</a>
</g>
<text text-anchor="middle" x="1380.62" y="-72.7" font-family="Times,serif" font-size="14.00">CALLS [rest] (async)</text>
</g>
<!-- SERVICE:inventory -->
<g id="node5" class="node">
<title>SERVICE:inventory</title>
<path fill="#eef6ff" stroke="black" d="M1880.38,-111C1880.38,-111 1828.38,-111 1828.38,-111 1822.38,-111 1816.38,-105 1816.38,-99 1816.38,-99 1816.38,-87 1816.38,-87 1816.38,-81 1822.38,-75 1828.38,-75 1828.38,-75 1880.38,-75 1880.38,-75 1886.38,-75 1892.38,-81 1892.38,-87 1892.38,-87 1892.38,-99 1892.38,-99 1892.38,-105 1886.38,-111 1880.38,-111"/>
<text text-anchor="middle" x="1854.38" y="-88.7" font-family="Times,serif" font-size="14.00">inventory</text>
</g>
<!-- SERVICE:inventory&#45;&gt;DATABASE:shared&#45;db -->
<g id="edge7" class="edge">
<title>SERVICE:inventory&#45;&gt;DATABASE:shared&#45;db</title>
<g id="a_edge7"><a xlink:title="edge#6">
<path fill="none" stroke="black" d="M1892.83,-93C1942.87,-93 2034.29,-93 2112.38,-93 2112.38,-93 2112.38,-93 2508.62,-93 2581.82,-93 2660.99,-128.27 2707.24,-152.83"/>
<polygon fill="black" stroke="black" points="2705.36,-155.79 2715.82,-157.47 2708.69,-149.63 2705.36,-155.79"/>
</a>
</g>
<text text-anchor="middle" x="2249.12" y="-97.7" font-family="Times,serif" font-size="14.00">CALLS [rest] (sync)</text>
</g>
<!-- SERVICE:orders_split -->
<g id="node6" class="node">
<title>SERVICE:orders_split</title>
<path fill="#eef6ff" stroke="black" d="M2541.5,-165C2541.5,-165 2473.75,-165 2473.75,-165 2467.75,-165 2461.75,-159 2461.75,-153 2461.75,-153 2461.75,-141 2461.75,-141 2461.75,-135 2467.75,-129 2473.75,-129 2473.75,-129 2541.5,-129 2541.5,-129 2547.5,-129 2553.5,-135 2553.5,-141 2553.5,-141 2553.5,-153 2553.5,-153 2553.5,-159 2547.5,-165 2541.5,-165"/>
<text text-anchor="middle" x="2507.62" y="-142.7" font-family="Times,serif" font-size="14.00">orders_split</text>
</g>
<!-- SERVICE:orders_split&#45;&gt;DATABASE:shared&#45;db -->
<g id="edge6" class="edge">
<title>SERVICE:orders_split&#45;&gt;DATABASE:shared&#45;db</title>
<g id="a_edge6"><a xlink:title="edge#5">
<path fill="none" stroke="black" d="M2553.8,-148.3C2590.5,-149.88 2643.49,-153.37 2689.25,-161 2691.4,-161.36 2693.6,-161.76 2695.8,-162.19"/>
<polygon fill="black" stroke="black" points="2694.89,-165.58 2705.4,-164.27 2696.37,-158.74 2694.89,-165.58"/>
</a>
</g>
<text text-anchor="middle" x="2630.38" y="-165.7" font-family="Times,serif" font-size="14.00">CALLS [rest] (sync)</text>
</g>
<!-- SERVICE:bff_split -->
<g id="node7" class="node">
<title>SERVICE:bff_split</title>
<path fill="#eef6ff" stroke="black" d="M1009,-268C1009,-268 965.25,-268 965.25,-268 959.25,-268 953.25,-262 953.25,-256 953.25,-256 953.25,-244 953.25,-244 953.25,-238 959.25,-232 965.25,-232 965.25,-232 1009,-232 1009,-232 1015,-232 1021,-238 1021,-244 1021,-244 1021,-256 1021,-256 1021,-262 1015,-268 1009,-268"/>
<text text-anchor="middle" x="987.12" y="-245.7" font-family="Times,serif" font-size="14.00">bff_split</text>
</g>
<!-- SERVICE:bff_split&#45;&gt;SERVICE:catalog -->
<g id="edge11" class="edge">
<title>SERVICE:bff_split&#45;&gt;SERVICE:catalog</title>
<g id="a_edge11"><a xlink:title="edge#10">
<path fill="none" stroke="black" d="M1021.42,-250.67C1118.82,-252.44 1411.65,-256.35 1654.25,-245 1663.2,-244.58 1672.77,-243.91 1681.87,-243.16"/>
<polygon fill="black" stroke="black" points="1681.9,-246.67 1691.55,-242.31 1681.29,-239.69 1681.9,-246.67"/>
</a>
</g>
<text text-anchor="middle" x="1380.62" y="-256.7" font-family="Times,serif" font-size="14.00">CALLS [rest] (sync)</text>
</g>
<!-- SERVICE:bff_split_split -->
<g id="node16" class="node">
<title>SERVICE:bff_split_split</title>
<path fill="#eef6ff" stroke="black" d="M1280.25,-231C1280.25,-231 1202,-231 1202,-231 1196,-231 1190,-225 1190,-219 1190,-219 1190,-207 1190,-207 1190,-201 1196,-195 1202,-195 1202,-195 1280.25,-195 1280.25,-195 1286.25,-195 1292.25,-201 1292.25,-207 1292.25,-207 1292.25,-219 1292.25,-219 1292.25,-225 1286.25,-231 1280.25,-231"/>
<text text-anchor="middle" x="1241.12" y="-208.7" font-family="Times,serif" font-size="14.00">bff_split_split</text>
</g>
<!-- SERVICE:bff_split&#45;&gt;SERVICE:bff_split_split -->
<g id="edge22" class="edge">
<title>SERVICE:bff_split&#45;&gt;SERVICE:bff_split_split</title>
<g id="a_edge22"><a xlink:title="edge#21">
<path fill="none" stroke="black" d="M1021.45,-232.93C1027.18,-230.58 1033.17,-228.47 1039,-227 1084.82,-215.45 1138.24,-212.18 1178.5,-211.68"/>
<polygon fill="black" stroke="black" points="1178.27,-215.18 1188.25,-211.62 1178.22,-208.18 1178.27,-215.18"/>
</a>
</g>
<text text-anchor="middle" x="1101.62" y="-231.7" font-family="Times,serif" font-size="14.00">CALLS [rest] (async)</text>
</g>
<!-- SERVICE:web&#45;ui_split_split -->
<g id="node8" class="node">
<title>SERVICE:web&#45;ui_split_split</title>
<path fill="#eef6ff" stroke="black" d="M787.5,-36C787.5,-36 682.25,-36 682.25,-36 676.25,-36 670.25,-30 670.25,-24 670.25,-24 670.25,-12 670.25,-12 670.25,-6 676.25,0 682.25,0 682.25,0 787.5,0 787.5,0 793.5,0 799.5,-6 799.5,-12 799.5,-12 799.5,-24 799.5,-24 799.5,-30 793.5,-36 787.5,-36"/>
<text text-anchor="middle" x="734.88" y="-13.7" font-family="Times,serif" font-size="14.00">web&#45;ui_split_split</text>
</g>
<!-- SERVICE:bff&#45;4 -->
<g id="node19" class="node">
<title>SERVICE:bff&#45;4</title>
<path fill="#eef6ff" stroke="black" d="M1002.12,-36C1002.12,-36 972.12,-36 972.12,-36 966.12,-36 960.12,-30 960.12,-24 960.12,-24 960.12,-12 960.12,-12 960.12,-6 966.12,0 972.12,0 972.12,0 1002.12,0 1002.12,0 1008.12,0 1014.12,-6 1014.12,-12 1014.12,-12 1014.12,-24 1014.12,-24 1014.12,-30 1008.12,-36 1002.12,-36"/>
<text text-anchor="middle" x="987.12" y="-13.7" font-family="Times,serif" font-size="14.00">bff&#45;4</text>
</g>
<!-- SERVICE:web&#45;ui_split_split&#45;&gt;SERVICE:bff&#45;4 -->
<g id="edge27" class="edge">
<title>SERVICE:web&#45;ui_split_split&#45;&gt;SERVICE:bff&#45;4</title>
<g id="a_edge27"><a xlink:title="edge#26">
<path fill="none" stroke="black" d="M800,-18C846.98,-18 909.16,-18 948.41,-18"/>
<polygon fill="black" stroke="black" points="948.3,-21.5 958.3,-18 948.29,-14.5 948.3,-21.5"/>
</a>
</g>
<text text-anchor="middle" x="876.38" y="-22.7" font-family="Times,serif" font-size="14.00">CALLS [rest] (sync)</text>
</g>
<!-- SERVICE:cart -->
<g id="node9" class="node">
<title>SERVICE:cart</title>
<path fill="#eef6ff" stroke="black" d="M1504.88,-221C1504.88,-221 1474.88,-221 1474.88,-221 1468.88,-221 1462.88,-215 1462.88,-209 1462.88,-209 1462.88,-197 1462.88,-197 1462.88,-191 1468.88,-185 1474.88,-185 1474.88,-185 1504.88,-185 1504.88,-185 1510.88,-185 1516.88,-191 1516.88,-197 1516.88,-197 1516.88,-209 1516.88,-209 1516.88,-215 1510.88,-221 1504.88,-221"/>
<text text-anchor="middle" x="1489.88" y="-198.7" font-family="Times,serif" font-size="14.00">cart</text>
</g>
<!-- SERVICE:cart&#45;&gt;SERVICE:catalog -->
<g id="edge1" class="edge">
<title>SERVICE:cart&#45;&gt;SERVICE:catalog</title>
<g id="a_edge1"><a xlink:title="edge#0">
<path fill="none" stroke="black" d="M1517.22,-206.67C1549.54,-211.21 1605.98,-219.3 1654.25,-227 1663.19,-228.43 1672.77,-230.03 1681.87,-231.59"/>
<polygon fill="black" stroke="black" points="1681.11,-235.01 1691.56,-233.26 1682.31,-228.11 1681.11,-235.01"/>
</a>
</g>
<text text-anchor="middle" x="1595.38" y="-231.7" font-family="Times,serif" font-size="14.00">CALLS [rest] (sync)</text>
</g>
<!-- SERVICE:cart&#45;&gt;DATABASE:shared&#45;db -->
<g id="edge5" class="edge">
<title>SERVICE:cart&#45;&gt;DATABASE:shared&#45;db</title>
<g id="a_edge5"><a xlink:title="edge#4">
<path fill="none" stroke="black" d="M1517.07,-201.14C1560.17,-198.25 1648.77,-193 1723.88,-193 1723.88,-193 1723.88,-193 2508.62,-193 2573.09,-193 2647.09,-186.75 2695.38,-181.83"/>
<polygon fill="black" stroke="black" points="2695.69,-185.32 2705.27,-180.8 2694.97,-178.36 2695.69,-185.32"/>
</a>
</g>
<text text-anchor="middle" x="2113.38" y="-197.7" font-family="Times,serif" font-size="14.00">CALLS [rest] (sync)</text>
</g>
<!-- SERVICE:orders&#45;&gt;SERVICE:inventory -->
<g id="edge2" class="edge">
<title>SERVICE:orders&#45;&gt;SERVICE:inventory</title>
<g id="a_edge2"><a xlink:title="edge#1">
<path fill="none" stroke="black" d="M1518.72,-93.92C1580.06,-93.75 1727.52,-93.35 1804.59,-93.13"/>
<polygon fill="black" stroke="black" points="1804.38,-96.64 1814.37,-93.11 1804.36,-89.64 1804.38,-96.64"/>
</a>
</g>
<text text-anchor="middle" x="1595.38" y="-97.7" font-family="Times,serif" font-size="14.00">CALLS [rest] (sync)</text>
</g>
<!-- SERVICE:orders_split&#45;3 -->
<g id="node20" class="node">
<title>SERVICE:orders_split&#45;3</title>
<path fill="#eef6ff" stroke="black" d="M1765.5,-159C1765.5,-159 1684.25,-159 1684.25,-159 1678.25,-159 1672.25,-153 1672.25,-147 1672.25,-147 1672.25,-135 1672.25,-135 1672.25,-129 1678.25,-123 1684.25,-123 1684.25,-123 1765.5,-123 1765.5,-123 1771.5,-123 1777.5,-129 1777.5,-135 1777.5,-135 1777.5,-147 1777.5,-147 1777.5,-153 1771.5,-159 1765.5,-159"/>
<text text-anchor="middle" x="1724.88" y="-136.7" font-family="Times,serif" font-size="14.00">orders_split&#45;3</text>
</g>
<!-- SERVICE:orders&#45;&gt;SERVICE:orders_split&#45;3 -->
<g id="edge30" class="edge">
<title>SERVICE:orders&#45;&gt;SERVICE:orders_split&#45;3</title>
<g id="a_edge30"><a xlink:title="edge#29">
<path fill="none" stroke="black" d="M1518.79,-109.17C1524.52,-111.79 1530.6,-114.23 1536.5,-116 1576.96,-128.12 1624.09,-134.37 1660.96,-137.59"/>
<polygon fill="black" stroke="black" points="1660.3,-141.05 1670.55,-138.37 1660.87,-134.07 1660.3,-141.05"/>
</a>
</g>
<text text-anchor="middle" x="1595.38" y="-140.7" font-family="Times,serif" font-size="14.00">CALLS [rest] (sync)</text>
</g>
<!-- SERVICE:bff -->
<g id="node12" class="node">
<title>SERVICE:bff</title>
<path fill="#eef6ff" stroke="black" d="M484.12,-189C484.12,-189 454.12,-189 454.12,-189 448.12,-189 442.12,-183 442.12,-177 442.12,-177 442.12,-165 442.12,-165 442.12,-159 448.12,-153 454.12,-153 454.12,-153 484.12,-153 484.12,-153 490.12,-153 496.12,-159 496.12,-165 496.12,-165 496.12,-177 496.12,-177 496.12,-183 490.12,-189 484.12,-189"/>
<text text-anchor="middle" x="469.12" y="-166.7" font-family="Times,serif" font-size="14.00">bff</text>
</g>
<!-- SERVICE:bff&#45;&gt;SERVICE:payments -->
<g id="edge9" class="edge">
<title>SERVICE:bff&#45;&gt;SERVICE:payments</title>
<g id="a_edge9"><a xlink:title="edge#8">
<path fill="none" stroke="black" d="M496.56,-170.33C620.19,-167.13 1136.49,-152.59 1164.25,-133 1181.18,-121.05 1168.21,-105.24 1182.25,-90 1185.1,-86.9 1188.35,-84.08 1191.81,-81.5"/>
<polygon fill="black" stroke="black" points="1193.63,-84.49 1200.1,-76.1 1189.81,-78.63 1193.63,-84.49"/>
</a>
</g>
<text text-anchor="middle" x="876.38" y="-163.7" font-family="Times,serif" font-size="14.00">CALLS [rest] (sync)</text>
</g>
<!-- SERVICE:bff_split&#45;1 -->
<g id="node15" class="node">
<title>SERVICE:bff_split&#45;1</title>
<path fill="#eef6ff" stroke="black" d="M762.75,-214C762.75,-214 707,-214 707,-214 701,-214 695,-208 695,-202 695,-202 695,-190 695,-190 695,-184 701,-178 707,-178 707,-178 762.75,-178 762.75,-178 768.75,-178 774.75,-184 774.75,-190 774.75,-190 774.75,-202 774.75,-202 774.75,-208 768.75,-214 762.75,-214"/>
<text text-anchor="middle" x="734.88" y="-191.7" font-family="Times,serif" font-size="14.00">bff_split&#45;1</text>
</g>
<!-- SERVICE:bff&#45;&gt;SERVICE:bff_split&#45;1 -->
<g id="edge21" class="edge">
<title>SERVICE:bff&#45;&gt;SERVICE:bff_split&#45;1</title>
<g id="a_edge21"><a xlink:title="edge#20">
<path fill="none" stroke="black" d="M496.38,-173.49C539.81,-177.6 627.33,-185.9 683.14,-191.19"/>
<polygon fill="black" stroke="black" points="682.75,-194.67 693.04,-192.13 683.41,-187.7 682.75,-194.67"/>
</a>
</g>
<text text-anchor="middle" x="593.38" y="-191.7" font-family="Times,serif" font-size="14.00">CALLS [rest] (sync)</text>
</g>
<!-- SERVICE:bff&#45;1&#45;&gt;SERVICE:bff -->
<g id="edge17" class="edge">
<title>SERVICE:bff&#45;1&#45;&gt;SERVICE:bff</title>
<g id="a_edge17"><a xlink:title="edge#16">
<path fill="none" stroke="black" d="M268.38,-171C308.46,-171 384.87,-171 430.69,-171"/>
<polygon fill="black" stroke="black" points="430.4,-174.5 440.4,-171 430.4,-167.5 430.4,-174.5"/>
</a>
</g>
<text text-anchor="middle" x="344.88" y="-175.7" font-family="Times,serif" font-size="14.00">CALLS [rest] (sync)</text>
</g>
<!-- SERVICE:bff&#45;2 -->
<g id="node14" class="node">
<title>SERVICE:bff&#45;2</title>
<path fill="#eef6ff" stroke="black" d="M1002.12,-118C1002.12,-118 972.12,-118 972.12,-118 966.12,-118 960.12,-112 960.12,-106 960.12,-106 960.12,-94 960.12,-94 960.12,-88 966.12,-82 972.12,-82 972.12,-82 1002.12,-82 1002.12,-82 1008.12,-82 1014.12,-88 1014.12,-94 1014.12,-94 1014.12,-106 1014.12,-106 1014.12,-112 1008.12,-118 1002.12,-118"/>
<text text-anchor="middle" x="987.12" y="-95.7" font-family="Times,serif" font-size="14.00">bff&#45;2</text>
</g>
<!-- SERVICE:bff&#45;2&#45;&gt;SERVICE:payments -->
<g id="edge18" class="edge">
<title>SERVICE:bff&#45;2&#45;&gt;SERVICE:payments</title>
<g id="a_edge18"><a xlink:title="edge#17">
<path fill="none" stroke="black" d="M1014.4,-88.74C1022.19,-85.8 1030.83,-82.92 1039,-81 1089.66,-69.1 1149.07,-63.94 1190.13,-61.7"/>
<polygon fill="black" stroke="black" points="1190.14,-65.21 1199.95,-61.21 1189.79,-58.22 1190.14,-65.21"/>
</a>
</g>
<text text-anchor="middle" x="1101.62" y="-85.7" font-family="Times,serif" font-size="14.00">CALLS [rest] (sync)</text>
</g>
<!-- SERVICE:bff&#45;2_split -->
<g id="node18" class="node">
<title>SERVICE:bff&#45;2_split</title>
<path fill="#eef6ff" stroke="black" d="M1269.75,-135C1269.75,-135 1212.5,-135 1212.5,-135 1206.5,-135 1200.5,-129 1200.5,-123 1200.5,-123 1200.5,-111 1200.5,-111 1200.5,-105 1206.5,-99 1212.5,-99 1212.5,-99 1269.75,-99 1269.75,-99 1275.75,-99 1281.75,-105 1281.75,-111 1281.75,-111 1281.75,-123 1281.75,-123 1281.75,-129 1275.75,-135 1269.75,-135"/>
<text text-anchor="middle" x="1241.12" y="-112.7" font-family="Times,serif" font-size="14.00">bff&#45;2_split</text>
</g>
<!-- SERVICE:bff&#45;2&#45;&gt;SERVICE:bff&#45;2_split -->
<g id="edge24" class="edge">
<title>SERVICE:bff&#45;2&#45;&gt;SERVICE:bff&#45;2_split</title>
<g id="a_edge24"><a xlink:title="edge#23">
<path fill="none" stroke="black" d="M1014.62,-101.79C1055.85,-104.57 1136.13,-109.98 1188.93,-113.55"/>
<polygon fill="black" stroke="black" points="1188.69,-117.04 1198.9,-114.22 1189.16,-110.05 1188.69,-117.04"/>
</a>
</g>
<text text-anchor="middle" x="1101.62" y="-115.7" font-family="Times,serif" font-size="14.00">CALLS [rest] (sync)</text>
</g>
<!-- SERVICE:bff_split&#45;1&#45;&gt;SERVICE:auth -->
<g id="edge10" class="edge">
<title>SERVICE:bff_split&#45;1&#45;&gt;SERVICE:auth</title>
<g id="a_edge10"><a xlink:title="edge#9">
<path fill="none" stroke="black" d="M774.98,-196C822.4,-196 901.77,-196 948.51,-196"/>
<polygon fill="black" stroke="black" points="948.42,-199.5 958.42,-196 948.42,-192.5 948.42,-199.5"/>
</a>
</g>
<text text-anchor="middle" x="876.38" y="-200.7" font-family="Times,serif" font-size="14.00">CALLS [rest] (sync)</text>
</g>
<!-- SERVICE:bff_split&#45;1&#45;&gt;SERVICE:bff_split -->
<g id="edge15" class="edge">
<title>SERVICE:bff_split&#45;1&#45;&gt;SERVICE:bff_split</title>
<g id="a_edge15"><a xlink:title="edge#14">
<path fill="none" stroke="black" d="M775.17,-207.24C788.54,-210.89 803.62,-214.82 817.5,-218 859.51,-227.63 907.88,-236.6 942.01,-242.57"/>
<polygon fill="black" stroke="black" points="941.07,-245.96 951.52,-244.22 942.27,-239.06 941.07,-245.96"/>
</a>
</g>
<text text-anchor="middle" x="876.38" y="-245.7" font-family="Times,serif" font-size="14.00">CALLS [rest] (sync)</text>
</g>
<!-- SERVICE:bff_split_split&#45;&gt;SERVICE:cart -->
<g id="edge12" class="edge">
<title>SERVICE:bff_split_split&#45;&gt;SERVICE:cart</title>
<g id="a_edge12"><a xlink:title="edge#11">
<path fill="none" stroke="black" d="M1292.65,-210.95C1339.72,-209.04 1408.83,-206.24 1451.23,-204.53"/>
<polygon fill="black" stroke="black" points="1451.33,-208.02 1461.18,-204.12 1451.05,-201.03 1451.33,-208.02"/>
</a>
</g>
<text text-anchor="middle" x="1380.62" y="-213.7" font-family="Times,serif" font-size="14.00">CALLS [rest] (sync)</text>
</g>
<!-- SERVICE:bff_split_split&#45;&gt;SERVICE:orders -->
<g id="edge13" class="edge">
<title>SERVICE:bff_split_split&#45;&gt;SERVICE:orders</title>
<g id="a_edge13"><a xlink:title="edge#12">
<path fill="none" stroke="black" d="M1283.39,-194.61C1294.49,-190.09 1306.58,-185.53 1318,-182 1372.4,-165.17 1395.32,-185.75 1443.25,-155 1455.95,-146.85 1466.39,-133.86 1474.06,-121.95"/>
<polygon fill="black" stroke="black" points="1476.91,-124 1479.06,-113.63 1470.91,-120.4 1476.91,-124"/>
</a>
</g>
<text text-anchor="middle" x="1380.62" y="-186.7" font-family="Times,serif" font-size="14.00">CALLS [rest] (sync)</text>
</g>
<!-- SERVICE:orders_split&#45;2 -->
<g id="node17" class="node">
<title>SERVICE:orders_split&#45;2</title>
<path fill="#eef6ff" stroke="black" d="M2024.5,-160C2024.5,-160 1943.25,-160 1943.25,-160 1937.25,-160 1931.25,-154 1931.25,-148 1931.25,-148 1931.25,-136 1931.25,-136 1931.25,-130 1937.25,-124 1943.25,-124 1943.25,-124 2024.5,-124 2024.5,-124 2030.5,-124 2036.5,-130 2036.5,-136 2036.5,-136 2036.5,-148 2036.5,-148 2036.5,-154 2030.5,-160 2024.5,-160"/>
<text text-anchor="middle" x="1983.88" y="-137.7" font-family="Times,serif" font-size="14.00">orders_split&#45;2</text>
</g>
<!-- SERVICE:orders_split&#45;1 -->
<g id="node22" class="node">
<title>SERVICE:orders_split&#45;1</title>
<path fill="#eef6ff" stroke="black" d="M2289,-165C2289,-165 2209.25,-165 2209.25,-165 2203.25,-165 2197.25,-159 2197.25,-153 2197.25,-153 2197.25,-141 2197.25,-141 2197.25,-135 2203.25,-129 2209.25,-129 2209.25,-129 2289,-129 2289,-129 2295,-129 2301,-135 2301,-141 2301,-141 2301,-153 2301,-153 2301,-159 2295,-165 2289,-165"/>
<text text-anchor="middle" x="2249.12" y="-142.7" font-family="Times,serif" font-size="14.00">orders_split&#45;1</text>
</g>
<!-- SERVICE:orders_split&#45;2&#45;&gt;SERVICE:orders_split&#45;1 -->
<g id="edge14" class="edge">
<title>SERVICE:orders_split&#45;2&#45;&gt;SERVICE:orders_split&#45;1</title>
<g id="a_edge14"><a xlink:title="edge#13">
<path fill="none" stroke="black" d="M2036.88,-142.99C2079.62,-143.8 2140.28,-144.95 2185.64,-145.81"/>
<polygon fill="black" stroke="black" points="2185.54,-149.31 2195.61,-146 2185.67,-142.31 2185.54,-149.31"/>
</a>
</g>
<text text-anchor="middle" x="2113.38" y="-149.7" font-family="Times,serif" font-size="14.00">CALLS [rest] (sync)</text>
</g>
<!-- SERVICE:bff&#45;2_split&#45;&gt;SERVICE:cart -->
<g id="edge19" class="edge">
<title>SERVICE:bff&#45;2_split&#45;&gt;SERVICE:cart</title>
<g id="a_edge19"><a xlink:title="edge#18">
<path fill="none" stroke="black" d="M1281.84,-117.06C1332.53,-117.79 1416.8,-121.41 1443.25,-137 1457.88,-145.62 1468.93,-161 1476.48,-174.75"/>
<polygon fill="black" stroke="black" points="1473.25,-176.11 1480.89,-183.45 1479.49,-172.95 1473.25,-176.11"/>
</a>
</g>
<text text-anchor="middle" x="1380.62" y="-141.7" font-family="Times,serif" font-size="14.00">CALLS [rest] (sync)</text>
</g>
<!-- SERVICE:bff&#45;2_split&#45;&gt;SERVICE:orders -->
<g id="edge20" class="edge">
<title>SERVICE:bff&#45;2_split&#45;&gt;SERVICE:orders</title>
<g id="a_edge20"><a xlink:title="edge#19">
<path fill="none" stroke="black" d="M1281.88,-103.92C1293.4,-100.7 1306.09,-97.69 1318,-96 1362.86,-89.64 1415.02,-90.16 1449.79,-91.61"/>
<polygon fill="black" stroke="black" points="1449.22,-95.09 1459.37,-92.06 1449.55,-88.09 1449.22,-95.09"/>
</a>
</g>
<text text-anchor="middle" x="1380.62" y="-100.7" font-family="Times,serif" font-size="14.00">CALLS [rest] (sync)</text>
</g>
<!-- SERVICE:bff&#45;4&#45;&gt;SERVICE:payments -->
<g id="edge29" class="edge">
<title>SERVICE:bff&#45;4&#45;&gt;SERVICE:payments</title>
<g id="a_edge29"><a xlink:title="edge#28">
<path fill="none" stroke="black" d="M1014.51,-20.78C1049.07,-24.61 1111.46,-32.17 1164.25,-42 1172.67,-43.57 1181.56,-45.46 1190.18,-47.42"/>
<polygon fill="black" stroke="black" points="1189.28,-50.81 1199.82,-49.67 1190.88,-43.99 1189.28,-50.81"/>
</a>
</g>
<text text-anchor="middle" x="1101.62" y="-46.7" font-family="Times,serif" font-size="14.00">CALLS [rest] (sync)</text>
</g>
<!-- SERVICE:bff&#45;4&#45;&gt;SERVICE:orders -->
<g id="edge28" class="edge">
<title>SERVICE:bff&#45;4&#45;&gt;SERVICE:orders</title>
<g id="a_edge28"><a xlink:title="edge#27">
<path fill="none" stroke="black" d="M1014.54,-15.4C1068.46,-10.61 1194.94,-2 1300,-15 1365.15,-23.06 1385.67,-19.47 1443.25,-51 1451.31,-55.41 1459.01,-61.59 1465.71,-67.88"/>
<polygon fill="black" stroke="black" points="1463.01,-70.13 1472.56,-74.73 1467.96,-65.18 1463.01,-70.13"/>
</a>
</g>
<text text-anchor="middle" x="1241.12" y="-19.7" font-family="Times,serif" font-size="14.00">CALLS [rest] (sync)</text>
</g>
<!-- SERVICE:orders_split&#45;3&#45;&gt;SERVICE:orders_split&#45;2 -->
<g id="edge23" class="edge">
<title>SERVICE:orders_split&#45;3&#45;&gt;SERVICE:orders_split&#45;2</title>
<g id="a_edge23"><a xlink:title="edge#22">
<path fill="none" stroke="black" d="M1777.88,-141.2C1818.81,-141.36 1876.02,-141.58 1919.61,-141.75"/>
<polygon fill="black" stroke="black" points="1919.42,-145.25 1929.43,-141.79 1919.44,-138.25 1919.42,-145.25"/>
</a>
</g>
<text text-anchor="middle" x="1854.38" y="-145.7" font-family="Times,serif" font-size="14.00">CALLS [rest] (sync)</text>
</g>
<!-- SERVICE:web&#45;ui_split -->
<g id="node21" class="node">
<title>SERVICE:web&#45;ui_split</title>
<path fill="#eef6ff" stroke="black" d="M504.5,-118C504.5,-118 433.75,-118 433.75,-118 427.75,-118 421.75,-112 421.75,-106 421.75,-106 421.75,-94 421.75,-94 421.75,-88 427.75,-82 433.75,-82 433.75,-82 504.5,-82 504.5,-82 510.5,-82 516.5,-88 516.5,-94 516.5,-94 516.5,-106 516.5,-106 516.5,-112 510.5,-118 504.5,-118"/>
<text text-anchor="middle" x="469.12" y="-95.7" font-family="Times,serif" font-size="14.00">web&#45;ui_split</text>
</g>
<!-- SERVICE:bff&#45;3 -->
<g id="node23" class="node">
<title>SERVICE:bff&#45;3</title>
<path fill="#eef6ff" stroke="black" d="M749.88,-118C749.88,-118 719.88,-118 719.88,-118 713.88,-118 707.88,-112 707.88,-106 707.88,-106 707.88,-94 707.88,-94 707.88,-88 713.88,-82 719.88,-82 719.88,-82 749.88,-82 749.88,-82 755.88,-82 761.88,-88 761.88,-94 761.88,-94 761.88,-106 761.88,-106 761.88,-112 755.88,-118 749.88,-118"/>
<text text-anchor="middle" x="734.88" y="-95.7" font-family="Times,serif" font-size="14.00">bff&#45;3</text>
</g>
<!-- SERVICE:web&#45;ui_split&#45;&gt;SERVICE:bff&#45;3 -->
<g id="edge25" class="edge">
<title>SERVICE:web&#45;ui_split&#45;&gt;SERVICE:bff&#45;3</title>
<g id="a_edge25"><a xlink:title="edge#24">
<path fill="none" stroke="black" d="M516.97,-100C568.15,-100 649.1,-100 696.29,-100"/>
<polygon fill="black" stroke="black" points="696.01,-103.5 706.01,-100 696.01,-96.5 696.01,-103.5"/>
</a>
</g>
<text text-anchor="middle" x="593.38" y="-104.7" font-family="Times,serif" font-size="14.00">CALLS [rest] (sync)</text>
</g>
<!-- SERVICE:orders_split&#45;1&#45;&gt;SERVICE:orders_split -->
<g id="edge8" class="edge">
<title>SERVICE:orders_split&#45;1&#45;&gt;SERVICE:orders_split</title>
<g id="a_edge8"><a xlink:title="edge#7">
<path fill="none" stroke="black" d="M2301.42,-147C2344.36,-147 2405.58,-147 2449.96,-147"/>
<polygon fill="black" stroke="black" points="2449.92,-150.5 2459.92,-147 2449.92,-143.5 2449.92,-150.5"/>
</a>
</g>
<text text-anchor="middle" x="2384.88" y="-151.7" font-family="Times,serif" font-size="14.00">CALLS [rest] (sync)</text>
</g>
<!-- SERVICE:bff&#45;3&#45;&gt;SERVICE:bff&#45;2 -->
<g id="edge26" class="edge">
<title>SERVICE:bff&#45;3&#45;&gt;SERVICE:bff&#45;2</title>
<g id="a_edge26"><a xlink:title="edge#25">
<path fill="none" stroke="black" d="M762.18,-100C806.77,-100 897.33,-100 948.57,-100"/>
<polygon fill="black" stroke="black" points="948.28,-103.5 958.28,-100 948.28,-96.5 948.28,-103.5"/>
</a>
</g>
<text text-anchor="middle" x="876.38" y="-104.7" font-family="Times,serif" font-size="14.00">CALLS [rest] (sync)</text>
</g>
</g>
</svg>
