<?xml version="1.0" encoding="UTF-8" standalone="no"?>
<!DOCTYPE svg PUBLIC "-//W3C//DTD SVG 1.1//EN"
 "http://www.w3.org/Graphics/SVG/1.1/DTD/svg11.dtd">
<!-- Generated by graphviz version 9.0.0 (20230911.1827)
 -->
<!-- Title: G Pages: 1 -->
<svg width="655pt" height="214pt"
 viewBox="0.00 0.00 655.00 214.23" xmlns="http://www.w3.org/2000/svg" xmlns:xlink="http://www.w3.org/1999/xlink">
<g id="graph0" class="graph" transform="scale(1 1) rotate(0) translate(4 210.23)">
<title>G</title>
<polygon fill="white" stroke="none" points="-4,4 -4,-210.23 651,-210.23 651,4 -4,4"/>
<text text-anchor="middle" x="323.5" y="-188.93" font-family="Helvetica,sans-Serif" font-size="14.00">Architecture</text>
<!-- SERVICE:orders -->
<g id="node1" class="node">
<title>SERVICE:orders</title>
<path fill="#eef6ff" stroke="black" d="M314.25,-65.23C314.25,-65.23 281,-65.23 281,-65.23 275,-65.23 269,-59.23 269,-53.23 269,-53.23 269,-41.23 269,-41.23 269,-35.23 275,-29.23 281,-29.23 281,-29.23 314.25,-29.23 314.25,-29.23 320.25,-29.23 326.25,-35.23 326.25,-41.23 326.25,-41.23 326.25,-53.23 326.25,-53.23 326.25,-59.23 320.25,-65.23 314.25,-65.23"/>
<text text-anchor="middle" x="297.62" y="-42.93" font-family="Times,serif" font-size="14.00">orders</text>
</g>
<!-- SERVICE:payments -->
<g id="node2" class="node">
<title>SERVICE:payments</title>
<path fill="#eef6ff" stroke="black" d="M606.12,-44.23C606.12,-44.23 551.12,-44.23 551.12,-44.23 545.12,-44.23 539.12,-38.23 539.12,-32.23 539.12,-32.23 539.12,-20.23 539.12,-20.23 539.12,-14.23 545.12,-8.23 551.12,-8.23 551.12,-8.23 606.12,-8.23 606.12,-8.23 612.12,-8.23 618.12,-14.23 618.12,-20.23 618.12,-20.23 618.12,-32.23 618.12,-32.23 618.12,-38.23 612.12,-44.23 606.12,-44.23"/>
<text text-anchor="middle" x="578.62" y="-21.93" font-family="Times,serif" font-size="14.00">payments</text>
</g>
<!-- SERVICE:orders&#45;&gt;SERVICE:payments -->
<g id="edge3" class="edge">
<title>SERVICE:orders&#45;&gt;SERVICE:payments</title>
<g id="a_edge3"><a xlink:title="edge#2">
<path fill="none" stroke="black" d="M326.63,-48.77C364.39,-50.42 433.64,-51.98 492.25,-45.23 503.79,-43.9 516.06,-41.67 527.59,-39.2"/>
<polygon fill="black" stroke="black" points="528.35,-42.61 537.34,-37 526.81,-35.78 528.35,-42.61"/>
</a>
</g>
<text text-anchor="middle" x="433.38" y="-54.93" font-family="Times,serif" font-size="14.00">CALLS [rest] (sync)</text>
</g>
<!-- SERVICE:payments&#45;&gt;SERVICE:orders -->
<g id="edge4" class="edge">
<title>SERVICE:payments&#45;&gt;SERVICE:orders</title>
<g id="a_edge4"><a xlink:title="edge#3">
<path fill="none" stroke="black" d="M538.8,-21.83C497.72,-18.05 431.14,-14.49 374.5,-23.23 362.19,-25.13 349.13,-28.67 337.39,-32.46"/>
<polygon fill="black" stroke="black" points="336.37,-29.11 328.03,-35.64 338.62,-35.74 336.37,-29.11"/>
</a>
</g>
<text text-anchor="middle" x="433.38" y="-27.93" font-family="Times,serif" font-size="14.00">CALLS [rest] (sync)</text>
</g>
<!-- SERVICE:bff -->
<g id="node3" class="node">
<title>SERVICE:bff</title>
<path fill="#eef6ff" stroke="black" d="M312.62,-153.23C312.62,-153.23 282.62,-153.23 282.62,-153.23 276.62,-153.23 270.62,-147.23 270.62,-141.23 270.62,-141.23 270.62,-129.23 270.62,-129.23 270.62,-123.23 276.62,-117.23 282.62,-117.23 282.62,-117.23 312.62,-117.23 312.62,-117.23 318.62,-117.23 324.62,-123.23 324.62,-129.23 324.62,-129.23 324.62,-141.23 324.62,-141.23 324.62,-147.23 318.62,-153.23 312.62,-153.23"/>
<text text-anchor="middle" x="297.62" y="-130.93" font-family="Times,serif" font-size="14.00">bff</text>
</g>
<!-- SERVICE:service:orders -->
<g id="node5" class="node">
<title>SERVICE:service:orders</title>
<path fill="#eef6ff" stroke="black" d="M624.12,-180.23C624.12,-180.23 533.12,-180.23 533.12,-180.23 527.12,-180.23 521.12,-174.23 521.12,-168.23 521.12,-168.23 521.12,-156.23 521.12,-156.23 521.12,-150.23 527.12,-144.23 533.12,-144.23 533.12,-144.23 624.12,-144.23 624.12,-144.23 630.12,-144.23 636.12,-150.23 636.12,-156.23 636.12,-156.23 636.12,-168.23 636.12,-168.23 636.12,-174.23 630.12,-180.23 624.12,-180.23"/>
<text text-anchor="middle" x="578.62" y="-157.93" font-family="Times,serif" font-size="14.00">SERVICE:orders</text>
</g>
<!-- SERVICE:bff&#45;&gt;SERVICE:service:orders -->
<g id="edge6" class="edge">
<title>SERVICE:bff&#45;&gt;SERVICE:service:orders</title>
<g id="a_edge6"><a xlink:title="edge#5">
<path fill="none" stroke="black" d="M325.12,-137.8C367.1,-141.86 450.21,-149.9 509.62,-155.65"/>
<polygon fill="black" stroke="black" points="508.99,-159.11 519.28,-156.59 509.67,-152.14 508.99,-159.11"/>
</a>
</g>
<text text-anchor="middle" x="433.38" y="-157.93" font-family="Times,serif" font-size="14.00">CALLS [rest] (sync)</text>
</g>
<!-- SERVICE:service:payments -->
<g id="node6" class="node">
<title>SERVICE:service:payments</title>
<path fill="#eef6ff" stroke="black" d="M635,-126.23C635,-126.23 522.25,-126.23 522.25,-126.23 516.25,-126.23 510.25,-120.23 510.25,-114.23 510.25,-114.23 510.25,-102.23 510.25,-102.23 510.25,-96.23 516.25,-90.23 522.25,-90.23 522.25,-90.23 635,-90.23 635,-90.23 641,-90.23 647,-96.23 647,-102.23 647,-102.23 647,-114.23 647,-114.23 647,-120.23 641,-126.23 635,-126.23"/>
<text text-anchor="middle" x="578.62" y="-103.93" font-family="Times,serif" font-size="14.00">SERVICE:payments</text>
</g>
<!-- SERVICE:bff&#45;&gt;SERVICE:service:payments -->
<g id="edge7" class="edge">
<title>SERVICE:bff&#45;&gt;SERVICE:service:payments</title>
<g id="a_edge7"><a xlink:title="edge#6">
<path fill="none" stroke="black" d="M324.82,-129.14C339.37,-125.99 357.85,-122.36 374.5,-120.23 415.31,-115.02 461.02,-112.07 498.73,-110.4"/>
<polygon fill="black" stroke="black" points="498.81,-113.9 508.65,-109.98 498.52,-106.9 498.81,-113.9"/>
</a>
</g>
<text text-anchor="middle" x="433.38" y="-124.93" font-family="Times,serif" font-size="14.00">CALLS [rest] (sync)</text>
</g>
<!-- SERVICE:service:ui -->
<g id="node4" class="node">
<title>SERVICE:service:ui</title>
<path fill="#eef6ff" stroke="black" d="M73,-153.23C73,-153.23 12,-153.23 12,-153.23 6,-153.23 0,-147.23 0,-141.23 0,-141.23 0,-129.23 0,-129.23 0,-123.23 6,-117.23 12,-117.23 12,-117.23 73,-117.23 73,-117.23 79,-117.23 85,-123.23 85,-129.23 85,-129.23 85,-141.23 85,-141.23 85,-147.23 79,-153.23 73,-153.23"/>
<text text-anchor="middle" x="42.5" y="-130.93" font-family="Times,serif" font-size="14.00">SERVICE:ui</text>
</g>
<!-- SERVICE:service:ui&#45;&gt;SERVICE:bff -->
<g id="edge5" class="edge">
<title>SERVICE:service:ui&#45;&gt;SERVICE:bff</title>
<g id="a_edge5"><a xlink:title="edge#4">
<path fill="none" stroke="black" d="M85.3,-135.23C133.61,-135.23 212.42,-135.23 258.92,-135.23"/>
<polygon fill="black" stroke="black" points="258.78,-138.73 268.78,-135.23 258.78,-131.73 258.78,-138.73"/>
</a>
</g>
<text text-anchor="middle" x="161.88" y="-139.93" font-family="Times,serif" font-size="14.00">CALLS [rest] (sync)</text>
</g>
<!-- SERVICE:ui -->
<g id="node7" class="node">
<title>SERVICE:ui</title>
<path fill="#eef6ff" stroke="black" d="M57.5,-38.23C57.5,-38.23 27.5,-38.23 27.5,-38.23 21.5,-38.23 15.5,-32.23 15.5,-26.23 15.5,-26.23 15.5,-14.23 15.5,-14.23 15.5,-8.23 21.5,-2.23 27.5,-2.23 27.5,-2.23 57.5,-2.23 57.5,-2.23 63.5,-2.23 69.5,-8.23 69.5,-14.23 69.5,-14.23 69.5,-26.23 69.5,-26.23 69.5,-32.23 63.5,-38.23 57.5,-38.23"/>
<text text-anchor="middle" x="42.5" y="-15.93" font-family="Times,serif" font-size="14.00">ui</text>
</g>
<!-- SERVICE:ui&#45;&gt;SERVICE:orders -->
<g id="edge1" class="edge">
<title>SERVICE:ui&#45;&gt;SERVICE:orders</title>
<g id="a_edge1"><a xlink:title="edge#0">
<path fill="none" stroke="black" d="M69.64,-23.02C114.26,-27.78 205.37,-37.5 257.57,-43.07"/>
<polygon fill="black" stroke="black" points="256.89,-46.52 267.21,-44.1 257.64,-39.55 256.89,-46.52"/>
</a>
</g>
<text text-anchor="middle" x="161.88" y="-43.93" font-family="Times,serif" font-size="14.00">CALLS [rest] (sync)</text>
</g>
<!-- SERVICE:ui&#45;&gt;SERVICE:payments -->
<g id="edge2" class="edge">
<title>SERVICE:ui&#45;&gt;SERVICE:payments</title>
<g id="a_edge2"><a xlink:title="edge#1">
<path fill="none" stroke="black" d="M69.97,-17.01C107.47,-12.63 178.22,-5.02 238.75,-2.23 351.42,2.95 380.19,-1.41 492.25,-14.23 503.74,-15.55 516.07,-17.16 527.68,-18.77"/>
<polygon fill="black" stroke="black" points="527.11,-22.23 537.51,-20.16 528.09,-15.3 527.11,-22.23"/>
</a>
</g>
<text text-anchor="middle" x="297.62" y="-6.93" font-family="Times,serif" font-size="14.00">CALLS [rest] (sync)</text>
</g>
</g>
</svg>
