<?xml version="1.0" encoding="UTF-8" standalone="no"?>
<!DOCTYPE svg PUBLIC "-//W3C//DTD SVG 1.1//EN"
 "http://www.w3.org/Graphics/SVG/1.1/DTD/svg11.dtd">
<!-- Generated by graphviz version 9.0.0 (20230911.1827)
 -->
<!-- Title: G Pages: 1 -->
<svg width="1424pt" height="367pt"
 viewBox="0.00 0.00 1424.00 367.00" xmlns="http://www.w3.org/2000/svg" xmlns:xlink="http://www.w3.org/1999/xlink">
<g id="graph0" class="graph" transform="scale(1 1) rotate(0) translate(4 363)">
<title>G</title>
<polygon fill="white" stroke="none" points="-4,4 -4,-363 1420,-363 1420,4 -4,4"/>
<text text-anchor="middle" x="708" y="-341.7" font-family="Helvetica,sans-Serif" font-size="14.00">Architecture</text>
<!-- SERVICE:pricing -->
<g id="node1" class="node">
<title>SERVICE:pricing</title>
<path fill="#eef6ff" stroke="black" d="M74.12,-36C74.12,-36 37.88,-36 37.88,-36 31.88,-36 25.88,-30 25.88,-24 25.88,-24 25.88,-12 25.88,-12 25.88,-6 31.88,0 37.88,0 37.88,0 74.12,0 74.12,0 80.12,0 86.12,-6 86.12,-12 86.12,-12 86.12,-24 86.12,-24 86.12,-30 80.12,-36 74.12,-36"/>
<text text-anchor="middle" x="56" y="-13.7" font-family="Times,serif" font-size="14.00">pricing</text>
</g>
<!-- SERVICE:discount -->
<g id="node2" class="node">
<title>SERVICE:discount</title>
<path fill="#eef6ff" stroke="black" d="M324.5,-36C324.5,-36 277.75,-36 277.75,-36 271.75,-36 265.75,-30 265.75,-24 265.75,-24 265.75,-12 265.75,-12 265.75,-6 271.75,0 277.75,0 277.75,0 324.5,0 324.5,0 330.5,0 336.5,-6 336.5,-12 336.5,-12 336.5,-24 336.5,-24 336.5,-30 330.5,-36 324.5,-36"/>
<text text-anchor="middle" x="301.12" y="-13.7" font-family="Times,serif" font-size="14.00">discount</text>
</g>
<!-- SERVICE:pricing&#45;&gt;SERVICE:discount -->
<g id="edge1" class="edge">
<title>SERVICE:pricing&#45;&gt;SERVICE:discount</title>
<g id="a_edge1"><a xlink:title="edge#0">
<path fill="none" stroke="black" d="M86.33,-18C128.07,-18 205.01,-18 254.31,-18"/>
<polygon fill="black" stroke="black" points="254.09,-21.5 264.09,-18 254.09,-14.5 254.09,-21.5"/>
</a>
</g>
<text text-anchor="middle" x="188.88" y="-22.7" font-family="Times,serif" font-size="14.00">CALLS [rest] (sync)</text>
</g>
<!-- SERVICE:tax -->
<g id="node17" class="node">
<title>SERVICE:tax</title>
<path fill="#eef6ff" stroke="black" d="M563.12,-36C563.12,-36 533.12,-36 533.12,-36 527.12,-36 521.12,-30 521.12,-24 521.12,-24 521.12,-12 521.12,-12 521.12,-6 527.12,0 533.12,0 533.12,0 563.12,0 563.12,0 569.12,0 575.12,-6 575.12,-12 575.12,-12 575.12,-24 575.12,-24 575.12,-30 569.12,-36 563.12,-36"/>
<text text-anchor="middle" x="548.12" y="-13.7" font-family="Times,serif" font-size="14.00">tax</text>
</g>
<!-- SERVICE:discount&#45;&gt;SERVICE:tax -->
<g id="edge2" class="edge">
<title>SERVICE:discount&#45;&gt;SERVICE:tax</title>
<g id="a_edge2"><a xlink:title="edge#1">
<path fill="none" stroke="black" d="M336.97,-18C382.54,-18 462.11,-18 509.17,-18"/>
<polygon fill="black" stroke="black" points="509.16,-21.5 519.16,-18 509.16,-14.5 509.16,-21.5"/>
</a>
</g>
<text text-anchor="middle" x="413.38" y="-22.7" font-family="Times,serif" font-size="14.00">CALLS [rest] (sync)</text>
</g>
<!-- SERVICE:ops&#45;hub -->
<g id="node3" class="node">
<title>SERVICE:ops&#45;hub</title>
<path fill="#eef6ff" stroke="black" d="M323.75,-144C323.75,-144 278.5,-144 278.5,-144 272.5,-144 266.5,-138 266.5,-132 266.5,-132 266.5,-120 266.5,-120 266.5,-114 272.5,-108 278.5,-108 278.5,-108 323.75,-108 323.75,-108 329.75,-108 335.75,-114 335.75,-120 335.75,-120 335.75,-132 335.75,-132 335.75,-138 329.75,-144 323.75,-144"/>
<text text-anchor="middle" x="301.12" y="-121.7" font-family="Times,serif" font-size="14.00">ops&#45;hub</text>
</g>
<!-- SERVICE:sms&#45;gateway -->
<g id="node7" class="node">
<title>SERVICE:sms&#45;gateway</title>
<path fill="#eef6ff" stroke="black" d="M587.25,-198C587.25,-198 509,-198 509,-198 503,-198 497,-192 497,-186 497,-186 497,-174 497,-174 497,-168 503,-162 509,-162 509,-162 587.25,-162 587.25,-162 593.25,-162 599.25,-168 599.25,-174 599.25,-174 599.25,-186 599.25,-186 599.25,-192 593.25,-198 587.25,-198"/>
<text text-anchor="middle" x="548.12" y="-175.7" font-family="Times,serif" font-size="14.00">sms&#45;gateway</text>
</g>
<!-- SERVICE:ops&#45;hub&#45;&gt;SERVICE:sms&#45;gateway -->
<g id="edge6" class="edge">
<title>SERVICE:ops&#45;hub&#45;&gt;SERVICE:sms&#45;gateway</title>
<g id="a_edge6"><a xlink:title="edge#5">
<path fill="none" stroke="black" d="M336.08,-141.61C342.13,-144 348.44,-146.25 354.5,-148 397.48,-160.41 447.34,-168.53 485.56,-173.49"/>
<polygon fill="black" stroke="black" points="484.66,-176.9 495.02,-174.67 485.53,-169.95 484.66,-176.9"/>
</a>
</g>
<text text-anchor="middle" x="413.38" y="-175.7" font-family="Times,serif" font-size="14.00">CALLS [rest] (sync)</text>
</g>
<!-- SERVICE:ops&#45;hub_split&#45;1 -->
<g id="node12" class="node">
<title>SERVICE:ops&#45;hub_split&#45;1</title>
<path fill="#eef6ff" stroke="black" d="M594,-144C594,-144 502.25,-144 502.25,-144 496.25,-144 490.25,-138 490.25,-132 490.25,-132 490.25,-120 490.25,-120 490.25,-114 496.25,-108 502.25,-108 502.25,-108 594,-108 594,-108 600,-108 606,-114 606,-120 606,-120 606,-132 606,-132 606,-138 600,-144 594,-144"/>
<text text-anchor="middle" x="548.12" y="-121.7" font-family="Times,serif" font-size="14.00">ops&#45;hub_split&#45;1</text>
</g>
<!-- SERVICE:ops&#45;hub&#45;&gt;SERVICE:ops&#45;hub_split&#45;1 -->
<g id="edge15" class="edge">
<title>SERVICE:ops&#45;hub&#45;&gt;SERVICE:ops&#45;hub_split&#45;1</title>
<g id="a_edge15"><a xlink:title="edge#14">
<path fill="none" stroke="black" d="M336.19,-126C372.8,-126 431.96,-126 478.33,-126"/>
<polygon fill="black" stroke="black" points="478.31,-129.5 488.31,-126 478.31,-122.5 478.31,-129.5"/>
</a>
</g>
<text text-anchor="middle" x="413.38" y="-130.7" font-family="Times,serif" font-size="14.00">CALLS [rest] (sync)</text>
</g>
<!-- SERVICE:emailer -->
<g id="node14" class="node">
<title>SERVICE:emailer</title>
<path fill="#eef6ff" stroke="black" d="M568.12,-90C568.12,-90 528.12,-90 528.12,-90 522.12,-90 516.12,-84 516.12,-78 516.12,-78 516.12,-66 516.12,-66 516.12,-60 522.12,-54 528.12,-54 528.12,-54 568.12,-54 568.12,-54 574.12,-54 580.12,-60 580.12,-66 580.12,-66 580.12,-78 580.12,-78 580.12,-84 574.12,-90 568.12,-90"/>
<text text-anchor="middle" x="548.12" y="-67.7" font-family="Times,serif" font-size="14.00">emailer</text>
</g>
<!-- SERVICE:ops&#45;hub&#45;&gt;SERVICE:emailer -->
<g id="edge5" class="edge">
<title>SERVICE:ops&#45;hub&#45;&gt;SERVICE:emailer</title>
<g id="a_edge5"><a xlink:title="edge#4">
<path fill="none" stroke="black" d="M336.08,-110.39C342.13,-108 348.44,-105.75 354.5,-104 405.08,-89.39 465.18,-80.73 504.64,-76.18"/>
<polygon fill="black" stroke="black" points="504.88,-79.67 514.43,-75.09 504.11,-72.72 504.88,-79.67"/>
</a>
</g>
<text text-anchor="middle" x="413.38" y="-108.7" font-family="Times,serif" font-size="14.00">CALLS [rest] (sync)</text>
</g>
<!-- SERVICE:cache&#45;proxy -->
<g id="node4" class="node">
<title>SERVICE:cache&#45;proxy</title>
<path fill="#eef6ff" stroke="black" d="M1121.38,-197C1121.38,-197 1051.38,-197 1051.38,-197 1045.38,-197 1039.38,-191 1039.38,-185 1039.38,-185 1039.38,-173 1039.38,-173 1039.38,-167 1045.38,-161 1051.38,-161 1051.38,-161 1121.38,-161 1121.38,-161 1127.38,-161 1133.38,-167 1133.38,-173 1133.38,-173 1133.38,-185 1133.38,-185 1133.38,-191 1127.38,-197 1121.38,-197"/>
<text text-anchor="middle" x="1086.38" y="-174.7" font-family="Times,serif" font-size="14.00">cache&#45;proxy</text>
</g>
<!-- SERVICE:preferences -->
<g id="node5" class="node">
<title>SERVICE:preferences</title>
<path fill="#eef6ff" stroke="black" d="M89.5,-333C89.5,-333 22.5,-333 22.5,-333 16.5,-333 10.5,-327 10.5,-321 10.5,-321 10.5,-309 10.5,-309 10.5,-303 16.5,-297 22.5,-297 22.5,-297 89.5,-297 89.5,-297 95.5,-297 101.5,-303 101.5,-309 101.5,-309 101.5,-321 101.5,-321 101.5,-327 95.5,-333 89.5,-333"/>
<text text-anchor="middle" x="56" y="-310.7" font-family="Times,serif" font-size="14.00">preferences</text>
</g>
<!-- DATABASE:user&#45;db -->
<g id="node11" class="node">
<title>DATABASE:user&#45;db</title>
<path fill="#fff3cd" stroke="black" d="M333.88,-275.73C333.88,-277.53 319.2,-279 301.12,-279 283.05,-279 268.38,-277.53 268.38,-275.73 268.38,-275.73 268.38,-246.27 268.38,-246.27 268.38,-244.47 283.05,-243 301.12,-243 319.2,-243 333.88,-244.47 333.88,-246.27 333.88,-246.27 333.88,-275.73 333.88,-275.73"/>
<path fill="none" stroke="black" d="M333.88,-275.73C333.88,-273.92 319.2,-272.45 301.12,-272.45 283.05,-272.45 268.38,-273.92 268.38,-275.73"/>
<text text-anchor="middle" x="301.12" y="-256.7" font-family="Times,serif" font-size="14.00">user&#45;db</text>
</g>
<!-- SERVICE:preferences&#45;&gt;DATABASE:user&#45;db -->
<g id="edge12" class="edge">
<title>SERVICE:preferences&#45;&gt;DATABASE:user&#45;db</title>
<g id="a_edge12"><a xlink:title="edge#11">
<path fill="none" stroke="black" d="M101.98,-310.43C141.05,-305.76 198.89,-297.15 247.75,-283 251.01,-282.06 254.34,-280.97 257.66,-279.79"/>
<polygon fill="black" stroke="black" points="258.62,-283.17 266.72,-276.35 256.13,-276.63 258.62,-283.17"/>
</a>
</g>
<text text-anchor="middle" x="188.88" y="-310.7" font-family="Times,serif" font-size="14.00">CALLS [rest] (sync)</text>
</g>
<!-- SERVICE:ops&#45;hub_split -->
<g id="node6" class="node">
<title>SERVICE:ops&#45;hub_split</title>
<path fill="#eef6ff" stroke="black" d="M851.5,-174C851.5,-174 771.75,-174 771.75,-174 765.75,-174 759.75,-168 759.75,-162 759.75,-162 759.75,-150 759.75,-150 759.75,-144 765.75,-138 771.75,-138 771.75,-138 851.5,-138 851.5,-138 857.5,-138 863.5,-144 863.5,-150 863.5,-150 863.5,-162 863.5,-162 863.5,-168 857.5,-174 851.5,-174"/>
<text text-anchor="middle" x="811.62" y="-151.7" font-family="Times,serif" font-size="14.00">ops&#45;hub_split</text>
</g>
<!-- SERVICE:ops&#45;hub_split&#45;&gt;SERVICE:cache&#45;proxy -->
<g id="edge8" class="edge">
<title>SERVICE:ops&#45;hub_split&#45;&gt;SERVICE:cache&#45;proxy</title>
<g id="a_edge8"><a xlink:title="edge#7">
<path fill="none" stroke="black" d="M863.93,-160.33C910.64,-164.27 979.53,-170.07 1028.04,-174.17"/>
<polygon fill="black" stroke="black" points="1027.53,-177.63 1037.79,-174.99 1028.12,-170.66 1027.53,-177.63"/>
</a>
</g>
<text text-anchor="middle" x="940.38" y="-175.7" font-family="Times,serif" font-size="14.00">CALLS [rest] (sync)</text>
</g>
<!-- SERVICE:ops&#45;hub_split_split -->
<g id="node16" class="node">
<title>SERVICE:ops&#45;hub_split_split</title>
<path fill="#eef6ff" stroke="black" d="M1143.5,-143C1143.5,-143 1029.25,-143 1029.25,-143 1023.25,-143 1017.25,-137 1017.25,-131 1017.25,-131 1017.25,-119 1017.25,-119 1017.25,-113 1023.25,-107 1029.25,-107 1029.25,-107 1143.5,-107 1143.5,-107 1149.5,-107 1155.5,-113 1155.5,-119 1155.5,-119 1155.5,-131 1155.5,-131 1155.5,-137 1149.5,-143 1143.5,-143"/>
<text text-anchor="middle" x="1086.38" y="-120.7" font-family="Times,serif" font-size="14.00">ops&#45;hub_split_split</text>
</g>
<!-- SERVICE:ops&#45;hub_split&#45;&gt;SERVICE:ops&#45;hub_split_split -->
<g id="edge16" class="edge">
<title>SERVICE:ops&#45;hub_split&#45;&gt;SERVICE:ops&#45;hub_split_split</title>
<g id="a_edge16"><a xlink:title="edge#15">
<path fill="none" stroke="black" d="M863.98,-143.15C869.86,-141.96 875.8,-140.87 881.5,-140 922.2,-133.81 967.88,-130.15 1005.66,-128"/>
<polygon fill="black" stroke="black" points="1005.81,-131.5 1015.61,-127.46 1005.44,-124.51 1005.81,-131.5"/>
</a>
</g>
<text text-anchor="middle" x="940.38" y="-144.7" font-family="Times,serif" font-size="14.00">CALLS [rest] (sync)</text>
</g>
<!-- SERVICE:audit&#45;log -->
<g id="node8" class="node">
<title>SERVICE:audit&#45;log</title>
<path fill="#eef6ff" stroke="black" d="M836.88,-120C836.88,-120 786.38,-120 786.38,-120 780.38,-120 774.38,-114 774.38,-108 774.38,-108 774.38,-96 774.38,-96 774.38,-90 780.38,-84 786.38,-84 786.38,-84 836.88,-84 836.88,-84 842.88,-84 848.88,-90 848.88,-96 848.88,-96 848.88,-108 848.88,-108 848.88,-114 842.88,-120 836.88,-120"/>
<text text-anchor="middle" x="811.62" y="-97.7" font-family="Times,serif" font-size="14.00">audit&#45;log</text>
</g>
<!-- SERVICE:report&#45;export -->
<g id="node9" class="node">
<title>SERVICE:report&#45;export</title>
<path fill="#eef6ff" stroke="black" d="M1402.12,-170C1402.12,-170 1323.12,-170 1323.12,-170 1317.12,-170 1311.12,-164 1311.12,-158 1311.12,-158 1311.12,-146 1311.12,-146 1311.12,-140 1317.12,-134 1323.12,-134 1323.12,-134 1402.12,-134 1402.12,-134 1408.12,-134 1414.12,-140 1414.12,-146 1414.12,-146 1414.12,-158 1414.12,-158 1414.12,-164 1408.12,-170 1402.12,-170"/>
<text text-anchor="middle" x="1362.62" y="-147.7" font-family="Times,serif" font-size="14.00">report&#45;export</text>
</g>
<!-- SERVICE:notifications -->
<g id="node10" class="node">
<title>SERVICE:notifications</title>
<path fill="#eef6ff" stroke="black" d="M92.12,-279C92.12,-279 19.88,-279 19.88,-279 13.88,-279 7.88,-273 7.88,-267 7.88,-267 7.88,-255 7.88,-255 7.88,-249 13.88,-243 19.88,-243 19.88,-243 92.12,-243 92.12,-243 98.12,-243 104.12,-249 104.12,-255 104.12,-255 104.12,-267 104.12,-267 104.12,-273 98.12,-279 92.12,-279"/>
<text text-anchor="middle" x="56" y="-256.7" font-family="Times,serif" font-size="14.00">notifications</text>
</g>
<!-- SERVICE:notifications&#45;&gt;DATABASE:user&#45;db -->
<g id="edge13" class="edge">
<title>SERVICE:notifications&#45;&gt;DATABASE:user&#45;db</title>
<g id="a_edge13"><a xlink:title="edge#12">
<path fill="none" stroke="black" d="M104.45,-261C148.54,-261 213.65,-261 256.47,-261"/>
<polygon fill="black" stroke="black" points="256.41,-264.5 266.41,-261 256.41,-257.5 256.41,-264.5"/>
</a>
</g>
<text text-anchor="middle" x="188.88" y="-265.7" font-family="Times,serif" font-size="14.00">CALLS [rest] (sync)</text>
</g>
<!-- SERVICE:ops&#45;hub_split&#45;1&#45;&gt;SERVICE:ops&#45;hub_split -->
<g id="edge14" class="edge">
<title>SERVICE:ops&#45;hub_split&#45;1&#45;&gt;SERVICE:ops&#45;hub_split</title>
<g id="a_edge14"><a xlink:title="edge#13">
<path fill="none" stroke="black" d="M606.19,-132.55C648.13,-137.36 705.08,-143.89 748.22,-148.84"/>
<polygon fill="black" stroke="black" points="747.6,-152.29 757.93,-149.96 748.4,-145.34 747.6,-152.29"/>
</a>
</g>
<text text-anchor="middle" x="682.88" y="-152.7" font-family="Times,serif" font-size="14.00">CALLS [rest] (sync)</text>
</g>
<!-- SERVICE:ops&#45;hub_split&#45;1&#45;&gt;SERVICE:audit&#45;log -->
<g id="edge7" class="edge">
<title>SERVICE:ops&#45;hub_split&#45;1&#45;&gt;SERVICE:audit&#45;log</title>
<g id="a_edge7"><a xlink:title="edge#6">
<path fill="none" stroke="black" d="M606.16,-111.9C612.16,-110.77 618.18,-109.76 624,-109 670.91,-102.85 724.97,-101.44 762.79,-101.36"/>
<polygon fill="black" stroke="black" points="762.46,-104.86 772.47,-101.37 762.47,-97.86 762.46,-104.86"/>
</a>
</g>
<text text-anchor="middle" x="682.88" y="-113.7" font-family="Times,serif" font-size="14.00">CALLS [rest] (sync)</text>
</g>
<!-- SERVICE:scheduler -->
<g id="node13" class="node">
<title>SERVICE:scheduler</title>
<path fill="#eef6ff" stroke="black" d="M82.75,-171C82.75,-171 29.25,-171 29.25,-171 23.25,-171 17.25,-165 17.25,-159 17.25,-159 17.25,-147 17.25,-147 17.25,-141 23.25,-135 29.25,-135 29.25,-135 82.75,-135 82.75,-135 88.75,-135 94.75,-141 94.75,-147 94.75,-147 94.75,-159 94.75,-159 94.75,-165 88.75,-171 82.75,-171"/>
<text text-anchor="middle" x="56" y="-148.7" font-family="Times,serif" font-size="14.00">scheduler</text>
</g>
<!-- SERVICE:scheduler&#45;&gt;SERVICE:ops&#45;hub -->
<g id="edge3" class="edge">
<title>SERVICE:scheduler&#45;&gt;SERVICE:ops&#45;hub</title>
<g id="a_edge3"><a xlink:title="edge#2">
<path fill="none" stroke="black" d="M94.99,-148.78C138.23,-143.98 208.83,-136.14 254.88,-131.02"/>
<polygon fill="black" stroke="black" points="255.26,-134.5 264.82,-129.92 254.49,-127.55 255.26,-134.5"/>
</a>
</g>
<text text-anchor="middle" x="188.88" y="-149.7" font-family="Times,serif" font-size="14.00">CALLS [rest] (sync)</text>
</g>
<!-- SERVICE:user&#45;profile -->
<g id="node15" class="node">
<title>SERVICE:user&#45;profile</title>
<path fill="#eef6ff" stroke="black" d="M89.12,-225C89.12,-225 22.88,-225 22.88,-225 16.88,-225 10.88,-219 10.88,-213 10.88,-213 10.88,-201 10.88,-201 10.88,-195 16.88,-189 22.88,-189 22.88,-189 89.12,-189 89.12,-189 95.12,-189 101.12,-195 101.12,-201 101.12,-201 101.12,-213 101.12,-213 101.12,-219 95.12,-225 89.12,-225"/>
<text text-anchor="middle" x="56" y="-202.7" font-family="Times,serif" font-size="14.00">user&#45;profile</text>
</g>
<!-- SERVICE:user&#45;profile&#45;&gt;DATABASE:user&#45;db -->
<g id="edge11" class="edge">
<title>SERVICE:user&#45;profile&#45;&gt;DATABASE:user&#45;db</title>
<g id="a_edge11"><a xlink:title="edge#10">
<path fill="none" stroke="black" d="M101.59,-211.52C140.67,-216.18 198.72,-224.8 247.75,-239 251.01,-239.94 254.34,-241.03 257.66,-242.21"/>
<polygon fill="black" stroke="black" points="256.13,-245.37 266.72,-245.65 258.62,-238.83 256.13,-245.37"/>
</a>
</g>
<text text-anchor="middle" x="188.88" y="-243.7" font-family="Times,serif" font-size="14.00">CALLS [rest] (sync)</text>
</g>
<!-- SERVICE:ops&#45;hub_split_split&#45;&gt;SERVICE:report&#45;export -->
<g id="edge10" class="edge">
<title>SERVICE:ops&#45;hub_split_split&#45;&gt;SERVICE:report&#45;export</title>
<g id="a_edge10"><a xlink:title="edge#9">
<path fill="none" stroke="black" d="M1155.87,-131.74C1199.91,-136.08 1256.66,-141.67 1299.41,-145.87"/>
<polygon fill="black" stroke="black" points="1298.99,-149.35 1309.29,-146.85 1299.68,-142.38 1298.99,-149.35"/>
</a>
</g>
<text text-anchor="middle" x="1232.38" y="-149.7" font-family="Times,serif" font-size="14.00">CALLS [rest] (sync)</text>
</g>
<!-- SERVICE:metrics&#45;agent -->
<g id="node19" class="node">
<title>SERVICE:metrics&#45;agent</title>
<path fill="#eef6ff" stroke="black" d="M1404,-116C1404,-116 1321.25,-116 1321.25,-116 1315.25,-116 1309.25,-110 1309.25,-104 1309.25,-104 1309.25,-92 1309.25,-92 1309.25,-86 1315.25,-80 1321.25,-80 1321.25,-80 1404,-80 1404,-80 1410,-80 1416,-86 1416,-92 1416,-92 1416,-104 1416,-104 1416,-110 1410,-116 1404,-116"/>
<text text-anchor="middle" x="1362.62" y="-93.7" font-family="Times,serif" font-size="14.00">metrics&#45;agent</text>
</g>
<!-- SERVICE:ops&#45;hub_split_split&#45;&gt;SERVICE:metrics&#45;agent -->
<g id="edge9" class="edge">
<title>SERVICE:ops&#45;hub_split_split&#45;&gt;SERVICE:metrics&#45;agent</title>
<g id="a_edge9"><a xlink:title="edge#8">
<path fill="none" stroke="black" d="M1155.95,-114.17C1161.88,-113.38 1167.79,-112.64 1173.5,-112 1214.61,-107.37 1260.96,-103.9 1297.37,-101.58"/>
<polygon fill="black" stroke="black" points="1297.54,-105.07 1307.31,-100.96 1297.11,-98.09 1297.54,-105.07"/>
</a>
</g>
<text text-anchor="middle" x="1232.38" y="-116.7" font-family="Times,serif" font-size="14.00">CALLS [rest] (sync)</text>
</g>
<!-- SERVICE:admin&#45;console -->
<g id="node18" class="node">
<title>SERVICE:admin&#45;console</title>
<path fill="#eef6ff" stroke="black" d="M100,-117C100,-117 12,-117 12,-117 6,-117 0,-111 0,-105 0,-105 0,-93 0,-93 0,-87 6,-81 12,-81 12,-81 100,-81 100,-81 106,-81 112,-87 112,-93 112,-93 112,-105 112,-105 112,-111 106,-117 100,-117"/>
<text text-anchor="middle" x="56" y="-94.7" font-family="Times,serif" font-size="14.00">admin&#45;console</text>
</g>
<!-- SERVICE:admin&#45;console&#45;&gt;SERVICE:ops&#45;hub -->
<g id="edge4" class="edge">
<title>SERVICE:admin&#45;console&#45;&gt;SERVICE:ops&#45;hub</title>
<g id="a_edge4"><a xlink:title="edge#3">
<path fill="none" stroke="black" d="M112.5,-98.72C150.78,-99.37 202.69,-101.94 247.75,-110 250.18,-110.44 252.66,-110.95 255.15,-111.52"/>
<polygon fill="black" stroke="black" points="254.02,-114.84 264.58,-113.93 255.76,-108.06 254.02,-114.84"/>
</a>
</g>
<text text-anchor="middle" x="188.88" y="-114.7" font-family="Times,serif" font-size="14.00">CALLS [rest] (sync)</text>
</g>
</g>
</svg>
