<?xml version="1.0" encoding="UTF-8" standalone="no"?>
<!DOCTYPE svg PUBLIC "-//W3C//DTD SVG 1.1//EN"
 "http://www.w3.org/Graphics/SVG/1.1/DTD/svg11.dtd">
<!-- Generated by graphviz version 9.0.0 (20230911.1827)
 -->
<!-- Title: G Pages: 1 -->
<svg width="863pt" height="448pt"
 viewBox="0.00 0.00 862.50 448.00" xmlns="http://www.w3.org/2000/svg" xmlns:xlink="http://www.w3.org/1999/xlink">
<g id="graph0" class="graph" transform="scale(1 1) rotate(0) translate(4 444)">
<title>G</title>
<polygon fill="white" stroke="none" points="-4,4 -4,-444 858.5,-444 858.5,4 -4,4"/>
<text text-anchor="middle" x="427.25" y="-422.7" font-family="Helvetica,sans-Serif" font-size="14.00">Architecture</text>
<!-- SERVICE:scheduler -->
<g id="node1" class="node">
<title>SERVICE:scheduler</title>
<path fill="#eef6ff" stroke="black" d="M82.75,-198C82.75,-198 29.25,-198 29.25,-198 23.25,-198 17.25,-192 17.25,-186 17.25,-186 17.25,-174 17.25,-174 17.25,-168 23.25,-162 29.25,-162 29.25,-162 82.75,-162 82.75,-162 88.75,-162 94.75,-168 94.75,-174 94.75,-174 94.75,-186 94.75,-186 94.75,-192 88.75,-198 82.75,-198"/>
<text text-anchor="middle" x="56" y="-175.7" font-family="Times,serif" font-size="14.00">scheduler</text>
</g>
<!-- SERVICE:ops&#45;hub -->
<g id="node7" class="node">
<title>SERVICE:ops&#45;hub</title>
<path fill="#eef6ff" stroke="black" d="M323.75,-171C323.75,-171 278.5,-171 278.5,-171 272.5,-171 266.5,-165 266.5,-159 266.5,-159 266.5,-147 266.5,-147 266.5,-141 272.5,-135 278.5,-135 278.5,-135 323.75,-135 323.75,-135 329.75,-135 335.75,-141 335.75,-147 335.75,-147 335.75,-159 335.75,-159 335.75,-165 329.75,-171 323.75,-171"/>
<text text-anchor="middle" x="301.12" y="-148.7" font-family="Times,serif" font-size="14.00">ops&#45;hub</text>
</g>
<!-- SERVICE:scheduler&#45;&gt;SERVICE:ops&#45;hub -->
<g id="edge3" class="edge">
<title>SERVICE:scheduler&#45;&gt;SERVICE:ops&#45;hub</title>
<g id="a_edge3"><a xlink:title="edge#2">
<path fill="none" stroke="black" d="M94.99,-175.78C138.23,-170.98 208.83,-163.14 254.88,-158.02"/>
<polygon fill="black" stroke="black" points="255.26,-161.5 264.82,-156.92 254.49,-154.55 255.26,-161.5"/>
</a>
</g>
<text text-anchor="middle" x="188.88" y="-176.7" font-family="Times,serif" font-size="14.00">CALLS [rest] (sync)</text>
</g>
<!-- SERVICE:metrics&#45;agent -->
<g id="node2" class="node">
<title>SERVICE:metrics&#45;agent</title>
<path fill="#eef6ff" stroke="black" d="M842.5,-144C842.5,-144 759.75,-144 759.75,-144 753.75,-144 747.75,-138 747.75,-132 747.75,-132 747.75,-120 747.75,-120 747.75,-114 753.75,-108 759.75,-108 759.75,-108 842.5,-108 842.5,-108 848.5,-108 854.5,-114 854.5,-120 854.5,-120 854.5,-132 854.5,-132 854.5,-138 848.5,-144 842.5,-144"/>
<text text-anchor="middle" x="801.12" y="-121.7" font-family="Times,serif" font-size="14.00">metrics&#45;agent</text>
</g>
<!-- SERVICE:preferences -->
<g id="node3" class="node">
<title>SERVICE:preferences</title>
<path fill="#eef6ff" stroke="black" d="M89.5,-360C89.5,-360 22.5,-360 22.5,-360 16.5,-360 10.5,-354 10.5,-348 10.5,-348 10.5,-336 10.5,-336 10.5,-330 16.5,-324 22.5,-324 22.5,-324 89.5,-324 89.5,-324 95.5,-324 101.5,-330 101.5,-336 101.5,-336 101.5,-348 101.5,-348 101.5,-354 95.5,-360 89.5,-360"/>
<text text-anchor="middle" x="56" y="-337.7" font-family="Times,serif" font-size="14.00">preferences</text>
</g>
<!-- DATABASE:user&#45;db -->
<g id="node16" class="node">
<title>DATABASE:user&#45;db</title>
<path fill="#fff3cd" stroke="black" d="M333.88,-302.73C333.88,-304.53 319.2,-306 301.12,-306 283.05,-306 268.38,-304.53 268.38,-302.73 268.38,-302.73 268.38,-273.27 268.38,-273.27 268.38,-271.47 283.05,-270 301.12,-270 319.2,-270 333.88,-271.47 333.88,-273.27 333.88,-273.27 333.88,-302.73 333.88,-302.73"/>
<path fill="none" stroke="black" d="M333.88,-302.73C333.88,-300.92 319.2,-299.45 301.12,-299.45 283.05,-299.45 268.38,-300.92 268.38,-302.73"/>
<text text-anchor="middle" x="301.12" y="-283.7" font-family="Times,serif" font-size="14.00">user&#45;db</text>
</g>
<!-- SERVICE:preferences&#45;&gt;DATABASE:user&#45;db -->
<g id="edge12" class="edge">
<title>SERVICE:preferences&#45;&gt;DATABASE:user&#45;db</title>
<g id="a_edge12"><a xlink:title="edge#11">
<path fill="none" stroke="black" d="M101.98,-337.43C141.05,-332.76 198.89,-324.15 247.75,-310 251.01,-309.06 254.34,-307.97 257.66,-306.79"/>
<polygon fill="black" stroke="black" points="258.62,-310.17 266.72,-303.35 256.13,-303.63 258.62,-310.17"/>
</a>
</g>
<text text-anchor="middle" x="188.88" y="-337.7" font-family="Times,serif" font-size="14.00">CALLS [rest] (sync)</text>
</g>
<!-- SERVICE:pricing -->
<g id="node4" class="node">
<title>SERVICE:pricing</title>
<path fill="#eef6ff" stroke="black" d="M74.12,-414C74.12,-414 37.88,-414 37.88,-414 31.88,-414 25.88,-408 25.88,-402 25.88,-402 25.88,-390 25.88,-390 25.88,-384 31.88,-378 37.88,-378 37.88,-378 74.12,-378 74.12,-378 80.12,-378 86.12,-384 86.12,-390 86.12,-390 86.12,-402 86.12,-402 86.12,-408 80.12,-414 74.12,-414"/>
<text text-anchor="middle" x="56" y="-391.7" font-family="Times,serif" font-size="14.00">pricing</text>
</g>
<!-- SERVICE:discount -->
<g id="node5" class="node">
<title>SERVICE:discount</title>
<path fill="#eef6ff" stroke="black" d="M324.5,-414C324.5,-414 277.75,-414 277.75,-414 271.75,-414 265.75,-408 265.75,-402 265.75,-402 265.75,-390 265.75,-390 265.75,-384 271.75,-378 277.75,-378 277.75,-378 324.5,-378 324.5,-378 330.5,-378 336.5,-384 336.5,-390 336.5,-390 336.5,-402 336.5,-402 336.5,-408 330.5,-414 324.5,-414"/>
<text text-anchor="middle" x="301.12" y="-391.7" font-family="Times,serif" font-size="14.00">discount</text>
</g>
<!-- SERVICE:pricing&#45;&gt;SERVICE:discount -->
<g id="edge1" class="edge">
<title>SERVICE:pricing&#45;&gt;SERVICE:discount</title>
<g id="a_edge1"><a xlink:title="edge#0">
<path fill="none" stroke="black" d="M86.33,-396C128.07,-396 205.01,-396 254.31,-396"/>
<polygon fill="black" stroke="black" points="254.09,-399.5 264.09,-396 254.09,-392.5 254.09,-399.5"/>
</a>
</g>
<text text-anchor="middle" x="188.88" y="-400.7" font-family="Times,serif" font-size="14.00">CALLS [rest] (sync)</text>
</g>
<!-- SERVICE:tax -->
<g id="node9" class="node">
<title>SERVICE:tax</title>
<path fill="#eef6ff" stroke="black" d="M557.12,-414C557.12,-414 527.12,-414 527.12,-414 521.12,-414 515.12,-408 515.12,-402 515.12,-402 515.12,-390 515.12,-390 515.12,-384 521.12,-378 527.12,-378 527.12,-378 557.12,-378 557.12,-378 563.12,-378 569.12,-384 569.12,-390 569.12,-390 569.12,-402 569.12,-402 569.12,-408 563.12,-414 557.12,-414"/>
<text text-anchor="middle" x="542.12" y="-391.7" font-family="Times,serif" font-size="14.00">tax</text>
</g>
<!-- SERVICE:discount&#45;&gt;SERVICE:tax -->
<g id="edge2" class="edge">
<title>SERVICE:discount&#45;&gt;SERVICE:tax</title>
<g id="a_edge2"><a xlink:title="edge#1">
<path fill="none" stroke="black" d="M336.88,-396C381.21,-396 457.59,-396 503.33,-396"/>
<polygon fill="black" stroke="black" points="503.3,-399.5 513.3,-396 503.3,-392.5 503.3,-399.5"/>
</a>
</g>
<text text-anchor="middle" x="413.38" y="-400.7" font-family="Times,serif" font-size="14.00">CALLS [rest] (sync)</text>
</g>
<!-- SERVICE:admin&#45;console -->
<g id="node6" class="node">
<title>SERVICE:admin&#45;console</title>
<path fill="#eef6ff" stroke="black" d="M100,-144C100,-144 12,-144 12,-144 6,-144 0,-138 0,-132 0,-132 0,-120 0,-120 0,-114 6,-108 12,-108 12,-108 100,-108 100,-108 106,-108 112,-114 112,-120 112,-120 112,-132 112,-132 112,-138 106,-144 100,-144"/>
<text text-anchor="middle" x="56" y="-121.7" font-family="Times,serif" font-size="14.00">admin&#45;console</text>
</g>
<!-- SERVICE:admin&#45;console&#45;&gt;SERVICE:ops&#45;hub -->
<g id="edge4" class="edge">
<title>SERVICE:admin&#45;console&#45;&gt;SERVICE:ops&#45;hub</title>
<g id="a_edge4"><a xlink:title="edge#3">
<path fill="none" stroke="black" d="M112.5,-125.72C150.78,-126.37 202.69,-128.94 247.75,-137 250.18,-137.44 252.66,-137.95 255.15,-138.52"/>
<polygon fill="black" stroke="black" points="254.02,-141.84 264.58,-140.93 255.76,-135.06 254.02,-141.84"/>
</a>
</g>
<text text-anchor="middle" x="188.88" y="-141.7" font-family="Times,serif" font-size="14.00">CALLS [rest] (sync)</text>
</g>
<!-- SERVICE:sms&#45;gateway -->
<g id="node8" class="node">
<title>SERVICE:sms&#45;gateway</title>
<path fill="#eef6ff" stroke="black" d="M581.25,-252C581.25,-252 503,-252 503,-252 497,-252 491,-246 491,-240 491,-240 491,-228 491,-228 491,-222 497,-216 503,-216 503,-216 581.25,-216 581.25,-216 587.25,-216 593.25,-222 593.25,-228 593.25,-228 593.25,-240 593.25,-240 593.25,-246 587.25,-252 581.25,-252"/>
<text text-anchor="middle" x="542.12" y="-229.7" font-family="Times,serif" font-size="14.00">sms&#45;gateway</text>
</g>
<!-- SERVICE:ops&#45;hub&#45;&gt;SERVICE:sms&#45;gateway -->
<g id="edge6" class="edge">
<title>SERVICE:ops&#45;hub&#45;&gt;SERVICE:sms&#45;gateway</title>
<g id="a_edge6"><a xlink:title="edge#5">
<path fill="none" stroke="black" d="M320.53,-171.34C329.96,-179.75 342.06,-189.13 354.5,-195 393.83,-213.56 441.96,-223.35 479.49,-228.47"/>
<polygon fill="black" stroke="black" points="478.91,-231.92 489.27,-229.72 479.8,-224.98 478.91,-231.92"/>
</a>
</g>
<text text-anchor="middle" x="413.38" y="-232.7" font-family="Times,serif" font-size="14.00">CALLS [rest] (sync)</text>
</g>
<!-- SERVICE:emailer -->
<g id="node10" class="node">
<title>SERVICE:emailer</title>
<path fill="#eef6ff" stroke="black" d="M562.12,-198C562.12,-198 522.12,-198 522.12,-198 516.12,-198 510.12,-192 510.12,-186 510.12,-186 510.12,-174 510.12,-174 510.12,-168 516.12,-162 522.12,-162 522.12,-162 562.12,-162 562.12,-162 568.12,-162 574.12,-168 574.12,-174 574.12,-174 574.12,-186 574.12,-186 574.12,-192 568.12,-198 562.12,-198"/>
<text text-anchor="middle" x="542.12" y="-175.7" font-family="Times,serif" font-size="14.00">emailer</text>
</g>
<!-- SERVICE:ops&#45;hub&#45;&gt;SERVICE:emailer -->
<g id="edge5" class="edge">
<title>SERVICE:ops&#45;hub&#45;&gt;SERVICE:emailer</title>
<g id="a_edge5"><a xlink:title="edge#4">
<path fill="none" stroke="black" d="M336.11,-156.84C378.88,-161.67 452.34,-169.97 498.74,-175.21"/>
<polygon fill="black" stroke="black" points="498.08,-178.66 508.41,-176.3 498.87,-171.7 498.08,-178.66"/>
</a>
</g>
<text text-anchor="middle" x="413.38" y="-177.7" font-family="Times,serif" font-size="14.00">CALLS [rest] (sync)</text>
</g>
<!-- SERVICE:audit&#45;log -->
<g id="node11" class="node">
<title>SERVICE:audit&#45;log</title>
<path fill="#eef6ff" stroke="black" d="M567.38,-144C567.38,-144 516.88,-144 516.88,-144 510.88,-144 504.88,-138 504.88,-132 504.88,-132 504.88,-120 504.88,-120 504.88,-114 510.88,-108 516.88,-108 516.88,-108 567.38,-108 567.38,-108 573.38,-108 579.38,-114 579.38,-120 579.38,-120 579.38,-132 579.38,-132 579.38,-138 573.38,-144 567.38,-144"/>
<text text-anchor="middle" x="542.12" y="-121.7" font-family="Times,serif" font-size="14.00">audit&#45;log</text>
</g>
<!-- SERVICE:ops&#45;hub&#45;&gt;SERVICE:audit&#45;log -->
<g id="edge7" class="edge">
<title>SERVICE:ops&#45;hub&#45;&gt;SERVICE:audit&#45;log</title>
<g id="a_edge7"><a xlink:title="edge#6">
<path fill="none" stroke="black" d="M335.97,-142.16C342.08,-140.53 348.44,-139.05 354.5,-138 401.18,-129.91 455.27,-127.15 493.16,-126.26"/>
<polygon fill="black" stroke="black" points="492.93,-129.77 502.86,-126.07 492.8,-122.77 492.93,-129.77"/>
</a>
</g>
<text text-anchor="middle" x="413.38" y="-142.7" font-family="Times,serif" font-size="14.00">CALLS [rest] (sync)</text>
</g>
<!-- SERVICE:ops&#45;hub_split -->
<g id="node17" class="node">
<title>SERVICE:ops&#45;hub_split</title>
<path fill="#eef6ff" stroke="black" d="M582,-90C582,-90 502.25,-90 502.25,-90 496.25,-90 490.25,-84 490.25,-78 490.25,-78 490.25,-66 490.25,-66 490.25,-60 496.25,-54 502.25,-54 502.25,-54 582,-54 582,-54 588,-54 594,-60 594,-66 594,-66 594,-78 594,-78 594,-84 588,-90 582,-90"/>
<text text-anchor="middle" x="542.12" y="-67.7" font-family="Times,serif" font-size="14.00">ops&#45;hub_split</text>
</g>
<!-- SERVICE:ops&#45;hub&#45;&gt;SERVICE:ops&#45;hub_split -->
<g id="edge14" class="edge">
<title>SERVICE:ops&#45;hub&#45;&gt;SERVICE:ops&#45;hub_split</title>
<g id="a_edge14"><a xlink:title="edge#13">
<path fill="none" stroke="black" d="M317.78,-134.66C327.36,-124.63 340.46,-112.88 354.5,-106 393.22,-87.02 441.17,-78.56 478.76,-74.82"/>
<polygon fill="black" stroke="black" points="478.92,-78.32 488.57,-73.95 478.29,-71.35 478.92,-78.32"/>
</a>
</g>
<text text-anchor="middle" x="413.38" y="-110.7" font-family="Times,serif" font-size="14.00">CALLS [rest] (sync)</text>
</g>
<!-- SERVICE:cache&#45;proxy -->
<g id="node12" class="node">
<title>SERVICE:cache&#45;proxy</title>
<path fill="#eef6ff" stroke="black" d="M836.12,-90C836.12,-90 766.12,-90 766.12,-90 760.12,-90 754.12,-84 754.12,-78 754.12,-78 754.12,-66 754.12,-66 754.12,-60 760.12,-54 766.12,-54 766.12,-54 836.12,-54 836.12,-54 842.12,-54 848.12,-60 848.12,-66 848.12,-66 848.12,-78 848.12,-78 848.12,-84 842.12,-90 836.12,-90"/>
<text text-anchor="middle" x="801.12" y="-67.7" font-family="Times,serif" font-size="14.00">cache&#45;proxy</text>
</g>
<!-- SERVICE:report&#45;export -->
<g id="node13" class="node">
<title>SERVICE:report&#45;export</title>
<path fill="#eef6ff" stroke="black" d="M840.62,-36C840.62,-36 761.62,-36 761.62,-36 755.62,-36 749.62,-30 749.62,-24 749.62,-24 749.62,-12 749.62,-12 749.62,-6 755.62,0 761.62,0 761.62,0 840.62,0 840.62,0 846.62,0 852.62,-6 852.62,-12 852.62,-12 852.62,-24 852.62,-24 852.62,-30 846.62,-36 840.62,-36"/>
<text text-anchor="middle" x="801.12" y="-13.7" font-family="Times,serif" font-size="14.00">report&#45;export</text>
</g>
<!-- SERVICE:user&#45;profile -->
<g id="node14" class="node">
<title>SERVICE:user&#45;profile</title>
<path fill="#eef6ff" stroke="black" d="M89.12,-306C89.12,-306 22.88,-306 22.88,-306 16.88,-306 10.88,-300 10.88,-294 10.88,-294 10.88,-282 10.88,-282 10.88,-276 16.88,-270 22.88,-270 22.88,-270 89.12,-270 89.12,-270 95.12,-270 101.12,-276 101.12,-282 101.12,-282 101.12,-294 101.12,-294 101.12,-300 95.12,-306 89.12,-306"/>
<text text-anchor="middle" x="56" y="-283.7" font-family="Times,serif" font-size="14.00">user&#45;profile</text>
</g>
<!-- SERVICE:user&#45;profile&#45;&gt;DATABASE:user&#45;db -->
<g id="edge11" class="edge">
<title>SERVICE:user&#45;profile&#45;&gt;DATABASE:user&#45;db</title>
<g id="a_edge11"><a xlink:title="edge#10">
<path fill="none" stroke="black" d="M101.59,-288C145.79,-288 213.06,-288 256.81,-288"/>
<polygon fill="black" stroke="black" points="256.7,-291.5 266.7,-288 256.7,-284.5 256.7,-291.5"/>
</a>
</g>
<text text-anchor="middle" x="188.88" y="-292.7" font-family="Times,serif" font-size="14.00">CALLS [rest] (sync)</text>
</g>
<!-- SERVICE:notifications -->
<g id="node15" class="node">
<title>SERVICE:notifications</title>
<path fill="#eef6ff" stroke="black" d="M92.12,-252C92.12,-252 19.88,-252 19.88,-252 13.88,-252 7.88,-246 7.88,-240 7.88,-240 7.88,-228 7.88,-228 7.88,-222 13.88,-216 19.88,-216 19.88,-216 92.12,-216 92.12,-216 98.12,-216 104.12,-222 104.12,-228 104.12,-228 104.12,-240 104.12,-240 104.12,-246 98.12,-252 92.12,-252"/>
<text text-anchor="middle" x="56" y="-229.7" font-family="Times,serif" font-size="14.00">notifications</text>
</g>
<!-- SERVICE:notifications&#45;&gt;DATABASE:user&#45;db -->
<g id="edge13" class="edge">
<title>SERVICE:notifications&#45;&gt;DATABASE:user&#45;db</title>
<g id="a_edge13"><a xlink:title="edge#12">
<path fill="none" stroke="black" d="M104.32,-238.85C143.34,-243.58 199.85,-252.13 247.75,-266 251.01,-266.94 254.34,-268.03 257.66,-269.21"/>
<polygon fill="black" stroke="black" points="256.13,-272.37 266.72,-272.65 258.62,-265.83 256.13,-272.37"/>
</a>
</g>
<text text-anchor="middle" x="188.88" y="-270.7" font-family="Times,serif" font-size="14.00">CALLS [rest] (sync)</text>
</g>
<!-- SERVICE:ops&#45;hub_split&#45;&gt;SERVICE:metrics&#45;agent -->
<g id="edge9" class="edge">
<title>SERVICE:ops&#45;hub_split&#45;&gt;SERVICE:metrics&#45;agent</title>
<g id="a_edge9"><a xlink:title="edge#8">
<path fill="none" stroke="black" d="M594.43,-89.26C600.32,-90.98 606.27,-92.6 612,-94 652.99,-103.98 699.74,-111.95 736.39,-117.44"/>
<polygon fill="black" stroke="black" points="735.51,-120.85 745.92,-118.84 736.53,-113.92 735.51,-120.85"/>
</a>
</g>
<text text-anchor="middle" x="670.88" y="-121.7" font-family="Times,serif" font-size="14.00">CALLS [rest] (sync)</text>
</g>
<!-- SERVICE:ops&#45;hub_split&#45;&gt;SERVICE:cache&#45;proxy -->
<g id="edge8" class="edge">
<title>SERVICE:ops&#45;hub_split&#45;&gt;SERVICE:cache&#45;proxy</title>
<g id="a_edge8"><a xlink:title="edge#7">
<path fill="none" stroke="black" d="M594.21,-72C636.94,-72 697.88,-72 742.38,-72"/>
<polygon fill="black" stroke="black" points="742.37,-75.5 752.37,-72 742.37,-68.5 742.37,-75.5"/>
</a>
</g>
<text text-anchor="middle" x="670.88" y="-76.7" font-family="Times,serif" font-size="14.00">CALLS [rest] (sync)</text>
</g>
<!-- SERVICE:ops&#45;hub_split&#45;&gt;SERVICE:report&#45;export -->
<g id="edge10" class="edge">
<title>SERVICE:ops&#45;hub_split&#45;&gt;SERVICE:report&#45;export</title>
<g id="a_edge10"><a xlink:title="edge#9">
<path fill="none" stroke="black" d="M594.43,-54.74C600.32,-53.02 606.27,-51.4 612,-50 653.72,-39.84 701.41,-31.77 738.33,-26.27"/>
<polygon fill="black" stroke="black" points="738.54,-29.78 747.93,-24.87 737.53,-22.85 738.54,-29.78"/>
</a>
</g>
<text text-anchor="middle" x="670.88" y="-54.7" font-family="Times,serif" font-size="14.00">CALLS [rest] (sync)</text>
</g>
</g>
</svg>
