<?xml version="1.0" encoding="UTF-8" standalone="no"?>
<!DOCTYPE svg PUBLIC "-//W3C//DTD SVG 1.1//EN"
 "http://www.w3.org/Graphics/SVG/1.1/DTD/svg11.dtd">
<!-- Generated by graphviz version 9.0.0 (20230911.1827)
 -->
<!-- Title: G Pages: 1 -->
<svg width="1247pt" height="180pt"
 viewBox="0.00 0.00 1246.50 180.33" xmlns="http://www.w3.org/2000/svg" xmlns:xlink="http://www.w3.org/1999/xlink">
<g id="graph0" class="graph" transform="scale(1 1) rotate(0) translate(4 176.33)">
<title>G</title>
<polygon fill="white" stroke="none" points="-4,4 -4,-176.33 1242.5,-176.33 1242.5,4 -4,4"/>
<text text-anchor="middle" x="619.25" y="-155.03" font-family="Helvetica,sans-Serif" font-size="14.00">Architecture</text>
<!-- SERVICE:user -->
<g id="node1" class="node">
<title>SERVICE:user</title>
<path fill="#eef6ff" stroke="black" d="M53.75,-71.33C53.75,-71.33 23.75,-71.33 23.75,-71.33 17.75,-71.33 11.75,-65.33 11.75,-59.33 11.75,-59.33 11.75,-47.33 11.75,-47.33 11.75,-41.33 17.75,-35.33 23.75,-35.33 23.75,-35.33 53.75,-35.33 53.75,-35.33 59.75,-35.33 65.75,-41.33 65.75,-47.33 65.75,-47.33 65.75,-59.33 65.75,-59.33 65.75,-65.33 59.75,-71.33 53.75,-71.33"/>
<text text-anchor="middle" x="38.75" y="-49.03" font-family="Times,serif" font-size="14.00">user</text>
</g>
<!-- SERVICE:web page -->
<g id="node2" class="node">
<title>SERVICE:web page</title>
<path fill="#eef6ff" stroke="black" d="M65.5,-125.33C65.5,-125.33 12,-125.33 12,-125.33 6,-125.33 0,-119.33 0,-113.33 0,-113.33 0,-101.33 0,-101.33 0,-95.33 6,-89.33 12,-89.33 12,-89.33 65.5,-89.33 65.5,-89.33 71.5,-89.33 77.5,-95.33 77.5,-101.33 77.5,-101.33 77.5,-113.33 77.5,-113.33 77.5,-119.33 71.5,-125.33 65.5,-125.33"/>
<text text-anchor="middle" x="38.75" y="-103.03" font-family="Times,serif" font-size="14.00">web page</text>
</g>
<!-- SERVICE:web page_split -->
<g id="node7" class="node">
<title>SERVICE:web page_split</title>
<path fill="#eef6ff" stroke="black" d="M406.12,-146.33C406.12,-146.33 318.12,-146.33 318.12,-146.33 312.12,-146.33 306.12,-140.33 306.12,-134.33 306.12,-134.33 306.12,-122.33 306.12,-122.33 306.12,-116.33 312.12,-110.33 318.12,-110.33 318.12,-110.33 406.12,-110.33 406.12,-110.33 412.12,-110.33 418.12,-116.33 418.12,-122.33 418.12,-122.33 418.12,-134.33 418.12,-134.33 418.12,-140.33 412.12,-146.33 406.12,-146.33"/>
<text text-anchor="middle" x="362.12" y="-124.03" font-family="Times,serif" font-size="14.00">web page_split</text>
</g>
<!-- SERVICE:web page&#45;&gt;SERVICE:web page_split -->
<g id="edge7" class="edge">
<title>SERVICE:web page&#45;&gt;SERVICE:web page_split</title>
<g id="a_edge7"><a xlink:title="edge#6">
<path fill="none" stroke="black" d="M77.88,-109.82C131.21,-113.3 228.88,-119.68 294.41,-123.97"/>
<polygon fill="black" stroke="black" points="294.13,-127.45 304.33,-124.61 294.58,-120.47 294.13,-127.45"/>
</a>
</g>
<text text-anchor="middle" x="154.38" y="-122.03" font-family="Times,serif" font-size="14.00">CALLS [rest] (sync)</text>
</g>
<!-- SERVICE:bff -->
<g id="node8" class="node">
<title>SERVICE:bff</title>
<path fill="#eef6ff" stroke="black" d="M273.25,-100.33C273.25,-100.33 243.25,-100.33 243.25,-100.33 237.25,-100.33 231.25,-94.33 231.25,-88.33 231.25,-88.33 231.25,-76.33 231.25,-76.33 231.25,-70.33 237.25,-64.33 243.25,-64.33 243.25,-64.33 273.25,-64.33 273.25,-64.33 279.25,-64.33 285.25,-70.33 285.25,-76.33 285.25,-76.33 285.25,-88.33 285.25,-88.33 285.25,-94.33 279.25,-100.33 273.25,-100.33"/>
<text text-anchor="middle" x="258.25" y="-78.03" font-family="Times,serif" font-size="14.00">bff</text>
</g>
<!-- SERVICE:web page&#45;&gt;SERVICE:bff -->
<g id="edge8" class="edge">
<title>SERVICE:web page&#45;&gt;SERVICE:bff</title>
<g id="a_edge8"><a xlink:title="edge#7">
<path fill="none" stroke="black" d="M77.75,-92.74C83.62,-90.97 89.67,-89.4 95.5,-88.33 137.46,-80.57 186.55,-79.9 219.55,-80.65"/>
<polygon fill="black" stroke="black" points="219.33,-84.14 229.43,-80.93 219.53,-77.14 219.33,-84.14"/>
</a>
</g>
<text text-anchor="middle" x="154.38" y="-93.03" font-family="Times,serif" font-size="14.00">CALLS [rest] (sync)</text>
</g>
<!-- SERVICE:orders -->
<g id="node3" class="node">
<title>SERVICE:orders</title>
<path fill="#eef6ff" stroke="black" d="M726.75,-49.33C726.75,-49.33 693.5,-49.33 693.5,-49.33 687.5,-49.33 681.5,-43.33 681.5,-37.33 681.5,-37.33 681.5,-25.33 681.5,-25.33 681.5,-19.33 687.5,-13.33 693.5,-13.33 693.5,-13.33 726.75,-13.33 726.75,-13.33 732.75,-13.33 738.75,-19.33 738.75,-25.33 738.75,-25.33 738.75,-37.33 738.75,-37.33 738.75,-43.33 732.75,-49.33 726.75,-49.33"/>
<text text-anchor="middle" x="710.12" y="-27.03" font-family="Times,serif" font-size="14.00">orders</text>
</g>
<!-- SERVICE:payments -->
<g id="node5" class="node">
<title>SERVICE:payments</title>
<path fill="#eef6ff" stroke="black" d="M978.88,-99.33C978.88,-99.33 923.88,-99.33 923.88,-99.33 917.88,-99.33 911.88,-93.33 911.88,-87.33 911.88,-87.33 911.88,-75.33 911.88,-75.33 911.88,-69.33 917.88,-63.33 923.88,-63.33 923.88,-63.33 978.88,-63.33 978.88,-63.33 984.88,-63.33 990.88,-69.33 990.88,-75.33 990.88,-75.33 990.88,-87.33 990.88,-87.33 990.88,-93.33 984.88,-99.33 978.88,-99.33"/>
<text text-anchor="middle" x="951.38" y="-77.03" font-family="Times,serif" font-size="14.00">payments</text>
</g>
<!-- SERVICE:orders&#45;&gt;SERVICE:payments -->
<g id="edge6" class="edge">
<title>SERVICE:orders&#45;&gt;SERVICE:payments</title>
<g id="a_edge6"><a xlink:title="edge#5">
<path fill="none" stroke="black" d="M739.18,-33.86C771.96,-37.18 827.7,-43.97 874.5,-55.33 883.06,-57.4 892.03,-60.04 900.68,-62.84"/>
<polygon fill="black" stroke="black" points="899.37,-66.09 909.97,-65.95 901.6,-59.46 899.37,-66.09"/>
</a>
</g>
<text text-anchor="middle" x="815.62" y="-60.03" font-family="Times,serif" font-size="14.00">CALLS [rest] (sync)</text>
</g>
<!-- DATABASE:database -->
<g id="node6" class="node">
<title>DATABASE:database</title>
<path fill="#fff3cd" stroke="black" d="M1238.5,-36.05C1238.5,-37.86 1221.8,-39.33 1201.25,-39.33 1180.7,-39.33 1164,-37.86 1164,-36.05 1164,-36.05 1164,-6.6 1164,-6.6 1164,-4.79 1180.7,-3.33 1201.25,-3.33 1221.8,-3.33 1238.5,-4.79 1238.5,-6.6 1238.5,-6.6 1238.5,-36.05 1238.5,-36.05"/>
<path fill="none" stroke="black" d="M1238.5,-36.05C1238.5,-34.25 1221.8,-32.78 1201.25,-32.78 1180.7,-32.78 1164,-34.25 1164,-36.05"/>
<text text-anchor="middle" x="1201.25" y="-17.03" font-family="Times,serif" font-size="14.00">database</text>
</g>
<!-- SERVICE:orders&#45;&gt;DATABASE:database -->
<g id="edge2" class="edge">
<title>SERVICE:orders&#45;&gt;DATABASE:database</title>
<g id="a_edge2"><a xlink:title="edge#1">
<path fill="none" stroke="black" d="M739.18,-30.75C819.53,-29.11 1051.22,-24.37 1152.22,-22.31"/>
<polygon fill="black" stroke="black" points="1152.15,-25.81 1162.07,-22.11 1152,-18.81 1152.15,-25.81"/>
</a>
</g>
<text text-anchor="middle" x="951.38" y="-33.03" font-family="Times,serif" font-size="14.00">CALLS [rest] (sync)</text>
</g>
<!-- SERVICE:restaurants -->
<g id="node4" class="node">
<title>SERVICE:restaurants</title>
<path fill="#eef6ff" stroke="black" d="M515.75,-49.33C515.75,-49.33 451,-49.33 451,-49.33 445,-49.33 439,-43.33 439,-37.33 439,-37.33 439,-25.33 439,-25.33 439,-19.33 445,-13.33 451,-13.33 451,-13.33 515.75,-13.33 515.75,-13.33 521.75,-13.33 527.75,-19.33 527.75,-25.33 527.75,-25.33 527.75,-37.33 527.75,-37.33 527.75,-43.33 521.75,-49.33 515.75,-49.33"/>
<text text-anchor="middle" x="483.38" y="-27.03" font-family="Times,serif" font-size="14.00">restaurants</text>
</g>
<!-- SERVICE:restaurants&#45;&gt;SERVICE:orders -->
<g id="edge5" class="edge">
<title>SERVICE:restaurants&#45;&gt;SERVICE:orders</title>
<g id="a_edge5"><a xlink:title="edge#4">
<path fill="none" stroke="black" d="M528.24,-31.33C569.43,-31.33 630.47,-31.33 670.03,-31.33"/>
<polygon fill="black" stroke="black" points="669.81,-34.83 679.81,-31.33 669.81,-27.83 669.81,-34.83"/>
</a>
</g>
<text text-anchor="middle" x="604.62" y="-36.03" font-family="Times,serif" font-size="14.00">CALLS [rest] (sync)</text>
</g>
<!-- SERVICE:restaurants&#45;&gt;DATABASE:database -->
<g id="edge3" class="edge">
<title>SERVICE:restaurants&#45;&gt;DATABASE:database</title>
<g id="a_edge3"><a xlink:title="edge#2">
<path fill="none" stroke="black" d="M528.04,-23.6C567.87,-16.98 628.43,-7.94 681.5,-4.33 854.61,7.48 1060.8,-8.09 1152.36,-16.54"/>
<polygon fill="black" stroke="black" points="1151.94,-20.01 1162.22,-17.46 1152.59,-13.04 1151.94,-20.01"/>
</a>
</g>
<text text-anchor="middle" x="815.62" y="-6.03" font-family="Times,serif" font-size="14.00">CALLS [rest] (sync)</text>
</g>
<!-- SERVICE:payments&#45;&gt;DATABASE:database -->
<g id="edge4" class="edge">
<title>SERVICE:payments&#45;&gt;DATABASE:database</title>
<g id="a_edge4"><a xlink:title="edge#3">
<path fill="none" stroke="black" d="M991.37,-72.29C1030.51,-63.17 1092.51,-48.58 1146,-35.33 1148.12,-34.8 1150.29,-34.26 1152.49,-33.71"/>
<polygon fill="black" stroke="black" points="1153.21,-37.13 1162.04,-31.28 1151.48,-30.35 1153.21,-37.13"/>
</a>
</g>
<text text-anchor="middle" x="1087.12" y="-68.03" font-family="Times,serif" font-size="14.00">CALLS [rest] (sync)</text>
</g>
<!-- SERVICE:web page_split&#45;&gt;SERVICE:payments -->
<g id="edge1" class="edge">
<title>SERVICE:web page_split&#45;&gt;SERVICE:payments</title>
<g id="a_edge1"><a xlink:title="edge#0">
<path fill="none" stroke="black" d="M418.37,-129.1C512.57,-129.6 710.03,-127.06 874.5,-101.33 883.02,-99.99 891.96,-98.1 900.59,-96"/>
<polygon fill="black" stroke="black" points="901.42,-99.4 910.24,-93.53 899.69,-92.62 901.42,-99.4"/>
</a>
</g>
<text text-anchor="middle" x="604.62" y="-132.03" font-family="Times,serif" font-size="14.00">CALLS [rest] (sync)</text>
</g>
<!-- SERVICE:bff&#45;&gt;SERVICE:restaurants -->
<g id="edge9" class="edge">
<title>SERVICE:bff&#45;&gt;SERVICE:restaurants</title>
<g id="a_edge9"><a xlink:title="edge#8">
<path fill="none" stroke="black" d="M285.34,-63.88C291.03,-60.57 297.17,-57.49 303.25,-55.33 343.39,-41.04 391.35,-35.16 427.54,-32.78"/>
<polygon fill="black" stroke="black" points="427.56,-36.29 437.34,-32.22 427.16,-29.3 427.56,-36.29"/>
</a>
</g>
<text text-anchor="middle" x="362.12" y="-60.03" font-family="Times,serif" font-size="14.00">CALLS [rest] (sync)</text>
</g>
<!-- SERVICE:bff&#45;&gt;SERVICE:payments -->
<g id="edge10" class="edge">
<title>SERVICE:bff&#45;&gt;SERVICE:payments</title>
<g id="a_edge10"><a xlink:title="edge#9">
<path fill="none" stroke="black" d="M285.5,-82.29C388.16,-82.14 763.54,-81.6 900.19,-81.4"/>
<polygon fill="black" stroke="black" points="900.01,-84.9 910.01,-81.38 900,-77.9 900.01,-84.9"/>
</a>
</g>
<text text-anchor="middle" x="604.62" y="-86.03" font-family="Times,serif" font-size="14.00">CALLS [rest] (sync)</text>
</g>
</g>
</svg>
