<?xml version="1.0" encoding="UTF-8" standalone="no"?>
<!DOCTYPE svg PUBLIC "-//W3C//DTD SVG 1.1//EN"
 "http://www.w3.org/Graphics/SVG/1.1/DTD/svg11.dtd">
<!-- Generated by graphviz version 9.0.0 (20230911.1827)
 -->
<!-- Title: G Pages: 1 -->
<svg width="1096pt" height="341pt"
 viewBox="0.00 0.00 1095.50 341.16" xmlns="http://www.w3.org/2000/svg" xmlns:xlink="http://www.w3.org/1999/xlink">
<g id="graph0" class="graph" transform="scale(1 1) rotate(0) translate(4 337.16)">
<title>G</title>
<polygon fill="white" stroke="none" points="-4,4 -4,-337.16 1091.5,-337.16 1091.5,4 -4,4"/>
<text text-anchor="middle" x="543.75" y="-315.86" font-family="Helvetica,sans-Serif" font-size="14.00">Architecture</text>
<!-- SERVICE:bff -->
<g id="node1" class="node">
<title>SERVICE:bff</title>
<path fill="#eef6ff" stroke="black" d="M276.38,-175.16C276.38,-175.16 246.38,-175.16 246.38,-175.16 240.38,-175.16 234.38,-169.16 234.38,-163.16 234.38,-163.16 234.38,-151.16 234.38,-151.16 234.38,-145.16 240.38,-139.16 246.38,-139.16 246.38,-139.16 276.38,-139.16 276.38,-139.16 282.38,-139.16 288.38,-145.16 288.38,-151.16 288.38,-151.16 288.38,-163.16 288.38,-163.16 288.38,-169.16 282.38,-175.16 276.38,-175.16"/>
<text text-anchor="middle" x="261.38" y="-152.86" font-family="Times,serif" font-size="14.00">bff</text>
</g>
<!-- SERVICE:orders -->
<g id="node3" class="node">
<title>SERVICE:orders</title>
<path fill="#eef6ff" stroke="black" d="M538,-72.16C538,-72.16 504.75,-72.16 504.75,-72.16 498.75,-72.16 492.75,-66.16 492.75,-60.16 492.75,-60.16 492.75,-48.16 492.75,-48.16 492.75,-42.16 498.75,-36.16 504.75,-36.16 504.75,-36.16 538,-36.16 538,-36.16 544,-36.16 550,-42.16 550,-48.16 550,-48.16 550,-60.16 550,-60.16 550,-66.16 544,-72.16 538,-72.16"/>
<text text-anchor="middle" x="521.38" y="-49.86" font-family="Times,serif" font-size="14.00">orders</text>
</g>
<!-- SERVICE:bff&#45;&gt;SERVICE:orders -->
<g id="edge17" class="edge">
<title>SERVICE:bff&#45;&gt;SERVICE:orders</title>
<g id="a_edge17"><a xlink:title="edge#16">
<path fill="none" stroke="black" d="M279.3,-138.8C288.7,-128.04 300.18,-113.91 308.75,-100.16 318.85,-83.96 310.86,-71.74 326.75,-61.16 351.13,-44.93 431.94,-47.54 481.12,-50.87"/>
<polygon fill="black" stroke="black" points="480.86,-54.36 491.08,-51.59 481.36,-47.38 480.86,-54.36"/>
</a>
</g>
<text text-anchor="middle" x="385.62" y="-65.86" font-family="Times,serif" font-size="14.00">CALLS [rest] (sync)</text>
</g>
<!-- SERVICE:payments -->
<g id="node4" class="node">
<title>SERVICE:payments</title>
<path fill="#eef6ff" stroke="black" d="M1074,-37.16C1074,-37.16 1019,-37.16 1019,-37.16 1013,-37.16 1007,-31.16 1007,-25.16 1007,-25.16 1007,-13.16 1007,-13.16 1007,-7.16 1013,-1.16 1019,-1.16 1019,-1.16 1074,-1.16 1074,-1.16 1080,-1.16 1086,-7.16 1086,-13.16 1086,-13.16 1086,-25.16 1086,-25.16 1086,-31.16 1080,-37.16 1074,-37.16"/>
<text text-anchor="middle" x="1046.5" y="-14.86" font-family="Times,serif" font-size="14.00">payments</text>
</g>
<!-- SERVICE:bff&#45;&gt;SERVICE:payments -->
<g id="edge18" class="edge">
<title>SERVICE:bff&#45;&gt;SERVICE:payments</title>
<g id="a_edge18"><a xlink:title="edge#17">
<path fill="none" stroke="black" d="M288.66,-156.52C415.25,-153.36 957.15,-138.78 987.5,-120.16 1013.42,-104.26 1028.9,-72.19 1037.27,-48.43"/>
<polygon fill="black" stroke="black" points="1040.57,-49.57 1040.34,-38.98 1033.92,-47.4 1040.57,-49.57"/>
</a>
</g>
<text text-anchor="middle" x="657.12" y="-150.86" font-family="Times,serif" font-size="14.00">CALLS [rest] (sync)</text>
</g>
<!-- SERVICE:auth -->
<g id="node8" class="node">
<title>SERVICE:auth</title>
<path fill="#eef6ff" stroke="black" d="M536.38,-252.16C536.38,-252.16 506.38,-252.16 506.38,-252.16 500.38,-252.16 494.38,-246.16 494.38,-240.16 494.38,-240.16 494.38,-228.16 494.38,-228.16 494.38,-222.16 500.38,-216.16 506.38,-216.16 506.38,-216.16 536.38,-216.16 536.38,-216.16 542.38,-216.16 548.38,-222.16 548.38,-228.16 548.38,-228.16 548.38,-240.16 548.38,-240.16 548.38,-246.16 542.38,-252.16 536.38,-252.16"/>
<text text-anchor="middle" x="521.38" y="-229.86" font-family="Times,serif" font-size="14.00">auth</text>
</g>
<!-- SERVICE:bff&#45;&gt;SERVICE:auth -->
<g id="edge14" class="edge">
<title>SERVICE:bff&#45;&gt;SERVICE:auth</title>
<g id="a_edge14"><a xlink:title="edge#13">
<path fill="none" stroke="black" d="M288.61,-175.35C299.91,-182.46 313.54,-190.1 326.75,-195.16 378.8,-215.11 442.83,-225.45 482.63,-230.34"/>
<polygon fill="black" stroke="black" points="482.07,-233.8 492.41,-231.49 482.89,-226.85 482.07,-233.8"/>
</a>
</g>
<text text-anchor="middle" x="385.62" y="-228.86" font-family="Times,serif" font-size="14.00">CALLS [rest] (sync)</text>
</g>
<!-- SERVICE:catalog -->
<g id="node9" class="node">
<title>SERVICE:catalog</title>
<path fill="#eef6ff" stroke="black" d="M812.5,-252.16C812.5,-252.16 773.25,-252.16 773.25,-252.16 767.25,-252.16 761.25,-246.16 761.25,-240.16 761.25,-240.16 761.25,-228.16 761.25,-228.16 761.25,-222.16 767.25,-216.16 773.25,-216.16 773.25,-216.16 812.5,-216.16 812.5,-216.16 818.5,-216.16 824.5,-222.16 824.5,-228.16 824.5,-228.16 824.5,-240.16 824.5,-240.16 824.5,-246.16 818.5,-252.16 812.5,-252.16"/>
<text text-anchor="middle" x="792.88" y="-229.86" font-family="Times,serif" font-size="14.00">catalog</text>
</g>
<!-- SERVICE:bff&#45;&gt;SERVICE:catalog -->
<g id="edge15" class="edge">
<title>SERVICE:bff&#45;&gt;SERVICE:catalog</title>
<g id="a_edge15"><a xlink:title="edge#14">
<path fill="none" stroke="black" d="M269.98,-175.39C279.77,-196.35 298.9,-229.94 326.75,-246.16 463.7,-325.91 663.92,-276.38 750,-248.88"/>
<polygon fill="black" stroke="black" points="751.03,-252.22 759.45,-245.79 748.86,-245.57 751.03,-252.22"/>
</a>
</g>
<text text-anchor="middle" x="521.38" y="-293.86" font-family="Times,serif" font-size="14.00">CALLS [rest] (sync)</text>
</g>
<!-- SERVICE:cart -->
<g id="node10" class="node">
<title>SERVICE:cart</title>
<path fill="#eef6ff" stroke="black" d="M536.38,-198.16C536.38,-198.16 506.38,-198.16 506.38,-198.16 500.38,-198.16 494.38,-192.16 494.38,-186.16 494.38,-186.16 494.38,-174.16 494.38,-174.16 494.38,-168.16 500.38,-162.16 506.38,-162.16 506.38,-162.16 536.38,-162.16 536.38,-162.16 542.38,-162.16 548.38,-168.16 548.38,-174.16 548.38,-174.16 548.38,-186.16 548.38,-186.16 548.38,-192.16 542.38,-198.16 536.38,-198.16"/>
<text text-anchor="middle" x="521.38" y="-175.86" font-family="Times,serif" font-size="14.00">cart</text>
</g>
<!-- SERVICE:bff&#45;&gt;SERVICE:cart -->
<g id="edge16" class="edge">
<title>SERVICE:bff&#45;&gt;SERVICE:cart</title>
<g id="a_edge16"><a xlink:title="edge#15">
<path fill="none" stroke="black" d="M288.53,-159.49C334.51,-163.59 429.93,-172.1 482.9,-176.82"/>
<polygon fill="black" stroke="black" points="482.37,-180.29 492.64,-177.69 482.99,-173.31 482.37,-180.29"/>
</a>
</g>
<text text-anchor="middle" x="385.62" y="-177.86" font-family="Times,serif" font-size="14.00">CALLS [rest] (sync)</text>
</g>
<!-- SERVICE:web&#45;ui -->
<g id="node2" class="node">
<title>SERVICE:web&#45;ui</title>
<path fill="#eef6ff" stroke="black" d="M48.25,-117.16C48.25,-117.16 12,-117.16 12,-117.16 6,-117.16 0,-111.16 0,-105.16 0,-105.16 0,-93.16 0,-93.16 0,-87.16 6,-81.16 12,-81.16 12,-81.16 48.25,-81.16 48.25,-81.16 54.25,-81.16 60.25,-87.16 60.25,-93.16 60.25,-93.16 60.25,-105.16 60.25,-105.16 60.25,-111.16 54.25,-117.16 48.25,-117.16"/>
<text text-anchor="middle" x="30.12" y="-94.86" font-family="Times,serif" font-size="14.00">web&#45;ui</text>
</g>
<!-- SERVICE:web&#45;ui&#45;&gt;SERVICE:bff -->
<g id="edge13" class="edge">
<title>SERVICE:web&#45;ui&#45;&gt;SERVICE:bff</title>
<g id="a_edge13"><a xlink:title="edge#12">
<path fill="none" stroke="black" d="M60.63,-106.63C102.12,-117.12 177.71,-136.25 223.06,-147.72"/>
<polygon fill="black" stroke="black" points="222.16,-151.1 232.71,-150.16 223.87,-144.32 222.16,-151.1"/>
</a>
</g>
<text text-anchor="middle" x="137.12" y="-143.86" font-family="Times,serif" font-size="14.00">CALLS [rest] (sync)</text>
</g>
<!-- SERVICE:web&#45;ui_split -->
<g id="node6" class="node">
<title>SERVICE:web&#45;ui_split</title>
<path fill="#eef6ff" stroke="black" d="M296.75,-91.16C296.75,-91.16 226,-91.16 226,-91.16 220,-91.16 214,-85.16 214,-79.16 214,-79.16 214,-67.16 214,-67.16 214,-61.16 220,-55.16 226,-55.16 226,-55.16 296.75,-55.16 296.75,-55.16 302.75,-55.16 308.75,-61.16 308.75,-67.16 308.75,-67.16 308.75,-79.16 308.75,-79.16 308.75,-85.16 302.75,-91.16 296.75,-91.16"/>
<text text-anchor="middle" x="261.38" y="-68.86" font-family="Times,serif" font-size="14.00">web&#45;ui_split</text>
</g>
<!-- SERVICE:web&#45;ui&#45;&gt;SERVICE:web&#45;ui_split -->
<g id="edge11" class="edge">
<title>SERVICE:web&#45;ui&#45;&gt;SERVICE:web&#45;ui_split</title>
<g id="a_edge11"><a xlink:title="edge#10">
<path fill="none" stroke="black" d="M60.71,-87.75C66.45,-85.93 72.48,-84.28 78.25,-83.16 119.21,-75.24 166.24,-72.82 202.25,-72.34"/>
<polygon fill="black" stroke="black" points="202.05,-75.84 212.02,-72.26 201.99,-68.84 202.05,-75.84"/>
</a>
</g>
<text text-anchor="middle" x="137.12" y="-87.86" font-family="Times,serif" font-size="14.00">CALLS [rest] (sync)</text>
</g>
<!-- SERVICE:inventory -->
<g id="node5" class="node">
<title>SERVICE:inventory</title>
<path fill="#eef6ff" stroke="black" d="M818.88,-106.16C818.88,-106.16 766.88,-106.16 766.88,-106.16 760.88,-106.16 754.88,-100.16 754.88,-94.16 754.88,-94.16 754.88,-82.16 754.88,-82.16 754.88,-76.16 760.88,-70.16 766.88,-70.16 766.88,-70.16 818.88,-70.16 818.88,-70.16 824.88,-70.16 830.88,-76.16 830.88,-82.16 830.88,-82.16 830.88,-94.16 830.88,-94.16 830.88,-100.16 824.88,-106.16 818.88,-106.16"/>
<text text-anchor="middle" x="792.88" y="-83.86" font-family="Times,serif" font-size="14.00">inventory</text>
</g>
<!-- SERVICE:orders&#45;&gt;SERVICE:inventory -->
<g id="edge5" class="edge">
<title>SERVICE:orders&#45;&gt;SERVICE:inventory</title>
<g id="a_edge5"><a xlink:title="edge#4">
<path fill="none" stroke="black" d="M550.45,-57.7C596.11,-63.46 687,-74.93 743.3,-82.03"/>
<polygon fill="black" stroke="black" points="742.56,-85.47 752.92,-83.25 743.43,-78.52 742.56,-85.47"/>
</a>
</g>
<text text-anchor="middle" x="657.12" y="-81.86" font-family="Times,serif" font-size="14.00">CALLS [rest] (sync)</text>
</g>
<!-- SERVICE:orders_split -->
<g id="node7" class="node">
<title>SERVICE:orders_split</title>
<path fill="#eef6ff" stroke="black" d="M826.75,-52.16C826.75,-52.16 759,-52.16 759,-52.16 753,-52.16 747,-46.16 747,-40.16 747,-40.16 747,-28.16 747,-28.16 747,-22.16 753,-16.16 759,-16.16 759,-16.16 826.75,-16.16 826.75,-16.16 832.75,-16.16 838.75,-22.16 838.75,-28.16 838.75,-28.16 838.75,-40.16 838.75,-40.16 838.75,-46.16 832.75,-52.16 826.75,-52.16"/>
<text text-anchor="middle" x="792.88" y="-29.86" font-family="Times,serif" font-size="14.00">orders_split</text>
</g>
<!-- SERVICE:orders&#45;&gt;SERVICE:orders_split -->
<g id="edge12" class="edge">
<title>SERVICE:orders&#45;&gt;SERVICE:orders_split</title>
<g id="a_edge12"><a xlink:title="edge#11">
<path fill="none" stroke="black" d="M550.44,-50.42C564.73,-48.62 582.39,-46.55 598.25,-45.16 644.5,-41.11 697.1,-38.23 735.79,-36.44"/>
<polygon fill="black" stroke="black" points="735.48,-39.95 745.31,-36.01 735.17,-32.96 735.48,-39.95"/>
</a>
</g>
<text text-anchor="middle" x="657.12" y="-49.86" font-family="Times,serif" font-size="14.00">CALLS [rest] (sync)</text>
</g>
<!-- DATABASE:shared&#45;db -->
<g id="node11" class="node">
<title>DATABASE:shared&#45;db</title>
<path fill="#fff3cd" stroke="black" d="M1087.5,-154.89C1087.5,-156.69 1069.12,-158.16 1046.5,-158.16 1023.88,-158.16 1005.5,-156.69 1005.5,-154.89 1005.5,-154.89 1005.5,-125.43 1005.5,-125.43 1005.5,-123.63 1023.88,-122.16 1046.5,-122.16 1069.12,-122.16 1087.5,-123.63 1087.5,-125.43 1087.5,-125.43 1087.5,-154.89 1087.5,-154.89"/>
<path fill="none" stroke="black" d="M1087.5,-154.89C1087.5,-153.08 1069.12,-151.62 1046.5,-151.62 1023.88,-151.62 1005.5,-153.08 1005.5,-154.89"/>
<text text-anchor="middle" x="1046.5" y="-135.86" font-family="Times,serif" font-size="14.00">shared&#45;db</text>
</g>
<!-- SERVICE:inventory&#45;&gt;DATABASE:shared&#45;db -->
<g id="edge10" class="edge">
<title>SERVICE:inventory&#45;&gt;DATABASE:shared&#45;db</title>
<g id="a_edge10"><a xlink:title="edge#9">
<path fill="none" stroke="black" d="M831.27,-95.89C874.49,-104.82 945.86,-119.57 994.23,-129.57"/>
<polygon fill="black" stroke="black" points="993.41,-132.97 1003.91,-131.57 994.83,-126.12 993.41,-132.97"/>
</a>
</g>
<text text-anchor="middle" x="928.62" y="-131.86" font-family="Times,serif" font-size="14.00">CALLS [rest] (sync)</text>
</g>
<!-- SERVICE:web&#45;ui_split&#45;&gt;SERVICE:orders -->
<g id="edge2" class="edge">
<title>SERVICE:web&#45;ui_split&#45;&gt;SERVICE:orders</title>
<g id="a_edge2"><a xlink:title="edge#1">
<path fill="none" stroke="black" d="M278.04,-54.86C289.96,-42.43 307.54,-27.05 326.75,-20.16 376.01,-2.49 393.32,-9.22 444.5,-20.16 457.25,-22.89 470.45,-27.92 482.2,-33.3"/>
<polygon fill="black" stroke="black" points="480.63,-36.43 491.16,-37.62 483.67,-30.12 480.63,-36.43"/>
</a>
</g>
<text text-anchor="middle" x="385.62" y="-24.86" font-family="Times,serif" font-size="14.00">CALLS [rest] (sync)</text>
</g>
<!-- SERVICE:web&#45;ui_split&#45;&gt;SERVICE:payments -->
<g id="edge3" class="edge">
<title>SERVICE:web&#45;ui_split&#45;&gt;SERVICE:payments</title>
<g id="a_edge3"><a xlink:title="edge#2">
<path fill="none" stroke="black" d="M273.79,-54.68C285,-38.45 303.75,-15.96 326.75,-6.16 336.3,-2.09 311.1,5.44 851.75,-7.16 912.13,-8.57 927.27,-8.72 987.5,-13.16 990,-13.35 992.56,-13.55 995.15,-13.77"/>
<polygon fill="black" stroke="black" points="994.75,-17.25 1005.02,-14.67 995.38,-10.28 994.75,-17.25"/>
</a>
</g>
<text text-anchor="middle" x="657.12" y="-8.86" font-family="Times,serif" font-size="14.00">CALLS [rest] (sync)</text>
</g>
<!-- SERVICE:web&#45;ui_split&#45;&gt;SERVICE:cart -->
<g id="edge1" class="edge">
<title>SERVICE:web&#45;ui_split&#45;&gt;SERVICE:cart</title>
<g id="a_edge1"><a xlink:title="edge#0">
<path fill="none" stroke="black" d="M309.01,-88.87C346.17,-101.8 399.27,-121.18 444.5,-141.16 457.62,-146.96 471.68,-153.96 484.08,-160.41"/>
<polygon fill="black" stroke="black" points="482.24,-163.4 492.72,-164.96 485.51,-157.2 482.24,-163.4"/>
</a>
</g>
<text text-anchor="middle" x="385.62" y="-145.86" font-family="Times,serif" font-size="14.00">CALLS [rest] (sync)</text>
</g>
<!-- SERVICE:orders_split&#45;&gt;SERVICE:payments -->
<g id="edge6" class="edge">
<title>SERVICE:orders_split&#45;&gt;SERVICE:payments</title>
<g id="a_edge6"><a xlink:title="edge#5">
<path fill="none" stroke="black" d="M839.03,-24.48C849.09,-22.7 859.75,-21.11 869.75,-20.16 911.92,-16.18 960.03,-16.22 995.24,-17.1"/>
<polygon fill="black" stroke="black" points="995.05,-20.59 1005.15,-17.38 995.25,-13.6 995.05,-20.59"/>
</a>
</g>
<text text-anchor="middle" x="928.62" y="-24.86" font-family="Times,serif" font-size="14.00">CALLS [rest] (sync)</text>
</g>
<!-- SERVICE:orders_split&#45;&gt;DATABASE:shared&#45;db -->
<g id="edge9" class="edge">
<title>SERVICE:orders_split&#45;&gt;DATABASE:shared&#45;db</title>
<g id="a_edge9"><a xlink:title="edge#8">
<path fill="none" stroke="black" d="M839.08,-38.4C880.03,-43.81 940.91,-55.84 987.5,-82.16 1001.39,-90.01 1014.23,-102.1 1024.28,-113.21"/>
<polygon fill="black" stroke="black" points="1021.54,-115.39 1030.72,-120.67 1026.84,-110.81 1021.54,-115.39"/>
</a>
</g>
<text text-anchor="middle" x="928.62" y="-86.86" font-family="Times,serif" font-size="14.00">CALLS [rest] (sync)</text>
</g>
<!-- SERVICE:catalog&#45;&gt;DATABASE:shared&#45;db -->
<g id="edge7" class="edge">
<title>SERVICE:catalog&#45;&gt;DATABASE:shared&#45;db</title>
<g id="a_edge7"><a xlink:title="edge#6">
<path fill="none" stroke="black" d="M824.75,-232.89C864.46,-230.15 934.59,-221.49 987.5,-194.16 1000.68,-187.36 1013.04,-176.7 1022.94,-166.65"/>
<polygon fill="black" stroke="black" points="1025.32,-169.24 1029.61,-159.55 1020.21,-164.45 1025.32,-169.24"/>
</a>
</g>
<text text-anchor="middle" x="928.62" y="-231.86" font-family="Times,serif" font-size="14.00">CALLS [rest] (sync)</text>
</g>
<!-- SERVICE:cart&#45;&gt;SERVICE:catalog -->
<g id="edge4" class="edge">
<title>SERVICE:cart&#45;&gt;SERVICE:catalog</title>
<g id="a_edge4"><a xlink:title="edge#3">
<path fill="none" stroke="black" d="M548.71,-185.44C595.54,-194.82 693.69,-214.49 749.92,-225.75"/>
<polygon fill="black" stroke="black" points="748.94,-229.13 759.43,-227.66 750.31,-222.26 748.94,-229.13"/>
</a>
</g>
<text text-anchor="middle" x="657.12" y="-222.86" font-family="Times,serif" font-size="14.00">CALLS [rest] (sync)</text>
</g>
<!-- SERVICE:cart&#45;&gt;DATABASE:shared&#45;db -->
<g id="edge8" class="edge">
<title>SERVICE:cart&#45;&gt;DATABASE:shared&#45;db</title>
<g id="a_edge8"><a xlink:title="edge#7">
<path fill="none" stroke="black" d="M548.66,-178.98C619.59,-175.67 820.84,-165.37 987.5,-148.16 989.66,-147.94 991.87,-147.7 994.09,-147.44"/>
<polygon fill="black" stroke="black" points="994.29,-150.94 1003.79,-146.25 993.44,-143.99 994.29,-150.94"/>
</a>
</g>
<text text-anchor="middle" x="792.88" y="-172.86" font-family="Times,serif" font-size="14.00">CALLS [rest] (sync)</text>
</g>
</g>
</svg>
