<?xml version="1.0" encoding="UTF-8" standalone="no"?>
<!DOCTYPE svg PUBLIC "-//W3C//DTD SVG 1.1//EN"
 "http://www.w3.org/Graphics/SVG/1.1/DTD/svg11.dtd">
<!-- Generated by graphviz version 9.0.0 (20230911.1827)
 -->
<!-- Title: G Pages: 1 -->
<svg width="2531pt" height="295pt"
 viewBox="0.00 0.00 2530.75 295.37" xmlns="http://www.w3.org/2000/svg" xmlns:xlink="http://www.w3.org/1999/xlink">
<g id="graph0" class="graph" transform="scale(1 1) rotate(0) translate(4 291.37)">
<title>G</title>
<polygon fill="white" stroke="none" points="-4,4 -4,-291.37 2526.75,-291.37 2526.75,4 -4,4"/>
<text text-anchor="middle" x="1261.38" y="-270.07" font-family="Helvetica,sans-Serif" font-size="14.00">Architecture</text>
<!-- SERVICE:web&#45;ui -->
<g id="node1" class="node">
<title>SERVICE:web&#45;ui</title>
<path fill="#eef6ff" stroke="black" d="M48.25,-174.37C48.25,-174.37 12,-174.37 12,-174.37 6,-174.37 0,-168.37 0,-162.37 0,-162.37 0,-150.37 0,-150.37 0,-144.37 6,-138.37 12,-138.37 12,-138.37 48.25,-138.37 48.25,-138.37 54.25,-138.37 60.25,-144.37 60.25,-150.37 60.25,-150.37 60.25,-162.37 60.25,-162.37 60.25,-168.37 54.25,-174.37 48.25,-174.37"/>
<text text-anchor="middle" x="30.12" y="-152.07" font-family="Times,serif" font-size="14.00">web&#45;ui</text>
</g>
<!-- SERVICE:bff&#45;1 -->
<g id="node5" class="node">
<title>SERVICE:bff&#45;1</title>
<path fill="#eef6ff" stroke="black" d="M276.38,-174.37C276.38,-174.37 246.38,-174.37 246.38,-174.37 240.38,-174.37 234.38,-168.37 234.38,-162.37 234.38,-162.37 234.38,-150.37 234.38,-150.37 234.38,-144.37 240.38,-138.37 246.38,-138.37 246.38,-138.37 276.38,-138.37 276.38,-138.37 282.38,-138.37 288.38,-144.37 288.38,-150.37 288.38,-150.37 288.38,-162.37 288.38,-162.37 288.38,-168.37 282.38,-174.37 276.38,-174.37"/>
<text text-anchor="middle" x="261.38" y="-152.07" font-family="Times,serif" font-size="14.00">bff&#45;1</text>
</g>
<!-- SERVICE:web&#45;ui&#45;&gt;SERVICE:bff&#45;1 -->
<g id="edge16" class="edge">
<title>SERVICE:web&#45;ui&#45;&gt;SERVICE:bff&#45;1</title>
<g id="a_edge16"><a xlink:title="edge#15">
<path fill="none" stroke="black" d="M60.63,-156.37C102.03,-156.37 177.39,-156.37 222.77,-156.37"/>
<polygon fill="black" stroke="black" points="222.66,-159.87 232.66,-156.37 222.66,-152.87 222.66,-159.87"/>
</a>
</g>
<text text-anchor="middle" x="137.12" y="-161.07" font-family="Times,serif" font-size="14.00">CALLS [rest] (sync)</text>
</g>
<!-- SERVICE:catalog -->
<g id="node2" class="node">
<title>SERVICE:catalog</title>
<path fill="#eef6ff" stroke="black" d="M1737,-248.37C1737,-248.37 1697.75,-248.37 1697.75,-248.37 1691.75,-248.37 1685.75,-242.37 1685.75,-236.37 1685.75,-236.37 1685.75,-224.37 1685.75,-224.37 1685.75,-218.37 1691.75,-212.37 1697.75,-212.37 1697.75,-212.37 1737,-212.37 1737,-212.37 1743,-212.37 1749,-218.37 1749,-224.37 1749,-224.37 1749,-236.37 1749,-236.37 1749,-242.37 1743,-248.37 1737,-248.37"/>
<text text-anchor="middle" x="1717.38" y="-226.07" font-family="Times,serif" font-size="14.00">catalog</text>
</g>
<!-- DATABASE:shared&#45;db -->
<g id="node9" class="node">
<title>DATABASE:shared&#45;db</title>
<path fill="#fff3cd" stroke="black" d="M2522.75,-186.09C2522.75,-187.9 2504.37,-189.37 2481.75,-189.37 2459.13,-189.37 2440.75,-187.9 2440.75,-186.09 2440.75,-186.09 2440.75,-156.64 2440.75,-156.64 2440.75,-154.83 2459.13,-153.37 2481.75,-153.37 2504.37,-153.37 2522.75,-154.83 2522.75,-156.64 2522.75,-156.64 2522.75,-186.09 2522.75,-186.09"/>
<path fill="none" stroke="black" d="M2522.75,-186.09C2522.75,-184.29 2504.37,-182.82 2481.75,-182.82 2459.13,-182.82 2440.75,-184.29 2440.75,-186.09"/>
<text text-anchor="middle" x="2481.75" y="-167.07" font-family="Times,serif" font-size="14.00">shared&#45;db</text>
</g>
<!-- SERVICE:catalog&#45;&gt;DATABASE:shared&#45;db -->
<g id="edge4" class="edge">
<title>SERVICE:catalog&#45;&gt;DATABASE:shared&#45;db</title>
<g id="a_edge4"><a xlink:title="edge#3">
<path fill="none" stroke="black" d="M1749.18,-233.16C1848.56,-241.3 2168.92,-260.63 2422.75,-198.37 2427.94,-197.1 2433.22,-195.35 2438.39,-193.35"/>
<polygon fill="black" stroke="black" points="2439.51,-196.68 2447.35,-189.55 2436.78,-190.23 2439.51,-196.68"/>
</a>
</g>
<text text-anchor="middle" x="2118.38" y="-245.07" font-family="Times,serif" font-size="14.00">CALLS [rest] (sync)</text>
</g>
<!-- SERVICE:cart -->
<g id="node3" class="node">
<title>SERVICE:cart</title>
<path fill="#eef6ff" stroke="black" d="M1497.38,-212.37C1497.38,-212.37 1467.38,-212.37 1467.38,-212.37 1461.38,-212.37 1455.38,-206.37 1455.38,-200.37 1455.38,-200.37 1455.38,-188.37 1455.38,-188.37 1455.38,-182.37 1461.38,-176.37 1467.38,-176.37 1467.38,-176.37 1497.38,-176.37 1497.38,-176.37 1503.38,-176.37 1509.38,-182.37 1509.38,-188.37 1509.38,-188.37 1509.38,-200.37 1509.38,-200.37 1509.38,-206.37 1503.38,-212.37 1497.38,-212.37"/>
<text text-anchor="middle" x="1482.38" y="-190.07" font-family="Times,serif" font-size="14.00">cart</text>
</g>
<!-- SERVICE:cart&#45;&gt;SERVICE:catalog -->
<g id="edge1" class="edge">
<title>SERVICE:cart&#45;&gt;SERVICE:catalog</title>
<g id="a_edge1"><a xlink:title="edge#0">
<path fill="none" stroke="black" d="M1509.72,-198.03C1542.04,-202.58 1598.48,-210.66 1646.75,-218.37 1655.69,-219.79 1665.27,-221.4 1674.37,-222.95"/>
<polygon fill="black" stroke="black" points="1673.61,-226.38 1684.06,-224.63 1674.81,-219.48 1673.61,-226.38"/>
</a>
</g>
<text text-anchor="middle" x="1587.88" y="-223.07" font-family="Times,serif" font-size="14.00">CALLS [rest] (sync)</text>
</g>
<!-- SERVICE:cart&#45;&gt;DATABASE:shared&#45;db -->
<g id="edge5" class="edge">
<title>SERVICE:cart&#45;&gt;DATABASE:shared&#45;db</title>
<g id="a_edge5"><a xlink:title="edge#4">
<path fill="none" stroke="black" d="M1509.57,-192.51C1552.67,-189.62 1641.27,-184.37 1716.38,-184.37 1716.38,-184.37 1716.38,-184.37 2242.12,-184.37 2306.52,-184.37 2380.54,-179.59 2428.85,-175.83"/>
<polygon fill="black" stroke="black" points="2429.05,-179.32 2438.74,-175.04 2428.5,-172.34 2429.05,-179.32"/>
</a>
</g>
<text text-anchor="middle" x="1982.62" y="-189.07" font-family="Times,serif" font-size="14.00">CALLS [rest] (sync)</text>
</g>
<!-- SERVICE:orders -->
<g id="node4" class="node">
<title>SERVICE:orders</title>
<path fill="#eef6ff" stroke="black" d="M1499,-103.37C1499,-103.37 1465.75,-103.37 1465.75,-103.37 1459.75,-103.37 1453.75,-97.37 1453.75,-91.37 1453.75,-91.37 1453.75,-79.37 1453.75,-79.37 1453.75,-73.37 1459.75,-67.37 1465.75,-67.37 1465.75,-67.37 1499,-67.37 1499,-67.37 1505,-67.37 1511,-73.37 1511,-79.37 1511,-79.37 1511,-91.37 1511,-91.37 1511,-97.37 1505,-103.37 1499,-103.37"/>
<text text-anchor="middle" x="1482.38" y="-81.07" font-family="Times,serif" font-size="14.00">orders</text>
</g>
<!-- SERVICE:inventory -->
<g id="node8" class="node">
<title>SERVICE:inventory</title>
<path fill="#eef6ff" stroke="black" d="M1872.88,-102.37C1872.88,-102.37 1820.88,-102.37 1820.88,-102.37 1814.88,-102.37 1808.88,-96.37 1808.88,-90.37 1808.88,-90.37 1808.88,-78.37 1808.88,-78.37 1808.88,-72.37 1814.88,-66.37 1820.88,-66.37 1820.88,-66.37 1872.88,-66.37 1872.88,-66.37 1878.88,-66.37 1884.88,-72.37 1884.88,-78.37 1884.88,-78.37 1884.88,-90.37 1884.88,-90.37 1884.88,-96.37 1878.88,-102.37 1872.88,-102.37"/>
<text text-anchor="middle" x="1846.88" y="-80.07" font-family="Times,serif" font-size="14.00">inventory</text>
</g>
<!-- SERVICE:orders&#45;&gt;SERVICE:inventory -->
<g id="edge2" class="edge">
<title>SERVICE:orders&#45;&gt;SERVICE:inventory</title>
<g id="a_edge2"><a xlink:title="edge#1">
<path fill="none" stroke="black" d="M1511.36,-84.66C1517.19,-84.54 1523.3,-84.43 1529,-84.37 1624.09,-83.33 1735.24,-83.69 1797.41,-84.04"/>
<polygon fill="black" stroke="black" points="1797.26,-87.54 1807.28,-84.1 1797.3,-80.54 1797.26,-87.54"/>
</a>
</g>
<text text-anchor="middle" x="1587.88" y="-89.07" font-family="Times,serif" font-size="14.00">CALLS [rest] (sync)</text>
</g>
<!-- SERVICE:orders_split&#45;2 -->
<g id="node22" class="node">
<title>SERVICE:orders_split&#45;2</title>
<path fill="#eef6ff" stroke="black" d="M1758,-148.37C1758,-148.37 1676.75,-148.37 1676.75,-148.37 1670.75,-148.37 1664.75,-142.37 1664.75,-136.37 1664.75,-136.37 1664.75,-124.37 1664.75,-124.37 1664.75,-118.37 1670.75,-112.37 1676.75,-112.37 1676.75,-112.37 1758,-112.37 1758,-112.37 1764,-112.37 1770,-118.37 1770,-124.37 1770,-124.37 1770,-136.37 1770,-136.37 1770,-142.37 1764,-148.37 1758,-148.37"/>
<text text-anchor="middle" x="1717.38" y="-126.07" font-family="Times,serif" font-size="14.00">orders_split&#45;2</text>
</g>
<!-- SERVICE:orders&#45;&gt;SERVICE:orders_split&#45;2 -->
<g id="edge23" class="edge">
<title>SERVICE:orders&#45;&gt;SERVICE:orders_split&#45;2</title>
<g id="a_edge23"><a xlink:title="edge#22">
<path fill="none" stroke="black" d="M1511.34,-99.85C1517.06,-102.35 1523.13,-104.68 1529,-106.37 1569.57,-118.01 1616.7,-124.01 1653.54,-127.1"/>
<polygon fill="black" stroke="black" points="1652.88,-130.56 1663.12,-127.85 1653.42,-123.58 1652.88,-130.56"/>
</a>
</g>
<text text-anchor="middle" x="1587.88" y="-131.07" font-family="Times,serif" font-size="14.00">CALLS [rest] (sync)</text>
</g>
<!-- SERVICE:bff -->
<g id="node17" class="node">
<title>SERVICE:bff</title>
<path fill="#eef6ff" stroke="black" d="M504.5,-174.37C504.5,-174.37 474.5,-174.37 474.5,-174.37 468.5,-174.37 462.5,-168.37 462.5,-162.37 462.5,-162.37 462.5,-150.37 462.5,-150.37 462.5,-144.37 468.5,-138.37 474.5,-138.37 474.5,-138.37 504.5,-138.37 504.5,-138.37 510.5,-138.37 516.5,-144.37 516.5,-150.37 516.5,-150.37 516.5,-162.37 516.5,-162.37 516.5,-168.37 510.5,-174.37 504.5,-174.37"/>
<text text-anchor="middle" x="489.5" y="-152.07" font-family="Times,serif" font-size="14.00">bff</text>
</g>
<!-- SERVICE:bff&#45;1&#45;&gt;SERVICE:bff -->
<g id="edge17" class="edge">
<title>SERVICE:bff&#45;1&#45;&gt;SERVICE:bff</title>
<g id="a_edge17"><a xlink:title="edge#16">
<path fill="none" stroke="black" d="M288.76,-156.37C328.84,-156.37 405.25,-156.37 451.06,-156.37"/>
<polygon fill="black" stroke="black" points="450.77,-159.87 460.77,-156.37 450.77,-152.87 450.77,-159.87"/>
</a>
</g>
<text text-anchor="middle" x="385.62" y="-161.07" font-family="Times,serif" font-size="14.00">CALLS [rest] (sync)</text>
</g>
<!-- SERVICE:bff&#45;2 -->
<g id="node6" class="node">
<title>SERVICE:bff&#45;2</title>
<path fill="#eef6ff" stroke="black" d="M1002.12,-91.37C1002.12,-91.37 972.12,-91.37 972.12,-91.37 966.12,-91.37 960.12,-85.37 960.12,-79.37 960.12,-79.37 960.12,-67.37 960.12,-67.37 960.12,-61.37 966.12,-55.37 972.12,-55.37 972.12,-55.37 1002.12,-55.37 1002.12,-55.37 1008.12,-55.37 1014.12,-61.37 1014.12,-67.37 1014.12,-67.37 1014.12,-79.37 1014.12,-79.37 1014.12,-85.37 1008.12,-91.37 1002.12,-91.37"/>
<text text-anchor="middle" x="987.12" y="-69.07" font-family="Times,serif" font-size="14.00">bff&#45;2</text>
</g>
<!-- SERVICE:bff&#45;2_split -->
<g id="node7" class="node">
<title>SERVICE:bff&#45;2_split</title>
<path fill="#eef6ff" stroke="black" d="M1262.25,-125.37C1262.25,-125.37 1205,-125.37 1205,-125.37 1199,-125.37 1193,-119.37 1193,-113.37 1193,-113.37 1193,-101.37 1193,-101.37 1193,-95.37 1199,-89.37 1205,-89.37 1205,-89.37 1262.25,-89.37 1262.25,-89.37 1268.25,-89.37 1274.25,-95.37 1274.25,-101.37 1274.25,-101.37 1274.25,-113.37 1274.25,-113.37 1274.25,-119.37 1268.25,-125.37 1262.25,-125.37"/>
<text text-anchor="middle" x="1233.62" y="-103.07" font-family="Times,serif" font-size="14.00">bff&#45;2_split</text>
</g>
<!-- SERVICE:bff&#45;2&#45;&gt;SERVICE:bff&#45;2_split -->
<g id="edge24" class="edge">
<title>SERVICE:bff&#45;2&#45;&gt;SERVICE:bff&#45;2_split</title>
<g id="a_edge24"><a xlink:title="edge#23">
<path fill="none" stroke="black" d="M1014.41,-80.19C1022.28,-82.07 1030.95,-83.97 1039,-85.37 1086.98,-93.72 1142.22,-99.64 1181.39,-103.21"/>
<polygon fill="black" stroke="black" points="1180.97,-106.69 1191.24,-104.09 1181.59,-99.72 1180.97,-106.69"/>
</a>
</g>
<text text-anchor="middle" x="1097.88" y="-106.07" font-family="Times,serif" font-size="14.00">CALLS [rest] (sync)</text>
</g>
<!-- SERVICE:payments -->
<g id="node16" class="node">
<title>SERVICE:payments</title>
<path fill="#eef6ff" stroke="black" d="M1261.12,-68.37C1261.12,-68.37 1206.12,-68.37 1206.12,-68.37 1200.12,-68.37 1194.12,-62.37 1194.12,-56.37 1194.12,-56.37 1194.12,-44.37 1194.12,-44.37 1194.12,-38.37 1200.12,-32.37 1206.12,-32.37 1206.12,-32.37 1261.12,-32.37 1261.12,-32.37 1267.12,-32.37 1273.12,-38.37 1273.12,-44.37 1273.12,-44.37 1273.12,-56.37 1273.12,-56.37 1273.12,-62.37 1267.12,-68.37 1261.12,-68.37"/>
<text text-anchor="middle" x="1233.62" y="-46.07" font-family="Times,serif" font-size="14.00">payments</text>
</g>
<!-- SERVICE:bff&#45;2&#45;&gt;SERVICE:payments -->
<g id="edge18" class="edge">
<title>SERVICE:bff&#45;2&#45;&gt;SERVICE:payments</title>
<g id="a_edge18"><a xlink:title="edge#17">
<path fill="none" stroke="black" d="M1014.51,-70.1C1022.39,-69.17 1031.04,-68.19 1039,-67.37 1087.63,-62.37 1143.22,-57.58 1182.32,-54.37"/>
<polygon fill="black" stroke="black" points="1182.46,-57.87 1192.14,-53.57 1181.89,-50.89 1182.46,-57.87"/>
</a>
</g>
<text text-anchor="middle" x="1097.88" y="-72.07" font-family="Times,serif" font-size="14.00">CALLS [rest] (sync)</text>
</g>
<!-- SERVICE:bff&#45;2_split&#45;&gt;SERVICE:cart -->
<g id="edge19" class="edge">
<title>SERVICE:bff&#45;2_split&#45;&gt;SERVICE:cart</title>
<g id="a_edge19"><a xlink:title="edge#18">
<path fill="none" stroke="black" d="M1274.36,-107.4C1325.06,-108.1 1409.35,-111.69 1435.75,-127.37 1450.5,-136.13 1461.55,-151.74 1469.08,-165.69"/>
<polygon fill="black" stroke="black" points="1465.89,-167.15 1473.48,-174.54 1472.16,-164.03 1465.89,-167.15"/>
</a>
</g>
<text text-anchor="middle" x="1373.12" y="-132.07" font-family="Times,serif" font-size="14.00">CALLS [rest] (sync)</text>
</g>
<!-- SERVICE:bff&#45;2_split&#45;&gt;SERVICE:orders -->
<g id="edge20" class="edge">
<title>SERVICE:bff&#45;2_split&#45;&gt;SERVICE:orders</title>
<g id="a_edge20"><a xlink:title="edge#19">
<path fill="none" stroke="black" d="M1274.37,-94.24C1285.9,-91.02 1298.59,-88.02 1310.5,-86.37 1355.38,-80.14 1407.53,-80.99 1442.3,-82.68"/>
<polygon fill="black" stroke="black" points="1441.71,-86.16 1451.88,-83.2 1442.08,-79.17 1441.71,-86.16"/>
</a>
</g>
<text text-anchor="middle" x="1373.12" y="-91.07" font-family="Times,serif" font-size="14.00">CALLS [rest] (sync)</text>
</g>
<!-- SERVICE:inventory&#45;&gt;DATABASE:shared&#45;db -->
<g id="edge7" class="edge">
<title>SERVICE:inventory&#45;&gt;DATABASE:shared&#45;db</title>
<g id="a_edge7"><a xlink:title="edge#6">
<path fill="none" stroke="black" d="M1885.33,-84.6C1961.33,-85.46 2139.03,-89.41 2287,-107.37 2347.98,-114.77 2365.81,-110.32 2422.75,-133.37 2431.3,-136.83 2439.93,-141.62 2447.83,-146.64"/>
<polygon fill="black" stroke="black" points="2445.86,-149.54 2456.11,-152.2 2449.75,-143.72 2445.86,-149.54"/>
</a>
</g>
<text text-anchor="middle" x="2118.38" y="-101.07" font-family="Times,serif" font-size="14.00">CALLS [rest] (sync)</text>
</g>
<!-- SERVICE:web&#45;ui_split -->
<g id="node10" class="node">
<title>SERVICE:web&#45;ui_split</title>
<path fill="#eef6ff" stroke="black" d="M296.75,-70.37C296.75,-70.37 226,-70.37 226,-70.37 220,-70.37 214,-64.37 214,-58.37 214,-58.37 214,-46.37 214,-46.37 214,-40.37 220,-34.37 226,-34.37 226,-34.37 296.75,-34.37 296.75,-34.37 302.75,-34.37 308.75,-40.37 308.75,-46.37 308.75,-46.37 308.75,-58.37 308.75,-58.37 308.75,-64.37 302.75,-70.37 296.75,-70.37"/>
<text text-anchor="middle" x="261.38" y="-48.07" font-family="Times,serif" font-size="14.00">web&#45;ui_split</text>
</g>
<!-- SERVICE:bff&#45;3 -->
<g id="node20" class="node">
<title>SERVICE:bff&#45;3</title>
<path fill="#eef6ff" stroke="black" d="M504.5,-70.37C504.5,-70.37 474.5,-70.37 474.5,-70.37 468.5,-70.37 462.5,-64.37 462.5,-58.37 462.5,-58.37 462.5,-46.37 462.5,-46.37 462.5,-40.37 468.5,-34.37 474.5,-34.37 474.5,-34.37 504.5,-34.37 504.5,-34.37 510.5,-34.37 516.5,-40.37 516.5,-46.37 516.5,-46.37 516.5,-58.37 516.5,-58.37 516.5,-64.37 510.5,-70.37 504.5,-70.37"/>
<text text-anchor="middle" x="489.5" y="-48.07" font-family="Times,serif" font-size="14.00">bff&#45;3</text>
</g>
<!-- SERVICE:web&#45;ui_split&#45;&gt;SERVICE:bff&#45;3 -->
<g id="edge25" class="edge">
<title>SERVICE:web&#45;ui_split&#45;&gt;SERVICE:bff&#45;3</title>
<g id="a_edge25"><a xlink:title="edge#24">
<path fill="none" stroke="black" d="M309.23,-52.37C351.2,-52.37 411.96,-52.37 450.85,-52.37"/>
<polygon fill="black" stroke="black" points="450.66,-55.87 460.66,-52.37 450.66,-48.87 450.66,-55.87"/>
</a>
</g>
<text text-anchor="middle" x="385.62" y="-57.07" font-family="Times,serif" font-size="14.00">CALLS [rest] (sync)</text>
</g>
<!-- SERVICE:orders_split -->
<g id="node11" class="node">
<title>SERVICE:orders_split</title>
<path fill="#eef6ff" stroke="black" d="M2275,-152.37C2275,-152.37 2207.25,-152.37 2207.25,-152.37 2201.25,-152.37 2195.25,-146.37 2195.25,-140.37 2195.25,-140.37 2195.25,-128.37 2195.25,-128.37 2195.25,-122.37 2201.25,-116.37 2207.25,-116.37 2207.25,-116.37 2275,-116.37 2275,-116.37 2281,-116.37 2287,-122.37 2287,-128.37 2287,-128.37 2287,-140.37 2287,-140.37 2287,-146.37 2281,-152.37 2275,-152.37"/>
<text text-anchor="middle" x="2241.12" y="-130.07" font-family="Times,serif" font-size="14.00">orders_split</text>
</g>
<!-- SERVICE:orders_split&#45;&gt;DATABASE:shared&#45;db -->
<g id="edge6" class="edge">
<title>SERVICE:orders_split&#45;&gt;DATABASE:shared&#45;db</title>
<g id="a_edge6"><a xlink:title="edge#5">
<path fill="none" stroke="black" d="M2287.45,-136.16C2324.23,-138.26 2377.27,-142.77 2422.75,-152.37 2425.02,-152.85 2427.32,-153.38 2429.64,-153.96"/>
<polygon fill="black" stroke="black" points="2428.46,-157.27 2439.03,-156.54 2430.32,-150.52 2428.46,-157.27"/>
</a>
</g>
<text text-anchor="middle" x="2363.88" y="-157.07" font-family="Times,serif" font-size="14.00">CALLS [rest] (sync)</text>
</g>
<!-- SERVICE:bff_split&#45;1 -->
<g id="node12" class="node">
<title>SERVICE:bff_split&#45;1</title>
<path fill="#eef6ff" stroke="black" d="M762.75,-204.37C762.75,-204.37 707,-204.37 707,-204.37 701,-204.37 695,-198.37 695,-192.37 695,-192.37 695,-180.37 695,-180.37 695,-174.37 701,-168.37 707,-168.37 707,-168.37 762.75,-168.37 762.75,-168.37 768.75,-168.37 774.75,-174.37 774.75,-180.37 774.75,-180.37 774.75,-192.37 774.75,-192.37 774.75,-198.37 768.75,-204.37 762.75,-204.37"/>
<text text-anchor="middle" x="734.88" y="-182.07" font-family="Times,serif" font-size="14.00">bff_split&#45;1</text>
</g>
<!-- SERVICE:auth -->
<g id="node15" class="node">
<title>SERVICE:auth</title>
<path fill="#eef6ff" stroke="black" d="M1002.12,-204.37C1002.12,-204.37 972.12,-204.37 972.12,-204.37 966.12,-204.37 960.12,-198.37 960.12,-192.37 960.12,-192.37 960.12,-180.37 960.12,-180.37 960.12,-174.37 966.12,-168.37 972.12,-168.37 972.12,-168.37 1002.12,-168.37 1002.12,-168.37 1008.12,-168.37 1014.12,-174.37 1014.12,-180.37 1014.12,-180.37 1014.12,-192.37 1014.12,-192.37 1014.12,-198.37 1008.12,-204.37 1002.12,-204.37"/>
<text text-anchor="middle" x="987.12" y="-182.07" font-family="Times,serif" font-size="14.00">auth</text>
</g>
<!-- SERVICE:bff_split&#45;1&#45;&gt;SERVICE:auth -->
<g id="edge10" class="edge">
<title>SERVICE:bff_split&#45;1&#45;&gt;SERVICE:auth</title>
<g id="a_edge10"><a xlink:title="edge#9">
<path fill="none" stroke="black" d="M774.98,-186.37C822.4,-186.37 901.77,-186.37 948.51,-186.37"/>
<polygon fill="black" stroke="black" points="948.42,-189.87 958.42,-186.37 948.42,-182.87 948.42,-189.87"/>
</a>
</g>
<text text-anchor="middle" x="876.38" y="-191.07" font-family="Times,serif" font-size="14.00">CALLS [rest] (sync)</text>
</g>
<!-- SERVICE:bff_split -->
<g id="node19" class="node">
<title>SERVICE:bff_split</title>
<path fill="#eef6ff" stroke="black" d="M1009,-258.37C1009,-258.37 965.25,-258.37 965.25,-258.37 959.25,-258.37 953.25,-252.37 953.25,-246.37 953.25,-246.37 953.25,-234.37 953.25,-234.37 953.25,-228.37 959.25,-222.37 965.25,-222.37 965.25,-222.37 1009,-222.37 1009,-222.37 1015,-222.37 1021,-228.37 1021,-234.37 1021,-234.37 1021,-246.37 1021,-246.37 1021,-252.37 1015,-258.37 1009,-258.37"/>
<text text-anchor="middle" x="987.12" y="-236.07" font-family="Times,serif" font-size="14.00">bff_split</text>
</g>
<!-- SERVICE:bff_split&#45;1&#45;&gt;SERVICE:bff_split -->
<g id="edge15" class="edge">
<title>SERVICE:bff_split&#45;1&#45;&gt;SERVICE:bff_split</title>
<g id="a_edge15"><a xlink:title="edge#14">
<path fill="none" stroke="black" d="M775.17,-197.6C788.54,-201.26 803.62,-205.19 817.5,-208.37 859.51,-218 907.88,-226.96 942.01,-232.94"/>
<polygon fill="black" stroke="black" points="941.07,-236.33 951.52,-234.59 942.27,-229.43 941.07,-236.33"/>
</a>
</g>
<text text-anchor="middle" x="876.38" y="-236.07" font-family="Times,serif" font-size="14.00">CALLS [rest] (sync)</text>
</g>
<!-- SERVICE:bff_split_split -->
<g id="node13" class="node">
<title>SERVICE:bff_split_split</title>
<path fill="#eef6ff" stroke="black" d="M1272.75,-222.37C1272.75,-222.37 1194.5,-222.37 1194.5,-222.37 1188.5,-222.37 1182.5,-216.37 1182.5,-210.37 1182.5,-210.37 1182.5,-198.37 1182.5,-198.37 1182.5,-192.37 1188.5,-186.37 1194.5,-186.37 1194.5,-186.37 1272.75,-186.37 1272.75,-186.37 1278.75,-186.37 1284.75,-192.37 1284.75,-198.37 1284.75,-198.37 1284.75,-210.37 1284.75,-210.37 1284.75,-216.37 1278.75,-222.37 1272.75,-222.37"/>
<text text-anchor="middle" x="1233.62" y="-200.07" font-family="Times,serif" font-size="14.00">bff_split_split</text>
</g>
<!-- SERVICE:bff_split_split&#45;&gt;SERVICE:cart -->
<g id="edge12" class="edge">
<title>SERVICE:bff_split_split&#45;&gt;SERVICE:cart</title>
<g id="a_edge12"><a xlink:title="edge#11">
<path fill="none" stroke="black" d="M1285.15,-202.32C1332.22,-200.41 1401.33,-197.61 1443.73,-195.89"/>
<polygon fill="black" stroke="black" points="1443.83,-199.39 1453.68,-195.49 1443.55,-192.4 1443.83,-199.39"/>
</a>
</g>
<text text-anchor="middle" x="1373.12" y="-205.07" font-family="Times,serif" font-size="14.00">CALLS [rest] (sync)</text>
</g>
<!-- SERVICE:bff_split_split&#45;&gt;SERVICE:orders -->
<g id="edge13" class="edge">
<title>SERVICE:bff_split_split&#45;&gt;SERVICE:orders</title>
<g id="a_edge13"><a xlink:title="edge#12">
<path fill="none" stroke="black" d="M1276.3,-185.87C1287.29,-181.4 1299.23,-176.9 1310.5,-173.37 1364.93,-156.3 1387.74,-176.16 1435.75,-145.37 1448.1,-137.44 1458.39,-124.95 1466.05,-113.41"/>
<polygon fill="black" stroke="black" points="1469,-115.28 1471.29,-104.94 1463.05,-111.6 1469,-115.28"/>
</a>
</g>
<text text-anchor="middle" x="1373.12" y="-178.07" font-family="Times,serif" font-size="14.00">CALLS [rest] (sync)</text>
</g>
<!-- SERVICE:bff&#45;4 -->
<g id="node14" class="node">
<title>SERVICE:bff&#45;4</title>
<path fill="#eef6ff" stroke="black" d="M1002.12,-37.37C1002.12,-37.37 972.12,-37.37 972.12,-37.37 966.12,-37.37 960.12,-31.37 960.12,-25.37 960.12,-25.37 960.12,-13.37 960.12,-13.37 960.12,-7.37 966.12,-1.37 972.12,-1.37 972.12,-1.37 1002.12,-1.37 1002.12,-1.37 1008.12,-1.37 1014.12,-7.37 1014.12,-13.37 1014.12,-13.37 1014.12,-25.37 1014.12,-25.37 1014.12,-31.37 1008.12,-37.37 1002.12,-37.37"/>
<text text-anchor="middle" x="987.12" y="-15.07" font-family="Times,serif" font-size="14.00">bff&#45;4</text>
</g>
<!-- SERVICE:bff&#45;4&#45;&gt;SERVICE:orders -->
<g id="edge29" class="edge">
<title>SERVICE:bff&#45;4&#45;&gt;SERVICE:orders</title>
<g id="a_edge29"><a xlink:title="edge#28">
<path fill="none" stroke="black" d="M1014.3,-15.15C1067.13,-7.29 1190.17,7.63 1292.5,-5.37 1357.73,-13.66 1378.18,-10.6 1435.75,-42.37 1443.79,-46.8 1451.49,-52.99 1458.19,-59.28"/>
<polygon fill="black" stroke="black" points="1455.49,-61.53 1465.04,-66.13 1460.44,-56.58 1455.49,-61.53"/>
</a>
</g>
<text text-anchor="middle" x="1233.62" y="-10.07" font-family="Times,serif" font-size="14.00">CALLS [rest] (sync)</text>
</g>
<!-- SERVICE:bff&#45;4&#45;&gt;SERVICE:payments -->
<g id="edge30" class="edge">
<title>SERVICE:bff&#45;4&#45;&gt;SERVICE:payments</title>
<g id="a_edge30"><a xlink:title="edge#29">
<path fill="none" stroke="black" d="M1014.51,-21.05C1047.79,-23.35 1106.7,-28.06 1156.75,-35.37 1165.16,-36.59 1174.04,-38.13 1182.66,-39.75"/>
<polygon fill="black" stroke="black" points="1181.8,-43.15 1192.28,-41.62 1183.13,-36.28 1181.8,-43.15"/>
</a>
</g>
<text text-anchor="middle" x="1097.88" y="-40.07" font-family="Times,serif" font-size="14.00">CALLS [rest] (sync)</text>
</g>
<!-- SERVICE:payments&#45;&gt;SERVICE:orders -->
<g id="edge3" class="edge">
<title>SERVICE:payments&#45;&gt;SERVICE:orders</title>
<g id="a_edge3"><a xlink:title="edge#2">
<path fill="none" stroke="black" d="M1273.26,-47.23C1314.37,-45.05 1380.91,-44.87 1435.75,-60.37 1438.15,-61.05 1440.57,-61.87 1442.96,-62.8"/>
<polygon fill="black" stroke="black" points="1441.32,-65.9 1451.88,-66.8 1444.19,-59.51 1441.32,-65.9"/>
</a>
</g>
<text text-anchor="middle" x="1373.12" y="-65.07" font-family="Times,serif" font-size="14.00">CALLS [rest] (async)</text>
</g>
<!-- SERVICE:bff&#45;&gt;SERVICE:bff_split&#45;1 -->
<g id="edge21" class="edge">
<title>SERVICE:bff&#45;&gt;SERVICE:bff_split&#45;1</title>
<g id="a_edge21"><a xlink:title="edge#20">
<path fill="none" stroke="black" d="M516.55,-159.58C556.25,-164.47 632.65,-173.89 683.45,-180.15"/>
<polygon fill="black" stroke="black" points="682.98,-183.62 693.33,-181.37 683.83,-176.67 682.98,-183.62"/>
</a>
</g>
<text text-anchor="middle" x="593.38" y="-180.07" font-family="Times,serif" font-size="14.00">CALLS [rest] (sync)</text>
</g>
<!-- SERVICE:bff&#45;&gt;SERVICE:payments -->
<g id="edge9" class="edge">
<title>SERVICE:bff&#45;&gt;SERVICE:payments</title>
<g id="a_edge9"><a xlink:title="edge#8">
<path fill="none" stroke="black" d="M516.64,-156.7C633.38,-157.95 1103.66,-160.62 1156.75,-123.37 1173.71,-111.47 1160.71,-95.6 1174.75,-80.37 1177.6,-77.27 1180.85,-74.44 1184.31,-71.87"/>
<polygon fill="black" stroke="black" points="1186.13,-74.86 1192.6,-66.46 1182.31,-68.99 1186.13,-74.86"/>
</a>
</g>
<text text-anchor="middle" x="876.38" y="-160.07" font-family="Times,serif" font-size="14.00">CALLS [rest] (sync)</text>
</g>
<!-- SERVICE:orders_split&#45;1 -->
<g id="node18" class="node">
<title>SERVICE:orders_split&#45;1</title>
<path fill="#eef6ff" stroke="black" d="M2022.5,-148.37C2022.5,-148.37 1942.75,-148.37 1942.75,-148.37 1936.75,-148.37 1930.75,-142.37 1930.75,-136.37 1930.75,-136.37 1930.75,-124.37 1930.75,-124.37 1930.75,-118.37 1936.75,-112.37 1942.75,-112.37 1942.75,-112.37 2022.5,-112.37 2022.5,-112.37 2028.5,-112.37 2034.5,-118.37 2034.5,-124.37 2034.5,-124.37 2034.5,-136.37 2034.5,-136.37 2034.5,-142.37 2028.5,-148.37 2022.5,-148.37"/>
<text text-anchor="middle" x="1982.62" y="-126.07" font-family="Times,serif" font-size="14.00">orders_split&#45;1</text>
</g>
<!-- SERVICE:orders_split&#45;1&#45;&gt;SERVICE:orders_split -->
<g id="edge8" class="edge">
<title>SERVICE:orders_split&#45;1&#45;&gt;SERVICE:orders_split</title>
<g id="a_edge8"><a xlink:title="edge#7">
<path fill="none" stroke="black" d="M2034.92,-131.17C2077.86,-131.84 2139.08,-132.79 2183.46,-133.48"/>
<polygon fill="black" stroke="black" points="2183.37,-136.98 2193.42,-133.64 2183.47,-129.98 2183.37,-136.98"/>
</a>
</g>
<text text-anchor="middle" x="2118.38" y="-138.07" font-family="Times,serif" font-size="14.00">CALLS [rest] (sync)</text>
</g>
<!-- SERVICE:bff_split&#45;&gt;SERVICE:catalog -->
<g id="edge11" class="edge">
<title>SERVICE:bff_split&#45;&gt;SERVICE:catalog</title>
<g id="a_edge11"><a xlink:title="edge#10">
<path fill="none" stroke="black" d="M1021.39,-241.1C1118.04,-243.04 1407.16,-247.4 1646.75,-236.37 1655.7,-235.96 1665.28,-235.28 1674.38,-234.53"/>
<polygon fill="black" stroke="black" points="1674.4,-238.04 1684.05,-233.69 1673.79,-231.07 1674.4,-238.04"/>
</a>
</g>
<text text-anchor="middle" x="1373.12" y="-248.07" font-family="Times,serif" font-size="14.00">CALLS [rest] (sync)</text>
</g>
<!-- SERVICE:bff_split&#45;&gt;SERVICE:bff_split_split -->
<g id="edge22" class="edge">
<title>SERVICE:bff_split&#45;&gt;SERVICE:bff_split_split</title>
<g id="a_edge22"><a xlink:title="edge#21">
<path fill="none" stroke="black" d="M1021.23,-224.17C1027.04,-221.87 1033.11,-219.81 1039,-218.37 1082.35,-207.75 1132.66,-204.37 1171.14,-203.58"/>
<polygon fill="black" stroke="black" points="1170.7,-207.09 1180.65,-203.44 1170.6,-200.09 1170.7,-207.09"/>
</a>
</g>
<text text-anchor="middle" x="1097.88" y="-223.07" font-family="Times,serif" font-size="14.00">CALLS [rest] (sync)</text>
</g>
<!-- SERVICE:bff&#45;3&#45;&gt;SERVICE:bff&#45;2 -->
<g id="edge27" class="edge">
<title>SERVICE:bff&#45;3&#45;&gt;SERVICE:bff&#45;2</title>
<g id="a_edge27"><a xlink:title="edge#26">
<path fill="none" stroke="black" d="M516.96,-57.13C522.72,-58.02 528.8,-58.83 534.5,-59.37 687.71,-73.87 871.32,-74.37 948.77,-73.81"/>
<polygon fill="black" stroke="black" points="948.35,-77.31 958.32,-73.73 948.29,-70.31 948.35,-77.31"/>
</a>
</g>
<text text-anchor="middle" x="734.88" y="-78.07" font-family="Times,serif" font-size="14.00">CALLS [rest] (sync)</text>
</g>
<!-- SERVICE:web&#45;ui_split_split -->
<g id="node21" class="node">
<title>SERVICE:web&#45;ui_split_split</title>
<path fill="#eef6ff" stroke="black" d="M787.5,-37.37C787.5,-37.37 682.25,-37.37 682.25,-37.37 676.25,-37.37 670.25,-31.37 670.25,-25.37 670.25,-25.37 670.25,-13.37 670.25,-13.37 670.25,-7.37 676.25,-1.37 682.25,-1.37 682.25,-1.37 787.5,-1.37 787.5,-1.37 793.5,-1.37 799.5,-7.37 799.5,-13.37 799.5,-13.37 799.5,-25.37 799.5,-25.37 799.5,-31.37 793.5,-37.37 787.5,-37.37"/>
<text text-anchor="middle" x="734.88" y="-15.07" font-family="Times,serif" font-size="14.00">web&#45;ui_split_split</text>
</g>
<!-- SERVICE:bff&#45;3&#45;&gt;SERVICE:web&#45;ui_split_split -->
<g id="edge26" class="edge">
<title>SERVICE:bff&#45;3&#45;&gt;SERVICE:web&#45;ui_split_split</title>
<g id="a_edge26"><a xlink:title="edge#25">
<path fill="none" stroke="black" d="M516.9,-45.15C522.67,-43.75 528.76,-42.4 534.5,-41.37 575.19,-34.07 621.02,-28.81 658.47,-25.27"/>
<polygon fill="black" stroke="black" points="658.66,-28.76 668.3,-24.36 658.02,-21.79 658.66,-28.76"/>
</a>
</g>
<text text-anchor="middle" x="593.38" y="-46.07" font-family="Times,serif" font-size="14.00">CALLS [rest] (sync)</text>
</g>
<!-- SERVICE:web&#45;ui_split_split&#45;&gt;SERVICE:bff&#45;4 -->
<g id="edge28" class="edge">
<title>SERVICE:web&#45;ui_split_split&#45;&gt;SERVICE:bff&#45;4</title>
<g id="a_edge28"><a xlink:title="edge#27">
<path fill="none" stroke="black" d="M800,-19.37C846.98,-19.37 909.16,-19.37 948.41,-19.37"/>
<polygon fill="black" stroke="black" points="948.3,-22.87 958.3,-19.37 948.29,-15.87 948.3,-22.87"/>
</a>
</g>
<text text-anchor="middle" x="876.38" y="-24.07" font-family="Times,serif" font-size="14.00">CALLS [rest] (sync)</text>
</g>
<!-- SERVICE:orders_split&#45;2&#45;&gt;SERVICE:orders_split&#45;1 -->
<g id="edge14" class="edge">
<title>SERVICE:orders_split&#45;2&#45;&gt;SERVICE:orders_split&#45;1</title>
<g id="a_edge14"><a xlink:title="edge#13">
<path fill="none" stroke="black" d="M1770.38,-130.37C1813.12,-130.37 1873.78,-130.37 1919.14,-130.37"/>
<polygon fill="black" stroke="black" points="1919.11,-133.87 1929.11,-130.37 1919.11,-126.87 1919.11,-133.87"/>
</a>
</g>
<text text-anchor="middle" x="1846.88" y="-135.07" font-family="Times,serif" font-size="14.00">CALLS [rest] (sync)</text>
</g>
</g>
</svg>
