<?xml version="1.0" encoding="UTF-8" standalone="no"?>
<!DOCTYPE svg PUBLIC "-//W3C//DTD SVG 1.1//EN"
 "http://www.w3.org/Graphics/SVG/1.1/DTD/svg11.dtd">
<!-- Generated by graphviz version 9.0.0 (20230911.1827)
 -->
<!-- Title: G Pages: 1 -->
<svg width="838pt" height="232pt"
 viewBox="0.00 0.00 837.75 232.00" xmlns="http://www.w3.org/2000/svg" xmlns:xlink="http://www.w3.org/1999/xlink">
<g id="graph0" class="graph" transform="scale(1 1) rotate(0) translate(4 228)">
<title>G</title>
<polygon fill="white" stroke="none" points="-4,4 -4,-228 833.75,-228 833.75,4 -4,4"/>
<text text-anchor="middle" x="414.88" y="-206.7" font-family="Helvetica,sans-Serif" font-size="14.00">Architecture</text>
<!-- SERVICE:billing&#45;service -->
<g id="node1" class="node">
<title>SERVICE:billing&#45;service</title>
<path fill="#eef6ff" stroke="black" d="M348.5,-144C348.5,-144 266.5,-144 266.5,-144 260.5,-144 254.5,-138 254.5,-132 254.5,-132 254.5,-120 254.5,-120 254.5,-114 260.5,-108 266.5,-108 266.5,-108 348.5,-108 348.5,-108 354.5,-108 360.5,-114 360.5,-120 360.5,-120 360.5,-132 360.5,-132 360.5,-138 354.5,-144 348.5,-144"/>
<text text-anchor="middle" x="307.5" y="-121.7" font-family="Times,serif" font-size="14.00">billing&#45;service</text>
</g>
<!-- SERVICE:payment&#45;service -->
<g id="node2" class="node">
<title>SERVICE:payment&#45;service</title>
<path fill="#eef6ff" stroke="black" d="M630,-198C630,-198 531.5,-198 531.5,-198 525.5,-198 519.5,-192 519.5,-186 519.5,-186 519.5,-174 519.5,-174 519.5,-168 525.5,-162 531.5,-162 531.5,-162 630,-162 630,-162 636,-162 642,-168 642,-174 642,-174 642,-186 642,-186 642,-192 636,-198 630,-198"/>
<text text-anchor="middle" x="580.75" y="-175.7" font-family="Times,serif" font-size="14.00">payment&#45;service</text>
</g>
<!-- SERVICE:billing&#45;service&#45;&gt;SERVICE:payment&#45;service -->
<g id="edge7" class="edge">
<title>SERVICE:billing&#45;service&#45;&gt;SERVICE:payment&#45;service</title>
<g id="a_edge7"><a xlink:title="edge#6">
<path fill="none" stroke="black" d="M360.87,-136.48C366.81,-137.67 372.79,-138.86 378.5,-140 421.58,-148.59 469.86,-158.19 508.33,-165.83"/>
<polygon fill="black" stroke="black" points="507.45,-169.22 517.94,-167.73 508.81,-162.35 507.45,-169.22"/>
</a>
</g>
<text text-anchor="middle" x="440" y="-167.7" font-family="Times,serif" font-size="14.00">calls (1 ep), 500rpm</text>
</g>
<!-- DATABASE:payments&#45;db -->
<g id="node4" class="node">
<title>DATABASE:payments&#45;db</title>
<path fill="#fff3cd" stroke="black" d="M829.75,-156.73C829.75,-158.53 807,-160 779,-160 751,-160 728.25,-158.53 728.25,-156.73 728.25,-156.73 728.25,-127.27 728.25,-127.27 728.25,-125.47 751,-124 779,-124 807,-124 829.75,-125.47 829.75,-127.27 829.75,-127.27 829.75,-156.73 829.75,-156.73"/>
<path fill="none" stroke="black" d="M829.75,-156.73C829.75,-154.92 807,-153.45 779,-153.45 751,-153.45 728.25,-154.92 728.25,-156.73"/>
<text text-anchor="middle" x="779" y="-137.7" font-family="Times,serif" font-size="14.00">payments&#45;db</text>
</g>
<!-- SERVICE:billing&#45;service&#45;&gt;DATABASE:payments&#45;db -->
<g id="edge8" class="edge">
<title>SERVICE:billing&#45;service&#45;&gt;DATABASE:payments&#45;db</title>
<g id="a_edge8"><a xlink:title="edge#7">
<path fill="none" stroke="black" d="M360.79,-127.02C426.46,-128.38 542.6,-131.1 642,-135 666.35,-135.96 693.14,-137.28 716.46,-138.51"/>
<polygon fill="black" stroke="black" points="716.27,-142.01 726.44,-139.05 716.65,-135.02 716.27,-142.01"/>
</a>
</g>
<text text-anchor="middle" x="580.75" y="-139.7" font-family="Times,serif" font-size="14.00">READS</text>
</g>
<!-- SERVICE:payment&#45;service&#45;&gt;DATABASE:payments&#45;db -->
<g id="edge9" class="edge">
<title>SERVICE:payment&#45;service&#45;&gt;DATABASE:payments&#45;db</title>
<g id="a_edge9"><a xlink:title="edge#8">
<path fill="none" stroke="black" d="M642.23,-168.29C665.96,-163.7 693.14,-158.43 716.92,-153.83"/>
<polygon fill="black" stroke="black" points="717.3,-157.32 726.45,-151.98 715.97,-150.45 717.3,-157.32"/>
</a>
</g>
<text text-anchor="middle" x="685.12" y="-168.7" font-family="Times,serif" font-size="14.00">WRITES</text>
</g>
<!-- DATABASE:users&#45;db -->
<g id="node3" class="node">
<title>DATABASE:users&#45;db</title>
<path fill="#fff3cd" stroke="black" d="M815.12,-53.73C815.12,-55.53 798.93,-57 779,-57 759.07,-57 742.88,-55.53 742.88,-53.73 742.88,-53.73 742.88,-24.27 742.88,-24.27 742.88,-22.47 759.07,-21 779,-21 798.93,-21 815.12,-22.47 815.12,-24.27 815.12,-24.27 815.12,-53.73 815.12,-53.73"/>
<path fill="none" stroke="black" d="M815.12,-53.73C815.12,-51.92 798.93,-50.45 779,-50.45 759.07,-50.45 742.88,-51.92 742.88,-53.73"/>
<text text-anchor="middle" x="779" y="-34.7" font-family="Times,serif" font-size="14.00">users&#45;db</text>
</g>
<!-- SERVICE:api&#45;gateway -->
<g id="node5" class="node">
<title>SERVICE:api&#45;gateway</title>
<path fill="#eef6ff" stroke="black" d="M83.5,-116C83.5,-116 12,-116 12,-116 6,-116 0,-110 0,-104 0,-104 0,-92 0,-92 0,-86 6,-80 12,-80 12,-80 83.5,-80 83.5,-80 89.5,-80 95.5,-86 95.5,-92 95.5,-92 95.5,-104 95.5,-104 95.5,-110 89.5,-116 83.5,-116"/>
<text text-anchor="middle" x="47.75" y="-93.7" font-family="Times,serif" font-size="14.00">api&#45;gateway</text>
</g>
<!-- SERVICE:api&#45;gateway&#45;&gt;SERVICE:billing&#45;service -->
<g id="edge2" class="edge">
<title>SERVICE:api&#45;gateway&#45;&gt;SERVICE:billing&#45;service</title>
<g id="a_edge2"><a xlink:title="edge#1">
<path fill="none" stroke="black" d="M95.73,-103.1C136.95,-107.58 197.28,-114.13 242.84,-119.08"/>
<polygon fill="black" stroke="black" points="242.26,-122.54 252.58,-120.14 243.01,-115.58 242.26,-122.54"/>
</a>
</g>
<text text-anchor="middle" x="175" y="-121.7" font-family="Times,serif" font-size="14.00">calls (1 ep), 300rpm</text>
</g>
<!-- SERVICE:user&#45;service -->
<g id="node6" class="node">
<title>SERVICE:user&#45;service</title>
<path fill="#eef6ff" stroke="black" d="M342.12,-90C342.12,-90 272.88,-90 272.88,-90 266.88,-90 260.88,-84 260.88,-78 260.88,-78 260.88,-66 260.88,-66 260.88,-60 266.88,-54 272.88,-54 272.88,-54 342.12,-54 342.12,-54 348.12,-54 354.12,-60 354.12,-66 354.12,-66 354.12,-78 354.12,-78 354.12,-84 348.12,-90 342.12,-90"/>
<text text-anchor="middle" x="307.5" y="-67.7" font-family="Times,serif" font-size="14.00">user&#45;service</text>
</g>
<!-- SERVICE:api&#45;gateway&#45;&gt;SERVICE:user&#45;service -->
<g id="edge1" class="edge">
<title>SERVICE:api&#45;gateway&#45;&gt;SERVICE:user&#45;service</title>
<g id="a_edge1"><a xlink:title="edge#0">
<path fill="none" stroke="black" d="M95.93,-85.24C101.81,-83.98 107.77,-82.85 113.5,-82 158.77,-75.3 210.58,-72.9 249.12,-72.12"/>
<polygon fill="black" stroke="black" points="249.18,-75.62 259.12,-71.95 249.06,-68.62 249.18,-75.62"/>
</a>
</g>
<text text-anchor="middle" x="175" y="-86.7" font-family="Times,serif" font-size="14.00">calls (1 ep), 600rpm</text>
</g>
<!-- SERVICE:user&#45;service&#45;&gt;DATABASE:users&#45;db -->
<g id="edge4" class="edge">
<title>SERVICE:user&#45;service&#45;&gt;DATABASE:users&#45;db</title>
<g id="a_edge4"><a xlink:title="edge#3">
<path fill="none" stroke="black" d="M354.49,-72.16C429.35,-71.89 582.09,-69.17 710.25,-53 717.13,-52.13 724.35,-50.94 731.4,-49.62"/>
<polygon fill="black" stroke="black" points="732.05,-53.06 741.18,-47.69 730.69,-46.2 732.05,-53.06"/>
</a>
</g>
<text text-anchor="middle" x="580.75" y="-72.7" font-family="Times,serif" font-size="14.00">READS</text>
</g>
<!-- SERVICE:auth&#45;service -->
<g id="node7" class="node">
<title>SERVICE:auth&#45;service</title>
<path fill="#eef6ff" stroke="black" d="M616.12,-36C616.12,-36 545.38,-36 545.38,-36 539.38,-36 533.38,-30 533.38,-24 533.38,-24 533.38,-12 533.38,-12 533.38,-6 539.38,0 545.38,0 545.38,0 616.12,0 616.12,0 622.12,0 628.12,-6 628.12,-12 628.12,-12 628.12,-24 628.12,-24 628.12,-30 622.12,-36 616.12,-36"/>
<text text-anchor="middle" x="580.75" y="-13.7" font-family="Times,serif" font-size="14.00">auth&#45;service</text>
</g>
<!-- SERVICE:user&#45;service&#45;&gt;SERVICE:auth&#45;service -->
<g id="edge3" class="edge">
<title>SERVICE:user&#45;service&#45;&gt;SERVICE:auth&#45;service</title>
<g id="a_edge3"><a xlink:title="edge#2">
<path fill="none" stroke="black" d="M342.93,-53.62C354.01,-48.43 366.52,-43.3 378.5,-40 425.63,-27.01 480.96,-21.65 521.66,-19.45"/>
<polygon fill="black" stroke="black" points="521.67,-22.95 531.49,-18.97 521.33,-15.96 521.67,-22.95"/>
</a>
</g>
<text text-anchor="middle" x="440" y="-44.7" font-family="Times,serif" font-size="14.00">calls (1 ep), 600rpm</text>
</g>
<!-- SERVICE:auth&#45;service&#45;&gt;DATABASE:users&#45;db -->
<g id="edge5" class="edge">
<title>SERVICE:auth&#45;service&#45;&gt;DATABASE:users&#45;db</title>
<g id="a_edge5"><a xlink:title="edge#4">
<path fill="none" stroke="black" d="M628.26,-22.98C659.32,-26.3 700.02,-30.66 731.14,-33.99"/>
<polygon fill="black" stroke="black" points="730.74,-37.46 741.06,-35.05 731.49,-30.5 730.74,-37.46"/>
</a>
</g>
<text text-anchor="middle" x="685.12" y="-35.7" font-family="Times,serif" font-size="14.00">READS</text>
</g>
<!-- SERVICE:auth&#45;service&#45;&gt;DATABASE:users&#45;db -->
<g id="edge6" class="edge">
<title>SERVICE:auth&#45;service&#45;&gt;DATABASE:users&#45;db</title>
<g id="a_edge6"><a xlink:title="edge#5">
<path fill="none" stroke="black" d="M628.35,-5.25C652.97,-0.43 683.54,2.49 710.25,-4 720.74,-6.55 731.41,-11.02 741.1,-15.94"/>
<polygon fill="black" stroke="black" points="739.37,-18.98 749.83,-20.65 742.69,-12.82 739.37,-18.98"/>
</a>
</g>
<text text-anchor="middle" x="685.12" y="-8.7" font-family="Times,serif" font-size="14.00">WRITES</text>
</g>
</g>
</svg>
