<?xml version="1.0" encoding="UTF-8" standalone="no"?>
<!DOCTYPE svg PUBLIC "-//W3C//DTD SVG 1.1//EN"
 "http://www.w3.org/Graphics/SVG/1.1/DTD/svg11.dtd">
<!-- Generated by graphviz version 9.0.0 (20230911.1827)
 -->
<!-- Title: G Pages: 1 -->
<svg width="619pt" height="533pt"
 viewBox="0.00 0.00 619.25 533.00" xmlns="http://www.w3.org/2000/svg" xmlns:xlink="http://www.w3.org/1999/xlink">
<g id="graph0" class="graph" transform="scale(1 1) rotate(0) translate(4 529)">
<title>G</title>
<polygon fill="white" stroke="none" points="-4,4 -4,-529 615.25,-529 615.25,4 -4,4"/>
<text text-anchor="middle" x="305.62" y="-507.7" font-family="Helvetica,sans-Serif" font-size="14.00">Architecture</text>
<!-- SERVICE:search -->
<g id="node1" class="node">
<title>SERVICE:search</title>
<path fill="#eef6ff" stroke="black" d="M340.25,-252C340.25,-252 306.25,-252 306.25,-252 300.25,-252 294.25,-246 294.25,-240 294.25,-240 294.25,-228 294.25,-228 294.25,-222 300.25,-216 306.25,-216 306.25,-216 340.25,-216 340.25,-216 346.25,-216 352.25,-222 352.25,-228 352.25,-228 352.25,-240 352.25,-240 352.25,-246 346.25,-252 340.25,-252"/>
<text text-anchor="middle" x="323.25" y="-229.7" font-family="Times,serif" font-size="14.00">search</text>
</g>
<!-- SERVICE:wishlist -->
<g id="node2" class="node">
<title>SERVICE:wishlist</title>
<path fill="#eef6ff" stroke="black" d="M344,-198C344,-198 302.5,-198 302.5,-198 296.5,-198 290.5,-192 290.5,-186 290.5,-186 290.5,-174 290.5,-174 290.5,-168 296.5,-162 302.5,-162 302.5,-162 344,-162 344,-162 350,-162 356,-168 356,-174 356,-174 356,-186 356,-186 356,-192 350,-198 344,-198"/>
<text text-anchor="middle" x="323.25" y="-175.7" font-family="Times,serif" font-size="14.00">wishlist</text>
</g>
<!-- SERVICE:offers -->
<g id="node3" class="node">
<title>SERVICE:offers</title>
<path fill="#eef6ff" stroke="black" d="M338.25,-144C338.25,-144 308.25,-144 308.25,-144 302.25,-144 296.25,-138 296.25,-132 296.25,-132 296.25,-120 296.25,-120 296.25,-114 302.25,-108 308.25,-108 308.25,-108 338.25,-108 338.25,-108 344.25,-108 350.25,-114 350.25,-120 350.25,-120 350.25,-132 350.25,-132 350.25,-138 344.25,-144 338.25,-144"/>
<text text-anchor="middle" x="323.25" y="-121.7" font-family="Times,serif" font-size="14.00">offers</text>
</g>
<!-- SERVICE:order&#45;status -->
<g id="node4" class="node">
<title>SERVICE:order&#45;status</title>
<path fill="#eef6ff" stroke="black" d="M359,-90C359,-90 287.5,-90 287.5,-90 281.5,-90 275.5,-84 275.5,-78 275.5,-78 275.5,-66 275.5,-66 275.5,-60 281.5,-54 287.5,-54 287.5,-54 359,-54 359,-54 365,-54 371,-60 371,-66 371,-66 371,-78 371,-78 371,-84 365,-90 359,-90"/>
<text text-anchor="middle" x="323.25" y="-67.7" font-family="Times,serif" font-size="14.00">order&#45;status</text>
</g>
<!-- SERVICE:recommendations -->
<g id="node5" class="node">
<title>SERVICE:recommendations</title>
<path fill="#eef6ff" stroke="black" d="M377.75,-36C377.75,-36 268.75,-36 268.75,-36 262.75,-36 256.75,-30 256.75,-24 256.75,-24 256.75,-12 256.75,-12 256.75,-6 262.75,0 268.75,0 268.75,0 377.75,0 377.75,0 383.75,0 389.75,-6 389.75,-12 389.75,-12 389.75,-24 389.75,-24 389.75,-30 383.75,-36 377.75,-36"/>
<text text-anchor="middle" x="323.25" y="-13.7" font-family="Times,serif" font-size="14.00">recommendations</text>
</g>
<!-- SERVICE:invoice -->
<g id="node6" class="node">
<title>SERVICE:invoice</title>
<path fill="#eef6ff" stroke="black" d="M70,-401C70,-401 33,-401 33,-401 27,-401 21,-395 21,-389 21,-389 21,-377 21,-377 21,-371 27,-365 33,-365 33,-365 70,-365 70,-365 76,-365 82,-371 82,-377 82,-377 82,-389 82,-389 82,-395 76,-401 70,-401"/>
<text text-anchor="middle" x="51.5" y="-378.7" font-family="Times,serif" font-size="14.00">invoice</text>
</g>
<!-- DATABASE:accounting&#45;db -->
<g id="node13" class="node">
<title>DATABASE:accounting&#45;db</title>
<path fill="#fff3cd" stroke="black" d="M377.75,-343.73C377.75,-345.53 353.32,-347 323.25,-347 293.18,-347 268.75,-345.53 268.75,-343.73 268.75,-343.73 268.75,-314.27 268.75,-314.27 268.75,-312.47 293.18,-311 323.25,-311 353.32,-311 377.75,-312.47 377.75,-314.27 377.75,-314.27 377.75,-343.73 377.75,-343.73"/>
<path fill="none" stroke="black" d="M377.75,-343.73C377.75,-341.92 353.32,-340.45 323.25,-340.45 293.18,-340.45 268.75,-341.92 268.75,-343.73"/>
<text text-anchor="middle" x="323.25" y="-324.7" font-family="Times,serif" font-size="14.00">accounting&#45;db</text>
</g>
<!-- SERVICE:invoice&#45;&gt;DATABASE:accounting&#45;db -->
<g id="edge9" class="edge">
<title>SERVICE:invoice&#45;&gt;DATABASE:accounting&#45;db</title>
<g id="a_edge9"><a xlink:title="edge#8">
<path fill="none" stroke="black" d="M82.33,-378.7C119.24,-373.19 183.93,-362.91 238.75,-351 244.94,-349.65 251.37,-348.15 257.78,-346.58"/>
<polygon fill="black" stroke="black" points="258.2,-350.09 267.05,-344.26 256.5,-343.3 258.2,-350.09"/>
</a>
</g>
<text text-anchor="middle" x="179.88" y="-377.7" font-family="Times,serif" font-size="14.00">CALLS [rest] (sync)</text>
</g>
<!-- SERVICE:reconciliation -->
<g id="node7" class="node">
<title>SERVICE:reconciliation</title>
<path fill="#eef6ff" stroke="black" d="M91,-347C91,-347 12,-347 12,-347 6,-347 0,-341 0,-335 0,-335 0,-323 0,-323 0,-317 6,-311 12,-311 12,-311 91,-311 91,-311 97,-311 103,-317 103,-323 103,-323 103,-335 103,-335 103,-341 97,-347 91,-347"/>
<text text-anchor="middle" x="51.5" y="-324.7" font-family="Times,serif" font-size="14.00">reconciliation</text>
</g>
<!-- SERVICE:reconciliation&#45;&gt;DATABASE:accounting&#45;db -->
<g id="edge11" class="edge">
<title>SERVICE:reconciliation&#45;&gt;DATABASE:accounting&#45;db</title>
<g id="a_edge11"><a xlink:title="edge#10">
<path fill="none" stroke="black" d="M103.24,-329C146.8,-329 209.87,-329 257.15,-329"/>
<polygon fill="black" stroke="black" points="256.99,-332.5 266.99,-329 256.99,-325.5 256.99,-332.5"/>
</a>
</g>
<text text-anchor="middle" x="179.88" y="-333.7" font-family="Times,serif" font-size="14.00">CALLS [rest] (sync)</text>
</g>
<!-- SERVICE:mobile&#45;ui -->
<g id="node8" class="node">
<title>SERVICE:mobile&#45;ui</title>
<path fill="#eef6ff" stroke="black" d="M78.25,-144C78.25,-144 24.75,-144 24.75,-144 18.75,-144 12.75,-138 12.75,-132 12.75,-132 12.75,-120 12.75,-120 12.75,-114 18.75,-108 24.75,-108 24.75,-108 78.25,-108 78.25,-108 84.25,-108 90.25,-114 90.25,-120 90.25,-120 90.25,-132 90.25,-132 90.25,-138 84.25,-144 78.25,-144"/>
<text text-anchor="middle" x="51.5" y="-121.7" font-family="Times,serif" font-size="14.00">mobile&#45;ui</text>
</g>
<!-- SERVICE:mobile&#45;ui&#45;&gt;SERVICE:search -->
<g id="edge1" class="edge">
<title>SERVICE:mobile&#45;ui&#45;&gt;SERVICE:search</title>
<g id="a_edge1"><a xlink:title="edge#0">
<path fill="none" stroke="black" d="M66.49,-144.32C79.08,-159.48 98.95,-180.35 121,-192 172.52,-219.23 240.18,-228.81 282.44,-232.18"/>
<polygon fill="black" stroke="black" points="282.18,-235.67 292.4,-232.88 282.67,-228.69 282.18,-235.67"/>
</a>
</g>
<text text-anchor="middle" x="179.88" y="-231.7" font-family="Times,serif" font-size="14.00">CALLS [rest] (sync)</text>
</g>
<!-- SERVICE:mobile&#45;ui&#45;&gt;SERVICE:wishlist -->
<g id="edge2" class="edge">
<title>SERVICE:mobile&#45;ui&#45;&gt;SERVICE:wishlist</title>
<g id="a_edge2"><a xlink:title="edge#1">
<path fill="none" stroke="black" d="M90.61,-139.38C100.43,-142.51 111.04,-145.62 121,-148 174.83,-160.84 238.02,-169.94 279.03,-175.07"/>
<polygon fill="black" stroke="black" points="278.38,-178.52 288.73,-176.26 279.23,-171.57 278.38,-178.52"/>
</a>
</g>
<text text-anchor="middle" x="179.88" y="-174.7" font-family="Times,serif" font-size="14.00">CALLS [rest] (sync)</text>
</g>
<!-- SERVICE:mobile&#45;ui&#45;&gt;SERVICE:offers -->
<g id="edge3" class="edge">
<title>SERVICE:mobile&#45;ui&#45;&gt;SERVICE:offers</title>
<g id="a_edge3"><a xlink:title="edge#2">
<path fill="none" stroke="black" d="M90.58,-126C142.04,-126 233.26,-126 284.54,-126"/>
<polygon fill="black" stroke="black" points="284.24,-129.5 294.24,-126 284.24,-122.5 284.24,-129.5"/>
</a>
</g>
<text text-anchor="middle" x="179.88" y="-130.7" font-family="Times,serif" font-size="14.00">CALLS [rest] (sync)</text>
</g>
<!-- SERVICE:mobile&#45;ui&#45;&gt;SERVICE:order&#45;status -->
<g id="edge4" class="edge">
<title>SERVICE:mobile&#45;ui&#45;&gt;SERVICE:order&#45;status</title>
<g id="a_edge4"><a xlink:title="edge#3">
<path fill="none" stroke="black" d="M90.61,-112.62C100.43,-109.49 111.04,-106.38 121,-104 168.55,-92.65 223.41,-84.23 263.82,-78.89"/>
<polygon fill="black" stroke="black" points="264.12,-82.38 273.59,-77.62 263.22,-75.43 264.12,-82.38"/>
</a>
</g>
<text text-anchor="middle" x="179.88" y="-108.7" font-family="Times,serif" font-size="14.00">CALLS [rest] (sync)</text>
</g>
<!-- SERVICE:mobile&#45;ui&#45;&gt;SERVICE:recommendations -->
<g id="edge5" class="edge">
<title>SERVICE:mobile&#45;ui&#45;&gt;SERVICE:recommendations</title>
<g id="a_edge5"><a xlink:title="edge#4">
<path fill="none" stroke="black" d="M66.82,-107.69C79.46,-92.81 99.24,-72.46 121,-61 159.26,-40.84 206.34,-30.13 245.34,-24.45"/>
<polygon fill="black" stroke="black" points="245.7,-27.93 255.13,-23.11 244.75,-20.99 245.7,-27.93"/>
</a>
</g>
<text text-anchor="middle" x="179.88" y="-65.7" font-family="Times,serif" font-size="14.00">CALLS [rest] (sync)</text>
</g>
<!-- SERVICE:fulfillment -->
<g id="node9" class="node">
<title>SERVICE:fulfillment</title>
<path fill="#eef6ff" stroke="black" d="M80.12,-455C80.12,-455 22.88,-455 22.88,-455 16.88,-455 10.88,-449 10.88,-443 10.88,-443 10.88,-431 10.88,-431 10.88,-425 16.88,-419 22.88,-419 22.88,-419 80.12,-419 80.12,-419 86.12,-419 92.12,-425 92.12,-431 92.12,-431 92.12,-443 92.12,-443 92.12,-449 86.12,-455 80.12,-455"/>
<text text-anchor="middle" x="51.5" y="-432.7" font-family="Times,serif" font-size="14.00">fulfillment</text>
</g>
<!-- SERVICE:dispatch -->
<g id="node10" class="node">
<title>SERVICE:dispatch</title>
<path fill="#eef6ff" stroke="black" d="M346.62,-499C346.62,-499 299.88,-499 299.88,-499 293.88,-499 287.88,-493 287.88,-487 287.88,-487 287.88,-475 287.88,-475 287.88,-469 293.88,-463 299.88,-463 299.88,-463 346.62,-463 346.62,-463 352.62,-463 358.62,-469 358.62,-475 358.62,-475 358.62,-487 358.62,-487 358.62,-493 352.62,-499 346.62,-499"/>
<text text-anchor="middle" x="323.25" y="-476.7" font-family="Times,serif" font-size="14.00">dispatch</text>
</g>
<!-- SERVICE:fulfillment&#45;&gt;SERVICE:dispatch -->
<g id="edge6" class="edge">
<title>SERVICE:fulfillment&#45;&gt;SERVICE:dispatch</title>
<g id="a_edge6"><a xlink:title="edge#5">
<path fill="none" stroke="black" d="M92.59,-443.54C141.71,-451.55 224.75,-465.1 276.37,-473.52"/>
<polygon fill="black" stroke="black" points="275.59,-476.94 286.02,-475.09 276.72,-470.03 275.59,-476.94"/>
</a>
</g>
<text text-anchor="middle" x="179.88" y="-470.7" font-family="Times,serif" font-size="14.00">CALLS [rest] (sync)</text>
</g>
<!-- SERVICE:tracking -->
<g id="node11" class="node">
<title>SERVICE:tracking</title>
<path fill="#eef6ff" stroke="black" d="M599.25,-461C599.25,-461 555.5,-461 555.5,-461 549.5,-461 543.5,-455 543.5,-449 543.5,-449 543.5,-437 543.5,-437 543.5,-431 549.5,-425 555.5,-425 555.5,-425 599.25,-425 599.25,-425 605.25,-425 611.25,-431 611.25,-437 611.25,-437 611.25,-449 611.25,-449 611.25,-455 605.25,-461 599.25,-461"/>
<text text-anchor="middle" x="577.38" y="-438.7" font-family="Times,serif" font-size="14.00">tracking</text>
</g>
<!-- SERVICE:dispatch&#45;&gt;SERVICE:tracking -->
<g id="edge7" class="edge">
<title>SERVICE:dispatch&#45;&gt;SERVICE:tracking</title>
<g id="a_edge7"><a xlink:title="edge#6">
<path fill="none" stroke="black" d="M359.04,-475.76C404.06,-468.97 482.56,-457.14 531.88,-449.71"/>
<polygon fill="black" stroke="black" points="532.28,-453.19 541.65,-448.23 531.24,-446.26 532.28,-453.19"/>
</a>
</g>
<text text-anchor="middle" x="466.62" y="-471.7" font-family="Times,serif" font-size="14.00">CALLS [rest] (sync)</text>
</g>
<!-- SERVICE:tracking&#45;&gt;SERVICE:fulfillment -->
<g id="edge8" class="edge">
<title>SERVICE:tracking&#45;&gt;SERVICE:fulfillment</title>
<g id="a_edge8"><a xlink:title="edge#7">
<path fill="none" stroke="black" d="M543.01,-441.37C505.68,-439.64 443.4,-437.01 389.75,-436 288.41,-434.1 169.92,-435.23 103.81,-436.16"/>
<polygon fill="black" stroke="black" points="103.94,-432.65 93.99,-436.3 104.04,-439.65 103.94,-432.65"/>
</a>
</g>
<text text-anchor="middle" x="323.25" y="-440.7" font-family="Times,serif" font-size="14.00">CALLS [rest] (sync)</text>
</g>
<!-- SERVICE:ledger -->
<g id="node12" class="node">
<title>SERVICE:ledger</title>
<path fill="#eef6ff" stroke="black" d="M67.75,-293C67.75,-293 35.25,-293 35.25,-293 29.25,-293 23.25,-287 23.25,-281 23.25,-281 23.25,-269 23.25,-269 23.25,-263 29.25,-257 35.25,-257 35.25,-257 67.75,-257 67.75,-257 73.75,-257 79.75,-263 79.75,-269 79.75,-269 79.75,-281 79.75,-281 79.75,-287 73.75,-293 67.75,-293"/>
<text text-anchor="middle" x="51.5" y="-270.7" font-family="Times,serif" font-size="14.00">ledger</text>
</g>
<!-- SERVICE:ledger&#45;&gt;DATABASE:accounting&#45;db -->
<g id="edge10" class="edge">
<title>SERVICE:ledger&#45;&gt;DATABASE:accounting&#45;db</title>
<g id="a_edge10"><a xlink:title="edge#9">
<path fill="none" stroke="black" d="M80.1,-278.97C116.59,-284.39 182.8,-294.85 238.75,-307 244.94,-308.35 251.37,-309.85 257.78,-311.42"/>
<polygon fill="black" stroke="black" points="256.5,-314.7 267.05,-313.74 258.2,-307.91 256.5,-314.7"/>
</a>
</g>
<text text-anchor="middle" x="179.88" y="-311.7" font-family="Times,serif" font-size="14.00">CALLS [rest] (sync)</text>
</g>
</g>
</svg>
