<?xml version="1.0" encoding="UTF-8" standalone="no"?>
<!DOCTYPE svg PUBLIC "-//W3C//DTD SVG 1.1//EN"
 "http://www.w3.org/Graphics/SVG/1.1/DTD/svg11.dtd">
<!-- Generated by graphviz version 9.0.0 (20230911.1827)
 -->
<!-- Title: G Pages: 1 -->
<svg width="1276pt" height="158pt"
 viewBox="0.00 0.00 1275.50 158.00" xmlns="http://www.w3.org/2000/svg" xmlns:xlink="http://www.w3.org/1999/xlink">
<g id="graph0" class="graph" transform="scale(1 1) rotate(0) translate(4 154)">
<title>G</title>
<polygon fill="white" stroke="none" points="-4,4 -4,-154 1271.5,-154 1271.5,4 -4,4"/>
<text text-anchor="middle" x="633.75" y="-132.7" font-family="Helvetica,sans-Serif" font-size="14.00">Architecture</text>
<!-- SERVICE:web page -->
<g id="node1" class="node">
<title>SERVICE:web page</title>
<path fill="#eef6ff" stroke="black" d="M273.25,-70C273.25,-70 219.75,-70 219.75,-70 213.75,-70 207.75,-64 207.75,-58 207.75,-58 207.75,-46 207.75,-46 207.75,-40 213.75,-34 219.75,-34 219.75,-34 273.25,-34 273.25,-34 279.25,-34 285.25,-40 285.25,-46 285.25,-46 285.25,-58 285.25,-58 285.25,-64 279.25,-70 273.25,-70"/>
<text text-anchor="middle" x="246.5" y="-47.7" font-family="Times,serif" font-size="14.00">web page</text>
</g>
<!-- SERVICE:restaurants -->
<g id="node3" class="node">
<title>SERVICE:restaurants</title>
<path fill="#eef6ff" stroke="black" d="M530.25,-124C530.25,-124 465.5,-124 465.5,-124 459.5,-124 453.5,-118 453.5,-112 453.5,-112 453.5,-100 453.5,-100 453.5,-94 459.5,-88 465.5,-88 465.5,-88 530.25,-88 530.25,-88 536.25,-88 542.25,-94 542.25,-100 542.25,-100 542.25,-112 542.25,-112 542.25,-118 536.25,-124 530.25,-124"/>
<text text-anchor="middle" x="497.88" y="-101.7" font-family="Times,serif" font-size="14.00">restaurants</text>
</g>
<!-- SERVICE:web page&#45;&gt;SERVICE:restaurants -->
<g id="edge3" class="edge">
<title>SERVICE:web page&#45;&gt;SERVICE:restaurants</title>
<g id="a_edge3"><a xlink:title="edge#2">
<path fill="none" stroke="black" d="M285.53,-61.78C291.46,-63.24 297.51,-64.69 303.25,-66 350,-76.69 403.39,-87.63 442.25,-95.36"/>
<polygon fill="black" stroke="black" points="441.34,-98.74 451.83,-97.25 442.7,-91.88 441.34,-98.74"/>
</a>
</g>
<text text-anchor="middle" x="362.12" y="-94.7" font-family="Times,serif" font-size="14.00">CALLS [rest] (sync)</text>
</g>
<!-- SERVICE:payments -->
<g id="node4" class="node">
<title>SERVICE:payments</title>
<path fill="#eef6ff" stroke="black" d="M1007.88,-36C1007.88,-36 952.88,-36 952.88,-36 946.88,-36 940.88,-30 940.88,-24 940.88,-24 940.88,-12 940.88,-12 940.88,-6 946.88,0 952.88,0 952.88,0 1007.88,0 1007.88,0 1013.88,0 1019.88,-6 1019.88,-12 1019.88,-12 1019.88,-24 1019.88,-24 1019.88,-30 1013.88,-36 1007.88,-36"/>
<text text-anchor="middle" x="980.38" y="-13.7" font-family="Times,serif" font-size="14.00">payments</text>
</g>
<!-- SERVICE:web page&#45;&gt;SERVICE:payments -->
<g id="edge4" class="edge">
<title>SERVICE:web page&#45;&gt;SERVICE:payments</title>
<g id="a_edge4"><a xlink:title="edge#3">
<path fill="none" stroke="black" d="M285.65,-49.09C373.69,-42.5 597.94,-26.55 785.75,-20 834.42,-18.3 890,-17.89 929.1,-17.84"/>
<polygon fill="black" stroke="black" points="928.91,-21.34 938.91,-17.84 928.91,-14.34 928.91,-21.34"/>
</a>
</g>
<text text-anchor="middle" x="633.62" y="-34.7" font-family="Times,serif" font-size="14.00">CALLS [rest] (sync)</text>
</g>
<!-- SERVICE:orders -->
<g id="node2" class="node">
<title>SERVICE:orders</title>
<path fill="#eef6ff" stroke="black" d="M755.75,-80C755.75,-80 722.5,-80 722.5,-80 716.5,-80 710.5,-74 710.5,-68 710.5,-68 710.5,-56 710.5,-56 710.5,-50 716.5,-44 722.5,-44 722.5,-44 755.75,-44 755.75,-44 761.75,-44 767.75,-50 767.75,-56 767.75,-56 767.75,-68 767.75,-68 767.75,-74 761.75,-80 755.75,-80"/>
<text text-anchor="middle" x="739.12" y="-57.7" font-family="Times,serif" font-size="14.00">orders</text>
</g>
<!-- SERVICE:orders&#45;&gt;SERVICE:web page -->
<g id="edge2" class="edge">
<title>SERVICE:orders&#45;&gt;SERVICE:web page</title>
<g id="a_edge2"><a xlink:title="edge#1">
<path fill="none" stroke="black" d="M710.2,-61.43C630.17,-59.8 399.24,-55.09 297.1,-53.01"/>
<polygon fill="black" stroke="black" points="297.17,-49.51 287.1,-52.81 297.03,-56.51 297.17,-49.51"/>
</a>
</g>
<text text-anchor="middle" x="497.88" y="-62.7" font-family="Times,serif" font-size="14.00">CALLS [rest] (sync)</text>
</g>
<!-- SERVICE:orders&#45;&gt;SERVICE:payments -->
<g id="edge9" class="edge">
<title>SERVICE:orders&#45;&gt;SERVICE:payments</title>
<g id="a_edge9"><a xlink:title="edge#8">
<path fill="none" stroke="black" d="M768.02,-46.74C773.75,-44.13 779.84,-41.71 785.75,-40 833.13,-26.31 889.33,-21.08 928.94,-19.11"/>
<polygon fill="black" stroke="black" points="929.07,-22.61 938.91,-18.68 928.77,-15.62 929.07,-22.61"/>
</a>
</g>
<text text-anchor="middle" x="844.62" y="-44.7" font-family="Times,serif" font-size="14.00">CALLS [rest] (sync)</text>
</g>
<!-- SERVICE:database -->
<g id="node5" class="node">
<title>SERVICE:database</title>
<path fill="#eef6ff" stroke="black" d="M1255.5,-90C1255.5,-90 1205,-90 1205,-90 1199,-90 1193,-84 1193,-78 1193,-78 1193,-66 1193,-66 1193,-60 1199,-54 1205,-54 1205,-54 1255.5,-54 1255.5,-54 1261.5,-54 1267.5,-60 1267.5,-66 1267.5,-66 1267.5,-78 1267.5,-78 1267.5,-84 1261.5,-90 1255.5,-90"/>
<text text-anchor="middle" x="1230.25" y="-67.7" font-family="Times,serif" font-size="14.00">database</text>
</g>
<!-- SERVICE:orders&#45;&gt;SERVICE:database -->
<g id="edge5" class="edge">
<title>SERVICE:orders&#45;&gt;SERVICE:database</title>
<g id="a_edge5"><a xlink:title="edge#4">
<path fill="none" stroke="black" d="M768.18,-62.57C848.53,-64.22 1080.22,-68.95 1181.22,-71.02"/>
<polygon fill="black" stroke="black" points="1181,-74.51 1191.07,-71.22 1181.15,-67.52 1181,-74.51"/>
</a>
</g>
<text text-anchor="middle" x="980.38" y="-71.7" font-family="Times,serif" font-size="14.00">CALLS [rest] (sync)</text>
</g>
<!-- SERVICE:restaurants&#45;&gt;SERVICE:orders -->
<g id="edge8" class="edge">
<title>SERVICE:restaurants&#45;&gt;SERVICE:orders</title>
<g id="a_edge8"><a xlink:title="edge#7">
<path fill="none" stroke="black" d="M542.41,-93.63C552.94,-90.89 564.21,-88.16 574.75,-86 616.96,-77.37 665.91,-70.6 699.15,-66.48"/>
<polygon fill="black" stroke="black" points="699.2,-70 708.71,-65.32 698.36,-63.05 699.2,-70"/>
</a>
</g>
<text text-anchor="middle" x="633.62" y="-90.7" font-family="Times,serif" font-size="14.00">CALLS [rest] (sync)</text>
</g>
<!-- SERVICE:restaurants&#45;&gt;SERVICE:database -->
<g id="edge6" class="edge">
<title>SERVICE:restaurants&#45;&gt;SERVICE:database</title>
<g id="a_edge6"><a xlink:title="edge#5">
<path fill="none" stroke="black" d="M542.72,-105.96C581.96,-105.82 641.08,-105.38 692.5,-104 846.7,-99.87 885.14,-95.74 1039.25,-89 1099.58,-86.36 1115.06,-90.36 1175,-83 1177.06,-82.75 1179.15,-82.46 1181.26,-82.14"/>
<polygon fill="black" stroke="black" points="1181.83,-85.6 1191.12,-80.49 1180.67,-78.69 1181.83,-85.6"/>
</a>
</g>
<text text-anchor="middle" x="844.62" y="-105.7" font-family="Times,serif" font-size="14.00">CALLS [rest] (sync)</text>
</g>
<!-- SERVICE:payments&#45;&gt;SERVICE:database -->
<g id="edge7" class="edge">
<title>SERVICE:payments&#45;&gt;SERVICE:database</title>
<g id="a_edge7"><a xlink:title="edge#6">
<path fill="none" stroke="black" d="M1020.24,-17.7C1060.08,-18.47 1123.35,-22.71 1175,-40 1181.18,-42.07 1187.42,-44.91 1193.36,-48.05"/>
<polygon fill="black" stroke="black" points="1191.27,-50.88 1201.69,-52.78 1194.72,-44.8 1191.27,-50.88"/>
</a>
</g>
<text text-anchor="middle" x="1116.12" y="-44.7" font-family="Times,serif" font-size="14.00">CALLS [rest] (sync)</text>
</g>
<!-- SERVICE:user -->
<g id="node6" class="node">
<title>SERVICE:user</title>
<path fill="#eef6ff" stroke="black" d="M42,-70C42,-70 12,-70 12,-70 6,-70 0,-64 0,-58 0,-58 0,-46 0,-46 0,-40 6,-34 12,-34 12,-34 42,-34 42,-34 48,-34 54,-40 54,-46 54,-46 54,-58 54,-58 54,-64 48,-70 42,-70"/>
<text text-anchor="middle" x="27" y="-47.7" font-family="Times,serif" font-size="14.00">user</text>
</g>
<!-- SERVICE:user&#45;&gt;SERVICE:web page -->
<g id="edge1" class="edge">
<title>SERVICE:user&#45;&gt;SERVICE:web page</title>
<g id="a_edge1"><a xlink:title="edge#0">
<path fill="none" stroke="black" d="M54.24,-52C89.29,-52 152.1,-52 196.15,-52"/>
<polygon fill="black" stroke="black" points="195.96,-55.5 205.96,-52 195.96,-48.5 195.96,-55.5"/>
</a>
</g>
<text text-anchor="middle" x="130.88" y="-56.7" font-family="Times,serif" font-size="14.00">CALLS [rest] (sync)</text>
</g>
</g>
</svg>
