<?xml version="1.0" encoding="UTF-8" standalone="no"?>
<!DOCTYPE svg PUBLIC "-//W3C//DTD SVG 1.1//EN"
 "http://www.w3.org/Graphics/SVG/1.1/DTD/svg11.dtd">
<!-- Generated by graphviz version 9.0.0 (20230911.1827)
 -->
<!-- Title: G Pages: 1 -->
<svg width="1386pt" height="327pt"
 viewBox="0.00 0.00 1385.50 327.00" xmlns="http://www.w3.org/2000/svg" xmlns:xlink="http://www.w3.org/1999/xlink">
<g id="graph0" class="graph" transform="scale(1 1) rotate(0) translate(4 323)">
<title>G</title>
<polygon fill="white" stroke="none" points="-4,4 -4,-323 1381.5,-323 1381.5,4 -4,4"/>
<text text-anchor="middle" x="688.75" y="-301.7" font-family="Helvetica,sans-Serif" font-size="14.00">Architecture</text>
<!-- SERVICE:database -->
<g id="node1" class="node">
<title>SERVICE:database</title>
<path fill="#eef6ff" stroke="black" d="M1365.5,-70C1365.5,-70 1315,-70 1315,-70 1309,-70 1303,-64 1303,-58 1303,-58 1303,-46 1303,-46 1303,-40 1309,-34 1315,-34 1315,-34 1365.5,-34 1365.5,-34 1371.5,-34 1377.5,-40 1377.5,-46 1377.5,-46 1377.5,-58 1377.5,-58 1377.5,-64 1371.5,-70 1365.5,-70"/>
<text text-anchor="middle" x="1340.25" y="-47.7" font-family="Times,serif" font-size="14.00">database</text>
</g>
<!-- SERVICE:bff&#45;1 -->
<g id="node2" class="node">
<title>SERVICE:bff&#45;1</title>
<path fill="#eef6ff" stroke="black" d="M342.75,-277C342.75,-277 312.75,-277 312.75,-277 306.75,-277 300.75,-271 300.75,-265 300.75,-265 300.75,-253 300.75,-253 300.75,-247 306.75,-241 312.75,-241 312.75,-241 342.75,-241 342.75,-241 348.75,-241 354.75,-247 354.75,-253 354.75,-253 354.75,-265 354.75,-265 354.75,-271 348.75,-277 342.75,-277"/>
<text text-anchor="middle" x="327.75" y="-254.7" font-family="Times,serif" font-size="14.00">bff&#45;1</text>
</g>
<!-- SERVICE:service:restaurants -->
<g id="node6" class="node">
<title>SERVICE:service:restaurants</title>
<path fill="#eef6ff" stroke="black" d="M654.75,-278C654.75,-278 532.25,-278 532.25,-278 526.25,-278 520.25,-272 520.25,-266 520.25,-266 520.25,-254 520.25,-254 520.25,-248 526.25,-242 532.25,-242 532.25,-242 654.75,-242 654.75,-242 660.75,-242 666.75,-248 666.75,-254 666.75,-254 666.75,-266 666.75,-266 666.75,-272 660.75,-278 654.75,-278"/>
<text text-anchor="middle" x="593.5" y="-255.7" font-family="Times,serif" font-size="14.00">SERVICE:restaurants</text>
</g>
<!-- SERVICE:bff&#45;1&#45;&gt;SERVICE:service:restaurants -->
<g id="edge14" class="edge">
<title>SERVICE:bff&#45;1&#45;&gt;SERVICE:service:restaurants</title>
<g id="a_edge14"><a xlink:title="edge#13">
<path fill="none" stroke="black" d="M355.19,-266.47C364.39,-268.72 374.82,-270.89 384.5,-272 436.49,-277.98 450.03,-275.46 502.25,-272 504.44,-271.86 506.65,-271.69 508.89,-271.51"/>
<polygon fill="black" stroke="black" points="509.03,-275.01 518.67,-270.61 508.39,-268.04 509.03,-275.01"/>
</a>
</g>
<text text-anchor="middle" x="443.38" y="-279.7" font-family="Times,serif" font-size="14.00">CALLS [rest] (sync)</text>
</g>
<!-- SERVICE:service:payments -->
<g id="node7" class="node">
<title>SERVICE:service:payments</title>
<path fill="#eef6ff" stroke="black" d="M649.88,-210C649.88,-210 537.12,-210 537.12,-210 531.12,-210 525.12,-204 525.12,-198 525.12,-198 525.12,-186 525.12,-186 525.12,-180 531.12,-174 537.12,-174 537.12,-174 649.88,-174 649.88,-174 655.88,-174 661.88,-180 661.88,-186 661.88,-186 661.88,-198 661.88,-198 661.88,-204 655.88,-210 649.88,-210"/>
<text text-anchor="middle" x="593.5" y="-187.7" font-family="Times,serif" font-size="14.00">SERVICE:payments</text>
</g>
<!-- SERVICE:bff&#45;1&#45;&gt;SERVICE:service:payments -->
<g id="edge15" class="edge">
<title>SERVICE:bff&#45;1&#45;&gt;SERVICE:service:payments</title>
<g id="a_edge15"><a xlink:title="edge#14">
<path fill="none" stroke="black" d="M355.12,-254.74C364.41,-253.24 374.92,-251.55 384.5,-250 436.83,-241.55 451.36,-245.85 502.25,-231 516.61,-226.81 531.72,-220.92 545.38,-214.98"/>
<polygon fill="black" stroke="black" points="546.42,-218.34 554.12,-211.07 543.57,-211.95 546.42,-218.34"/>
</a>
</g>
<text text-anchor="middle" x="443.38" y="-254.7" font-family="Times,serif" font-size="14.00">CALLS [rest] (sync)</text>
</g>
<!-- SERVICE:service:web page -->
<g id="node3" class="node">
<title>SERVICE:service:web page</title>
<path fill="#eef6ff" stroke="black" d="M123.25,-249C123.25,-249 12,-249 12,-249 6,-249 0,-243 0,-237 0,-237 0,-225 0,-225 0,-219 6,-213 12,-213 12,-213 123.25,-213 123.25,-213 129.25,-213 135.25,-219 135.25,-225 135.25,-225 135.25,-237 135.25,-237 135.25,-243 129.25,-249 123.25,-249"/>
<text text-anchor="middle" x="67.62" y="-226.7" font-family="Times,serif" font-size="14.00">SERVICE:web page</text>
</g>
<!-- SERVICE:service:web page&#45;&gt;SERVICE:bff&#45;1 -->
<g id="edge13" class="edge">
<title>SERVICE:service:web page&#45;&gt;SERVICE:bff&#45;1</title>
<g id="a_edge13"><a xlink:title="edge#12">
<path fill="none" stroke="black" d="M135.43,-238.25C184.27,-243.54 248.75,-250.54 288.98,-254.9"/>
<polygon fill="black" stroke="black" points="288.57,-258.38 298.89,-255.98 289.33,-251.42 288.57,-258.38"/>
</a>
</g>
<text text-anchor="middle" x="212.12" y="-256.7" font-family="Times,serif" font-size="14.00">CALLS [rest] (sync)</text>
</g>
<!-- SERVICE:bff -->
<g id="node5" class="node">
<title>SERVICE:bff</title>
<path fill="#eef6ff" stroke="black" d="M342.75,-223C342.75,-223 312.75,-223 312.75,-223 306.75,-223 300.75,-217 300.75,-211 300.75,-211 300.75,-199 300.75,-199 300.75,-193 306.75,-187 312.75,-187 312.75,-187 342.75,-187 342.75,-187 348.75,-187 354.75,-193 354.75,-199 354.75,-199 354.75,-211 354.75,-211 354.75,-217 348.75,-223 342.75,-223"/>
<text text-anchor="middle" x="327.75" y="-200.7" font-family="Times,serif" font-size="14.00">bff</text>
</g>
<!-- SERVICE:service:web page&#45;&gt;SERVICE:bff -->
<g id="edge10" class="edge">
<title>SERVICE:service:web page&#45;&gt;SERVICE:bff</title>
<g id="a_edge10"><a xlink:title="edge#9">
<path fill="none" stroke="black" d="M135.48,-217.53C141.47,-216.58 147.46,-215.71 153.25,-215 199.93,-209.27 254.09,-206.81 289.31,-205.76"/>
<polygon fill="black" stroke="black" points="289.08,-209.27 298.98,-205.5 288.89,-202.27 289.08,-209.27"/>
</a>
</g>
<text text-anchor="middle" x="212.12" y="-219.7" font-family="Times,serif" font-size="14.00">CALLS [rest] (sync)</text>
</g>
<!-- SERVICE:payments -->
<g id="node4" class="node">
<title>SERVICE:payments</title>
<path fill="#eef6ff" stroke="black" d="M1117.88,-124C1117.88,-124 1062.88,-124 1062.88,-124 1056.88,-124 1050.88,-118 1050.88,-112 1050.88,-112 1050.88,-100 1050.88,-100 1050.88,-94 1056.88,-88 1062.88,-88 1062.88,-88 1117.88,-88 1117.88,-88 1123.88,-88 1129.88,-94 1129.88,-100 1129.88,-100 1129.88,-112 1129.88,-112 1129.88,-118 1123.88,-124 1117.88,-124"/>
<text text-anchor="middle" x="1090.38" y="-101.7" font-family="Times,serif" font-size="14.00">payments</text>
</g>
<!-- SERVICE:payments&#45;&gt;SERVICE:database -->
<g id="edge7" class="edge">
<title>SERVICE:payments&#45;&gt;SERVICE:database</title>
<g id="a_edge7"><a xlink:title="edge#6">
<path fill="none" stroke="black" d="M1130.07,-98.58C1169.24,-90.94 1231.5,-78.42 1285,-66 1287.13,-65.51 1289.31,-64.99 1291.5,-64.46"/>
<polygon fill="black" stroke="black" points="1292.2,-67.89 1301.07,-62.1 1290.52,-61.1 1292.2,-67.89"/>
</a>
</g>
<text text-anchor="middle" x="1226.12" y="-95.7" font-family="Times,serif" font-size="14.00">CALLS [rest] (sync)</text>
</g>
<!-- SERVICE:bff&#45;&gt;SERVICE:service:restaurants -->
<g id="edge11" class="edge">
<title>SERVICE:bff&#45;&gt;SERVICE:service:restaurants</title>
<g id="a_edge11"><a xlink:title="edge#10">
<path fill="none" stroke="black" d="M355.16,-202.74C389.64,-200.56 451.59,-199.35 502.25,-213 520.58,-217.94 539.42,-227.01 555.12,-235.88"/>
<polygon fill="black" stroke="black" points="553.24,-238.83 563.64,-240.87 556.78,-232.79 553.24,-238.83"/>
</a>
</g>
<text text-anchor="middle" x="443.38" y="-217.7" font-family="Times,serif" font-size="14.00">CALLS [rest] (sync)</text>
</g>
<!-- SERVICE:bff&#45;&gt;SERVICE:service:payments -->
<g id="edge12" class="edge">
<title>SERVICE:bff&#45;&gt;SERVICE:service:payments</title>
<g id="a_edge12"><a xlink:title="edge#11">
<path fill="none" stroke="black" d="M353.26,-186.66C362.55,-180.77 373.54,-175 384.5,-172 426.63,-160.47 475.14,-164.21 514.71,-171.4"/>
<polygon fill="black" stroke="black" points="513.91,-174.81 524.4,-173.28 515.25,-167.94 513.91,-174.81"/>
</a>
</g>
<text text-anchor="middle" x="443.38" y="-176.7" font-family="Times,serif" font-size="14.00">CALLS [rest] (sync)</text>
</g>
<!-- SERVICE:user -->
<g id="node8" class="node">
<title>SERVICE:user</title>
<path fill="#eef6ff" stroke="black" d="M82.62,-90C82.62,-90 52.62,-90 52.62,-90 46.62,-90 40.62,-84 40.62,-78 40.62,-78 40.62,-66 40.62,-66 40.62,-60 46.62,-54 52.62,-54 52.62,-54 82.62,-54 82.62,-54 88.62,-54 94.62,-60 94.62,-66 94.62,-66 94.62,-78 94.62,-78 94.62,-84 88.62,-90 82.62,-90"/>
<text text-anchor="middle" x="67.62" y="-67.7" font-family="Times,serif" font-size="14.00">user</text>
</g>
<!-- SERVICE:web page -->
<g id="node9" class="node">
<title>SERVICE:web page</title>
<path fill="#eef6ff" stroke="black" d="M354.5,-90C354.5,-90 301,-90 301,-90 295,-90 289,-84 289,-78 289,-78 289,-66 289,-66 289,-60 295,-54 301,-54 301,-54 354.5,-54 354.5,-54 360.5,-54 366.5,-60 366.5,-66 366.5,-66 366.5,-78 366.5,-78 366.5,-84 360.5,-90 354.5,-90"/>
<text text-anchor="middle" x="327.75" y="-67.7" font-family="Times,serif" font-size="14.00">web page</text>
</g>
<!-- SERVICE:user&#45;&gt;SERVICE:web page -->
<g id="edge1" class="edge">
<title>SERVICE:user&#45;&gt;SERVICE:web page</title>
<g id="a_edge1"><a xlink:title="edge#0">
<path fill="none" stroke="black" d="M94.8,-72C137.54,-72 223.03,-72 277.43,-72"/>
<polygon fill="black" stroke="black" points="277.36,-75.5 287.36,-72 277.36,-68.5 277.36,-75.5"/>
</a>
</g>
<text text-anchor="middle" x="212.12" y="-76.7" font-family="Times,serif" font-size="14.00">CALLS [rest] (sync)</text>
</g>
<!-- SERVICE:web page&#45;&gt;SERVICE:payments -->
<g id="edge4" class="edge">
<title>SERVICE:web page&#45;&gt;SERVICE:payments</title>
<g id="a_edge4"><a xlink:title="edge#3">
<path fill="none" stroke="black" d="M367,-81.08C372.83,-82.22 378.81,-83.25 384.5,-84 444.39,-91.94 459.89,-88.4 520.25,-91 687.08,-98.19 728.8,-100.25 895.75,-104 944.44,-105.09 1000.02,-105.59 1039.11,-105.82"/>
<polygon fill="black" stroke="black" points="1038.9,-109.31 1048.92,-105.87 1038.93,-102.31 1038.9,-109.31"/>
</a>
</g>
<text text-anchor="middle" x="743.62" y="-106.7" font-family="Times,serif" font-size="14.00">CALLS [rest] (sync)</text>
</g>
<!-- SERVICE:restaurants -->
<g id="node11" class="node">
<title>SERVICE:restaurants</title>
<path fill="#eef6ff" stroke="black" d="M625.88,-36C625.88,-36 561.12,-36 561.12,-36 555.12,-36 549.12,-30 549.12,-24 549.12,-24 549.12,-12 549.12,-12 549.12,-6 555.12,0 561.12,0 561.12,0 625.88,0 625.88,0 631.88,0 637.88,-6 637.88,-12 637.88,-12 637.88,-24 637.88,-24 637.88,-30 631.88,-36 625.88,-36"/>
<text text-anchor="middle" x="593.5" y="-13.7" font-family="Times,serif" font-size="14.00">restaurants</text>
</g>
<!-- SERVICE:web page&#45;&gt;SERVICE:restaurants -->
<g id="edge3" class="edge">
<title>SERVICE:web page&#45;&gt;SERVICE:restaurants</title>
<g id="a_edge3"><a xlink:title="edge#2">
<path fill="none" stroke="black" d="M355.48,-53.66C364.35,-48.41 374.52,-43.23 384.5,-40 434.66,-23.75 494.82,-18.86 537.52,-17.67"/>
<polygon fill="black" stroke="black" points="537.36,-21.17 547.28,-17.46 537.21,-14.17 537.36,-21.17"/>
</a>
</g>
<text text-anchor="middle" x="443.38" y="-44.7" font-family="Times,serif" font-size="14.00">CALLS [rest] (sync)</text>
</g>
<!-- SERVICE:orders -->
<g id="node10" class="node">
<title>SERVICE:orders</title>
<path fill="#eef6ff" stroke="black" d="M865.75,-80C865.75,-80 832.5,-80 832.5,-80 826.5,-80 820.5,-74 820.5,-68 820.5,-68 820.5,-56 820.5,-56 820.5,-50 826.5,-44 832.5,-44 832.5,-44 865.75,-44 865.75,-44 871.75,-44 877.75,-50 877.75,-56 877.75,-56 877.75,-68 877.75,-68 877.75,-74 871.75,-80 865.75,-80"/>
<text text-anchor="middle" x="849.12" y="-57.7" font-family="Times,serif" font-size="14.00">orders</text>
</g>
<!-- SERVICE:orders&#45;&gt;SERVICE:database -->
<g id="edge5" class="edge">
<title>SERVICE:orders&#45;&gt;SERVICE:database</title>
<g id="a_edge5"><a xlink:title="edge#4">
<path fill="none" stroke="black" d="M878.18,-61.43C958.53,-59.78 1190.22,-55.05 1291.22,-52.98"/>
<polygon fill="black" stroke="black" points="1291.15,-56.48 1301.07,-52.78 1291,-49.49 1291.15,-56.48"/>
</a>
</g>
<text text-anchor="middle" x="1090.38" y="-63.7" font-family="Times,serif" font-size="14.00">CALLS [rest] (sync)</text>
</g>
<!-- SERVICE:orders&#45;&gt;SERVICE:payments -->
<g id="edge9" class="edge">
<title>SERVICE:orders&#45;&gt;SERVICE:payments</title>
<g id="a_edge9"><a xlink:title="edge#8">
<path fill="none" stroke="black" d="M878.04,-65.14C910.7,-69.03 966.31,-76.35 1013.5,-86 1021.94,-87.73 1030.85,-89.82 1039.47,-92"/>
<polygon fill="black" stroke="black" points="1038.56,-95.38 1049.12,-94.5 1040.32,-88.6 1038.56,-95.38"/>
</a>
</g>
<text text-anchor="middle" x="954.62" y="-90.7" font-family="Times,serif" font-size="14.00">CALLS [rest] (sync)</text>
</g>
<!-- SERVICE:orders&#45;&gt;SERVICE:web page -->
<g id="edge2" class="edge">
<title>SERVICE:orders&#45;&gt;SERVICE:web page</title>
<g id="a_edge2"><a xlink:title="edge#1">
<path fill="none" stroke="black" d="M820.1,-62.54C736.1,-64.16 485.63,-68.98 378.38,-71.04"/>
<polygon fill="black" stroke="black" points="378.38,-67.54 368.45,-71.24 378.52,-74.54 378.38,-67.54"/>
</a>
</g>
<text text-anchor="middle" x="593.5" y="-73.7" font-family="Times,serif" font-size="14.00">CALLS [rest] (sync)</text>
</g>
<!-- SERVICE:restaurants&#45;&gt;SERVICE:database -->
<g id="edge6" class="edge">
<title>SERVICE:restaurants&#45;&gt;SERVICE:database</title>
<g id="a_edge6"><a xlink:title="edge#5">
<path fill="none" stroke="black" d="M638.34,-17.79C680.44,-17.73 745.84,-18.04 802.5,-20 983,-26.24 1197.25,-41.33 1291.14,-48.32"/>
<polygon fill="black" stroke="black" points="1290.77,-51.81 1301,-49.06 1291.29,-44.82 1290.77,-51.81"/>
</a>
</g>
<text text-anchor="middle" x="954.62" y="-34.7" font-family="Times,serif" font-size="14.00">CALLS [rest] (sync)</text>
</g>
<!-- SERVICE:restaurants&#45;&gt;SERVICE:orders -->
<g id="edge8" class="edge">
<title>SERVICE:restaurants&#45;&gt;SERVICE:orders</title>
<g id="a_edge8"><a xlink:title="edge#7">
<path fill="none" stroke="black" d="M638.35,-18.3C681.02,-19.59 747.32,-24.29 802.5,-40 804.91,-40.68 807.34,-41.49 809.77,-42.38"/>
<polygon fill="black" stroke="black" points="808.27,-45.54 818.85,-46.13 810.94,-39.07 808.27,-45.54"/>
</a>
</g>
<text text-anchor="middle" x="743.62" y="-44.7" font-family="Times,serif" font-size="14.00">CALLS [rest] (sync)</text>
</g>
</g>
</svg>
