<?xml version="1.0" encoding="UTF-8" standalone="no"?>
<!DOCTYPE svg PUBLIC "-//W3C//DTD SVG 1.1//EN"
 "http://www.w3.org/Graphics/SVG/1.1/DTD/svg11.dtd">
<!-- Generated by graphviz version 9.0.0 (20230911.1827)
 -->
<!-- Title: G Pages: 1 -->
<svg width="788pt" height="489pt"
 viewBox="0.00 0.00 788.25 489.00" xmlns="http://www.w3.org/2000/svg" xmlns:xlink="http://www.w3.org/1999/xlink">
<g id="graph0" class="graph" transform="scale(1 1) rotate(0) translate(4 485)">
<title>G</title>
<polygon fill="white" stroke="none" points="-4,4 -4,-485 784.25,-485 784.25,4 -4,4"/>
<text text-anchor="middle" x="390.12" y="-463.7" font-family="Helvetica,sans-Serif" font-size="14.00">Architecture</text>
<!-- SERVICE:validator -->
<g id="node1" class="node">
<title>SERVICE:validator</title>
<path fill="#eef6ff" stroke="black" d="M331.62,-36C331.62,-36 283.38,-36 283.38,-36 277.38,-36 271.38,-30 271.38,-24 271.38,-24 271.38,-12 271.38,-12 271.38,-6 277.38,0 283.38,0 283.38,0 331.62,0 331.62,0 337.62,0 343.62,-6 343.62,-12 343.62,-12 343.62,-24 343.62,-24 343.62,-30 337.62,-36 331.62,-36"/>
<text text-anchor="middle" x="307.5" y="-13.7" font-family="Times,serif" font-size="14.00">validator</text>
</g>
<!-- SERVICE:enricher -->
<g id="node2" class="node">
<title>SERVICE:enricher</title>
<path fill="#eef6ff" stroke="black" d="M560.25,-36C560.25,-36 515.75,-36 515.75,-36 509.75,-36 503.75,-30 503.75,-24 503.75,-24 503.75,-12 503.75,-12 503.75,-6 509.75,0 515.75,0 515.75,0 560.25,0 560.25,0 566.25,0 572.25,-6 572.25,-12 572.25,-12 572.25,-24 572.25,-24 572.25,-30 566.25,-36 560.25,-36"/>
<text text-anchor="middle" x="538" y="-13.7" font-family="Times,serif" font-size="14.00">enricher</text>
</g>
<!-- SERVICE:validator&#45;&gt;SERVICE:enricher -->
<g id="edge7" class="edge">
<title>SERVICE:validator&#45;&gt;SERVICE:enricher</title>
<g id="a_edge7"><a xlink:title="edge#6">
<path fill="none" stroke="black" d="M343.7,-18C383.61,-18 448.75,-18 492.24,-18"/>
<polygon fill="black" stroke="black" points="492.1,-21.5 502.1,-18 492.1,-14.5 492.1,-21.5"/>
</a>
</g>
<text text-anchor="middle" x="426.88" y="-22.7" font-family="Times,serif" font-size="14.00">CALLS [rest] (sync)</text>
</g>
<!-- SERVICE:writer -->
<g id="node3" class="node">
<title>SERVICE:writer</title>
<path fill="#eef6ff" stroke="black" d="M768.25,-36C768.25,-36 738,-36 738,-36 732,-36 726,-30 726,-24 726,-24 726,-12 726,-12 726,-6 732,0 738,0 738,0 768.25,0 768.25,0 774.25,0 780.25,-6 780.25,-12 780.25,-12 780.25,-24 780.25,-24 780.25,-30 774.25,-36 768.25,-36"/>
<text text-anchor="middle" x="753.12" y="-13.7" font-family="Times,serif" font-size="14.00">writer</text>
</g>
<!-- SERVICE:enricher&#45;&gt;SERVICE:writer -->
<g id="edge8" class="edge">
<title>SERVICE:enricher&#45;&gt;SERVICE:writer</title>
<g id="a_edge8"><a xlink:title="edge#7">
<path fill="none" stroke="black" d="M572.3,-18C610.79,-18 674,-18 714.31,-18"/>
<polygon fill="black" stroke="black" points="714.26,-21.5 724.26,-18 714.26,-14.5 714.26,-21.5"/>
</a>
</g>
<text text-anchor="middle" x="649.12" y="-22.7" font-family="Times,serif" font-size="14.00">CALLS [rest] (sync)</text>
</g>
<!-- SERVICE:refund&#45;api -->
<g id="node4" class="node">
<title>SERVICE:refund&#45;api</title>
<path fill="#eef6ff" stroke="black" d="M85,-198C85,-198 26.25,-198 26.25,-198 20.25,-198 14.25,-192 14.25,-186 14.25,-186 14.25,-174 14.25,-174 14.25,-168 20.25,-162 26.25,-162 26.25,-162 85,-162 85,-162 91,-162 97,-168 97,-174 97,-174 97,-186 97,-186 97,-192 91,-198 85,-198"/>
<text text-anchor="middle" x="55.62" y="-175.7" font-family="Times,serif" font-size="14.00">refund&#45;api</text>
</g>
<!-- DATABASE:finance&#45;db -->
<g id="node5" class="node">
<title>DATABASE:finance&#45;db</title>
<path fill="#fff3cd" stroke="black" d="M350,-140.73C350,-142.53 330.95,-144 307.5,-144 284.05,-144 265,-142.53 265,-140.73 265,-140.73 265,-111.27 265,-111.27 265,-109.47 284.05,-108 307.5,-108 330.95,-108 350,-109.47 350,-111.27 350,-111.27 350,-140.73 350,-140.73"/>
<path fill="none" stroke="black" d="M350,-140.73C350,-138.92 330.95,-137.45 307.5,-137.45 284.05,-137.45 265,-138.92 265,-140.73"/>
<text text-anchor="middle" x="307.5" y="-121.7" font-family="Times,serif" font-size="14.00">finance&#45;db</text>
</g>
<!-- SERVICE:refund&#45;api&#45;&gt;DATABASE:finance&#45;db -->
<g id="edge10" class="edge">
<title>SERVICE:refund&#45;api&#45;&gt;DATABASE:finance&#45;db</title>
<g id="a_edge10"><a xlink:title="edge#9">
<path fill="none" stroke="black" d="M97.21,-175.42C136.07,-170.51 196.15,-161.54 247,-148 249.24,-147.4 251.52,-146.75 253.82,-146.07"/>
<polygon fill="black" stroke="black" points="254.67,-149.47 263.12,-143.08 252.53,-142.8 254.67,-149.47"/>
</a>
</g>
<text text-anchor="middle" x="188.12" y="-174.7" font-family="Times,serif" font-size="14.00">CALLS [rest] (sync)</text>
</g>
<!-- SERVICE:web&#45;ui -->
<g id="node6" class="node">
<title>SERVICE:web&#45;ui</title>
<path fill="#eef6ff" stroke="black" d="M73.75,-347C73.75,-347 37.5,-347 37.5,-347 31.5,-347 25.5,-341 25.5,-335 25.5,-335 25.5,-323 25.5,-323 25.5,-317 31.5,-311 37.5,-311 37.5,-311 73.75,-311 73.75,-311 79.75,-311 85.75,-317 85.75,-323 85.75,-323 85.75,-335 85.75,-335 85.75,-341 79.75,-347 73.75,-347"/>
<text text-anchor="middle" x="55.62" y="-324.7" font-family="Times,serif" font-size="14.00">web&#45;ui</text>
</g>
<!-- SERVICE:reviews -->
<g id="node7" class="node">
<title>SERVICE:reviews</title>
<path fill="#eef6ff" stroke="black" d="M327.88,-455C327.88,-455 287.12,-455 287.12,-455 281.12,-455 275.12,-449 275.12,-443 275.12,-443 275.12,-431 275.12,-431 275.12,-425 281.12,-419 287.12,-419 287.12,-419 327.88,-419 327.88,-419 333.88,-419 339.88,-425 339.88,-431 339.88,-431 339.88,-443 339.88,-443 339.88,-449 333.88,-455 327.88,-455"/>
<text text-anchor="middle" x="307.5" y="-432.7" font-family="Times,serif" font-size="14.00">reviews</text>
</g>
<!-- SERVICE:web&#45;ui&#45;&gt;SERVICE:reviews -->
<g id="edge3" class="edge">
<title>SERVICE:web&#45;ui&#45;&gt;SERVICE:reviews</title>
<g id="a_edge3"><a xlink:title="edge#2">
<path fill="none" stroke="black" d="M72.04,-347.45C85.59,-362.47 106.64,-383.08 129.25,-395 171.84,-417.45 226.47,-428.06 263.75,-432.96"/>
<polygon fill="black" stroke="black" points="262.87,-436.38 273.22,-434.12 263.72,-429.43 262.87,-436.38"/>
</a>
</g>
<text text-anchor="middle" x="188.12" y="-434.7" font-family="Times,serif" font-size="14.00">CALLS [rest] (sync)</text>
</g>
<!-- SERVICE:support -->
<g id="node8" class="node">
<title>SERVICE:support</title>
<path fill="#eef6ff" stroke="black" d="M328.25,-401C328.25,-401 286.75,-401 286.75,-401 280.75,-401 274.75,-395 274.75,-389 274.75,-389 274.75,-377 274.75,-377 274.75,-371 280.75,-365 286.75,-365 286.75,-365 328.25,-365 328.25,-365 334.25,-365 340.25,-371 340.25,-377 340.25,-377 340.25,-389 340.25,-389 340.25,-395 334.25,-401 328.25,-401"/>
<text text-anchor="middle" x="307.5" y="-378.7" font-family="Times,serif" font-size="14.00">support</text>
</g>
<!-- SERVICE:web&#45;ui&#45;&gt;SERVICE:support -->
<g id="edge4" class="edge">
<title>SERVICE:web&#45;ui&#45;&gt;SERVICE:support</title>
<g id="a_edge4"><a xlink:title="edge#3">
<path fill="none" stroke="black" d="M86.09,-338.77C99.21,-342.9 114.91,-347.54 129.25,-351 174.65,-361.94 227.4,-371 263.47,-376.66"/>
<polygon fill="black" stroke="black" points="262.66,-380.07 273.07,-378.14 263.73,-373.16 262.66,-380.07"/>
</a>
</g>
<text text-anchor="middle" x="188.12" y="-377.7" font-family="Times,serif" font-size="14.00">CALLS [rest] (sync)</text>
</g>
<!-- SERVICE:profile -->
<g id="node9" class="node">
<title>SERVICE:profile</title>
<path fill="#eef6ff" stroke="black" d="M324.12,-347C324.12,-347 290.88,-347 290.88,-347 284.88,-347 278.88,-341 278.88,-335 278.88,-335 278.88,-323 278.88,-323 278.88,-317 284.88,-311 290.88,-311 290.88,-311 324.12,-311 324.12,-311 330.12,-311 336.12,-317 336.12,-323 336.12,-323 336.12,-335 336.12,-335 336.12,-341 330.12,-347 324.12,-347"/>
<text text-anchor="middle" x="307.5" y="-324.7" font-family="Times,serif" font-size="14.00">profile</text>
</g>
<!-- SERVICE:web&#45;ui&#45;&gt;SERVICE:profile -->
<g id="edge5" class="edge">
<title>SERVICE:web&#45;ui&#45;&gt;SERVICE:profile</title>
<g id="a_edge5"><a xlink:title="edge#4">
<path fill="none" stroke="black" d="M85.78,-329C130.71,-329 216.95,-329 267.3,-329"/>
<polygon fill="black" stroke="black" points="267.17,-332.5 277.17,-329 267.17,-325.5 267.17,-332.5"/>
</a>
</g>
<text text-anchor="middle" x="188.12" y="-333.7" font-family="Times,serif" font-size="14.00">CALLS [rest] (sync)</text>
</g>
<!-- SERVICE:auth -->
<g id="node13" class="node">
<title>SERVICE:auth</title>
<path fill="#eef6ff" stroke="black" d="M322.5,-293C322.5,-293 292.5,-293 292.5,-293 286.5,-293 280.5,-287 280.5,-281 280.5,-281 280.5,-269 280.5,-269 280.5,-263 286.5,-257 292.5,-257 292.5,-257 322.5,-257 322.5,-257 328.5,-257 334.5,-263 334.5,-269 334.5,-269 334.5,-281 334.5,-281 334.5,-287 328.5,-293 322.5,-293"/>
<text text-anchor="middle" x="307.5" y="-270.7" font-family="Times,serif" font-size="14.00">auth</text>
</g>
<!-- SERVICE:web&#45;ui&#45;&gt;SERVICE:auth -->
<g id="edge1" class="edge">
<title>SERVICE:web&#45;ui&#45;&gt;SERVICE:auth</title>
<g id="a_edge1"><a xlink:title="edge#0">
<path fill="none" stroke="black" d="M86.09,-319.23C99.21,-315.1 114.91,-310.46 129.25,-307 177.12,-295.47 233.16,-286.02 269.21,-280.45"/>
<polygon fill="black" stroke="black" points="269.32,-283.97 278.68,-279.01 268.27,-277.05 269.32,-283.97"/>
</a>
</g>
<text text-anchor="middle" x="188.12" y="-311.7" font-family="Times,serif" font-size="14.00">CALLS [rest] (sync)</text>
</g>
<!-- SERVICE:catalog -->
<g id="node14" class="node">
<title>SERVICE:catalog</title>
<path fill="#eef6ff" stroke="black" d="M327.12,-239C327.12,-239 287.88,-239 287.88,-239 281.88,-239 275.88,-233 275.88,-227 275.88,-227 275.88,-215 275.88,-215 275.88,-209 281.88,-203 287.88,-203 287.88,-203 327.12,-203 327.12,-203 333.12,-203 339.12,-209 339.12,-215 339.12,-215 339.12,-227 339.12,-227 339.12,-233 333.12,-239 327.12,-239"/>
<text text-anchor="middle" x="307.5" y="-216.7" font-family="Times,serif" font-size="14.00">catalog</text>
</g>
<!-- SERVICE:web&#45;ui&#45;&gt;SERVICE:catalog -->
<g id="edge2" class="edge">
<title>SERVICE:web&#45;ui&#45;&gt;SERVICE:catalog</title>
<g id="a_edge2"><a xlink:title="edge#1">
<path fill="none" stroke="black" d="M71.7,-310.54C85.2,-295.24 106.35,-274.1 129.25,-262 172.14,-239.33 227.38,-229.1 264.7,-224.55"/>
<polygon fill="black" stroke="black" points="264.63,-228.08 274.17,-223.48 263.84,-221.12 264.63,-228.08"/>
</a>
</g>
<text text-anchor="middle" x="188.12" y="-266.7" font-family="Times,serif" font-size="14.00">CALLS [rest] (sync)</text>
</g>
<!-- SERVICE:ingest&#45;worker -->
<g id="node10" class="node">
<title>SERVICE:ingest&#45;worker</title>
<path fill="#eef6ff" stroke="black" d="M96.62,-36C96.62,-36 14.62,-36 14.62,-36 8.62,-36 2.62,-30 2.62,-24 2.62,-24 2.62,-12 2.62,-12 2.62,-6 8.62,0 14.62,0 14.62,0 96.62,0 96.62,0 102.62,0 108.62,-6 108.62,-12 108.62,-12 108.62,-24 108.62,-24 108.62,-30 102.62,-36 96.62,-36"/>
<text text-anchor="middle" x="55.62" y="-13.7" font-family="Times,serif" font-size="14.00">ingest&#45;worker</text>
</g>
<!-- SERVICE:ingest&#45;worker&#45;&gt;SERVICE:validator -->
<g id="edge6" class="edge">
<title>SERVICE:ingest&#45;worker&#45;&gt;SERVICE:validator</title>
<g id="a_edge6"><a xlink:title="edge#5">
<path fill="none" stroke="black" d="M109.01,-18C153.48,-18 216.73,-18 259.57,-18"/>
<polygon fill="black" stroke="black" points="259.57,-21.5 269.57,-18 259.57,-14.5 259.57,-21.5"/>
</a>
</g>
<text text-anchor="middle" x="188.12" y="-22.7" font-family="Times,serif" font-size="14.00">CALLS [rest] (sync)</text>
</g>
<!-- SERVICE:billing&#45;api -->
<g id="node11" class="node">
<title>SERVICE:billing&#45;api</title>
<path fill="#eef6ff" stroke="black" d="M84.25,-144C84.25,-144 27,-144 27,-144 21,-144 15,-138 15,-132 15,-132 15,-120 15,-120 15,-114 21,-108 27,-108 27,-108 84.25,-108 84.25,-108 90.25,-108 96.25,-114 96.25,-120 96.25,-120 96.25,-132 96.25,-132 96.25,-138 90.25,-144 84.25,-144"/>
<text text-anchor="middle" x="55.62" y="-121.7" font-family="Times,serif" font-size="14.00">billing&#45;api</text>
</g>
<!-- SERVICE:billing&#45;api&#45;&gt;DATABASE:finance&#45;db -->
<g id="edge9" class="edge">
<title>SERVICE:billing&#45;api&#45;&gt;DATABASE:finance&#45;db</title>
<g id="a_edge9"><a xlink:title="edge#8">
<path fill="none" stroke="black" d="M96.49,-126C138.92,-126 206.27,-126 253.22,-126"/>
<polygon fill="black" stroke="black" points="253.18,-129.5 263.18,-126 253.18,-122.5 253.18,-129.5"/>
</a>
</g>
<text text-anchor="middle" x="188.12" y="-130.7" font-family="Times,serif" font-size="14.00">CALLS [rest] (sync)</text>
</g>
<!-- SERVICE:settlement&#45;api -->
<g id="node12" class="node">
<title>SERVICE:settlement&#45;api</title>
<path fill="#eef6ff" stroke="black" d="M99.25,-90C99.25,-90 12,-90 12,-90 6,-90 0,-84 0,-78 0,-78 0,-66 0,-66 0,-60 6,-54 12,-54 12,-54 99.25,-54 99.25,-54 105.25,-54 111.25,-60 111.25,-66 111.25,-66 111.25,-78 111.25,-78 111.25,-84 105.25,-90 99.25,-90"/>
<text text-anchor="middle" x="55.62" y="-67.7" font-family="Times,serif" font-size="14.00">settlement&#45;api</text>
</g>
<!-- SERVICE:settlement&#45;api&#45;&gt;DATABASE:finance&#45;db -->
<g id="edge11" class="edge">
<title>SERVICE:settlement&#45;api&#45;&gt;DATABASE:finance&#45;db</title>
<g id="a_edge11"><a xlink:title="edge#10">
<path fill="none" stroke="black" d="M111.36,-78.43C149.73,-83.6 201.98,-92.01 247,-104 249.24,-104.6 251.52,-105.25 253.82,-105.93"/>
<polygon fill="black" stroke="black" points="252.53,-109.2 263.12,-108.92 254.67,-102.53 252.53,-109.2"/>
</a>
</g>
<text text-anchor="middle" x="188.12" y="-108.7" font-family="Times,serif" font-size="14.00">CALLS [rest] (sync)</text>
</g>
</g>
</svg>
