<?xml version="1.0" encoding="UTF-8" standalone="no"?>
<!DOCTYPE svg PUBLIC "-//W3C//DTD SVG 1.1//EN"
 "http://www.w3.org/Graphics/SVG/1.1/DTD/svg11.dtd">
<!-- Generated by graphviz version 9.0.0 (20230911.1827)
 -->
<!-- Title: G Pages: 1 -->
<svg width="1226pt" height="448pt"
 viewBox="0.00 0.00 1225.75 448.00" xmlns="http://www.w3.org/2000/svg" xmlns:xlink="http://www.w3.org/1999/xlink">
<g id="graph0" class="graph" transform="scale(1 1) rotate(0) translate(4 444)">
<title>G</title>
<polygon fill="white" stroke="none" points="-4,4 -4,-444 1221.75,-444 1221.75,4 -4,4"/>
<text text-anchor="middle" x="608.88" y="-422.7" font-family="Helvetica,sans-Serif" font-size="14.00">Architecture</text>
<!-- DATABASE:users&#45;db -->
<g id="node1" class="node">
<title>DATABASE:users&#45;db</title>
<path fill="#fff3cd" stroke="black" d="M967.75,-361.73C967.75,-363.53 951.56,-365 931.62,-365 911.69,-365 895.5,-363.53 895.5,-361.73 895.5,-361.73 895.5,-332.27 895.5,-332.27 895.5,-330.47 911.69,-329 931.62,-329 951.56,-329 967.75,-330.47 967.75,-332.27 967.75,-332.27 967.75,-361.73 967.75,-361.73"/>
<path fill="none" stroke="black" d="M967.75,-361.73C967.75,-359.92 951.56,-358.45 931.62,-358.45 911.69,-358.45 895.5,-359.92 895.5,-361.73"/>
<text text-anchor="middle" x="931.62" y="-342.7" font-family="Times,serif" font-size="14.00">users&#45;db</text>
</g>
<!-- DATABASE:orders&#45;db_inventory&#45;service -->
<g id="node2" class="node">
<title>DATABASE:orders&#45;db_inventory&#45;service</title>
<path fill="#fff3cd" stroke="black" d="M1030,-140.73C1030,-142.53 985.91,-144 931.62,-144 877.34,-144 833.25,-142.53 833.25,-140.73 833.25,-140.73 833.25,-111.27 833.25,-111.27 833.25,-109.47 877.34,-108 931.62,-108 985.91,-108 1030,-109.47 1030,-111.27 1030,-111.27 1030,-140.73 1030,-140.73"/>
<path fill="none" stroke="black" d="M1030,-140.73C1030,-138.92 985.91,-137.45 931.62,-137.45 877.34,-137.45 833.25,-138.92 833.25,-140.73"/>
<text text-anchor="middle" x="931.62" y="-121.7" font-family="Times,serif" font-size="14.00">orders&#45;db_inventory&#45;service</text>
</g>
<!-- SERVICE:notification&#45;service -->
<g id="node3" class="node">
<title>SERVICE:notification&#45;service</title>
<path fill="#eef6ff" stroke="black" d="M989.5,-301C989.5,-301 873.75,-301 873.75,-301 867.75,-301 861.75,-295 861.75,-289 861.75,-289 861.75,-277 861.75,-277 861.75,-271 867.75,-265 873.75,-265 873.75,-265 989.5,-265 989.5,-265 995.5,-265 1001.5,-271 1001.5,-277 1001.5,-277 1001.5,-289 1001.5,-289 1001.5,-295 995.5,-301 989.5,-301"/>
<text text-anchor="middle" x="931.62" y="-278.7" font-family="Times,serif" font-size="14.00">notification&#45;service</text>
</g>
<!-- SERVICE:order&#45;service_split -->
<g id="node4" class="node">
<title>SERVICE:order&#45;service_split</title>
<path fill="#eef6ff" stroke="black" d="M645.75,-252C645.75,-252 534.5,-252 534.5,-252 528.5,-252 522.5,-246 522.5,-240 522.5,-240 522.5,-228 522.5,-228 522.5,-222 528.5,-216 534.5,-216 534.5,-216 645.75,-216 645.75,-216 651.75,-216 657.75,-222 657.75,-228 657.75,-228 657.75,-240 657.75,-240 657.75,-246 651.75,-252 645.75,-252"/>
<text text-anchor="middle" x="590.12" y="-229.7" font-family="Times,serif" font-size="14.00">order&#45;service_split</text>
</g>
<!-- SERVICE:order&#45;service_split&#45;&gt;SERVICE:notification&#45;service -->
<g id="edge15" class="edge">
<title>SERVICE:order&#45;service_split&#45;&gt;SERVICE:notification&#45;service</title>
<g id="a_edge15"><a xlink:title="edge#14">
<path fill="none" stroke="black" d="M658.11,-238.25C702.81,-241.66 762.79,-247.33 815.25,-256 826.63,-257.88 838.56,-260.23 850.26,-262.76"/>
<polygon fill="black" stroke="black" points="849.37,-266.15 859.89,-264.9 850.89,-259.32 849.37,-266.15"/>
</a>
</g>
<text text-anchor="middle" x="754.5" y="-260.7" font-family="Times,serif" font-size="14.00">calls (1 ep), 220rpm</text>
</g>
<!-- SERVICE:search&#45;service -->
<g id="node12" class="node">
<title>SERVICE:search&#45;service</title>
<path fill="#eef6ff" stroke="black" d="M973.75,-215C973.75,-215 889.5,-215 889.5,-215 883.5,-215 877.5,-209 877.5,-203 877.5,-203 877.5,-191 877.5,-191 877.5,-185 883.5,-179 889.5,-179 889.5,-179 973.75,-179 973.75,-179 979.75,-179 985.75,-185 985.75,-191 985.75,-191 985.75,-203 985.75,-203 985.75,-209 979.75,-215 973.75,-215"/>
<text text-anchor="middle" x="931.62" y="-192.7" font-family="Times,serif" font-size="14.00">search&#45;service</text>
</g>
<!-- SERVICE:order&#45;service_split&#45;&gt;SERVICE:search&#45;service -->
<g id="edge16" class="edge">
<title>SERVICE:order&#45;service_split&#45;&gt;SERVICE:search&#45;service</title>
<g id="a_edge16"><a xlink:title="edge#15">
<path fill="none" stroke="black" d="M658.03,-220.54C669.9,-218.46 682.16,-216.51 693.75,-215 751.75,-207.45 818.17,-202.74 865.9,-200.04"/>
<polygon fill="black" stroke="black" points="866,-203.54 875.79,-199.5 865.62,-196.55 866,-203.54"/>
</a>
</g>
<text text-anchor="middle" x="754.5" y="-219.7" font-family="Times,serif" font-size="14.00">calls (1 ep), 180rpm</text>
</g>
<!-- DATABASE:payments&#45;db -->
<g id="node5" class="node">
<title>DATABASE:payments&#45;db</title>
<path fill="#fff3cd" stroke="black" d="M1217.75,-85.73C1217.75,-87.53 1195,-89 1167,-89 1139,-89 1116.25,-87.53 1116.25,-85.73 1116.25,-85.73 1116.25,-56.27 1116.25,-56.27 1116.25,-54.47 1139,-53 1167,-53 1195,-53 1217.75,-54.47 1217.75,-56.27 1217.75,-56.27 1217.75,-85.73 1217.75,-85.73"/>
<path fill="none" stroke="black" d="M1217.75,-85.73C1217.75,-83.92 1195,-82.45 1167,-82.45 1139,-82.45 1116.25,-83.92 1116.25,-85.73"/>
<text text-anchor="middle" x="1167" y="-66.7" font-family="Times,serif" font-size="14.00">payments&#45;db</text>
</g>
<!-- DATABASE:orders&#45;db_order&#45;service -->
<g id="node6" class="node">
<title>DATABASE:orders&#45;db_order&#45;service</title>
<path fill="#fff3cd" stroke="black" d="M675.75,-140.73C675.75,-142.53 637.37,-144 590.12,-144 542.88,-144 504.5,-142.53 504.5,-140.73 504.5,-140.73 504.5,-111.27 504.5,-111.27 504.5,-109.47 542.88,-108 590.12,-108 637.37,-108 675.75,-109.47 675.75,-111.27 675.75,-111.27 675.75,-140.73 675.75,-140.73"/>
<path fill="none" stroke="black" d="M675.75,-140.73C675.75,-138.92 637.37,-137.45 590.12,-137.45 542.88,-137.45 504.5,-138.92 504.5,-140.73"/>
<text text-anchor="middle" x="590.12" y="-121.7" font-family="Times,serif" font-size="14.00">orders&#45;db_order&#45;service</text>
</g>
<!-- SERVICE:api&#45;gateway -->
<g id="node7" class="node">
<title>SERVICE:api&#45;gateway</title>
<path fill="#eef6ff" stroke="black" d="M83.5,-252C83.5,-252 12,-252 12,-252 6,-252 0,-246 0,-240 0,-240 0,-228 0,-228 0,-222 6,-216 12,-216 12,-216 83.5,-216 83.5,-216 89.5,-216 95.5,-222 95.5,-228 95.5,-228 95.5,-240 95.5,-240 95.5,-246 89.5,-252 83.5,-252"/>
<text text-anchor="middle" x="47.75" y="-229.7" font-family="Times,serif" font-size="14.00">api&#45;gateway</text>
</g>
<!-- SERVICE:order&#45;service -->
<g id="node8" class="node">
<title>SERVICE:order&#45;service</title>
<path fill="#eef6ff" stroke="black" d="M334.25,-252C334.25,-252 257.5,-252 257.5,-252 251.5,-252 245.5,-246 245.5,-240 245.5,-240 245.5,-228 245.5,-228 245.5,-222 251.5,-216 257.5,-216 257.5,-216 334.25,-216 334.25,-216 340.25,-216 346.25,-222 346.25,-228 346.25,-228 346.25,-240 346.25,-240 346.25,-246 340.25,-252 334.25,-252"/>
<text text-anchor="middle" x="295.88" y="-229.7" font-family="Times,serif" font-size="14.00">order&#45;service</text>
</g>
<!-- SERVICE:api&#45;gateway&#45;&gt;SERVICE:order&#45;service -->
<g id="edge1" class="edge">
<title>SERVICE:api&#45;gateway&#45;&gt;SERVICE:order&#45;service</title>
<g id="a_edge1"><a xlink:title="edge#0">
<path fill="none" stroke="black" d="M95.91,-234C135.17,-234 191.32,-234 233.97,-234"/>
<polygon fill="black" stroke="black" points="233.82,-237.5 243.82,-234 233.82,-230.5 233.82,-237.5"/>
</a>
</g>
<text text-anchor="middle" x="170.5" y="-238.7" font-family="Times,serif" font-size="14.00">calls (1 ep), 30rpm</text>
</g>
<!-- SERVICE:order&#45;service&#45;&gt;DATABASE:users&#45;db -->
<g id="edge7" class="edge">
<title>SERVICE:order&#45;service&#45;&gt;DATABASE:users&#45;db</title>
<g id="a_edge7"><a xlink:title="edge#6">
<path fill="none" stroke="black" d="M320.29,-252.43C332.72,-261.37 348.62,-271.55 364.25,-278 545.08,-352.59 783.94,-353.16 883.71,-349.53"/>
<polygon fill="black" stroke="black" points="883.81,-353.02 893.66,-349.13 883.52,-346.03 883.81,-353.02"/>
</a>
</g>
<text text-anchor="middle" x="590.12" y="-348.7" font-family="Times,serif" font-size="14.00">READS</text>
</g>
<!-- SERVICE:order&#45;service&#45;&gt;SERVICE:notification&#45;service -->
<g id="edge5" class="edge">
<title>SERVICE:order&#45;service&#45;&gt;SERVICE:notification&#45;service</title>
<g id="a_edge5"><a xlink:title="edge#4">
<path fill="none" stroke="black" d="M346.53,-251.82C352.45,-253.46 358.44,-254.91 364.25,-256 535.03,-287.98 739.55,-288.69 850.1,-286.06"/>
<polygon fill="black" stroke="black" points="850.06,-289.56 859.97,-285.8 849.88,-282.56 850.06,-289.56"/>
</a>
</g>
<text text-anchor="middle" x="590.12" y="-289.7" font-family="Times,serif" font-size="14.00">calls (1 ep), 220rpm</text>
</g>
<!-- SERVICE:order&#45;service&#45;&gt;SERVICE:order&#45;service_split -->
<g id="edge4" class="edge">
<title>SERVICE:order&#45;service&#45;&gt;SERVICE:order&#45;service_split</title>
<g id="a_edge4"><a xlink:title="edge#3">
<path fill="none" stroke="black" d="M346.45,-234C391.44,-234 458.52,-234 510.76,-234"/>
<polygon fill="black" stroke="black" points="510.49,-237.5 520.49,-234 510.49,-230.5 510.49,-237.5"/>
</a>
</g>
<text text-anchor="middle" x="425.38" y="-238.7" font-family="Times,serif" font-size="14.00">calls (1 ep), 30rpm</text>
</g>
<!-- SERVICE:order&#45;service&#45;&gt;DATABASE:orders&#45;db_order&#45;service -->
<g id="edge8" class="edge">
<title>SERVICE:order&#45;service&#45;&gt;DATABASE:orders&#45;db_order&#45;service</title>
<g id="a_edge8"><a xlink:title="edge#7">
<path fill="none" stroke="black" d="M305.57,-215.57C316.27,-195.19 336.48,-163.24 364.25,-148 402.92,-126.78 451,-119.96 492.77,-118.98"/>
<polygon fill="black" stroke="black" points="492.61,-122.48 502.57,-118.87 492.53,-115.48 492.61,-122.48"/>
</a>
</g>
<text text-anchor="middle" x="425.38" y="-152.7" font-family="Times,serif" font-size="14.00">WRITES</text>
</g>
<!-- SERVICE:inventory&#45;service -->
<g id="node9" class="node">
<title>SERVICE:inventory&#45;service</title>
<path fill="#eef6ff" stroke="black" d="M641.25,-90C641.25,-90 539,-90 539,-90 533,-90 527,-84 527,-78 527,-78 527,-66 527,-66 527,-60 533,-54 539,-54 539,-54 641.25,-54 641.25,-54 647.25,-54 653.25,-60 653.25,-66 653.25,-66 653.25,-78 653.25,-78 653.25,-84 647.25,-90 641.25,-90"/>
<text text-anchor="middle" x="590.12" y="-67.7" font-family="Times,serif" font-size="14.00">inventory&#45;service</text>
</g>
<!-- SERVICE:order&#45;service&#45;&gt;SERVICE:inventory&#45;service -->
<g id="edge2" class="edge">
<title>SERVICE:order&#45;service&#45;&gt;SERVICE:inventory&#45;service</title>
<g id="a_edge2"><a xlink:title="edge#1">
<path fill="none" stroke="black" d="M300.14,-215.86C306.57,-185.85 323.95,-126.35 364.25,-98 407.76,-67.4 468.11,-61.89 515.34,-63.49"/>
<polygon fill="black" stroke="black" points="515.08,-66.98 525.23,-63.95 515.4,-59.99 515.08,-66.98"/>
</a>
</g>
<text text-anchor="middle" x="425.38" y="-102.7" font-family="Times,serif" font-size="14.00">calls (1 ep), 95rpm</text>
</g>
<!-- SERVICE:user&#45;service -->
<g id="node11" class="node">
<title>SERVICE:user&#45;service</title>
<path fill="#eef6ff" stroke="black" d="M624.75,-414C624.75,-414 555.5,-414 555.5,-414 549.5,-414 543.5,-408 543.5,-402 543.5,-402 543.5,-390 543.5,-390 543.5,-384 549.5,-378 555.5,-378 555.5,-378 624.75,-378 624.75,-378 630.75,-378 636.75,-384 636.75,-390 636.75,-390 636.75,-402 636.75,-402 636.75,-408 630.75,-414 624.75,-414"/>
<text text-anchor="middle" x="590.12" y="-391.7" font-family="Times,serif" font-size="14.00">user&#45;service</text>
</g>
<!-- SERVICE:order&#45;service&#45;&gt;SERVICE:user&#45;service -->
<g id="edge3" class="edge">
<title>SERVICE:order&#45;service&#45;&gt;SERVICE:user&#45;service</title>
<g id="a_edge3"><a xlink:title="edge#2">
<path fill="none" stroke="black" d="M301.53,-252.26C309.49,-279.52 328.44,-330.37 364.25,-356 413.21,-391.04 483.19,-398.58 532.04,-398.92"/>
<polygon fill="black" stroke="black" points="531.86,-402.43 541.85,-398.88 531.83,-395.43 531.86,-402.43"/>
</a>
</g>
<text text-anchor="middle" x="425.38" y="-400.7" font-family="Times,serif" font-size="14.00">calls (1 ep), 260rpm</text>
</g>
<!-- SERVICE:order&#45;service&#45;&gt;SERVICE:search&#45;service -->
<g id="edge6" class="edge">
<title>SERVICE:order&#45;service&#45;&gt;SERVICE:search&#45;service</title>
<g id="a_edge6"><a xlink:title="edge#5">
<path fill="none" stroke="black" d="M346.73,-220.06C388.49,-209.14 449.86,-194.85 504.5,-189 632.03,-175.34 782.24,-183.85 865.93,-190.76"/>
<polygon fill="black" stroke="black" points="865.52,-194.24 875.78,-191.6 866.11,-187.27 865.52,-194.24"/>
</a>
</g>
<text text-anchor="middle" x="590.12" y="-193.7" font-family="Times,serif" font-size="14.00">calls (1 ep), 180rpm</text>
</g>
<!-- SERVICE:inventory&#45;service&#45;&gt;DATABASE:orders&#45;db_inventory&#45;service -->
<g id="edge11" class="edge">
<title>SERVICE:inventory&#45;service&#45;&gt;DATABASE:orders&#45;db_inventory&#45;service</title>
<g id="a_edge11"><a xlink:title="edge#10">
<path fill="none" stroke="black" d="M653.66,-86.21C666.86,-88.98 680.74,-91.73 693.75,-94 735.41,-101.27 781.45,-107.82 821.77,-113.08"/>
<polygon fill="black" stroke="black" points="821.11,-116.52 831.48,-114.33 822.01,-109.58 821.11,-116.52"/>
</a>
</g>
<text text-anchor="middle" x="754.5" y="-116.7" font-family="Times,serif" font-size="14.00">WRITES</text>
</g>
<!-- SERVICE:billing&#45;service -->
<g id="node10" class="node">
<title>SERVICE:billing&#45;service</title>
<path fill="#eef6ff" stroke="black" d="M972.62,-90C972.62,-90 890.62,-90 890.62,-90 884.62,-90 878.62,-84 878.62,-78 878.62,-78 878.62,-66 878.62,-66 878.62,-60 884.62,-54 890.62,-54 890.62,-54 972.62,-54 972.62,-54 978.62,-54 984.62,-60 984.62,-66 984.62,-66 984.62,-78 984.62,-78 984.62,-84 978.62,-90 972.62,-90"/>
<text text-anchor="middle" x="931.62" y="-67.7" font-family="Times,serif" font-size="14.00">billing&#45;service</text>
</g>
<!-- SERVICE:inventory&#45;service&#45;&gt;SERVICE:billing&#45;service -->
<g id="edge9" class="edge">
<title>SERVICE:inventory&#45;service&#45;&gt;SERVICE:billing&#45;service</title>
<g id="a_edge9"><a xlink:title="edge#8">
<path fill="none" stroke="black" d="M653.39,-72C714,-72 805.66,-72 866.79,-72"/>
<polygon fill="black" stroke="black" points="866.7,-75.5 876.7,-72 866.7,-68.5 866.7,-75.5"/>
</a>
</g>
<text text-anchor="middle" x="754.5" y="-76.7" font-family="Times,serif" font-size="14.00">calls (1 ep), 32rpm</text>
</g>
<!-- DATABASE:orders&#45;db -->
<g id="node13" class="node">
<title>DATABASE:orders&#45;db</title>
<path fill="#fff3cd" stroke="black" d="M971.5,-32.73C971.5,-34.53 953.63,-36 931.62,-36 909.62,-36 891.75,-34.53 891.75,-32.73 891.75,-32.73 891.75,-3.27 891.75,-3.27 891.75,-1.47 909.62,0 931.62,0 953.63,0 971.5,-1.47 971.5,-3.27 971.5,-3.27 971.5,-32.73 971.5,-32.73"/>
<path fill="none" stroke="black" d="M971.5,-32.73C971.5,-30.92 953.63,-29.45 931.62,-29.45 909.62,-29.45 891.75,-30.92 891.75,-32.73"/>
<text text-anchor="middle" x="931.62" y="-13.7" font-family="Times,serif" font-size="14.00">orders&#45;db</text>
</g>
<!-- SERVICE:inventory&#45;service&#45;&gt;DATABASE:orders&#45;db -->
<g id="edge10" class="edge">
<title>SERVICE:inventory&#45;service&#45;&gt;DATABASE:orders&#45;db</title>
<g id="a_edge10"><a xlink:title="edge#9">
<path fill="none" stroke="black" d="M653.66,-57.79C666.86,-55.02 680.74,-52.27 693.75,-50 757.76,-38.83 832.09,-29.35 880.17,-23.68"/>
<polygon fill="black" stroke="black" points="880.47,-27.16 890,-22.53 879.66,-20.21 880.47,-27.16"/>
</a>
</g>
<text text-anchor="middle" x="754.5" y="-54.7" font-family="Times,serif" font-size="14.00">READS</text>
</g>
<!-- SERVICE:billing&#45;service&#45;&gt;DATABASE:payments&#45;db -->
<g id="edge12" class="edge">
<title>SERVICE:billing&#45;service&#45;&gt;DATABASE:payments&#45;db</title>
<g id="a_edge12"><a xlink:title="edge#11">
<path fill="none" stroke="black" d="M985,-71.78C1020.44,-71.62 1067.39,-71.42 1104.59,-71.26"/>
<polygon fill="black" stroke="black" points="1104.3,-74.76 1114.29,-71.22 1104.27,-67.76 1104.3,-74.76"/>
</a>
</g>
<text text-anchor="middle" x="1073.12" y="-76.7" font-family="Times,serif" font-size="14.00">READS</text>
</g>
<!-- SERVICE:billing&#45;service&#45;&gt;DATABASE:payments&#45;db -->
<g id="edge13" class="edge">
<title>SERVICE:billing&#45;service&#45;&gt;DATABASE:payments&#45;db</title>
<g id="a_edge13"><a xlink:title="edge#12">
<path fill="none" stroke="black" d="M984.91,-57.48C1017.54,-50.3 1060.39,-44.27 1098.25,-50 1100.87,-50.4 1103.53,-50.88 1106.2,-51.42"/>
<polygon fill="black" stroke="black" points="1105.18,-54.78 1115.72,-53.63 1106.77,-47.96 1105.18,-54.78"/>
</a>
</g>
<text text-anchor="middle" x="1073.12" y="-54.7" font-family="Times,serif" font-size="14.00">WRITES</text>
</g>
<!-- SERVICE:user&#45;service&#45;&gt;DATABASE:users&#45;db -->
<g id="edge14" class="edge">
<title>SERVICE:user&#45;service&#45;&gt;DATABASE:users&#45;db</title>
<g id="a_edge14"><a xlink:title="edge#13">
<path fill="none" stroke="black" d="M636.91,-389.39C701.62,-380.05 819.18,-363.08 884.23,-353.7"/>
<polygon fill="black" stroke="black" points="884.45,-357.2 893.85,-352.31 883.45,-350.27 884.45,-357.2"/>
</a>
</g>
<text text-anchor="middle" x="754.5" y="-384.7" font-family="Times,serif" font-size="14.00">READS</text>
</g>
</g>
</svg>
