<?xml version="1.0" encoding="UTF-8" standalone="no"?>
<!DOCTYPE svg PUBLIC "-//W3C//DTD SVG 1.1//EN"
 "http://www.w3.org/Graphics/SVG/1.1/DTD/svg11.dtd">
<!-- Generated by graphviz version 9.0.0 (20230911.1827)
 -->
<!-- Title: G Pages: 1 -->
<svg width="566pt" height="108pt"
 viewBox="0.00 0.00 565.75 108.00" xmlns="http://www.w3.org/2000/svg" xmlns:xlink="http://www.w3.org/1999/xlink">
<g id="graph0" class="graph" transform="scale(1 1) rotate(0) translate(4 104)">
<title>G</title>
<polygon fill="white" stroke="none" points="-4,4 -4,-104 561.75,-104 561.75,4 -4,4"/>
<text text-anchor="middle" x="278.88" y="-82.7" font-family="Helvetica,sans-Serif" font-size="14.00">Architecture</text>
<!-- SERVICE:service&#45;b -->
<g id="node1" class="node">
<title>SERVICE:service&#45;b</title>
<path fill="#eef6ff" stroke="black" d="M62.5,-36C62.5,-36 12,-36 12,-36 6,-36 0,-30 0,-24 0,-24 0,-12 0,-12 0,-6 6,0 12,0 12,0 62.5,0 62.5,0 68.5,0 74.5,-6 74.5,-12 74.5,-12 74.5,-24 74.5,-24 74.5,-30 68.5,-36 62.5,-36"/>
<text text-anchor="middle" x="37.25" y="-13.7" font-family="Times,serif" font-size="14.00">service&#45;b</text>
</g>
<!-- SERVICE:service&#45;c -->
<g id="node2" class="node">
<title>SERVICE:service&#45;c</title>
<path fill="#eef6ff" stroke="black" d="M303.75,-74C303.75,-74 254.75,-74 254.75,-74 248.75,-74 242.75,-68 242.75,-62 242.75,-62 242.75,-50 242.75,-50 242.75,-44 248.75,-38 254.75,-38 254.75,-38 303.75,-38 303.75,-38 309.75,-38 315.75,-44 315.75,-50 315.75,-50 315.75,-62 315.75,-62 315.75,-68 309.75,-74 303.75,-74"/>
<text text-anchor="middle" x="279.25" y="-51.7" font-family="Times,serif" font-size="14.00">service&#45;c</text>
</g>
<!-- SERVICE:service&#45;b&#45;&gt;SERVICE:service&#45;c -->
<g id="edge2" class="edge">
<title>SERVICE:service&#45;b&#45;&gt;SERVICE:service&#45;c</title>
<g id="a_edge2"><a xlink:title="edge#1">
<path fill="none" stroke="black" d="M74.96,-23.81C116.85,-30.44 185.44,-41.31 231.21,-48.55"/>
<polygon fill="black" stroke="black" points="230.41,-51.97 240.83,-50.08 231.5,-45.05 230.41,-51.97"/>
</a>
</g>
<text text-anchor="middle" x="148.75" y="-47.7" font-family="Times,serif" font-size="14.00">calls (1 ep), 10rpm</text>
</g>
<!-- SERVICE:service&#45;a -->
<g id="node3" class="node">
<title>SERVICE:service&#45;a</title>
<path fill="#eef6ff" stroke="black" d="M545.75,-36C545.75,-36 496,-36 496,-36 490,-36 484,-30 484,-24 484,-24 484,-12 484,-12 484,-6 490,0 496,0 496,0 545.75,0 545.75,0 551.75,0 557.75,-6 557.75,-12 557.75,-12 557.75,-24 557.75,-24 557.75,-30 551.75,-36 545.75,-36"/>
<text text-anchor="middle" x="520.88" y="-13.7" font-family="Times,serif" font-size="14.00">service&#45;a</text>
</g>
<!-- SERVICE:service&#45;c&#45;&gt;SERVICE:service&#45;a -->
<g id="edge3" class="edge">
<title>SERVICE:service&#45;c&#45;&gt;SERVICE:service&#45;a</title>
<g id="a_edge3"><a xlink:title="edge#2">
<path fill="none" stroke="black" d="M316.12,-50.31C357.77,-43.71 426.6,-32.79 472.59,-25.5"/>
<polygon fill="black" stroke="black" points="472.93,-28.99 482.26,-23.96 471.84,-22.07 472.93,-28.99"/>
</a>
</g>
<text text-anchor="middle" x="409.75" y="-47.7" font-family="Times,serif" font-size="14.00">calls (1 ep), 10rpm</text>
</g>
<!-- SERVICE:service&#45;a&#45;&gt;SERVICE:service&#45;b -->
<g id="edge1" class="edge">
<title>SERVICE:service&#45;a&#45;&gt;SERVICE:service&#45;b</title>
<g id="a_edge1"><a xlink:title="edge#0">
<path fill="none" stroke="black" d="M483.5,-16.21C446.32,-14.48 386.9,-11.98 335.5,-11 285.51,-10.05 272.99,-10.05 223,-11 176.32,-11.88 123.04,-14.02 85.74,-15.71"/>
<polygon fill="black" stroke="black" points="86.04,-12.19 76.21,-16.14 86.36,-19.18 86.04,-12.19"/>
</a>
</g>
<text text-anchor="middle" x="279.25" y="-15.7" font-family="Times,serif" font-size="14.00">calls (1 ep), 10rpm</text>
</g>
</g>
</svg>
