<?xml version="1.0" encoding="UTF-8" standalone="no"?>
<!DOCTYPE svg PUBLIC "-//W3C//DTD SVG 1.1//EN"
 "http://www.w3.org/Graphics/SVG/1.1/DTD/svg11.dtd">
<!-- Generated by graphviz version 9.0.0 (20230911.1827)
 -->
<!-- Title: G Pages: 1 -->
<svg width="1517pt" height="203pt"
 viewBox="0.00 0.00 1516.50 203.00" xmlns="http://www.w3.org/2000/svg" xmlns:xlink="http://www.w3.org/1999/xlink">
<g id="graph0" class="graph" transform="scale(1 1) rotate(0) translate(4 199)">
<title>G</title>
<polygon fill="white" stroke="none" points="-4,4 -4,-199 1512.5,-199 1512.5,4 -4,4"/>
<text text-anchor="middle" x="754.25" y="-177.7" font-family="Helvetica,sans-Serif" font-size="14.00">Architecture</text>
<!-- SERVICE:user -->
<g id="node1" class="node">
<title>SERVICE:user</title>
<path fill="#eef6ff" stroke="black" d="M53.75,-44C53.75,-44 23.75,-44 23.75,-44 17.75,-44 11.75,-38 11.75,-32 11.75,-32 11.75,-20 11.75,-20 11.75,-14 17.75,-8 23.75,-8 23.75,-8 53.75,-8 53.75,-8 59.75,-8 65.75,-14 65.75,-20 65.75,-20 65.75,-32 65.75,-32 65.75,-38 59.75,-44 53.75,-44"/>
<text text-anchor="middle" x="38.75" y="-21.7" font-family="Times,serif" font-size="14.00">user</text>
</g>
<!-- SERVICE:web page -->
<g id="node2" class="node">
<title>SERVICE:web page</title>
<path fill="#eef6ff" stroke="black" d="M65.5,-98C65.5,-98 12,-98 12,-98 6,-98 0,-92 0,-86 0,-86 0,-74 0,-74 0,-68 6,-62 12,-62 12,-62 65.5,-62 65.5,-62 71.5,-62 77.5,-68 77.5,-74 77.5,-74 77.5,-86 77.5,-86 77.5,-92 71.5,-98 65.5,-98"/>
<text text-anchor="middle" x="38.75" y="-75.7" font-family="Times,serif" font-size="14.00">web page</text>
</g>
<!-- SERVICE:bff&#45;1 -->
<g id="node9" class="node">
<title>SERVICE:bff&#45;1</title>
<path fill="#eef6ff" stroke="black" d="M273.25,-98C273.25,-98 243.25,-98 243.25,-98 237.25,-98 231.25,-92 231.25,-86 231.25,-86 231.25,-74 231.25,-74 231.25,-68 237.25,-62 243.25,-62 243.25,-62 273.25,-62 273.25,-62 279.25,-62 285.25,-68 285.25,-74 285.25,-74 285.25,-86 285.25,-86 285.25,-92 279.25,-98 273.25,-98"/>
<text text-anchor="middle" x="258.25" y="-75.7" font-family="Times,serif" font-size="14.00">bff&#45;1</text>
</g>
<!-- SERVICE:web page&#45;&gt;SERVICE:bff&#45;1 -->
<g id="edge9" class="edge">
<title>SERVICE:web page&#45;&gt;SERVICE:bff&#45;1</title>
<g id="a_edge9"><a xlink:title="edge#8">
<path fill="none" stroke="black" d="M77.88,-80C117.72,-80 179.82,-80 219.51,-80"/>
<polygon fill="black" stroke="black" points="219.29,-83.5 229.29,-80 219.29,-76.5 219.29,-83.5"/>
</a>
</g>
<text text-anchor="middle" x="154.38" y="-84.7" font-family="Times,serif" font-size="14.00">CALLS [rest] (sync)</text>
</g>
<!-- SERVICE:orders -->
<g id="node3" class="node">
<title>SERVICE:orders</title>
<path fill="#eef6ff" stroke="black" d="M969.38,-140C969.38,-140 936.12,-140 936.12,-140 930.12,-140 924.12,-134 924.12,-128 924.12,-128 924.12,-116 924.12,-116 924.12,-110 930.12,-104 936.12,-104 936.12,-104 969.38,-104 969.38,-104 975.38,-104 981.38,-110 981.38,-116 981.38,-116 981.38,-128 981.38,-128 981.38,-134 975.38,-140 969.38,-140"/>
<text text-anchor="middle" x="952.75" y="-117.7" font-family="Times,serif" font-size="14.00">orders</text>
</g>
<!-- SERVICE:payments -->
<g id="node5" class="node">
<title>SERVICE:payments</title>
<path fill="#eef6ff" stroke="black" d="M1248.88,-88C1248.88,-88 1193.88,-88 1193.88,-88 1187.88,-88 1181.88,-82 1181.88,-76 1181.88,-76 1181.88,-64 1181.88,-64 1181.88,-58 1187.88,-52 1193.88,-52 1193.88,-52 1248.88,-52 1248.88,-52 1254.88,-52 1260.88,-58 1260.88,-64 1260.88,-64 1260.88,-76 1260.88,-76 1260.88,-82 1254.88,-88 1248.88,-88"/>
<text text-anchor="middle" x="1221.38" y="-65.7" font-family="Times,serif" font-size="14.00">payments</text>
</g>
<!-- SERVICE:orders&#45;&gt;SERVICE:payments -->
<g id="edge6" class="edge">
<title>SERVICE:orders&#45;&gt;SERVICE:payments</title>
<g id="a_edge6"><a xlink:title="edge#5">
<path fill="none" stroke="black" d="M981.85,-111.49C995.28,-106.8 1011.68,-101.54 1026.75,-98 1074.8,-86.72 1130.69,-79.22 1170.03,-74.85"/>
<polygon fill="black" stroke="black" points="1170.36,-78.33 1179.93,-73.78 1169.61,-71.38 1170.36,-78.33"/>
</a>
</g>
<text text-anchor="middle" x="1085.62" y="-102.7" font-family="Times,serif" font-size="14.00">CALLS [rest] (sync)</text>
</g>
<!-- DATABASE:database -->
<g id="node6" class="node">
<title>DATABASE:database</title>
<path fill="#fff3cd" stroke="black" d="M1508.5,-144.73C1508.5,-146.53 1491.8,-148 1471.25,-148 1450.7,-148 1434,-146.53 1434,-144.73 1434,-144.73 1434,-115.27 1434,-115.27 1434,-113.47 1450.7,-112 1471.25,-112 1491.8,-112 1508.5,-113.47 1508.5,-115.27 1508.5,-115.27 1508.5,-144.73 1508.5,-144.73"/>
<path fill="none" stroke="black" d="M1508.5,-144.73C1508.5,-142.92 1491.8,-141.45 1471.25,-141.45 1450.7,-141.45 1434,-142.92 1434,-144.73"/>
<text text-anchor="middle" x="1471.25" y="-125.7" font-family="Times,serif" font-size="14.00">database</text>
</g>
<!-- SERVICE:orders&#45;&gt;DATABASE:database -->
<g id="edge2" class="edge">
<title>SERVICE:orders&#45;&gt;DATABASE:database</title>
<g id="a_edge2"><a xlink:title="edge#1">
<path fill="none" stroke="black" d="M981.52,-122.43C1065.33,-123.73 1316.49,-127.62 1422.36,-129.26"/>
<polygon fill="black" stroke="black" points="1422.07,-132.75 1432.12,-129.41 1422.18,-125.75 1422.07,-132.75"/>
</a>
</g>
<text text-anchor="middle" x="1221.38" y="-131.7" font-family="Times,serif" font-size="14.00">CALLS [rest] (sync)</text>
</g>
<!-- SERVICE:restaurants -->
<g id="node4" class="node">
<title>SERVICE:restaurants</title>
<path fill="#eef6ff" stroke="black" d="M731,-140C731,-140 666.25,-140 666.25,-140 660.25,-140 654.25,-134 654.25,-128 654.25,-128 654.25,-116 654.25,-116 654.25,-110 660.25,-104 666.25,-104 666.25,-104 731,-104 731,-104 737,-104 743,-110 743,-116 743,-116 743,-128 743,-128 743,-134 737,-140 731,-140"/>
<text text-anchor="middle" x="698.62" y="-117.7" font-family="Times,serif" font-size="14.00">restaurants</text>
</g>
<!-- SERVICE:restaurants&#45;&gt;SERVICE:orders -->
<g id="edge5" class="edge">
<title>SERVICE:restaurants&#45;&gt;SERVICE:orders</title>
<g id="a_edge5"><a xlink:title="edge#4">
<path fill="none" stroke="black" d="M743.25,-122C790.97,-122 866.73,-122 912.6,-122"/>
<polygon fill="black" stroke="black" points="912.34,-125.5 922.34,-122 912.34,-118.5 912.34,-125.5"/>
</a>
</g>
<text text-anchor="middle" x="819.88" y="-126.7" font-family="Times,serif" font-size="14.00">CALLS [rest] (sync)</text>
</g>
<!-- SERVICE:restaurants&#45;&gt;DATABASE:database -->
<g id="edge3" class="edge">
<title>SERVICE:restaurants&#45;&gt;DATABASE:database</title>
<g id="a_edge3"><a xlink:title="edge#2">
<path fill="none" stroke="black" d="M743.42,-139.52C749.26,-141.32 755.22,-142.89 761,-144 820.28,-155.43 836.39,-147.89 896.75,-149 1067.17,-152.14 1109.86,-153.39 1280.25,-149 1340.64,-147.44 1356.13,-150.11 1416,-142 1418.15,-141.71 1420.34,-141.38 1422.55,-141.01"/>
<polygon fill="black" stroke="black" points="1422.94,-144.5 1432.14,-139.24 1421.67,-137.61 1422.94,-144.5"/>
</a>
</g>
<text text-anchor="middle" x="1085.62" y="-155.7" font-family="Times,serif" font-size="14.00">CALLS [rest] (sync)</text>
</g>
<!-- SERVICE:payments&#45;&gt;DATABASE:database -->
<g id="edge4" class="edge">
<title>SERVICE:payments&#45;&gt;DATABASE:database</title>
<g id="a_edge4"><a xlink:title="edge#3">
<path fill="none" stroke="black" d="M1261.27,-71.21C1301.13,-73.46 1364.42,-79.85 1416,-98 1422.34,-100.23 1428.77,-103.24 1434.87,-106.52"/>
<polygon fill="black" stroke="black" points="1433.04,-109.5 1443.46,-111.45 1436.53,-103.43 1433.04,-109.5"/>
</a>
</g>
<text text-anchor="middle" x="1357.12" y="-102.7" font-family="Times,serif" font-size="14.00">CALLS [rest] (sync)</text>
</g>
<!-- SERVICE:web page_split -->
<g id="node7" class="node">
<title>SERVICE:web page_split</title>
<path fill="#eef6ff" stroke="black" d="M996.75,-36C996.75,-36 908.75,-36 908.75,-36 902.75,-36 896.75,-30 896.75,-24 896.75,-24 896.75,-12 896.75,-12 896.75,-6 902.75,0 908.75,0 908.75,0 996.75,0 996.75,0 1002.75,0 1008.75,-6 1008.75,-12 1008.75,-12 1008.75,-24 1008.75,-24 1008.75,-30 1002.75,-36 996.75,-36"/>
<text text-anchor="middle" x="952.75" y="-13.7" font-family="Times,serif" font-size="14.00">web page_split</text>
</g>
<!-- SERVICE:web page_split&#45;&gt;SERVICE:payments -->
<g id="edge1" class="edge">
<title>SERVICE:web page_split&#45;&gt;SERVICE:payments</title>
<g id="a_edge1"><a xlink:title="edge#0">
<path fill="none" stroke="black" d="M1008.98,-16.42C1047.59,-16.67 1100,-19.74 1144.5,-32 1156.68,-35.35 1169.21,-40.73 1180.5,-46.39"/>
<polygon fill="black" stroke="black" points="1178.64,-49.36 1189.12,-50.91 1181.89,-43.17 1178.64,-49.36"/>
</a>
</g>
<text text-anchor="middle" x="1085.62" y="-36.7" font-family="Times,serif" font-size="14.00">CALLS [rest] (sync)</text>
</g>
<!-- SERVICE:bff -->
<g id="node8" class="node">
<title>SERVICE:bff</title>
<path fill="#eef6ff" stroke="black" d="M481,-98C481,-98 451,-98 451,-98 445,-98 439,-92 439,-86 439,-86 439,-74 439,-74 439,-68 445,-62 451,-62 451,-62 481,-62 481,-62 487,-62 493,-68 493,-74 493,-74 493,-86 493,-86 493,-92 487,-98 481,-98"/>
<text text-anchor="middle" x="466" y="-75.7" font-family="Times,serif" font-size="14.00">bff</text>
</g>
<!-- SERVICE:bff&#45;&gt;SERVICE:restaurants -->
<g id="edge7" class="edge">
<title>SERVICE:bff&#45;&gt;SERVICE:restaurants</title>
<g id="a_edge7"><a xlink:title="edge#6">
<path fill="none" stroke="black" d="M493.46,-84.82C529.64,-91.41 595.43,-103.39 642.55,-111.97"/>
<polygon fill="black" stroke="black" points="641.85,-115.4 652.31,-113.75 643.1,-108.51 641.85,-115.4"/>
</a>
</g>
<text text-anchor="middle" x="573.62" y="-114.7" font-family="Times,serif" font-size="14.00">CALLS [rest] (async)</text>
</g>
<!-- SERVICE:bff&#45;&gt;SERVICE:payments -->
<g id="edge8" class="edge">
<title>SERVICE:bff&#45;&gt;SERVICE:payments</title>
<g id="a_edge8"><a xlink:title="edge#7">
<path fill="none" stroke="black" d="M493.37,-79.65C603.04,-78.19 1024.08,-72.61 1170.13,-70.67"/>
<polygon fill="black" stroke="black" points="1169.92,-74.17 1179.87,-70.54 1169.82,-67.17 1169.92,-74.17"/>
</a>
</g>
<text text-anchor="middle" x="819.88" y="-80.7" font-family="Times,serif" font-size="14.00">CALLS [rest] (sync)</text>
</g>
<!-- SERVICE:bff&#45;1&#45;&gt;SERVICE:bff -->
<g id="edge10" class="edge">
<title>SERVICE:bff&#45;1&#45;&gt;SERVICE:bff</title>
<g id="a_edge10"><a xlink:title="edge#9">
<path fill="none" stroke="black" d="M285.73,-80C321.68,-80 386.17,-80 427.21,-80"/>
<polygon fill="black" stroke="black" points="427.11,-83.5 437.11,-80 427.11,-76.5 427.11,-83.5"/>
</a>
</g>
<text text-anchor="middle" x="362.12" y="-84.7" font-family="Times,serif" font-size="14.00">CALLS [rest] (sync)</text>
</g>
</g>
</svg>
