<?xml version="1.0" encoding="UTF-8" standalone="no"?>
<!DOCTYPE svg PUBLIC "-//W3C//DTD SVG 1.1//EN"
 "http://www.w3.org/Graphics/SVG/1.1/DTD/svg11.dtd">
<!-- Generated by graphviz version 9.0.0 (20230911.1827)
 -->
<!-- Title: G Pages: 1 -->
<svg width="619pt" height="533pt"
 viewBox="0.00 0.00 619.25 533.00" xmlns="http://www.w3.org/2000/svg" xmlns:xlink="http://www.w3.org/1999/xlink">
<g id="graph0" class="graph" transform="scale(1 1) rotate(0) translate(4 529)">
<title>G</title>
<polygon fill="white" stroke="none" points="-4,4 -4,-529 615.25,-529 615.25,4 -4,4"/>
<text text-anchor="middle" x="305.62" y="-507.7" font-family="Helvetica,sans-Serif" font-size="14.00">Architecture</text>
<!-- SERVICE:order&#45;status -->
<g id="node1" class="node">
<title>SERVICE:order&#45;status</title>
<path fill="#eef6ff" stroke="black" d="M359,-252C359,-252 287.5,-252 287.5,-252 281.5,-252 275.5,-246 275.5,-240 275.5,-240 275.5,-228 275.5,-228 275.5,-222 281.5,-216 287.5,-216 287.5,-216 359,-216 359,-216 365,-216 371,-222 371,-228 371,-228 371,-240 371,-240 371,-246 365,-252 359,-252"/>
<text text-anchor="middle" x="323.25" y="-229.7" font-family="Times,serif" font-size="14.00">order&#45;status</text>
</g>
<!-- SERVICE:invoice -->
<g id="node2" class="node">
<title>SERVICE:invoice</title>
<path fill="#eef6ff" stroke="black" d="M70,-401C70,-401 33,-401 33,-401 27,-401 21,-395 21,-389 21,-389 21,-377 21,-377 21,-371 27,-365 33,-365 33,-365 70,-365 70,-365 76,-365 82,-371 82,-377 82,-377 82,-389 82,-389 82,-395 76,-401 70,-401"/>
<text text-anchor="middle" x="51.5" y="-378.7" font-family="Times,serif" font-size="14.00">invoice</text>
</g>
<!-- DATABASE:accounting&#45;db -->
<g id="node12" class="node">
<title>DATABASE:accounting&#45;db</title>
<path fill="#fff3cd" stroke="black" d="M377.75,-343.73C377.75,-345.53 353.32,-347 323.25,-347 293.18,-347 268.75,-345.53 268.75,-343.73 268.75,-343.73 268.75,-314.27 268.75,-314.27 268.75,-312.47 293.18,-311 323.25,-311 353.32,-311 377.75,-312.47 377.75,-314.27 377.75,-314.27 377.75,-343.73 377.75,-343.73"/>
<path fill="none" stroke="black" d="M377.75,-343.73C377.75,-341.92 353.32,-340.45 323.25,-340.45 293.18,-340.45 268.75,-341.92 268.75,-343.73"/>
<text text-anchor="middle" x="323.25" y="-324.7" font-family="Times,serif" font-size="14.00">accounting&#45;db</text>
</g>
<!-- SERVICE:invoice&#45;&gt;DATABASE:accounting&#45;db -->
<g id="edge9" class="edge">
<title>SERVICE:invoice&#45;&gt;DATABASE:accounting&#45;db</title>
<g id="a_edge9"><a xlink:title="edge#8">
<path fill="none" stroke="black" d="M82.33,-378.7C119.24,-373.19 183.93,-362.91 238.75,-351 244.94,-349.65 251.37,-348.15 257.78,-346.58"/>
<polygon fill="black" stroke="black" points="258.2,-350.09 267.05,-344.26 256.5,-343.3 258.2,-350.09"/>
</a>
</g>
<text text-anchor="middle" x="179.88" y="-377.7" font-family="Times,serif" font-size="14.00">CALLS [rest] (sync)</text>
</g>
<!-- SERVICE:ledger -->
<g id="node3" class="node">
<title>SERVICE:ledger</title>
<path fill="#eef6ff" stroke="black" d="M67.75,-347C67.75,-347 35.25,-347 35.25,-347 29.25,-347 23.25,-341 23.25,-335 23.25,-335 23.25,-323 23.25,-323 23.25,-317 29.25,-311 35.25,-311 35.25,-311 67.75,-311 67.75,-311 73.75,-311 79.75,-317 79.75,-323 79.75,-323 79.75,-335 79.75,-335 79.75,-341 73.75,-347 67.75,-347"/>
<text text-anchor="middle" x="51.5" y="-324.7" font-family="Times,serif" font-size="14.00">ledger</text>
</g>
<!-- SERVICE:ledger&#45;&gt;DATABASE:accounting&#45;db -->
<g id="edge10" class="edge">
<title>SERVICE:ledger&#45;&gt;DATABASE:accounting&#45;db</title>
<g id="a_edge10"><a xlink:title="edge#9">
<path fill="none" stroke="black" d="M80.1,-329C121.43,-329 200.58,-329 257.14,-329"/>
<polygon fill="black" stroke="black" points="256.98,-332.5 266.98,-329 256.98,-325.5 256.98,-332.5"/>
</a>
</g>
<text text-anchor="middle" x="179.88" y="-333.7" font-family="Times,serif" font-size="14.00">CALLS [rest] (sync)</text>
</g>
<!-- SERVICE:reconciliation -->
<g id="node4" class="node">
<title>SERVICE:reconciliation</title>
<path fill="#eef6ff" stroke="black" d="M91,-293C91,-293 12,-293 12,-293 6,-293 0,-287 0,-281 0,-281 0,-269 0,-269 0,-263 6,-257 12,-257 12,-257 91,-257 91,-257 97,-257 103,-263 103,-269 103,-269 103,-281 103,-281 103,-287 97,-293 91,-293"/>
<text text-anchor="middle" x="51.5" y="-270.7" font-family="Times,serif" font-size="14.00">reconciliation</text>
</g>
<!-- SERVICE:reconciliation&#45;&gt;DATABASE:accounting&#45;db -->
<g id="edge11" class="edge">
<title>SERVICE:reconciliation&#45;&gt;DATABASE:accounting&#45;db</title>
<g id="a_edge11"><a xlink:title="edge#10">
<path fill="none" stroke="black" d="M103.32,-282.5C140.9,-288.35 193.22,-297.11 238.75,-307 244.94,-308.35 251.37,-309.85 257.78,-311.42"/>
<polygon fill="black" stroke="black" points="256.5,-314.7 267.05,-313.74 258.2,-307.91 256.5,-314.7"/>
</a>
</g>
<text text-anchor="middle" x="179.88" y="-311.7" font-family="Times,serif" font-size="14.00">CALLS [rest] (sync)</text>
</g>
<!-- SERVICE:search -->
<g id="node5" class="node">
<title>SERVICE:search</title>
<path fill="#eef6ff" stroke="black" d="M340.25,-198C340.25,-198 306.25,-198 306.25,-198 300.25,-198 294.25,-192 294.25,-186 294.25,-186 294.25,-174 294.25,-174 294.25,-168 300.25,-162 306.25,-162 306.25,-162 340.25,-162 340.25,-162 346.25,-162 352.25,-168 352.25,-174 352.25,-174 352.25,-186 352.25,-186 352.25,-192 346.25,-198 340.25,-198"/>
<text text-anchor="middle" x="323.25" y="-175.7" font-family="Times,serif" font-size="14.00">search</text>
</g>
<!-- SERVICE:wishlist -->
<g id="node6" class="node">
<title>SERVICE:wishlist</title>
<path fill="#eef6ff" stroke="black" d="M344,-144C344,-144 302.5,-144 302.5,-144 296.5,-144 290.5,-138 290.5,-132 290.5,-132 290.5,-120 290.5,-120 290.5,-114 296.5,-108 302.5,-108 302.5,-108 344,-108 344,-108 350,-108 356,-114 356,-120 356,-120 356,-132 356,-132 356,-138 350,-144 344,-144"/>
<text text-anchor="middle" x="323.25" y="-121.7" font-family="Times,serif" font-size="14.00">wishlist</text>
</g>
<!-- SERVICE:offers -->
<g id="node7" class="node">
<title>SERVICE:offers</title>
<path fill="#eef6ff" stroke="black" d="M338.25,-90C338.25,-90 308.25,-90 308.25,-90 302.25,-90 296.25,-84 296.25,-78 296.25,-78 296.25,-66 296.25,-66 296.25,-60 302.25,-54 308.25,-54 308.25,-54 338.25,-54 338.25,-54 344.25,-54 350.25,-60 350.25,-66 350.25,-66 350.25,-78 350.25,-78 350.25,-84 344.25,-90 338.25,-90"/>
<text text-anchor="middle" x="323.25" y="-67.7" font-family="Times,serif" font-size="14.00">offers</text>
</g>
<!-- SERVICE:recommendations -->
<g id="node8" class="node">
<title>SERVICE:recommendations</title>
<path fill="#eef6ff" stroke="black" d="M377.75,-36C377.75,-36 268.75,-36 268.75,-36 262.75,-36 256.75,-30 256.75,-24 256.75,-24 256.75,-12 256.75,-12 256.75,-6 262.75,0 268.75,0 268.75,0 377.75,0 377.75,0 383.75,0 389.75,-6 389.75,-12 389.75,-12 389.75,-24 389.75,-24 389.75,-30 383.75,-36 377.75,-36"/>
<text text-anchor="middle" x="323.25" y="-13.7" font-family="Times,serif" font-size="14.00">recommendations</text>
</g>
<!-- SERVICE:fulfillment -->
<g id="node9" class="node">
<title>SERVICE:fulfillment</title>
<path fill="#eef6ff" stroke="black" d="M80.12,-455C80.12,-455 22.88,-455 22.88,-455 16.88,-455 10.88,-449 10.88,-443 10.88,-443 10.88,-431 10.88,-431 10.88,-425 16.88,-419 22.88,-419 22.88,-419 80.12,-419 80.12,-419 86.12,-419 92.12,-425 92.12,-431 92.12,-431 92.12,-443 92.12,-443 92.12,-449 86.12,-455 80.12,-455"/>
<text text-anchor="middle" x="51.5" y="-432.7" font-family="Times,serif" font-size="14.00">fulfillment</text>
</g>
<!-- SERVICE:dispatch -->
<g id="node10" class="node">
<title>SERVICE:dispatch</title>
<path fill="#eef6ff" stroke="black" d="M346.62,-499C346.62,-499 299.88,-499 299.88,-499 293.88,-499 287.88,-493 287.88,-487 287.88,-487 287.88,-475 287.88,-475 287.88,-469 293.88,-463 299.88,-463 299.88,-463 346.62,-463 346.62,-463 352.62,-463 358.62,-469 358.62,-475 358.62,-475 358.62,-487 358.62,-487 358.62,-493 352.62,-499 346.62,-499"/>
<text text-anchor="middle" x="323.25" y="-476.7" font-family="Times,serif" font-size="14.00">dispatch</text>
</g>
<!-- SERVICE:fulfillment&#45;&gt;SERVICE:dispatch -->
<g id="edge6" class="edge">
<title>SERVICE:fulfillment&#45;&gt;SERVICE:dispatch</title>
<g id="a_edge6"><a xlink:title="edge#5">
<path fill="none" stroke="black" d="M92.59,-443.54C141.71,-451.55 224.75,-465.1 276.37,-473.52"/>
<polygon fill="black" stroke="black" points="275.59,-476.94 286.02,-475.09 276.72,-470.03 275.59,-476.94"/>
</a>
</g>
<text text-anchor="middle" x="179.88" y="-470.7" font-family="Times,serif" font-size="14.00">CALLS [rest] (sync)</text>
</g>
<!-- SERVICE:tracking -->
<g id="node11" class="node">
<title>SERVICE:tracking</title>
<path fill="#eef6ff" stroke="black" d="M599.25,-461C599.25,-461 555.5,-461 555.5,-461 549.5,-461 543.5,-455 543.5,-449 543.5,-449 543.5,-437 543.5,-437 543.5,-431 549.5,-425 555.5,-425 555.5,-425 599.25,-425 599.25,-425 605.25,-425 611.25,-431 611.25,-437 611.25,-437 611.25,-449 611.25,-449 611.25,-455 605.25,-461 599.25,-461"/>
<text text-anchor="middle" x="577.38" y="-438.7" font-family="Times,serif" font-size="14.00">tracking</text>
</g>
<!-- SERVICE:dispatch&#45;&gt;SERVICE:tracking -->
<g id="edge7" class="edge">
<title>SERVICE:dispatch&#45;&gt;SERVICE:tracking</title>
<g id="a_edge7"><a xlink:title="edge#6">
<path fill="none" stroke="black" d="M359.04,-475.76C404.06,-468.97 482.56,-457.14 531.88,-449.71"/>
<polygon fill="black" stroke="black" points="532.28,-453.19 541.65,-448.23 531.24,-446.26 532.28,-453.19"/>
</a>
</g>
<text text-anchor="middle" x="466.62" y="-471.7" font-family="Times,serif" font-size="14.00">CALLS [rest] (sync)</text>
</g>
<!-- SERVICE:tracking&#45;&gt;SERVICE:fulfillment -->
<g id="edge8" class="edge">
<title>SERVICE:tracking&#45;&gt;SERVICE:fulfillment</title>
<g id="a_edge8"><a xlink:title="edge#7">
<path fill="none" stroke="black" d="M543.01,-441.37C505.68,-439.64 443.4,-437.01 389.75,-436 288.41,-434.1 169.92,-435.23 103.81,-436.16"/>
<polygon fill="black" stroke="black" points="103.94,-432.65 93.99,-436.3 104.04,-439.65 103.94,-432.65"/>
</a>
</g>
<text text-anchor="middle" x="323.25" y="-440.7" font-family="Times,serif" font-size="14.00">CALLS [rest] (sync)</text>
</g>
<!-- SERVICE:mobile&#45;ui -->
<g id="node13" class="node">
<title>SERVICE:mobile&#45;ui</title>
<path fill="#eef6ff" stroke="black" d="M78.25,-144C78.25,-144 24.75,-144 24.75,-144 18.75,-144 12.75,-138 12.75,-132 12.75,-132 12.75,-120 12.75,-120 12.75,-114 18.75,-108 24.75,-108 24.75,-108 78.25,-108 78.25,-108 84.25,-108 90.25,-114 90.25,-120 90.25,-120 90.25,-132 90.25,-132 90.25,-138 84.25,-144 78.25,-144"/>
<text text-anchor="middle" x="51.5" y="-121.7" font-family="Times,serif" font-size="14.00">mobile&#45;ui</text>
</g>
<!-- SERVICE:mobile&#45;ui&#45;&gt;SERVICE:order&#45;status -->
<g id="edge4" class="edge">
<title>SERVICE:mobile&#45;ui&#45;&gt;SERVICE:order&#45;status</title>
<g id="a_edge4"><a xlink:title="edge#3">
<path fill="none" stroke="black" d="M66.49,-144.32C79.08,-159.48 98.95,-180.35 121,-192 165.42,-215.48 221.84,-225.84 263.63,-230.4"/>
<polygon fill="black" stroke="black" points="263.2,-233.88 273.5,-231.39 263.9,-226.91 263.2,-233.88"/>
</a>
</g>
<text text-anchor="middle" x="179.88" y="-231.7" font-family="Times,serif" font-size="14.00">CALLS [rest] (sync)</text>
</g>
<!-- SERVICE:mobile&#45;ui&#45;&gt;SERVICE:search -->
<g id="edge1" class="edge">
<title>SERVICE:mobile&#45;ui&#45;&gt;SERVICE:search</title>
<g id="a_edge1"><a xlink:title="edge#0">
<path fill="none" stroke="black" d="M90.61,-139.38C100.43,-142.51 111.04,-145.62 121,-148 176.44,-161.23 241.8,-170.48 282.64,-175.52"/>
<polygon fill="black" stroke="black" points="282.13,-178.99 292.48,-176.71 282.97,-172.04 282.13,-178.99"/>
</a>
</g>
<text text-anchor="middle" x="179.88" y="-174.7" font-family="Times,serif" font-size="14.00">CALLS [rest] (sync)</text>
</g>
<!-- SERVICE:mobile&#45;ui&#45;&gt;SERVICE:wishlist -->
<g id="edge2" class="edge">
<title>SERVICE:mobile&#45;ui&#45;&gt;SERVICE:wishlist</title>
<g id="a_edge2"><a xlink:title="edge#1">
<path fill="none" stroke="black" d="M90.58,-126C140.26,-126 226.99,-126 279.07,-126"/>
<polygon fill="black" stroke="black" points="278.75,-129.5 288.75,-126 278.75,-122.5 278.75,-129.5"/>
</a>
</g>
<text text-anchor="middle" x="179.88" y="-130.7" font-family="Times,serif" font-size="14.00">CALLS [rest] (sync)</text>
</g>
<!-- SERVICE:mobile&#45;ui&#45;&gt;SERVICE:offers -->
<g id="edge3" class="edge">
<title>SERVICE:mobile&#45;ui&#45;&gt;SERVICE:offers</title>
<g id="a_edge3"><a xlink:title="edge#2">
<path fill="none" stroke="black" d="M90.61,-112.62C100.43,-109.49 111.04,-106.38 121,-104 177.38,-90.55 244.02,-81.21 284.7,-76.23"/>
<polygon fill="black" stroke="black" points="284.93,-79.72 294.44,-75.06 284.1,-72.77 284.93,-79.72"/>
</a>
</g>
<text text-anchor="middle" x="179.88" y="-108.7" font-family="Times,serif" font-size="14.00">CALLS [rest] (sync)</text>
</g>
<!-- SERVICE:mobile&#45;ui&#45;&gt;SERVICE:recommendations -->
<g id="edge5" class="edge">
<title>SERVICE:mobile&#45;ui&#45;&gt;SERVICE:recommendations</title>
<g id="a_edge5"><a xlink:title="edge#4">
<path fill="none" stroke="black" d="M66.82,-107.69C79.46,-92.81 99.24,-72.46 121,-61 159.26,-40.84 206.34,-30.13 245.34,-24.45"/>
<polygon fill="black" stroke="black" points="245.7,-27.93 255.13,-23.11 244.75,-20.99 245.7,-27.93"/>
</a>
</g>
<text text-anchor="middle" x="179.88" y="-65.7" font-family="Times,serif" font-size="14.00">CALLS [rest] (sync)</text>
</g>
</g>
</svg>
