<?xml version="1.0" encoding="UTF-8" standalone="no"?>
<!DOCTYPE svg PUBLIC "-//W3C//DTD SVG 1.1//EN"
 "http://www.w3.org/Graphics/SVG/1.1/DTD/svg11.dtd">
<!-- Generated by graphviz version 9.0.0 (20230911.1827)
 -->
<!-- Title: G Pages: 1 -->
<svg width="1096pt" height="374pt"
 viewBox="0.00 0.00 1095.50 374.00" xmlns="http://www.w3.org/2000/svg" xmlns:xlink="http://www.w3.org/1999/xlink">
<g id="graph0" class="graph" transform="scale(1 1) rotate(0) translate(4 370)">
<title>G</title>
<polygon fill="white" stroke="none" points="-4,4 -4,-370 1091.5,-370 1091.5,4 -4,4"/>
<text text-anchor="middle" x="543.75" y="-348.7" font-family="Helvetica,sans-Serif" font-size="14.00">Architecture</text>
<!-- SERVICE:orders -->
<g id="node1" class="node">
<title>SERVICE:orders</title>
<path fill="#eef6ff" stroke="black" d="M538,-282C538,-282 504.75,-282 504.75,-282 498.75,-282 492.75,-276 492.75,-270 492.75,-270 492.75,-258 492.75,-258 492.75,-252 498.75,-246 504.75,-246 504.75,-246 538,-246 538,-246 544,-246 550,-252 550,-258 550,-258 550,-270 550,-270 550,-276 544,-282 538,-282"/>
<text text-anchor="middle" x="521.38" y="-259.7" font-family="Times,serif" font-size="14.00">orders</text>
</g>
<!-- SERVICE:inventory -->
<g id="node5" class="node">
<title>SERVICE:inventory</title>
<path fill="#eef6ff" stroke="black" d="M818.88,-248C818.88,-248 766.88,-248 766.88,-248 760.88,-248 754.88,-242 754.88,-236 754.88,-236 754.88,-224 754.88,-224 754.88,-218 760.88,-212 766.88,-212 766.88,-212 818.88,-212 818.88,-212 824.88,-212 830.88,-218 830.88,-224 830.88,-224 830.88,-236 830.88,-236 830.88,-242 824.88,-248 818.88,-248"/>
<text text-anchor="middle" x="792.88" y="-225.7" font-family="Times,serif" font-size="14.00">inventory</text>
</g>
<!-- SERVICE:orders&#45;&gt;SERVICE:inventory -->
<g id="edge5" class="edge">
<title>SERVICE:orders&#45;&gt;SERVICE:inventory</title>
<g id="a_edge5"><a xlink:title="edge#4">
<path fill="none" stroke="black" d="M550.31,-256.81C564.57,-253.38 582.24,-249.48 598.25,-247 647.31,-239.38 703.93,-234.91 743.22,-232.48"/>
<polygon fill="black" stroke="black" points="743.29,-235.98 753.07,-231.89 742.88,-228.99 743.29,-235.98"/>
</a>
</g>
<text text-anchor="middle" x="657.12" y="-251.7" font-family="Times,serif" font-size="14.00">CALLS [rest] (sync)</text>
</g>
<!-- SERVICE:orders_split -->
<g id="node7" class="node">
<title>SERVICE:orders_split</title>
<path fill="#eef6ff" stroke="black" d="M826.75,-302C826.75,-302 759,-302 759,-302 753,-302 747,-296 747,-290 747,-290 747,-278 747,-278 747,-272 753,-266 759,-266 759,-266 826.75,-266 826.75,-266 832.75,-266 838.75,-272 838.75,-278 838.75,-278 838.75,-290 838.75,-290 838.75,-296 832.75,-302 826.75,-302"/>
<text text-anchor="middle" x="792.88" y="-279.7" font-family="Times,serif" font-size="14.00">orders_split</text>
</g>
<!-- SERVICE:orders&#45;&gt;SERVICE:orders_split -->
<g id="edge11" class="edge">
<title>SERVICE:orders&#45;&gt;SERVICE:orders_split</title>
<g id="a_edge11"><a xlink:title="edge#10">
<path fill="none" stroke="black" d="M550.45,-266.08C594.09,-269.32 679.05,-275.63 735.64,-279.83"/>
<polygon fill="black" stroke="black" points="735.17,-283.3 745.4,-280.55 735.68,-276.32 735.17,-283.3"/>
</a>
</g>
<text text-anchor="middle" x="657.12" y="-282.7" font-family="Times,serif" font-size="14.00">CALLS [rest] (sync)</text>
</g>
<!-- SERVICE:payments -->
<g id="node2" class="node">
<title>SERVICE:payments</title>
<path fill="#eef6ff" stroke="black" d="M1074,-302C1074,-302 1019,-302 1019,-302 1013,-302 1007,-296 1007,-290 1007,-290 1007,-278 1007,-278 1007,-272 1013,-266 1019,-266 1019,-266 1074,-266 1074,-266 1080,-266 1086,-272 1086,-278 1086,-278 1086,-290 1086,-290 1086,-296 1080,-302 1074,-302"/>
<text text-anchor="middle" x="1046.5" y="-279.7" font-family="Times,serif" font-size="14.00">payments</text>
</g>
<!-- SERVICE:auth -->
<g id="node3" class="node">
<title>SERVICE:auth</title>
<path fill="#eef6ff" stroke="black" d="M536.38,-36C536.38,-36 506.38,-36 506.38,-36 500.38,-36 494.38,-30 494.38,-24 494.38,-24 494.38,-12 494.38,-12 494.38,-6 500.38,0 506.38,0 506.38,0 536.38,0 536.38,0 542.38,0 548.38,-6 548.38,-12 548.38,-12 548.38,-24 548.38,-24 548.38,-30 542.38,-36 536.38,-36"/>
<text text-anchor="middle" x="521.38" y="-13.7" font-family="Times,serif" font-size="14.00">auth</text>
</g>
<!-- SERVICE:catalog -->
<g id="node4" class="node">
<title>SERVICE:catalog</title>
<path fill="#eef6ff" stroke="black" d="M812.5,-102C812.5,-102 773.25,-102 773.25,-102 767.25,-102 761.25,-96 761.25,-90 761.25,-90 761.25,-78 761.25,-78 761.25,-72 767.25,-66 773.25,-66 773.25,-66 812.5,-66 812.5,-66 818.5,-66 824.5,-72 824.5,-78 824.5,-78 824.5,-90 824.5,-90 824.5,-96 818.5,-102 812.5,-102"/>
<text text-anchor="middle" x="792.88" y="-79.7" font-family="Times,serif" font-size="14.00">catalog</text>
</g>
<!-- DATABASE:shared&#45;db -->
<g id="node6" class="node">
<title>DATABASE:shared&#45;db</title>
<path fill="#fff3cd" stroke="black" d="M1087.5,-169.73C1087.5,-171.53 1069.12,-173 1046.5,-173 1023.88,-173 1005.5,-171.53 1005.5,-169.73 1005.5,-169.73 1005.5,-140.27 1005.5,-140.27 1005.5,-138.47 1023.88,-137 1046.5,-137 1069.12,-137 1087.5,-138.47 1087.5,-140.27 1087.5,-140.27 1087.5,-169.73 1087.5,-169.73"/>
<path fill="none" stroke="black" d="M1087.5,-169.73C1087.5,-167.92 1069.12,-166.45 1046.5,-166.45 1023.88,-166.45 1005.5,-167.92 1005.5,-169.73"/>
<text text-anchor="middle" x="1046.5" y="-150.7" font-family="Times,serif" font-size="14.00">shared&#45;db</text>
</g>
<!-- SERVICE:catalog&#45;&gt;DATABASE:shared&#45;db -->
<g id="edge7" class="edge">
<title>SERVICE:catalog&#45;&gt;DATABASE:shared&#45;db</title>
<g id="a_edge7"><a xlink:title="edge#6">
<path fill="none" stroke="black" d="M824.79,-82.13C864.23,-80.92 933.76,-82.81 987.5,-106 999.92,-111.36 1011.7,-120.29 1021.36,-129.07"/>
<polygon fill="black" stroke="black" points="1018.86,-131.53 1028.5,-135.94 1023.72,-126.49 1018.86,-131.53"/>
</a>
</g>
<text text-anchor="middle" x="928.62" y="-110.7" font-family="Times,serif" font-size="14.00">CALLS [rest] (sync)</text>
</g>
<!-- SERVICE:inventory&#45;&gt;DATABASE:shared&#45;db -->
<g id="edge10" class="edge">
<title>SERVICE:inventory&#45;&gt;DATABASE:shared&#45;db</title>
<g id="a_edge10"><a xlink:title="edge#9">
<path fill="none" stroke="black" d="M831.36,-214.1C843.49,-209.24 857.08,-204.11 869.75,-200 911.11,-186.59 958.98,-174.55 994.3,-166.31"/>
<polygon fill="black" stroke="black" points="994.87,-169.77 1003.83,-164.11 993.3,-162.95 994.87,-169.77"/>
</a>
</g>
<text text-anchor="middle" x="928.62" y="-204.7" font-family="Times,serif" font-size="14.00">CALLS [rest] (sync)</text>
</g>
<!-- SERVICE:orders_split&#45;&gt;SERVICE:payments -->
<g id="edge6" class="edge">
<title>SERVICE:orders_split&#45;&gt;SERVICE:payments</title>
<g id="a_edge6"><a xlink:title="edge#5">
<path fill="none" stroke="black" d="M839.15,-284C883.15,-284 949.81,-284 995.38,-284"/>
<polygon fill="black" stroke="black" points="995.26,-287.5 1005.26,-284 995.26,-280.5 995.26,-287.5"/>
</a>
</g>
<text text-anchor="middle" x="928.62" y="-288.7" font-family="Times,serif" font-size="14.00">CALLS [rest] (sync)</text>
</g>
<!-- SERVICE:orders_split&#45;&gt;DATABASE:shared&#45;db -->
<g id="edge9" class="edge">
<title>SERVICE:orders_split&#45;&gt;DATABASE:shared&#45;db</title>
<g id="a_edge9"><a xlink:title="edge#8">
<path fill="none" stroke="black" d="M839.07,-269.89C892.18,-253.11 974.74,-226.31 987.5,-218 1002.13,-208.46 1015.55,-194.41 1025.79,-182"/>
<polygon fill="black" stroke="black" points="1028.24,-184.53 1031.71,-174.52 1022.76,-180.19 1028.24,-184.53"/>
</a>
</g>
<text text-anchor="middle" x="928.62" y="-263.7" font-family="Times,serif" font-size="14.00">CALLS [rest] (sync)</text>
</g>
<!-- SERVICE:web&#45;ui_split -->
<g id="node8" class="node">
<title>SERVICE:web&#45;ui_split</title>
<path fill="#eef6ff" stroke="black" d="M296.75,-294C296.75,-294 226,-294 226,-294 220,-294 214,-288 214,-282 214,-282 214,-270 214,-270 214,-264 220,-258 226,-258 226,-258 296.75,-258 296.75,-258 302.75,-258 308.75,-264 308.75,-270 308.75,-270 308.75,-282 308.75,-282 308.75,-288 302.75,-294 296.75,-294"/>
<text text-anchor="middle" x="261.38" y="-271.7" font-family="Times,serif" font-size="14.00">web&#45;ui_split</text>
</g>
<!-- SERVICE:web&#45;ui_split&#45;&gt;SERVICE:orders -->
<g id="edge2" class="edge">
<title>SERVICE:web&#45;ui_split&#45;&gt;SERVICE:orders</title>
<g id="a_edge2"><a xlink:title="edge#1">
<path fill="none" stroke="black" d="M309.24,-277.52C346.06,-278.29 398.62,-278.43 444.5,-275 456.45,-274.11 469.37,-272.48 481.11,-270.75"/>
<polygon fill="black" stroke="black" points="481.53,-274.23 490.88,-269.24 480.46,-267.31 481.53,-274.23"/>
</a>
</g>
<text text-anchor="middle" x="385.62" y="-281.7" font-family="Times,serif" font-size="14.00">CALLS [rest] (sync)</text>
</g>
<!-- SERVICE:web&#45;ui_split&#45;&gt;SERVICE:payments -->
<g id="edge3" class="edge">
<title>SERVICE:web&#45;ui_split&#45;&gt;SERVICE:payments</title>
<g id="a_edge3"><a xlink:title="edge#2">
<path fill="none" stroke="black" d="M308.66,-294.47C314.67,-296.29 320.8,-297.88 326.75,-299 556.11,-342.23 618.4,-315.3 851.75,-311 912.11,-309.89 928.33,-317.98 987.5,-306 990.27,-305.44 993.08,-304.76 995.9,-304"/>
<polygon fill="black" stroke="black" points="996.72,-307.41 1005.25,-301.13 994.67,-300.72 996.72,-307.41"/>
</a>
</g>
<text text-anchor="middle" x="657.12" y="-326.7" font-family="Times,serif" font-size="14.00">CALLS [rest] (sync)</text>
</g>
<!-- SERVICE:cart -->
<g id="node11" class="node">
<title>SERVICE:cart</title>
<path fill="#eef6ff" stroke="black" d="M536.38,-156C536.38,-156 506.38,-156 506.38,-156 500.38,-156 494.38,-150 494.38,-144 494.38,-144 494.38,-132 494.38,-132 494.38,-126 500.38,-120 506.38,-120 506.38,-120 536.38,-120 536.38,-120 542.38,-120 548.38,-126 548.38,-132 548.38,-132 548.38,-144 548.38,-144 548.38,-150 542.38,-156 536.38,-156"/>
<text text-anchor="middle" x="521.38" y="-133.7" font-family="Times,serif" font-size="14.00">cart</text>
</g>
<!-- SERVICE:web&#45;ui_split&#45;&gt;SERVICE:cart -->
<g id="edge1" class="edge">
<title>SERVICE:web&#45;ui_split&#45;&gt;SERVICE:cart</title>
<g id="a_edge1"><a xlink:title="edge#0">
<path fill="none" stroke="black" d="M309.18,-258.16C315.04,-256.25 321,-254.48 326.75,-253 378.09,-239.8 398.79,-260.84 444.5,-234 471.7,-218.03 492.87,-188.29 505.86,-166.12"/>
<polygon fill="black" stroke="black" points="508.82,-168 510.66,-157.57 502.72,-164.57 508.82,-168"/>
</a>
</g>
<text text-anchor="middle" x="385.62" y="-257.7" font-family="Times,serif" font-size="14.00">CALLS [rest] (sync)</text>
</g>
<!-- SERVICE:bff -->
<g id="node9" class="node">
<title>SERVICE:bff</title>
<path fill="#eef6ff" stroke="black" d="M276.38,-184C276.38,-184 246.38,-184 246.38,-184 240.38,-184 234.38,-178 234.38,-172 234.38,-172 234.38,-160 234.38,-160 234.38,-154 240.38,-148 246.38,-148 246.38,-148 276.38,-148 276.38,-148 282.38,-148 288.38,-154 288.38,-160 288.38,-160 288.38,-172 288.38,-172 288.38,-178 282.38,-184 276.38,-184"/>
<text text-anchor="middle" x="261.38" y="-161.7" font-family="Times,serif" font-size="14.00">bff</text>
</g>
<!-- SERVICE:bff&#45;&gt;SERVICE:orders -->
<g id="edge16" class="edge">
<title>SERVICE:bff&#45;&gt;SERVICE:orders</title>
<g id="a_edge16"><a xlink:title="edge#15">
<path fill="none" stroke="black" d="M288.86,-178.55C300.32,-183.59 313.99,-189.12 326.75,-193 377.77,-208.5 394.95,-196.3 444.5,-216 459.27,-221.87 474.32,-230.69 487.08,-239.17"/>
<polygon fill="black" stroke="black" points="484.87,-241.9 495.09,-244.67 488.83,-236.13 484.87,-241.9"/>
</a>
</g>
<text text-anchor="middle" x="385.62" y="-220.7" font-family="Times,serif" font-size="14.00">CALLS [rest] (sync)</text>
</g>
<!-- SERVICE:bff&#45;&gt;SERVICE:payments -->
<g id="edge17" class="edge">
<title>SERVICE:bff&#45;&gt;SERVICE:payments</title>
<g id="a_edge17"><a xlink:title="edge#16">
<path fill="none" stroke="black" d="M288.84,-167.21C371.89,-171.12 634.7,-184.21 851.75,-203 912.22,-208.24 933.66,-189.97 987.5,-218 1004.32,-226.76 1018.48,-242.57 1028.6,-256.52"/>
<polygon fill="black" stroke="black" points="1025.55,-258.26 1034.09,-264.53 1031.32,-254.3 1025.55,-258.26"/>
</a>
</g>
<text text-anchor="middle" x="657.12" y="-196.7" font-family="Times,serif" font-size="14.00">CALLS [rest] (sync)</text>
</g>
<!-- SERVICE:bff&#45;&gt;SERVICE:auth -->
<g id="edge18" class="edge">
<title>SERVICE:bff&#45;&gt;SERVICE:auth</title>
<g id="a_edge18"><a xlink:title="edge#17">
<path fill="none" stroke="black" d="M265.97,-147.81C272.59,-119.57 289.59,-65.74 326.75,-40 372.92,-8.02 440.63,-8.26 482.53,-12.39"/>
<polygon fill="black" stroke="black" points="482.05,-15.86 492.38,-13.49 482.83,-8.9 482.05,-15.86"/>
</a>
</g>
<text text-anchor="middle" x="385.62" y="-44.7" font-family="Times,serif" font-size="14.00">CALLS [rest] (sync)</text>
</g>
<!-- SERVICE:bff&#45;&gt;SERVICE:catalog -->
<g id="edge14" class="edge">
<title>SERVICE:bff&#45;&gt;SERVICE:catalog</title>
<g id="a_edge14"><a xlink:title="edge#13">
<path fill="none" stroke="black" d="M288.6,-152.28C300.13,-146.53 313.93,-140.04 326.75,-135 385.53,-111.9 400.32,-104.04 462.5,-93 564.36,-74.91 686.68,-77.89 749.72,-81.19"/>
<polygon fill="black" stroke="black" points="749.45,-84.68 759.63,-81.75 749.84,-77.7 749.45,-84.68"/>
</a>
</g>
<text text-anchor="middle" x="521.38" y="-97.7" font-family="Times,serif" font-size="14.00">CALLS [rest] (sync)</text>
</g>
<!-- SERVICE:bff&#45;&gt;SERVICE:cart -->
<g id="edge15" class="edge">
<title>SERVICE:bff&#45;&gt;SERVICE:cart</title>
<g id="a_edge15"><a xlink:title="edge#14">
<path fill="none" stroke="black" d="M288.78,-158.29C300.34,-155.21 314.12,-151.95 326.75,-150 380.45,-141.73 443.35,-139.12 482.54,-138.32"/>
<polygon fill="black" stroke="black" points="482.45,-141.82 492.39,-138.15 482.33,-134.82 482.45,-141.82"/>
</a>
</g>
<text text-anchor="middle" x="385.62" y="-154.7" font-family="Times,serif" font-size="14.00">CALLS [rest] (sync)</text>
</g>
<!-- SERVICE:web&#45;ui -->
<g id="node10" class="node">
<title>SERVICE:web&#45;ui</title>
<path fill="#eef6ff" stroke="black" d="M48.25,-228C48.25,-228 12,-228 12,-228 6,-228 0,-222 0,-216 0,-216 0,-204 0,-204 0,-198 6,-192 12,-192 12,-192 48.25,-192 48.25,-192 54.25,-192 60.25,-198 60.25,-204 60.25,-204 60.25,-216 60.25,-216 60.25,-222 54.25,-228 48.25,-228"/>
<text text-anchor="middle" x="30.12" y="-205.7" font-family="Times,serif" font-size="14.00">web&#45;ui</text>
</g>
<!-- SERVICE:web&#45;ui&#45;&gt;SERVICE:web&#45;ui_split -->
<g id="edge12" class="edge">
<title>SERVICE:web&#45;ui&#45;&gt;SERVICE:web&#45;ui_split</title>
<g id="a_edge12"><a xlink:title="edge#11">
<path fill="none" stroke="black" d="M60.63,-218.49C96.49,-228.82 157.82,-246.47 203.08,-259.51"/>
<polygon fill="black" stroke="black" points="201.9,-262.81 212.47,-262.21 203.83,-256.08 201.9,-262.81"/>
</a>
</g>
<text text-anchor="middle" x="137.12" y="-260.7" font-family="Times,serif" font-size="14.00">CALLS [rest] (sync)</text>
</g>
<!-- SERVICE:web&#45;ui&#45;&gt;SERVICE:bff -->
<g id="edge13" class="edge">
<title>SERVICE:web&#45;ui&#45;&gt;SERVICE:bff</title>
<g id="a_edge13"><a xlink:title="edge#12">
<path fill="none" stroke="black" d="M60.63,-204.34C102.12,-196.37 177.71,-181.87 223.06,-173.16"/>
<polygon fill="black" stroke="black" points="223.53,-176.64 232.69,-171.31 222.21,-169.76 223.53,-176.64"/>
</a>
</g>
<text text-anchor="middle" x="137.12" y="-204.7" font-family="Times,serif" font-size="14.00">CALLS [rest] (sync)</text>
</g>
<!-- SERVICE:cart&#45;&gt;SERVICE:catalog -->
<g id="edge4" class="edge">
<title>SERVICE:cart&#45;&gt;SERVICE:catalog</title>
<g id="a_edge4"><a xlink:title="edge#3">
<path fill="none" stroke="black" d="M548.76,-124.67C563.06,-118.02 581.24,-110.45 598.25,-106 649.23,-92.65 709.85,-87.4 749.51,-85.34"/>
<polygon fill="black" stroke="black" points="749.52,-88.84 759.35,-84.88 749.2,-81.85 749.52,-88.84"/>
</a>
</g>
<text text-anchor="middle" x="657.12" y="-110.7" font-family="Times,serif" font-size="14.00">CALLS [rest] (sync)</text>
</g>
<!-- SERVICE:cart&#45;&gt;DATABASE:shared&#45;db -->
<g id="edge8" class="edge">
<title>SERVICE:cart&#45;&gt;DATABASE:shared&#45;db</title>
<g id="a_edge8"><a xlink:title="edge#7">
<path fill="none" stroke="black" d="M548.68,-138.85C630.84,-141.52 883.76,-149.74 993.64,-153.31"/>
<polygon fill="black" stroke="black" points="993.45,-156.81 1003.56,-153.64 993.67,-149.81 993.45,-156.81"/>
</a>
</g>
<text text-anchor="middle" x="792.88" y="-152.7" font-family="Times,serif" font-size="14.00">CALLS [rest] (sync)</text>
</g>
</g>
</svg>
