<?xml version="1.0" encoding="UTF-8" standalone="no"?>
<!DOCTYPE svg PUBLIC "-//W3C//DTD SVG 1.1//EN"
 "http://www.w3.org/Graphics/SVG/1.1/DTD/svg11.dtd">
<!-- Generated by graphviz version 9.0.0 (20230911.1827)
 -->
<!-- Title: G Pages: 1 -->
<svg width="1096pt" height="377pt"
 viewBox="0.00 0.00 1095.50 377.18" xmlns="http://www.w3.org/2000/svg" xmlns:xlink="http://www.w3.org/1999/xlink">
<g id="graph0" class="graph" transform="scale(1 1) rotate(0) translate(4 373.18)">
<title>G</title>
<polygon fill="white" stroke="none" points="-4,4 -4,-373.18 1091.5,-373.18 1091.5,4 -4,4"/>
<text text-anchor="middle" x="543.75" y="-351.88" font-family="Helvetica,sans-Serif" font-size="14.00">Architecture</text>
<!-- SERVICE:web&#45;ui -->
<g id="node1" class="node">
<title>SERVICE:web&#45;ui</title>
<path fill="#eef6ff" stroke="black" d="M48.25,-181.18C48.25,-181.18 12,-181.18 12,-181.18 6,-181.18 0,-175.18 0,-169.18 0,-169.18 0,-157.18 0,-157.18 0,-151.18 6,-145.18 12,-145.18 12,-145.18 48.25,-145.18 48.25,-145.18 54.25,-145.18 60.25,-151.18 60.25,-157.18 60.25,-157.18 60.25,-169.18 60.25,-169.18 60.25,-175.18 54.25,-181.18 48.25,-181.18"/>
<text text-anchor="middle" x="30.12" y="-158.88" font-family="Times,serif" font-size="14.00">web&#45;ui</text>
</g>
<!-- SERVICE:web&#45;ui_split -->
<g id="node6" class="node">
<title>SERVICE:web&#45;ui_split</title>
<path fill="#eef6ff" stroke="black" d="M296.75,-226.18C296.75,-226.18 226,-226.18 226,-226.18 220,-226.18 214,-220.18 214,-214.18 214,-214.18 214,-202.18 214,-202.18 214,-196.18 220,-190.18 226,-190.18 226,-190.18 296.75,-190.18 296.75,-190.18 302.75,-190.18 308.75,-196.18 308.75,-202.18 308.75,-202.18 308.75,-214.18 308.75,-214.18 308.75,-220.18 302.75,-226.18 296.75,-226.18"/>
<text text-anchor="middle" x="261.38" y="-203.88" font-family="Times,serif" font-size="14.00">web&#45;ui_split</text>
</g>
<!-- SERVICE:web&#45;ui&#45;&gt;SERVICE:web&#45;ui_split -->
<g id="edge12" class="edge">
<title>SERVICE:web&#45;ui&#45;&gt;SERVICE:web&#45;ui_split</title>
<g id="a_edge12"><a xlink:title="edge#11">
<path fill="none" stroke="black" d="M60.63,-168.97C96.41,-175.99 157.56,-188 202.79,-196.88"/>
<polygon fill="black" stroke="black" points="201.96,-200.28 212.44,-198.77 203.3,-193.41 201.96,-200.28"/>
</a>
</g>
<text text-anchor="middle" x="137.12" y="-198.88" font-family="Times,serif" font-size="14.00">CALLS [rest] (sync)</text>
</g>
<!-- SERVICE:bff -->
<g id="node7" class="node">
<title>SERVICE:bff</title>
<path fill="#eef6ff" stroke="black" d="M276.38,-155.18C276.38,-155.18 246.38,-155.18 246.38,-155.18 240.38,-155.18 234.38,-149.18 234.38,-143.18 234.38,-143.18 234.38,-131.18 234.38,-131.18 234.38,-125.18 240.38,-119.18 246.38,-119.18 246.38,-119.18 276.38,-119.18 276.38,-119.18 282.38,-119.18 288.38,-125.18 288.38,-131.18 288.38,-131.18 288.38,-143.18 288.38,-143.18 288.38,-149.18 282.38,-155.18 276.38,-155.18"/>
<text text-anchor="middle" x="261.38" y="-132.88" font-family="Times,serif" font-size="14.00">bff</text>
</g>
<!-- SERVICE:web&#45;ui&#45;&gt;SERVICE:bff -->
<g id="edge13" class="edge">
<title>SERVICE:web&#45;ui&#45;&gt;SERVICE:bff</title>
<g id="a_edge13"><a xlink:title="edge#12">
<path fill="none" stroke="black" d="M60.71,-151.77C66.45,-149.95 72.48,-148.3 78.25,-147.18 127.63,-137.63 185.83,-136.08 222.91,-136.28"/>
<polygon fill="black" stroke="black" points="222.62,-139.78 232.65,-136.38 222.69,-132.78 222.62,-139.78"/>
</a>
</g>
<text text-anchor="middle" x="137.12" y="-151.88" font-family="Times,serif" font-size="14.00">CALLS [rest] (sync)</text>
</g>
<!-- SERVICE:auth -->
<g id="node2" class="node">
<title>SERVICE:auth</title>
<path fill="#eef6ff" stroke="black" d="M536.38,-91.18C536.38,-91.18 506.38,-91.18 506.38,-91.18 500.38,-91.18 494.38,-85.18 494.38,-79.18 494.38,-79.18 494.38,-67.18 494.38,-67.18 494.38,-61.18 500.38,-55.18 506.38,-55.18 506.38,-55.18 536.38,-55.18 536.38,-55.18 542.38,-55.18 548.38,-61.18 548.38,-67.18 548.38,-67.18 548.38,-79.18 548.38,-79.18 548.38,-85.18 542.38,-91.18 536.38,-91.18"/>
<text text-anchor="middle" x="521.38" y="-68.88" font-family="Times,serif" font-size="14.00">auth</text>
</g>
<!-- SERVICE:cart -->
<g id="node3" class="node">
<title>SERVICE:cart</title>
<path fill="#eef6ff" stroke="black" d="M536.38,-210.18C536.38,-210.18 506.38,-210.18 506.38,-210.18 500.38,-210.18 494.38,-204.18 494.38,-198.18 494.38,-198.18 494.38,-186.18 494.38,-186.18 494.38,-180.18 500.38,-174.18 506.38,-174.18 506.38,-174.18 536.38,-174.18 536.38,-174.18 542.38,-174.18 548.38,-180.18 548.38,-186.18 548.38,-186.18 548.38,-198.18 548.38,-198.18 548.38,-204.18 542.38,-210.18 536.38,-210.18"/>
<text text-anchor="middle" x="521.38" y="-187.88" font-family="Times,serif" font-size="14.00">cart</text>
</g>
<!-- DATABASE:shared&#45;db -->
<g id="node4" class="node">
<title>DATABASE:shared&#45;db</title>
<path fill="#fff3cd" stroke="black" d="M1087.5,-126.91C1087.5,-128.71 1069.12,-130.18 1046.5,-130.18 1023.88,-130.18 1005.5,-128.71 1005.5,-126.91 1005.5,-126.91 1005.5,-97.45 1005.5,-97.45 1005.5,-95.65 1023.88,-94.18 1046.5,-94.18 1069.12,-94.18 1087.5,-95.65 1087.5,-97.45 1087.5,-97.45 1087.5,-126.91 1087.5,-126.91"/>
<path fill="none" stroke="black" d="M1087.5,-126.91C1087.5,-125.1 1069.12,-123.63 1046.5,-123.63 1023.88,-123.63 1005.5,-125.1 1005.5,-126.91"/>
<text text-anchor="middle" x="1046.5" y="-107.88" font-family="Times,serif" font-size="14.00">shared&#45;db</text>
</g>
<!-- SERVICE:cart&#45;&gt;DATABASE:shared&#45;db -->
<g id="edge8" class="edge">
<title>SERVICE:cart&#45;&gt;DATABASE:shared&#45;db</title>
<g id="a_edge8"><a xlink:title="edge#7">
<path fill="none" stroke="black" d="M548.86,-194.6C621.55,-200.26 829.31,-209.85 987.5,-152.18 997.19,-148.65 1006.78,-143.11 1015.29,-137.26"/>
<polygon fill="black" stroke="black" points="1017.15,-140.24 1023.17,-131.52 1013.03,-134.58 1017.15,-140.24"/>
</a>
</g>
<text text-anchor="middle" x="792.88" y="-200.88" font-family="Times,serif" font-size="14.00">CALLS [rest] (sync)</text>
</g>
<!-- SERVICE:catalog -->
<g id="node8" class="node">
<title>SERVICE:catalog</title>
<path fill="#eef6ff" stroke="black" d="M812.5,-48.18C812.5,-48.18 773.25,-48.18 773.25,-48.18 767.25,-48.18 761.25,-42.18 761.25,-36.18 761.25,-36.18 761.25,-24.18 761.25,-24.18 761.25,-18.18 767.25,-12.18 773.25,-12.18 773.25,-12.18 812.5,-12.18 812.5,-12.18 818.5,-12.18 824.5,-18.18 824.5,-24.18 824.5,-24.18 824.5,-36.18 824.5,-36.18 824.5,-42.18 818.5,-48.18 812.5,-48.18"/>
<text text-anchor="middle" x="792.88" y="-25.88" font-family="Times,serif" font-size="14.00">catalog</text>
</g>
<!-- SERVICE:cart&#45;&gt;SERVICE:catalog -->
<g id="edge4" class="edge">
<title>SERVICE:cart&#45;&gt;SERVICE:catalog</title>
<g id="a_edge4"><a xlink:title="edge#3">
<path fill="none" stroke="black" d="M548.73,-184.84C559.72,-180.63 571.85,-174.32 580.25,-165.18 595.95,-148.1 580.84,-131.51 598.25,-116.18 638.54,-80.69 673,-121.33 716,-89.18 729.07,-79.41 722.03,-68.27 734,-57.18 738.9,-52.64 744.69,-48.74 750.69,-45.44"/>
<polygon fill="black" stroke="black" points="752.08,-48.65 759.5,-41.09 748.99,-42.38 752.08,-48.65"/>
</a>
</g>
<text text-anchor="middle" x="657.12" y="-120.88" font-family="Times,serif" font-size="14.00">CALLS [rest] (sync)</text>
</g>
<!-- SERVICE:orders_split -->
<g id="node5" class="node">
<title>SERVICE:orders_split</title>
<path fill="#eef6ff" stroke="black" d="M826.75,-156.18C826.75,-156.18 759,-156.18 759,-156.18 753,-156.18 747,-150.18 747,-144.18 747,-144.18 747,-132.18 747,-132.18 747,-126.18 753,-120.18 759,-120.18 759,-120.18 826.75,-120.18 826.75,-120.18 832.75,-120.18 838.75,-126.18 838.75,-132.18 838.75,-132.18 838.75,-144.18 838.75,-144.18 838.75,-150.18 832.75,-156.18 826.75,-156.18"/>
<text text-anchor="middle" x="792.88" y="-133.88" font-family="Times,serif" font-size="14.00">orders_split</text>
</g>
<!-- SERVICE:orders_split&#45;&gt;DATABASE:shared&#45;db -->
<g id="edge9" class="edge">
<title>SERVICE:orders_split&#45;&gt;DATABASE:shared&#45;db</title>
<g id="a_edge9"><a xlink:title="edge#8">
<path fill="none" stroke="black" d="M839.15,-133.5C882.63,-129.01 948.23,-122.23 993.75,-117.53"/>
<polygon fill="black" stroke="black" points="994.06,-121.01 1003.65,-116.5 993.34,-114.05 994.06,-121.01"/>
</a>
</g>
<text text-anchor="middle" x="928.62" y="-134.88" font-family="Times,serif" font-size="14.00">CALLS [rest] (sync)</text>
</g>
<!-- SERVICE:payments -->
<g id="node10" class="node">
<title>SERVICE:payments</title>
<path fill="#eef6ff" stroke="black" d="M1074,-277.18C1074,-277.18 1019,-277.18 1019,-277.18 1013,-277.18 1007,-271.18 1007,-265.18 1007,-265.18 1007,-253.18 1007,-253.18 1007,-247.18 1013,-241.18 1019,-241.18 1019,-241.18 1074,-241.18 1074,-241.18 1080,-241.18 1086,-247.18 1086,-253.18 1086,-253.18 1086,-265.18 1086,-265.18 1086,-271.18 1080,-277.18 1074,-277.18"/>
<text text-anchor="middle" x="1046.5" y="-254.88" font-family="Times,serif" font-size="14.00">payments</text>
</g>
<!-- SERVICE:orders_split&#45;&gt;SERVICE:payments -->
<g id="edge6" class="edge">
<title>SERVICE:orders_split&#45;&gt;SERVICE:payments</title>
<g id="a_edge6"><a xlink:title="edge#5">
<path fill="none" stroke="black" d="M836.22,-156.57C875.74,-173.99 936.14,-201.25 987.5,-227.18 992.63,-229.77 997.97,-232.57 1003.23,-235.39"/>
<polygon fill="black" stroke="black" points="1001.42,-238.39 1011.88,-240.09 1004.76,-232.24 1001.42,-238.39"/>
</a>
</g>
<text text-anchor="middle" x="928.62" y="-231.88" font-family="Times,serif" font-size="14.00">CALLS [rest] (sync)</text>
</g>
<!-- SERVICE:web&#45;ui_split&#45;&gt;SERVICE:cart -->
<g id="edge1" class="edge">
<title>SERVICE:web&#45;ui_split&#45;&gt;SERVICE:cart</title>
<g id="a_edge1"><a xlink:title="edge#0">
<path fill="none" stroke="black" d="M308.88,-208.88C345.74,-209.02 398.51,-208.3 444.5,-204.18 457.08,-203.05 470.74,-201.12 482.96,-199.12"/>
<polygon fill="black" stroke="black" points="483.38,-202.6 492.66,-197.47 482.21,-195.7 483.38,-202.6"/>
</a>
</g>
<text text-anchor="middle" x="385.62" y="-212.88" font-family="Times,serif" font-size="14.00">CALLS [rest] (sync)</text>
</g>
<!-- SERVICE:orders -->
<g id="node9" class="node">
<title>SERVICE:orders</title>
<path fill="#eef6ff" stroke="black" d="M538,-156.18C538,-156.18 504.75,-156.18 504.75,-156.18 498.75,-156.18 492.75,-150.18 492.75,-144.18 492.75,-144.18 492.75,-132.18 492.75,-132.18 492.75,-126.18 498.75,-120.18 504.75,-120.18 504.75,-120.18 538,-120.18 538,-120.18 544,-120.18 550,-126.18 550,-132.18 550,-132.18 550,-144.18 550,-144.18 550,-150.18 544,-156.18 538,-156.18"/>
<text text-anchor="middle" x="521.38" y="-133.88" font-family="Times,serif" font-size="14.00">orders</text>
</g>
<!-- SERVICE:web&#45;ui_split&#45;&gt;SERVICE:orders -->
<g id="edge2" class="edge">
<title>SERVICE:web&#45;ui_split&#45;&gt;SERVICE:orders</title>
<g id="a_edge2"><a xlink:title="edge#1">
<path fill="none" stroke="black" d="M282.87,-189.96C291.17,-182.27 300.69,-173.05 308.75,-164.18 317.48,-154.58 315.13,-146.96 326.75,-141.18 375.63,-116.89 440.39,-122.2 481.23,-129.34"/>
<polygon fill="black" stroke="black" points="480.37,-132.74 490.84,-131.15 481.66,-125.86 480.37,-132.74"/>
</a>
</g>
<text text-anchor="middle" x="385.62" y="-145.88" font-family="Times,serif" font-size="14.00">CALLS [rest] (sync)</text>
</g>
<!-- SERVICE:web&#45;ui_split&#45;&gt;SERVICE:payments -->
<g id="edge3" class="edge">
<title>SERVICE:web&#45;ui_split&#45;&gt;SERVICE:payments</title>
<g id="a_edge3"><a xlink:title="edge#2">
<path fill="none" stroke="black" d="M274.4,-226.64C285.78,-242.27 304.41,-263.62 326.75,-273.18 559.63,-372.83 875,-305.68 995.7,-273.57"/>
<polygon fill="black" stroke="black" points="996.57,-276.96 1005.31,-270.97 994.74,-270.2 996.57,-276.96"/>
</a>
</g>
<text text-anchor="middle" x="657.12" y="-329.88" font-family="Times,serif" font-size="14.00">CALLS [rest] (sync)</text>
</g>
<!-- SERVICE:bff&#45;&gt;SERVICE:auth -->
<g id="edge18" class="edge">
<title>SERVICE:bff&#45;&gt;SERVICE:auth</title>
<g id="a_edge18"><a xlink:title="edge#17">
<path fill="none" stroke="black" d="M274.73,-118.91C286.19,-103.73 304.76,-83.21 326.75,-74.18 377.69,-53.25 442.73,-58.7 482.96,-65.33"/>
<polygon fill="black" stroke="black" points="482.16,-68.75 492.62,-67.05 483.38,-61.86 482.16,-68.75"/>
</a>
</g>
<text text-anchor="middle" x="385.62" y="-78.88" font-family="Times,serif" font-size="14.00">CALLS [rest] (sync)</text>
</g>
<!-- SERVICE:bff&#45;&gt;SERVICE:cart -->
<g id="edge15" class="edge">
<title>SERVICE:bff&#45;&gt;SERVICE:cart</title>
<g id="a_edge15"><a xlink:title="edge#14">
<path fill="none" stroke="black" d="M288.83,-149.5C300.27,-154.4 313.96,-159.69 326.75,-163.18 341.5,-167.2 431.13,-179.89 483.12,-187.08"/>
<polygon fill="black" stroke="black" points="482.34,-190.51 492.72,-188.4 483.3,-183.57 482.34,-190.51"/>
</a>
</g>
<text text-anchor="middle" x="385.62" y="-185.88" font-family="Times,serif" font-size="14.00">CALLS [rest] (sync)</text>
</g>
<!-- SERVICE:bff&#45;&gt;SERVICE:catalog -->
<g id="edge14" class="edge">
<title>SERVICE:bff&#45;&gt;SERVICE:catalog</title>
<g id="a_edge14"><a xlink:title="edge#13">
<path fill="none" stroke="black" d="M271.82,-118.95C282.53,-100.16 301.81,-71.52 326.75,-56.18 461.94,26.95 663.17,-2.08 749.76,-20.17"/>
<polygon fill="black" stroke="black" points="748.96,-23.58 759.48,-22.27 750.44,-16.74 748.96,-23.58"/>
</a>
</g>
<text text-anchor="middle" x="521.38" y="-12.88" font-family="Times,serif" font-size="14.00">CALLS [rest] (sync)</text>
</g>
<!-- SERVICE:bff&#45;&gt;SERVICE:orders -->
<g id="edge16" class="edge">
<title>SERVICE:bff&#45;&gt;SERVICE:orders</title>
<g id="a_edge16"><a xlink:title="edge#15">
<path fill="none" stroke="black" d="M288.82,-120.03C300.05,-113.73 313.56,-107.36 326.75,-104.18 377.62,-91.9 393.32,-93.24 444.5,-104.18 457.25,-106.91 470.45,-111.94 482.2,-117.32"/>
<polygon fill="black" stroke="black" points="480.63,-120.45 491.16,-121.64 483.67,-114.14 480.63,-120.45"/>
</a>
</g>
<text text-anchor="middle" x="385.62" y="-108.88" font-family="Times,serif" font-size="14.00">CALLS [rest] (sync)</text>
</g>
<!-- SERVICE:bff&#45;&gt;SERVICE:payments -->
<g id="edge17" class="edge">
<title>SERVICE:bff&#45;&gt;SERVICE:payments</title>
<g id="a_edge17"><a xlink:title="edge#16">
<path fill="none" stroke="black" d="M285.78,-155.52C293.9,-162.82 302.53,-171.72 308.75,-181.18 321.5,-200.56 308,-216.52 326.75,-230.18 380.43,-269.28 841.12,-263.42 995.39,-260.33"/>
<polygon fill="black" stroke="black" points="995.38,-263.83 1005.3,-260.12 995.23,-256.83 995.38,-263.83"/>
</a>
</g>
<text text-anchor="middle" x="657.12" y="-266.88" font-family="Times,serif" font-size="14.00">CALLS [rest] (sync)</text>
</g>
<!-- SERVICE:catalog&#45;&gt;DATABASE:shared&#45;db -->
<g id="edge7" class="edge">
<title>SERVICE:catalog&#45;&gt;DATABASE:shared&#45;db</title>
<g id="a_edge7"><a xlink:title="edge#6">
<path fill="none" stroke="black" d="M824.83,-30.78C864.32,-32.6 933.89,-39.43 987.5,-64.18 999.19,-69.58 1010.47,-77.93 1019.93,-86.16"/>
<polygon fill="black" stroke="black" points="1017.54,-88.72 1027.28,-92.9 1022.27,-83.56 1017.54,-88.72"/>
</a>
</g>
<text text-anchor="middle" x="928.62" y="-68.88" font-family="Times,serif" font-size="14.00">CALLS [rest] (sync)</text>
</g>
<!-- SERVICE:orders&#45;&gt;SERVICE:orders_split -->
<g id="edge11" class="edge">
<title>SERVICE:orders&#45;&gt;SERVICE:orders_split</title>
<g id="a_edge11"><a xlink:title="edge#10">
<path fill="none" stroke="black" d="M550.45,-138.18C594.09,-138.18 679.05,-138.18 735.64,-138.18"/>
<polygon fill="black" stroke="black" points="735.39,-141.68 745.39,-138.18 735.39,-134.68 735.39,-141.68"/>
</a>
</g>
<text text-anchor="middle" x="657.12" y="-142.88" font-family="Times,serif" font-size="14.00">CALLS [rest] (sync)</text>
</g>
<!-- SERVICE:inventory -->
<g id="node11" class="node">
<title>SERVICE:inventory</title>
<path fill="#eef6ff" stroke="black" d="M818.88,-102.18C818.88,-102.18 766.88,-102.18 766.88,-102.18 760.88,-102.18 754.88,-96.18 754.88,-90.18 754.88,-90.18 754.88,-78.18 754.88,-78.18 754.88,-72.18 760.88,-66.18 766.88,-66.18 766.88,-66.18 818.88,-66.18 818.88,-66.18 824.88,-66.18 830.88,-72.18 830.88,-78.18 830.88,-78.18 830.88,-90.18 830.88,-90.18 830.88,-96.18 824.88,-102.18 818.88,-102.18"/>
<text text-anchor="middle" x="792.88" y="-79.88" font-family="Times,serif" font-size="14.00">inventory</text>
</g>
<!-- SERVICE:orders&#45;&gt;SERVICE:inventory -->
<g id="edge5" class="edge">
<title>SERVICE:orders&#45;&gt;SERVICE:inventory</title>
<g id="a_edge5"><a xlink:title="edge#4">
<path fill="none" stroke="black" d="M550.42,-123.18C560.55,-116.93 571.61,-109.04 580.25,-100.18 590.84,-89.32 584.99,-78.55 598.25,-71.18 642.88,-46.35 702.56,-55.49 743.8,-67.07"/>
<polygon fill="black" stroke="black" points="742.63,-70.37 753.21,-69.86 744.62,-63.66 742.63,-70.37"/>
</a>
</g>
<text text-anchor="middle" x="657.12" y="-75.88" font-family="Times,serif" font-size="14.00">CALLS [rest] (sync)</text>
</g>
<!-- SERVICE:inventory&#45;&gt;DATABASE:shared&#45;db -->
<g id="edge10" class="edge">
<title>SERVICE:inventory&#45;&gt;DATABASE:shared&#45;db</title>
<g id="a_edge10"><a xlink:title="edge#9">
<path fill="none" stroke="black" d="M831.23,-84.63C870.39,-85.59 933.62,-88.48 987.5,-97.18 989.66,-97.53 991.85,-97.92 994.06,-98.35"/>
<polygon fill="black" stroke="black" points="993.15,-101.73 1003.66,-100.4 994.61,-94.89 993.15,-101.73"/>
</a>
</g>
<text text-anchor="middle" x="928.62" y="-101.88" font-family="Times,serif" font-size="14.00">CALLS [rest] (sync)</text>
</g>
</g>
</svg>
