<?xml version="1.0" encoding="UTF-8" standalone="no"?>
<!DOCTYPE svg PUBLIC "-//W3C//DTD SVG 1.1//EN"
 "http://www.w3.org/Graphics/SVG/1.1/DTD/svg11.dtd">
<!-- Generated by graphviz version 9.0.0 (20230911.1827)
 -->
<!-- Title: G Pages: 1 -->
<svg width="526pt" height="70pt"
 viewBox="0.00 0.00 526.25 70.00" xmlns="http://www.w3.org/2000/svg" xmlns:xlink="http://www.w3.org/1999/xlink">
<g id="graph0" class="graph" transform="scale(1 1) rotate(0) translate(4 66)">
<title>G</title>
<polygon fill="white" stroke="none" points="-4,4 -4,-66 522.25,-66 522.25,4 -4,4"/>
<text text-anchor="middle" x="259.12" y="-44.7" font-family="Helvetica,sans-Serif" font-size="14.00">Architecture</text>
<!-- SERVICE:service&#45;a -->
<g id="node1" class="node">
<title>SERVICE:service&#45;a</title>
<path fill="#eef6ff" stroke="black" d="M61.75,-36C61.75,-36 12,-36 12,-36 6,-36 0,-30 0,-24 0,-24 0,-12 0,-12 0,-6 6,0 12,0 12,0 61.75,0 61.75,0 67.75,0 73.75,-6 73.75,-12 73.75,-12 73.75,-24 73.75,-24 73.75,-30 67.75,-36 61.75,-36"/>
<text text-anchor="middle" x="36.88" y="-13.7" font-family="Times,serif" font-size="14.00">service&#45;a</text>
</g>
<!-- SERVICE:service&#45;b -->
<g id="node2" class="node">
<title>SERVICE:service&#45;b</title>
<path fill="#eef6ff" stroke="black" d="M284.75,-36C284.75,-36 234.25,-36 234.25,-36 228.25,-36 222.25,-30 222.25,-24 222.25,-24 222.25,-12 222.25,-12 222.25,-6 228.25,0 234.25,0 234.25,0 284.75,0 284.75,0 290.75,0 296.75,-6 296.75,-12 296.75,-12 296.75,-24 296.75,-24 296.75,-30 290.75,-36 284.75,-36"/>
<text text-anchor="middle" x="259.5" y="-13.7" font-family="Times,serif" font-size="14.00">service&#45;b</text>
</g>
<!-- SERVICE:service&#45;a&#45;&gt;SERVICE:service&#45;b -->
<g id="edge1" class="edge">
<title>SERVICE:service&#45;a&#45;&gt;SERVICE:service&#45;b</title>
<g id="a_edge1"><a xlink:title="edge#0">
<path fill="none" stroke="black" d="M73.81,-18C111.01,-18 169.33,-18 210.46,-18"/>
<polygon fill="black" stroke="black" points="210.33,-21.5 220.33,-18 210.33,-14.5 210.33,-21.5"/>
</a>
</g>
<text text-anchor="middle" x="148" y="-22.7" font-family="Times,serif" font-size="14.00">calls (1 ep), 10rpm</text>
</g>
<!-- SERVICE:service&#45;c -->
<g id="node3" class="node">
<title>SERVICE:service&#45;c</title>
<path fill="#eef6ff" stroke="black" d="M506.25,-36C506.25,-36 457.25,-36 457.25,-36 451.25,-36 445.25,-30 445.25,-24 445.25,-24 445.25,-12 445.25,-12 445.25,-6 451.25,0 457.25,0 457.25,0 506.25,0 506.25,0 512.25,0 518.25,-6 518.25,-12 518.25,-12 518.25,-24 518.25,-24 518.25,-30 512.25,-36 506.25,-36"/>
<text text-anchor="middle" x="481.75" y="-13.7" font-family="Times,serif" font-size="14.00">service&#45;c</text>
</g>
<!-- SERVICE:service&#45;b&#45;&gt;SERVICE:service&#45;c -->
<g id="edge2" class="edge">
<title>SERVICE:service&#45;b&#45;&gt;SERVICE:service&#45;c</title>
<g id="a_edge2"><a xlink:title="edge#1">
<path fill="none" stroke="black" d="M296.87,-18C334.31,-18 392.81,-18 433.75,-18"/>
<polygon fill="black" stroke="black" points="433.54,-21.5 443.54,-18 433.54,-14.5 433.54,-21.5"/>
</a>
</g>
<text text-anchor="middle" x="371" y="-22.7" font-family="Times,serif" font-size="14.00">calls (1 ep), 10rpm</text>
</g>
</g>
</svg>
