<?xml version="1.0" encoding="UTF-8" standalone="no"?>
<!DOCTYPE svg PUBLIC "-//W3C//DTD SVG 1.1//EN"
 "http://www.w3.org/Graphics/SVG/1.1/DTD/svg11.dtd">
<!-- Generated by graphviz version 9.0.0 (20230911.1827)
 -->
<!-- Title: G Pages: 1 -->
<svg width="1974pt" height="340pt"
 viewBox="0.00 0.00 1973.50 340.00" xmlns="http://www.w3.org/2000/svg" xmlns:xlink="http://www.w3.org/1999/xlink">
<g id="graph0" class="graph" transform="scale(1 1) rotate(0) translate(4 336)">
<title>G</title>
<polygon fill="white" stroke="none" points="-4,4 -4,-336 1969.5,-336 1969.5,4 -4,4"/>
<text text-anchor="middle" x="982.75" y="-314.7" font-family="Helvetica,sans-Serif" font-size="14.00">Architecture</text>
<!-- SERVICE:discount -->
<g id="node1" class="node">
<title>SERVICE:discount</title>
<path fill="#eef6ff" stroke="black" d="M324.5,-36C324.5,-36 277.75,-36 277.75,-36 271.75,-36 265.75,-30 265.75,-24 265.75,-24 265.75,-12 265.75,-12 265.75,-6 271.75,0 277.75,0 277.75,0 324.5,0 324.5,0 330.5,0 336.5,-6 336.5,-12 336.5,-12 336.5,-24 336.5,-24 336.5,-30 330.5,-36 324.5,-36"/>
<text text-anchor="middle" x="301.12" y="-13.7" font-family="Times,serif" font-size="14.00">discount</text>
</g>
<!-- SERVICE:tax -->
<g id="node15" class="node">
<title>SERVICE:tax</title>
<path fill="#eef6ff" stroke="black" d="M563.88,-36C563.88,-36 533.88,-36 533.88,-36 527.88,-36 521.88,-30 521.88,-24 521.88,-24 521.88,-12 521.88,-12 521.88,-6 527.88,0 533.88,0 533.88,0 563.88,0 563.88,0 569.88,0 575.88,-6 575.88,-12 575.88,-12 575.88,-24 575.88,-24 575.88,-30 569.88,-36 563.88,-36"/>
<text text-anchor="middle" x="548.88" y="-13.7" font-family="Times,serif" font-size="14.00">tax</text>
</g>
<!-- SERVICE:discount&#45;&gt;SERVICE:tax -->
<g id="edge2" class="edge">
<title>SERVICE:discount&#45;&gt;SERVICE:tax</title>
<g id="a_edge2"><a xlink:title="edge#1">
<path fill="none" stroke="black" d="M336.81,-18C382.67,-18 463.18,-18 510.39,-18"/>
<polygon fill="black" stroke="black" points="510.13,-21.5 520.13,-18 510.13,-14.5 510.13,-21.5"/>
</a>
</g>
<text text-anchor="middle" x="413.38" y="-22.7" font-family="Times,serif" font-size="14.00">CALLS [rest] (sync)</text>
</g>
<!-- SERVICE:scheduler -->
<g id="node2" class="node">
<title>SERVICE:scheduler</title>
<path fill="#eef6ff" stroke="black" d="M82.75,-144C82.75,-144 29.25,-144 29.25,-144 23.25,-144 17.25,-138 17.25,-132 17.25,-132 17.25,-120 17.25,-120 17.25,-114 23.25,-108 29.25,-108 29.25,-108 82.75,-108 82.75,-108 88.75,-108 94.75,-114 94.75,-120 94.75,-120 94.75,-132 94.75,-132 94.75,-138 88.75,-144 82.75,-144"/>
<text text-anchor="middle" x="56" y="-121.7" font-family="Times,serif" font-size="14.00">scheduler</text>
</g>
<!-- SERVICE:ops&#45;hub -->
<g id="node16" class="node">
<title>SERVICE:ops&#45;hub</title>
<path fill="#eef6ff" stroke="black" d="M323.75,-117C323.75,-117 278.5,-117 278.5,-117 272.5,-117 266.5,-111 266.5,-105 266.5,-105 266.5,-93 266.5,-93 266.5,-87 272.5,-81 278.5,-81 278.5,-81 323.75,-81 323.75,-81 329.75,-81 335.75,-87 335.75,-93 335.75,-93 335.75,-105 335.75,-105 335.75,-111 329.75,-117 323.75,-117"/>
<text text-anchor="middle" x="301.12" y="-94.7" font-family="Times,serif" font-size="14.00">ops&#45;hub</text>
</g>
<!-- SERVICE:scheduler&#45;&gt;SERVICE:ops&#45;hub -->
<g id="edge3" class="edge">
<title>SERVICE:scheduler&#45;&gt;SERVICE:ops&#45;hub</title>
<g id="a_edge3"><a xlink:title="edge#2">
<path fill="none" stroke="black" d="M94.99,-121.78C138.23,-116.98 208.83,-109.14 254.88,-104.02"/>
<polygon fill="black" stroke="black" points="255.26,-107.5 264.82,-102.92 254.49,-100.55 255.26,-107.5"/>
</a>
</g>
<text text-anchor="middle" x="188.88" y="-122.7" font-family="Times,serif" font-size="14.00">CALLS [rest] (sync)</text>
</g>
<!-- SERVICE:cache&#45;proxy -->
<g id="node3" class="node">
<title>SERVICE:cache&#45;proxy</title>
<path fill="#eef6ff" stroke="black" d="M1670.88,-245C1670.88,-245 1600.88,-245 1600.88,-245 1594.88,-245 1588.88,-239 1588.88,-233 1588.88,-233 1588.88,-221 1588.88,-221 1588.88,-215 1594.88,-209 1600.88,-209 1600.88,-209 1670.88,-209 1670.88,-209 1676.88,-209 1682.88,-215 1682.88,-221 1682.88,-221 1682.88,-233 1682.88,-233 1682.88,-239 1676.88,-245 1670.88,-245"/>
<text text-anchor="middle" x="1635.88" y="-222.7" font-family="Times,serif" font-size="14.00">cache&#45;proxy</text>
</g>
<!-- SERVICE:ops&#45;hub_split_split -->
<g id="node4" class="node">
<title>SERVICE:ops&#45;hub_split_split</title>
<path fill="#eef6ff" stroke="black" d="M1693,-191C1693,-191 1578.75,-191 1578.75,-191 1572.75,-191 1566.75,-185 1566.75,-179 1566.75,-179 1566.75,-167 1566.75,-167 1566.75,-161 1572.75,-155 1578.75,-155 1578.75,-155 1693,-155 1693,-155 1699,-155 1705,-161 1705,-167 1705,-167 1705,-179 1705,-179 1705,-185 1699,-191 1693,-191"/>
<text text-anchor="middle" x="1635.88" y="-168.7" font-family="Times,serif" font-size="14.00">ops&#45;hub_split_split</text>
</g>
<!-- SERVICE:report&#45;export -->
<g id="node9" class="node">
<title>SERVICE:report&#45;export</title>
<path fill="#eef6ff" stroke="black" d="M1951.62,-218C1951.62,-218 1872.62,-218 1872.62,-218 1866.62,-218 1860.62,-212 1860.62,-206 1860.62,-206 1860.62,-194 1860.62,-194 1860.62,-188 1866.62,-182 1872.62,-182 1872.62,-182 1951.62,-182 1951.62,-182 1957.62,-182 1963.62,-188 1963.62,-194 1963.62,-194 1963.62,-206 1963.62,-206 1963.62,-212 1957.62,-218 1951.62,-218"/>
<text text-anchor="middle" x="1912.12" y="-195.7" font-family="Times,serif" font-size="14.00">report&#45;export</text>
</g>
<!-- SERVICE:ops&#45;hub_split_split&#45;&gt;SERVICE:report&#45;export -->
<g id="edge10" class="edge">
<title>SERVICE:ops&#45;hub_split_split&#45;&gt;SERVICE:report&#45;export</title>
<g id="a_edge10"><a xlink:title="edge#9">
<path fill="none" stroke="black" d="M1705.37,-179.74C1749.41,-184.08 1806.16,-189.67 1848.91,-193.87"/>
<polygon fill="black" stroke="black" points="1848.49,-197.35 1858.79,-194.85 1849.18,-190.38 1848.49,-197.35"/>
</a>
</g>
<text text-anchor="middle" x="1781.88" y="-196.7" font-family="Times,serif" font-size="14.00">CALLS [rest] (sync)</text>
</g>
<!-- SERVICE:metrics&#45;agent -->
<g id="node18" class="node">
<title>SERVICE:metrics&#45;agent</title>
<path fill="#eef6ff" stroke="black" d="M1953.5,-164C1953.5,-164 1870.75,-164 1870.75,-164 1864.75,-164 1858.75,-158 1858.75,-152 1858.75,-152 1858.75,-140 1858.75,-140 1858.75,-134 1864.75,-128 1870.75,-128 1870.75,-128 1953.5,-128 1953.5,-128 1959.5,-128 1965.5,-134 1965.5,-140 1965.5,-140 1965.5,-152 1965.5,-152 1965.5,-158 1959.5,-164 1953.5,-164"/>
<text text-anchor="middle" x="1912.12" y="-141.7" font-family="Times,serif" font-size="14.00">metrics&#45;agent</text>
</g>
<!-- SERVICE:ops&#45;hub_split_split&#45;&gt;SERVICE:metrics&#45;agent -->
<g id="edge9" class="edge">
<title>SERVICE:ops&#45;hub_split_split&#45;&gt;SERVICE:metrics&#45;agent</title>
<g id="a_edge9"><a xlink:title="edge#8">
<path fill="none" stroke="black" d="M1705.45,-162.17C1711.38,-161.38 1717.29,-160.64 1723,-160 1764.11,-155.37 1810.46,-151.9 1846.87,-149.58"/>
<polygon fill="black" stroke="black" points="1847.04,-153.07 1856.81,-148.96 1846.61,-146.09 1847.04,-153.07"/>
</a>
</g>
<text text-anchor="middle" x="1781.88" y="-164.7" font-family="Times,serif" font-size="14.00">CALLS [rest] (sync)</text>
</g>
<!-- SERVICE:ops&#45;hub_split&#45;2 -->
<g id="node5" class="node">
<title>SERVICE:ops&#45;hub_split&#45;2</title>
<path fill="#eef6ff" stroke="black" d="M866.5,-158C866.5,-158 773.25,-158 773.25,-158 767.25,-158 761.25,-152 761.25,-146 761.25,-146 761.25,-134 761.25,-134 761.25,-128 767.25,-122 773.25,-122 773.25,-122 866.5,-122 866.5,-122 872.5,-122 878.5,-128 878.5,-134 878.5,-134 878.5,-146 878.5,-146 878.5,-152 872.5,-158 866.5,-158"/>
<text text-anchor="middle" x="819.88" y="-135.7" font-family="Times,serif" font-size="14.00">ops&#45;hub_split&#45;2</text>
</g>
<!-- SERVICE:ops&#45;hub_split&#45;1 -->
<g id="node14" class="node">
<title>SERVICE:ops&#45;hub_split&#45;1</title>
<path fill="#eef6ff" stroke="black" d="M1136,-192C1136,-192 1044.25,-192 1044.25,-192 1038.25,-192 1032.25,-186 1032.25,-180 1032.25,-180 1032.25,-168 1032.25,-168 1032.25,-162 1038.25,-156 1044.25,-156 1044.25,-156 1136,-156 1136,-156 1142,-156 1148,-162 1148,-168 1148,-168 1148,-180 1148,-180 1148,-186 1142,-192 1136,-192"/>
<text text-anchor="middle" x="1090.12" y="-169.7" font-family="Times,serif" font-size="14.00">ops&#45;hub_split&#45;1</text>
</g>
<!-- SERVICE:ops&#45;hub_split&#45;2&#45;&gt;SERVICE:ops&#45;hub_split&#45;1 -->
<g id="edge15" class="edge">
<title>SERVICE:ops&#45;hub_split&#45;2&#45;&gt;SERVICE:ops&#45;hub_split&#45;1</title>
<g id="a_edge15"><a xlink:title="edge#14">
<path fill="none" stroke="black" d="M878.75,-147.34C920.41,-152.62 976.76,-159.76 1020.65,-165.32"/>
<polygon fill="black" stroke="black" points="1019.95,-168.76 1030.31,-166.55 1020.83,-161.82 1019.95,-168.76"/>
</a>
</g>
<text text-anchor="middle" x="955.38" y="-168.7" font-family="Times,serif" font-size="14.00">CALLS [rest] (sync)</text>
</g>
<!-- SERVICE:sms&#45;gateway -->
<g id="node17" class="node">
<title>SERVICE:sms&#45;gateway</title>
<path fill="#eef6ff" stroke="black" d="M1129.25,-138C1129.25,-138 1051,-138 1051,-138 1045,-138 1039,-132 1039,-126 1039,-126 1039,-114 1039,-114 1039,-108 1045,-102 1051,-102 1051,-102 1129.25,-102 1129.25,-102 1135.25,-102 1141.25,-108 1141.25,-114 1141.25,-114 1141.25,-126 1141.25,-126 1141.25,-132 1135.25,-138 1129.25,-138"/>
<text text-anchor="middle" x="1090.12" y="-115.7" font-family="Times,serif" font-size="14.00">sms&#45;gateway</text>
</g>
<!-- SERVICE:ops&#45;hub_split&#45;2&#45;&gt;SERVICE:sms&#45;gateway -->
<g id="edge6" class="edge">
<title>SERVICE:ops&#45;hub_split&#45;2&#45;&gt;SERVICE:sms&#45;gateway</title>
<g id="a_edge6"><a xlink:title="edge#5">
<path fill="none" stroke="black" d="M878.98,-129.2C884.88,-128.35 890.8,-127.59 896.5,-127 940.09,-122.48 989.49,-120.75 1027.35,-120.15"/>
<polygon fill="black" stroke="black" points="1027.24,-123.65 1037.19,-120.01 1027.14,-116.65 1027.24,-123.65"/>
</a>
</g>
<text text-anchor="middle" x="955.38" y="-131.7" font-family="Times,serif" font-size="14.00">CALLS [rest] (sync)</text>
</g>
<!-- SERVICE:ops&#45;hub_split&#45;3 -->
<g id="node6" class="node">
<title>SERVICE:ops&#45;hub_split&#45;3</title>
<path fill="#eef6ff" stroke="black" d="M595.5,-158C595.5,-158 502.25,-158 502.25,-158 496.25,-158 490.25,-152 490.25,-146 490.25,-146 490.25,-134 490.25,-134 490.25,-128 496.25,-122 502.25,-122 502.25,-122 595.5,-122 595.5,-122 601.5,-122 607.5,-128 607.5,-134 607.5,-134 607.5,-146 607.5,-146 607.5,-152 601.5,-158 595.5,-158"/>
<text text-anchor="middle" x="548.88" y="-135.7" font-family="Times,serif" font-size="14.00">ops&#45;hub_split&#45;3</text>
</g>
<!-- SERVICE:ops&#45;hub_split&#45;3&#45;&gt;SERVICE:ops&#45;hub_split&#45;2 -->
<g id="edge17" class="edge">
<title>SERVICE:ops&#45;hub_split&#45;3&#45;&gt;SERVICE:ops&#45;hub_split&#45;2</title>
<g id="a_edge17"><a xlink:title="edge#16">
<path fill="none" stroke="black" d="M607.91,-140C649.45,-140 705.57,-140 749.48,-140"/>
<polygon fill="black" stroke="black" points="749.43,-143.5 759.43,-140 749.43,-136.5 749.43,-143.5"/>
</a>
</g>
<text text-anchor="middle" x="684.38" y="-144.7" font-family="Times,serif" font-size="14.00">CALLS [rest] (sync)</text>
</g>
<!-- SERVICE:admin&#45;console -->
<g id="node7" class="node">
<title>SERVICE:admin&#45;console</title>
<path fill="#eef6ff" stroke="black" d="M100,-90C100,-90 12,-90 12,-90 6,-90 0,-84 0,-78 0,-78 0,-66 0,-66 0,-60 6,-54 12,-54 12,-54 100,-54 100,-54 106,-54 112,-60 112,-66 112,-66 112,-78 112,-78 112,-84 106,-90 100,-90"/>
<text text-anchor="middle" x="56" y="-67.7" font-family="Times,serif" font-size="14.00">admin&#45;console</text>
</g>
<!-- SERVICE:admin&#45;console&#45;&gt;SERVICE:ops&#45;hub -->
<g id="edge4" class="edge">
<title>SERVICE:admin&#45;console&#45;&gt;SERVICE:ops&#45;hub</title>
<g id="a_edge4"><a xlink:title="edge#3">
<path fill="none" stroke="black" d="M112.5,-71.72C150.78,-72.37 202.69,-74.94 247.75,-83 250.18,-83.44 252.66,-83.95 255.15,-84.52"/>
<polygon fill="black" stroke="black" points="254.02,-87.84 264.58,-86.93 255.76,-81.06 254.02,-87.84"/>
</a>
</g>
<text text-anchor="middle" x="188.88" y="-87.7" font-family="Times,serif" font-size="14.00">CALLS [rest] (sync)</text>
</g>
<!-- SERVICE:emailer -->
<g id="node8" class="node">
<title>SERVICE:emailer</title>
<path fill="#eef6ff" stroke="black" d="M568.88,-104C568.88,-104 528.88,-104 528.88,-104 522.88,-104 516.88,-98 516.88,-92 516.88,-92 516.88,-80 516.88,-80 516.88,-74 522.88,-68 528.88,-68 528.88,-68 568.88,-68 568.88,-68 574.88,-68 580.88,-74 580.88,-80 580.88,-80 580.88,-92 580.88,-92 580.88,-98 574.88,-104 568.88,-104"/>
<text text-anchor="middle" x="548.88" y="-81.7" font-family="Times,serif" font-size="14.00">emailer</text>
</g>
<!-- SERVICE:user&#45;profile -->
<g id="node10" class="node">
<title>SERVICE:user&#45;profile</title>
<path fill="#eef6ff" stroke="black" d="M89.12,-306C89.12,-306 22.88,-306 22.88,-306 16.88,-306 10.88,-300 10.88,-294 10.88,-294 10.88,-282 10.88,-282 10.88,-276 16.88,-270 22.88,-270 22.88,-270 89.12,-270 89.12,-270 95.12,-270 101.12,-276 101.12,-282 101.12,-282 101.12,-294 101.12,-294 101.12,-300 95.12,-306 89.12,-306"/>
<text text-anchor="middle" x="56" y="-283.7" font-family="Times,serif" font-size="14.00">user&#45;profile</text>
</g>
<!-- DATABASE:user&#45;db -->
<g id="node21" class="node">
<title>DATABASE:user&#45;db</title>
<path fill="#fff3cd" stroke="black" d="M333.88,-248.73C333.88,-250.53 319.2,-252 301.12,-252 283.05,-252 268.38,-250.53 268.38,-248.73 268.38,-248.73 268.38,-219.27 268.38,-219.27 268.38,-217.47 283.05,-216 301.12,-216 319.2,-216 333.88,-217.47 333.88,-219.27 333.88,-219.27 333.88,-248.73 333.88,-248.73"/>
<path fill="none" stroke="black" d="M333.88,-248.73C333.88,-246.92 319.2,-245.45 301.12,-245.45 283.05,-245.45 268.38,-246.92 268.38,-248.73"/>
<text text-anchor="middle" x="301.12" y="-229.7" font-family="Times,serif" font-size="14.00">user&#45;db</text>
</g>
<!-- SERVICE:user&#45;profile&#45;&gt;DATABASE:user&#45;db -->
<g id="edge11" class="edge">
<title>SERVICE:user&#45;profile&#45;&gt;DATABASE:user&#45;db</title>
<g id="a_edge11"><a xlink:title="edge#10">
<path fill="none" stroke="black" d="M101.59,-283.48C140.67,-278.82 198.72,-270.2 247.75,-256 251.01,-255.06 254.34,-253.97 257.66,-252.79"/>
<polygon fill="black" stroke="black" points="258.62,-256.17 266.72,-249.35 256.13,-249.63 258.62,-256.17"/>
</a>
</g>
<text text-anchor="middle" x="188.88" y="-283.7" font-family="Times,serif" font-size="14.00">CALLS [rest] (sync)</text>
</g>
<!-- SERVICE:preferences -->
<g id="node11" class="node">
<title>SERVICE:preferences</title>
<path fill="#eef6ff" stroke="black" d="M89.5,-252C89.5,-252 22.5,-252 22.5,-252 16.5,-252 10.5,-246 10.5,-240 10.5,-240 10.5,-228 10.5,-228 10.5,-222 16.5,-216 22.5,-216 22.5,-216 89.5,-216 89.5,-216 95.5,-216 101.5,-222 101.5,-228 101.5,-228 101.5,-240 101.5,-240 101.5,-246 95.5,-252 89.5,-252"/>
<text text-anchor="middle" x="56" y="-229.7" font-family="Times,serif" font-size="14.00">preferences</text>
</g>
<!-- SERVICE:preferences&#45;&gt;DATABASE:user&#45;db -->
<g id="edge12" class="edge">
<title>SERVICE:preferences&#45;&gt;DATABASE:user&#45;db</title>
<g id="a_edge12"><a xlink:title="edge#11">
<path fill="none" stroke="black" d="M101.88,-234C145.99,-234 212.88,-234 256.54,-234"/>
<polygon fill="black" stroke="black" points="256.42,-237.5 266.42,-234 256.42,-230.5 256.42,-237.5"/>
</a>
</g>
<text text-anchor="middle" x="188.88" y="-238.7" font-family="Times,serif" font-size="14.00">CALLS [rest] (sync)</text>
</g>
<!-- SERVICE:notifications -->
<g id="node12" class="node">
<title>SERVICE:notifications</title>
<path fill="#eef6ff" stroke="black" d="M92.12,-198C92.12,-198 19.88,-198 19.88,-198 13.88,-198 7.88,-192 7.88,-186 7.88,-186 7.88,-174 7.88,-174 7.88,-168 13.88,-162 19.88,-162 19.88,-162 92.12,-162 92.12,-162 98.12,-162 104.12,-168 104.12,-174 104.12,-174 104.12,-186 104.12,-186 104.12,-192 98.12,-198 92.12,-198"/>
<text text-anchor="middle" x="56" y="-175.7" font-family="Times,serif" font-size="14.00">notifications</text>
</g>
<!-- SERVICE:notifications&#45;&gt;DATABASE:user&#45;db -->
<g id="edge13" class="edge">
<title>SERVICE:notifications&#45;&gt;DATABASE:user&#45;db</title>
<g id="a_edge13"><a xlink:title="edge#12">
<path fill="none" stroke="black" d="M104.32,-184.85C143.34,-189.58 199.85,-198.13 247.75,-212 251.01,-212.94 254.34,-214.03 257.66,-215.21"/>
<polygon fill="black" stroke="black" points="256.13,-218.37 266.72,-218.65 258.62,-211.83 256.13,-218.37"/>
</a>
</g>
<text text-anchor="middle" x="188.88" y="-216.7" font-family="Times,serif" font-size="14.00">CALLS [rest] (sync)</text>
</g>
<!-- SERVICE:ops&#45;hub_split -->
<g id="node13" class="node">
<title>SERVICE:ops&#45;hub_split</title>
<path fill="#eef6ff" stroke="black" d="M1401,-222C1401,-222 1321.25,-222 1321.25,-222 1315.25,-222 1309.25,-216 1309.25,-210 1309.25,-210 1309.25,-198 1309.25,-198 1309.25,-192 1315.25,-186 1321.25,-186 1321.25,-186 1401,-186 1401,-186 1407,-186 1413,-192 1413,-198 1413,-198 1413,-210 1413,-210 1413,-216 1407,-222 1401,-222"/>
<text text-anchor="middle" x="1361.12" y="-199.7" font-family="Times,serif" font-size="14.00">ops&#45;hub_split</text>
</g>
<!-- SERVICE:ops&#45;hub_split&#45;&gt;SERVICE:cache&#45;proxy -->
<g id="edge8" class="edge">
<title>SERVICE:ops&#45;hub_split&#45;&gt;SERVICE:cache&#45;proxy</title>
<g id="a_edge8"><a xlink:title="edge#7">
<path fill="none" stroke="black" d="M1413.43,-208.33C1460.14,-212.27 1529.03,-218.07 1577.54,-222.17"/>
<polygon fill="black" stroke="black" points="1577.03,-225.63 1587.29,-222.99 1577.62,-218.66 1577.03,-225.63"/>
</a>
</g>
<text text-anchor="middle" x="1489.88" y="-223.7" font-family="Times,serif" font-size="14.00">CALLS [rest] (sync)</text>
</g>
<!-- SERVICE:ops&#45;hub_split&#45;&gt;SERVICE:ops&#45;hub_split_split -->
<g id="edge16" class="edge">
<title>SERVICE:ops&#45;hub_split&#45;&gt;SERVICE:ops&#45;hub_split_split</title>
<g id="a_edge16"><a xlink:title="edge#15">
<path fill="none" stroke="black" d="M1413.48,-191.15C1419.36,-189.96 1425.3,-188.87 1431,-188 1471.7,-181.81 1517.38,-178.15 1555.16,-176"/>
<polygon fill="black" stroke="black" points="1555.31,-179.5 1565.11,-175.46 1554.94,-172.51 1555.31,-179.5"/>
</a>
</g>
<text text-anchor="middle" x="1489.88" y="-192.7" font-family="Times,serif" font-size="14.00">CALLS [rest] (sync)</text>
</g>
<!-- SERVICE:ops&#45;hub_split&#45;1&#45;&gt;SERVICE:ops&#45;hub_split -->
<g id="edge14" class="edge">
<title>SERVICE:ops&#45;hub_split&#45;1&#45;&gt;SERVICE:ops&#45;hub_split</title>
<g id="a_edge14"><a xlink:title="edge#13">
<path fill="none" stroke="black" d="M1148.17,-180.36C1192.01,-185.25 1252.5,-192 1297.65,-197.03"/>
<polygon fill="black" stroke="black" points="1297.23,-200.51 1307.56,-198.14 1298.01,-193.55 1297.23,-200.51"/>
</a>
</g>
<text text-anchor="middle" x="1228.62" y="-199.7" font-family="Times,serif" font-size="14.00">CALLS [rest] (async)</text>
</g>
<!-- SERVICE:audit&#45;log -->
<g id="node20" class="node">
<title>SERVICE:audit&#45;log</title>
<path fill="#eef6ff" stroke="black" d="M1386.38,-168C1386.38,-168 1335.88,-168 1335.88,-168 1329.88,-168 1323.88,-162 1323.88,-156 1323.88,-156 1323.88,-144 1323.88,-144 1323.88,-138 1329.88,-132 1335.88,-132 1335.88,-132 1386.38,-132 1386.38,-132 1392.38,-132 1398.38,-138 1398.38,-144 1398.38,-144 1398.38,-156 1398.38,-156 1398.38,-162 1392.38,-168 1386.38,-168"/>
<text text-anchor="middle" x="1361.12" y="-145.7" font-family="Times,serif" font-size="14.00">audit&#45;log</text>
</g>
<!-- SERVICE:ops&#45;hub_split&#45;1&#45;&gt;SERVICE:audit&#45;log -->
<g id="edge7" class="edge">
<title>SERVICE:ops&#45;hub_split&#45;1&#45;&gt;SERVICE:audit&#45;log</title>
<g id="a_edge7"><a xlink:title="edge#6">
<path fill="none" stroke="black" d="M1148.16,-159.89C1154.16,-158.76 1160.18,-157.76 1166,-157 1215.51,-150.55 1272.67,-149.21 1312.08,-149.24"/>
<polygon fill="black" stroke="black" points="1311.93,-152.74 1321.95,-149.28 1311.96,-145.74 1311.93,-152.74"/>
</a>
</g>
<text text-anchor="middle" x="1228.62" y="-161.7" font-family="Times,serif" font-size="14.00">CALLS [rest] (sync)</text>
</g>
<!-- SERVICE:ops&#45;hub&#45;&gt;SERVICE:ops&#45;hub_split&#45;3 -->
<g id="edge18" class="edge">
<title>SERVICE:ops&#45;hub&#45;&gt;SERVICE:ops&#45;hub_split&#45;3</title>
<g id="a_edge18"><a xlink:title="edge#17">
<path fill="none" stroke="black" d="M336.14,-107.19C342.23,-108.54 348.54,-109.87 354.5,-111 395.61,-118.78 441.96,-125.79 478.97,-130.97"/>
<polygon fill="black" stroke="black" points="478.26,-134.4 488.64,-132.31 479.22,-127.47 478.26,-134.4"/>
</a>
</g>
<text text-anchor="middle" x="413.38" y="-134.7" font-family="Times,serif" font-size="14.00">CALLS [rest] (sync)</text>
</g>
<!-- SERVICE:ops&#45;hub&#45;&gt;SERVICE:emailer -->
<g id="edge5" class="edge">
<title>SERVICE:ops&#45;hub&#45;&gt;SERVICE:emailer</title>
<g id="a_edge5"><a xlink:title="edge#4">
<path fill="none" stroke="black" d="M336.18,-94.71C342.27,-94.05 348.57,-93.45 354.5,-93 406.26,-89.1 465.99,-87.36 505.2,-86.59"/>
<polygon fill="black" stroke="black" points="505.24,-90.09 515.17,-86.41 505.11,-83.09 505.24,-90.09"/>
</a>
</g>
<text text-anchor="middle" x="413.38" y="-97.7" font-family="Times,serif" font-size="14.00">CALLS [rest] (sync)</text>
</g>
<!-- SERVICE:pricing -->
<g id="node19" class="node">
<title>SERVICE:pricing</title>
<path fill="#eef6ff" stroke="black" d="M74.12,-36C74.12,-36 37.88,-36 37.88,-36 31.88,-36 25.88,-30 25.88,-24 25.88,-24 25.88,-12 25.88,-12 25.88,-6 31.88,0 37.88,0 37.88,0 74.12,0 74.12,0 80.12,0 86.12,-6 86.12,-12 86.12,-12 86.12,-24 86.12,-24 86.12,-30 80.12,-36 74.12,-36"/>
<text text-anchor="middle" x="56" y="-13.7" font-family="Times,serif" font-size="14.00">pricing</text>
</g>
<!-- SERVICE:pricing&#45;&gt;SERVICE:discount -->
<g id="edge1" class="edge">
<title>SERVICE:pricing&#45;&gt;SERVICE:discount</title>
<g id="a_edge1"><a xlink:title="edge#0">
<path fill="none" stroke="black" d="M86.33,-18C128.07,-18 205.01,-18 254.31,-18"/>
<polygon fill="black" stroke="black" points="254.09,-21.5 264.09,-18 254.09,-14.5 254.09,-21.5"/>
</a>
</g>
<text text-anchor="middle" x="188.88" y="-22.7" font-family="Times,serif" font-size="14.00">CALLS [rest] (sync)</text>
</g>
</g>
</svg>
