<?xml version="1.0" encoding="UTF-8" standalone="no"?>
<!DOCTYPE svg PUBLIC "-//W3C//DTD SVG 1.1//EN"
 "http://www.w3.org/Graphics/SVG/1.1/DTD/svg11.dtd">
<!-- Generated by graphviz version 9.0.0 (20230911.1827)
 -->
<!-- Title: G Pages: 1 -->
<svg width="1320pt" height="333pt"
 viewBox="0.00 0.00 1320.00 333.00" xmlns="http://www.w3.org/2000/svg" xmlns:xlink="http://www.w3.org/1999/xlink">
<g id="graph0" class="graph" transform="scale(1 1) rotate(0) translate(4 329)">
<title>G</title>
<polygon fill="white" stroke="none" points="-4,4 -4,-329 1316,-329 1316,4 -4,4"/>
<text text-anchor="middle" x="656" y="-307.7" font-family="Helvetica,sans-Serif" font-size="14.00">Architecture</text>
<!-- SERVICE:cart -->
<g id="node1" class="node">
<title>SERVICE:cart</title>
<path fill="#eef6ff" stroke="black" d="M536.38,-144C536.38,-144 506.38,-144 506.38,-144 500.38,-144 494.38,-138 494.38,-132 494.38,-132 494.38,-120 494.38,-120 494.38,-114 500.38,-108 506.38,-108 506.38,-108 536.38,-108 536.38,-108 542.38,-108 548.38,-114 548.38,-120 548.38,-120 548.38,-132 548.38,-132 548.38,-138 542.38,-144 536.38,-144"/>
<text text-anchor="middle" x="521.38" y="-121.7" font-family="Times,serif" font-size="14.00">cart</text>
</g>
<!-- DATABASE:shared&#45;db -->
<g id="node4" class="node">
<title>DATABASE:shared&#45;db</title>
<path fill="#fff3cd" stroke="black" d="M1312,-168.73C1312,-170.53 1293.62,-172 1271,-172 1248.38,-172 1230,-170.53 1230,-168.73 1230,-168.73 1230,-139.27 1230,-139.27 1230,-137.47 1248.38,-136 1271,-136 1293.62,-136 1312,-137.47 1312,-139.27 1312,-139.27 1312,-168.73 1312,-168.73"/>
<path fill="none" stroke="black" d="M1312,-168.73C1312,-166.92 1293.62,-165.45 1271,-165.45 1248.38,-165.45 1230,-166.92 1230,-168.73"/>
<text text-anchor="middle" x="1271" y="-149.7" font-family="Times,serif" font-size="14.00">shared&#45;db</text>
</g>
<!-- SERVICE:cart&#45;&gt;DATABASE:shared&#45;db -->
<g id="edge8" class="edge">
<title>SERVICE:cart&#45;&gt;DATABASE:shared&#45;db</title>
<g id="a_edge8"><a xlink:title="edge#7">
<path fill="none" stroke="black" d="M548.54,-126.98C657,-131.04 1072.31,-146.6 1218.62,-152.08"/>
<polygon fill="black" stroke="black" points="1218.27,-155.56 1228.39,-152.44 1218.53,-148.57 1218.27,-155.56"/>
</a>
</g>
<text text-anchor="middle" x="881.62" y="-145.7" font-family="Times,serif" font-size="14.00">CALLS [rest] (sync)</text>
</g>
<!-- SERVICE:catalog -->
<g id="node11" class="node">
<title>SERVICE:catalog</title>
<path fill="#eef6ff" stroke="black" d="M792.75,-110C792.75,-110 753.5,-110 753.5,-110 747.5,-110 741.5,-104 741.5,-98 741.5,-98 741.5,-86 741.5,-86 741.5,-80 747.5,-74 753.5,-74 753.5,-74 792.75,-74 792.75,-74 798.75,-74 804.75,-80 804.75,-86 804.75,-86 804.75,-98 804.75,-98 804.75,-104 798.75,-110 792.75,-110"/>
<text text-anchor="middle" x="773.12" y="-87.7" font-family="Times,serif" font-size="14.00">catalog</text>
</g>
<!-- SERVICE:cart&#45;&gt;SERVICE:catalog -->
<g id="edge4" class="edge">
<title>SERVICE:cart&#45;&gt;SERVICE:catalog</title>
<g id="a_edge4"><a xlink:title="edge#3">
<path fill="none" stroke="black" d="M548.81,-117.8C563.28,-113.62 581.6,-108.84 598.25,-106 642.77,-98.4 694.43,-94.9 729.8,-93.31"/>
<polygon fill="black" stroke="black" points="729.78,-96.81 739.63,-92.9 729.49,-89.82 729.78,-96.81"/>
</a>
</g>
<text text-anchor="middle" x="660.88" y="-110.7" font-family="Times,serif" font-size="14.00">CALLS [rest] (sync)</text>
</g>
<!-- SERVICE:payments -->
<g id="node2" class="node">
<title>SERVICE:payments</title>
<path fill="#eef6ff" stroke="black" d="M548.88,-253C548.88,-253 493.88,-253 493.88,-253 487.88,-253 481.88,-247 481.88,-241 481.88,-241 481.88,-229 481.88,-229 481.88,-223 487.88,-217 493.88,-217 493.88,-217 548.88,-217 548.88,-217 554.88,-217 560.88,-223 560.88,-229 560.88,-229 560.88,-241 560.88,-241 560.88,-247 554.88,-253 548.88,-253"/>
<text text-anchor="middle" x="521.38" y="-230.7" font-family="Times,serif" font-size="14.00">payments</text>
</g>
<!-- SERVICE:orders -->
<g id="node6" class="node">
<title>SERVICE:orders</title>
<path fill="#eef6ff" stroke="black" d="M789.75,-253C789.75,-253 756.5,-253 756.5,-253 750.5,-253 744.5,-247 744.5,-241 744.5,-241 744.5,-229 744.5,-229 744.5,-223 750.5,-217 756.5,-217 756.5,-217 789.75,-217 789.75,-217 795.75,-217 801.75,-223 801.75,-229 801.75,-229 801.75,-241 801.75,-241 801.75,-247 795.75,-253 789.75,-253"/>
<text text-anchor="middle" x="773.12" y="-230.7" font-family="Times,serif" font-size="14.00">orders</text>
</g>
<!-- SERVICE:payments&#45;&gt;SERVICE:orders -->
<g id="edge6" class="edge">
<title>SERVICE:payments&#45;&gt;SERVICE:orders</title>
<g id="a_edge6"><a xlink:title="edge#5">
<path fill="none" stroke="black" d="M561.12,-235C607.86,-235 685.97,-235 732.91,-235"/>
<polygon fill="black" stroke="black" points="732.62,-238.5 742.62,-235 732.62,-231.5 732.62,-238.5"/>
</a>
</g>
<text text-anchor="middle" x="660.88" y="-239.7" font-family="Times,serif" font-size="14.00">CALLS [rest] (async)</text>
</g>
<!-- SERVICE:inventory -->
<g id="node3" class="node">
<title>SERVICE:inventory</title>
<path fill="#eef6ff" stroke="black" d="M1043.38,-256C1043.38,-256 991.38,-256 991.38,-256 985.38,-256 979.38,-250 979.38,-244 979.38,-244 979.38,-232 979.38,-232 979.38,-226 985.38,-220 991.38,-220 991.38,-220 1043.38,-220 1043.38,-220 1049.38,-220 1055.38,-226 1055.38,-232 1055.38,-232 1055.38,-244 1055.38,-244 1055.38,-250 1049.38,-256 1043.38,-256"/>
<text text-anchor="middle" x="1017.38" y="-233.7" font-family="Times,serif" font-size="14.00">inventory</text>
</g>
<!-- SERVICE:inventory&#45;&gt;DATABASE:shared&#45;db -->
<g id="edge10" class="edge">
<title>SERVICE:inventory&#45;&gt;DATABASE:shared&#45;db</title>
<g id="a_edge10"><a xlink:title="edge#9">
<path fill="none" stroke="black" d="M1055.83,-234.5C1095.91,-229.71 1160.65,-218.94 1212,-196 1221.65,-191.69 1231.29,-185.61 1239.85,-179.41"/>
<polygon fill="black" stroke="black" points="1241.96,-182.2 1247.81,-173.37 1237.73,-176.63 1241.96,-182.2"/>
</a>
</g>
<text text-anchor="middle" x="1153.12" y="-232.7" font-family="Times,serif" font-size="14.00">CALLS [rest] (sync)</text>
</g>
<!-- SERVICE:web&#45;ui_split -->
<g id="node5" class="node">
<title>SERVICE:web&#45;ui_split</title>
<path fill="#eef6ff" stroke="black" d="M296.75,-271C296.75,-271 226,-271 226,-271 220,-271 214,-265 214,-259 214,-259 214,-247 214,-247 214,-241 220,-235 226,-235 226,-235 296.75,-235 296.75,-235 302.75,-235 308.75,-241 308.75,-247 308.75,-247 308.75,-259 308.75,-259 308.75,-265 302.75,-271 296.75,-271"/>
<text text-anchor="middle" x="261.38" y="-248.7" font-family="Times,serif" font-size="14.00">web&#45;ui_split</text>
</g>
<!-- SERVICE:web&#45;ui_split&#45;&gt;SERVICE:cart -->
<g id="edge1" class="edge">
<title>SERVICE:web&#45;ui_split&#45;&gt;SERVICE:cart</title>
<g id="a_edge1"><a xlink:title="edge#0">
<path fill="none" stroke="black" d="M309.18,-235.16C315.04,-233.25 321,-231.48 326.75,-230 378.09,-216.8 404.01,-245.22 444.5,-211 463.5,-194.94 446.54,-177.08 462.5,-158 468.35,-151 476.15,-145.27 484.11,-140.68"/>
<polygon fill="black" stroke="black" points="485.55,-143.88 492.82,-136.18 482.33,-137.66 485.55,-143.88"/>
</a>
</g>
<text text-anchor="middle" x="385.62" y="-234.7" font-family="Times,serif" font-size="14.00">CALLS [rest] (sync)</text>
</g>
<!-- SERVICE:web&#45;ui_split&#45;&gt;SERVICE:payments -->
<g id="edge3" class="edge">
<title>SERVICE:web&#45;ui_split&#45;&gt;SERVICE:payments</title>
<g id="a_edge3"><a xlink:title="edge#2">
<path fill="none" stroke="black" d="M308.95,-255.49C345.84,-256.8 398.63,-257.2 444.5,-252 452.99,-251.04 461.91,-249.51 470.54,-247.76"/>
<polygon fill="black" stroke="black" points="471.14,-251.21 480.18,-245.68 469.66,-244.37 471.14,-251.21"/>
</a>
</g>
<text text-anchor="middle" x="385.62" y="-260.7" font-family="Times,serif" font-size="14.00">CALLS [rest] (sync)</text>
</g>
<!-- SERVICE:web&#45;ui_split&#45;&gt;SERVICE:orders -->
<g id="edge2" class="edge">
<title>SERVICE:web&#45;ui_split&#45;&gt;SERVICE:orders</title>
<g id="a_edge2"><a xlink:title="edge#1">
<path fill="none" stroke="black" d="M303.27,-271.46C310.93,-274.18 318.97,-276.54 326.75,-278 416.41,-294.8 692.21,-264.99 723.5,-257 726.85,-256.15 730.25,-255.07 733.63,-253.86"/>
<polygon fill="black" stroke="black" points="734.8,-257.16 742.78,-250.2 732.2,-250.66 734.8,-257.16"/>
</a>
</g>
<text text-anchor="middle" x="521.38" y="-285.7" font-family="Times,serif" font-size="14.00">CALLS [rest] (sync)</text>
</g>
<!-- SERVICE:orders&#45;&gt;SERVICE:inventory -->
<g id="edge5" class="edge">
<title>SERVICE:orders&#45;&gt;SERVICE:inventory</title>
<g id="a_edge5"><a xlink:title="edge#4">
<path fill="none" stroke="black" d="M801.91,-235.34C842.3,-235.84 917.81,-236.78 967.59,-237.4"/>
<polygon fill="black" stroke="black" points="967.48,-240.89 977.52,-237.52 967.56,-233.9 967.48,-240.89"/>
</a>
</g>
<text text-anchor="middle" x="881.62" y="-241.7" font-family="Times,serif" font-size="14.00">CALLS [rest] (sync)</text>
</g>
<!-- SERVICE:orders_split -->
<g id="node7" class="node">
<title>SERVICE:orders_split</title>
<path fill="#eef6ff" stroke="black" d="M1051.25,-202C1051.25,-202 983.5,-202 983.5,-202 977.5,-202 971.5,-196 971.5,-190 971.5,-190 971.5,-178 971.5,-178 971.5,-172 977.5,-166 983.5,-166 983.5,-166 1051.25,-166 1051.25,-166 1057.25,-166 1063.25,-172 1063.25,-178 1063.25,-178 1063.25,-190 1063.25,-190 1063.25,-196 1057.25,-202 1051.25,-202"/>
<text text-anchor="middle" x="1017.38" y="-179.7" font-family="Times,serif" font-size="14.00">orders_split</text>
</g>
<!-- SERVICE:orders&#45;&gt;SERVICE:orders_split -->
<g id="edge12" class="edge">
<title>SERVICE:orders&#45;&gt;SERVICE:orders_split</title>
<g id="a_edge12"><a xlink:title="edge#11">
<path fill="none" stroke="black" d="M802.16,-220.73C808.78,-217.81 815.91,-215.02 822.75,-213 867.76,-199.73 920.53,-192.34 959.6,-188.34"/>
<polygon fill="black" stroke="black" points="959.89,-191.83 969.5,-187.38 959.21,-184.86 959.89,-191.83"/>
</a>
</g>
<text text-anchor="middle" x="881.62" y="-217.7" font-family="Times,serif" font-size="14.00">CALLS [rest] (sync)</text>
</g>
<!-- SERVICE:orders_split&#45;&gt;DATABASE:shared&#45;db -->
<g id="edge9" class="edge">
<title>SERVICE:orders_split&#45;&gt;DATABASE:shared&#45;db</title>
<g id="a_edge9"><a xlink:title="edge#8">
<path fill="none" stroke="black" d="M1063.65,-178.6C1107.13,-173.42 1172.73,-165.6 1218.25,-160.17"/>
<polygon fill="black" stroke="black" points="1218.64,-163.65 1228.15,-158.99 1217.81,-156.7 1218.64,-163.65"/>
</a>
</g>
<text text-anchor="middle" x="1153.12" y="-178.7" font-family="Times,serif" font-size="14.00">CALLS [rest] (sync)</text>
</g>
<!-- SERVICE:bff -->
<g id="node8" class="node">
<title>SERVICE:bff</title>
<path fill="#eef6ff" stroke="black" d="M276.38,-161C276.38,-161 246.38,-161 246.38,-161 240.38,-161 234.38,-155 234.38,-149 234.38,-149 234.38,-137 234.38,-137 234.38,-131 240.38,-125 246.38,-125 246.38,-125 276.38,-125 276.38,-125 282.38,-125 288.38,-131 288.38,-137 288.38,-137 288.38,-149 288.38,-149 288.38,-155 282.38,-161 276.38,-161"/>
<text text-anchor="middle" x="261.38" y="-138.7" font-family="Times,serif" font-size="14.00">bff</text>
</g>
<!-- SERVICE:bff&#45;&gt;SERVICE:cart -->
<g id="edge17" class="edge">
<title>SERVICE:bff&#45;&gt;SERVICE:cart</title>
<g id="a_edge17"><a xlink:title="edge#16">
<path fill="none" stroke="black" d="M288.73,-134.94C300.28,-131.8 314.07,-128.59 326.75,-127 380.56,-120.27 443.43,-121.63 482.59,-123.55"/>
<polygon fill="black" stroke="black" points="482.26,-127.04 492.43,-124.07 482.63,-120.05 482.26,-127.04"/>
</a>
</g>
<text text-anchor="middle" x="385.62" y="-131.7" font-family="Times,serif" font-size="14.00">CALLS [rest] (sync)</text>
</g>
<!-- SERVICE:bff&#45;&gt;SERVICE:payments -->
<g id="edge14" class="edge">
<title>SERVICE:bff&#45;&gt;SERVICE:payments</title>
<g id="a_edge14"><a xlink:title="edge#13">
<path fill="none" stroke="black" d="M288.86,-155.55C300.32,-160.59 313.99,-166.12 326.75,-170 377.77,-185.5 394.4,-174.75 444.5,-193 448.42,-194.43 463.2,-202.51 478.69,-211.21"/>
<polygon fill="black" stroke="black" points="476.58,-214.04 487.01,-215.91 480.03,-207.94 476.58,-214.04"/>
</a>
</g>
<text text-anchor="middle" x="385.62" y="-197.7" font-family="Times,serif" font-size="14.00">CALLS [rest] (sync)</text>
</g>
<!-- SERVICE:bff&#45;&gt;SERVICE:orders -->
<g id="edge18" class="edge">
<title>SERVICE:bff&#45;&gt;SERVICE:orders</title>
<g id="a_edge18"><a xlink:title="edge#17">
<path fill="none" stroke="black" d="M288.87,-146.16C343.57,-152.84 472.85,-169.5 580.25,-190 633.78,-200.22 694.98,-215.14 733.58,-224.96"/>
<polygon fill="black" stroke="black" points="732.3,-228.24 742.85,-227.33 734.03,-221.46 732.3,-228.24"/>
</a>
</g>
<text text-anchor="middle" x="521.38" y="-194.7" font-family="Times,serif" font-size="14.00">CALLS [rest] (sync)</text>
</g>
<!-- SERVICE:auth -->
<g id="node10" class="node">
<title>SERVICE:auth</title>
<path fill="#eef6ff" stroke="black" d="M536.38,-36C536.38,-36 506.38,-36 506.38,-36 500.38,-36 494.38,-30 494.38,-24 494.38,-24 494.38,-12 494.38,-12 494.38,-6 500.38,0 506.38,0 506.38,0 536.38,0 536.38,0 542.38,0 548.38,-6 548.38,-12 548.38,-12 548.38,-24 548.38,-24 548.38,-30 542.38,-36 536.38,-36"/>
<text text-anchor="middle" x="521.38" y="-13.7" font-family="Times,serif" font-size="14.00">auth</text>
</g>
<!-- SERVICE:bff&#45;&gt;SERVICE:auth -->
<g id="edge15" class="edge">
<title>SERVICE:bff&#45;&gt;SERVICE:auth</title>
<g id="a_edge15"><a xlink:title="edge#14">
<path fill="none" stroke="black" d="M268.26,-124.5C276.92,-100.59 295.54,-59.69 326.75,-40 374.12,-10.12 441.2,-9.69 482.68,-13.11"/>
<polygon fill="black" stroke="black" points="482.13,-16.57 492.41,-14.04 482.79,-9.6 482.13,-16.57"/>
</a>
</g>
<text text-anchor="middle" x="385.62" y="-44.7" font-family="Times,serif" font-size="14.00">CALLS [rest] (sync)</text>
</g>
<!-- SERVICE:bff&#45;&gt;SERVICE:catalog -->
<g id="edge16" class="edge">
<title>SERVICE:bff&#45;&gt;SERVICE:catalog</title>
<g id="a_edge16"><a xlink:title="edge#15">
<path fill="none" stroke="black" d="M288.59,-131.7C326.22,-116.22 398.12,-89.39 462.5,-81 557.51,-68.62 670.2,-78.79 729.98,-86.13"/>
<polygon fill="black" stroke="black" points="729.34,-89.58 739.7,-87.36 730.22,-82.63 729.34,-89.58"/>
</a>
</g>
<text text-anchor="middle" x="521.38" y="-85.7" font-family="Times,serif" font-size="14.00">CALLS [rest] (sync)</text>
</g>
<!-- SERVICE:web&#45;ui -->
<g id="node9" class="node">
<title>SERVICE:web&#45;ui</title>
<path fill="#eef6ff" stroke="black" d="M48.25,-197C48.25,-197 12,-197 12,-197 6,-197 0,-191 0,-185 0,-185 0,-173 0,-173 0,-167 6,-161 12,-161 12,-161 48.25,-161 48.25,-161 54.25,-161 60.25,-167 60.25,-173 60.25,-173 60.25,-185 60.25,-185 60.25,-191 54.25,-197 48.25,-197"/>
<text text-anchor="middle" x="30.12" y="-174.7" font-family="Times,serif" font-size="14.00">web&#45;ui</text>
</g>
<!-- SERVICE:web&#45;ui&#45;&gt;SERVICE:web&#45;ui_split -->
<g id="edge11" class="edge">
<title>SERVICE:web&#45;ui&#45;&gt;SERVICE:web&#45;ui_split</title>
<g id="a_edge11"><a xlink:title="edge#10">
<path fill="none" stroke="black" d="M60.63,-188.52C96.49,-200.1 157.82,-219.9 203.08,-234.51"/>
<polygon fill="black" stroke="black" points="201.9,-237.8 212.49,-237.54 204.05,-231.14 201.9,-237.8"/>
</a>
</g>
<text text-anchor="middle" x="137.12" y="-235.7" font-family="Times,serif" font-size="14.00">CALLS [rest] (sync)</text>
</g>
<!-- SERVICE:web&#45;ui&#45;&gt;SERVICE:bff -->
<g id="edge13" class="edge">
<title>SERVICE:web&#45;ui&#45;&gt;SERVICE:bff</title>
<g id="a_edge13"><a xlink:title="edge#12">
<path fill="none" stroke="black" d="M60.7,-171.65C66.5,-170.34 72.55,-169.05 78.25,-168 127.95,-158.81 185.85,-151.42 222.79,-147.13"/>
<polygon fill="black" stroke="black" points="222.97,-150.63 232.51,-146.01 222.18,-143.67 222.97,-150.63"/>
</a>
</g>
<text text-anchor="middle" x="137.12" y="-172.7" font-family="Times,serif" font-size="14.00">CALLS [rest] (sync)</text>
</g>
<!-- SERVICE:catalog&#45;&gt;DATABASE:shared&#45;db -->
<g id="edge7" class="edge">
<title>SERVICE:catalog&#45;&gt;DATABASE:shared&#45;db</title>
<g id="a_edge7"><a xlink:title="edge#6">
<path fill="none" stroke="black" d="M805.02,-89.49C877.87,-84.58 1065.3,-77.88 1212,-124 1218.17,-125.94 1224.46,-128.5 1230.53,-131.31"/>
<polygon fill="black" stroke="black" points="1228.57,-134.25 1239.09,-135.55 1231.68,-127.98 1228.57,-134.25"/>
</a>
</g>
<text text-anchor="middle" x="1017.38" y="-99.7" font-family="Times,serif" font-size="14.00">CALLS [rest] (sync)</text>
</g>
</g>
</svg>
