<?xml version="1.0" encoding="UTF-8" standalone="no"?>
<!DOCTYPE svg PUBLIC "-//W3C//DTD SVG 1.1//EN"
 "http://www.w3.org/Graphics/SVG/1.1/DTD/svg11.dtd">
<!-- Generated by graphviz version 9.0.0 (20230911.1827)
 -->
<!-- Title: G Pages: 1 -->
<svg width="1247pt" height="213pt"
 viewBox="0.00 0.00 1246.50 213.12" xmlns="http://www.w3.org/2000/svg" xmlns:xlink="http://www.w3.org/1999/xlink">
<g id="graph0" class="graph" transform="scale(1 1) rotate(0) translate(4 209.12)">
<title>G</title>
<polygon fill="white" stroke="none" points="-4,4 -4,-209.12 1242.5,-209.12 1242.5,4 -4,4"/>
<text text-anchor="middle" x="619.25" y="-187.82" font-family="Helvetica,sans-Serif" font-size="14.00">Architecture</text>
<!-- SERVICE:orders -->
<g id="node1" class="node">
<title>SERVICE:orders</title>
<path fill="#eef6ff" stroke="black" d="M726.75,-49.12C726.75,-49.12 693.5,-49.12 693.5,-49.12 687.5,-49.12 681.5,-43.12 681.5,-37.12 681.5,-37.12 681.5,-25.12 681.5,-25.12 681.5,-19.12 687.5,-13.12 693.5,-13.12 693.5,-13.12 726.75,-13.12 726.75,-13.12 732.75,-13.12 738.75,-19.12 738.75,-25.12 738.75,-25.12 738.75,-37.12 738.75,-37.12 738.75,-43.12 732.75,-49.12 726.75,-49.12"/>
<text text-anchor="middle" x="710.12" y="-26.82" font-family="Times,serif" font-size="14.00">orders</text>
</g>
<!-- SERVICE:payments -->
<g id="node3" class="node">
<title>SERVICE:payments</title>
<path fill="#eef6ff" stroke="black" d="M978.88,-101.12C978.88,-101.12 923.88,-101.12 923.88,-101.12 917.88,-101.12 911.88,-95.12 911.88,-89.12 911.88,-89.12 911.88,-77.12 911.88,-77.12 911.88,-71.12 917.88,-65.12 923.88,-65.12 923.88,-65.12 978.88,-65.12 978.88,-65.12 984.88,-65.12 990.88,-71.12 990.88,-77.12 990.88,-77.12 990.88,-89.12 990.88,-89.12 990.88,-95.12 984.88,-101.12 978.88,-101.12"/>
<text text-anchor="middle" x="951.38" y="-78.82" font-family="Times,serif" font-size="14.00">payments</text>
</g>
<!-- SERVICE:orders&#45;&gt;SERVICE:payments -->
<g id="edge6" class="edge">
<title>SERVICE:orders&#45;&gt;SERVICE:payments</title>
<g id="a_edge6"><a xlink:title="edge#5">
<path fill="none" stroke="black" d="M739.17,-34.09C771.95,-37.91 827.68,-45.46 874.5,-57.12 883.05,-59.25 892.01,-61.91 900.65,-64.72"/>
<polygon fill="black" stroke="black" points="899.35,-67.97 909.95,-67.84 901.58,-61.34 899.35,-67.97"/>
</a>
</g>
<text text-anchor="middle" x="815.62" y="-61.82" font-family="Times,serif" font-size="14.00">CALLS [rest] (sync)</text>
</g>
<!-- DATABASE:database -->
<g id="node4" class="node">
<title>DATABASE:database</title>
<path fill="#fff3cd" stroke="black" d="M1238.5,-37.85C1238.5,-39.65 1221.8,-41.12 1201.25,-41.12 1180.7,-41.12 1164,-39.65 1164,-37.85 1164,-37.85 1164,-8.39 1164,-8.39 1164,-6.59 1180.7,-5.12 1201.25,-5.12 1221.8,-5.12 1238.5,-6.59 1238.5,-8.39 1238.5,-8.39 1238.5,-37.85 1238.5,-37.85"/>
<path fill="none" stroke="black" d="M1238.5,-37.85C1238.5,-36.04 1221.8,-34.57 1201.25,-34.57 1180.7,-34.57 1164,-36.04 1164,-37.85"/>
<text text-anchor="middle" x="1201.25" y="-18.82" font-family="Times,serif" font-size="14.00">database</text>
</g>
<!-- SERVICE:orders&#45;&gt;DATABASE:database -->
<g id="edge2" class="edge">
<title>SERVICE:orders&#45;&gt;DATABASE:database</title>
<g id="a_edge2"><a xlink:title="edge#1">
<path fill="none" stroke="black" d="M739.18,-30.66C819.53,-29.35 1051.22,-25.56 1152.22,-23.91"/>
<polygon fill="black" stroke="black" points="1152.13,-27.41 1162.07,-23.74 1152.02,-20.41 1152.13,-27.41"/>
</a>
</g>
<text text-anchor="middle" x="951.38" y="-31.82" font-family="Times,serif" font-size="14.00">CALLS [rest] (sync)</text>
</g>
<!-- SERVICE:restaurants -->
<g id="node2" class="node">
<title>SERVICE:restaurants</title>
<path fill="#eef6ff" stroke="black" d="M515.75,-49.12C515.75,-49.12 451,-49.12 451,-49.12 445,-49.12 439,-43.12 439,-37.12 439,-37.12 439,-25.12 439,-25.12 439,-19.12 445,-13.12 451,-13.12 451,-13.12 515.75,-13.12 515.75,-13.12 521.75,-13.12 527.75,-19.12 527.75,-25.12 527.75,-25.12 527.75,-37.12 527.75,-37.12 527.75,-43.12 521.75,-49.12 515.75,-49.12"/>
<text text-anchor="middle" x="483.38" y="-26.82" font-family="Times,serif" font-size="14.00">restaurants</text>
</g>
<!-- SERVICE:restaurants&#45;&gt;SERVICE:orders -->
<g id="edge5" class="edge">
<title>SERVICE:restaurants&#45;&gt;SERVICE:orders</title>
<g id="a_edge5"><a xlink:title="edge#4">
<path fill="none" stroke="black" d="M528.24,-31.12C569.43,-31.12 630.47,-31.12 670.03,-31.12"/>
<polygon fill="black" stroke="black" points="669.81,-34.62 679.81,-31.12 669.81,-27.62 669.81,-34.62"/>
</a>
</g>
<text text-anchor="middle" x="604.62" y="-35.82" font-family="Times,serif" font-size="14.00">CALLS [rest] (sync)</text>
</g>
<!-- SERVICE:restaurants&#45;&gt;DATABASE:database -->
<g id="edge3" class="edge">
<title>SERVICE:restaurants&#45;&gt;DATABASE:database</title>
<g id="a_edge3"><a xlink:title="edge#2">
<path fill="none" stroke="black" d="M528.04,-23.4C567.87,-16.77 628.43,-7.74 681.5,-4.12 854.64,7.68 1060.81,-9.02 1152.36,-18.02"/>
<polygon fill="black" stroke="black" points="1151.93,-21.5 1162.22,-19.01 1152.62,-14.53 1151.93,-21.5"/>
</a>
</g>
<text text-anchor="middle" x="815.62" y="-4.82" font-family="Times,serif" font-size="14.00">CALLS [rest] (sync)</text>
</g>
<!-- SERVICE:payments&#45;&gt;DATABASE:database -->
<g id="edge4" class="edge">
<title>SERVICE:payments&#45;&gt;DATABASE:database</title>
<g id="a_edge4"><a xlink:title="edge#3">
<path fill="none" stroke="black" d="M991.37,-74.09C1030.51,-64.97 1092.51,-50.37 1146,-37.12 1148.12,-36.59 1150.29,-36.05 1152.49,-35.5"/>
<polygon fill="black" stroke="black" points="1153.21,-38.93 1162.04,-33.08 1151.48,-32.14 1153.21,-38.93"/>
</a>
</g>
<text text-anchor="middle" x="1087.12" y="-68.82" font-family="Times,serif" font-size="14.00">CALLS [rest] (sync)</text>
</g>
<!-- SERVICE:web page_split -->
<g id="node5" class="node">
<title>SERVICE:web page_split</title>
<path fill="#eef6ff" stroke="black" d="M406.12,-148.12C406.12,-148.12 318.12,-148.12 318.12,-148.12 312.12,-148.12 306.12,-142.12 306.12,-136.12 306.12,-136.12 306.12,-124.12 306.12,-124.12 306.12,-118.12 312.12,-112.12 318.12,-112.12 318.12,-112.12 406.12,-112.12 406.12,-112.12 412.12,-112.12 418.12,-118.12 418.12,-124.12 418.12,-124.12 418.12,-136.12 418.12,-136.12 418.12,-142.12 412.12,-148.12 406.12,-148.12"/>
<text text-anchor="middle" x="362.12" y="-125.82" font-family="Times,serif" font-size="14.00">web page_split</text>
</g>
<!-- SERVICE:web page_split&#45;&gt;SERVICE:payments -->
<g id="edge1" class="edge">
<title>SERVICE:web page_split&#45;&gt;SERVICE:payments</title>
<g id="a_edge1"><a xlink:title="edge#0">
<path fill="none" stroke="black" d="M418.37,-130.89C512.57,-131.39 710.03,-128.86 874.5,-103.12 883.02,-101.79 891.96,-99.89 900.59,-97.79"/>
<polygon fill="black" stroke="black" points="901.42,-101.19 910.24,-95.32 899.69,-94.41 901.42,-101.19"/>
</a>
</g>
<text text-anchor="middle" x="604.62" y="-133.82" font-family="Times,serif" font-size="14.00">CALLS [rest] (sync)</text>
</g>
<!-- SERVICE:bff -->
<g id="node6" class="node">
<title>SERVICE:bff</title>
<path fill="#eef6ff" stroke="black" d="M273.25,-102.12C273.25,-102.12 243.25,-102.12 243.25,-102.12 237.25,-102.12 231.25,-96.12 231.25,-90.12 231.25,-90.12 231.25,-78.12 231.25,-78.12 231.25,-72.12 237.25,-66.12 243.25,-66.12 243.25,-66.12 273.25,-66.12 273.25,-66.12 279.25,-66.12 285.25,-72.12 285.25,-78.12 285.25,-78.12 285.25,-90.12 285.25,-90.12 285.25,-96.12 279.25,-102.12 273.25,-102.12"/>
<text text-anchor="middle" x="258.25" y="-79.82" font-family="Times,serif" font-size="14.00">bff</text>
</g>
<!-- SERVICE:bff&#45;&gt;SERVICE:restaurants -->
<g id="edge9" class="edge">
<title>SERVICE:bff&#45;&gt;SERVICE:restaurants</title>
<g id="a_edge9"><a xlink:title="edge#8">
<path fill="none" stroke="black" d="M285.36,-65.73C291.05,-62.41 297.18,-59.32 303.25,-57.12 343.38,-42.6 391.34,-36.16 427.53,-33.33"/>
<polygon fill="black" stroke="black" points="427.6,-36.83 437.33,-32.63 427.11,-29.85 427.6,-36.83"/>
</a>
</g>
<text text-anchor="middle" x="362.12" y="-61.82" font-family="Times,serif" font-size="14.00">CALLS [rest] (sync)</text>
</g>
<!-- SERVICE:bff&#45;&gt;SERVICE:payments -->
<g id="edge10" class="edge">
<title>SERVICE:bff&#45;&gt;SERVICE:payments</title>
<g id="a_edge10"><a xlink:title="edge#9">
<path fill="none" stroke="black" d="M285.5,-84.08C388.16,-83.93 763.54,-83.39 900.19,-83.19"/>
<polygon fill="black" stroke="black" points="900.01,-86.69 910.01,-83.18 900,-79.69 900.01,-86.69"/>
</a>
</g>
<text text-anchor="middle" x="604.62" y="-87.82" font-family="Times,serif" font-size="14.00">CALLS [rest] (sync)</text>
</g>
<!-- SERVICE:user -->
<g id="node7" class="node">
<title>SERVICE:user</title>
<path fill="#eef6ff" stroke="black" d="M53.75,-179.12C53.75,-179.12 23.75,-179.12 23.75,-179.12 17.75,-179.12 11.75,-173.12 11.75,-167.12 11.75,-167.12 11.75,-155.12 11.75,-155.12 11.75,-149.12 17.75,-143.12 23.75,-143.12 23.75,-143.12 53.75,-143.12 53.75,-143.12 59.75,-143.12 65.75,-149.12 65.75,-155.12 65.75,-155.12 65.75,-167.12 65.75,-167.12 65.75,-173.12 59.75,-179.12 53.75,-179.12"/>
<text text-anchor="middle" x="38.75" y="-156.82" font-family="Times,serif" font-size="14.00">user</text>
</g>
<!-- SERVICE:web page -->
<g id="node8" class="node">
<title>SERVICE:web page</title>
<path fill="#eef6ff" stroke="black" d="M65.5,-125.12C65.5,-125.12 12,-125.12 12,-125.12 6,-125.12 0,-119.12 0,-113.12 0,-113.12 0,-101.12 0,-101.12 0,-95.12 6,-89.12 12,-89.12 12,-89.12 65.5,-89.12 65.5,-89.12 71.5,-89.12 77.5,-95.12 77.5,-101.12 77.5,-101.12 77.5,-113.12 77.5,-113.12 77.5,-119.12 71.5,-125.12 65.5,-125.12"/>
<text text-anchor="middle" x="38.75" y="-102.82" font-family="Times,serif" font-size="14.00">web page</text>
</g>
<!-- SERVICE:web page&#45;&gt;SERVICE:web page_split -->
<g id="edge7" class="edge">
<title>SERVICE:web page&#45;&gt;SERVICE:web page_split</title>
<g id="a_edge7"><a xlink:title="edge#6">
<path fill="none" stroke="black" d="M77.88,-109.85C131.21,-113.66 228.88,-120.65 294.41,-125.34"/>
<polygon fill="black" stroke="black" points="294.11,-128.83 304.33,-126.06 294.61,-121.85 294.11,-128.83"/>
</a>
</g>
<text text-anchor="middle" x="154.38" y="-122.82" font-family="Times,serif" font-size="14.00">CALLS [rest] (sync)</text>
</g>
<!-- SERVICE:web page&#45;&gt;SERVICE:bff -->
<g id="edge8" class="edge">
<title>SERVICE:web page&#45;&gt;SERVICE:bff</title>
<g id="a_edge8"><a xlink:title="edge#7">
<path fill="none" stroke="black" d="M77.82,-94.09C83.69,-92.5 89.71,-91.09 95.5,-90.12 137.58,-83.05 186.65,-82.25 219.61,-82.78"/>
<polygon fill="black" stroke="black" points="219.4,-86.27 229.47,-82.99 219.55,-79.28 219.4,-86.27"/>
</a>
</g>
<text text-anchor="middle" x="154.38" y="-94.82" font-family="Times,serif" font-size="14.00">CALLS [rest] (sync)</text>
</g>
</g>
</svg>
