<?xml version="1.0" encoding="UTF-8" standalone="no"?>
<!DOCTYPE svg PUBLIC "-//W3C//DTD SVG 1.1//EN"
 "http://www.w3.org/Graphics/SVG/1.1/DTD/svg11.dtd">
<!-- Generated by graphviz version 9.0.0 (20230911.1827)
 -->
<!-- Title: G Pages: 1 -->
<svg width="564pt" height="108pt"
 viewBox="0.00 0.00 564.25 108.00" xmlns="http://www.w3.org/2000/svg" xmlns:xlink="http://www.w3.org/1999/xlink">
<g id="graph0" class="graph" transform="scale(1 1) rotate(0) translate(4 104)">
<title>G</title>
<polygon fill="white" stroke="none" points="-4,4 -4,-104 560.25,-104 560.25,4 -4,4"/>
<text text-anchor="middle" x="278.12" y="-82.7" font-family="Helvetica,sans-Serif" font-size="14.00">Architecture</text>
<!-- SERVICE:service&#45;a -->
<g id="node1" class="node">
<title>SERVICE:service&#45;a</title>
<path fill="#eef6ff" stroke="black" d="M61.75,-36C61.75,-36 12,-36 12,-36 6,-36 0,-30 0,-24 0,-24 0,-12 0,-12 0,-6 6,0 12,0 12,0 61.75,0 61.75,0 67.75,0 73.75,-6 73.75,-12 73.75,-12 73.75,-24 73.75,-24 73.75,-30 67.75,-36 61.75,-36"/>
<text text-anchor="middle" x="36.88" y="-13.7" font-family="Times,serif" font-size="14.00">service&#45;a</text>
</g>
<!-- SERVICE:service&#45;b -->
<g id="node2" class="node">
<title>SERVICE:service&#45;b</title>
<path fill="#eef6ff" stroke="black" d="M303.75,-74C303.75,-74 253.25,-74 253.25,-74 247.25,-74 241.25,-68 241.25,-62 241.25,-62 241.25,-50 241.25,-50 241.25,-44 247.25,-38 253.25,-38 253.25,-38 303.75,-38 303.75,-38 309.75,-38 315.75,-44 315.75,-50 315.75,-50 315.75,-62 315.75,-62 315.75,-68 309.75,-74 303.75,-74"/>
<text text-anchor="middle" x="278.5" y="-51.7" font-family="Times,serif" font-size="14.00">service&#45;b</text>
</g>
<!-- SERVICE:service&#45;a&#45;&gt;SERVICE:service&#45;b -->
<g id="edge1" class="edge">
<title>SERVICE:service&#45;a&#45;&gt;SERVICE:service&#45;b</title>
<g id="a_edge1"><a xlink:title="edge#0">
<path fill="none" stroke="black" d="M74.01,-23.73C115.59,-30.32 184.03,-41.18 229.92,-48.46"/>
<polygon fill="black" stroke="black" points="229.15,-51.88 239.58,-49.99 230.25,-44.96 229.15,-51.88"/>
</a>
</g>
<text text-anchor="middle" x="148" y="-47.7" font-family="Times,serif" font-size="14.00">calls (1 ep), 10rpm</text>
</g>
<!-- SERVICE:service&#45;c -->
<g id="node3" class="node">
<title>SERVICE:service&#45;c</title>
<path fill="#eef6ff" stroke="black" d="M544.25,-36C544.25,-36 495.25,-36 495.25,-36 489.25,-36 483.25,-30 483.25,-24 483.25,-24 483.25,-12 483.25,-12 483.25,-6 489.25,0 495.25,0 495.25,0 544.25,0 544.25,0 550.25,0 556.25,-6 556.25,-12 556.25,-12 556.25,-24 556.25,-24 556.25,-30 550.25,-36 544.25,-36"/>
<text text-anchor="middle" x="519.75" y="-13.7" font-family="Times,serif" font-size="14.00">service&#45;c</text>
</g>
<!-- SERVICE:service&#45;b&#45;&gt;SERVICE:service&#45;c -->
<g id="edge2" class="edge">
<title>SERVICE:service&#45;b&#45;&gt;SERVICE:service&#45;c</title>
<g id="a_edge2"><a xlink:title="edge#1">
<path fill="none" stroke="black" d="M316.1,-50.19C357.76,-43.57 425.94,-32.74 471.57,-25.49"/>
<polygon fill="black" stroke="black" points="472.12,-28.95 481.44,-23.93 471.02,-22.04 472.12,-28.95"/>
</a>
</g>
<text text-anchor="middle" x="409" y="-47.7" font-family="Times,serif" font-size="14.00">calls (1 ep), 10rpm</text>
</g>
<!-- SERVICE:service&#45;c&#45;&gt;SERVICE:service&#45;a -->
<g id="edge3" class="edge">
<title>SERVICE:service&#45;c&#45;&gt;SERVICE:service&#45;a</title>
<g id="a_edge3"><a xlink:title="edge#2">
<path fill="none" stroke="black" d="M482.8,-16.23C445.72,-14.49 386.21,-11.98 334.75,-11 284.76,-10.05 272.24,-10.05 222.25,-11 175.87,-11.88 122.96,-14 85.75,-15.68"/>
<polygon fill="black" stroke="black" points="85.59,-12.19 75.76,-16.14 85.91,-19.18 85.59,-12.19"/>
</a>
</g>
<text text-anchor="middle" x="278.5" y="-15.7" font-family="Times,serif" font-size="14.00">calls (1 ep), 10rpm</text>
</g>
</g>
</svg>
