<?xml version="1.0" encoding="UTF-8" standalone="no"?>
<!DOCTYPE svg PUBLIC "-//W3C//DTD SVG 1.1//EN"
 "http://www.w3.org/Graphics/SVG/1.1/DTD/svg11.dtd">
<!-- Generated by graphviz version 9.0.0 (20230911.1827)
 -->
<!-- Title: G Pages: 1 -->
<svg width="566pt" height="112pt"
 viewBox="0.00 0.00 566.25 112.00" xmlns="http://www.w3.org/2000/svg" xmlns:xlink="http://www.w3.org/1999/xlink">
<g id="graph0" class="graph" transform="scale(1 1) rotate(0) translate(4 108)">
<title>G</title>
<polygon fill="white" stroke="none" points="-4,4 -4,-108 562.25,-108 562.25,4 -4,4"/>
<text text-anchor="middle" x="279.12" y="-86.7" font-family="Helvetica,sans-Serif" font-size="14.00">Architecture</text>
<!-- SERVICE:ui -->
<g id="node1" class="node">
<title>SERVICE:ui</title>
<path fill="#eef6ff" stroke="black" d="M42,-36C42,-36 12,-36 12,-36 6,-36 0,-30 0,-24 0,-24 0,-12 0,-12 0,-6 6,0 12,0 12,0 42,0 42,0 48,0 54,-6 54,-12 54,-12 54,-24 54,-24 54,-30 48,-36 42,-36"/>
<text text-anchor="middle" x="27" y="-13.7" font-family="Times,serif" font-size="14.00">ui</text>
</g>
<!-- SERVICE:orders -->
<g id="node2" class="node">
<title>SERVICE:orders</title>
<path fill="#eef6ff" stroke="black" d="M283.25,-74C283.25,-74 250,-74 250,-74 244,-74 238,-68 238,-62 238,-62 238,-50 238,-50 238,-44 244,-38 250,-38 250,-38 283.25,-38 283.25,-38 289.25,-38 295.25,-44 295.25,-50 295.25,-50 295.25,-62 295.25,-62 295.25,-68 289.25,-74 283.25,-74"/>
<text text-anchor="middle" x="266.62" y="-51.7" font-family="Times,serif" font-size="14.00">orders</text>
</g>
<!-- SERVICE:ui&#45;&gt;SERVICE:orders -->
<g id="edge1" class="edge">
<title>SERVICE:ui&#45;&gt;SERVICE:orders</title>
<g id="a_edge1"><a xlink:title="edge#0">
<path fill="none" stroke="black" d="M54.34,-22.21C96.09,-28.89 177.71,-41.94 226.38,-49.72"/>
<polygon fill="black" stroke="black" points="225.78,-53.17 236.21,-51.3 226.88,-46.26 225.78,-53.17"/>
</a>
</g>
<text text-anchor="middle" x="130.88" y="-47.7" font-family="Times,serif" font-size="14.00">CALLS [rest] (sync)</text>
</g>
<!-- SERVICE:payments -->
<g id="node3" class="node">
<title>SERVICE:payments</title>
<path fill="#eef6ff" stroke="black" d="M546.25,-53C546.25,-53 491.25,-53 491.25,-53 485.25,-53 479.25,-47 479.25,-41 479.25,-41 479.25,-29 479.25,-29 479.25,-23 485.25,-17 491.25,-17 491.25,-17 546.25,-17 546.25,-17 552.25,-17 558.25,-23 558.25,-29 558.25,-29 558.25,-41 558.25,-41 558.25,-47 552.25,-53 546.25,-53"/>
<text text-anchor="middle" x="518.75" y="-30.7" font-family="Times,serif" font-size="14.00">payments</text>
</g>
<!-- SERVICE:ui&#45;&gt;SERVICE:payments -->
<g id="edge2" class="edge">
<title>SERVICE:ui&#45;&gt;SERVICE:payments</title>
<g id="a_edge2"><a xlink:title="edge#1">
<path fill="none" stroke="black" d="M54.49,-16.65C89.54,-14.93 153.26,-12.06 207.75,-11 320.54,-8.8 349.6,-7.82 461.25,-24 463.4,-24.31 465.59,-24.65 467.81,-25.01"/>
<polygon fill="black" stroke="black" points="466.99,-28.42 477.44,-26.67 468.18,-21.52 466.99,-28.42"/>
</a>
</g>
<text text-anchor="middle" x="266.62" y="-15.7" font-family="Times,serif" font-size="14.00">CALLS [rest] (sync)</text>
</g>
<!-- SERVICE:orders&#45;&gt;SERVICE:payments -->
<g id="edge3" class="edge">
<title>SERVICE:orders&#45;&gt;SERVICE:payments</title>
<g id="a_edge3"><a xlink:title="edge#2">
<path fill="none" stroke="black" d="M295.44,-58.42C333.27,-61.11 402.91,-63.86 461.25,-54 463.43,-53.63 465.64,-53.19 467.86,-52.7"/>
<polygon fill="black" stroke="black" points="468.69,-56.1 477.48,-50.19 466.93,-49.32 468.69,-56.1"/>
</a>
</g>
<text text-anchor="middle" x="402.38" y="-64.7" font-family="Times,serif" font-size="14.00">CALLS [rest] (sync)</text>
</g>
<!-- SERVICE:payments&#45;&gt;SERVICE:orders -->
<g id="edge4" class="edge">
<title>SERVICE:payments&#45;&gt;SERVICE:orders</title>
<g id="a_edge4"><a xlink:title="edge#3">
<path fill="none" stroke="black" d="M479.08,-30.6C443.6,-27.44 389.7,-24.87 343.5,-32 331.19,-33.9 318.13,-37.44 306.39,-41.23"/>
<polygon fill="black" stroke="black" points="305.37,-37.88 297.03,-44.41 307.62,-44.51 305.37,-37.88"/>
</a>
</g>
<text text-anchor="middle" x="402.38" y="-36.7" font-family="Times,serif" font-size="14.00">CALLS [rest] (sync)</text>
</g>
</g>
</svg>
