<?xml version="1.0" encoding="UTF-8" standalone="no"?>
<!DOCTYPE svg PUBLIC "-//W3C//DTD SVG 1.1//EN"
 "http://www.w3.org/Graphics/SVG/1.1/DTD/svg11.dtd">
<!-- Generated by graphviz version 9.0.0 (20230911.1827)
 -->
<!-- Title: G Pages: 1 -->
<svg width="847pt" height="321pt"
 viewBox="0.00 0.00 847.00 321.37" xmlns="http://www.w3.org/2000/svg" xmlns:xlink="http://www.w3.org/1999/xlink">
<g id="graph0" class="graph" transform="scale(1 1) rotate(0) translate(4 317.37)">
<title>G</title>
<polygon fill="white" stroke="none" points="-4,4 -4,-317.37 843,-317.37 843,4 -4,4"/>
<text text-anchor="middle" x="419.5" y="-296.07" font-family="Helvetica,sans-Serif" font-size="14.00">Architecture</text>
<!-- DATABASE:shared&#45;db -->
<g id="node1" class="node">
<title>DATABASE:shared&#45;db</title>
<path fill="#fff3cd" stroke="black" d="M839,-186.09C839,-187.9 820.62,-189.37 798,-189.37 775.38,-189.37 757,-187.9 757,-186.09 757,-186.09 757,-156.64 757,-156.64 757,-154.83 775.38,-153.37 798,-153.37 820.62,-153.37 839,-154.83 839,-156.64 839,-156.64 839,-186.09 839,-186.09"/>
<path fill="none" stroke="black" d="M839,-186.09C839,-184.29 820.62,-182.82 798,-182.82 775.38,-182.82 757,-184.29 757,-186.09"/>
<text text-anchor="middle" x="798" y="-167.07" font-family="Times,serif" font-size="14.00">shared&#45;db</text>
</g>
<!-- SERVICE:web&#45;ui -->
<g id="node2" class="node">
<title>SERVICE:web&#45;ui</title>
<path fill="#eef6ff" stroke="black" d="M48.25,-129.37C48.25,-129.37 12,-129.37 12,-129.37 6,-129.37 0,-123.37 0,-117.37 0,-117.37 0,-105.37 0,-105.37 0,-99.37 6,-93.37 12,-93.37 12,-93.37 48.25,-93.37 48.25,-93.37 54.25,-93.37 60.25,-99.37 60.25,-105.37 60.25,-105.37 60.25,-117.37 60.25,-117.37 60.25,-123.37 54.25,-129.37 48.25,-129.37"/>
<text text-anchor="middle" x="30.12" y="-107.07" font-family="Times,serif" font-size="14.00">web&#45;ui</text>
</g>
<!-- SERVICE:auth -->
<g id="node3" class="node">
<title>SERVICE:auth</title>
<path fill="#eef6ff" stroke="black" d="M287.88,-75.37C287.88,-75.37 257.88,-75.37 257.88,-75.37 251.88,-75.37 245.88,-69.37 245.88,-63.37 245.88,-63.37 245.88,-51.37 245.88,-51.37 245.88,-45.37 251.88,-39.37 257.88,-39.37 257.88,-39.37 287.88,-39.37 287.88,-39.37 293.88,-39.37 299.88,-45.37 299.88,-51.37 299.88,-51.37 299.88,-63.37 299.88,-63.37 299.88,-69.37 293.88,-75.37 287.88,-75.37"/>
<text text-anchor="middle" x="272.88" y="-53.07" font-family="Times,serif" font-size="14.00">auth</text>
</g>
<!-- SERVICE:web&#45;ui&#45;&gt;SERVICE:auth -->
<g id="edge1" class="edge">
<title>SERVICE:web&#45;ui&#45;&gt;SERVICE:auth</title>
<g id="a_edge1"><a xlink:title="edge#0">
<path fill="none" stroke="black" d="M60.55,-96.14C66.31,-93.59 72.38,-91.18 78.25,-89.37 131.05,-73.02 194.68,-64.54 234.22,-60.52"/>
<polygon fill="black" stroke="black" points="234.55,-64.01 244.17,-59.56 233.88,-57.04 234.55,-64.01"/>
</a>
</g>
<text text-anchor="middle" x="137.12" y="-94.07" font-family="Times,serif" font-size="14.00">CALLS [rest] (sync)</text>
</g>
<!-- SERVICE:catalog -->
<g id="node4" class="node">
<title>SERVICE:catalog</title>
<path fill="#eef6ff" stroke="black" d="M564,-270.37C564,-270.37 524.75,-270.37 524.75,-270.37 518.75,-270.37 512.75,-264.37 512.75,-258.37 512.75,-258.37 512.75,-246.37 512.75,-246.37 512.75,-240.37 518.75,-234.37 524.75,-234.37 524.75,-234.37 564,-234.37 564,-234.37 570,-234.37 576,-240.37 576,-246.37 576,-246.37 576,-258.37 576,-258.37 576,-264.37 570,-270.37 564,-270.37"/>
<text text-anchor="middle" x="544.38" y="-248.07" font-family="Times,serif" font-size="14.00">catalog</text>
</g>
<!-- SERVICE:web&#45;ui&#45;&gt;SERVICE:catalog -->
<g id="edge2" class="edge">
<title>SERVICE:web&#45;ui&#45;&gt;SERVICE:catalog</title>
<g id="a_edge2"><a xlink:title="edge#1">
<path fill="none" stroke="black" d="M36.48,-129.78C43.08,-149.15 56.23,-179.02 78.25,-195.37 207.04,-290.96 413.32,-273.12 501.35,-259.87"/>
<polygon fill="black" stroke="black" points="501.65,-263.37 510.98,-258.36 500.56,-256.45 501.65,-263.37"/>
</a>
</g>
<text text-anchor="middle" x="272.88" y="-274.07" font-family="Times,serif" font-size="14.00">CALLS [rest] (sync)</text>
</g>
<!-- SERVICE:cart -->
<g id="node5" class="node">
<title>SERVICE:cart</title>
<path fill="#eef6ff" stroke="black" d="M287.88,-216.37C287.88,-216.37 257.88,-216.37 257.88,-216.37 251.88,-216.37 245.88,-210.37 245.88,-204.37 245.88,-204.37 245.88,-192.37 245.88,-192.37 245.88,-186.37 251.88,-180.37 257.88,-180.37 257.88,-180.37 287.88,-180.37 287.88,-180.37 293.88,-180.37 299.88,-186.37 299.88,-192.37 299.88,-192.37 299.88,-204.37 299.88,-204.37 299.88,-210.37 293.88,-216.37 287.88,-216.37"/>
<text text-anchor="middle" x="272.88" y="-194.07" font-family="Times,serif" font-size="14.00">cart</text>
</g>
<!-- SERVICE:web&#45;ui&#45;&gt;SERVICE:cart -->
<g id="edge3" class="edge">
<title>SERVICE:web&#45;ui&#45;&gt;SERVICE:cart</title>
<g id="a_edge3"><a xlink:title="edge#2">
<path fill="none" stroke="black" d="M60.56,-125.73C66.38,-128.39 72.47,-131.05 78.25,-133.37 131.74,-154.75 195.32,-175.17 234.64,-187.24"/>
<polygon fill="black" stroke="black" points="233.51,-190.55 244.09,-190.12 235.55,-183.86 233.51,-190.55"/>
</a>
</g>
<text text-anchor="middle" x="137.12" y="-178.07" font-family="Times,serif" font-size="14.00">CALLS [rest] (sync)</text>
</g>
<!-- SERVICE:orders -->
<g id="node6" class="node">
<title>SERVICE:orders</title>
<path fill="#eef6ff" stroke="black" d="M289.5,-129.37C289.5,-129.37 256.25,-129.37 256.25,-129.37 250.25,-129.37 244.25,-123.37 244.25,-117.37 244.25,-117.37 244.25,-105.37 244.25,-105.37 244.25,-99.37 250.25,-93.37 256.25,-93.37 256.25,-93.37 289.5,-93.37 289.5,-93.37 295.5,-93.37 301.5,-99.37 301.5,-105.37 301.5,-105.37 301.5,-117.37 301.5,-117.37 301.5,-123.37 295.5,-129.37 289.5,-129.37"/>
<text text-anchor="middle" x="272.88" y="-107.07" font-family="Times,serif" font-size="14.00">orders</text>
</g>
<!-- SERVICE:web&#45;ui&#45;&gt;SERVICE:orders -->
<g id="edge4" class="edge">
<title>SERVICE:web&#45;ui&#45;&gt;SERVICE:orders</title>
<g id="a_edge4"><a xlink:title="edge#3">
<path fill="none" stroke="black" d="M60.65,-111.37C103.82,-111.37 184.28,-111.37 232.47,-111.37"/>
<polygon fill="black" stroke="black" points="232.47,-114.87 242.46,-111.37 232.46,-107.87 232.47,-114.87"/>
</a>
</g>
<text text-anchor="middle" x="137.12" y="-116.07" font-family="Times,serif" font-size="14.00">CALLS [rest] (sync)</text>
</g>
<!-- SERVICE:payments -->
<g id="node7" class="node">
<title>SERVICE:payments</title>
<path fill="#eef6ff" stroke="black" d="M571.88,-47.37C571.88,-47.37 516.88,-47.37 516.88,-47.37 510.88,-47.37 504.88,-41.37 504.88,-35.37 504.88,-35.37 504.88,-23.37 504.88,-23.37 504.88,-17.37 510.88,-11.37 516.88,-11.37 516.88,-11.37 571.88,-11.37 571.88,-11.37 577.88,-11.37 583.88,-17.37 583.88,-23.37 583.88,-23.37 583.88,-35.37 583.88,-35.37 583.88,-41.37 577.88,-47.37 571.88,-47.37"/>
<text text-anchor="middle" x="544.38" y="-25.07" font-family="Times,serif" font-size="14.00">payments</text>
</g>
<!-- SERVICE:web&#45;ui&#45;&gt;SERVICE:payments -->
<g id="edge5" class="edge">
<title>SERVICE:web&#45;ui&#45;&gt;SERVICE:payments</title>
<g id="a_edge5"><a xlink:title="edge#4">
<path fill="none" stroke="black" d="M44.71,-93.14C53.34,-82.64 65.28,-69.87 78.25,-61.37 131.88,-26.18 150.82,-23.42 214,-12.37 324.98,7.05 355.52,0.02 467.5,-12.37 475.99,-13.31 484.92,-14.82 493.55,-16.57"/>
<polygon fill="black" stroke="black" points="492.67,-19.96 503.18,-18.65 494.15,-13.12 492.67,-19.96"/>
</a>
</g>
<text text-anchor="middle" x="272.88" y="-17.07" font-family="Times,serif" font-size="14.00">CALLS [rest] (sync)</text>
</g>
<!-- SERVICE:catalog&#45;&gt;DATABASE:shared&#45;db -->
<g id="edge10" class="edge">
<title>SERVICE:catalog&#45;&gt;DATABASE:shared&#45;db</title>
<g id="a_edge10"><a xlink:title="edge#9">
<path fill="none" stroke="black" d="M576.4,-249.9C615.65,-245.91 684.69,-235.94 739,-212.37 748.45,-208.26 757.91,-202.47 766.37,-196.53"/>
<polygon fill="black" stroke="black" points="768.25,-199.49 774.22,-190.74 764.09,-193.86 768.25,-199.49"/>
</a>
</g>
<text text-anchor="middle" x="680.12" y="-248.07" font-family="Times,serif" font-size="14.00">CALLS [rest] (sync)</text>
</g>
<!-- SERVICE:cart&#45;&gt;DATABASE:shared&#45;db -->
<g id="edge11" class="edge">
<title>SERVICE:cart&#45;&gt;DATABASE:shared&#45;db</title>
<g id="a_edge11"><a xlink:title="edge#10">
<path fill="none" stroke="black" d="M300.18,-197.01C382.34,-192.77 635.26,-179.72 745.14,-174.04"/>
<polygon fill="black" stroke="black" points="745.25,-177.54 755.06,-173.53 744.89,-170.55 745.25,-177.54"/>
</a>
</g>
<text text-anchor="middle" x="544.38" y="-191.07" font-family="Times,serif" font-size="14.00">CALLS [rest] (sync)</text>
</g>
<!-- SERVICE:cart&#45;&gt;SERVICE:catalog -->
<g id="edge6" class="edge">
<title>SERVICE:cart&#45;&gt;SERVICE:catalog</title>
<g id="a_edge6"><a xlink:title="edge#5">
<path fill="none" stroke="black" d="M300.32,-202.29C337.73,-208 408.16,-219.36 467.5,-232.37 478.56,-234.79 490.44,-237.75 501.44,-240.64"/>
<polygon fill="black" stroke="black" points="500.48,-244.01 511.05,-243.21 502.29,-237.25 500.48,-244.01"/>
</a>
</g>
<text text-anchor="middle" x="408.62" y="-237.07" font-family="Times,serif" font-size="14.00">CALLS [rest] (sync)</text>
</g>
<!-- SERVICE:orders&#45;&gt;DATABASE:shared&#45;db -->
<g id="edge12" class="edge">
<title>SERVICE:orders&#45;&gt;DATABASE:shared&#45;db</title>
<g id="a_edge12"><a xlink:title="edge#11">
<path fill="none" stroke="black" d="M301.87,-117.56C316.14,-120.55 333.81,-124 349.75,-126.37 492.26,-147.57 661.83,-161.6 745.31,-167.77"/>
<polygon fill="black" stroke="black" points="745.01,-171.26 755.24,-168.49 745.52,-164.27 745.01,-171.26"/>
</a>
</g>
<text text-anchor="middle" x="544.38" y="-160.07" font-family="Times,serif" font-size="14.00">CALLS [rest] (sync)</text>
</g>
<!-- SERVICE:orders&#45;&gt;SERVICE:payments -->
<g id="edge8" class="edge">
<title>SERVICE:orders&#45;&gt;SERVICE:payments</title>
<g id="a_edge8"><a xlink:title="edge#7">
<path fill="none" stroke="black" d="M301.74,-98.85C311.32,-94.42 322.07,-89.31 331.75,-84.37 339.9,-80.21 341.19,-77.61 349.75,-74.37 399.87,-55.38 415.33,-60.66 467.5,-48.37 475.86,-46.4 484.73,-44.24 493.33,-42.11"/>
<polygon fill="black" stroke="black" points="494.11,-45.52 502.97,-39.71 492.42,-38.73 494.11,-45.52"/>
</a>
</g>
<text text-anchor="middle" x="408.62" y="-79.07" font-family="Times,serif" font-size="14.00">CALLS [rest] (sync)</text>
</g>
<!-- SERVICE:inventory -->
<g id="node8" class="node">
<title>SERVICE:inventory</title>
<path fill="#eef6ff" stroke="black" d="M570.38,-108.37C570.38,-108.37 518.38,-108.37 518.38,-108.37 512.38,-108.37 506.38,-102.37 506.38,-96.37 506.38,-96.37 506.38,-84.37 506.38,-84.37 506.38,-78.37 512.38,-72.37 518.38,-72.37 518.38,-72.37 570.38,-72.37 570.38,-72.37 576.38,-72.37 582.38,-78.37 582.38,-84.37 582.38,-84.37 582.38,-96.37 582.38,-96.37 582.38,-102.37 576.38,-108.37 570.38,-108.37"/>
<text text-anchor="middle" x="544.38" y="-86.07" font-family="Times,serif" font-size="14.00">inventory</text>
</g>
<!-- SERVICE:orders&#45;&gt;SERVICE:inventory -->
<g id="edge7" class="edge">
<title>SERVICE:orders&#45;&gt;SERVICE:inventory</title>
<g id="a_edge7"><a xlink:title="edge#6">
<path fill="none" stroke="black" d="M301.95,-109.18C347.52,-105.63 438.12,-98.57 494.45,-94.18"/>
<polygon fill="black" stroke="black" points="494.71,-97.67 504.41,-93.4 494.17,-90.69 494.71,-97.67"/>
</a>
</g>
<text text-anchor="middle" x="408.62" y="-109.07" font-family="Times,serif" font-size="14.00">CALLS [rest] (sync)</text>
</g>
<!-- SERVICE:payments&#45;&gt;SERVICE:orders -->
<g id="edge9" class="edge">
<title>SERVICE:payments&#45;&gt;SERVICE:orders</title>
<g id="a_edge9"><a xlink:title="edge#8">
<path fill="none" stroke="black" d="M504.6,-23.42C455.22,-16.73 373.43,-8.92 349.75,-26.37 328.02,-42.38 349.5,-64.03 331.75,-84.37 326.39,-90.51 319.33,-95.35 311.99,-99.14"/>
<polygon fill="black" stroke="black" points="311,-95.74 303.32,-103.04 313.88,-102.12 311,-95.74"/>
</a>
</g>
<text text-anchor="middle" x="408.62" y="-31.07" font-family="Times,serif" font-size="14.00">CALLS [rest] (sync)</text>
</g>
<!-- SERVICE:inventory&#45;&gt;DATABASE:shared&#45;db -->
<g id="edge13" class="edge">
<title>SERVICE:inventory&#45;&gt;DATABASE:shared&#45;db</title>
<g id="a_edge13"><a xlink:title="edge#12">
<path fill="none" stroke="black" d="M582.73,-87.44C623.29,-85.85 688.97,-87.98 739,-112.37 754.02,-119.69 767.37,-132.54 777.46,-144.39"/>
<polygon fill="black" stroke="black" points="774.57,-146.37 783.57,-151.96 780.02,-141.98 774.57,-146.37"/>
</a>
</g>
<text text-anchor="middle" x="680.12" y="-117.07" font-family="Times,serif" font-size="14.00">CALLS [rest] (sync)</text>
</g>
</g>
</svg>
