<?xml version="1.0" encoding="UTF-8" standalone="no"?>
<!DOCTYPE svg PUBLIC "-//W3C//DTD SVG 1.1//EN"
 "http://www.w3.org/Graphics/SVG/1.1/DTD/svg11.dtd">
<!-- Generated by graphviz version 9.0.0 (20230911.1827)
 -->
<!-- Title: G Pages: 1 -->
<svg width="2531pt" height="310pt"
 viewBox="0.00 0.00 2530.75 310.00" xmlns="http://www.w3.org/2000/svg" xmlns:xlink="http://www.w3.org/1999/xlink">
<g id="graph0" class="graph" transform="scale(1 1) rotate(0) translate(4 306)">
<title>G</title>
<polygon fill="white" stroke="none" points="-4,4 -4,-306 2526.75,-306 2526.75,4 -4,4"/>
<text text-anchor="middle" x="1261.38" y="-284.7" font-family="Helvetica,sans-Serif" font-size="14.00">Architecture</text>
<!-- SERVICE:web&#45;ui_split -->
<g id="node1" class="node">
<title>SERVICE:web&#45;ui_split</title>
<path fill="#eef6ff" stroke="black" d="M296.75,-219C296.75,-219 226,-219 226,-219 220,-219 214,-213 214,-207 214,-207 214,-195 214,-195 214,-189 220,-183 226,-183 226,-183 296.75,-183 296.75,-183 302.75,-183 308.75,-189 308.75,-195 308.75,-195 308.75,-207 308.75,-207 308.75,-213 302.75,-219 296.75,-219"/>
<text text-anchor="middle" x="261.38" y="-196.7" font-family="Times,serif" font-size="14.00">web&#45;ui_split</text>
</g>
<!-- SERVICE:bff&#45;3 -->
<g id="node13" class="node">
<title>SERVICE:bff&#45;3</title>
<path fill="#eef6ff" stroke="black" d="M504.5,-219C504.5,-219 474.5,-219 474.5,-219 468.5,-219 462.5,-213 462.5,-207 462.5,-207 462.5,-195 462.5,-195 462.5,-189 468.5,-183 474.5,-183 474.5,-183 504.5,-183 504.5,-183 510.5,-183 516.5,-189 516.5,-195 516.5,-195 516.5,-207 516.5,-207 516.5,-213 510.5,-219 504.5,-219"/>
<text text-anchor="middle" x="489.5" y="-196.7" font-family="Times,serif" font-size="14.00">bff&#45;3</text>
</g>
<!-- SERVICE:web&#45;ui_split&#45;&gt;SERVICE:bff&#45;3 -->
<g id="edge25" class="edge">
<title>SERVICE:web&#45;ui_split&#45;&gt;SERVICE:bff&#45;3</title>
<g id="a_edge25"><a xlink:title="edge#24">
<path fill="none" stroke="black" d="M309.23,-201C351.2,-201 411.96,-201 450.85,-201"/>
<polygon fill="black" stroke="black" points="450.66,-204.5 460.66,-201 450.66,-197.5 450.66,-204.5"/>
</a>
</g>
<text text-anchor="middle" x="385.62" y="-205.7" font-family="Times,serif" font-size="14.00">CALLS [rest] (sync)</text>
</g>
<!-- SERVICE:bff_split -->
<g id="node2" class="node">
<title>SERVICE:bff_split</title>
<path fill="#eef6ff" stroke="black" d="M1009,-36C1009,-36 965.25,-36 965.25,-36 959.25,-36 953.25,-30 953.25,-24 953.25,-24 953.25,-12 953.25,-12 953.25,-6 959.25,0 965.25,0 965.25,0 1009,0 1009,0 1015,0 1021,-6 1021,-12 1021,-12 1021,-24 1021,-24 1021,-30 1015,-36 1009,-36"/>
<text text-anchor="middle" x="987.12" y="-13.7" font-family="Times,serif" font-size="14.00">bff_split</text>
</g>
<!-- SERVICE:bff_split_split -->
<g id="node4" class="node">
<title>SERVICE:bff_split_split</title>
<path fill="#eef6ff" stroke="black" d="M1272.75,-75C1272.75,-75 1194.5,-75 1194.5,-75 1188.5,-75 1182.5,-69 1182.5,-63 1182.5,-63 1182.5,-51 1182.5,-51 1182.5,-45 1188.5,-39 1194.5,-39 1194.5,-39 1272.75,-39 1272.75,-39 1278.75,-39 1284.75,-45 1284.75,-51 1284.75,-51 1284.75,-63 1284.75,-63 1284.75,-69 1278.75,-75 1272.75,-75"/>
<text text-anchor="middle" x="1233.62" y="-52.7" font-family="Times,serif" font-size="14.00">bff_split_split</text>
</g>
<!-- SERVICE:bff_split&#45;&gt;SERVICE:bff_split_split -->
<g id="edge22" class="edge">
<title>SERVICE:bff_split&#45;&gt;SERVICE:bff_split_split</title>
<g id="a_edge22"><a xlink:title="edge#21">
<path fill="none" stroke="black" d="M1021.35,-23.3C1059.67,-29.41 1123.48,-39.59 1170.96,-47.16"/>
<polygon fill="black" stroke="black" points="1170.12,-50.57 1180.55,-48.69 1171.22,-43.66 1170.12,-50.57"/>
</a>
</g>
<text text-anchor="middle" x="1097.88" y="-49.7" font-family="Times,serif" font-size="14.00">CALLS [rest] (sync)</text>
</g>
<!-- SERVICE:catalog -->
<g id="node22" class="node">
<title>SERVICE:catalog</title>
<path fill="#eef6ff" stroke="black" d="M1737,-55C1737,-55 1697.75,-55 1697.75,-55 1691.75,-55 1685.75,-49 1685.75,-43 1685.75,-43 1685.75,-31 1685.75,-31 1685.75,-25 1691.75,-19 1697.75,-19 1697.75,-19 1737,-19 1737,-19 1743,-19 1749,-25 1749,-31 1749,-31 1749,-43 1749,-43 1749,-49 1743,-55 1737,-55"/>
<text text-anchor="middle" x="1717.38" y="-32.7" font-family="Times,serif" font-size="14.00">catalog</text>
</g>
<!-- SERVICE:bff_split&#45;&gt;SERVICE:catalog -->
<g id="edge11" class="edge">
<title>SERVICE:bff_split&#45;&gt;SERVICE:catalog</title>
<g id="a_edge11"><a xlink:title="edge#10">
<path fill="none" stroke="black" d="M1021.26,-18.21C1095.49,-18.76 1280.76,-20.48 1435.75,-25 1529.57,-27.73 1552.97,-29.98 1646.75,-34 1655.58,-34.38 1665.03,-34.78 1674.04,-35.17"/>
<polygon fill="black" stroke="black" points="1673.87,-38.67 1684.02,-35.6 1674.18,-31.68 1673.87,-38.67"/>
</a>
</g>
<text text-anchor="middle" x="1373.12" y="-29.7" font-family="Times,serif" font-size="14.00">CALLS [rest] (sync)</text>
</g>
<!-- SERVICE:web&#45;ui_split_split -->
<g id="node3" class="node">
<title>SERVICE:web&#45;ui_split_split</title>
<path fill="#eef6ff" stroke="black" d="M787.5,-257C787.5,-257 682.25,-257 682.25,-257 676.25,-257 670.25,-251 670.25,-245 670.25,-245 670.25,-233 670.25,-233 670.25,-227 676.25,-221 682.25,-221 682.25,-221 787.5,-221 787.5,-221 793.5,-221 799.5,-227 799.5,-233 799.5,-233 799.5,-245 799.5,-245 799.5,-251 793.5,-257 787.5,-257"/>
<text text-anchor="middle" x="734.88" y="-234.7" font-family="Times,serif" font-size="14.00">web&#45;ui_split_split</text>
</g>
<!-- SERVICE:bff&#45;4 -->
<g id="node5" class="node">
<title>SERVICE:bff&#45;4</title>
<path fill="#eef6ff" stroke="black" d="M1002.12,-257C1002.12,-257 972.12,-257 972.12,-257 966.12,-257 960.12,-251 960.12,-245 960.12,-245 960.12,-233 960.12,-233 960.12,-227 966.12,-221 972.12,-221 972.12,-221 1002.12,-221 1002.12,-221 1008.12,-221 1014.12,-227 1014.12,-233 1014.12,-233 1014.12,-245 1014.12,-245 1014.12,-251 1008.12,-257 1002.12,-257"/>
<text text-anchor="middle" x="987.12" y="-234.7" font-family="Times,serif" font-size="14.00">bff&#45;4</text>
</g>
<!-- SERVICE:web&#45;ui_split_split&#45;&gt;SERVICE:bff&#45;4 -->
<g id="edge28" class="edge">
<title>SERVICE:web&#45;ui_split_split&#45;&gt;SERVICE:bff&#45;4</title>
<g id="a_edge28"><a xlink:title="edge#27">
<path fill="none" stroke="black" d="M800,-239C846.98,-239 909.16,-239 948.41,-239"/>
<polygon fill="black" stroke="black" points="948.3,-242.5 958.3,-239 948.29,-235.5 948.3,-242.5"/>
</a>
</g>
<text text-anchor="middle" x="876.38" y="-243.7" font-family="Times,serif" font-size="14.00">CALLS [rest] (sync)</text>
</g>
<!-- SERVICE:cart -->
<g id="node9" class="node">
<title>SERVICE:cart</title>
<path fill="#eef6ff" stroke="black" d="M1497.38,-88C1497.38,-88 1467.38,-88 1467.38,-88 1461.38,-88 1455.38,-82 1455.38,-76 1455.38,-76 1455.38,-64 1455.38,-64 1455.38,-58 1461.38,-52 1467.38,-52 1467.38,-52 1497.38,-52 1497.38,-52 1503.38,-52 1509.38,-58 1509.38,-64 1509.38,-64 1509.38,-76 1509.38,-76 1509.38,-82 1503.38,-88 1497.38,-88"/>
<text text-anchor="middle" x="1482.38" y="-65.7" font-family="Times,serif" font-size="14.00">cart</text>
</g>
<!-- SERVICE:bff_split_split&#45;&gt;SERVICE:cart -->
<g id="edge12" class="edge">
<title>SERVICE:bff_split_split&#45;&gt;SERVICE:cart</title>
<g id="a_edge12"><a xlink:title="edge#11">
<path fill="none" stroke="black" d="M1285.07,-50.53C1326.01,-46.58 1385.05,-43.86 1435.75,-53 1438.59,-53.51 1441.48,-54.19 1444.36,-54.98"/>
<polygon fill="black" stroke="black" points="1443.25,-58.3 1453.85,-58.01 1445.38,-51.63 1443.25,-58.3"/>
</a>
</g>
<text text-anchor="middle" x="1373.12" y="-57.7" font-family="Times,serif" font-size="14.00">CALLS [rest] (sync)</text>
</g>
<!-- SERVICE:orders -->
<g id="node16" class="node">
<title>SERVICE:orders</title>
<path fill="#eef6ff" stroke="black" d="M1499,-193C1499,-193 1465.75,-193 1465.75,-193 1459.75,-193 1453.75,-187 1453.75,-181 1453.75,-181 1453.75,-169 1453.75,-169 1453.75,-163 1459.75,-157 1465.75,-157 1465.75,-157 1499,-157 1499,-157 1505,-157 1511,-163 1511,-169 1511,-169 1511,-181 1511,-181 1511,-187 1505,-193 1499,-193"/>
<text text-anchor="middle" x="1482.38" y="-170.7" font-family="Times,serif" font-size="14.00">orders</text>
</g>
<!-- SERVICE:bff_split_split&#45;&gt;SERVICE:orders -->
<g id="edge13" class="edge">
<title>SERVICE:bff_split_split&#45;&gt;SERVICE:orders</title>
<g id="a_edge13"><a xlink:title="edge#12">
<path fill="none" stroke="black" d="M1285.19,-66.56C1293.64,-68.09 1302.31,-69.62 1310.5,-71 1366.02,-80.33 1389.74,-57.54 1435.75,-90 1454.65,-103.33 1466.44,-127.02 1473.29,-146.01"/>
<polygon fill="black" stroke="black" points="1469.92,-146.97 1476.37,-155.37 1476.57,-144.78 1469.92,-146.97"/>
</a>
</g>
<text text-anchor="middle" x="1373.12" y="-94.7" font-family="Times,serif" font-size="14.00">CALLS [rest] (sync)</text>
</g>
<!-- SERVICE:payments -->
<g id="node6" class="node">
<title>SERVICE:payments</title>
<path fill="#eef6ff" stroke="black" d="M1261.12,-226C1261.12,-226 1206.12,-226 1206.12,-226 1200.12,-226 1194.12,-220 1194.12,-214 1194.12,-214 1194.12,-202 1194.12,-202 1194.12,-196 1200.12,-190 1206.12,-190 1206.12,-190 1261.12,-190 1261.12,-190 1267.12,-190 1273.12,-196 1273.12,-202 1273.12,-202 1273.12,-214 1273.12,-214 1273.12,-220 1267.12,-226 1261.12,-226"/>
<text text-anchor="middle" x="1233.62" y="-203.7" font-family="Times,serif" font-size="14.00">payments</text>
</g>
<!-- SERVICE:bff&#45;4&#45;&gt;SERVICE:payments -->
<g id="edge30" class="edge">
<title>SERVICE:bff&#45;4&#45;&gt;SERVICE:payments</title>
<g id="a_edge30"><a xlink:title="edge#29">
<path fill="none" stroke="black" d="M1014.29,-235.68C1054.38,-230.6 1131.7,-220.8 1182.73,-214.33"/>
<polygon fill="black" stroke="black" points="1182.85,-217.84 1192.33,-213.11 1181.97,-210.89 1182.85,-217.84"/>
</a>
</g>
<text text-anchor="middle" x="1097.88" y="-236.7" font-family="Times,serif" font-size="14.00">CALLS [rest] (sync)</text>
</g>
<!-- SERVICE:bff&#45;4&#45;&gt;SERVICE:orders -->
<g id="edge29" class="edge">
<title>SERVICE:bff&#45;4&#45;&gt;SERVICE:orders</title>
<g id="a_edge29"><a xlink:title="edge#28">
<path fill="none" stroke="black" d="M1014.55,-247.09C1022.35,-249.11 1030.95,-250.99 1039,-252 1090.92,-258.53 1104.46,-254.24 1156.75,-252 1281.09,-246.66 1324.95,-284.69 1435.75,-228 1447.14,-222.17 1456.88,-212.17 1464.4,-202.41"/>
<polygon fill="black" stroke="black" points="1467.08,-204.68 1470.03,-194.51 1461.38,-200.62 1467.08,-204.68"/>
</a>
</g>
<text text-anchor="middle" x="1233.62" y="-262.7" font-family="Times,serif" font-size="14.00">CALLS [rest] (sync)</text>
</g>
<!-- SERVICE:payments&#45;&gt;SERVICE:orders -->
<g id="edge3" class="edge">
<title>SERVICE:payments&#45;&gt;SERVICE:orders</title>
<g id="a_edge3"><a xlink:title="edge#2">
<path fill="none" stroke="black" d="M1273.28,-208.08C1314.12,-207.44 1380.18,-204.31 1435.75,-192 1437.92,-191.52 1440.12,-190.96 1442.33,-190.34"/>
<polygon fill="black" stroke="black" points="1443.36,-193.68 1451.83,-187.31 1441.23,-187.01 1443.36,-193.68"/>
</a>
</g>
<text text-anchor="middle" x="1373.12" y="-210.7" font-family="Times,serif" font-size="14.00">CALLS [rest] (async)</text>
</g>
<!-- DATABASE:shared&#45;db -->
<g id="node7" class="node">
<title>DATABASE:shared&#45;db</title>
<path fill="#fff3cd" stroke="black" d="M2522.75,-120.73C2522.75,-122.53 2504.37,-124 2481.75,-124 2459.13,-124 2440.75,-122.53 2440.75,-120.73 2440.75,-120.73 2440.75,-91.27 2440.75,-91.27 2440.75,-89.47 2459.13,-88 2481.75,-88 2504.37,-88 2522.75,-89.47 2522.75,-91.27 2522.75,-91.27 2522.75,-120.73 2522.75,-120.73"/>
<path fill="none" stroke="black" d="M2522.75,-120.73C2522.75,-118.92 2504.37,-117.45 2481.75,-117.45 2459.13,-117.45 2440.75,-118.92 2440.75,-120.73"/>
<text text-anchor="middle" x="2481.75" y="-101.7" font-family="Times,serif" font-size="14.00">shared&#45;db</text>
</g>
<!-- SERVICE:orders_split&#45;1 -->
<g id="node8" class="node">
<title>SERVICE:orders_split&#45;1</title>
<path fill="#eef6ff" stroke="black" d="M2022.5,-193C2022.5,-193 1942.75,-193 1942.75,-193 1936.75,-193 1930.75,-187 1930.75,-181 1930.75,-181 1930.75,-169 1930.75,-169 1930.75,-163 1936.75,-157 1942.75,-157 1942.75,-157 2022.5,-157 2022.5,-157 2028.5,-157 2034.5,-163 2034.5,-169 2034.5,-169 2034.5,-181 2034.5,-181 2034.5,-187 2028.5,-193 2022.5,-193"/>
<text text-anchor="middle" x="1982.62" y="-170.7" font-family="Times,serif" font-size="14.00">orders_split&#45;1</text>
</g>
<!-- SERVICE:orders_split -->
<g id="node10" class="node">
<title>SERVICE:orders_split</title>
<path fill="#eef6ff" stroke="black" d="M2275,-193C2275,-193 2207.25,-193 2207.25,-193 2201.25,-193 2195.25,-187 2195.25,-181 2195.25,-181 2195.25,-169 2195.25,-169 2195.25,-163 2201.25,-157 2207.25,-157 2207.25,-157 2275,-157 2275,-157 2281,-157 2287,-163 2287,-169 2287,-169 2287,-181 2287,-181 2287,-187 2281,-193 2275,-193"/>
<text text-anchor="middle" x="2241.12" y="-170.7" font-family="Times,serif" font-size="14.00">orders_split</text>
</g>
<!-- SERVICE:orders_split&#45;1&#45;&gt;SERVICE:orders_split -->
<g id="edge8" class="edge">
<title>SERVICE:orders_split&#45;1&#45;&gt;SERVICE:orders_split</title>
<g id="a_edge8"><a xlink:title="edge#7">
<path fill="none" stroke="black" d="M2034.92,-175C2077.86,-175 2139.08,-175 2183.46,-175"/>
<polygon fill="black" stroke="black" points="2183.42,-178.5 2193.42,-175 2183.42,-171.5 2183.42,-178.5"/>
</a>
</g>
<text text-anchor="middle" x="2118.38" y="-179.7" font-family="Times,serif" font-size="14.00">CALLS [rest] (sync)</text>
</g>
<!-- SERVICE:cart&#45;&gt;DATABASE:shared&#45;db -->
<g id="edge5" class="edge">
<title>SERVICE:cart&#45;&gt;DATABASE:shared&#45;db</title>
<g id="a_edge5"><a xlink:title="edge#4">
<path fill="none" stroke="black" d="M1509.56,-72.41C1552.64,-76.17 1641.22,-83 1716.38,-83 1716.38,-83 1716.38,-83 2242.12,-83 2306.72,-83 2380.7,-91.45 2428.94,-98.11"/>
<polygon fill="black" stroke="black" points="2428.44,-101.57 2438.83,-99.5 2429.42,-94.64 2428.44,-101.57"/>
</a>
</g>
<text text-anchor="middle" x="1982.62" y="-87.7" font-family="Times,serif" font-size="14.00">CALLS [rest] (sync)</text>
</g>
<!-- SERVICE:cart&#45;&gt;SERVICE:catalog -->
<g id="edge1" class="edge">
<title>SERVICE:cart&#45;&gt;SERVICE:catalog</title>
<g id="a_edge1"><a xlink:title="edge#0">
<path fill="none" stroke="black" d="M1509.43,-57.47C1515.71,-54.93 1522.49,-52.56 1529,-51 1577.88,-39.32 1635.79,-36.63 1674.16,-36.33"/>
<polygon fill="black" stroke="black" points="1673.9,-39.84 1683.89,-36.32 1673.89,-32.84 1673.9,-39.84"/>
</a>
</g>
<text text-anchor="middle" x="1587.88" y="-55.7" font-family="Times,serif" font-size="14.00">CALLS [rest] (sync)</text>
</g>
<!-- SERVICE:orders_split&#45;&gt;DATABASE:shared&#45;db -->
<g id="edge6" class="edge">
<title>SERVICE:orders_split&#45;&gt;DATABASE:shared&#45;db</title>
<g id="a_edge6"><a xlink:title="edge#5">
<path fill="none" stroke="black" d="M2287.24,-171.93C2324.6,-168.24 2378.54,-160.23 2422.75,-143 2431.12,-139.74 2439.58,-135.2 2447.36,-130.41"/>
<polygon fill="black" stroke="black" points="2449.03,-133.5 2455.51,-125.12 2445.22,-127.63 2449.03,-133.5"/>
</a>
</g>
<text text-anchor="middle" x="2363.88" y="-173.7" font-family="Times,serif" font-size="14.00">CALLS [rest] (sync)</text>
</g>
<!-- SERVICE:bff&#45;1 -->
<g id="node11" class="node">
<title>SERVICE:bff&#45;1</title>
<path fill="#eef6ff" stroke="black" d="M276.38,-117C276.38,-117 246.38,-117 246.38,-117 240.38,-117 234.38,-111 234.38,-105 234.38,-105 234.38,-93 234.38,-93 234.38,-87 240.38,-81 246.38,-81 246.38,-81 276.38,-81 276.38,-81 282.38,-81 288.38,-87 288.38,-93 288.38,-93 288.38,-105 288.38,-105 288.38,-111 282.38,-117 276.38,-117"/>
<text text-anchor="middle" x="261.38" y="-94.7" font-family="Times,serif" font-size="14.00">bff&#45;1</text>
</g>
<!-- SERVICE:bff -->
<g id="node18" class="node">
<title>SERVICE:bff</title>
<path fill="#eef6ff" stroke="black" d="M504.5,-117C504.5,-117 474.5,-117 474.5,-117 468.5,-117 462.5,-111 462.5,-105 462.5,-105 462.5,-93 462.5,-93 462.5,-87 468.5,-81 474.5,-81 474.5,-81 504.5,-81 504.5,-81 510.5,-81 516.5,-87 516.5,-93 516.5,-93 516.5,-105 516.5,-105 516.5,-111 510.5,-117 504.5,-117"/>
<text text-anchor="middle" x="489.5" y="-94.7" font-family="Times,serif" font-size="14.00">bff</text>
</g>
<!-- SERVICE:bff&#45;1&#45;&gt;SERVICE:bff -->
<g id="edge17" class="edge">
<title>SERVICE:bff&#45;1&#45;&gt;SERVICE:bff</title>
<g id="a_edge17"><a xlink:title="edge#16">
<path fill="none" stroke="black" d="M288.76,-99C328.84,-99 405.25,-99 451.06,-99"/>
<polygon fill="black" stroke="black" points="450.77,-102.5 460.77,-99 450.77,-95.5 450.77,-102.5"/>
</a>
</g>
<text text-anchor="middle" x="385.62" y="-103.7" font-family="Times,serif" font-size="14.00">CALLS [rest] (sync)</text>
</g>
<!-- SERVICE:bff&#45;2_split -->
<g id="node12" class="node">
<title>SERVICE:bff&#45;2_split</title>
<path fill="#eef6ff" stroke="black" d="M1262.25,-169C1262.25,-169 1205,-169 1205,-169 1199,-169 1193,-163 1193,-157 1193,-157 1193,-145 1193,-145 1193,-139 1199,-133 1205,-133 1205,-133 1262.25,-133 1262.25,-133 1268.25,-133 1274.25,-139 1274.25,-145 1274.25,-145 1274.25,-157 1274.25,-157 1274.25,-163 1268.25,-169 1262.25,-169"/>
<text text-anchor="middle" x="1233.62" y="-146.7" font-family="Times,serif" font-size="14.00">bff&#45;2_split</text>
</g>
<!-- SERVICE:bff&#45;2_split&#45;&gt;SERVICE:cart -->
<g id="edge19" class="edge">
<title>SERVICE:bff&#45;2_split&#45;&gt;SERVICE:cart</title>
<g id="a_edge19"><a xlink:title="edge#18">
<path fill="none" stroke="black" d="M1274.39,-143.09C1286.02,-140.79 1298.77,-138.28 1310.5,-136 1366.14,-125.17 1385.13,-137.5 1435.75,-112 1443.73,-107.98 1451.33,-102.16 1457.95,-96.12"/>
<polygon fill="black" stroke="black" points="1459.99,-99.02 1464.7,-89.53 1455.1,-94.01 1459.99,-99.02"/>
</a>
</g>
<text text-anchor="middle" x="1373.12" y="-140.7" font-family="Times,serif" font-size="14.00">CALLS [rest] (sync)</text>
</g>
<!-- SERVICE:bff&#45;2_split&#45;&gt;SERVICE:orders -->
<g id="edge20" class="edge">
<title>SERVICE:bff&#45;2_split&#45;&gt;SERVICE:orders</title>
<g id="a_edge20"><a xlink:title="edge#19">
<path fill="none" stroke="black" d="M1274.54,-154.88C1320.72,-159.37 1396.25,-166.72 1442.14,-171.18"/>
<polygon fill="black" stroke="black" points="1441.61,-174.65 1451.9,-172.13 1442.29,-167.68 1441.61,-174.65"/>
</a>
</g>
<text text-anchor="middle" x="1373.12" y="-174.7" font-family="Times,serif" font-size="14.00">CALLS [rest] (sync)</text>
</g>
<!-- SERVICE:bff&#45;3&#45;&gt;SERVICE:web&#45;ui_split_split -->
<g id="edge26" class="edge">
<title>SERVICE:bff&#45;3&#45;&gt;SERVICE:web&#45;ui_split_split</title>
<g id="a_edge26"><a xlink:title="edge#25">
<path fill="none" stroke="black" d="M516.55,-205.07C550.22,-210.32 610.29,-219.7 658.76,-227.27"/>
<polygon fill="black" stroke="black" points="657.94,-230.69 668.36,-228.77 659.02,-223.77 657.94,-230.69"/>
</a>
</g>
<text text-anchor="middle" x="593.38" y="-229.7" font-family="Times,serif" font-size="14.00">CALLS [rest] (sync)</text>
</g>
<!-- SERVICE:bff&#45;2 -->
<g id="node19" class="node">
<title>SERVICE:bff&#45;2</title>
<path fill="#eef6ff" stroke="black" d="M1002.12,-203C1002.12,-203 972.12,-203 972.12,-203 966.12,-203 960.12,-197 960.12,-191 960.12,-191 960.12,-179 960.12,-179 960.12,-173 966.12,-167 972.12,-167 972.12,-167 1002.12,-167 1002.12,-167 1008.12,-167 1014.12,-173 1014.12,-179 1014.12,-179 1014.12,-191 1014.12,-191 1014.12,-197 1008.12,-203 1002.12,-203"/>
<text text-anchor="middle" x="987.12" y="-180.7" font-family="Times,serif" font-size="14.00">bff&#45;2</text>
</g>
<!-- SERVICE:bff&#45;3&#45;&gt;SERVICE:bff&#45;2 -->
<g id="edge27" class="edge">
<title>SERVICE:bff&#45;3&#45;&gt;SERVICE:bff&#45;2</title>
<g id="a_edge27"><a xlink:title="edge#26">
<path fill="none" stroke="black" d="M516.99,-199.88C552.05,-198.42 615.78,-195.84 670.25,-194 770.79,-190.61 889.36,-187.46 948.55,-185.94"/>
<polygon fill="black" stroke="black" points="948.49,-189.45 958.4,-185.69 948.32,-182.45 948.49,-189.45"/>
</a>
</g>
<text text-anchor="middle" x="734.88" y="-198.7" font-family="Times,serif" font-size="14.00">CALLS [rest] (sync)</text>
</g>
<!-- SERVICE:web&#45;ui -->
<g id="node14" class="node">
<title>SERVICE:web&#45;ui</title>
<path fill="#eef6ff" stroke="black" d="M48.25,-117C48.25,-117 12,-117 12,-117 6,-117 0,-111 0,-105 0,-105 0,-93 0,-93 0,-87 6,-81 12,-81 12,-81 48.25,-81 48.25,-81 54.25,-81 60.25,-87 60.25,-93 60.25,-93 60.25,-105 60.25,-105 60.25,-111 54.25,-117 48.25,-117"/>
<text text-anchor="middle" x="30.12" y="-94.7" font-family="Times,serif" font-size="14.00">web&#45;ui</text>
</g>
<!-- SERVICE:web&#45;ui&#45;&gt;SERVICE:bff&#45;1 -->
<g id="edge16" class="edge">
<title>SERVICE:web&#45;ui&#45;&gt;SERVICE:bff&#45;1</title>
<g id="a_edge16"><a xlink:title="edge#15">
<path fill="none" stroke="black" d="M60.63,-99C102.03,-99 177.39,-99 222.77,-99"/>
<polygon fill="black" stroke="black" points="222.66,-102.5 232.66,-99 222.66,-95.5 222.66,-102.5"/>
</a>
</g>
<text text-anchor="middle" x="137.12" y="-103.7" font-family="Times,serif" font-size="14.00">CALLS [rest] (sync)</text>
</g>
<!-- SERVICE:auth -->
<g id="node15" class="node">
<title>SERVICE:auth</title>
<path fill="#eef6ff" stroke="black" d="M1002.12,-90C1002.12,-90 972.12,-90 972.12,-90 966.12,-90 960.12,-84 960.12,-78 960.12,-78 960.12,-66 960.12,-66 960.12,-60 966.12,-54 972.12,-54 972.12,-54 1002.12,-54 1002.12,-54 1008.12,-54 1014.12,-60 1014.12,-66 1014.12,-66 1014.12,-78 1014.12,-78 1014.12,-84 1008.12,-90 1002.12,-90"/>
<text text-anchor="middle" x="987.12" y="-67.7" font-family="Times,serif" font-size="14.00">auth</text>
</g>
<!-- SERVICE:inventory -->
<g id="node17" class="node">
<title>SERVICE:inventory</title>
<path fill="#eef6ff" stroke="black" d="M1872.88,-147C1872.88,-147 1820.88,-147 1820.88,-147 1814.88,-147 1808.88,-141 1808.88,-135 1808.88,-135 1808.88,-123 1808.88,-123 1808.88,-117 1814.88,-111 1820.88,-111 1820.88,-111 1872.88,-111 1872.88,-111 1878.88,-111 1884.88,-117 1884.88,-123 1884.88,-123 1884.88,-135 1884.88,-135 1884.88,-141 1878.88,-147 1872.88,-147"/>
<text text-anchor="middle" x="1846.88" y="-124.7" font-family="Times,serif" font-size="14.00">inventory</text>
</g>
<!-- SERVICE:orders&#45;&gt;SERVICE:inventory -->
<g id="edge2" class="edge">
<title>SERVICE:orders&#45;&gt;SERVICE:inventory</title>
<g id="a_edge2"><a xlink:title="edge#1">
<path fill="none" stroke="black" d="M1511.22,-159.56C1516.95,-156.97 1523.06,-154.6 1529,-153 1621.54,-128.14 1734.38,-125.96 1797.37,-127.14"/>
<polygon fill="black" stroke="black" points="1796.94,-130.63 1807.02,-127.36 1797.1,-123.63 1796.94,-130.63"/>
</a>
</g>
<text text-anchor="middle" x="1587.88" y="-157.7" font-family="Times,serif" font-size="14.00">CALLS [rest] (sync)</text>
</g>
<!-- SERVICE:orders_split&#45;2 -->
<g id="node21" class="node">
<title>SERVICE:orders_split&#45;2</title>
<path fill="#eef6ff" stroke="black" d="M1758,-193C1758,-193 1676.75,-193 1676.75,-193 1670.75,-193 1664.75,-187 1664.75,-181 1664.75,-181 1664.75,-169 1664.75,-169 1664.75,-163 1670.75,-157 1676.75,-157 1676.75,-157 1758,-157 1758,-157 1764,-157 1770,-163 1770,-169 1770,-169 1770,-181 1770,-181 1770,-187 1764,-193 1758,-193"/>
<text text-anchor="middle" x="1717.38" y="-170.7" font-family="Times,serif" font-size="14.00">orders_split&#45;2</text>
</g>
<!-- SERVICE:orders&#45;&gt;SERVICE:orders_split&#45;2 -->
<g id="edge23" class="edge">
<title>SERVICE:orders&#45;&gt;SERVICE:orders_split&#45;2</title>
<g id="a_edge23"><a xlink:title="edge#22">
<path fill="none" stroke="black" d="M1511.48,-175C1546.29,-175 1606.65,-175 1652.87,-175"/>
<polygon fill="black" stroke="black" points="1652.78,-178.5 1662.78,-175 1652.78,-171.5 1652.78,-178.5"/>
</a>
</g>
<text text-anchor="middle" x="1587.88" y="-179.7" font-family="Times,serif" font-size="14.00">CALLS [rest] (sync)</text>
</g>
<!-- SERVICE:inventory&#45;&gt;DATABASE:shared&#45;db -->
<g id="edge7" class="edge">
<title>SERVICE:inventory&#45;&gt;DATABASE:shared&#45;db</title>
<g id="a_edge7"><a xlink:title="edge#6">
<path fill="none" stroke="black" d="M1885.1,-127.65C1992.78,-123.73 2304.79,-112.39 2428.92,-107.88"/>
<polygon fill="black" stroke="black" points="2428.95,-111.38 2438.82,-107.52 2428.7,-104.39 2428.95,-111.38"/>
</a>
</g>
<text text-anchor="middle" x="2118.38" y="-125.7" font-family="Times,serif" font-size="14.00">CALLS [rest] (sync)</text>
</g>
<!-- SERVICE:bff&#45;&gt;SERVICE:payments -->
<g id="edge9" class="edge">
<title>SERVICE:bff&#45;&gt;SERVICE:payments</title>
<g id="a_edge9"><a xlink:title="edge#8">
<path fill="none" stroke="black" d="M516.54,-102.17C522.44,-102.83 528.68,-103.48 534.5,-104 672.52,-116.38 1039.98,-70.38 1156.75,-145 1170.83,-154 1162.81,-166.31 1174.75,-178 1177.59,-180.78 1180.73,-183.35 1184.05,-185.74"/>
<polygon fill="black" stroke="black" points="1182.14,-188.68 1192.45,-191.12 1185.92,-182.78 1182.14,-188.68"/>
</a>
</g>
<text text-anchor="middle" x="876.38" y="-106.7" font-family="Times,serif" font-size="14.00">CALLS [rest] (sync)</text>
</g>
<!-- SERVICE:bff_split&#45;1 -->
<g id="node20" class="node">
<title>SERVICE:bff_split&#45;1</title>
<path fill="#eef6ff" stroke="black" d="M762.75,-90C762.75,-90 707,-90 707,-90 701,-90 695,-84 695,-78 695,-78 695,-66 695,-66 695,-60 701,-54 707,-54 707,-54 762.75,-54 762.75,-54 768.75,-54 774.75,-60 774.75,-66 774.75,-66 774.75,-78 774.75,-78 774.75,-84 768.75,-90 762.75,-90"/>
<text text-anchor="middle" x="734.88" y="-67.7" font-family="Times,serif" font-size="14.00">bff_split&#45;1</text>
</g>
<!-- SERVICE:bff&#45;&gt;SERVICE:bff_split&#45;1 -->
<g id="edge21" class="edge">
<title>SERVICE:bff&#45;&gt;SERVICE:bff_split&#45;1</title>
<g id="a_edge21"><a xlink:title="edge#20">
<path fill="none" stroke="black" d="M516.8,-90.22C522.58,-88.58 528.7,-87.05 534.5,-86 584.54,-76.96 642.62,-73.68 683.14,-72.53"/>
<polygon fill="black" stroke="black" points="683.17,-76.03 693.08,-72.29 683,-69.04 683.17,-76.03"/>
</a>
</g>
<text text-anchor="middle" x="593.38" y="-90.7" font-family="Times,serif" font-size="14.00">CALLS [rest] (sync)</text>
</g>
<!-- SERVICE:bff&#45;2&#45;&gt;SERVICE:payments -->
<g id="edge18" class="edge">
<title>SERVICE:bff&#45;2&#45;&gt;SERVICE:payments</title>
<g id="a_edge18"><a xlink:title="edge#17">
<path fill="none" stroke="black" d="M1014.51,-185.05C1047.79,-185.39 1106.71,-186.9 1156.75,-193 1165.18,-194.03 1174.08,-195.46 1182.7,-197.04"/>
<polygon fill="black" stroke="black" points="1181.85,-200.44 1192.33,-198.9 1183.17,-193.57 1181.85,-200.44"/>
</a>
</g>
<text text-anchor="middle" x="1097.88" y="-197.7" font-family="Times,serif" font-size="14.00">CALLS [rest] (sync)</text>
</g>
<!-- SERVICE:bff&#45;2&#45;&gt;SERVICE:bff&#45;2_split -->
<g id="edge24" class="edge">
<title>SERVICE:bff&#45;2&#45;&gt;SERVICE:bff&#45;2_split</title>
<g id="a_edge24"><a xlink:title="edge#23">
<path fill="none" stroke="black" d="M1014.46,-171.56C1022.18,-168.19 1030.76,-164.97 1039,-163 1086.3,-151.67 1141.85,-149.31 1181.29,-149.4"/>
<polygon fill="black" stroke="black" points="1181.18,-152.9 1191.21,-149.48 1181.24,-145.9 1181.18,-152.9"/>
</a>
</g>
<text text-anchor="middle" x="1097.88" y="-167.7" font-family="Times,serif" font-size="14.00">CALLS [rest] (sync)</text>
</g>
<!-- SERVICE:bff_split&#45;1&#45;&gt;SERVICE:bff_split -->
<g id="edge15" class="edge">
<title>SERVICE:bff_split&#45;1&#45;&gt;SERVICE:bff_split</title>
<g id="a_edge15"><a xlink:title="edge#14">
<path fill="none" stroke="black" d="M775.17,-60.76C788.54,-57.11 803.62,-53.18 817.5,-50 859.51,-40.37 907.88,-31.4 942.01,-25.43"/>
<polygon fill="black" stroke="black" points="942.27,-28.94 951.52,-23.78 941.07,-22.04 942.27,-28.94"/>
</a>
</g>
<text text-anchor="middle" x="876.38" y="-54.7" font-family="Times,serif" font-size="14.00">CALLS [rest] (sync)</text>
</g>
<!-- SERVICE:bff_split&#45;1&#45;&gt;SERVICE:auth -->
<g id="edge10" class="edge">
<title>SERVICE:bff_split&#45;1&#45;&gt;SERVICE:auth</title>
<g id="a_edge10"><a xlink:title="edge#9">
<path fill="none" stroke="black" d="M774.98,-72C822.4,-72 901.77,-72 948.51,-72"/>
<polygon fill="black" stroke="black" points="948.42,-75.5 958.42,-72 948.42,-68.5 948.42,-75.5"/>
</a>
</g>
<text text-anchor="middle" x="876.38" y="-76.7" font-family="Times,serif" font-size="14.00">CALLS [rest] (sync)</text>
</g>
<!-- SERVICE:orders_split&#45;2&#45;&gt;SERVICE:orders_split&#45;1 -->
<g id="edge14" class="edge">
<title>SERVICE:orders_split&#45;2&#45;&gt;SERVICE:orders_split&#45;1</title>
<g id="a_edge14"><a xlink:title="edge#13">
<path fill="none" stroke="black" d="M1770.38,-175C1813.12,-175 1873.78,-175 1919.14,-175"/>
<polygon fill="black" stroke="black" points="1919.11,-178.5 1929.11,-175 1919.11,-171.5 1919.11,-178.5"/>
</a>
</g>
<text text-anchor="middle" x="1846.88" y="-179.7" font-family="Times,serif" font-size="14.00">CALLS [rest] (sync)</text>
</g>
<!-- SERVICE:catalog&#45;&gt;DATABASE:shared&#45;db -->
<g id="edge4" class="edge">
<title>SERVICE:catalog&#45;&gt;DATABASE:shared&#45;db</title>
<g id="a_edge4"><a xlink:title="edge#3">
<path fill="none" stroke="black" d="M1749.31,-32.59C1849.72,-19.48 2174.42,13.44 2422.75,-69 2431.52,-71.91 2440.28,-76.44 2448.24,-81.34"/>
<polygon fill="black" stroke="black" points="2446.3,-84.25 2456.58,-86.83 2450.15,-78.41 2446.3,-84.25"/>
</a>
</g>
<text text-anchor="middle" x="2118.38" y="-26.7" font-family="Times,serif" font-size="14.00">CALLS [rest] (sync)</text>
</g>
</g>
</svg>
