<?xml version="1.0" encoding="UTF-8" standalone="no"?>
<!DOCTYPE svg PUBLIC "-//W3C//DTD SVG 1.1//EN"
 "http://www.w3.org/Graphics/SVG/1.1/DTD/svg11.dtd">
<!-- Generated by graphviz version 9.0.0 (20230911.1827)
 -->
<!-- Title: G Pages: 1 -->
<svg width="1797pt" height="423pt"
 viewBox="0.00 0.00 1797.25 423.00" xmlns="http://www.w3.org/2000/svg" xmlns:xlink="http://www.w3.org/1999/xlink">
<g id="graph0" class="graph" transform="scale(1 1) rotate(0) translate(4 419)">
<title>G</title>
<polygon fill="white" stroke="none" points="-4,4 -4,-419 1793.25,-419 1793.25,4 -4,4"/>
<text text-anchor="middle" x="894.62" y="-397.7" font-family="Helvetica,sans-Serif" font-size="14.00">Architecture</text>
<!-- SERVICE:cart -->
<g id="node1" class="node">
<title>SERVICE:cart</title>
<path fill="#eef6ff" stroke="black" d="M996.88,-36C996.88,-36 966.88,-36 966.88,-36 960.88,-36 954.88,-30 954.88,-24 954.88,-24 954.88,-12 954.88,-12 954.88,-6 960.88,0 966.88,0 966.88,0 996.88,0 996.88,0 1002.88,0 1008.88,-6 1008.88,-12 1008.88,-12 1008.88,-24 1008.88,-24 1008.88,-30 1002.88,-36 996.88,-36"/>
<text text-anchor="middle" x="981.88" y="-13.7" font-family="Times,serif" font-size="14.00">cart</text>
</g>
<!-- SERVICE:catalog -->
<g id="node11" class="node">
<title>SERVICE:catalog</title>
<path fill="#eef6ff" stroke="black" d="M1242.75,-74C1242.75,-74 1203.5,-74 1203.5,-74 1197.5,-74 1191.5,-68 1191.5,-62 1191.5,-62 1191.5,-50 1191.5,-50 1191.5,-44 1197.5,-38 1203.5,-38 1203.5,-38 1242.75,-38 1242.75,-38 1248.75,-38 1254.75,-44 1254.75,-50 1254.75,-50 1254.75,-62 1254.75,-62 1254.75,-68 1248.75,-74 1242.75,-74"/>
<text text-anchor="middle" x="1223.12" y="-51.7" font-family="Times,serif" font-size="14.00">catalog</text>
</g>
<!-- SERVICE:cart&#45;&gt;SERVICE:catalog -->
<g id="edge3" class="edge">
<title>SERVICE:cart&#45;&gt;SERVICE:catalog</title>
<g id="a_edge3"><a xlink:title="edge#2">
<path fill="none" stroke="black" d="M1009.24,-21.57C1041.57,-26.02 1098.03,-34.01 1146.25,-42 1157.23,-43.82 1169.09,-45.93 1180.08,-47.96"/>
<polygon fill="black" stroke="black" points="1179.2,-51.35 1189.67,-49.74 1180.48,-44.47 1179.2,-51.35"/>
</a>
</g>
<text text-anchor="middle" x="1087.38" y="-46.7" font-family="Times,serif" font-size="14.00">CALLS [rest] (sync)</text>
</g>
<!-- DATABASE:shared&#45;db -->
<g id="node13" class="node">
<title>DATABASE:shared&#45;db</title>
<path fill="#fff3cd" stroke="black" d="M1789.25,-97.73C1789.25,-99.53 1770.87,-101 1748.25,-101 1725.63,-101 1707.25,-99.53 1707.25,-97.73 1707.25,-97.73 1707.25,-68.27 1707.25,-68.27 1707.25,-66.47 1725.63,-65 1748.25,-65 1770.87,-65 1789.25,-66.47 1789.25,-68.27 1789.25,-68.27 1789.25,-97.73 1789.25,-97.73"/>
<path fill="none" stroke="black" d="M1789.25,-97.73C1789.25,-95.92 1770.87,-94.45 1748.25,-94.45 1725.63,-94.45 1707.25,-95.92 1707.25,-97.73"/>
<text text-anchor="middle" x="1748.25" y="-78.7" font-family="Times,serif" font-size="14.00">shared&#45;db</text>
</g>
<!-- SERVICE:cart&#45;&gt;DATABASE:shared&#45;db -->
<g id="edge7" class="edge">
<title>SERVICE:cart&#45;&gt;DATABASE:shared&#45;db</title>
<g id="a_edge7"><a xlink:title="edge#6">
<path fill="none" stroke="black" d="M1009.2,-18.43C1041.49,-19 1097.91,-20.16 1146.25,-22 1388.39,-31.21 1450.06,-32.23 1689.25,-71 1691.29,-71.33 1693.37,-71.68 1695.47,-72.05"/>
<polygon fill="black" stroke="black" points="1694.81,-75.49 1705.28,-73.88 1696.09,-68.61 1694.81,-75.49"/>
</a>
</g>
<text text-anchor="middle" x="1358.88" y="-40.7" font-family="Times,serif" font-size="14.00">CALLS [rest] (sync)</text>
</g>
<!-- SERVICE:orders -->
<g id="node2" class="node">
<title>SERVICE:orders</title>
<path fill="#eef6ff" stroke="black" d="M998.5,-174C998.5,-174 965.25,-174 965.25,-174 959.25,-174 953.25,-168 953.25,-162 953.25,-162 953.25,-150 953.25,-150 953.25,-144 959.25,-138 965.25,-138 965.25,-138 998.5,-138 998.5,-138 1004.5,-138 1010.5,-144 1010.5,-150 1010.5,-150 1010.5,-162 1010.5,-162 1010.5,-168 1004.5,-174 998.5,-174"/>
<text text-anchor="middle" x="981.88" y="-151.7" font-family="Times,serif" font-size="14.00">orders</text>
</g>
<!-- SERVICE:inventory -->
<g id="node3" class="node">
<title>SERVICE:inventory</title>
<path fill="#eef6ff" stroke="black" d="M1384.88,-129C1384.88,-129 1332.88,-129 1332.88,-129 1326.88,-129 1320.88,-123 1320.88,-117 1320.88,-117 1320.88,-105 1320.88,-105 1320.88,-99 1326.88,-93 1332.88,-93 1332.88,-93 1384.88,-93 1384.88,-93 1390.88,-93 1396.88,-99 1396.88,-105 1396.88,-105 1396.88,-117 1396.88,-117 1396.88,-123 1390.88,-129 1384.88,-129"/>
<text text-anchor="middle" x="1358.88" y="-106.7" font-family="Times,serif" font-size="14.00">inventory</text>
</g>
<!-- SERVICE:orders&#45;&gt;SERVICE:inventory -->
<g id="edge4" class="edge">
<title>SERVICE:orders&#45;&gt;SERVICE:inventory</title>
<g id="a_edge4"><a xlink:title="edge#3">
<path fill="none" stroke="black" d="M1010.77,-141.26C1016.5,-138.78 1022.59,-136.52 1028.5,-135 1125.79,-109.94 1244.21,-107.94 1309.26,-109.18"/>
<polygon fill="black" stroke="black" points="1308.79,-112.67 1318.86,-109.4 1308.95,-105.67 1308.79,-112.67"/>
</a>
</g>
<text text-anchor="middle" x="1087.38" y="-139.7" font-family="Times,serif" font-size="14.00">CALLS [rest] (sync)</text>
</g>
<!-- SERVICE:orders_split&#45;1 -->
<g id="node15" class="node">
<title>SERVICE:orders_split&#45;1</title>
<path fill="#eef6ff" stroke="black" d="M1263,-180C1263,-180 1183.25,-180 1183.25,-180 1177.25,-180 1171.25,-174 1171.25,-168 1171.25,-168 1171.25,-156 1171.25,-156 1171.25,-150 1177.25,-144 1183.25,-144 1183.25,-144 1263,-144 1263,-144 1269,-144 1275,-150 1275,-156 1275,-156 1275,-168 1275,-168 1275,-174 1269,-180 1263,-180"/>
<text text-anchor="middle" x="1223.12" y="-157.7" font-family="Times,serif" font-size="14.00">orders_split&#45;1</text>
</g>
<!-- SERVICE:orders&#45;&gt;SERVICE:orders_split&#45;1 -->
<g id="edge18" class="edge">
<title>SERVICE:orders&#45;&gt;SERVICE:orders_split&#45;1</title>
<g id="a_edge18"><a xlink:title="edge#17">
<path fill="none" stroke="black" d="M1010.79,-156.7C1047.08,-157.61 1111.51,-159.23 1159.72,-160.43"/>
<polygon fill="black" stroke="black" points="1159.38,-163.93 1169.46,-160.68 1159.55,-156.93 1159.38,-163.93"/>
</a>
</g>
<text text-anchor="middle" x="1087.38" y="-164.7" font-family="Times,serif" font-size="14.00">CALLS [rest] (sync)</text>
</g>
<!-- SERVICE:inventory&#45;&gt;DATABASE:shared&#45;db -->
<g id="edge9" class="edge">
<title>SERVICE:inventory&#45;&gt;DATABASE:shared&#45;db</title>
<g id="a_edge9"><a xlink:title="edge#8">
<path fill="none" stroke="black" d="M1397.37,-108.29C1467.05,-103.25 1616.57,-92.45 1695.7,-86.73"/>
<polygon fill="black" stroke="black" points="1695.61,-90.24 1705.33,-86.03 1695.11,-83.26 1695.61,-90.24"/>
</a>
</g>
<text text-anchor="middle" x="1494.62" y="-109.7" font-family="Times,serif" font-size="14.00">CALLS [rest] (sync)</text>
</g>
<!-- SERVICE:orders_split -->
<g id="node4" class="node">
<title>SERVICE:orders_split</title>
<path fill="#eef6ff" stroke="black" d="M1528.5,-182C1528.5,-182 1460.75,-182 1460.75,-182 1454.75,-182 1448.75,-176 1448.75,-170 1448.75,-170 1448.75,-158 1448.75,-158 1448.75,-152 1454.75,-146 1460.75,-146 1460.75,-146 1528.5,-146 1528.5,-146 1534.5,-146 1540.5,-152 1540.5,-158 1540.5,-158 1540.5,-170 1540.5,-170 1540.5,-176 1534.5,-182 1528.5,-182"/>
<text text-anchor="middle" x="1494.62" y="-159.7" font-family="Times,serif" font-size="14.00">orders_split</text>
</g>
<!-- SERVICE:payments -->
<g id="node12" class="node">
<title>SERVICE:payments</title>
<path fill="#eef6ff" stroke="black" d="M1775.75,-262C1775.75,-262 1720.75,-262 1720.75,-262 1714.75,-262 1708.75,-256 1708.75,-250 1708.75,-250 1708.75,-238 1708.75,-238 1708.75,-232 1714.75,-226 1720.75,-226 1720.75,-226 1775.75,-226 1775.75,-226 1781.75,-226 1787.75,-232 1787.75,-238 1787.75,-238 1787.75,-250 1787.75,-250 1787.75,-256 1781.75,-262 1775.75,-262"/>
<text text-anchor="middle" x="1748.25" y="-239.7" font-family="Times,serif" font-size="14.00">payments</text>
</g>
<!-- SERVICE:orders_split&#45;&gt;SERVICE:payments -->
<g id="edge5" class="edge">
<title>SERVICE:orders_split&#45;&gt;SERVICE:payments</title>
<g id="a_edge5"><a xlink:title="edge#4">
<path fill="none" stroke="black" d="M1540.79,-165.41C1589.63,-167.54 1663.92,-172.73 1689.25,-185 1704.29,-192.28 1717.64,-205.13 1727.73,-216.98"/>
<polygon fill="black" stroke="black" points="1724.83,-218.97 1733.83,-224.57 1730.29,-214.58 1724.83,-218.97"/>
</a>
</g>
<text text-anchor="middle" x="1630.38" y="-189.7" font-family="Times,serif" font-size="14.00">CALLS [rest] (sync)</text>
</g>
<!-- SERVICE:orders_split&#45;&gt;DATABASE:shared&#45;db -->
<g id="edge8" class="edge">
<title>SERVICE:orders_split&#45;&gt;DATABASE:shared&#45;db</title>
<g id="a_edge8"><a xlink:title="edge#7">
<path fill="none" stroke="black" d="M1540.88,-152.32C1550.94,-149.82 1561.57,-147.25 1571.5,-145 1623.58,-133.18 1639.86,-141.33 1689.25,-121 1697.78,-117.49 1706.4,-112.67 1714.3,-107.65"/>
<polygon fill="black" stroke="black" points="1716.22,-110.57 1722.59,-102.1 1712.33,-104.76 1716.22,-110.57"/>
</a>
</g>
<text text-anchor="middle" x="1630.38" y="-149.7" font-family="Times,serif" font-size="14.00">CALLS [rest] (sync)</text>
</g>
<!-- SERVICE:bff_split -->
<g id="node5" class="node">
<title>SERVICE:bff_split</title>
<path fill="#eef6ff" stroke="black" d="M756.75,-293C756.75,-293 713,-293 713,-293 707,-293 701,-287 701,-281 701,-281 701,-269 701,-269 701,-263 707,-257 713,-257 713,-257 756.75,-257 756.75,-257 762.75,-257 768.75,-263 768.75,-269 768.75,-269 768.75,-281 768.75,-281 768.75,-287 762.75,-293 756.75,-293"/>
<text text-anchor="middle" x="734.88" y="-270.7" font-family="Times,serif" font-size="14.00">bff_split</text>
</g>
<!-- SERVICE:bff_split&#45;&gt;SERVICE:orders -->
<g id="edge13" class="edge">
<title>SERVICE:bff_split&#45;&gt;SERVICE:orders</title>
<g id="a_edge13"><a xlink:title="edge#12">
<path fill="none" stroke="black" d="M769.17,-258.83C814.42,-236.85 895.13,-197.65 942.76,-174.52"/>
<polygon fill="black" stroke="black" points="944.14,-177.74 951.6,-170.22 941.08,-171.44 944.14,-177.74"/>
</a>
</g>
<text text-anchor="middle" x="876.38" y="-237.7" font-family="Times,serif" font-size="14.00">CALLS [rest] (sync)</text>
</g>
<!-- SERVICE:auth -->
<g id="node10" class="node">
<title>SERVICE:auth</title>
<path fill="#eef6ff" stroke="black" d="M996.88,-389C996.88,-389 966.88,-389 966.88,-389 960.88,-389 954.88,-383 954.88,-377 954.88,-377 954.88,-365 954.88,-365 954.88,-359 960.88,-353 966.88,-353 966.88,-353 996.88,-353 996.88,-353 1002.88,-353 1008.88,-359 1008.88,-365 1008.88,-365 1008.88,-377 1008.88,-377 1008.88,-383 1002.88,-389 996.88,-389"/>
<text text-anchor="middle" x="981.88" y="-366.7" font-family="Times,serif" font-size="14.00">auth</text>
</g>
<!-- SERVICE:bff_split&#45;&gt;SERVICE:auth -->
<g id="edge15" class="edge">
<title>SERVICE:bff_split&#45;&gt;SERVICE:auth</title>
<g id="a_edge15"><a xlink:title="edge#14">
<path fill="none" stroke="black" d="M753.95,-293.34C769.45,-307.99 793.1,-327.83 817.5,-339 858.05,-357.56 909.08,-365.37 943.21,-368.65"/>
<polygon fill="black" stroke="black" points="942.77,-372.12 953.03,-369.5 943.37,-365.15 942.77,-372.12"/>
</a>
</g>
<text text-anchor="middle" x="876.38" y="-371.7" font-family="Times,serif" font-size="14.00">CALLS [rest] (sync)</text>
</g>
<!-- SERVICE:bff_split&#45;&gt;SERVICE:payments -->
<g id="edge14" class="edge">
<title>SERVICE:bff_split&#45;&gt;SERVICE:payments</title>
<g id="a_edge14"><a xlink:title="edge#13">
<path fill="none" stroke="black" d="M769.12,-286.22C815.84,-300.96 903.82,-325 980.88,-325 980.88,-325 980.88,-325 1495.62,-325 1583.5,-325 1608.64,-319.99 1689.25,-285 1698.7,-280.9 1708.16,-275.11 1716.62,-269.16"/>
<polygon fill="black" stroke="black" points="1718.5,-272.13 1724.47,-263.37 1714.34,-266.49 1718.5,-272.13"/>
</a>
</g>
<text text-anchor="middle" x="1223.12" y="-329.7" font-family="Times,serif" font-size="14.00">CALLS [rest] (sync)</text>
</g>
<!-- SERVICE:bff&#45;1 -->
<g id="node6" class="node">
<title>SERVICE:bff&#45;1</title>
<path fill="#eef6ff" stroke="black" d="M256,-118C256,-118 226,-118 226,-118 220,-118 214,-112 214,-106 214,-106 214,-94 214,-94 214,-88 220,-82 226,-82 226,-82 256,-82 256,-82 262,-82 268,-88 268,-94 268,-94 268,-106 268,-106 268,-112 262,-118 256,-118"/>
<text text-anchor="middle" x="241" y="-95.7" font-family="Times,serif" font-size="14.00">bff&#45;1</text>
</g>
<!-- SERVICE:web&#45;ui_split -->
<g id="node8" class="node">
<title>SERVICE:web&#45;ui_split</title>
<path fill="#eef6ff" stroke="black" d="M504.5,-146C504.5,-146 433.75,-146 433.75,-146 427.75,-146 421.75,-140 421.75,-134 421.75,-134 421.75,-122 421.75,-122 421.75,-116 427.75,-110 433.75,-110 433.75,-110 504.5,-110 504.5,-110 510.5,-110 516.5,-116 516.5,-122 516.5,-122 516.5,-134 516.5,-134 516.5,-140 510.5,-146 504.5,-146"/>
<text text-anchor="middle" x="469.12" y="-123.7" font-family="Times,serif" font-size="14.00">web&#45;ui_split</text>
</g>
<!-- SERVICE:bff&#45;1&#45;&gt;SERVICE:web&#45;ui_split -->
<g id="edge20" class="edge">
<title>SERVICE:bff&#45;1&#45;&gt;SERVICE:web&#45;ui_split</title>
<g id="a_edge20"><a xlink:title="edge#19">
<path fill="none" stroke="black" d="M268.38,-103.27C302.97,-107.55 364.59,-115.18 410.27,-120.84"/>
<polygon fill="black" stroke="black" points="409.66,-124.29 420.02,-122.04 410.52,-117.34 409.66,-124.29"/>
</a>
</g>
<text text-anchor="middle" x="344.88" y="-123.7" font-family="Times,serif" font-size="14.00">CALLS [rest] (sync)</text>
</g>
<!-- SERVICE:bff -->
<g id="node9" class="node">
<title>SERVICE:bff</title>
<path fill="#eef6ff" stroke="black" d="M484.12,-92C484.12,-92 454.12,-92 454.12,-92 448.12,-92 442.12,-86 442.12,-80 442.12,-80 442.12,-68 442.12,-68 442.12,-62 448.12,-56 454.12,-56 454.12,-56 484.12,-56 484.12,-56 490.12,-56 496.12,-62 496.12,-68 496.12,-68 496.12,-80 496.12,-80 496.12,-86 490.12,-92 484.12,-92"/>
<text text-anchor="middle" x="469.12" y="-69.7" font-family="Times,serif" font-size="14.00">bff</text>
</g>
<!-- SERVICE:bff&#45;1&#45;&gt;SERVICE:bff -->
<g id="edge21" class="edge">
<title>SERVICE:bff&#45;1&#45;&gt;SERVICE:bff</title>
<g id="a_edge21"><a xlink:title="edge#20">
<path fill="none" stroke="black" d="M268.16,-89.07C273.94,-87.05 280.11,-85.21 286,-84 335.27,-73.92 393.5,-72.5 430.61,-72.87"/>
<polygon fill="black" stroke="black" points="430.31,-76.37 440.37,-73.02 430.42,-69.37 430.31,-76.37"/>
</a>
</g>
<text text-anchor="middle" x="344.88" y="-88.7" font-family="Times,serif" font-size="14.00">CALLS [rest] (sync)</text>
</g>
<!-- SERVICE:web&#45;ui -->
<g id="node7" class="node">
<title>SERVICE:web&#45;ui</title>
<path fill="#eef6ff" stroke="black" d="M48.25,-118C48.25,-118 12,-118 12,-118 6,-118 0,-112 0,-106 0,-106 0,-94 0,-94 0,-88 6,-82 12,-82 12,-82 48.25,-82 48.25,-82 54.25,-82 60.25,-88 60.25,-94 60.25,-94 60.25,-106 60.25,-106 60.25,-112 54.25,-118 48.25,-118"/>
<text text-anchor="middle" x="30.12" y="-95.7" font-family="Times,serif" font-size="14.00">web&#45;ui</text>
</g>
<!-- SERVICE:web&#45;ui&#45;&gt;SERVICE:bff&#45;1 -->
<g id="edge19" class="edge">
<title>SERVICE:web&#45;ui&#45;&gt;SERVICE:bff&#45;1</title>
<g id="a_edge19"><a xlink:title="edge#18">
<path fill="none" stroke="black" d="M60.61,-100C97.76,-100 161.66,-100 202.32,-100"/>
<polygon fill="black" stroke="black" points="202.12,-103.5 212.12,-100 202.12,-96.5 202.12,-103.5"/>
</a>
</g>
<text text-anchor="middle" x="137.12" y="-104.7" font-family="Times,serif" font-size="14.00">CALLS [rest] (sync)</text>
</g>
<!-- SERVICE:web&#45;ui_split_split -->
<g id="node14" class="node">
<title>SERVICE:web&#45;ui_split_split</title>
<path fill="#eef6ff" stroke="black" d="M787.5,-192C787.5,-192 682.25,-192 682.25,-192 676.25,-192 670.25,-186 670.25,-180 670.25,-180 670.25,-168 670.25,-168 670.25,-162 676.25,-156 682.25,-156 682.25,-156 787.5,-156 787.5,-156 793.5,-156 799.5,-162 799.5,-168 799.5,-168 799.5,-180 799.5,-180 799.5,-186 793.5,-192 787.5,-192"/>
<text text-anchor="middle" x="734.88" y="-169.7" font-family="Times,serif" font-size="14.00">web&#45;ui_split_split</text>
</g>
<!-- SERVICE:web&#45;ui_split&#45;&gt;SERVICE:web&#45;ui_split_split -->
<g id="edge16" class="edge">
<title>SERVICE:web&#45;ui_split&#45;&gt;SERVICE:web&#45;ui_split_split</title>
<g id="a_edge16"><a xlink:title="edge#15">
<path fill="none" stroke="black" d="M516.67,-142.65C522.64,-144.25 528.69,-145.76 534.5,-147 575.2,-155.71 621.22,-162.16 658.78,-166.57"/>
<polygon fill="black" stroke="black" points="658.31,-170.04 668.64,-167.7 659.1,-163.08 658.31,-170.04"/>
</a>
</g>
<text text-anchor="middle" x="593.38" y="-169.7" font-family="Times,serif" font-size="14.00">CALLS [rest] (sync)</text>
</g>
<!-- SERVICE:bff&#45;2 -->
<g id="node16" class="node">
<title>SERVICE:bff&#45;2</title>
<path fill="#eef6ff" stroke="black" d="M749.88,-138C749.88,-138 719.88,-138 719.88,-138 713.88,-138 707.88,-132 707.88,-126 707.88,-126 707.88,-114 707.88,-114 707.88,-108 713.88,-102 719.88,-102 719.88,-102 749.88,-102 749.88,-102 755.88,-102 761.88,-108 761.88,-114 761.88,-114 761.88,-126 761.88,-126 761.88,-132 755.88,-138 749.88,-138"/>
<text text-anchor="middle" x="734.88" y="-115.7" font-family="Times,serif" font-size="14.00">bff&#45;2</text>
</g>
<!-- SERVICE:web&#45;ui_split&#45;&gt;SERVICE:bff&#45;2 -->
<g id="edge22" class="edge">
<title>SERVICE:web&#45;ui_split&#45;&gt;SERVICE:bff&#45;2</title>
<g id="a_edge22"><a xlink:title="edge#21">
<path fill="none" stroke="black" d="M516.97,-126.58C568.15,-125.03 649.1,-122.57 696.29,-121.14"/>
<polygon fill="black" stroke="black" points="696.12,-124.65 706.01,-120.85 695.91,-117.65 696.12,-124.65"/>
</a>
</g>
<text text-anchor="middle" x="593.38" y="-129.7" font-family="Times,serif" font-size="14.00">CALLS [rest] (sync)</text>
</g>
<!-- SERVICE:bff&#45;&gt;SERVICE:cart -->
<g id="edge12" class="edge">
<title>SERVICE:bff&#45;&gt;SERVICE:cart</title>
<g id="a_edge12"><a xlink:title="edge#11">
<path fill="none" stroke="black" d="M496.5,-67.76C554.25,-54.47 696.41,-23.78 817.5,-14 869.66,-9.79 882.97,-11.71 935.25,-14 937.93,-14.12 940.7,-14.27 943.48,-14.46"/>
<polygon fill="black" stroke="black" points="943.1,-17.94 953.33,-15.21 943.63,-10.96 943.1,-17.94"/>
</a>
</g>
<text text-anchor="middle" x="734.88" y="-37.7" font-family="Times,serif" font-size="14.00">CALLS [rest] (sync)</text>
</g>
<!-- SERVICE:bff&#45;&gt;SERVICE:bff_split -->
<g id="edge17" class="edge">
<title>SERVICE:bff&#45;&gt;SERVICE:bff_split</title>
<g id="a_edge17"><a xlink:title="edge#16">
<path fill="none" stroke="black" d="M496.18,-84.22C503.76,-88.37 511.38,-93.9 516.5,-101 539.35,-132.67 509.92,-156.65 534.5,-187 573.35,-234.98 643.68,-257.54 689.57,-267.6"/>
<polygon fill="black" stroke="black" points="688.69,-271 699.19,-269.59 690.11,-264.14 688.69,-271"/>
</a>
</g>
<text text-anchor="middle" x="593.38" y="-261.7" font-family="Times,serif" font-size="14.00">CALLS [rest] (sync)</text>
</g>
<!-- SERVICE:bff&#45;&gt;SERVICE:catalog -->
<g id="edge11" class="edge">
<title>SERVICE:bff&#45;&gt;SERVICE:catalog</title>
<g id="a_edge11"><a xlink:title="edge#10">
<path fill="none" stroke="black" d="M496.55,-73.76C587.13,-72.86 893.41,-69.28 1146.25,-60 1157.09,-59.6 1168.8,-59.05 1179.7,-58.48"/>
<polygon fill="black" stroke="black" points="1179.82,-61.98 1189.61,-57.94 1179.44,-54.99 1179.82,-61.98"/>
</a>
</g>
<text text-anchor="middle" x="876.38" y="-73.7" font-family="Times,serif" font-size="14.00">CALLS [rest] (sync)</text>
</g>
<!-- SERVICE:catalog&#45;&gt;DATABASE:shared&#45;db -->
<g id="edge6" class="edge">
<title>SERVICE:catalog&#45;&gt;DATABASE:shared&#45;db</title>
<g id="a_edge6"><a xlink:title="edge#5">
<path fill="none" stroke="black" d="M1254.9,-57.59C1341.53,-62.06 1588.21,-74.79 1695.9,-80.35"/>
<polygon fill="black" stroke="black" points="1695.43,-83.83 1705.59,-80.85 1695.79,-76.84 1695.43,-83.83"/>
</a>
</g>
<text text-anchor="middle" x="1494.62" y="-77.7" font-family="Times,serif" font-size="14.00">CALLS [rest] (sync)</text>
</g>
<!-- SERVICE:web&#45;ui_split_split&#45;&gt;SERVICE:orders -->
<g id="edge1" class="edge">
<title>SERVICE:web&#45;ui_split_split&#45;&gt;SERVICE:orders</title>
<g id="a_edge1"><a xlink:title="edge#0">
<path fill="none" stroke="black" d="M799.85,-159.42C805.79,-158.45 811.74,-157.61 817.5,-157 859.7,-152.52 908.38,-152.94 941.55,-154.05"/>
<polygon fill="black" stroke="black" points="941.39,-157.55 951.52,-154.43 941.66,-150.56 941.39,-157.55"/>
</a>
</g>
<text text-anchor="middle" x="876.38" y="-161.7" font-family="Times,serif" font-size="14.00">CALLS [rest] (sync)</text>
</g>
<!-- SERVICE:web&#45;ui_split_split&#45;&gt;SERVICE:payments -->
<g id="edge2" class="edge">
<title>SERVICE:web&#45;ui_split_split&#45;&gt;SERVICE:payments</title>
<g id="a_edge2"><a xlink:title="edge#1">
<path fill="none" stroke="black" d="M751.72,-192.38C766.88,-208.69 791.28,-231.77 817.5,-244 884.2,-275.1 907.28,-271 980.88,-271 980.88,-271 980.88,-271 1495.62,-271 1565.94,-271 1646.67,-260.45 1697.32,-252.54"/>
<polygon fill="black" stroke="black" points="1697.77,-256.01 1707.1,-250.98 1696.67,-249.1 1697.77,-256.01"/>
</a>
</g>
<text text-anchor="middle" x="1223.12" y="-275.7" font-family="Times,serif" font-size="14.00">CALLS [rest] (sync)</text>
</g>
<!-- SERVICE:orders_split&#45;1&#45;&gt;SERVICE:orders_split -->
<g id="edge10" class="edge">
<title>SERVICE:orders_split&#45;1&#45;&gt;SERVICE:orders_split</title>
<g id="a_edge10"><a xlink:title="edge#9">
<path fill="none" stroke="black" d="M1275.45,-162.38C1321.59,-162.72 1389.23,-163.23 1436.94,-163.58"/>
<polygon fill="black" stroke="black" points="1436.78,-167.08 1446.8,-163.65 1436.83,-160.08 1436.78,-167.08"/>
</a>
</g>
<text text-anchor="middle" x="1358.88" y="-167.7" font-family="Times,serif" font-size="14.00">CALLS [rest] (sync)</text>
</g>
<!-- SERVICE:bff&#45;2&#45;&gt;SERVICE:cart -->
<g id="edge23" class="edge">
<title>SERVICE:bff&#45;2&#45;&gt;SERVICE:cart</title>
<g id="a_edge23"><a xlink:title="edge#22">
<path fill="none" stroke="black" d="M747.41,-101.52C761.29,-81.09 786.61,-49.09 817.5,-34 857.13,-14.64 908.55,-12.84 943.02,-14.44"/>
<polygon fill="black" stroke="black" points="942.76,-17.93 952.95,-15.04 943.18,-10.94 942.76,-17.93"/>
</a>
</g>
<text text-anchor="middle" x="876.38" y="-38.7" font-family="Times,serif" font-size="14.00">CALLS [rest] (sync)</text>
</g>
<!-- SERVICE:bff&#45;2&#45;&gt;SERVICE:orders -->
<g id="edge24" class="edge">
<title>SERVICE:bff&#45;2&#45;&gt;SERVICE:orders</title>
<g id="a_edge24"><a xlink:title="edge#23">
<path fill="none" stroke="black" d="M762.29,-117.8C801.06,-115.39 875.25,-113.86 935.25,-131 937.65,-131.69 940.06,-132.51 942.46,-133.45"/>
<polygon fill="black" stroke="black" points="940.82,-136.55 951.37,-137.46 943.69,-130.16 940.82,-136.55"/>
</a>
</g>
<text text-anchor="middle" x="876.38" y="-135.7" font-family="Times,serif" font-size="14.00">CALLS [rest] (sync)</text>
</g>
<!-- SERVICE:bff&#45;2&#45;&gt;SERVICE:payments -->
<g id="edge25" class="edge">
<title>SERVICE:bff&#45;2&#45;&gt;SERVICE:payments</title>
<g id="a_edge25"><a xlink:title="edge#24">
<path fill="none" stroke="black" d="M762.06,-125.34C775.03,-129.27 789.93,-135.92 799.5,-147 820.21,-170.99 792.71,-196.25 817.5,-216 819.67,-217.73 1503.34,-237.13 1696.79,-242.58"/>
<polygon fill="black" stroke="black" points="1696.68,-246.08 1706.78,-242.86 1696.88,-239.08 1696.68,-246.08"/>
</a>
</g>
<text text-anchor="middle" x="1223.12" y="-234.7" font-family="Times,serif" font-size="14.00">CALLS [rest] (sync)</text>
</g>
</g>
</svg>
