<?xml version="1.0" encoding="UTF-8" standalone="no"?>
<!DOCTYPE svg PUBLIC "-//W3C//DTD SVG 1.1//EN"
 "http://www.w3.org/Graphics/SVG/1.1/DTD/svg11.dtd">
<!-- Generated by graphviz version 9.0.0 (20230911.1827)
 -->
<!-- Title: G Pages: 1 -->
<svg width="1703pt" height="400pt"
 viewBox="0.00 0.00 1702.50 400.00" xmlns="http://www.w3.org/2000/svg" xmlns:xlink="http://www.w3.org/1999/xlink">
<g id="graph0" class="graph" transform="scale(1 1) rotate(0) translate(4 396)">
<title>G</title>
<polygon fill="white" stroke="none" points="-4,4 -4,-396 1698.5,-396 1698.5,4 -4,4"/>
<text text-anchor="middle" x="847.25" y="-374.7" font-family="Helvetica,sans-Serif" font-size="14.00">Architecture</text>
<!-- SERVICE:report&#45;export -->
<g id="node1" class="node">
<title>SERVICE:report&#45;export</title>
<path fill="#eef6ff" stroke="black" d="M1680.62,-147C1680.62,-147 1601.62,-147 1601.62,-147 1595.62,-147 1589.62,-141 1589.62,-135 1589.62,-135 1589.62,-123 1589.62,-123 1589.62,-117 1595.62,-111 1601.62,-111 1601.62,-111 1680.62,-111 1680.62,-111 1686.62,-111 1692.62,-117 1692.62,-123 1692.62,-123 1692.62,-135 1692.62,-135 1692.62,-141 1686.62,-147 1680.62,-147"/>
<text text-anchor="middle" x="1641.12" y="-124.7" font-family="Times,serif" font-size="14.00">report&#45;export</text>
</g>
<!-- SERVICE:ops&#45;hub_split -->
<g id="node2" class="node">
<title>SERVICE:ops&#45;hub_split</title>
<path fill="#eef6ff" stroke="black" d="M1130,-90C1130,-90 1050.25,-90 1050.25,-90 1044.25,-90 1038.25,-84 1038.25,-78 1038.25,-78 1038.25,-66 1038.25,-66 1038.25,-60 1044.25,-54 1050.25,-54 1050.25,-54 1130,-54 1130,-54 1136,-54 1142,-60 1142,-66 1142,-66 1142,-78 1142,-78 1142,-84 1136,-90 1130,-90"/>
<text text-anchor="middle" x="1090.12" y="-67.7" font-family="Times,serif" font-size="14.00">ops&#45;hub_split</text>
</g>
<!-- SERVICE:ops&#45;hub_split_split -->
<g id="node3" class="node">
<title>SERVICE:ops&#45;hub_split_split</title>
<path fill="#eef6ff" stroke="black" d="M1422,-120C1422,-120 1307.75,-120 1307.75,-120 1301.75,-120 1295.75,-114 1295.75,-108 1295.75,-108 1295.75,-96 1295.75,-96 1295.75,-90 1301.75,-84 1307.75,-84 1307.75,-84 1422,-84 1422,-84 1428,-84 1434,-90 1434,-96 1434,-96 1434,-108 1434,-108 1434,-114 1428,-120 1422,-120"/>
<text text-anchor="middle" x="1364.88" y="-97.7" font-family="Times,serif" font-size="14.00">ops&#45;hub_split_split</text>
</g>
<!-- SERVICE:ops&#45;hub_split&#45;&gt;SERVICE:ops&#45;hub_split_split -->
<g id="edge16" class="edge">
<title>SERVICE:ops&#45;hub_split&#45;&gt;SERVICE:ops&#45;hub_split_split</title>
<g id="a_edge16"><a xlink:title="edge#15">
<path fill="none" stroke="black" d="M1142.43,-77.64C1182.26,-82.02 1238.21,-88.18 1283.91,-93.2"/>
<polygon fill="black" stroke="black" points="1283.46,-96.68 1293.79,-94.29 1284.23,-89.72 1283.46,-96.68"/>
</a>
</g>
<text text-anchor="middle" x="1218.88" y="-97.7" font-family="Times,serif" font-size="14.00">CALLS [rest] (sync)</text>
</g>
<!-- SERVICE:cache&#45;proxy -->
<g id="node10" class="node">
<title>SERVICE:cache&#45;proxy</title>
<path fill="#eef6ff" stroke="black" d="M1399.88,-66C1399.88,-66 1329.88,-66 1329.88,-66 1323.88,-66 1317.88,-60 1317.88,-54 1317.88,-54 1317.88,-42 1317.88,-42 1317.88,-36 1323.88,-30 1329.88,-30 1329.88,-30 1399.88,-30 1399.88,-30 1405.88,-30 1411.88,-36 1411.88,-42 1411.88,-42 1411.88,-54 1411.88,-54 1411.88,-60 1405.88,-66 1399.88,-66"/>
<text text-anchor="middle" x="1364.88" y="-43.7" font-family="Times,serif" font-size="14.00">cache&#45;proxy</text>
</g>
<!-- SERVICE:ops&#45;hub_split&#45;&gt;SERVICE:cache&#45;proxy -->
<g id="edge8" class="edge">
<title>SERVICE:ops&#45;hub_split&#45;&gt;SERVICE:cache&#45;proxy</title>
<g id="a_edge8"><a xlink:title="edge#7">
<path fill="none" stroke="black" d="M1142.42,-58.1C1148.32,-56.87 1154.27,-55.8 1160,-55 1208.95,-48.19 1265.12,-46.73 1306.09,-46.8"/>
<polygon fill="black" stroke="black" points="1305.95,-50.3 1315.97,-46.86 1305.99,-43.3 1305.95,-50.3"/>
</a>
</g>
<text text-anchor="middle" x="1218.88" y="-59.7" font-family="Times,serif" font-size="14.00">CALLS [rest] (sync)</text>
</g>
<!-- SERVICE:ops&#45;hub_split_split&#45;&gt;SERVICE:report&#45;export -->
<g id="edge10" class="edge">
<title>SERVICE:ops&#45;hub_split_split&#45;&gt;SERVICE:report&#45;export</title>
<g id="a_edge10"><a xlink:title="edge#9">
<path fill="none" stroke="black" d="M1434.37,-108.74C1478.41,-113.08 1535.16,-118.67 1577.91,-122.87"/>
<polygon fill="black" stroke="black" points="1577.49,-126.35 1587.79,-123.85 1578.18,-119.38 1577.49,-126.35"/>
</a>
</g>
<text text-anchor="middle" x="1510.88" y="-126.7" font-family="Times,serif" font-size="14.00">CALLS [rest] (sync)</text>
</g>
<!-- SERVICE:metrics&#45;agent -->
<g id="node15" class="node">
<title>SERVICE:metrics&#45;agent</title>
<path fill="#eef6ff" stroke="black" d="M1682.5,-93C1682.5,-93 1599.75,-93 1599.75,-93 1593.75,-93 1587.75,-87 1587.75,-81 1587.75,-81 1587.75,-69 1587.75,-69 1587.75,-63 1593.75,-57 1599.75,-57 1599.75,-57 1682.5,-57 1682.5,-57 1688.5,-57 1694.5,-63 1694.5,-69 1694.5,-69 1694.5,-81 1694.5,-81 1694.5,-87 1688.5,-93 1682.5,-93"/>
<text text-anchor="middle" x="1641.12" y="-70.7" font-family="Times,serif" font-size="14.00">metrics&#45;agent</text>
</g>
<!-- SERVICE:ops&#45;hub_split_split&#45;&gt;SERVICE:metrics&#45;agent -->
<g id="edge9" class="edge">
<title>SERVICE:ops&#45;hub_split_split&#45;&gt;SERVICE:metrics&#45;agent</title>
<g id="a_edge9"><a xlink:title="edge#8">
<path fill="none" stroke="black" d="M1434.45,-91.17C1440.38,-90.38 1446.29,-89.64 1452,-89 1493.11,-84.37 1539.46,-80.9 1575.87,-78.58"/>
<polygon fill="black" stroke="black" points="1576.04,-82.07 1585.81,-77.96 1575.61,-75.09 1576.04,-82.07"/>
</a>
</g>
<text text-anchor="middle" x="1510.88" y="-93.7" font-family="Times,serif" font-size="14.00">CALLS [rest] (sync)</text>
</g>
<!-- SERVICE:discount -->
<g id="node4" class="node">
<title>SERVICE:discount</title>
<path fill="#eef6ff" stroke="black" d="M324.5,-204C324.5,-204 277.75,-204 277.75,-204 271.75,-204 265.75,-198 265.75,-192 265.75,-192 265.75,-180 265.75,-180 265.75,-174 271.75,-168 277.75,-168 277.75,-168 324.5,-168 324.5,-168 330.5,-168 336.5,-174 336.5,-180 336.5,-180 336.5,-192 336.5,-192 336.5,-198 330.5,-204 324.5,-204"/>
<text text-anchor="middle" x="301.12" y="-181.7" font-family="Times,serif" font-size="14.00">discount</text>
</g>
<!-- SERVICE:tax -->
<g id="node5" class="node">
<title>SERVICE:tax</title>
<path fill="#eef6ff" stroke="black" d="M563.88,-204C563.88,-204 533.88,-204 533.88,-204 527.88,-204 521.88,-198 521.88,-192 521.88,-192 521.88,-180 521.88,-180 521.88,-174 527.88,-168 533.88,-168 533.88,-168 563.88,-168 563.88,-168 569.88,-168 575.88,-174 575.88,-180 575.88,-180 575.88,-192 575.88,-192 575.88,-198 569.88,-204 563.88,-204"/>
<text text-anchor="middle" x="548.88" y="-181.7" font-family="Times,serif" font-size="14.00">tax</text>
</g>
<!-- SERVICE:discount&#45;&gt;SERVICE:tax -->
<g id="edge2" class="edge">
<title>SERVICE:discount&#45;&gt;SERVICE:tax</title>
<g id="a_edge2"><a xlink:title="edge#1">
<path fill="none" stroke="black" d="M336.81,-186C382.67,-186 463.18,-186 510.39,-186"/>
<polygon fill="black" stroke="black" points="510.13,-189.5 520.13,-186 510.13,-182.5 510.13,-189.5"/>
</a>
</g>
<text text-anchor="middle" x="413.38" y="-190.7" font-family="Times,serif" font-size="14.00">CALLS [rest] (sync)</text>
</g>
<!-- SERVICE:scheduler -->
<g id="node6" class="node">
<title>SERVICE:scheduler</title>
<path fill="#eef6ff" stroke="black" d="M82.75,-133C82.75,-133 29.25,-133 29.25,-133 23.25,-133 17.25,-127 17.25,-121 17.25,-121 17.25,-109 17.25,-109 17.25,-103 23.25,-97 29.25,-97 29.25,-97 82.75,-97 82.75,-97 88.75,-97 94.75,-103 94.75,-109 94.75,-109 94.75,-121 94.75,-121 94.75,-127 88.75,-133 82.75,-133"/>
<text text-anchor="middle" x="56" y="-110.7" font-family="Times,serif" font-size="14.00">scheduler</text>
</g>
<!-- SERVICE:ops&#45;hub -->
<g id="node7" class="node">
<title>SERVICE:ops&#45;hub</title>
<path fill="#eef6ff" stroke="black" d="M323.75,-106C323.75,-106 278.5,-106 278.5,-106 272.5,-106 266.5,-100 266.5,-94 266.5,-94 266.5,-82 266.5,-82 266.5,-76 272.5,-70 278.5,-70 278.5,-70 323.75,-70 323.75,-70 329.75,-70 335.75,-76 335.75,-82 335.75,-82 335.75,-94 335.75,-94 335.75,-100 329.75,-106 323.75,-106"/>
<text text-anchor="middle" x="301.12" y="-83.7" font-family="Times,serif" font-size="14.00">ops&#45;hub</text>
</g>
<!-- SERVICE:scheduler&#45;&gt;SERVICE:ops&#45;hub -->
<g id="edge3" class="edge">
<title>SERVICE:scheduler&#45;&gt;SERVICE:ops&#45;hub</title>
<g id="a_edge3"><a xlink:title="edge#2">
<path fill="none" stroke="black" d="M94.99,-110.78C138.23,-105.98 208.83,-98.14 254.88,-93.02"/>
<polygon fill="black" stroke="black" points="255.26,-96.5 264.82,-91.92 254.49,-89.55 255.26,-96.5"/>
</a>
</g>
<text text-anchor="middle" x="188.88" y="-111.7" font-family="Times,serif" font-size="14.00">CALLS [rest] (sync)</text>
</g>
<!-- SERVICE:emailer -->
<g id="node8" class="node">
<title>SERVICE:emailer</title>
<path fill="#eef6ff" stroke="black" d="M568.88,-137C568.88,-137 528.88,-137 528.88,-137 522.88,-137 516.88,-131 516.88,-125 516.88,-125 516.88,-113 516.88,-113 516.88,-107 522.88,-101 528.88,-101 528.88,-101 568.88,-101 568.88,-101 574.88,-101 580.88,-107 580.88,-113 580.88,-113 580.88,-125 580.88,-125 580.88,-131 574.88,-137 568.88,-137"/>
<text text-anchor="middle" x="548.88" y="-114.7" font-family="Times,serif" font-size="14.00">emailer</text>
</g>
<!-- SERVICE:ops&#45;hub&#45;&gt;SERVICE:emailer -->
<g id="edge5" class="edge">
<title>SERVICE:ops&#45;hub&#45;&gt;SERVICE:emailer</title>
<g id="a_edge5"><a xlink:title="edge#4">
<path fill="none" stroke="black" d="M336.17,-94.14C342.26,-95.16 348.56,-96.15 354.5,-97 406.3,-104.39 466.18,-110.89 505.42,-114.87"/>
<polygon fill="black" stroke="black" points="504.85,-118.33 515.15,-115.85 505.55,-111.37 504.85,-118.33"/>
</a>
</g>
<text text-anchor="middle" x="413.38" y="-116.7" font-family="Times,serif" font-size="14.00">CALLS [rest] (sync)</text>
</g>
<!-- SERVICE:ops&#45;hub_split&#45;2 -->
<g id="node11" class="node">
<title>SERVICE:ops&#45;hub_split&#45;2</title>
<path fill="#eef6ff" stroke="black" d="M595.5,-83C595.5,-83 502.25,-83 502.25,-83 496.25,-83 490.25,-77 490.25,-71 490.25,-71 490.25,-59 490.25,-59 490.25,-53 496.25,-47 502.25,-47 502.25,-47 595.5,-47 595.5,-47 601.5,-47 607.5,-53 607.5,-59 607.5,-59 607.5,-71 607.5,-71 607.5,-77 601.5,-83 595.5,-83"/>
<text text-anchor="middle" x="548.88" y="-60.7" font-family="Times,serif" font-size="14.00">ops&#45;hub_split&#45;2</text>
</g>
<!-- SERVICE:ops&#45;hub&#45;&gt;SERVICE:ops&#45;hub_split&#45;2 -->
<g id="edge17" class="edge">
<title>SERVICE:ops&#45;hub&#45;&gt;SERVICE:ops&#45;hub_split&#45;2</title>
<g id="a_edge17"><a xlink:title="edge#16">
<path fill="none" stroke="black" d="M336.14,-81.66C342.24,-80.66 348.55,-79.73 354.5,-79 395.53,-74 441.69,-70.58 478.62,-68.37"/>
<polygon fill="black" stroke="black" points="478.48,-71.88 488.26,-67.81 478.07,-64.89 478.48,-71.88"/>
</a>
</g>
<text text-anchor="middle" x="413.38" y="-83.7" font-family="Times,serif" font-size="14.00">CALLS [rest] (sync)</text>
</g>
<!-- SERVICE:sms&#45;gateway -->
<g id="node9" class="node">
<title>SERVICE:sms&#45;gateway</title>
<path fill="#eef6ff" stroke="black" d="M858.25,-110C858.25,-110 780,-110 780,-110 774,-110 768,-104 768,-98 768,-98 768,-86 768,-86 768,-80 774,-74 780,-74 780,-74 858.25,-74 858.25,-74 864.25,-74 870.25,-80 870.25,-86 870.25,-86 870.25,-98 870.25,-98 870.25,-104 864.25,-110 858.25,-110"/>
<text text-anchor="middle" x="819.12" y="-87.7" font-family="Times,serif" font-size="14.00">sms&#45;gateway</text>
</g>
<!-- SERVICE:ops&#45;hub_split&#45;2&#45;&gt;SERVICE:sms&#45;gateway -->
<g id="edge6" class="edge">
<title>SERVICE:ops&#45;hub_split&#45;2&#45;&gt;SERVICE:sms&#45;gateway</title>
<g id="a_edge6"><a xlink:title="edge#5">
<path fill="none" stroke="black" d="M607.75,-70.83C651.53,-75.23 711.54,-81.27 756.27,-85.77"/>
<polygon fill="black" stroke="black" points="755.78,-89.24 766.08,-86.76 756.48,-82.28 755.78,-89.24"/>
</a>
</g>
<text text-anchor="middle" x="684.38" y="-89.7" font-family="Times,serif" font-size="14.00">CALLS [rest] (sync)</text>
</g>
<!-- SERVICE:ops&#45;hub_split&#45;1 -->
<g id="node20" class="node">
<title>SERVICE:ops&#45;hub_split&#45;1</title>
<path fill="#eef6ff" stroke="black" d="M865,-56C865,-56 773.25,-56 773.25,-56 767.25,-56 761.25,-50 761.25,-44 761.25,-44 761.25,-32 761.25,-32 761.25,-26 767.25,-20 773.25,-20 773.25,-20 865,-20 865,-20 871,-20 877,-26 877,-32 877,-32 877,-44 877,-44 877,-50 871,-56 865,-56"/>
<text text-anchor="middle" x="819.12" y="-33.7" font-family="Times,serif" font-size="14.00">ops&#45;hub_split&#45;1</text>
</g>
<!-- SERVICE:ops&#45;hub_split&#45;2&#45;&gt;SERVICE:ops&#45;hub_split&#45;1 -->
<g id="edge15" class="edge">
<title>SERVICE:ops&#45;hub_split&#45;2&#45;&gt;SERVICE:ops&#45;hub_split&#45;1</title>
<g id="a_edge15"><a xlink:title="edge#14">
<path fill="none" stroke="black" d="M607.99,-53.54C613.89,-52.59 619.8,-51.72 625.5,-51 666.64,-45.82 713,-42.61 749.92,-40.68"/>
<polygon fill="black" stroke="black" points="749.74,-44.19 759.55,-40.19 749.39,-37.2 749.74,-44.19"/>
</a>
</g>
<text text-anchor="middle" x="684.38" y="-55.7" font-family="Times,serif" font-size="14.00">CALLS [rest] (sync)</text>
</g>
<!-- SERVICE:admin&#45;console -->
<g id="node12" class="node">
<title>SERVICE:admin&#45;console</title>
<path fill="#eef6ff" stroke="black" d="M100,-79C100,-79 12,-79 12,-79 6,-79 0,-73 0,-67 0,-67 0,-55 0,-55 0,-49 6,-43 12,-43 12,-43 100,-43 100,-43 106,-43 112,-49 112,-55 112,-55 112,-67 112,-67 112,-73 106,-79 100,-79"/>
<text text-anchor="middle" x="56" y="-56.7" font-family="Times,serif" font-size="14.00">admin&#45;console</text>
</g>
<!-- SERVICE:admin&#45;console&#45;&gt;SERVICE:ops&#45;hub -->
<g id="edge4" class="edge">
<title>SERVICE:admin&#45;console&#45;&gt;SERVICE:ops&#45;hub</title>
<g id="a_edge4"><a xlink:title="edge#3">
<path fill="none" stroke="black" d="M112.5,-60.72C150.78,-61.37 202.69,-63.94 247.75,-72 250.18,-72.44 252.66,-72.95 255.15,-73.52"/>
<polygon fill="black" stroke="black" points="254.02,-76.84 264.58,-75.93 255.76,-70.06 254.02,-76.84"/>
</a>
</g>
<text text-anchor="middle" x="188.88" y="-76.7" font-family="Times,serif" font-size="14.00">CALLS [rest] (sync)</text>
</g>
<!-- SERVICE:audit&#45;log -->
<g id="node13" class="node">
<title>SERVICE:audit&#45;log</title>
<path fill="#eef6ff" stroke="black" d="M1115.38,-36C1115.38,-36 1064.88,-36 1064.88,-36 1058.88,-36 1052.88,-30 1052.88,-24 1052.88,-24 1052.88,-12 1052.88,-12 1052.88,-6 1058.88,0 1064.88,0 1064.88,0 1115.38,0 1115.38,0 1121.38,0 1127.38,-6 1127.38,-12 1127.38,-12 1127.38,-24 1127.38,-24 1127.38,-30 1121.38,-36 1115.38,-36"/>
<text text-anchor="middle" x="1090.12" y="-13.7" font-family="Times,serif" font-size="14.00">audit&#45;log</text>
</g>
<!-- DATABASE:user&#45;db -->
<g id="node14" class="node">
<title>DATABASE:user&#45;db</title>
<path fill="#fff3cd" stroke="black" d="M333.88,-308.73C333.88,-310.53 319.2,-312 301.12,-312 283.05,-312 268.38,-310.53 268.38,-308.73 268.38,-308.73 268.38,-279.27 268.38,-279.27 268.38,-277.47 283.05,-276 301.12,-276 319.2,-276 333.88,-277.47 333.88,-279.27 333.88,-279.27 333.88,-308.73 333.88,-308.73"/>
<path fill="none" stroke="black" d="M333.88,-308.73C333.88,-306.92 319.2,-305.45 301.12,-305.45 283.05,-305.45 268.38,-306.92 268.38,-308.73"/>
<text text-anchor="middle" x="301.12" y="-289.7" font-family="Times,serif" font-size="14.00">user&#45;db</text>
</g>
<!-- SERVICE:user&#45;profile -->
<g id="node16" class="node">
<title>SERVICE:user&#45;profile</title>
<path fill="#eef6ff" stroke="black" d="M89.12,-366C89.12,-366 22.88,-366 22.88,-366 16.88,-366 10.88,-360 10.88,-354 10.88,-354 10.88,-342 10.88,-342 10.88,-336 16.88,-330 22.88,-330 22.88,-330 89.12,-330 89.12,-330 95.12,-330 101.12,-336 101.12,-342 101.12,-342 101.12,-354 101.12,-354 101.12,-360 95.12,-366 89.12,-366"/>
<text text-anchor="middle" x="56" y="-343.7" font-family="Times,serif" font-size="14.00">user&#45;profile</text>
</g>
<!-- SERVICE:user&#45;profile&#45;&gt;DATABASE:user&#45;db -->
<g id="edge11" class="edge">
<title>SERVICE:user&#45;profile&#45;&gt;DATABASE:user&#45;db</title>
<g id="a_edge11"><a xlink:title="edge#10">
<path fill="none" stroke="black" d="M101.59,-343.48C140.67,-338.82 198.72,-330.2 247.75,-316 251.01,-315.06 254.34,-313.97 257.66,-312.79"/>
<polygon fill="black" stroke="black" points="258.62,-316.17 266.72,-309.35 256.13,-309.63 258.62,-316.17"/>
</a>
</g>
<text text-anchor="middle" x="188.88" y="-343.7" font-family="Times,serif" font-size="14.00">CALLS [rest] (sync)</text>
</g>
<!-- SERVICE:preferences -->
<g id="node17" class="node">
<title>SERVICE:preferences</title>
<path fill="#eef6ff" stroke="black" d="M89.5,-312C89.5,-312 22.5,-312 22.5,-312 16.5,-312 10.5,-306 10.5,-300 10.5,-300 10.5,-288 10.5,-288 10.5,-282 16.5,-276 22.5,-276 22.5,-276 89.5,-276 89.5,-276 95.5,-276 101.5,-282 101.5,-288 101.5,-288 101.5,-300 101.5,-300 101.5,-306 95.5,-312 89.5,-312"/>
<text text-anchor="middle" x="56" y="-289.7" font-family="Times,serif" font-size="14.00">preferences</text>
</g>
<!-- SERVICE:preferences&#45;&gt;DATABASE:user&#45;db -->
<g id="edge12" class="edge">
<title>SERVICE:preferences&#45;&gt;DATABASE:user&#45;db</title>
<g id="a_edge12"><a xlink:title="edge#11">
<path fill="none" stroke="black" d="M101.88,-294C145.99,-294 212.88,-294 256.54,-294"/>
<polygon fill="black" stroke="black" points="256.42,-297.5 266.42,-294 256.42,-290.5 256.42,-297.5"/>
</a>
</g>
<text text-anchor="middle" x="188.88" y="-298.7" font-family="Times,serif" font-size="14.00">CALLS [rest] (sync)</text>
</g>
<!-- SERVICE:pricing -->
<g id="node18" class="node">
<title>SERVICE:pricing</title>
<path fill="#eef6ff" stroke="black" d="M74.12,-204C74.12,-204 37.88,-204 37.88,-204 31.88,-204 25.88,-198 25.88,-192 25.88,-192 25.88,-180 25.88,-180 25.88,-174 31.88,-168 37.88,-168 37.88,-168 74.12,-168 74.12,-168 80.12,-168 86.12,-174 86.12,-180 86.12,-180 86.12,-192 86.12,-192 86.12,-198 80.12,-204 74.12,-204"/>
<text text-anchor="middle" x="56" y="-181.7" font-family="Times,serif" font-size="14.00">pricing</text>
</g>
<!-- SERVICE:pricing&#45;&gt;SERVICE:discount -->
<g id="edge1" class="edge">
<title>SERVICE:pricing&#45;&gt;SERVICE:discount</title>
<g id="a_edge1"><a xlink:title="edge#0">
<path fill="none" stroke="black" d="M86.33,-186C128.07,-186 205.01,-186 254.31,-186"/>
<polygon fill="black" stroke="black" points="254.09,-189.5 264.09,-186 254.09,-182.5 254.09,-189.5"/>
</a>
</g>
<text text-anchor="middle" x="188.88" y="-190.7" font-family="Times,serif" font-size="14.00">CALLS [rest] (sync)</text>
</g>
<!-- SERVICE:notifications -->
<g id="node19" class="node">
<title>SERVICE:notifications</title>
<path fill="#eef6ff" stroke="black" d="M92.12,-258C92.12,-258 19.88,-258 19.88,-258 13.88,-258 7.88,-252 7.88,-246 7.88,-246 7.88,-234 7.88,-234 7.88,-228 13.88,-222 19.88,-222 19.88,-222 92.12,-222 92.12,-222 98.12,-222 104.12,-228 104.12,-234 104.12,-234 104.12,-246 104.12,-246 104.12,-252 98.12,-258 92.12,-258"/>
<text text-anchor="middle" x="56" y="-235.7" font-family="Times,serif" font-size="14.00">notifications</text>
</g>
<!-- SERVICE:notifications&#45;&gt;DATABASE:user&#45;db -->
<g id="edge13" class="edge">
<title>SERVICE:notifications&#45;&gt;DATABASE:user&#45;db</title>
<g id="a_edge13"><a xlink:title="edge#12">
<path fill="none" stroke="black" d="M104.32,-244.85C143.34,-249.58 199.85,-258.13 247.75,-272 251.01,-272.94 254.34,-274.03 257.66,-275.21"/>
<polygon fill="black" stroke="black" points="256.13,-278.37 266.72,-278.65 258.62,-271.83 256.13,-278.37"/>
</a>
</g>
<text text-anchor="middle" x="188.88" y="-276.7" font-family="Times,serif" font-size="14.00">CALLS [rest] (sync)</text>
</g>
<!-- SERVICE:ops&#45;hub_split&#45;1&#45;&gt;SERVICE:ops&#45;hub_split -->
<g id="edge14" class="edge">
<title>SERVICE:ops&#45;hub_split&#45;1&#45;&gt;SERVICE:ops&#45;hub_split</title>
<g id="a_edge14"><a xlink:title="edge#13">
<path fill="none" stroke="black" d="M877.17,-45.21C921.01,-50.75 981.5,-58.4 1026.65,-64.1"/>
<polygon fill="black" stroke="black" points="1026.2,-67.57 1036.56,-65.36 1027.08,-60.63 1026.2,-67.57"/>
</a>
</g>
<text text-anchor="middle" x="957.62" y="-67.7" font-family="Times,serif" font-size="14.00">CALLS [rest] (async)</text>
</g>
<!-- SERVICE:ops&#45;hub_split&#45;1&#45;&gt;SERVICE:audit&#45;log -->
<g id="edge7" class="edge">
<title>SERVICE:ops&#45;hub_split&#45;1&#45;&gt;SERVICE:audit&#45;log</title>
<g id="a_edge7"><a xlink:title="edge#6">
<path fill="none" stroke="black" d="M877.25,-27.26C883.23,-26.38 889.23,-25.6 895,-25 944.65,-19.82 1001.8,-18.29 1041.16,-17.92"/>
<polygon fill="black" stroke="black" points="1041.04,-21.42 1051.01,-17.85 1040.99,-14.42 1041.04,-21.42"/>
</a>
</g>
<text text-anchor="middle" x="957.62" y="-29.7" font-family="Times,serif" font-size="14.00">CALLS [rest] (sync)</text>
</g>
</g>
</svg>
