<?xml version="1.0" encoding="UTF-8" standalone="no"?>
<!DOCTYPE svg PUBLIC "-//W3C//DTD SVG 1.1//EN"
 "http://www.w3.org/Graphics/SVG/1.1/DTD/svg11.dtd">
<!-- Generated by graphviz version 9.0.0 (20230911.1827)
 -->
<!-- Title: G Pages: 1 -->
<svg width="1703pt" height="340pt"
 viewBox="0.00 0.00 1702.50 340.00" xmlns="http://www.w3.org/2000/svg" xmlns:xlink="http://www.w3.org/1999/xlink">
<g id="graph0" class="graph" transform="scale(1 1) rotate(0) translate(4 336)">
<title>G</title>
<polygon fill="white" stroke="none" points="-4,4 -4,-336 1698.5,-336 1698.5,4 -4,4"/>
<text text-anchor="middle" x="847.25" y="-314.7" font-family="Helvetica,sans-Serif" font-size="14.00">Architecture</text>
<!-- SERVICE:tax -->
<g id="node1" class="node">
<title>SERVICE:tax</title>
<path fill="#eef6ff" stroke="black" d="M563.88,-36C563.88,-36 533.88,-36 533.88,-36 527.88,-36 521.88,-30 521.88,-24 521.88,-24 521.88,-12 521.88,-12 521.88,-6 527.88,0 533.88,0 533.88,0 563.88,0 563.88,0 569.88,0 575.88,-6 575.88,-12 575.88,-12 575.88,-24 575.88,-24 575.88,-30 569.88,-36 563.88,-36"/>
<text text-anchor="middle" x="548.88" y="-13.7" font-family="Times,serif" font-size="14.00">tax</text>
</g>
<!-- SERVICE:ops&#45;hub -->
<g id="node2" class="node">
<title>SERVICE:ops&#45;hub</title>
<path fill="#eef6ff" stroke="black" d="M323.75,-117C323.75,-117 278.5,-117 278.5,-117 272.5,-117 266.5,-111 266.5,-105 266.5,-105 266.5,-93 266.5,-93 266.5,-87 272.5,-81 278.5,-81 278.5,-81 323.75,-81 323.75,-81 329.75,-81 335.75,-87 335.75,-93 335.75,-93 335.75,-105 335.75,-105 335.75,-111 329.75,-117 323.75,-117"/>
<text text-anchor="middle" x="301.12" y="-94.7" font-family="Times,serif" font-size="14.00">ops&#45;hub</text>
</g>
<!-- SERVICE:ops&#45;hub_split&#45;2 -->
<g id="node14" class="node">
<title>SERVICE:ops&#45;hub_split&#45;2</title>
<path fill="#eef6ff" stroke="black" d="M595.5,-158C595.5,-158 502.25,-158 502.25,-158 496.25,-158 490.25,-152 490.25,-146 490.25,-146 490.25,-134 490.25,-134 490.25,-128 496.25,-122 502.25,-122 502.25,-122 595.5,-122 595.5,-122 601.5,-122 607.5,-128 607.5,-134 607.5,-134 607.5,-146 607.5,-146 607.5,-152 601.5,-158 595.5,-158"/>
<text text-anchor="middle" x="548.88" y="-135.7" font-family="Times,serif" font-size="14.00">ops&#45;hub_split&#45;2</text>
</g>
<!-- SERVICE:ops&#45;hub&#45;&gt;SERVICE:ops&#45;hub_split&#45;2 -->
<g id="edge17" class="edge">
<title>SERVICE:ops&#45;hub&#45;&gt;SERVICE:ops&#45;hub_split&#45;2</title>
<g id="a_edge17"><a xlink:title="edge#16">
<path fill="none" stroke="black" d="M336.14,-107.19C342.23,-108.54 348.54,-109.87 354.5,-111 395.61,-118.78 441.96,-125.79 478.97,-130.97"/>
<polygon fill="black" stroke="black" points="478.26,-134.4 488.64,-132.31 479.22,-127.47 478.26,-134.4"/>
</a>
</g>
<text text-anchor="middle" x="413.38" y="-133.7" font-family="Times,serif" font-size="14.00">CALLS [rest] (sync)</text>
</g>
<!-- SERVICE:emailer -->
<g id="node18" class="node">
<title>SERVICE:emailer</title>
<path fill="#eef6ff" stroke="black" d="M568.88,-104C568.88,-104 528.88,-104 528.88,-104 522.88,-104 516.88,-98 516.88,-92 516.88,-92 516.88,-80 516.88,-80 516.88,-74 522.88,-68 528.88,-68 528.88,-68 568.88,-68 568.88,-68 574.88,-68 580.88,-74 580.88,-80 580.88,-80 580.88,-92 580.88,-92 580.88,-98 574.88,-104 568.88,-104"/>
<text text-anchor="middle" x="548.88" y="-81.7" font-family="Times,serif" font-size="14.00">emailer</text>
</g>
<!-- SERVICE:ops&#45;hub&#45;&gt;SERVICE:emailer -->
<g id="edge5" class="edge">
<title>SERVICE:ops&#45;hub&#45;&gt;SERVICE:emailer</title>
<g id="a_edge5"><a xlink:title="edge#4">
<path fill="none" stroke="black" d="M336.18,-94.71C342.27,-94.05 348.57,-93.45 354.5,-93 406.26,-89.1 465.99,-87.36 505.2,-86.59"/>
<polygon fill="black" stroke="black" points="505.24,-90.09 515.17,-86.41 505.11,-83.09 505.24,-90.09"/>
</a>
</g>
<text text-anchor="middle" x="413.38" y="-97.7" font-family="Times,serif" font-size="14.00">CALLS [rest] (sync)</text>
</g>
<!-- SERVICE:audit&#45;log -->
<g id="node3" class="node">
<title>SERVICE:audit&#45;log</title>
<path fill="#eef6ff" stroke="black" d="M1115.38,-211C1115.38,-211 1064.88,-211 1064.88,-211 1058.88,-211 1052.88,-205 1052.88,-199 1052.88,-199 1052.88,-187 1052.88,-187 1052.88,-181 1058.88,-175 1064.88,-175 1064.88,-175 1115.38,-175 1115.38,-175 1121.38,-175 1127.38,-181 1127.38,-187 1127.38,-187 1127.38,-199 1127.38,-199 1127.38,-205 1121.38,-211 1115.38,-211"/>
<text text-anchor="middle" x="1090.12" y="-188.7" font-family="Times,serif" font-size="14.00">audit&#45;log</text>
</g>
<!-- SERVICE:report&#45;export -->
<g id="node4" class="node">
<title>SERVICE:report&#45;export</title>
<path fill="#eef6ff" stroke="black" d="M1680.62,-218C1680.62,-218 1601.62,-218 1601.62,-218 1595.62,-218 1589.62,-212 1589.62,-206 1589.62,-206 1589.62,-194 1589.62,-194 1589.62,-188 1595.62,-182 1601.62,-182 1601.62,-182 1680.62,-182 1680.62,-182 1686.62,-182 1692.62,-188 1692.62,-194 1692.62,-194 1692.62,-206 1692.62,-206 1692.62,-212 1686.62,-218 1680.62,-218"/>
<text text-anchor="middle" x="1641.12" y="-195.7" font-family="Times,serif" font-size="14.00">report&#45;export</text>
</g>
<!-- SERVICE:notifications -->
<g id="node5" class="node">
<title>SERVICE:notifications</title>
<path fill="#eef6ff" stroke="black" d="M92.12,-306C92.12,-306 19.88,-306 19.88,-306 13.88,-306 7.88,-300 7.88,-294 7.88,-294 7.88,-282 7.88,-282 7.88,-276 13.88,-270 19.88,-270 19.88,-270 92.12,-270 92.12,-270 98.12,-270 104.12,-276 104.12,-282 104.12,-282 104.12,-294 104.12,-294 104.12,-300 98.12,-306 92.12,-306"/>
<text text-anchor="middle" x="56" y="-283.7" font-family="Times,serif" font-size="14.00">notifications</text>
</g>
<!-- DATABASE:user&#45;db -->
<g id="node20" class="node">
<title>DATABASE:user&#45;db</title>
<path fill="#fff3cd" stroke="black" d="M333.88,-248.73C333.88,-250.53 319.2,-252 301.12,-252 283.05,-252 268.38,-250.53 268.38,-248.73 268.38,-248.73 268.38,-219.27 268.38,-219.27 268.38,-217.47 283.05,-216 301.12,-216 319.2,-216 333.88,-217.47 333.88,-219.27 333.88,-219.27 333.88,-248.73 333.88,-248.73"/>
<path fill="none" stroke="black" d="M333.88,-248.73C333.88,-246.92 319.2,-245.45 301.12,-245.45 283.05,-245.45 268.38,-246.92 268.38,-248.73"/>
<text text-anchor="middle" x="301.12" y="-229.7" font-family="Times,serif" font-size="14.00">user&#45;db</text>
</g>
<!-- SERVICE:notifications&#45;&gt;DATABASE:user&#45;db -->
<g id="edge13" class="edge">
<title>SERVICE:notifications&#45;&gt;DATABASE:user&#45;db</title>
<g id="a_edge13"><a xlink:title="edge#12">
<path fill="none" stroke="black" d="M104.32,-283.15C143.34,-278.42 199.85,-269.87 247.75,-256 251.01,-255.06 254.34,-253.97 257.66,-252.79"/>
<polygon fill="black" stroke="black" points="258.62,-256.17 266.72,-249.35 256.13,-249.63 258.62,-256.17"/>
</a>
</g>
<text text-anchor="middle" x="188.88" y="-283.7" font-family="Times,serif" font-size="14.00">CALLS [rest] (sync)</text>
</g>
<!-- SERVICE:ops&#45;hub_split -->
<g id="node6" class="node">
<title>SERVICE:ops&#45;hub_split</title>
<path fill="#eef6ff" stroke="black" d="M1130,-157C1130,-157 1050.25,-157 1050.25,-157 1044.25,-157 1038.25,-151 1038.25,-145 1038.25,-145 1038.25,-133 1038.25,-133 1038.25,-127 1044.25,-121 1050.25,-121 1050.25,-121 1130,-121 1130,-121 1136,-121 1142,-127 1142,-133 1142,-133 1142,-145 1142,-145 1142,-151 1136,-157 1130,-157"/>
<text text-anchor="middle" x="1090.12" y="-134.7" font-family="Times,serif" font-size="14.00">ops&#45;hub_split</text>
</g>
<!-- SERVICE:ops&#45;hub_split_split -->
<g id="node13" class="node">
<title>SERVICE:ops&#45;hub_split_split</title>
<path fill="#eef6ff" stroke="black" d="M1422,-191C1422,-191 1307.75,-191 1307.75,-191 1301.75,-191 1295.75,-185 1295.75,-179 1295.75,-179 1295.75,-167 1295.75,-167 1295.75,-161 1301.75,-155 1307.75,-155 1307.75,-155 1422,-155 1422,-155 1428,-155 1434,-161 1434,-167 1434,-167 1434,-179 1434,-179 1434,-185 1428,-191 1422,-191"/>
<text text-anchor="middle" x="1364.88" y="-168.7" font-family="Times,serif" font-size="14.00">ops&#45;hub_split_split</text>
</g>
<!-- SERVICE:ops&#45;hub_split&#45;&gt;SERVICE:ops&#45;hub_split_split -->
<g id="edge16" class="edge">
<title>SERVICE:ops&#45;hub_split&#45;&gt;SERVICE:ops&#45;hub_split_split</title>
<g id="a_edge16"><a xlink:title="edge#15">
<path fill="none" stroke="black" d="M1142.43,-145.4C1182.26,-150.36 1238.21,-157.34 1283.91,-163.03"/>
<polygon fill="black" stroke="black" points="1283.43,-166.5 1293.79,-164.26 1284.3,-159.55 1283.43,-166.5"/>
</a>
</g>
<text text-anchor="middle" x="1218.88" y="-166.7" font-family="Times,serif" font-size="14.00">CALLS [rest] (sync)</text>
</g>
<!-- SERVICE:cache&#45;proxy -->
<g id="node19" class="node">
<title>SERVICE:cache&#45;proxy</title>
<path fill="#eef6ff" stroke="black" d="M1399.88,-137C1399.88,-137 1329.88,-137 1329.88,-137 1323.88,-137 1317.88,-131 1317.88,-125 1317.88,-125 1317.88,-113 1317.88,-113 1317.88,-107 1323.88,-101 1329.88,-101 1329.88,-101 1399.88,-101 1399.88,-101 1405.88,-101 1411.88,-107 1411.88,-113 1411.88,-113 1411.88,-125 1411.88,-125 1411.88,-131 1405.88,-137 1399.88,-137"/>
<text text-anchor="middle" x="1364.88" y="-114.7" font-family="Times,serif" font-size="14.00">cache&#45;proxy</text>
</g>
<!-- SERVICE:ops&#45;hub_split&#45;&gt;SERVICE:cache&#45;proxy -->
<g id="edge8" class="edge">
<title>SERVICE:ops&#45;hub_split&#45;&gt;SERVICE:cache&#45;proxy</title>
<g id="a_edge8"><a xlink:title="edge#7">
<path fill="none" stroke="black" d="M1142.15,-128.47C1148.14,-127.5 1154.19,-126.64 1160,-126 1209.12,-120.55 1265.27,-118.96 1306.19,-118.65"/>
<polygon fill="black" stroke="black" points="1306.08,-122.15 1316.06,-118.6 1306.05,-115.15 1306.08,-122.15"/>
</a>
</g>
<text text-anchor="middle" x="1218.88" y="-130.7" font-family="Times,serif" font-size="14.00">CALLS [rest] (sync)</text>
</g>
<!-- SERVICE:ops&#45;hub_split&#45;1 -->
<g id="node7" class="node">
<title>SERVICE:ops&#45;hub_split&#45;1</title>
<path fill="#eef6ff" stroke="black" d="M865,-188C865,-188 773.25,-188 773.25,-188 767.25,-188 761.25,-182 761.25,-176 761.25,-176 761.25,-164 761.25,-164 761.25,-158 767.25,-152 773.25,-152 773.25,-152 865,-152 865,-152 871,-152 877,-158 877,-164 877,-164 877,-176 877,-176 877,-182 871,-188 865,-188"/>
<text text-anchor="middle" x="819.12" y="-165.7" font-family="Times,serif" font-size="14.00">ops&#45;hub_split&#45;1</text>
</g>
<!-- SERVICE:ops&#45;hub_split&#45;1&#45;&gt;SERVICE:audit&#45;log -->
<g id="edge7" class="edge">
<title>SERVICE:ops&#45;hub_split&#45;1&#45;&gt;SERVICE:audit&#45;log</title>
<g id="a_edge7"><a xlink:title="edge#6">
<path fill="none" stroke="black" d="M877.17,-174.88C925.84,-179.04 995.02,-184.95 1040.95,-188.88"/>
<polygon fill="black" stroke="black" points="1040.61,-192.36 1050.87,-189.73 1041.21,-185.39 1040.61,-192.36"/>
</a>
</g>
<text text-anchor="middle" x="957.62" y="-190.7" font-family="Times,serif" font-size="14.00">CALLS [rest] (sync)</text>
</g>
<!-- SERVICE:ops&#45;hub_split&#45;1&#45;&gt;SERVICE:ops&#45;hub_split -->
<g id="edge14" class="edge">
<title>SERVICE:ops&#45;hub_split&#45;1&#45;&gt;SERVICE:ops&#45;hub_split</title>
<g id="a_edge14"><a xlink:title="edge#13">
<path fill="none" stroke="black" d="M877.22,-156.98C883.2,-155.86 889.21,-154.84 895,-154 938.66,-147.68 988.25,-143.9 1026.38,-141.72"/>
<polygon fill="black" stroke="black" points="1026.52,-145.22 1036.32,-141.18 1026.14,-138.23 1026.52,-145.22"/>
</a>
</g>
<text text-anchor="middle" x="957.62" y="-158.7" font-family="Times,serif" font-size="14.00">CALLS [rest] (async)</text>
</g>
<!-- SERVICE:admin&#45;console -->
<g id="node8" class="node">
<title>SERVICE:admin&#45;console</title>
<path fill="#eef6ff" stroke="black" d="M100,-144C100,-144 12,-144 12,-144 6,-144 0,-138 0,-132 0,-132 0,-120 0,-120 0,-114 6,-108 12,-108 12,-108 100,-108 100,-108 106,-108 112,-114 112,-120 112,-120 112,-132 112,-132 112,-138 106,-144 100,-144"/>
<text text-anchor="middle" x="56" y="-121.7" font-family="Times,serif" font-size="14.00">admin&#45;console</text>
</g>
<!-- SERVICE:admin&#45;console&#45;&gt;SERVICE:ops&#45;hub -->
<g id="edge4" class="edge">
<title>SERVICE:admin&#45;console&#45;&gt;SERVICE:ops&#45;hub</title>
<g id="a_edge4"><a xlink:title="edge#3">
<path fill="none" stroke="black" d="M112.47,-119.84C155.59,-115.05 214.64,-108.49 254.91,-104.02"/>
<polygon fill="black" stroke="black" points="255.19,-107.51 264.75,-102.93 254.42,-100.55 255.19,-107.51"/>
</a>
</g>
<text text-anchor="middle" x="188.88" y="-122.7" font-family="Times,serif" font-size="14.00">CALLS [rest] (sync)</text>
</g>
<!-- SERVICE:sms&#45;gateway -->
<g id="node9" class="node">
<title>SERVICE:sms&#45;gateway</title>
<path fill="#eef6ff" stroke="black" d="M858.25,-134C858.25,-134 780,-134 780,-134 774,-134 768,-128 768,-122 768,-122 768,-110 768,-110 768,-104 774,-98 780,-98 780,-98 858.25,-98 858.25,-98 864.25,-98 870.25,-104 870.25,-110 870.25,-110 870.25,-122 870.25,-122 870.25,-128 864.25,-134 858.25,-134"/>
<text text-anchor="middle" x="819.12" y="-111.7" font-family="Times,serif" font-size="14.00">sms&#45;gateway</text>
</g>
<!-- SERVICE:metrics&#45;agent -->
<g id="node10" class="node">
<title>SERVICE:metrics&#45;agent</title>
<path fill="#eef6ff" stroke="black" d="M1682.5,-164C1682.5,-164 1599.75,-164 1599.75,-164 1593.75,-164 1587.75,-158 1587.75,-152 1587.75,-152 1587.75,-140 1587.75,-140 1587.75,-134 1593.75,-128 1599.75,-128 1599.75,-128 1682.5,-128 1682.5,-128 1688.5,-128 1694.5,-134 1694.5,-140 1694.5,-140 1694.5,-152 1694.5,-152 1694.5,-158 1688.5,-164 1682.5,-164"/>
<text text-anchor="middle" x="1641.12" y="-141.7" font-family="Times,serif" font-size="14.00">metrics&#45;agent</text>
</g>
<!-- SERVICE:user&#45;profile -->
<g id="node11" class="node">
<title>SERVICE:user&#45;profile</title>
<path fill="#eef6ff" stroke="black" d="M89.12,-252C89.12,-252 22.88,-252 22.88,-252 16.88,-252 10.88,-246 10.88,-240 10.88,-240 10.88,-228 10.88,-228 10.88,-222 16.88,-216 22.88,-216 22.88,-216 89.12,-216 89.12,-216 95.12,-216 101.12,-222 101.12,-228 101.12,-228 101.12,-240 101.12,-240 101.12,-246 95.12,-252 89.12,-252"/>
<text text-anchor="middle" x="56" y="-229.7" font-family="Times,serif" font-size="14.00">user&#45;profile</text>
</g>
<!-- SERVICE:user&#45;profile&#45;&gt;DATABASE:user&#45;db -->
<g id="edge11" class="edge">
<title>SERVICE:user&#45;profile&#45;&gt;DATABASE:user&#45;db</title>
<g id="a_edge11"><a xlink:title="edge#10">
<path fill="none" stroke="black" d="M101.59,-234C145.79,-234 213.06,-234 256.81,-234"/>
<polygon fill="black" stroke="black" points="256.7,-237.5 266.7,-234 256.7,-230.5 256.7,-237.5"/>
</a>
</g>
<text text-anchor="middle" x="188.88" y="-238.7" font-family="Times,serif" font-size="14.00">CALLS [rest] (sync)</text>
</g>
<!-- SERVICE:preferences -->
<g id="node12" class="node">
<title>SERVICE:preferences</title>
<path fill="#eef6ff" stroke="black" d="M89.5,-198C89.5,-198 22.5,-198 22.5,-198 16.5,-198 10.5,-192 10.5,-186 10.5,-186 10.5,-174 10.5,-174 10.5,-168 16.5,-162 22.5,-162 22.5,-162 89.5,-162 89.5,-162 95.5,-162 101.5,-168 101.5,-174 101.5,-174 101.5,-186 101.5,-186 101.5,-192 95.5,-198 89.5,-198"/>
<text text-anchor="middle" x="56" y="-175.7" font-family="Times,serif" font-size="14.00">preferences</text>
</g>
<!-- SERVICE:preferences&#45;&gt;DATABASE:user&#45;db -->
<g id="edge12" class="edge">
<title>SERVICE:preferences&#45;&gt;DATABASE:user&#45;db</title>
<g id="a_edge12"><a xlink:title="edge#11">
<path fill="none" stroke="black" d="M101.98,-184.57C141.05,-189.24 198.89,-197.85 247.75,-212 251.01,-212.94 254.34,-214.03 257.66,-215.21"/>
<polygon fill="black" stroke="black" points="256.13,-218.37 266.72,-218.65 258.62,-211.83 256.13,-218.37"/>
</a>
</g>
<text text-anchor="middle" x="188.88" y="-216.7" font-family="Times,serif" font-size="14.00">CALLS [rest] (sync)</text>
</g>
<!-- SERVICE:ops&#45;hub_split_split&#45;&gt;SERVICE:report&#45;export -->
<g id="edge10" class="edge">
<title>SERVICE:ops&#45;hub_split_split&#45;&gt;SERVICE:report&#45;export</title>
<g id="a_edge10"><a xlink:title="edge#9">
<path fill="none" stroke="black" d="M1434.37,-179.74C1478.41,-184.08 1535.16,-189.67 1577.91,-193.87"/>
<polygon fill="black" stroke="black" points="1577.49,-197.35 1587.79,-194.85 1578.18,-190.38 1577.49,-197.35"/>
</a>
</g>
<text text-anchor="middle" x="1510.88" y="-196.7" font-family="Times,serif" font-size="14.00">CALLS [rest] (sync)</text>
</g>
<!-- SERVICE:ops&#45;hub_split_split&#45;&gt;SERVICE:metrics&#45;agent -->
<g id="edge9" class="edge">
<title>SERVICE:ops&#45;hub_split_split&#45;&gt;SERVICE:metrics&#45;agent</title>
<g id="a_edge9"><a xlink:title="edge#8">
<path fill="none" stroke="black" d="M1434.45,-162.17C1440.38,-161.38 1446.29,-160.64 1452,-160 1493.11,-155.37 1539.46,-151.9 1575.87,-149.58"/>
<polygon fill="black" stroke="black" points="1576.04,-153.07 1585.81,-148.96 1575.61,-146.09 1576.04,-153.07"/>
</a>
</g>
<text text-anchor="middle" x="1510.88" y="-164.7" font-family="Times,serif" font-size="14.00">CALLS [rest] (sync)</text>
</g>
<!-- SERVICE:ops&#45;hub_split&#45;2&#45;&gt;SERVICE:ops&#45;hub_split&#45;1 -->
<g id="edge15" class="edge">
<title>SERVICE:ops&#45;hub_split&#45;2&#45;&gt;SERVICE:ops&#45;hub_split&#45;1</title>
<g id="a_edge15"><a xlink:title="edge#14">
<path fill="none" stroke="black" d="M607.75,-146.47C649.32,-151.12 705.52,-157.41 749.37,-162.31"/>
<polygon fill="black" stroke="black" points="748.98,-165.79 759.31,-163.42 749.76,-158.83 748.98,-165.79"/>
</a>
</g>
<text text-anchor="middle" x="684.38" y="-165.7" font-family="Times,serif" font-size="14.00">CALLS [rest] (sync)</text>
</g>
<!-- SERVICE:ops&#45;hub_split&#45;2&#45;&gt;SERVICE:sms&#45;gateway -->
<g id="edge6" class="edge">
<title>SERVICE:ops&#45;hub_split&#45;2&#45;&gt;SERVICE:sms&#45;gateway</title>
<g id="a_edge6"><a xlink:title="edge#5">
<path fill="none" stroke="black" d="M607.9,-125.82C613.82,-124.72 619.76,-123.74 625.5,-123 668.96,-117.37 718.36,-115.67 756.25,-115.35"/>
<polygon fill="black" stroke="black" points="756.13,-118.85 766.11,-115.3 756.09,-111.85 756.13,-118.85"/>
</a>
</g>
<text text-anchor="middle" x="684.38" y="-127.7" font-family="Times,serif" font-size="14.00">CALLS [rest] (sync)</text>
</g>
<!-- SERVICE:pricing -->
<g id="node15" class="node">
<title>SERVICE:pricing</title>
<path fill="#eef6ff" stroke="black" d="M74.12,-36C74.12,-36 37.88,-36 37.88,-36 31.88,-36 25.88,-30 25.88,-24 25.88,-24 25.88,-12 25.88,-12 25.88,-6 31.88,0 37.88,0 37.88,0 74.12,0 74.12,0 80.12,0 86.12,-6 86.12,-12 86.12,-12 86.12,-24 86.12,-24 86.12,-30 80.12,-36 74.12,-36"/>
<text text-anchor="middle" x="56" y="-13.7" font-family="Times,serif" font-size="14.00">pricing</text>
</g>
<!-- SERVICE:discount -->
<g id="node16" class="node">
<title>SERVICE:discount</title>
<path fill="#eef6ff" stroke="black" d="M324.5,-36C324.5,-36 277.75,-36 277.75,-36 271.75,-36 265.75,-30 265.75,-24 265.75,-24 265.75,-12 265.75,-12 265.75,-6 271.75,0 277.75,0 277.75,0 324.5,0 324.5,0 330.5,0 336.5,-6 336.5,-12 336.5,-12 336.5,-24 336.5,-24 336.5,-30 330.5,-36 324.5,-36"/>
<text text-anchor="middle" x="301.12" y="-13.7" font-family="Times,serif" font-size="14.00">discount</text>
</g>
<!-- SERVICE:pricing&#45;&gt;SERVICE:discount -->
<g id="edge1" class="edge">
<title>SERVICE:pricing&#45;&gt;SERVICE:discount</title>
<g id="a_edge1"><a xlink:title="edge#0">
<path fill="none" stroke="black" d="M86.33,-18C128.07,-18 205.01,-18 254.31,-18"/>
<polygon fill="black" stroke="black" points="254.09,-21.5 264.09,-18 254.09,-14.5 254.09,-21.5"/>
</a>
</g>
<text text-anchor="middle" x="188.88" y="-22.7" font-family="Times,serif" font-size="14.00">CALLS [rest] (sync)</text>
</g>
<!-- SERVICE:discount&#45;&gt;SERVICE:tax -->
<g id="edge2" class="edge">
<title>SERVICE:discount&#45;&gt;SERVICE:tax</title>
<g id="a_edge2"><a xlink:title="edge#1">
<path fill="none" stroke="black" d="M336.81,-18C382.67,-18 463.18,-18 510.39,-18"/>
<polygon fill="black" stroke="black" points="510.13,-21.5 520.13,-18 510.13,-14.5 510.13,-21.5"/>
</a>
</g>
<text text-anchor="middle" x="413.38" y="-22.7" font-family="Times,serif" font-size="14.00">CALLS [rest] (sync)</text>
</g>
<!-- SERVICE:scheduler -->
<g id="node17" class="node">
<title>SERVICE:scheduler</title>
<path fill="#eef6ff" stroke="black" d="M82.75,-90C82.75,-90 29.25,-90 29.25,-90 23.25,-90 17.25,-84 17.25,-78 17.25,-78 17.25,-66 17.25,-66 17.25,-60 23.25,-54 29.25,-54 29.25,-54 82.75,-54 82.75,-54 88.75,-54 94.75,-60 94.75,-66 94.75,-66 94.75,-78 94.75,-78 94.75,-84 88.75,-90 82.75,-90"/>
<text text-anchor="middle" x="56" y="-67.7" font-family="Times,serif" font-size="14.00">scheduler</text>
</g>
<!-- SERVICE:scheduler&#45;&gt;SERVICE:ops&#45;hub -->
<g id="edge3" class="edge">
<title>SERVICE:scheduler&#45;&gt;SERVICE:ops&#45;hub</title>
<g id="a_edge3"><a xlink:title="edge#2">
<path fill="none" stroke="black" d="M95.22,-72.9C133.89,-74.25 195.29,-77.63 247.75,-86 250.19,-86.39 252.69,-86.84 255.2,-87.33"/>
<polygon fill="black" stroke="black" points="254.22,-90.7 264.73,-89.37 255.69,-83.85 254.22,-90.7"/>
</a>
</g>
<text text-anchor="middle" x="188.88" y="-90.7" font-family="Times,serif" font-size="14.00">CALLS [rest] (sync)</text>
</g>
</g>
</svg>
