<?xml version="1.0" encoding="UTF-8" standalone="no"?>
<!DOCTYPE svg PUBLIC "-//W3C//DTD SVG 1.1//EN"
 "http://www.w3.org/Graphics/SVG/1.1/DTD/svg11.dtd">
<!-- Generated by graphviz version 9.0.0 (20230911.1827)
 -->
<!-- Title: G Pages: 1 -->
<svg width="854pt" height="158pt"
 viewBox="0.00 0.00 853.75 158.00" xmlns="http://www.w3.org/2000/svg" xmlns:xlink="http://www.w3.org/1999/xlink">
<g id="graph0" class="graph" transform="scale(1 1) rotate(0) translate(4 154)">
<title>G</title>
<polygon fill="white" stroke="none" points="-4,4 -4,-154 849.75,-154 849.75,4 -4,4"/>
<text text-anchor="middle" x="422.88" y="-132.7" font-family="Helvetica,sans-Serif" font-size="14.00">Architecture</text>
<!-- SERVICE:ui -->
<g id="node1" class="node">
<title>SERVICE:ui</title>
<path fill="#eef6ff" stroke="black" d="M42,-36C42,-36 12,-36 12,-36 6,-36 0,-30 0,-24 0,-24 0,-12 0,-12 0,-6 6,0 12,0 12,0 42,0 42,0 48,0 54,-6 54,-12 54,-12 54,-24 54,-24 54,-30 48,-36 42,-36"/>
<text text-anchor="middle" x="27" y="-13.7" font-family="Times,serif" font-size="14.00">ui</text>
</g>
<!-- SERVICE:profile -->
<g id="node2" class="node">
<title>SERVICE:profile</title>
<path fill="#eef6ff" stroke="black" d="M283.25,-84C283.25,-84 250,-84 250,-84 244,-84 238,-78 238,-72 238,-72 238,-60 238,-60 238,-54 244,-48 250,-48 250,-48 283.25,-48 283.25,-48 289.25,-48 295.25,-54 295.25,-60 295.25,-60 295.25,-72 295.25,-72 295.25,-78 289.25,-84 283.25,-84"/>
<text text-anchor="middle" x="266.62" y="-61.7" font-family="Times,serif" font-size="14.00">profile</text>
</g>
<!-- SERVICE:ui&#45;&gt;SERVICE:profile -->
<g id="edge1" class="edge">
<title>SERVICE:ui&#45;&gt;SERVICE:profile</title>
<g id="a_edge1"><a xlink:title="edge#0">
<path fill="none" stroke="black" d="M54.34,-23.32C96.18,-31.77 178.05,-48.31 226.68,-58.13"/>
<polygon fill="black" stroke="black" points="225.72,-61.51 236.22,-60.06 227.11,-54.65 225.72,-61.51"/>
</a>
</g>
<text text-anchor="middle" x="130.88" y="-54.7" font-family="Times,serif" font-size="14.00">CALLS [rest] (sync)</text>
</g>
<!-- SERVICE:recommendations -->
<g id="node3" class="node">
<title>SERVICE:recommendations</title>
<path fill="#eef6ff" stroke="black" d="M600.25,-63C600.25,-63 491.25,-63 491.25,-63 485.25,-63 479.25,-57 479.25,-51 479.25,-51 479.25,-39 479.25,-39 479.25,-33 485.25,-27 491.25,-27 491.25,-27 600.25,-27 600.25,-27 606.25,-27 612.25,-33 612.25,-39 612.25,-39 612.25,-51 612.25,-51 612.25,-57 606.25,-63 600.25,-63"/>
<text text-anchor="middle" x="545.75" y="-40.7" font-family="Times,serif" font-size="14.00">recommendations</text>
</g>
<!-- SERVICE:ui&#45;&gt;SERVICE:recommendations -->
<g id="edge2" class="edge">
<title>SERVICE:ui&#45;&gt;SERVICE:recommendations</title>
<g id="a_edge2"><a xlink:title="edge#1">
<path fill="none" stroke="black" d="M54.03,-16.6C121.58,-13.4 307.92,-7.23 461.25,-27 463.31,-27.27 465.4,-27.56 467.5,-27.87"/>
<polygon fill="black" stroke="black" points="466.91,-31.32 477.34,-29.48 468.04,-24.41 466.91,-31.32"/>
</a>
</g>
<text text-anchor="middle" x="266.62" y="-20.7" font-family="Times,serif" font-size="14.00">CALLS [rest] (sync)</text>
</g>
<!-- SERVICE:profile&#45;&gt;SERVICE:recommendations -->
<g id="edge4" class="edge">
<title>SERVICE:profile&#45;&gt;SERVICE:recommendations</title>
<g id="a_edge4"><a xlink:title="edge#3">
<path fill="none" stroke="black" d="M295.55,-64.67C333.21,-62.78 402.35,-59 461.25,-54 463.43,-53.82 465.64,-53.62 467.87,-53.42"/>
<polygon fill="black" stroke="black" points="468.01,-56.92 477.63,-52.5 467.35,-49.95 468.01,-56.92"/>
</a>
</g>
<text text-anchor="middle" x="402.38" y="-65.7" font-family="Times,serif" font-size="14.00">CALLS [rest] (sync)</text>
</g>
<!-- DATABASE:profile&#45;db -->
<g id="node4" class="node">
<title>DATABASE:profile&#45;db</title>
<path fill="#fff3cd" stroke="black" d="M845.75,-96.73C845.75,-98.53 827.88,-100 805.88,-100 783.87,-100 766,-98.53 766,-96.73 766,-96.73 766,-67.27 766,-67.27 766,-65.47 783.87,-64 805.88,-64 827.88,-64 845.75,-65.47 845.75,-67.27 845.75,-67.27 845.75,-96.73 845.75,-96.73"/>
<path fill="none" stroke="black" d="M845.75,-96.73C845.75,-94.92 827.88,-93.45 805.88,-93.45 783.87,-93.45 766,-94.92 766,-96.73"/>
<text text-anchor="middle" x="805.88" y="-77.7" font-family="Times,serif" font-size="14.00">profile&#45;db</text>
</g>
<!-- SERVICE:profile&#45;&gt;DATABASE:profile&#45;db -->
<g id="edge5" class="edge">
<title>SERVICE:profile&#45;&gt;DATABASE:profile&#45;db</title>
<g id="a_edge5"><a xlink:title="edge#4">
<path fill="none" stroke="black" d="M295.52,-73.5C309.76,-77.01 327.44,-80.88 343.5,-83 521.81,-106.52 569.28,-115.17 748,-95 750.06,-94.77 752.16,-94.49 754.27,-94.17"/>
<polygon fill="black" stroke="black" points="754.87,-97.62 764.11,-92.44 753.66,-90.73 754.87,-97.62"/>
</a>
</g>
<text text-anchor="middle" x="545.75" y="-110.7" font-family="Times,serif" font-size="14.00">CALLS [rest] (sync)</text>
</g>
<!-- SERVICE:recommendations&#45;&gt;SERVICE:profile -->
<g id="edge3" class="edge">
<title>SERVICE:recommendations&#45;&gt;SERVICE:profile</title>
<g id="a_edge3"><a xlink:title="edge#2">
<path fill="none" stroke="black" d="M478.94,-34.42C439.36,-29.94 388.16,-27.49 343.5,-36 330.93,-38.4 317.78,-42.84 306.03,-47.58"/>
<polygon fill="black" stroke="black" points="304.91,-44.25 297.08,-51.38 307.65,-50.69 304.91,-44.25"/>
</a>
</g>
<text text-anchor="middle" x="402.38" y="-40.7" font-family="Times,serif" font-size="14.00">CALLS [rest] (sync)</text>
</g>
<!-- SERVICE:recommendations&#45;&gt;DATABASE:profile&#45;db -->
<g id="edge6" class="edge">
<title>SERVICE:recommendations&#45;&gt;DATABASE:profile&#45;db</title>
<g id="a_edge6"><a xlink:title="edge#5">
<path fill="none" stroke="black" d="M612.55,-54.43C656.7,-60.76 713.95,-68.97 754.48,-74.78"/>
<polygon fill="black" stroke="black" points="753.81,-78.22 764.2,-76.17 754.8,-71.29 753.81,-78.22"/>
</a>
</g>
<text text-anchor="middle" x="689.12" y="-77.7" font-family="Times,serif" font-size="14.00">CALLS [rest] (sync)</text>
</g>
</g>
</svg>
