<?xml version="1.0" encoding="UTF-8" standalone="no"?>
<!DOCTYPE svg PUBLIC "-//W3C//DTD SVG 1.1//EN"
 "http://www.w3.org/Graphics/SVG/1.1/DTD/svg11.dtd">
<!-- Generated by graphviz version 9.0.0 (20230911.1827)
 -->
<!-- Title: G Pages: 1 -->
<svg width="858pt" height="434pt"
 viewBox="0.00 0.00 857.75 434.45" xmlns="http://www.w3.org/2000/svg" xmlns:xlink="http://www.w3.org/1999/xlink">
<g id="graph0" class="graph" transform="scale(1 1) rotate(0) translate(4 430.45)">
<title>G</title>
<polygon fill="white" stroke="none" points="-4,4 -4,-430.45 853.75,-430.45 853.75,4 -4,4"/>
<text text-anchor="middle" x="424.88" y="-409.15" font-family="Helvetica,sans-Serif" font-size="14.00">Architecture</text>
<!-- DATABASE:payments&#45;db -->
<g id="node1" class="node">
<title>DATABASE:payments&#45;db</title>
<path fill="#fff3cd" stroke="black" d="M375.75,-85.18C375.75,-86.98 353,-88.45 325,-88.45 297,-88.45 274.25,-86.98 274.25,-85.18 274.25,-85.18 274.25,-55.72 274.25,-55.72 274.25,-53.92 297,-52.45 325,-52.45 353,-52.45 375.75,-53.92 375.75,-55.72 375.75,-55.72 375.75,-85.18 375.75,-85.18"/>
<path fill="none" stroke="black" d="M375.75,-85.18C375.75,-83.37 353,-81.91 325,-81.91 297,-81.91 274.25,-83.37 274.25,-85.18"/>
<text text-anchor="middle" x="325" y="-66.15" font-family="Times,serif" font-size="14.00">payments&#45;db</text>
</g>
<!-- DATABASE:users&#45;db -->
<g id="node2" class="node">
<title>DATABASE:users&#45;db</title>
<path fill="#fff3cd" stroke="black" d="M846,-325.18C846,-326.98 829.81,-328.45 809.88,-328.45 789.94,-328.45 773.75,-326.98 773.75,-325.18 773.75,-325.18 773.75,-295.72 773.75,-295.72 773.75,-293.92 789.94,-292.45 809.88,-292.45 829.81,-292.45 846,-293.92 846,-295.72 846,-295.72 846,-325.18 846,-325.18"/>
<path fill="none" stroke="black" d="M846,-325.18C846,-323.37 829.81,-321.91 809.88,-321.91 789.94,-321.91 773.75,-323.37 773.75,-325.18"/>
<text text-anchor="middle" x="809.88" y="-306.15" font-family="Times,serif" font-size="14.00">users&#45;db</text>
</g>
<!-- SERVICE:billing&#45;service -->
<g id="node3" class="node">
<title>SERVICE:billing&#45;service</title>
<path fill="#eef6ff" stroke="black" d="M94,-99.45C94,-99.45 12,-99.45 12,-99.45 6,-99.45 0,-93.45 0,-87.45 0,-87.45 0,-75.45 0,-75.45 0,-69.45 6,-63.45 12,-63.45 12,-63.45 94,-63.45 94,-63.45 100,-63.45 106,-69.45 106,-75.45 106,-75.45 106,-87.45 106,-87.45 106,-93.45 100,-99.45 94,-99.45"/>
<text text-anchor="middle" x="53" y="-77.15" font-family="Times,serif" font-size="14.00">billing&#45;service</text>
</g>
<!-- SERVICE:billing&#45;service&#45;&gt;DATABASE:payments&#45;db -->
<g id="edge15" class="edge">
<title>SERVICE:billing&#45;service&#45;&gt;DATABASE:payments&#45;db</title>
<g id="a_edge15"><a xlink:title="edge#14">
<path fill="none" stroke="black" d="M78.85,-63.02C91.64,-54.67 107.9,-45.73 124,-41.45 176.51,-27.51 192.78,-31.8 246.25,-41.45 255.42,-43.11 264.92,-45.78 274,-48.84"/>
<polygon fill="black" stroke="black" points="272.8,-52.13 283.39,-52.23 275.17,-45.54 272.8,-52.13"/>
</a>
</g>
<text text-anchor="middle" x="185.12" y="-46.15" font-family="Times,serif" font-size="14.00">READS</text>
</g>
<!-- SERVICE:billing&#45;service&#45;&gt;DATABASE:payments&#45;db -->
<g id="edge16" class="edge">
<title>SERVICE:billing&#45;service&#45;&gt;DATABASE:payments&#45;db</title>
<g id="a_edge16"><a xlink:title="edge#15">
<path fill="none" stroke="black" d="M106.38,-79.32C151.15,-77.49 215.61,-74.87 262.76,-72.95"/>
<polygon fill="black" stroke="black" points="262.69,-76.45 272.54,-72.55 262.4,-69.46 262.69,-76.45"/>
</a>
</g>
<text text-anchor="middle" x="185.12" y="-83.15" font-family="Times,serif" font-size="14.00">WRITES</text>
</g>
<!-- SERVICE:order&#45;service -->
<g id="node7" class="node">
<title>SERVICE:order&#45;service</title>
<path fill="#eef6ff" stroke="black" d="M363.38,-183.45C363.38,-183.45 286.62,-183.45 286.62,-183.45 280.62,-183.45 274.62,-177.45 274.62,-171.45 274.62,-171.45 274.62,-159.45 274.62,-159.45 274.62,-153.45 280.62,-147.45 286.62,-147.45 286.62,-147.45 363.38,-147.45 363.38,-147.45 369.38,-147.45 375.38,-153.45 375.38,-159.45 375.38,-159.45 375.38,-171.45 375.38,-171.45 375.38,-177.45 369.38,-183.45 363.38,-183.45"/>
<text text-anchor="middle" x="325" y="-161.15" font-family="Times,serif" font-size="14.00">order&#45;service</text>
</g>
<!-- SERVICE:billing&#45;service&#45;&gt;SERVICE:order&#45;service -->
<g id="edge14" class="edge">
<title>SERVICE:billing&#45;service&#45;&gt;SERVICE:order&#45;service</title>
<g id="a_edge14"><a xlink:title="edge#13">
<path fill="none" stroke="black" d="M106.21,-96.3C112.19,-97.8 118.21,-99.22 124,-100.45 177.78,-111.89 194.49,-100.9 246.25,-119.45 261.07,-124.77 276.23,-132.99 289.18,-141.02"/>
<polygon fill="black" stroke="black" points="287.03,-143.8 297.33,-146.25 290.81,-137.91 287.03,-143.8"/>
</a>
</g>
<text text-anchor="middle" x="185.12" y="-124.15" font-family="Times,serif" font-size="14.00">calls (1 ep), 260rpm</text>
</g>
<!-- SERVICE:search&#45;service -->
<g id="node4" class="node">
<title>SERVICE:search&#45;service</title>
<path fill="#eef6ff" stroke="black" d="M656,-237.45C656,-237.45 571.75,-237.45 571.75,-237.45 565.75,-237.45 559.75,-231.45 559.75,-225.45 559.75,-225.45 559.75,-213.45 559.75,-213.45 559.75,-207.45 565.75,-201.45 571.75,-201.45 571.75,-201.45 656,-201.45 656,-201.45 662,-201.45 668,-207.45 668,-213.45 668,-213.45 668,-225.45 668,-225.45 668,-231.45 662,-237.45 656,-237.45"/>
<text text-anchor="middle" x="613.88" y="-215.15" font-family="Times,serif" font-size="14.00">search&#45;service</text>
</g>
<!-- DATABASE:orders&#45;db -->
<g id="node5" class="node">
<title>DATABASE:orders&#45;db</title>
<path fill="#fff3cd" stroke="black" d="M849.75,-110.18C849.75,-111.98 831.88,-113.45 809.88,-113.45 787.87,-113.45 770,-111.98 770,-110.18 770,-110.18 770,-80.72 770,-80.72 770,-78.92 787.87,-77.45 809.88,-77.45 831.88,-77.45 849.75,-78.92 849.75,-80.72 849.75,-80.72 849.75,-110.18 849.75,-110.18"/>
<path fill="none" stroke="black" d="M849.75,-110.18C849.75,-108.37 831.88,-106.91 809.88,-106.91 787.87,-106.91 770,-108.37 770,-110.18"/>
<text text-anchor="middle" x="809.88" y="-91.15" font-family="Times,serif" font-size="14.00">orders&#45;db</text>
</g>
<!-- SERVICE:api&#45;gateway -->
<g id="node6" class="node">
<title>SERVICE:api&#45;gateway</title>
<path fill="#eef6ff" stroke="black" d="M88.75,-222.45C88.75,-222.45 17.25,-222.45 17.25,-222.45 11.25,-222.45 5.25,-216.45 5.25,-210.45 5.25,-210.45 5.25,-198.45 5.25,-198.45 5.25,-192.45 11.25,-186.45 17.25,-186.45 17.25,-186.45 88.75,-186.45 88.75,-186.45 94.75,-186.45 100.75,-192.45 100.75,-198.45 100.75,-198.45 100.75,-210.45 100.75,-210.45 100.75,-216.45 94.75,-222.45 88.75,-222.45"/>
<text text-anchor="middle" x="53" y="-200.15" font-family="Times,serif" font-size="14.00">api&#45;gateway</text>
</g>
<!-- SERVICE:api&#45;gateway&#45;&gt;SERVICE:order&#45;service -->
<g id="edge1" class="edge">
<title>SERVICE:api&#45;gateway&#45;&gt;SERVICE:order&#45;service</title>
<g id="a_edge1"><a xlink:title="edge#0">
<path fill="none" stroke="black" d="M101.2,-200.4C140.23,-196.72 197.04,-190.63 246.25,-182.45 251.82,-181.53 257.58,-180.47 263.35,-179.33"/>
<polygon fill="black" stroke="black" points="263.79,-182.81 272.89,-177.39 262.39,-175.96 263.79,-182.81"/>
</a>
</g>
<text text-anchor="middle" x="185.12" y="-202.15" font-family="Times,serif" font-size="14.00">calls (1 ep), 300rpm</text>
</g>
<!-- SERVICE:order&#45;service&#45;&gt;DATABASE:users&#45;db -->
<g id="edge8" class="edge">
<title>SERVICE:order&#45;service&#45;&gt;DATABASE:users&#45;db</title>
<g id="a_edge8"><a xlink:title="edge#7">
<path fill="none" stroke="black" d="M332.46,-183.7C342.91,-210.31 366.25,-259.15 403.75,-282.45 516.33,-352.4 682.05,-334.71 762.14,-320.38"/>
<polygon fill="black" stroke="black" points="762.64,-323.85 771.83,-318.58 761.36,-316.97 762.64,-323.85"/>
</a>
</g>
<text text-anchor="middle" x="613.88" y="-338.15" font-family="Times,serif" font-size="14.00">READS</text>
</g>
<!-- SERVICE:order&#45;service&#45;&gt;SERVICE:billing&#45;service -->
<g id="edge4" class="edge">
<title>SERVICE:order&#45;service&#45;&gt;SERVICE:billing&#45;service</title>
<g id="a_edge4"><a xlink:title="edge#3">
<path fill="none" stroke="black" d="M274.6,-161.03C219.87,-155.9 137.49,-147.38 124,-141.45 106.5,-133.76 90.09,-120.19 77.57,-107.89"/>
<polygon fill="black" stroke="black" points="80.09,-105.47 70.61,-100.76 75.08,-110.36 80.09,-105.47"/>
</a>
</g>
<text text-anchor="middle" x="185.12" y="-162.15" font-family="Times,serif" font-size="14.00">calls (1 ep), 360rpm</text>
</g>
<!-- SERVICE:order&#45;service&#45;&gt;SERVICE:search&#45;service -->
<g id="edge6" class="edge">
<title>SERVICE:order&#45;service&#45;&gt;SERVICE:search&#45;service</title>
<g id="a_edge6"><a xlink:title="edge#5">
<path fill="none" stroke="black" d="M375.64,-174.8C423.45,-183.8 496.02,-197.45 548.3,-207.3"/>
<polygon fill="black" stroke="black" points="547.5,-210.71 557.98,-209.12 548.8,-203.83 547.5,-210.71"/>
</a>
</g>
<text text-anchor="middle" x="464.88" y="-206.15" font-family="Times,serif" font-size="14.00">calls (1 ep), 180rpm</text>
</g>
<!-- SERVICE:order&#45;service&#45;&gt;DATABASE:orders&#45;db -->
<g id="edge7" class="edge">
<title>SERVICE:order&#45;service&#45;&gt;DATABASE:orders&#45;db</title>
<g id="a_edge7"><a xlink:title="edge#6">
<path fill="none" stroke="black" d="M375.81,-161.43C444.97,-155.75 573.96,-144.79 683.75,-133.45 714.13,-130.31 722.83,-134.51 752,-125.45 758,-123.59 764.1,-121.1 769.98,-118.34"/>
<polygon fill="black" stroke="black" points="771.54,-121.48 778.9,-113.86 768.39,-115.23 771.54,-121.48"/>
</a>
</g>
<text text-anchor="middle" x="613.88" y="-151.15" font-family="Times,serif" font-size="14.00">READS</text>
</g>
<!-- SERVICE:order&#45;service&#45;&gt;DATABASE:orders&#45;db -->
<g id="edge9" class="edge">
<title>SERVICE:order&#45;service&#45;&gt;DATABASE:orders&#45;db</title>
<g id="a_edge9"><a xlink:title="edge#8">
<path fill="none" stroke="black" d="M375.71,-151.77C385.01,-149.28 394.67,-146.75 403.75,-144.45 465.84,-128.77 480.64,-120.75 544,-111.45 583.94,-105.59 693.3,-100.26 758.34,-97.47"/>
<polygon fill="black" stroke="black" points="758.19,-100.98 768.04,-97.07 757.9,-93.99 758.19,-100.98"/>
</a>
</g>
<text text-anchor="middle" x="613.88" y="-116.15" font-family="Times,serif" font-size="14.00">WRITES</text>
</g>
<!-- SERVICE:inventory&#45;service -->
<g id="node8" class="node">
<title>SERVICE:inventory&#45;service</title>
<path fill="#eef6ff" stroke="black" d="M665,-57.45C665,-57.45 562.75,-57.45 562.75,-57.45 556.75,-57.45 550.75,-51.45 550.75,-45.45 550.75,-45.45 550.75,-33.45 550.75,-33.45 550.75,-27.45 556.75,-21.45 562.75,-21.45 562.75,-21.45 665,-21.45 665,-21.45 671,-21.45 677,-27.45 677,-33.45 677,-33.45 677,-45.45 677,-45.45 677,-51.45 671,-57.45 665,-57.45"/>
<text text-anchor="middle" x="613.88" y="-35.15" font-family="Times,serif" font-size="14.00">inventory&#45;service</text>
</g>
<!-- SERVICE:order&#45;service&#45;&gt;SERVICE:inventory&#45;service -->
<g id="edge2" class="edge">
<title>SERVICE:order&#45;service&#45;&gt;SERVICE:inventory&#45;service</title>
<g id="a_edge2"><a xlink:title="edge#1">
<path fill="none" stroke="black" d="M345.87,-147.19C358.81,-134.36 375.18,-116.21 385.75,-97.45 398.8,-74.31 382.36,-56.21 403.75,-40.45 424.68,-25.04 487.61,-26.55 539.01,-30.88"/>
<polygon fill="black" stroke="black" points="538.67,-34.36 548.95,-31.77 539.3,-27.39 538.67,-34.36"/>
</a>
</g>
<text text-anchor="middle" x="464.88" y="-45.15" font-family="Times,serif" font-size="14.00">calls (1 ep), 950rpm</text>
</g>
<!-- SERVICE:user&#45;service -->
<g id="node9" class="node">
<title>SERVICE:user&#45;service</title>
<path fill="#eef6ff" stroke="black" d="M648.5,-291.45C648.5,-291.45 579.25,-291.45 579.25,-291.45 573.25,-291.45 567.25,-285.45 567.25,-279.45 567.25,-279.45 567.25,-267.45 567.25,-267.45 567.25,-261.45 573.25,-255.45 579.25,-255.45 579.25,-255.45 648.5,-255.45 648.5,-255.45 654.5,-255.45 660.5,-261.45 660.5,-267.45 660.5,-267.45 660.5,-279.45 660.5,-279.45 660.5,-285.45 654.5,-291.45 648.5,-291.45"/>
<text text-anchor="middle" x="613.88" y="-269.15" font-family="Times,serif" font-size="14.00">user&#45;service</text>
</g>
<!-- SERVICE:order&#45;service&#45;&gt;SERVICE:user&#45;service -->
<g id="edge3" class="edge">
<title>SERVICE:order&#45;service&#45;&gt;SERVICE:user&#45;service</title>
<g id="a_edge3"><a xlink:title="edge#2">
<path fill="none" stroke="black" d="M345.64,-183.68C360.54,-196.58 382.09,-213.31 403.75,-223.45 452.48,-246.26 512.62,-259.23 555.88,-266.22"/>
<polygon fill="black" stroke="black" points="555.14,-269.65 565.56,-267.72 556.21,-262.73 555.14,-269.65"/>
</a>
</g>
<text text-anchor="middle" x="464.88" y="-265.15" font-family="Times,serif" font-size="14.00">calls (1 ep), 260rpm</text>
</g>
<!-- SERVICE:notification&#45;service -->
<g id="node10" class="node">
<title>SERVICE:notification&#45;service</title>
<path fill="#eef6ff" stroke="black" d="M671.75,-399.45C671.75,-399.45 556,-399.45 556,-399.45 550,-399.45 544,-393.45 544,-387.45 544,-387.45 544,-375.45 544,-375.45 544,-369.45 550,-363.45 556,-363.45 556,-363.45 671.75,-363.45 671.75,-363.45 677.75,-363.45 683.75,-369.45 683.75,-375.45 683.75,-375.45 683.75,-387.45 683.75,-387.45 683.75,-393.45 677.75,-399.45 671.75,-399.45"/>
<text text-anchor="middle" x="613.88" y="-377.15" font-family="Times,serif" font-size="14.00">notification&#45;service</text>
</g>
<!-- SERVICE:order&#45;service&#45;&gt;SERVICE:notification&#45;service -->
<g id="edge5" class="edge">
<title>SERVICE:order&#45;service&#45;&gt;SERVICE:notification&#45;service</title>
<g id="a_edge5"><a xlink:title="edge#4">
<path fill="none" stroke="black" d="M328.46,-183.76C334.34,-220.01 352.77,-300.9 403.75,-341.45 439.66,-370.01 489.91,-380.28 532.15,-383.28"/>
<polygon fill="black" stroke="black" points="531.85,-386.77 542.04,-383.84 532.25,-379.78 531.85,-386.77"/>
</a>
</g>
<text text-anchor="middle" x="464.88" y="-387.15" font-family="Times,serif" font-size="14.00">calls (1 ep), 220rpm</text>
</g>
<!-- SERVICE:inventory&#45;service&#45;&gt;SERVICE:billing&#45;service -->
<g id="edge11" class="edge">
<title>SERVICE:inventory&#45;service&#45;&gt;SERVICE:billing&#45;service</title>
<g id="a_edge11"><a xlink:title="edge#10">
<path fill="none" stroke="black" d="M550.54,-24.74C455.49,-5.25 269.98,21.16 124,-29.45 108,-35 92.62,-45.62 80.37,-55.83"/>
<polygon fill="black" stroke="black" points="78.41,-52.9 73.18,-62.12 83.01,-58.17 78.41,-52.9"/>
</a>
</g>
<text text-anchor="middle" x="325" y="-7.15" font-family="Times,serif" font-size="14.00">calls (1 ep), 320rpm</text>
</g>
<!-- SERVICE:inventory&#45;service&#45;&gt;DATABASE:orders&#45;db -->
<g id="edge12" class="edge">
<title>SERVICE:inventory&#45;service&#45;&gt;DATABASE:orders&#45;db</title>
<g id="a_edge12"><a xlink:title="edge#11">
<path fill="none" stroke="black" d="M677.33,-57.48C703.64,-65.08 733.87,-73.8 758.7,-80.97"/>
<polygon fill="black" stroke="black" points="757.67,-84.31 768.25,-83.72 759.61,-77.59 757.67,-84.31"/>
</a>
</g>
<text text-anchor="middle" x="726.88" y="-83.15" font-family="Times,serif" font-size="14.00">READS</text>
</g>
<!-- SERVICE:inventory&#45;service&#45;&gt;DATABASE:orders&#45;db -->
<g id="edge13" class="edge">
<title>SERVICE:inventory&#45;service&#45;&gt;DATABASE:orders&#45;db</title>
<g id="a_edge13"><a xlink:title="edge#12">
<path fill="none" stroke="black" d="M677.18,-32.19C701.33,-31.68 728.71,-34.02 752,-43.45 765.33,-48.85 777.5,-58.89 787.12,-68.71"/>
<polygon fill="black" stroke="black" points="784.53,-71.06 793.87,-76.06 789.68,-66.32 784.53,-71.06"/>
</a>
</g>
<text text-anchor="middle" x="726.88" y="-48.15" font-family="Times,serif" font-size="14.00">WRITES</text>
</g>
<!-- SERVICE:inventory&#45;service&#45;&gt;SERVICE:order&#45;service -->
<g id="edge10" class="edge">
<title>SERVICE:inventory&#45;service&#45;&gt;SERVICE:order&#45;service</title>
<g id="a_edge10"><a xlink:title="edge#9">
<path fill="none" stroke="black" d="M550.28,-53.37C542.12,-55.12 533.87,-56.85 526,-58.45 471.82,-69.47 452.14,-54.7 403.75,-81.45 396.96,-85.2 369.56,-115.6 349.19,-138.76"/>
<polygon fill="black" stroke="black" points="346.74,-136.24 342.79,-146.07 352.01,-140.85 346.74,-136.24"/>
</a>
</g>
<text text-anchor="middle" x="464.88" y="-86.15" font-family="Times,serif" font-size="14.00">calls (1 ep), 820rpm</text>
</g>
<!-- SERVICE:user&#45;service&#45;&gt;DATABASE:users&#45;db -->
<g id="edge17" class="edge">
<title>SERVICE:user&#45;service&#45;&gt;DATABASE:users&#45;db</title>
<g id="a_edge17"><a xlink:title="edge#16">
<path fill="none" stroke="black" d="M660.79,-279.66C687.53,-283.56 721.81,-289.06 752,-295.45 755.39,-296.17 758.88,-296.96 762.38,-297.79"/>
<polygon fill="black" stroke="black" points="761.49,-301.17 772.04,-300.18 763.17,-294.38 761.49,-301.17"/>
</a>
</g>
<text text-anchor="middle" x="726.88" y="-300.15" font-family="Times,serif" font-size="14.00">READS</text>
</g>
</g>
</svg>
