<?xml version="1.0" encoding="UTF-8" standalone="no"?>
<!DOCTYPE svg PUBLIC "-//W3C//DTD SVG 1.1//EN"
 "http://www.w3.org/Graphics/SVG/1.1/DTD/svg11.dtd">
<!-- Generated by graphviz version 9.0.0 (20230911.1827)
 -->
<!-- Title: G Pages: 1 -->
<svg width="1101pt" height="282pt"
 viewBox="0.00 0.00 1100.75 282.00" xmlns="http://www.w3.org/2000/svg" xmlns:xlink="http://www.w3.org/1999/xlink">
<g id="graph0" class="graph" transform="scale(1 1) rotate(0) translate(4 278)">
<title>G</title>
<polygon fill="white" stroke="none" points="-4,4 -4,-278 1096.75,-278 1096.75,4 -4,4"/>
<text text-anchor="middle" x="546.38" y="-256.7" font-family="Helvetica,sans-Serif" font-size="14.00">Architecture</text>
<!-- SERVICE:restaurants -->
<g id="node1" class="node">
<title>SERVICE:restaurants</title>
<path fill="#eef6ff" stroke="black" d="M76.75,-156C76.75,-156 12,-156 12,-156 6,-156 0,-150 0,-144 0,-144 0,-132 0,-132 0,-126 6,-120 12,-120 12,-120 76.75,-120 76.75,-120 82.75,-120 88.75,-126 88.75,-132 88.75,-132 88.75,-144 88.75,-144 88.75,-150 82.75,-156 76.75,-156"/>
<text text-anchor="middle" x="44.38" y="-133.7" font-family="Times,serif" font-size="14.00">restaurants</text>
</g>
<!-- SERVICE:database -->
<g id="node3" class="node">
<title>SERVICE:database</title>
<path fill="#eef6ff" stroke="black" d="M1080.75,-202C1080.75,-202 1030.25,-202 1030.25,-202 1024.25,-202 1018.25,-196 1018.25,-190 1018.25,-190 1018.25,-178 1018.25,-178 1018.25,-172 1024.25,-166 1030.25,-166 1030.25,-166 1080.75,-166 1080.75,-166 1086.75,-166 1092.75,-172 1092.75,-178 1092.75,-178 1092.75,-190 1092.75,-190 1092.75,-196 1086.75,-202 1080.75,-202"/>
<text text-anchor="middle" x="1055.5" y="-179.7" font-family="Times,serif" font-size="14.00">database</text>
</g>
<!-- SERVICE:restaurants&#45;&gt;SERVICE:database -->
<g id="edge6" class="edge">
<title>SERVICE:restaurants&#45;&gt;SERVICE:database</title>
<g id="a_edge6"><a xlink:title="edge#5">
<path fill="none" stroke="black" d="M75.12,-156.4C121.46,-183.24 214.48,-230 300.38,-230 300.38,-230 300.38,-230 826,-230 889.55,-230 961.13,-212.69 1006.96,-199.3"/>
<polygon fill="black" stroke="black" points="1007.72,-202.73 1016.3,-196.52 1005.72,-196.02 1007.72,-202.73"/>
</a>
</g>
<text text-anchor="middle" x="572.88" y="-234.7" font-family="Times,serif" font-size="14.00">CALLS [rest] (sync)</text>
</g>
<!-- SERVICE:orders -->
<g id="node6" class="node">
<title>SERVICE:orders</title>
<path fill="#eef6ff" stroke="black" d="M318,-156C318,-156 284.75,-156 284.75,-156 278.75,-156 272.75,-150 272.75,-144 272.75,-144 272.75,-132 272.75,-132 272.75,-126 278.75,-120 284.75,-120 284.75,-120 318,-120 318,-120 324,-120 330,-126 330,-132 330,-132 330,-144 330,-144 330,-150 324,-156 318,-156"/>
<text text-anchor="middle" x="301.38" y="-133.7" font-family="Times,serif" font-size="14.00">orders</text>
</g>
<!-- SERVICE:restaurants&#45;&gt;SERVICE:orders -->
<g id="edge8" class="edge">
<title>SERVICE:restaurants&#45;&gt;SERVICE:orders</title>
<g id="a_edge8"><a xlink:title="edge#7">
<path fill="none" stroke="black" d="M89.21,-138C137.55,-138 214.61,-138 261.06,-138"/>
<polygon fill="black" stroke="black" points="260.94,-141.5 270.94,-138 260.94,-134.5 260.94,-141.5"/>
</a>
</g>
<text text-anchor="middle" x="165.62" y="-142.7" font-family="Times,serif" font-size="14.00">CALLS [rest] (sync)</text>
</g>
<!-- SERVICE:payments -->
<g id="node2" class="node">
<title>SERVICE:payments</title>
<path fill="#eef6ff" stroke="black" d="M852.5,-156C852.5,-156 797.5,-156 797.5,-156 791.5,-156 785.5,-150 785.5,-144 785.5,-144 785.5,-132 785.5,-132 785.5,-126 791.5,-120 797.5,-120 797.5,-120 852.5,-120 852.5,-120 858.5,-120 864.5,-126 864.5,-132 864.5,-132 864.5,-144 864.5,-144 864.5,-150 858.5,-156 852.5,-156"/>
<text text-anchor="middle" x="825" y="-133.7" font-family="Times,serif" font-size="14.00">payments</text>
</g>
<!-- SERVICE:payments&#45;&gt;SERVICE:database -->
<g id="edge7" class="edge">
<title>SERVICE:payments&#45;&gt;SERVICE:database</title>
<g id="a_edge7"><a xlink:title="edge#6">
<path fill="none" stroke="black" d="M864.68,-136.19C900.63,-135.65 955.26,-137.76 1000.25,-152 1006.53,-153.99 1012.85,-156.81 1018.86,-159.97"/>
<polygon fill="black" stroke="black" points="1016.86,-162.85 1027.28,-164.75 1020.32,-156.77 1016.86,-162.85"/>
</a>
</g>
<text text-anchor="middle" x="941.38" y="-156.7" font-family="Times,serif" font-size="14.00">CALLS [rest] (sync)</text>
</g>
<!-- SERVICE:user -->
<g id="node4" class="node">
<title>SERVICE:user</title>
<path fill="#eef6ff" stroke="black" d="M316.38,-36C316.38,-36 286.38,-36 286.38,-36 280.38,-36 274.38,-30 274.38,-24 274.38,-24 274.38,-12 274.38,-12 274.38,-6 280.38,0 286.38,0 286.38,0 316.38,0 316.38,0 322.38,0 328.38,-6 328.38,-12 328.38,-12 328.38,-24 328.38,-24 328.38,-30 322.38,-36 316.38,-36"/>
<text text-anchor="middle" x="301.38" y="-13.7" font-family="Times,serif" font-size="14.00">user</text>
</g>
<!-- SERVICE:web page -->
<g id="node5" class="node">
<title>SERVICE:web page</title>
<path fill="#eef6ff" stroke="black" d="M599.62,-96C599.62,-96 546.12,-96 546.12,-96 540.12,-96 534.12,-90 534.12,-84 534.12,-84 534.12,-72 534.12,-72 534.12,-66 540.12,-60 546.12,-60 546.12,-60 599.62,-60 599.62,-60 605.62,-60 611.62,-66 611.62,-72 611.62,-72 611.62,-84 611.62,-84 611.62,-90 605.62,-96 599.62,-96"/>
<text text-anchor="middle" x="572.88" y="-73.7" font-family="Times,serif" font-size="14.00">web page</text>
</g>
<!-- SERVICE:user&#45;&gt;SERVICE:web page -->
<g id="edge1" class="edge">
<title>SERVICE:user&#45;&gt;SERVICE:web page</title>
<g id="a_edge1"><a xlink:title="edge#0">
<path fill="none" stroke="black" d="M328.63,-18.09C366.41,-18.87 437.95,-22.76 496,-40 507.77,-43.5 519.92,-48.75 530.96,-54.23"/>
<polygon fill="black" stroke="black" points="529.31,-57.32 539.8,-58.82 532.54,-51.11 529.31,-57.32"/>
</a>
</g>
<text text-anchor="middle" x="437.12" y="-44.7" font-family="Times,serif" font-size="14.00">CALLS [rest] (sync)</text>
</g>
<!-- SERVICE:web page&#45;&gt;SERVICE:restaurants -->
<g id="edge3" class="edge">
<title>SERVICE:web page&#45;&gt;SERVICE:restaurants</title>
<g id="a_edge3"><a xlink:title="edge#2">
<path fill="none" stroke="black" d="M533.63,-77.46C472.02,-77.09 347.11,-78.47 242.5,-93 193.82,-99.76 139.42,-112.59 100.13,-122.82"/>
<polygon fill="black" stroke="black" points="99.45,-119.38 90.67,-125.31 101.23,-126.15 99.45,-119.38"/>
</a>
</g>
<text text-anchor="middle" x="301.38" y="-97.7" font-family="Times,serif" font-size="14.00">CALLS [rest] (sync)</text>
</g>
<!-- SERVICE:web page&#45;&gt;SERVICE:payments -->
<g id="edge4" class="edge">
<title>SERVICE:web page&#45;&gt;SERVICE:payments</title>
<g id="a_edge4"><a xlink:title="edge#3">
<path fill="none" stroke="black" d="M611.96,-79.35C651.73,-81.71 715.44,-88.2 767.5,-106 773.79,-108.15 780.17,-111.01 786.28,-114.13"/>
<polygon fill="black" stroke="black" points="784.45,-117.11 794.9,-118.83 787.8,-110.97 784.45,-117.11"/>
</a>
</g>
<text text-anchor="middle" x="708.62" y="-110.7" font-family="Times,serif" font-size="14.00">CALLS [rest] (sync)</text>
</g>
<!-- SERVICE:orders&#45;&gt;SERVICE:payments -->
<g id="edge9" class="edge">
<title>SERVICE:orders&#45;&gt;SERVICE:payments</title>
<g id="a_edge9"><a xlink:title="edge#8">
<path fill="none" stroke="black" d="M330.42,-138C414.64,-138 666.18,-138 774.01,-138"/>
<polygon fill="black" stroke="black" points="773.7,-141.5 783.7,-138 773.7,-134.5 773.7,-141.5"/>
</a>
</g>
<text text-anchor="middle" x="572.88" y="-142.7" font-family="Times,serif" font-size="14.00">CALLS [rest] (sync)</text>
</g>
<!-- SERVICE:orders&#45;&gt;SERVICE:database -->
<g id="edge5" class="edge">
<title>SERVICE:orders&#45;&gt;SERVICE:database</title>
<g id="a_edge5"><a xlink:title="edge#4">
<path fill="none" stroke="black" d="M330.35,-144.02C344.62,-146.87 362.29,-150.07 378.25,-152 438.25,-159.27 453.64,-156.88 514,-160 695.71,-169.39 911.91,-178.31 1006.35,-182.1"/>
<polygon fill="black" stroke="black" points="1006.15,-185.59 1016.28,-182.49 1006.43,-178.6 1006.15,-185.59"/>
</a>
</g>
<text text-anchor="middle" x="708.62" y="-175.7" font-family="Times,serif" font-size="14.00">CALLS [rest] (sync)</text>
</g>
<!-- SERVICE:orders&#45;&gt;SERVICE:web page -->
<g id="edge2" class="edge">
<title>SERVICE:orders&#45;&gt;SERVICE:web page</title>
<g id="a_edge2"><a xlink:title="edge#1">
<path fill="none" stroke="black" d="M330.23,-124.23C344.31,-117.8 361.86,-110.56 378.25,-106 426.25,-92.65 482.8,-85.4 522.36,-81.65"/>
<polygon fill="black" stroke="black" points="522.65,-85.14 532.3,-80.75 522.02,-78.17 522.65,-85.14"/>
</a>
</g>
<text text-anchor="middle" x="437.12" y="-110.7" font-family="Times,serif" font-size="14.00">CALLS [rest] (sync)</text>
</g>
</g>
</svg>
