<?xml version="1.0" encoding="UTF-8" standalone="no"?>
<!DOCTYPE svg PUBLIC "-//W3C//DTD SVG 1.1//EN"
 "http://www.w3.org/Graphics/SVG/1.1/DTD/svg11.dtd">
<!-- Generated by graphviz version 9.0.0 (20230911.1827)
 -->
<!-- Title: G Pages: 1 -->
<svg width="1226pt" height="518pt"
 viewBox="0.00 0.00 1225.75 517.62" xmlns="http://www.w3.org/2000/svg" xmlns:xlink="http://www.w3.org/1999/xlink">
<g id="graph0" class="graph" transform="scale(1 1) rotate(0) translate(4 513.62)">
<title>G</title>
<polygon fill="white" stroke="none" points="-4,4 -4,-513.62 1221.75,-513.62 1221.75,4 -4,4"/>
<text text-anchor="middle" x="608.88" y="-492.32" font-family="Helvetica,sans-Serif" font-size="14.00">Architecture</text>
<!-- SERVICE:user&#45;service -->
<g id="node1" class="node">
<title>SERVICE:user&#45;service</title>
<path fill="#eef6ff" stroke="black" d="M624.75,-397.62C624.75,-397.62 555.5,-397.62 555.5,-397.62 549.5,-397.62 543.5,-391.62 543.5,-385.62 543.5,-385.62 543.5,-373.62 543.5,-373.62 543.5,-367.62 549.5,-361.62 555.5,-361.62 555.5,-361.62 624.75,-361.62 624.75,-361.62 630.75,-361.62 636.75,-367.62 636.75,-373.62 636.75,-373.62 636.75,-385.62 636.75,-385.62 636.75,-391.62 630.75,-397.62 624.75,-397.62"/>
<text text-anchor="middle" x="590.12" y="-375.32" font-family="Times,serif" font-size="14.00">user&#45;service</text>
</g>
<!-- DATABASE:users&#45;db -->
<g id="node10" class="node">
<title>DATABASE:users&#45;db</title>
<path fill="#fff3cd" stroke="black" d="M967.75,-424.35C967.75,-426.15 951.56,-427.62 931.62,-427.62 911.69,-427.62 895.5,-426.15 895.5,-424.35 895.5,-424.35 895.5,-394.89 895.5,-394.89 895.5,-393.09 911.69,-391.62 931.62,-391.62 951.56,-391.62 967.75,-393.09 967.75,-394.89 967.75,-394.89 967.75,-424.35 967.75,-424.35"/>
<path fill="none" stroke="black" d="M967.75,-424.35C967.75,-422.54 951.56,-421.07 931.62,-421.07 911.69,-421.07 895.5,-422.54 895.5,-424.35"/>
<text text-anchor="middle" x="931.62" y="-405.32" font-family="Times,serif" font-size="14.00">users&#45;db</text>
</g>
<!-- SERVICE:user&#45;service&#45;&gt;DATABASE:users&#45;db -->
<g id="edge15" class="edge">
<title>SERVICE:user&#45;service&#45;&gt;DATABASE:users&#45;db</title>
<g id="a_edge15"><a xlink:title="edge#14">
<path fill="none" stroke="black" d="M636.91,-383.67C701.62,-389.38 819.18,-399.77 884.23,-405.52"/>
<polygon fill="black" stroke="black" points="883.57,-408.98 893.84,-406.37 884.19,-402 883.57,-408.98"/>
</a>
</g>
<text text-anchor="middle" x="754.5" y="-403.32" font-family="Times,serif" font-size="14.00">READS</text>
</g>
<!-- DATABASE:payments&#45;db -->
<g id="node2" class="node">
<title>DATABASE:payments&#45;db</title>
<path fill="#fff3cd" stroke="black" d="M1217.75,-231.35C1217.75,-233.15 1195,-234.62 1167,-234.62 1139,-234.62 1116.25,-233.15 1116.25,-231.35 1116.25,-231.35 1116.25,-201.89 1116.25,-201.89 1116.25,-200.09 1139,-198.62 1167,-198.62 1195,-198.62 1217.75,-200.09 1217.75,-201.89 1217.75,-201.89 1217.75,-231.35 1217.75,-231.35"/>
<path fill="none" stroke="black" d="M1217.75,-231.35C1217.75,-229.54 1195,-228.07 1167,-228.07 1139,-228.07 1116.25,-229.54 1116.25,-231.35"/>
<text text-anchor="middle" x="1167" y="-212.32" font-family="Times,serif" font-size="14.00">payments&#45;db</text>
</g>
<!-- DATABASE:orders&#45;db_order&#45;service -->
<g id="node3" class="node">
<title>DATABASE:orders&#45;db_order&#45;service</title>
<path fill="#fff3cd" stroke="black" d="M675.75,-340.35C675.75,-342.15 637.37,-343.62 590.12,-343.62 542.88,-343.62 504.5,-342.15 504.5,-340.35 504.5,-340.35 504.5,-310.89 504.5,-310.89 504.5,-309.09 542.88,-307.62 590.12,-307.62 637.37,-307.62 675.75,-309.09 675.75,-310.89 675.75,-310.89 675.75,-340.35 675.75,-340.35"/>
<path fill="none" stroke="black" d="M675.75,-340.35C675.75,-338.54 637.37,-337.07 590.12,-337.07 542.88,-337.07 504.5,-338.54 504.5,-340.35"/>
<text text-anchor="middle" x="590.12" y="-321.32" font-family="Times,serif" font-size="14.00">orders&#45;db_order&#45;service</text>
</g>
<!-- SERVICE:order&#45;service -->
<g id="node4" class="node">
<title>SERVICE:order&#45;service</title>
<path fill="#eef6ff" stroke="black" d="M334.25,-257.62C334.25,-257.62 257.5,-257.62 257.5,-257.62 251.5,-257.62 245.5,-251.62 245.5,-245.62 245.5,-245.62 245.5,-233.62 245.5,-233.62 245.5,-227.62 251.5,-221.62 257.5,-221.62 257.5,-221.62 334.25,-221.62 334.25,-221.62 340.25,-221.62 346.25,-227.62 346.25,-233.62 346.25,-233.62 346.25,-245.62 346.25,-245.62 346.25,-251.62 340.25,-257.62 334.25,-257.62"/>
<text text-anchor="middle" x="295.88" y="-235.32" font-family="Times,serif" font-size="14.00">order&#45;service</text>
</g>
<!-- SERVICE:order&#45;service&#45;&gt;SERVICE:user&#45;service -->
<g id="edge3" class="edge">
<title>SERVICE:order&#45;service&#45;&gt;SERVICE:user&#45;service</title>
<g id="a_edge3"><a xlink:title="edge#2">
<path fill="none" stroke="black" d="M304.57,-258.07C314.8,-280.19 335.05,-316.65 364.25,-335.62 414.49,-368.25 483.43,-377.72 531.69,-379.98"/>
<polygon fill="black" stroke="black" points="531.55,-383.48 541.67,-380.35 531.81,-376.48 531.55,-383.48"/>
</a>
</g>
<text text-anchor="middle" x="425.38" y="-380.32" font-family="Times,serif" font-size="14.00">calls (1 ep), 260rpm</text>
</g>
<!-- SERVICE:order&#45;service&#45;&gt;DATABASE:orders&#45;db_order&#45;service -->
<g id="edge8" class="edge">
<title>SERVICE:order&#45;service&#45;&gt;DATABASE:orders&#45;db_order&#45;service</title>
<g id="a_edge8"><a xlink:title="edge#7">
<path fill="none" stroke="black" d="M320.62,-257.92C333.01,-266.63 348.78,-276.47 364.25,-282.62 404.93,-298.8 452.23,-309.01 492.93,-315.4"/>
<polygon fill="black" stroke="black" points="492.32,-318.85 502.73,-316.88 493.36,-311.93 492.32,-318.85"/>
</a>
</g>
<text text-anchor="middle" x="425.38" y="-318.32" font-family="Times,serif" font-size="14.00">WRITES</text>
</g>
<!-- SERVICE:inventory&#45;service -->
<g id="node5" class="node">
<title>SERVICE:inventory&#45;service</title>
<path fill="#eef6ff" stroke="black" d="M641.25,-289.62C641.25,-289.62 539,-289.62 539,-289.62 533,-289.62 527,-283.62 527,-277.62 527,-277.62 527,-265.62 527,-265.62 527,-259.62 533,-253.62 539,-253.62 539,-253.62 641.25,-253.62 641.25,-253.62 647.25,-253.62 653.25,-259.62 653.25,-265.62 653.25,-265.62 653.25,-277.62 653.25,-277.62 653.25,-283.62 647.25,-289.62 641.25,-289.62"/>
<text text-anchor="middle" x="590.12" y="-267.32" font-family="Times,serif" font-size="14.00">inventory&#45;service</text>
</g>
<!-- SERVICE:order&#45;service&#45;&gt;SERVICE:inventory&#45;service -->
<g id="edge2" class="edge">
<title>SERVICE:order&#45;service&#45;&gt;SERVICE:inventory&#45;service</title>
<g id="a_edge2"><a xlink:title="edge#1">
<path fill="none" stroke="black" d="M346.45,-245.05C392.73,-250.12 462.38,-257.74 515.21,-263.53"/>
<polygon fill="black" stroke="black" points="514.73,-266.99 525.05,-264.6 515.49,-260.04 514.73,-266.99"/>
</a>
</g>
<text text-anchor="middle" x="425.38" y="-265.32" font-family="Times,serif" font-size="14.00">calls (1 ep), 95rpm</text>
</g>
<!-- SERVICE:notification&#45;service -->
<g id="node6" class="node">
<title>SERVICE:notification&#45;service</title>
<path fill="#eef6ff" stroke="black" d="M989.5,-144.62C989.5,-144.62 873.75,-144.62 873.75,-144.62 867.75,-144.62 861.75,-138.62 861.75,-132.62 861.75,-132.62 861.75,-120.62 861.75,-120.62 861.75,-114.62 867.75,-108.62 873.75,-108.62 873.75,-108.62 989.5,-108.62 989.5,-108.62 995.5,-108.62 1001.5,-114.62 1001.5,-120.62 1001.5,-120.62 1001.5,-132.62 1001.5,-132.62 1001.5,-138.62 995.5,-144.62 989.5,-144.62"/>
<text text-anchor="middle" x="931.62" y="-122.32" font-family="Times,serif" font-size="14.00">notification&#45;service</text>
</g>
<!-- SERVICE:order&#45;service&#45;&gt;SERVICE:notification&#45;service -->
<g id="edge5" class="edge">
<title>SERVICE:order&#45;service&#45;&gt;SERVICE:notification&#45;service</title>
<g id="a_edge5"><a xlink:title="edge#4">
<path fill="none" stroke="black" d="M346.47,-227.46C352.45,-226.11 358.48,-224.8 364.25,-223.62 426.21,-210.97 442.11,-209.98 504.5,-199.62 642.5,-176.71 677.58,-174.41 815.25,-149.62 826.6,-147.58 838.55,-145.32 850.29,-143.03"/>
<polygon fill="black" stroke="black" points="850.83,-146.49 859.97,-141.14 849.49,-139.62 850.83,-146.49"/>
</a>
</g>
<text text-anchor="middle" x="590.12" y="-204.32" font-family="Times,serif" font-size="14.00">calls (1 ep), 220rpm</text>
</g>
<!-- SERVICE:search&#45;service -->
<g id="node7" class="node">
<title>SERVICE:search&#45;service</title>
<path fill="#eef6ff" stroke="black" d="M973.75,-50.62C973.75,-50.62 889.5,-50.62 889.5,-50.62 883.5,-50.62 877.5,-44.62 877.5,-38.62 877.5,-38.62 877.5,-26.62 877.5,-26.62 877.5,-20.62 883.5,-14.62 889.5,-14.62 889.5,-14.62 973.75,-14.62 973.75,-14.62 979.75,-14.62 985.75,-20.62 985.75,-26.62 985.75,-26.62 985.75,-38.62 985.75,-38.62 985.75,-44.62 979.75,-50.62 973.75,-50.62"/>
<text text-anchor="middle" x="931.62" y="-28.32" font-family="Times,serif" font-size="14.00">search&#45;service</text>
</g>
<!-- SERVICE:order&#45;service&#45;&gt;SERVICE:search&#45;service -->
<g id="edge6" class="edge">
<title>SERVICE:order&#45;service&#45;&gt;SERVICE:search&#45;service</title>
<g id="a_edge6"><a xlink:title="edge#5">
<path fill="none" stroke="black" d="M300.09,-221.24C306.52,-190.02 323.98,-126.73 364.25,-92.62 507.73,28.92 750.58,3 865.99,-18.37"/>
<polygon fill="black" stroke="black" points="865.12,-21.77 875.6,-20.2 866.43,-14.89 865.12,-21.77"/>
</a>
</g>
<text text-anchor="middle" x="590.12" y="-26.32" font-family="Times,serif" font-size="14.00">calls (1 ep), 180rpm</text>
</g>
<!-- SERVICE:order&#45;service_split -->
<g id="node8" class="node">
<title>SERVICE:order&#45;service_split</title>
<path fill="#eef6ff" stroke="black" d="M645.75,-117.62C645.75,-117.62 534.5,-117.62 534.5,-117.62 528.5,-117.62 522.5,-111.62 522.5,-105.62 522.5,-105.62 522.5,-93.62 522.5,-93.62 522.5,-87.62 528.5,-81.62 534.5,-81.62 534.5,-81.62 645.75,-81.62 645.75,-81.62 651.75,-81.62 657.75,-87.62 657.75,-93.62 657.75,-93.62 657.75,-105.62 657.75,-105.62 657.75,-111.62 651.75,-117.62 645.75,-117.62"/>
<text text-anchor="middle" x="590.12" y="-95.32" font-family="Times,serif" font-size="14.00">order&#45;service_split</text>
</g>
<!-- SERVICE:order&#45;service&#45;&gt;SERVICE:order&#45;service_split -->
<g id="edge4" class="edge">
<title>SERVICE:order&#45;service&#45;&gt;SERVICE:order&#45;service_split</title>
<g id="a_edge4"><a xlink:title="edge#3">
<path fill="none" stroke="black" d="M302.8,-221.21C311.81,-196.42 331.47,-152.96 364.25,-131.62 407.28,-103.6 464.72,-95.81 510.77,-94.91"/>
<polygon fill="black" stroke="black" points="510.73,-98.41 520.71,-94.84 510.68,-91.41 510.73,-98.41"/>
</a>
</g>
<text text-anchor="middle" x="425.38" y="-136.32" font-family="Times,serif" font-size="14.00">calls (1 ep), 30rpm</text>
</g>
<!-- SERVICE:order&#45;service&#45;&gt;DATABASE:users&#45;db -->
<g id="edge7" class="edge">
<title>SERVICE:order&#45;service&#45;&gt;DATABASE:users&#45;db</title>
<g id="a_edge7"><a xlink:title="edge#6">
<path fill="none" stroke="black" d="M298.65,-258.09C303.01,-292.18 317.56,-364.48 364.25,-397.62 524.83,-511.58 780.64,-454.63 884.52,-424.4"/>
<polygon fill="black" stroke="black" points="885.22,-427.84 893.81,-421.64 883.23,-421.13 885.22,-427.84"/>
</a>
</g>
<text text-anchor="middle" x="590.12" y="-470.32" font-family="Times,serif" font-size="14.00">READS</text>
</g>
<!-- DATABASE:orders&#45;db -->
<g id="node9" class="node">
<title>DATABASE:orders&#45;db</title>
<path fill="#fff3cd" stroke="black" d="M971.5,-306.35C971.5,-308.15 953.63,-309.62 931.62,-309.62 909.62,-309.62 891.75,-308.15 891.75,-306.35 891.75,-306.35 891.75,-276.89 891.75,-276.89 891.75,-275.09 909.62,-273.62 931.62,-273.62 953.63,-273.62 971.5,-275.09 971.5,-276.89 971.5,-276.89 971.5,-306.35 971.5,-306.35"/>
<path fill="none" stroke="black" d="M971.5,-306.35C971.5,-304.54 953.63,-303.07 931.62,-303.07 909.62,-303.07 891.75,-304.54 891.75,-306.35"/>
<text text-anchor="middle" x="931.62" y="-287.32" font-family="Times,serif" font-size="14.00">orders&#45;db</text>
</g>
<!-- SERVICE:inventory&#45;service&#45;&gt;DATABASE:orders&#45;db -->
<g id="edge10" class="edge">
<title>SERVICE:inventory&#45;service&#45;&gt;DATABASE:orders&#45;db</title>
<g id="a_edge10"><a xlink:title="edge#9">
<path fill="none" stroke="black" d="M653.39,-275.29C718.68,-279.13 819.98,-285.1 880.37,-288.66"/>
<polygon fill="black" stroke="black" points="879.81,-292.13 890,-289.23 880.22,-285.14 879.81,-292.13"/>
</a>
</g>
<text text-anchor="middle" x="754.5" y="-289.32" font-family="Times,serif" font-size="14.00">READS</text>
</g>
<!-- DATABASE:orders&#45;db_inventory&#45;service -->
<g id="node11" class="node">
<title>DATABASE:orders&#45;db_inventory&#45;service</title>
<path fill="#fff3cd" stroke="black" d="M1030,-360.35C1030,-362.15 985.91,-363.62 931.62,-363.62 877.34,-363.62 833.25,-362.15 833.25,-360.35 833.25,-360.35 833.25,-330.89 833.25,-330.89 833.25,-329.09 877.34,-327.62 931.62,-327.62 985.91,-327.62 1030,-329.09 1030,-330.89 1030,-330.89 1030,-360.35 1030,-360.35"/>
<path fill="none" stroke="black" d="M1030,-360.35C1030,-358.54 985.91,-357.07 931.62,-357.07 877.34,-357.07 833.25,-358.54 833.25,-360.35"/>
<text text-anchor="middle" x="931.62" y="-341.32" font-family="Times,serif" font-size="14.00">orders&#45;db_inventory&#45;service</text>
</g>
<!-- SERVICE:inventory&#45;service&#45;&gt;DATABASE:orders&#45;db_inventory&#45;service -->
<g id="edge11" class="edge">
<title>SERVICE:inventory&#45;service&#45;&gt;DATABASE:orders&#45;db_inventory&#45;service</title>
<g id="a_edge11"><a xlink:title="edge#10">
<path fill="none" stroke="black" d="M651.5,-289.99C659.7,-292.75 667.97,-295.66 675.75,-298.62 683.93,-301.73 685.36,-304.11 693.75,-306.62 734.72,-318.88 780.9,-327.57 821.53,-333.6"/>
<polygon fill="black" stroke="black" points="820.94,-337.05 831.34,-335.01 821.94,-330.12 820.94,-337.05"/>
</a>
</g>
<text text-anchor="middle" x="754.5" y="-337.32" font-family="Times,serif" font-size="14.00">WRITES</text>
</g>
<!-- SERVICE:billing&#45;service -->
<g id="node13" class="node">
<title>SERVICE:billing&#45;service</title>
<path fill="#eef6ff" stroke="black" d="M972.62,-235.62C972.62,-235.62 890.62,-235.62 890.62,-235.62 884.62,-235.62 878.62,-229.62 878.62,-223.62 878.62,-223.62 878.62,-211.62 878.62,-211.62 878.62,-205.62 884.62,-199.62 890.62,-199.62 890.62,-199.62 972.62,-199.62 972.62,-199.62 978.62,-199.62 984.62,-205.62 984.62,-211.62 984.62,-211.62 984.62,-223.62 984.62,-223.62 984.62,-229.62 978.62,-235.62 972.62,-235.62"/>
<text text-anchor="middle" x="931.62" y="-213.32" font-family="Times,serif" font-size="14.00">billing&#45;service</text>
</g>
<!-- SERVICE:inventory&#45;service&#45;&gt;SERVICE:billing&#45;service -->
<g id="edge9" class="edge">
<title>SERVICE:inventory&#45;service&#45;&gt;SERVICE:billing&#45;service</title>
<g id="a_edge9"><a xlink:title="edge#8">
<path fill="none" stroke="black" d="M653.39,-261.72C714.13,-252.06 806.04,-237.44 867.17,-227.71"/>
<polygon fill="black" stroke="black" points="867.39,-231.22 876.72,-226.19 866.29,-224.31 867.39,-231.22"/>
</a>
</g>
<text text-anchor="middle" x="754.5" y="-259.32" font-family="Times,serif" font-size="14.00">calls (1 ep), 32rpm</text>
</g>
<!-- SERVICE:order&#45;service_split&#45;&gt;SERVICE:notification&#45;service -->
<g id="edge17" class="edge">
<title>SERVICE:order&#45;service_split&#45;&gt;SERVICE:notification&#45;service</title>
<g id="a_edge17"><a xlink:title="edge#16">
<path fill="none" stroke="black" d="M658.18,-90.28C702.91,-85.68 762.89,-82.64 815.25,-90.62 834.06,-93.49 854.02,-98.84 871.96,-104.56"/>
<polygon fill="black" stroke="black" points="870.8,-107.86 881.4,-107.67 873,-101.21 870.8,-107.86"/>
</a>
</g>
<text text-anchor="middle" x="754.5" y="-95.32" font-family="Times,serif" font-size="14.00">calls (1 ep), 220rpm</text>
</g>
<!-- SERVICE:order&#45;service_split&#45;&gt;SERVICE:search&#45;service -->
<g id="edge18" class="edge">
<title>SERVICE:order&#45;service_split&#45;&gt;SERVICE:search&#45;service</title>
<g id="a_edge18"><a xlink:title="edge#17">
<path fill="none" stroke="black" d="M638.85,-81.19C655.96,-75.16 675.52,-68.92 693.75,-64.62 751.34,-51.05 818.25,-42.67 866.24,-37.91"/>
<polygon fill="black" stroke="black" points="866.28,-41.42 875.9,-36.97 865.61,-34.45 866.28,-41.42"/>
</a>
</g>
<text text-anchor="middle" x="754.5" y="-69.32" font-family="Times,serif" font-size="14.00">calls (1 ep), 180rpm</text>
</g>
<!-- SERVICE:order&#45;service_split&#45;&gt;SERVICE:billing&#45;service -->
<g id="edge16" class="edge">
<title>SERVICE:order&#45;service_split&#45;&gt;SERVICE:billing&#45;service</title>
<g id="a_edge16"><a xlink:title="edge#15">
<path fill="none" stroke="black" d="M644.17,-118.06C704.55,-139.04 803.12,-173.3 867.43,-195.65"/>
<polygon fill="black" stroke="black" points="866.2,-198.93 876.8,-198.91 868.5,-192.32 866.2,-198.93"/>
</a>
</g>
<text text-anchor="middle" x="754.5" y="-181.32" font-family="Times,serif" font-size="14.00">calls (1 ep), 36rpm</text>
</g>
<!-- SERVICE:api&#45;gateway -->
<g id="node12" class="node">
<title>SERVICE:api&#45;gateway</title>
<path fill="#eef6ff" stroke="black" d="M83.5,-257.62C83.5,-257.62 12,-257.62 12,-257.62 6,-257.62 0,-251.62 0,-245.62 0,-245.62 0,-233.62 0,-233.62 0,-227.62 6,-221.62 12,-221.62 12,-221.62 83.5,-221.62 83.5,-221.62 89.5,-221.62 95.5,-227.62 95.5,-233.62 95.5,-233.62 95.5,-245.62 95.5,-245.62 95.5,-251.62 89.5,-257.62 83.5,-257.62"/>
<text text-anchor="middle" x="47.75" y="-235.32" font-family="Times,serif" font-size="14.00">api&#45;gateway</text>
</g>
<!-- SERVICE:api&#45;gateway&#45;&gt;SERVICE:order&#45;service -->
<g id="edge1" class="edge">
<title>SERVICE:api&#45;gateway&#45;&gt;SERVICE:order&#45;service</title>
<g id="a_edge1"><a xlink:title="edge#0">
<path fill="none" stroke="black" d="M95.91,-239.62C135.17,-239.62 191.32,-239.62 233.97,-239.62"/>
<polygon fill="black" stroke="black" points="233.82,-243.12 243.82,-239.62 233.82,-236.12 233.82,-243.12"/>
</a>
</g>
<text text-anchor="middle" x="170.5" y="-244.32" font-family="Times,serif" font-size="14.00">calls (1 ep), 30rpm</text>
</g>
<!-- SERVICE:billing&#45;service&#45;&gt;DATABASE:payments&#45;db -->
<g id="edge13" class="edge">
<title>SERVICE:billing&#45;service&#45;&gt;DATABASE:payments&#45;db</title>
<g id="a_edge13"><a xlink:title="edge#12">
<path fill="none" stroke="black" d="M985,-217.4C1020.44,-217.24 1067.39,-217.04 1104.59,-216.88"/>
<polygon fill="black" stroke="black" points="1104.3,-220.38 1114.29,-216.84 1104.27,-213.38 1104.3,-220.38"/>
</a>
</g>
<text text-anchor="middle" x="1073.12" y="-222.32" font-family="Times,serif" font-size="14.00">READS</text>
</g>
<!-- SERVICE:billing&#45;service&#45;&gt;DATABASE:payments&#45;db -->
<g id="edge14" class="edge">
<title>SERVICE:billing&#45;service&#45;&gt;DATABASE:payments&#45;db</title>
<g id="a_edge14"><a xlink:title="edge#13">
<path fill="none" stroke="black" d="M984.91,-203.1C1017.54,-195.92 1060.39,-189.89 1098.25,-195.62 1100.87,-196.02 1103.53,-196.5 1106.2,-197.04"/>
<polygon fill="black" stroke="black" points="1105.18,-200.4 1115.72,-199.25 1106.77,-193.58 1105.18,-200.4"/>
</a>
</g>
<text text-anchor="middle" x="1073.12" y="-200.32" font-family="Times,serif" font-size="14.00">WRITES</text>
</g>
<!-- SERVICE:billing&#45;service&#45;&gt;SERVICE:order&#45;service -->
<g id="edge12" class="edge">
<title>SERVICE:billing&#45;service&#45;&gt;SERVICE:order&#45;service</title>
<g id="a_edge12"><a xlink:title="edge#11">
<path fill="none" stroke="black" d="M878.45,-218.03C798.1,-218.81 639.24,-220.98 504.5,-226.62 455.02,-228.69 398.99,-232.27 357.61,-235.15"/>
<polygon fill="black" stroke="black" points="357.59,-231.65 347.86,-235.84 358.08,-238.63 357.59,-231.65"/>
</a>
</g>
<text text-anchor="middle" x="590.12" y="-231.32" font-family="Times,serif" font-size="14.00">calls (1 ep), 260rpm</text>
</g>
</g>
</svg>
