<?xml version="1.0" encoding="UTF-8" standalone="no"?>
<!DOCTYPE svg PUBLIC "-//W3C//DTD SVG 1.1//EN"
 "http://www.w3.org/Graphics/SVG/1.1/DTD/svg11.dtd">
<!-- Generated by graphviz version 9.0.0 (20230911.1827)
 -->
<!-- Title: G Pages: 1 -->
<svg width="1424pt" height="414pt"
 viewBox="0.00 0.00 1424.00 414.00" xmlns="http://www.w3.org/2000/svg" xmlns:xlink="http://www.w3.org/1999/xlink">
<g id="graph0" class="graph" transform="scale(1 1) rotate(0) translate(4 410)">
<title>G</title>
<polygon fill="white" stroke="none" points="-4,4 -4,-410 1420,-410 1420,4 -4,4"/>
<text text-anchor="middle" x="708" y="-388.7" font-family="Helvetica,sans-Serif" font-size="14.00">Architecture</text>
<!-- SERVICE:emailer -->
<g id="node1" class="node">
<title>SERVICE:emailer</title>
<path fill="#eef6ff" stroke="black" d="M568.12,-191C568.12,-191 528.12,-191 528.12,-191 522.12,-191 516.12,-185 516.12,-179 516.12,-179 516.12,-167 516.12,-167 516.12,-161 522.12,-155 528.12,-155 528.12,-155 568.12,-155 568.12,-155 574.12,-155 580.12,-161 580.12,-167 580.12,-167 580.12,-179 580.12,-179 580.12,-185 574.12,-191 568.12,-191"/>
<text text-anchor="middle" x="548.12" y="-168.7" font-family="Times,serif" font-size="14.00">emailer</text>
</g>
<!-- SERVICE:preferences -->
<g id="node2" class="node">
<title>SERVICE:preferences</title>
<path fill="#eef6ff" stroke="black" d="M89.5,-326C89.5,-326 22.5,-326 22.5,-326 16.5,-326 10.5,-320 10.5,-314 10.5,-314 10.5,-302 10.5,-302 10.5,-296 16.5,-290 22.5,-290 22.5,-290 89.5,-290 89.5,-290 95.5,-290 101.5,-296 101.5,-302 101.5,-302 101.5,-314 101.5,-314 101.5,-320 95.5,-326 89.5,-326"/>
<text text-anchor="middle" x="56" y="-303.7" font-family="Times,serif" font-size="14.00">preferences</text>
</g>
<!-- DATABASE:user&#45;db -->
<g id="node14" class="node">
<title>DATABASE:user&#45;db</title>
<path fill="#fff3cd" stroke="black" d="M333.88,-268.73C333.88,-270.53 319.2,-272 301.12,-272 283.05,-272 268.38,-270.53 268.38,-268.73 268.38,-268.73 268.38,-239.27 268.38,-239.27 268.38,-237.47 283.05,-236 301.12,-236 319.2,-236 333.88,-237.47 333.88,-239.27 333.88,-239.27 333.88,-268.73 333.88,-268.73"/>
<path fill="none" stroke="black" d="M333.88,-268.73C333.88,-266.92 319.2,-265.45 301.12,-265.45 283.05,-265.45 268.38,-266.92 268.38,-268.73"/>
<text text-anchor="middle" x="301.12" y="-249.7" font-family="Times,serif" font-size="14.00">user&#45;db</text>
</g>
<!-- SERVICE:preferences&#45;&gt;DATABASE:user&#45;db -->
<g id="edge12" class="edge">
<title>SERVICE:preferences&#45;&gt;DATABASE:user&#45;db</title>
<g id="a_edge12"><a xlink:title="edge#11">
<path fill="none" stroke="black" d="M101.98,-303.43C141.05,-298.76 198.89,-290.15 247.75,-276 251.01,-275.06 254.34,-273.97 257.66,-272.79"/>
<polygon fill="black" stroke="black" points="258.62,-276.17 266.72,-269.35 256.13,-269.63 258.62,-276.17"/>
</a>
</g>
<text text-anchor="middle" x="188.88" y="-303.7" font-family="Times,serif" font-size="14.00">CALLS [rest] (sync)</text>
</g>
<!-- SERVICE:ops&#45;hub_split_split -->
<g id="node3" class="node">
<title>SERVICE:ops&#45;hub_split_split</title>
<path fill="#eef6ff" stroke="black" d="M1143.5,-90C1143.5,-90 1029.25,-90 1029.25,-90 1023.25,-90 1017.25,-84 1017.25,-78 1017.25,-78 1017.25,-66 1017.25,-66 1017.25,-60 1023.25,-54 1029.25,-54 1029.25,-54 1143.5,-54 1143.5,-54 1149.5,-54 1155.5,-60 1155.5,-66 1155.5,-66 1155.5,-78 1155.5,-78 1155.5,-84 1149.5,-90 1143.5,-90"/>
<text text-anchor="middle" x="1086.38" y="-67.7" font-family="Times,serif" font-size="14.00">ops&#45;hub_split_split</text>
</g>
<!-- SERVICE:metrics&#45;agent -->
<g id="node9" class="node">
<title>SERVICE:metrics&#45;agent</title>
<path fill="#eef6ff" stroke="black" d="M1404,-117C1404,-117 1321.25,-117 1321.25,-117 1315.25,-117 1309.25,-111 1309.25,-105 1309.25,-105 1309.25,-93 1309.25,-93 1309.25,-87 1315.25,-81 1321.25,-81 1321.25,-81 1404,-81 1404,-81 1410,-81 1416,-87 1416,-93 1416,-93 1416,-105 1416,-105 1416,-111 1410,-117 1404,-117"/>
<text text-anchor="middle" x="1362.62" y="-94.7" font-family="Times,serif" font-size="14.00">metrics&#45;agent</text>
</g>
<!-- SERVICE:ops&#45;hub_split_split&#45;&gt;SERVICE:metrics&#45;agent -->
<g id="edge9" class="edge">
<title>SERVICE:ops&#45;hub_split_split&#45;&gt;SERVICE:metrics&#45;agent</title>
<g id="a_edge9"><a xlink:title="edge#8">
<path fill="none" stroke="black" d="M1155.87,-78.74C1199.33,-83.02 1255.17,-88.52 1297.71,-92.71"/>
<polygon fill="black" stroke="black" points="1297.25,-96.18 1307.55,-93.68 1297.94,-89.21 1297.25,-96.18"/>
</a>
</g>
<text text-anchor="middle" x="1232.38" y="-96.7" font-family="Times,serif" font-size="14.00">CALLS [rest] (sync)</text>
</g>
<!-- SERVICE:report&#45;export -->
<g id="node10" class="node">
<title>SERVICE:report&#45;export</title>
<path fill="#eef6ff" stroke="black" d="M1402.12,-63C1402.12,-63 1323.12,-63 1323.12,-63 1317.12,-63 1311.12,-57 1311.12,-51 1311.12,-51 1311.12,-39 1311.12,-39 1311.12,-33 1317.12,-27 1323.12,-27 1323.12,-27 1402.12,-27 1402.12,-27 1408.12,-27 1414.12,-33 1414.12,-39 1414.12,-39 1414.12,-51 1414.12,-51 1414.12,-57 1408.12,-63 1402.12,-63"/>
<text text-anchor="middle" x="1362.62" y="-40.7" font-family="Times,serif" font-size="14.00">report&#45;export</text>
</g>
<!-- SERVICE:ops&#45;hub_split_split&#45;&gt;SERVICE:report&#45;export -->
<g id="edge10" class="edge">
<title>SERVICE:ops&#45;hub_split_split&#45;&gt;SERVICE:report&#45;export</title>
<g id="a_edge10"><a xlink:title="edge#9">
<path fill="none" stroke="black" d="M1155.95,-61.17C1161.88,-60.38 1167.79,-59.64 1173.5,-59 1215.53,-54.27 1263.03,-50.75 1299.78,-48.42"/>
<polygon fill="black" stroke="black" points="1299.55,-51.94 1309.32,-47.83 1299.12,-44.96 1299.55,-51.94"/>
</a>
</g>
<text text-anchor="middle" x="1232.38" y="-63.7" font-family="Times,serif" font-size="14.00">CALLS [rest] (sync)</text>
</g>
<!-- SERVICE:pricing -->
<g id="node4" class="node">
<title>SERVICE:pricing</title>
<path fill="#eef6ff" stroke="black" d="M74.12,-380C74.12,-380 37.88,-380 37.88,-380 31.88,-380 25.88,-374 25.88,-368 25.88,-368 25.88,-356 25.88,-356 25.88,-350 31.88,-344 37.88,-344 37.88,-344 74.12,-344 74.12,-344 80.12,-344 86.12,-350 86.12,-356 86.12,-356 86.12,-368 86.12,-368 86.12,-374 80.12,-380 74.12,-380"/>
<text text-anchor="middle" x="56" y="-357.7" font-family="Times,serif" font-size="14.00">pricing</text>
</g>
<!-- SERVICE:discount -->
<g id="node11" class="node">
<title>SERVICE:discount</title>
<path fill="#eef6ff" stroke="black" d="M324.5,-380C324.5,-380 277.75,-380 277.75,-380 271.75,-380 265.75,-374 265.75,-368 265.75,-368 265.75,-356 265.75,-356 265.75,-350 271.75,-344 277.75,-344 277.75,-344 324.5,-344 324.5,-344 330.5,-344 336.5,-350 336.5,-356 336.5,-356 336.5,-368 336.5,-368 336.5,-374 330.5,-380 324.5,-380"/>
<text text-anchor="middle" x="301.12" y="-357.7" font-family="Times,serif" font-size="14.00">discount</text>
</g>
<!-- SERVICE:pricing&#45;&gt;SERVICE:discount -->
<g id="edge1" class="edge">
<title>SERVICE:pricing&#45;&gt;SERVICE:discount</title>
<g id="a_edge1"><a xlink:title="edge#0">
<path fill="none" stroke="black" d="M86.33,-362C128.07,-362 205.01,-362 254.31,-362"/>
<polygon fill="black" stroke="black" points="254.09,-365.5 264.09,-362 254.09,-358.5 254.09,-365.5"/>
</a>
</g>
<text text-anchor="middle" x="188.88" y="-366.7" font-family="Times,serif" font-size="14.00">CALLS [rest] (sync)</text>
</g>
<!-- SERVICE:audit&#45;log -->
<g id="node5" class="node">
<title>SERVICE:audit&#45;log</title>
<path fill="#eef6ff" stroke="black" d="M836.88,-110C836.88,-110 786.38,-110 786.38,-110 780.38,-110 774.38,-104 774.38,-98 774.38,-98 774.38,-86 774.38,-86 774.38,-80 780.38,-74 786.38,-74 786.38,-74 836.88,-74 836.88,-74 842.88,-74 848.88,-80 848.88,-86 848.88,-86 848.88,-98 848.88,-98 848.88,-104 842.88,-110 836.88,-110"/>
<text text-anchor="middle" x="811.62" y="-87.7" font-family="Times,serif" font-size="14.00">audit&#45;log</text>
</g>
<!-- SERVICE:user&#45;profile -->
<g id="node6" class="node">
<title>SERVICE:user&#45;profile</title>
<path fill="#eef6ff" stroke="black" d="M89.12,-272C89.12,-272 22.88,-272 22.88,-272 16.88,-272 10.88,-266 10.88,-260 10.88,-260 10.88,-248 10.88,-248 10.88,-242 16.88,-236 22.88,-236 22.88,-236 89.12,-236 89.12,-236 95.12,-236 101.12,-242 101.12,-248 101.12,-248 101.12,-260 101.12,-260 101.12,-266 95.12,-272 89.12,-272"/>
<text text-anchor="middle" x="56" y="-249.7" font-family="Times,serif" font-size="14.00">user&#45;profile</text>
</g>
<!-- SERVICE:user&#45;profile&#45;&gt;DATABASE:user&#45;db -->
<g id="edge11" class="edge">
<title>SERVICE:user&#45;profile&#45;&gt;DATABASE:user&#45;db</title>
<g id="a_edge11"><a xlink:title="edge#10">
<path fill="none" stroke="black" d="M101.59,-254C145.79,-254 213.06,-254 256.81,-254"/>
<polygon fill="black" stroke="black" points="256.7,-257.5 266.7,-254 256.7,-250.5 256.7,-257.5"/>
</a>
</g>
<text text-anchor="middle" x="188.88" y="-258.7" font-family="Times,serif" font-size="14.00">CALLS [rest] (sync)</text>
</g>
<!-- SERVICE:sms&#45;gateway -->
<g id="node7" class="node">
<title>SERVICE:sms&#45;gateway</title>
<path fill="#eef6ff" stroke="black" d="M587.25,-137C587.25,-137 509,-137 509,-137 503,-137 497,-131 497,-125 497,-125 497,-113 497,-113 497,-107 503,-101 509,-101 509,-101 587.25,-101 587.25,-101 593.25,-101 599.25,-107 599.25,-113 599.25,-113 599.25,-125 599.25,-125 599.25,-131 593.25,-137 587.25,-137"/>
<text text-anchor="middle" x="548.12" y="-114.7" font-family="Times,serif" font-size="14.00">sms&#45;gateway</text>
</g>
<!-- SERVICE:cache&#45;proxy -->
<g id="node8" class="node">
<title>SERVICE:cache&#45;proxy</title>
<path fill="#eef6ff" stroke="black" d="M1121.38,-36C1121.38,-36 1051.38,-36 1051.38,-36 1045.38,-36 1039.38,-30 1039.38,-24 1039.38,-24 1039.38,-12 1039.38,-12 1039.38,-6 1045.38,0 1051.38,0 1051.38,0 1121.38,0 1121.38,0 1127.38,0 1133.38,-6 1133.38,-12 1133.38,-12 1133.38,-24 1133.38,-24 1133.38,-30 1127.38,-36 1121.38,-36"/>
<text text-anchor="middle" x="1086.38" y="-13.7" font-family="Times,serif" font-size="14.00">cache&#45;proxy</text>
</g>
<!-- SERVICE:tax -->
<g id="node17" class="node">
<title>SERVICE:tax</title>
<path fill="#eef6ff" stroke="black" d="M563.12,-380C563.12,-380 533.12,-380 533.12,-380 527.12,-380 521.12,-374 521.12,-368 521.12,-368 521.12,-356 521.12,-356 521.12,-350 527.12,-344 533.12,-344 533.12,-344 563.12,-344 563.12,-344 569.12,-344 575.12,-350 575.12,-356 575.12,-356 575.12,-368 575.12,-368 575.12,-374 569.12,-380 563.12,-380"/>
<text text-anchor="middle" x="548.12" y="-357.7" font-family="Times,serif" font-size="14.00">tax</text>
</g>
<!-- SERVICE:discount&#45;&gt;SERVICE:tax -->
<g id="edge2" class="edge">
<title>SERVICE:discount&#45;&gt;SERVICE:tax</title>
<g id="a_edge2"><a xlink:title="edge#1">
<path fill="none" stroke="black" d="M336.97,-362C382.54,-362 462.11,-362 509.17,-362"/>
<polygon fill="black" stroke="black" points="509.16,-365.5 519.16,-362 509.16,-358.5 509.16,-365.5"/>
</a>
</g>
<text text-anchor="middle" x="413.38" y="-366.7" font-family="Times,serif" font-size="14.00">CALLS [rest] (sync)</text>
</g>
<!-- SERVICE:admin&#45;console -->
<g id="node12" class="node">
<title>SERVICE:admin&#45;console</title>
<path fill="#eef6ff" stroke="black" d="M100,-164C100,-164 12,-164 12,-164 6,-164 0,-158 0,-152 0,-152 0,-140 0,-140 0,-134 6,-128 12,-128 12,-128 100,-128 100,-128 106,-128 112,-134 112,-140 112,-140 112,-152 112,-152 112,-158 106,-164 100,-164"/>
<text text-anchor="middle" x="56" y="-141.7" font-family="Times,serif" font-size="14.00">admin&#45;console</text>
</g>
<!-- SERVICE:ops&#45;hub -->
<g id="node19" class="node">
<title>SERVICE:ops&#45;hub</title>
<path fill="#eef6ff" stroke="black" d="M323.75,-137C323.75,-137 278.5,-137 278.5,-137 272.5,-137 266.5,-131 266.5,-125 266.5,-125 266.5,-113 266.5,-113 266.5,-107 272.5,-101 278.5,-101 278.5,-101 323.75,-101 323.75,-101 329.75,-101 335.75,-107 335.75,-113 335.75,-113 335.75,-125 335.75,-125 335.75,-131 329.75,-137 323.75,-137"/>
<text text-anchor="middle" x="301.12" y="-114.7" font-family="Times,serif" font-size="14.00">ops&#45;hub</text>
</g>
<!-- SERVICE:admin&#45;console&#45;&gt;SERVICE:ops&#45;hub -->
<g id="edge4" class="edge">
<title>SERVICE:admin&#45;console&#45;&gt;SERVICE:ops&#45;hub</title>
<g id="a_edge4"><a xlink:title="edge#3">
<path fill="none" stroke="black" d="M112.47,-139.84C155.59,-135.05 214.64,-128.49 254.91,-124.02"/>
<polygon fill="black" stroke="black" points="255.19,-127.51 264.75,-122.93 254.42,-120.55 255.19,-127.51"/>
</a>
</g>
<text text-anchor="middle" x="188.88" y="-142.7" font-family="Times,serif" font-size="14.00">CALLS [rest] (sync)</text>
</g>
<!-- SERVICE:notifications -->
<g id="node13" class="node">
<title>SERVICE:notifications</title>
<path fill="#eef6ff" stroke="black" d="M92.12,-218C92.12,-218 19.88,-218 19.88,-218 13.88,-218 7.88,-212 7.88,-206 7.88,-206 7.88,-194 7.88,-194 7.88,-188 13.88,-182 19.88,-182 19.88,-182 92.12,-182 92.12,-182 98.12,-182 104.12,-188 104.12,-194 104.12,-194 104.12,-206 104.12,-206 104.12,-212 98.12,-218 92.12,-218"/>
<text text-anchor="middle" x="56" y="-195.7" font-family="Times,serif" font-size="14.00">notifications</text>
</g>
<!-- SERVICE:notifications&#45;&gt;DATABASE:user&#45;db -->
<g id="edge13" class="edge">
<title>SERVICE:notifications&#45;&gt;DATABASE:user&#45;db</title>
<g id="a_edge13"><a xlink:title="edge#12">
<path fill="none" stroke="black" d="M104.32,-204.85C143.34,-209.58 199.85,-218.13 247.75,-232 251.01,-232.94 254.34,-234.03 257.66,-235.21"/>
<polygon fill="black" stroke="black" points="256.13,-238.37 266.72,-238.65 258.62,-231.83 256.13,-238.37"/>
</a>
</g>
<text text-anchor="middle" x="188.88" y="-236.7" font-family="Times,serif" font-size="14.00">CALLS [rest] (sync)</text>
</g>
<!-- SERVICE:ops&#45;hub_split -->
<g id="node15" class="node">
<title>SERVICE:ops&#45;hub_split</title>
<path fill="#eef6ff" stroke="black" d="M851.5,-56C851.5,-56 771.75,-56 771.75,-56 765.75,-56 759.75,-50 759.75,-44 759.75,-44 759.75,-32 759.75,-32 759.75,-26 765.75,-20 771.75,-20 771.75,-20 851.5,-20 851.5,-20 857.5,-20 863.5,-26 863.5,-32 863.5,-32 863.5,-44 863.5,-44 863.5,-50 857.5,-56 851.5,-56"/>
<text text-anchor="middle" x="811.62" y="-33.7" font-family="Times,serif" font-size="14.00">ops&#45;hub_split</text>
</g>
<!-- SERVICE:ops&#45;hub_split&#45;&gt;SERVICE:ops&#45;hub_split_split -->
<g id="edge16" class="edge">
<title>SERVICE:ops&#45;hub_split&#45;&gt;SERVICE:ops&#45;hub_split_split</title>
<g id="a_edge16"><a xlink:title="edge#15">
<path fill="none" stroke="black" d="M863.93,-44.4C903.76,-49.36 959.71,-56.34 1005.41,-62.03"/>
<polygon fill="black" stroke="black" points="1004.93,-65.5 1015.29,-63.26 1005.8,-58.55 1004.93,-65.5"/>
</a>
</g>
<text text-anchor="middle" x="940.38" y="-66.7" font-family="Times,serif" font-size="14.00">CALLS [rest] (sync)</text>
</g>
<!-- SERVICE:ops&#45;hub_split&#45;&gt;SERVICE:cache&#45;proxy -->
<g id="edge8" class="edge">
<title>SERVICE:ops&#45;hub_split&#45;&gt;SERVICE:cache&#45;proxy</title>
<g id="a_edge8"><a xlink:title="edge#7">
<path fill="none" stroke="black" d="M863.65,-27.47C869.64,-26.5 875.69,-25.64 881.5,-25 930.62,-19.55 986.77,-17.96 1027.69,-17.65"/>
<polygon fill="black" stroke="black" points="1027.58,-21.15 1037.56,-17.6 1027.55,-14.15 1027.58,-21.15"/>
</a>
</g>
<text text-anchor="middle" x="940.38" y="-29.7" font-family="Times,serif" font-size="14.00">CALLS [rest] (sync)</text>
</g>
<!-- SERVICE:ops&#45;hub_split&#45;1 -->
<g id="node16" class="node">
<title>SERVICE:ops&#45;hub_split&#45;1</title>
<path fill="#eef6ff" stroke="black" d="M594,-83C594,-83 502.25,-83 502.25,-83 496.25,-83 490.25,-77 490.25,-71 490.25,-71 490.25,-59 490.25,-59 490.25,-53 496.25,-47 502.25,-47 502.25,-47 594,-47 594,-47 600,-47 606,-53 606,-59 606,-59 606,-71 606,-71 606,-77 600,-83 594,-83"/>
<text text-anchor="middle" x="548.12" y="-60.7" font-family="Times,serif" font-size="14.00">ops&#45;hub_split&#45;1</text>
</g>
<!-- SERVICE:ops&#45;hub_split&#45;1&#45;&gt;SERVICE:audit&#45;log -->
<g id="edge7" class="edge">
<title>SERVICE:ops&#45;hub_split&#45;1&#45;&gt;SERVICE:audit&#45;log</title>
<g id="a_edge7"><a xlink:title="edge#6">
<path fill="none" stroke="black" d="M606.19,-70.89C653.09,-75.73 718.78,-82.52 762.92,-87.07"/>
<polygon fill="black" stroke="black" points="762.4,-90.54 772.71,-88.08 763.12,-83.58 762.4,-90.54"/>
</a>
</g>
<text text-anchor="middle" x="682.88" y="-89.7" font-family="Times,serif" font-size="14.00">CALLS [rest] (sync)</text>
</g>
<!-- SERVICE:ops&#45;hub_split&#45;1&#45;&gt;SERVICE:ops&#45;hub_split -->
<g id="edge14" class="edge">
<title>SERVICE:ops&#45;hub_split&#45;1&#45;&gt;SERVICE:ops&#45;hub_split</title>
<g id="a_edge14"><a xlink:title="edge#13">
<path fill="none" stroke="black" d="M606.25,-53.62C612.23,-52.64 618.23,-51.74 624,-51 665.13,-45.74 711.66,-42.49 747.97,-40.56"/>
<polygon fill="black" stroke="black" points="748.06,-44.06 757.87,-40.05 747.7,-37.07 748.06,-44.06"/>
</a>
</g>
<text text-anchor="middle" x="682.88" y="-55.7" font-family="Times,serif" font-size="14.00">CALLS [rest] (sync)</text>
</g>
<!-- SERVICE:scheduler -->
<g id="node18" class="node">
<title>SERVICE:scheduler</title>
<path fill="#eef6ff" stroke="black" d="M82.75,-110C82.75,-110 29.25,-110 29.25,-110 23.25,-110 17.25,-104 17.25,-98 17.25,-98 17.25,-86 17.25,-86 17.25,-80 23.25,-74 29.25,-74 29.25,-74 82.75,-74 82.75,-74 88.75,-74 94.75,-80 94.75,-86 94.75,-86 94.75,-98 94.75,-98 94.75,-104 88.75,-110 82.75,-110"/>
<text text-anchor="middle" x="56" y="-87.7" font-family="Times,serif" font-size="14.00">scheduler</text>
</g>
<!-- SERVICE:scheduler&#45;&gt;SERVICE:ops&#45;hub -->
<g id="edge3" class="edge">
<title>SERVICE:scheduler&#45;&gt;SERVICE:ops&#45;hub</title>
<g id="a_edge3"><a xlink:title="edge#2">
<path fill="none" stroke="black" d="M95.22,-92.9C133.89,-94.25 195.29,-97.63 247.75,-106 250.19,-106.39 252.69,-106.84 255.2,-107.33"/>
<polygon fill="black" stroke="black" points="254.22,-110.7 264.73,-109.37 255.69,-103.85 254.22,-110.7"/>
</a>
</g>
<text text-anchor="middle" x="188.88" y="-110.7" font-family="Times,serif" font-size="14.00">CALLS [rest] (sync)</text>
</g>
<!-- SERVICE:ops&#45;hub&#45;&gt;SERVICE:emailer -->
<g id="edge5" class="edge">
<title>SERVICE:ops&#45;hub&#45;&gt;SERVICE:emailer</title>
<g id="a_edge5"><a xlink:title="edge#4">
<path fill="none" stroke="black" d="M336.08,-134.61C342.13,-137 348.44,-139.25 354.5,-141 405.08,-155.61 465.18,-164.27 504.64,-168.82"/>
<polygon fill="black" stroke="black" points="504.11,-172.28 514.43,-169.91 504.88,-165.33 504.11,-172.28"/>
</a>
</g>
<text text-anchor="middle" x="413.38" y="-169.7" font-family="Times,serif" font-size="14.00">CALLS [rest] (sync)</text>
</g>
<!-- SERVICE:ops&#45;hub&#45;&gt;SERVICE:sms&#45;gateway -->
<g id="edge6" class="edge">
<title>SERVICE:ops&#45;hub&#45;&gt;SERVICE:sms&#45;gateway</title>
<g id="a_edge6"><a xlink:title="edge#5">
<path fill="none" stroke="black" d="M336.19,-119C374.7,-119 438.16,-119 485.44,-119"/>
<polygon fill="black" stroke="black" points="485.26,-122.5 495.26,-119 485.26,-115.5 485.26,-122.5"/>
</a>
</g>
<text text-anchor="middle" x="413.38" y="-123.7" font-family="Times,serif" font-size="14.00">CALLS [rest] (sync)</text>
</g>
<!-- SERVICE:ops&#45;hub&#45;&gt;SERVICE:ops&#45;hub_split&#45;1 -->
<g id="edge15" class="edge">
<title>SERVICE:ops&#45;hub&#45;&gt;SERVICE:ops&#45;hub_split&#45;1</title>
<g id="a_edge15"><a xlink:title="edge#14">
<path fill="none" stroke="black" d="M336.08,-103.39C342.13,-101 348.44,-98.75 354.5,-97 394.94,-85.32 441.46,-77.44 478.65,-72.43"/>
<polygon fill="black" stroke="black" points="478.91,-75.92 488.38,-71.16 478.01,-68.98 478.91,-75.92"/>
</a>
</g>
<text text-anchor="middle" x="413.38" y="-101.7" font-family="Times,serif" font-size="14.00">CALLS [rest] (sync)</text>
</g>
</g>
</svg>
